%TF.GenerationSoftware,KiCad,Pcbnew,7.0.8*%
%TF.CreationDate,2023-11-15T12:02:35+01:00*%
%TF.ProjectId,JL,4a4c2e6b-6963-4616-945f-706362585858,rev?*%
%TF.SameCoordinates,Original*%
%TF.FileFunction,Legend,Bot*%
%TF.FilePolarity,Positive*%
%FSLAX46Y46*%
G04 Gerber Fmt 4.6, Leading zero omitted, Abs format (unit mm)*
G04 Created by KiCad (PCBNEW 7.0.8) date 2023-11-15 12:02:35*
%MOMM*%
%LPD*%
G01*
G04 APERTURE LIST*
%ADD10C,0.150000*%
%ADD11C,0.100000*%
%ADD12C,0.120000*%
G04 APERTURE END LIST*
D10*
X186255501Y-609442308D02*
X186969786Y-609442308D01*
X186969786Y-609442308D02*
X187112643Y-609394689D01*
X187112643Y-609394689D02*
X187207882Y-609299451D01*
X187207882Y-609299451D02*
X187255501Y-609156594D01*
X187255501Y-609156594D02*
X187255501Y-609061356D01*
X186255501Y-610394689D02*
X186255501Y-609918499D01*
X186255501Y-609918499D02*
X186731691Y-609870880D01*
X186731691Y-609870880D02*
X186684072Y-609918499D01*
X186684072Y-609918499D02*
X186636453Y-610013737D01*
X186636453Y-610013737D02*
X186636453Y-610251832D01*
X186636453Y-610251832D02*
X186684072Y-610347070D01*
X186684072Y-610347070D02*
X186731691Y-610394689D01*
X186731691Y-610394689D02*
X186826929Y-610442308D01*
X186826929Y-610442308D02*
X187065024Y-610442308D01*
X187065024Y-610442308D02*
X187160262Y-610394689D01*
X187160262Y-610394689D02*
X187207882Y-610347070D01*
X187207882Y-610347070D02*
X187255501Y-610251832D01*
X187255501Y-610251832D02*
X187255501Y-610013737D01*
X187255501Y-610013737D02*
X187207882Y-609918499D01*
X187207882Y-609918499D02*
X187160262Y-609870880D01*
X186255501Y-611061356D02*
X186255501Y-611156594D01*
X186255501Y-611156594D02*
X186303120Y-611251832D01*
X186303120Y-611251832D02*
X186350739Y-611299451D01*
X186350739Y-611299451D02*
X186445977Y-611347070D01*
X186445977Y-611347070D02*
X186636453Y-611394689D01*
X186636453Y-611394689D02*
X186874548Y-611394689D01*
X186874548Y-611394689D02*
X187065024Y-611347070D01*
X187065024Y-611347070D02*
X187160262Y-611299451D01*
X187160262Y-611299451D02*
X187207882Y-611251832D01*
X187207882Y-611251832D02*
X187255501Y-611156594D01*
X187255501Y-611156594D02*
X187255501Y-611061356D01*
X187255501Y-611061356D02*
X187207882Y-610966118D01*
X187207882Y-610966118D02*
X187160262Y-610918499D01*
X187160262Y-610918499D02*
X187065024Y-610870880D01*
X187065024Y-610870880D02*
X186874548Y-610823261D01*
X186874548Y-610823261D02*
X186636453Y-610823261D01*
X186636453Y-610823261D02*
X186445977Y-610870880D01*
X186445977Y-610870880D02*
X186350739Y-610918499D01*
X186350739Y-610918499D02*
X186303120Y-610966118D01*
X186303120Y-610966118D02*
X186255501Y-611061356D01*
X186255501Y-612299451D02*
X186255501Y-611823261D01*
X186255501Y-611823261D02*
X186731691Y-611775642D01*
X186731691Y-611775642D02*
X186684072Y-611823261D01*
X186684072Y-611823261D02*
X186636453Y-611918499D01*
X186636453Y-611918499D02*
X186636453Y-612156594D01*
X186636453Y-612156594D02*
X186684072Y-612251832D01*
X186684072Y-612251832D02*
X186731691Y-612299451D01*
X186731691Y-612299451D02*
X186826929Y-612347070D01*
X186826929Y-612347070D02*
X187065024Y-612347070D01*
X187065024Y-612347070D02*
X187160262Y-612299451D01*
X187160262Y-612299451D02*
X187207882Y-612251832D01*
X187207882Y-612251832D02*
X187255501Y-612156594D01*
X187255501Y-612156594D02*
X187255501Y-611918499D01*
X187255501Y-611918499D02*
X187207882Y-611823261D01*
X187207882Y-611823261D02*
X187160262Y-611775642D01*
D11*
X196703262Y-556670642D02*
X197179453Y-557003975D01*
X196703262Y-557242070D02*
X197703262Y-557242070D01*
X197703262Y-557242070D02*
X197703262Y-556861118D01*
X197703262Y-556861118D02*
X197655643Y-556765880D01*
X197655643Y-556765880D02*
X197608024Y-556718261D01*
X197608024Y-556718261D02*
X197512786Y-556670642D01*
X197512786Y-556670642D02*
X197369929Y-556670642D01*
X197369929Y-556670642D02*
X197274691Y-556718261D01*
X197274691Y-556718261D02*
X197227072Y-556765880D01*
X197227072Y-556765880D02*
X197179453Y-556861118D01*
X197179453Y-556861118D02*
X197179453Y-557242070D01*
X197703262Y-556384927D02*
X196703262Y-556051594D01*
X196703262Y-556051594D02*
X197703262Y-555718261D01*
X197703262Y-554908737D02*
X197703262Y-555384927D01*
X197703262Y-555384927D02*
X197227072Y-555432546D01*
X197227072Y-555432546D02*
X197274691Y-555384927D01*
X197274691Y-555384927D02*
X197322310Y-555289689D01*
X197322310Y-555289689D02*
X197322310Y-555051594D01*
X197322310Y-555051594D02*
X197274691Y-554956356D01*
X197274691Y-554956356D02*
X197227072Y-554908737D01*
X197227072Y-554908737D02*
X197131834Y-554861118D01*
X197131834Y-554861118D02*
X196893739Y-554861118D01*
X196893739Y-554861118D02*
X196798501Y-554908737D01*
X196798501Y-554908737D02*
X196750882Y-554956356D01*
X196750882Y-554956356D02*
X196703262Y-555051594D01*
X196703262Y-555051594D02*
X196703262Y-555289689D01*
X196703262Y-555289689D02*
X196750882Y-555384927D01*
X196750882Y-555384927D02*
X196798501Y-555432546D01*
X197703262Y-554242070D02*
X197703262Y-554146832D01*
X197703262Y-554146832D02*
X197655643Y-554051594D01*
X197655643Y-554051594D02*
X197608024Y-554003975D01*
X197608024Y-554003975D02*
X197512786Y-553956356D01*
X197512786Y-553956356D02*
X197322310Y-553908737D01*
X197322310Y-553908737D02*
X197084215Y-553908737D01*
X197084215Y-553908737D02*
X196893739Y-553956356D01*
X196893739Y-553956356D02*
X196798501Y-554003975D01*
X196798501Y-554003975D02*
X196750882Y-554051594D01*
X196750882Y-554051594D02*
X196703262Y-554146832D01*
X196703262Y-554146832D02*
X196703262Y-554242070D01*
X196703262Y-554242070D02*
X196750882Y-554337308D01*
X196750882Y-554337308D02*
X196798501Y-554384927D01*
X196798501Y-554384927D02*
X196893739Y-554432546D01*
X196893739Y-554432546D02*
X197084215Y-554480165D01*
X197084215Y-554480165D02*
X197322310Y-554480165D01*
X197322310Y-554480165D02*
X197512786Y-554432546D01*
X197512786Y-554432546D02*
X197608024Y-554384927D01*
X197608024Y-554384927D02*
X197655643Y-554337308D01*
X197655643Y-554337308D02*
X197703262Y-554242070D01*
X197608024Y-553527784D02*
X197655643Y-553480165D01*
X197655643Y-553480165D02*
X197703262Y-553384927D01*
X197703262Y-553384927D02*
X197703262Y-553146832D01*
X197703262Y-553146832D02*
X197655643Y-553051594D01*
X197655643Y-553051594D02*
X197608024Y-553003975D01*
X197608024Y-553003975D02*
X197512786Y-552956356D01*
X197512786Y-552956356D02*
X197417548Y-552956356D01*
X197417548Y-552956356D02*
X197274691Y-553003975D01*
X197274691Y-553003975D02*
X196703262Y-553575403D01*
X196703262Y-553575403D02*
X196703262Y-552956356D01*
X277703262Y-556670642D02*
X278179453Y-557003975D01*
X277703262Y-557242070D02*
X278703262Y-557242070D01*
X278703262Y-557242070D02*
X278703262Y-556861118D01*
X278703262Y-556861118D02*
X278655643Y-556765880D01*
X278655643Y-556765880D02*
X278608024Y-556718261D01*
X278608024Y-556718261D02*
X278512786Y-556670642D01*
X278512786Y-556670642D02*
X278369929Y-556670642D01*
X278369929Y-556670642D02*
X278274691Y-556718261D01*
X278274691Y-556718261D02*
X278227072Y-556765880D01*
X278227072Y-556765880D02*
X278179453Y-556861118D01*
X278179453Y-556861118D02*
X278179453Y-557242070D01*
X278703262Y-556384927D02*
X277703262Y-556051594D01*
X277703262Y-556051594D02*
X278703262Y-555718261D01*
X278703262Y-554908737D02*
X278703262Y-555384927D01*
X278703262Y-555384927D02*
X278227072Y-555432546D01*
X278227072Y-555432546D02*
X278274691Y-555384927D01*
X278274691Y-555384927D02*
X278322310Y-555289689D01*
X278322310Y-555289689D02*
X278322310Y-555051594D01*
X278322310Y-555051594D02*
X278274691Y-554956356D01*
X278274691Y-554956356D02*
X278227072Y-554908737D01*
X278227072Y-554908737D02*
X278131834Y-554861118D01*
X278131834Y-554861118D02*
X277893739Y-554861118D01*
X277893739Y-554861118D02*
X277798501Y-554908737D01*
X277798501Y-554908737D02*
X277750882Y-554956356D01*
X277750882Y-554956356D02*
X277703262Y-555051594D01*
X277703262Y-555051594D02*
X277703262Y-555289689D01*
X277703262Y-555289689D02*
X277750882Y-555384927D01*
X277750882Y-555384927D02*
X277798501Y-555432546D01*
X278703262Y-554242070D02*
X278703262Y-554146832D01*
X278703262Y-554146832D02*
X278655643Y-554051594D01*
X278655643Y-554051594D02*
X278608024Y-554003975D01*
X278608024Y-554003975D02*
X278512786Y-553956356D01*
X278512786Y-553956356D02*
X278322310Y-553908737D01*
X278322310Y-553908737D02*
X278084215Y-553908737D01*
X278084215Y-553908737D02*
X277893739Y-553956356D01*
X277893739Y-553956356D02*
X277798501Y-554003975D01*
X277798501Y-554003975D02*
X277750882Y-554051594D01*
X277750882Y-554051594D02*
X277703262Y-554146832D01*
X277703262Y-554146832D02*
X277703262Y-554242070D01*
X277703262Y-554242070D02*
X277750882Y-554337308D01*
X277750882Y-554337308D02*
X277798501Y-554384927D01*
X277798501Y-554384927D02*
X277893739Y-554432546D01*
X277893739Y-554432546D02*
X278084215Y-554480165D01*
X278084215Y-554480165D02*
X278322310Y-554480165D01*
X278322310Y-554480165D02*
X278512786Y-554432546D01*
X278512786Y-554432546D02*
X278608024Y-554384927D01*
X278608024Y-554384927D02*
X278655643Y-554337308D01*
X278655643Y-554337308D02*
X278703262Y-554242070D01*
X278703262Y-553575403D02*
X278703262Y-552956356D01*
X278703262Y-552956356D02*
X278322310Y-553289689D01*
X278322310Y-553289689D02*
X278322310Y-553146832D01*
X278322310Y-553146832D02*
X278274691Y-553051594D01*
X278274691Y-553051594D02*
X278227072Y-553003975D01*
X278227072Y-553003975D02*
X278131834Y-552956356D01*
X278131834Y-552956356D02*
X277893739Y-552956356D01*
X277893739Y-552956356D02*
X277798501Y-553003975D01*
X277798501Y-553003975D02*
X277750882Y-553051594D01*
X277750882Y-553051594D02*
X277703262Y-553146832D01*
X277703262Y-553146832D02*
X277703262Y-553432546D01*
X277703262Y-553432546D02*
X277750882Y-553527784D01*
X277750882Y-553527784D02*
X277798501Y-553575403D01*
D10*
X441361157Y-517762842D02*
X441361157Y-516762842D01*
X441361157Y-516762842D02*
X441123062Y-516762842D01*
X441123062Y-516762842D02*
X440980205Y-516810461D01*
X440980205Y-516810461D02*
X440884967Y-516905699D01*
X440884967Y-516905699D02*
X440837348Y-517000937D01*
X440837348Y-517000937D02*
X440789729Y-517191413D01*
X440789729Y-517191413D02*
X440789729Y-517334270D01*
X440789729Y-517334270D02*
X440837348Y-517524746D01*
X440837348Y-517524746D02*
X440884967Y-517619984D01*
X440884967Y-517619984D02*
X440980205Y-517715223D01*
X440980205Y-517715223D02*
X441123062Y-517762842D01*
X441123062Y-517762842D02*
X441361157Y-517762842D01*
X439884967Y-516762842D02*
X440361157Y-516762842D01*
X440361157Y-516762842D02*
X440408776Y-517239032D01*
X440408776Y-517239032D02*
X440361157Y-517191413D01*
X440361157Y-517191413D02*
X440265919Y-517143794D01*
X440265919Y-517143794D02*
X440027824Y-517143794D01*
X440027824Y-517143794D02*
X439932586Y-517191413D01*
X439932586Y-517191413D02*
X439884967Y-517239032D01*
X439884967Y-517239032D02*
X439837348Y-517334270D01*
X439837348Y-517334270D02*
X439837348Y-517572365D01*
X439837348Y-517572365D02*
X439884967Y-517667603D01*
X439884967Y-517667603D02*
X439932586Y-517715223D01*
X439932586Y-517715223D02*
X440027824Y-517762842D01*
X440027824Y-517762842D02*
X440265919Y-517762842D01*
X440265919Y-517762842D02*
X440361157Y-517715223D01*
X440361157Y-517715223D02*
X440408776Y-517667603D01*
X438884967Y-517762842D02*
X439456395Y-517762842D01*
X439170681Y-517762842D02*
X439170681Y-516762842D01*
X439170681Y-516762842D02*
X439265919Y-516905699D01*
X439265919Y-516905699D02*
X439361157Y-517000937D01*
X439361157Y-517000937D02*
X439456395Y-517048556D01*
X438313538Y-517191413D02*
X438408776Y-517143794D01*
X438408776Y-517143794D02*
X438456395Y-517096175D01*
X438456395Y-517096175D02*
X438504014Y-517000937D01*
X438504014Y-517000937D02*
X438504014Y-516953318D01*
X438504014Y-516953318D02*
X438456395Y-516858080D01*
X438456395Y-516858080D02*
X438408776Y-516810461D01*
X438408776Y-516810461D02*
X438313538Y-516762842D01*
X438313538Y-516762842D02*
X438123062Y-516762842D01*
X438123062Y-516762842D02*
X438027824Y-516810461D01*
X438027824Y-516810461D02*
X437980205Y-516858080D01*
X437980205Y-516858080D02*
X437932586Y-516953318D01*
X437932586Y-516953318D02*
X437932586Y-517000937D01*
X437932586Y-517000937D02*
X437980205Y-517096175D01*
X437980205Y-517096175D02*
X438027824Y-517143794D01*
X438027824Y-517143794D02*
X438123062Y-517191413D01*
X438123062Y-517191413D02*
X438313538Y-517191413D01*
X438313538Y-517191413D02*
X438408776Y-517239032D01*
X438408776Y-517239032D02*
X438456395Y-517286651D01*
X438456395Y-517286651D02*
X438504014Y-517381889D01*
X438504014Y-517381889D02*
X438504014Y-517572365D01*
X438504014Y-517572365D02*
X438456395Y-517667603D01*
X438456395Y-517667603D02*
X438408776Y-517715223D01*
X438408776Y-517715223D02*
X438313538Y-517762842D01*
X438313538Y-517762842D02*
X438123062Y-517762842D01*
X438123062Y-517762842D02*
X438027824Y-517715223D01*
X438027824Y-517715223D02*
X437980205Y-517667603D01*
X437980205Y-517667603D02*
X437932586Y-517572365D01*
X437932586Y-517572365D02*
X437932586Y-517381889D01*
X437932586Y-517381889D02*
X437980205Y-517286651D01*
X437980205Y-517286651D02*
X438027824Y-517239032D01*
X438027824Y-517239032D02*
X438123062Y-517191413D01*
X429255501Y-609442308D02*
X429969786Y-609442308D01*
X429969786Y-609442308D02*
X430112643Y-609394689D01*
X430112643Y-609394689D02*
X430207882Y-609299451D01*
X430207882Y-609299451D02*
X430255501Y-609156594D01*
X430255501Y-609156594D02*
X430255501Y-609061356D01*
X429255501Y-610394689D02*
X429255501Y-609918499D01*
X429255501Y-609918499D02*
X429731691Y-609870880D01*
X429731691Y-609870880D02*
X429684072Y-609918499D01*
X429684072Y-609918499D02*
X429636453Y-610013737D01*
X429636453Y-610013737D02*
X429636453Y-610251832D01*
X429636453Y-610251832D02*
X429684072Y-610347070D01*
X429684072Y-610347070D02*
X429731691Y-610394689D01*
X429731691Y-610394689D02*
X429826929Y-610442308D01*
X429826929Y-610442308D02*
X430065024Y-610442308D01*
X430065024Y-610442308D02*
X430160262Y-610394689D01*
X430160262Y-610394689D02*
X430207882Y-610347070D01*
X430207882Y-610347070D02*
X430255501Y-610251832D01*
X430255501Y-610251832D02*
X430255501Y-610013737D01*
X430255501Y-610013737D02*
X430207882Y-609918499D01*
X430207882Y-609918499D02*
X430160262Y-609870880D01*
X430255501Y-611394689D02*
X430255501Y-610823261D01*
X430255501Y-611108975D02*
X429255501Y-611108975D01*
X429255501Y-611108975D02*
X429398358Y-611013737D01*
X429398358Y-611013737D02*
X429493596Y-610918499D01*
X429493596Y-610918499D02*
X429541215Y-610823261D01*
X430255501Y-612347070D02*
X430255501Y-611775642D01*
X430255501Y-612061356D02*
X429255501Y-612061356D01*
X429255501Y-612061356D02*
X429398358Y-611966118D01*
X429398358Y-611966118D02*
X429493596Y-611870880D01*
X429493596Y-611870880D02*
X429541215Y-611775642D01*
X360361157Y-517762842D02*
X360361157Y-516762842D01*
X360361157Y-516762842D02*
X360123062Y-516762842D01*
X360123062Y-516762842D02*
X359980205Y-516810461D01*
X359980205Y-516810461D02*
X359884967Y-516905699D01*
X359884967Y-516905699D02*
X359837348Y-517000937D01*
X359837348Y-517000937D02*
X359789729Y-517191413D01*
X359789729Y-517191413D02*
X359789729Y-517334270D01*
X359789729Y-517334270D02*
X359837348Y-517524746D01*
X359837348Y-517524746D02*
X359884967Y-517619984D01*
X359884967Y-517619984D02*
X359980205Y-517715223D01*
X359980205Y-517715223D02*
X360123062Y-517762842D01*
X360123062Y-517762842D02*
X360361157Y-517762842D01*
X358884967Y-516762842D02*
X359361157Y-516762842D01*
X359361157Y-516762842D02*
X359408776Y-517239032D01*
X359408776Y-517239032D02*
X359361157Y-517191413D01*
X359361157Y-517191413D02*
X359265919Y-517143794D01*
X359265919Y-517143794D02*
X359027824Y-517143794D01*
X359027824Y-517143794D02*
X358932586Y-517191413D01*
X358932586Y-517191413D02*
X358884967Y-517239032D01*
X358884967Y-517239032D02*
X358837348Y-517334270D01*
X358837348Y-517334270D02*
X358837348Y-517572365D01*
X358837348Y-517572365D02*
X358884967Y-517667603D01*
X358884967Y-517667603D02*
X358932586Y-517715223D01*
X358932586Y-517715223D02*
X359027824Y-517762842D01*
X359027824Y-517762842D02*
X359265919Y-517762842D01*
X359265919Y-517762842D02*
X359361157Y-517715223D01*
X359361157Y-517715223D02*
X359408776Y-517667603D01*
X357884967Y-517762842D02*
X358456395Y-517762842D01*
X358170681Y-517762842D02*
X358170681Y-516762842D01*
X358170681Y-516762842D02*
X358265919Y-516905699D01*
X358265919Y-516905699D02*
X358361157Y-517000937D01*
X358361157Y-517000937D02*
X358456395Y-517048556D01*
X357027824Y-517096175D02*
X357027824Y-517762842D01*
X357265919Y-516715223D02*
X357504014Y-517429508D01*
X357504014Y-517429508D02*
X356884967Y-517429508D01*
D11*
X115703262Y-556670642D02*
X116179453Y-557003975D01*
X115703262Y-557242070D02*
X116703262Y-557242070D01*
X116703262Y-557242070D02*
X116703262Y-556861118D01*
X116703262Y-556861118D02*
X116655643Y-556765880D01*
X116655643Y-556765880D02*
X116608024Y-556718261D01*
X116608024Y-556718261D02*
X116512786Y-556670642D01*
X116512786Y-556670642D02*
X116369929Y-556670642D01*
X116369929Y-556670642D02*
X116274691Y-556718261D01*
X116274691Y-556718261D02*
X116227072Y-556765880D01*
X116227072Y-556765880D02*
X116179453Y-556861118D01*
X116179453Y-556861118D02*
X116179453Y-557242070D01*
X116703262Y-556384927D02*
X115703262Y-556051594D01*
X115703262Y-556051594D02*
X116703262Y-555718261D01*
X116703262Y-554908737D02*
X116703262Y-555384927D01*
X116703262Y-555384927D02*
X116227072Y-555432546D01*
X116227072Y-555432546D02*
X116274691Y-555384927D01*
X116274691Y-555384927D02*
X116322310Y-555289689D01*
X116322310Y-555289689D02*
X116322310Y-555051594D01*
X116322310Y-555051594D02*
X116274691Y-554956356D01*
X116274691Y-554956356D02*
X116227072Y-554908737D01*
X116227072Y-554908737D02*
X116131834Y-554861118D01*
X116131834Y-554861118D02*
X115893739Y-554861118D01*
X115893739Y-554861118D02*
X115798501Y-554908737D01*
X115798501Y-554908737D02*
X115750882Y-554956356D01*
X115750882Y-554956356D02*
X115703262Y-555051594D01*
X115703262Y-555051594D02*
X115703262Y-555289689D01*
X115703262Y-555289689D02*
X115750882Y-555384927D01*
X115750882Y-555384927D02*
X115798501Y-555432546D01*
X116703262Y-554242070D02*
X116703262Y-554146832D01*
X116703262Y-554146832D02*
X116655643Y-554051594D01*
X116655643Y-554051594D02*
X116608024Y-554003975D01*
X116608024Y-554003975D02*
X116512786Y-553956356D01*
X116512786Y-553956356D02*
X116322310Y-553908737D01*
X116322310Y-553908737D02*
X116084215Y-553908737D01*
X116084215Y-553908737D02*
X115893739Y-553956356D01*
X115893739Y-553956356D02*
X115798501Y-554003975D01*
X115798501Y-554003975D02*
X115750882Y-554051594D01*
X115750882Y-554051594D02*
X115703262Y-554146832D01*
X115703262Y-554146832D02*
X115703262Y-554242070D01*
X115703262Y-554242070D02*
X115750882Y-554337308D01*
X115750882Y-554337308D02*
X115798501Y-554384927D01*
X115798501Y-554384927D02*
X115893739Y-554432546D01*
X115893739Y-554432546D02*
X116084215Y-554480165D01*
X116084215Y-554480165D02*
X116322310Y-554480165D01*
X116322310Y-554480165D02*
X116512786Y-554432546D01*
X116512786Y-554432546D02*
X116608024Y-554384927D01*
X116608024Y-554384927D02*
X116655643Y-554337308D01*
X116655643Y-554337308D02*
X116703262Y-554242070D01*
X115703262Y-552956356D02*
X115703262Y-553527784D01*
X115703262Y-553242070D02*
X116703262Y-553242070D01*
X116703262Y-553242070D02*
X116560405Y-553337308D01*
X116560405Y-553337308D02*
X116465167Y-553432546D01*
X116465167Y-553432546D02*
X116417548Y-553527784D01*
D10*
X117361157Y-517762842D02*
X117361157Y-516762842D01*
X117361157Y-516762842D02*
X117123062Y-516762842D01*
X117123062Y-516762842D02*
X116980205Y-516810461D01*
X116980205Y-516810461D02*
X116884967Y-516905699D01*
X116884967Y-516905699D02*
X116837348Y-517000937D01*
X116837348Y-517000937D02*
X116789729Y-517191413D01*
X116789729Y-517191413D02*
X116789729Y-517334270D01*
X116789729Y-517334270D02*
X116837348Y-517524746D01*
X116837348Y-517524746D02*
X116884967Y-517619984D01*
X116884967Y-517619984D02*
X116980205Y-517715223D01*
X116980205Y-517715223D02*
X117123062Y-517762842D01*
X117123062Y-517762842D02*
X117361157Y-517762842D01*
X115884967Y-516762842D02*
X116361157Y-516762842D01*
X116361157Y-516762842D02*
X116408776Y-517239032D01*
X116408776Y-517239032D02*
X116361157Y-517191413D01*
X116361157Y-517191413D02*
X116265919Y-517143794D01*
X116265919Y-517143794D02*
X116027824Y-517143794D01*
X116027824Y-517143794D02*
X115932586Y-517191413D01*
X115932586Y-517191413D02*
X115884967Y-517239032D01*
X115884967Y-517239032D02*
X115837348Y-517334270D01*
X115837348Y-517334270D02*
X115837348Y-517572365D01*
X115837348Y-517572365D02*
X115884967Y-517667603D01*
X115884967Y-517667603D02*
X115932586Y-517715223D01*
X115932586Y-517715223D02*
X116027824Y-517762842D01*
X116027824Y-517762842D02*
X116265919Y-517762842D01*
X116265919Y-517762842D02*
X116361157Y-517715223D01*
X116361157Y-517715223D02*
X116408776Y-517667603D01*
X115218300Y-516762842D02*
X115123062Y-516762842D01*
X115123062Y-516762842D02*
X115027824Y-516810461D01*
X115027824Y-516810461D02*
X114980205Y-516858080D01*
X114980205Y-516858080D02*
X114932586Y-516953318D01*
X114932586Y-516953318D02*
X114884967Y-517143794D01*
X114884967Y-517143794D02*
X114884967Y-517381889D01*
X114884967Y-517381889D02*
X114932586Y-517572365D01*
X114932586Y-517572365D02*
X114980205Y-517667603D01*
X114980205Y-517667603D02*
X115027824Y-517715223D01*
X115027824Y-517715223D02*
X115123062Y-517762842D01*
X115123062Y-517762842D02*
X115218300Y-517762842D01*
X115218300Y-517762842D02*
X115313538Y-517715223D01*
X115313538Y-517715223D02*
X115361157Y-517667603D01*
X115361157Y-517667603D02*
X115408776Y-517572365D01*
X115408776Y-517572365D02*
X115456395Y-517381889D01*
X115456395Y-517381889D02*
X115456395Y-517143794D01*
X115456395Y-517143794D02*
X115408776Y-516953318D01*
X115408776Y-516953318D02*
X115361157Y-516858080D01*
X115361157Y-516858080D02*
X115313538Y-516810461D01*
X115313538Y-516810461D02*
X115218300Y-516762842D01*
X114504014Y-516858080D02*
X114456395Y-516810461D01*
X114456395Y-516810461D02*
X114361157Y-516762842D01*
X114361157Y-516762842D02*
X114123062Y-516762842D01*
X114123062Y-516762842D02*
X114027824Y-516810461D01*
X114027824Y-516810461D02*
X113980205Y-516858080D01*
X113980205Y-516858080D02*
X113932586Y-516953318D01*
X113932586Y-516953318D02*
X113932586Y-517048556D01*
X113932586Y-517048556D02*
X113980205Y-517191413D01*
X113980205Y-517191413D02*
X114551633Y-517762842D01*
X114551633Y-517762842D02*
X113932586Y-517762842D01*
X348255501Y-609442308D02*
X348969786Y-609442308D01*
X348969786Y-609442308D02*
X349112643Y-609394689D01*
X349112643Y-609394689D02*
X349207882Y-609299451D01*
X349207882Y-609299451D02*
X349255501Y-609156594D01*
X349255501Y-609156594D02*
X349255501Y-609061356D01*
X348255501Y-610394689D02*
X348255501Y-609918499D01*
X348255501Y-609918499D02*
X348731691Y-609870880D01*
X348731691Y-609870880D02*
X348684072Y-609918499D01*
X348684072Y-609918499D02*
X348636453Y-610013737D01*
X348636453Y-610013737D02*
X348636453Y-610251832D01*
X348636453Y-610251832D02*
X348684072Y-610347070D01*
X348684072Y-610347070D02*
X348731691Y-610394689D01*
X348731691Y-610394689D02*
X348826929Y-610442308D01*
X348826929Y-610442308D02*
X349065024Y-610442308D01*
X349065024Y-610442308D02*
X349160262Y-610394689D01*
X349160262Y-610394689D02*
X349207882Y-610347070D01*
X349207882Y-610347070D02*
X349255501Y-610251832D01*
X349255501Y-610251832D02*
X349255501Y-610013737D01*
X349255501Y-610013737D02*
X349207882Y-609918499D01*
X349207882Y-609918499D02*
X349160262Y-609870880D01*
X348255501Y-611061356D02*
X348255501Y-611156594D01*
X348255501Y-611156594D02*
X348303120Y-611251832D01*
X348303120Y-611251832D02*
X348350739Y-611299451D01*
X348350739Y-611299451D02*
X348445977Y-611347070D01*
X348445977Y-611347070D02*
X348636453Y-611394689D01*
X348636453Y-611394689D02*
X348874548Y-611394689D01*
X348874548Y-611394689D02*
X349065024Y-611347070D01*
X349065024Y-611347070D02*
X349160262Y-611299451D01*
X349160262Y-611299451D02*
X349207882Y-611251832D01*
X349207882Y-611251832D02*
X349255501Y-611156594D01*
X349255501Y-611156594D02*
X349255501Y-611061356D01*
X349255501Y-611061356D02*
X349207882Y-610966118D01*
X349207882Y-610966118D02*
X349160262Y-610918499D01*
X349160262Y-610918499D02*
X349065024Y-610870880D01*
X349065024Y-610870880D02*
X348874548Y-610823261D01*
X348874548Y-610823261D02*
X348636453Y-610823261D01*
X348636453Y-610823261D02*
X348445977Y-610870880D01*
X348445977Y-610870880D02*
X348350739Y-610918499D01*
X348350739Y-610918499D02*
X348303120Y-610966118D01*
X348303120Y-610966118D02*
X348255501Y-611061356D01*
X349255501Y-611870880D02*
X349255501Y-612061356D01*
X349255501Y-612061356D02*
X349207882Y-612156594D01*
X349207882Y-612156594D02*
X349160262Y-612204213D01*
X349160262Y-612204213D02*
X349017405Y-612299451D01*
X349017405Y-612299451D02*
X348826929Y-612347070D01*
X348826929Y-612347070D02*
X348445977Y-612347070D01*
X348445977Y-612347070D02*
X348350739Y-612299451D01*
X348350739Y-612299451D02*
X348303120Y-612251832D01*
X348303120Y-612251832D02*
X348255501Y-612156594D01*
X348255501Y-612156594D02*
X348255501Y-611966118D01*
X348255501Y-611966118D02*
X348303120Y-611870880D01*
X348303120Y-611870880D02*
X348350739Y-611823261D01*
X348350739Y-611823261D02*
X348445977Y-611775642D01*
X348445977Y-611775642D02*
X348684072Y-611775642D01*
X348684072Y-611775642D02*
X348779310Y-611823261D01*
X348779310Y-611823261D02*
X348826929Y-611870880D01*
X348826929Y-611870880D02*
X348874548Y-611966118D01*
X348874548Y-611966118D02*
X348874548Y-612156594D01*
X348874548Y-612156594D02*
X348826929Y-612251832D01*
X348826929Y-612251832D02*
X348779310Y-612299451D01*
X348779310Y-612299451D02*
X348684072Y-612347070D01*
X198361157Y-517762842D02*
X198361157Y-516762842D01*
X198361157Y-516762842D02*
X198123062Y-516762842D01*
X198123062Y-516762842D02*
X197980205Y-516810461D01*
X197980205Y-516810461D02*
X197884967Y-516905699D01*
X197884967Y-516905699D02*
X197837348Y-517000937D01*
X197837348Y-517000937D02*
X197789729Y-517191413D01*
X197789729Y-517191413D02*
X197789729Y-517334270D01*
X197789729Y-517334270D02*
X197837348Y-517524746D01*
X197837348Y-517524746D02*
X197884967Y-517619984D01*
X197884967Y-517619984D02*
X197980205Y-517715223D01*
X197980205Y-517715223D02*
X198123062Y-517762842D01*
X198123062Y-517762842D02*
X198361157Y-517762842D01*
X196884967Y-516762842D02*
X197361157Y-516762842D01*
X197361157Y-516762842D02*
X197408776Y-517239032D01*
X197408776Y-517239032D02*
X197361157Y-517191413D01*
X197361157Y-517191413D02*
X197265919Y-517143794D01*
X197265919Y-517143794D02*
X197027824Y-517143794D01*
X197027824Y-517143794D02*
X196932586Y-517191413D01*
X196932586Y-517191413D02*
X196884967Y-517239032D01*
X196884967Y-517239032D02*
X196837348Y-517334270D01*
X196837348Y-517334270D02*
X196837348Y-517572365D01*
X196837348Y-517572365D02*
X196884967Y-517667603D01*
X196884967Y-517667603D02*
X196932586Y-517715223D01*
X196932586Y-517715223D02*
X197027824Y-517762842D01*
X197027824Y-517762842D02*
X197265919Y-517762842D01*
X197265919Y-517762842D02*
X197361157Y-517715223D01*
X197361157Y-517715223D02*
X197408776Y-517667603D01*
X196218300Y-516762842D02*
X196123062Y-516762842D01*
X196123062Y-516762842D02*
X196027824Y-516810461D01*
X196027824Y-516810461D02*
X195980205Y-516858080D01*
X195980205Y-516858080D02*
X195932586Y-516953318D01*
X195932586Y-516953318D02*
X195884967Y-517143794D01*
X195884967Y-517143794D02*
X195884967Y-517381889D01*
X195884967Y-517381889D02*
X195932586Y-517572365D01*
X195932586Y-517572365D02*
X195980205Y-517667603D01*
X195980205Y-517667603D02*
X196027824Y-517715223D01*
X196027824Y-517715223D02*
X196123062Y-517762842D01*
X196123062Y-517762842D02*
X196218300Y-517762842D01*
X196218300Y-517762842D02*
X196313538Y-517715223D01*
X196313538Y-517715223D02*
X196361157Y-517667603D01*
X196361157Y-517667603D02*
X196408776Y-517572365D01*
X196408776Y-517572365D02*
X196456395Y-517381889D01*
X196456395Y-517381889D02*
X196456395Y-517143794D01*
X196456395Y-517143794D02*
X196408776Y-516953318D01*
X196408776Y-516953318D02*
X196361157Y-516858080D01*
X196361157Y-516858080D02*
X196313538Y-516810461D01*
X196313538Y-516810461D02*
X196218300Y-516762842D01*
X195027824Y-516762842D02*
X195218300Y-516762842D01*
X195218300Y-516762842D02*
X195313538Y-516810461D01*
X195313538Y-516810461D02*
X195361157Y-516858080D01*
X195361157Y-516858080D02*
X195456395Y-517000937D01*
X195456395Y-517000937D02*
X195504014Y-517191413D01*
X195504014Y-517191413D02*
X195504014Y-517572365D01*
X195504014Y-517572365D02*
X195456395Y-517667603D01*
X195456395Y-517667603D02*
X195408776Y-517715223D01*
X195408776Y-517715223D02*
X195313538Y-517762842D01*
X195313538Y-517762842D02*
X195123062Y-517762842D01*
X195123062Y-517762842D02*
X195027824Y-517715223D01*
X195027824Y-517715223D02*
X194980205Y-517667603D01*
X194980205Y-517667603D02*
X194932586Y-517572365D01*
X194932586Y-517572365D02*
X194932586Y-517334270D01*
X194932586Y-517334270D02*
X194980205Y-517239032D01*
X194980205Y-517239032D02*
X195027824Y-517191413D01*
X195027824Y-517191413D02*
X195123062Y-517143794D01*
X195123062Y-517143794D02*
X195313538Y-517143794D01*
X195313538Y-517143794D02*
X195408776Y-517191413D01*
X195408776Y-517191413D02*
X195456395Y-517239032D01*
X195456395Y-517239032D02*
X195504014Y-517334270D01*
D11*
X358703262Y-556670642D02*
X359179453Y-557003975D01*
X358703262Y-557242070D02*
X359703262Y-557242070D01*
X359703262Y-557242070D02*
X359703262Y-556861118D01*
X359703262Y-556861118D02*
X359655643Y-556765880D01*
X359655643Y-556765880D02*
X359608024Y-556718261D01*
X359608024Y-556718261D02*
X359512786Y-556670642D01*
X359512786Y-556670642D02*
X359369929Y-556670642D01*
X359369929Y-556670642D02*
X359274691Y-556718261D01*
X359274691Y-556718261D02*
X359227072Y-556765880D01*
X359227072Y-556765880D02*
X359179453Y-556861118D01*
X359179453Y-556861118D02*
X359179453Y-557242070D01*
X359703262Y-556384927D02*
X358703262Y-556051594D01*
X358703262Y-556051594D02*
X359703262Y-555718261D01*
X359703262Y-554908737D02*
X359703262Y-555384927D01*
X359703262Y-555384927D02*
X359227072Y-555432546D01*
X359227072Y-555432546D02*
X359274691Y-555384927D01*
X359274691Y-555384927D02*
X359322310Y-555289689D01*
X359322310Y-555289689D02*
X359322310Y-555051594D01*
X359322310Y-555051594D02*
X359274691Y-554956356D01*
X359274691Y-554956356D02*
X359227072Y-554908737D01*
X359227072Y-554908737D02*
X359131834Y-554861118D01*
X359131834Y-554861118D02*
X358893739Y-554861118D01*
X358893739Y-554861118D02*
X358798501Y-554908737D01*
X358798501Y-554908737D02*
X358750882Y-554956356D01*
X358750882Y-554956356D02*
X358703262Y-555051594D01*
X358703262Y-555051594D02*
X358703262Y-555289689D01*
X358703262Y-555289689D02*
X358750882Y-555384927D01*
X358750882Y-555384927D02*
X358798501Y-555432546D01*
X359703262Y-554242070D02*
X359703262Y-554146832D01*
X359703262Y-554146832D02*
X359655643Y-554051594D01*
X359655643Y-554051594D02*
X359608024Y-554003975D01*
X359608024Y-554003975D02*
X359512786Y-553956356D01*
X359512786Y-553956356D02*
X359322310Y-553908737D01*
X359322310Y-553908737D02*
X359084215Y-553908737D01*
X359084215Y-553908737D02*
X358893739Y-553956356D01*
X358893739Y-553956356D02*
X358798501Y-554003975D01*
X358798501Y-554003975D02*
X358750882Y-554051594D01*
X358750882Y-554051594D02*
X358703262Y-554146832D01*
X358703262Y-554146832D02*
X358703262Y-554242070D01*
X358703262Y-554242070D02*
X358750882Y-554337308D01*
X358750882Y-554337308D02*
X358798501Y-554384927D01*
X358798501Y-554384927D02*
X358893739Y-554432546D01*
X358893739Y-554432546D02*
X359084215Y-554480165D01*
X359084215Y-554480165D02*
X359322310Y-554480165D01*
X359322310Y-554480165D02*
X359512786Y-554432546D01*
X359512786Y-554432546D02*
X359608024Y-554384927D01*
X359608024Y-554384927D02*
X359655643Y-554337308D01*
X359655643Y-554337308D02*
X359703262Y-554242070D01*
X359369929Y-553051594D02*
X358703262Y-553051594D01*
X359750882Y-553289689D02*
X359036596Y-553527784D01*
X359036596Y-553527784D02*
X359036596Y-552908737D01*
X439703262Y-556670642D02*
X440179453Y-557003975D01*
X439703262Y-557242070D02*
X440703262Y-557242070D01*
X440703262Y-557242070D02*
X440703262Y-556861118D01*
X440703262Y-556861118D02*
X440655643Y-556765880D01*
X440655643Y-556765880D02*
X440608024Y-556718261D01*
X440608024Y-556718261D02*
X440512786Y-556670642D01*
X440512786Y-556670642D02*
X440369929Y-556670642D01*
X440369929Y-556670642D02*
X440274691Y-556718261D01*
X440274691Y-556718261D02*
X440227072Y-556765880D01*
X440227072Y-556765880D02*
X440179453Y-556861118D01*
X440179453Y-556861118D02*
X440179453Y-557242070D01*
X440703262Y-556384927D02*
X439703262Y-556051594D01*
X439703262Y-556051594D02*
X440703262Y-555718261D01*
X440703262Y-554908737D02*
X440703262Y-555384927D01*
X440703262Y-555384927D02*
X440227072Y-555432546D01*
X440227072Y-555432546D02*
X440274691Y-555384927D01*
X440274691Y-555384927D02*
X440322310Y-555289689D01*
X440322310Y-555289689D02*
X440322310Y-555051594D01*
X440322310Y-555051594D02*
X440274691Y-554956356D01*
X440274691Y-554956356D02*
X440227072Y-554908737D01*
X440227072Y-554908737D02*
X440131834Y-554861118D01*
X440131834Y-554861118D02*
X439893739Y-554861118D01*
X439893739Y-554861118D02*
X439798501Y-554908737D01*
X439798501Y-554908737D02*
X439750882Y-554956356D01*
X439750882Y-554956356D02*
X439703262Y-555051594D01*
X439703262Y-555051594D02*
X439703262Y-555289689D01*
X439703262Y-555289689D02*
X439750882Y-555384927D01*
X439750882Y-555384927D02*
X439798501Y-555432546D01*
X440703262Y-554242070D02*
X440703262Y-554146832D01*
X440703262Y-554146832D02*
X440655643Y-554051594D01*
X440655643Y-554051594D02*
X440608024Y-554003975D01*
X440608024Y-554003975D02*
X440512786Y-553956356D01*
X440512786Y-553956356D02*
X440322310Y-553908737D01*
X440322310Y-553908737D02*
X440084215Y-553908737D01*
X440084215Y-553908737D02*
X439893739Y-553956356D01*
X439893739Y-553956356D02*
X439798501Y-554003975D01*
X439798501Y-554003975D02*
X439750882Y-554051594D01*
X439750882Y-554051594D02*
X439703262Y-554146832D01*
X439703262Y-554146832D02*
X439703262Y-554242070D01*
X439703262Y-554242070D02*
X439750882Y-554337308D01*
X439750882Y-554337308D02*
X439798501Y-554384927D01*
X439798501Y-554384927D02*
X439893739Y-554432546D01*
X439893739Y-554432546D02*
X440084215Y-554480165D01*
X440084215Y-554480165D02*
X440322310Y-554480165D01*
X440322310Y-554480165D02*
X440512786Y-554432546D01*
X440512786Y-554432546D02*
X440608024Y-554384927D01*
X440608024Y-554384927D02*
X440655643Y-554337308D01*
X440655643Y-554337308D02*
X440703262Y-554242070D01*
X440703262Y-553003975D02*
X440703262Y-553480165D01*
X440703262Y-553480165D02*
X440227072Y-553527784D01*
X440227072Y-553527784D02*
X440274691Y-553480165D01*
X440274691Y-553480165D02*
X440322310Y-553384927D01*
X440322310Y-553384927D02*
X440322310Y-553146832D01*
X440322310Y-553146832D02*
X440274691Y-553051594D01*
X440274691Y-553051594D02*
X440227072Y-553003975D01*
X440227072Y-553003975D02*
X440131834Y-552956356D01*
X440131834Y-552956356D02*
X439893739Y-552956356D01*
X439893739Y-552956356D02*
X439798501Y-553003975D01*
X439798501Y-553003975D02*
X439750882Y-553051594D01*
X439750882Y-553051594D02*
X439703262Y-553146832D01*
X439703262Y-553146832D02*
X439703262Y-553384927D01*
X439703262Y-553384927D02*
X439750882Y-553480165D01*
X439750882Y-553480165D02*
X439798501Y-553527784D01*
D10*
X279361157Y-517762842D02*
X279361157Y-516762842D01*
X279361157Y-516762842D02*
X279123062Y-516762842D01*
X279123062Y-516762842D02*
X278980205Y-516810461D01*
X278980205Y-516810461D02*
X278884967Y-516905699D01*
X278884967Y-516905699D02*
X278837348Y-517000937D01*
X278837348Y-517000937D02*
X278789729Y-517191413D01*
X278789729Y-517191413D02*
X278789729Y-517334270D01*
X278789729Y-517334270D02*
X278837348Y-517524746D01*
X278837348Y-517524746D02*
X278884967Y-517619984D01*
X278884967Y-517619984D02*
X278980205Y-517715223D01*
X278980205Y-517715223D02*
X279123062Y-517762842D01*
X279123062Y-517762842D02*
X279361157Y-517762842D01*
X277884967Y-516762842D02*
X278361157Y-516762842D01*
X278361157Y-516762842D02*
X278408776Y-517239032D01*
X278408776Y-517239032D02*
X278361157Y-517191413D01*
X278361157Y-517191413D02*
X278265919Y-517143794D01*
X278265919Y-517143794D02*
X278027824Y-517143794D01*
X278027824Y-517143794D02*
X277932586Y-517191413D01*
X277932586Y-517191413D02*
X277884967Y-517239032D01*
X277884967Y-517239032D02*
X277837348Y-517334270D01*
X277837348Y-517334270D02*
X277837348Y-517572365D01*
X277837348Y-517572365D02*
X277884967Y-517667603D01*
X277884967Y-517667603D02*
X277932586Y-517715223D01*
X277932586Y-517715223D02*
X278027824Y-517762842D01*
X278027824Y-517762842D02*
X278265919Y-517762842D01*
X278265919Y-517762842D02*
X278361157Y-517715223D01*
X278361157Y-517715223D02*
X278408776Y-517667603D01*
X276884967Y-517762842D02*
X277456395Y-517762842D01*
X277170681Y-517762842D02*
X277170681Y-516762842D01*
X277170681Y-516762842D02*
X277265919Y-516905699D01*
X277265919Y-516905699D02*
X277361157Y-517000937D01*
X277361157Y-517000937D02*
X277456395Y-517048556D01*
X276265919Y-516762842D02*
X276170681Y-516762842D01*
X276170681Y-516762842D02*
X276075443Y-516810461D01*
X276075443Y-516810461D02*
X276027824Y-516858080D01*
X276027824Y-516858080D02*
X275980205Y-516953318D01*
X275980205Y-516953318D02*
X275932586Y-517143794D01*
X275932586Y-517143794D02*
X275932586Y-517381889D01*
X275932586Y-517381889D02*
X275980205Y-517572365D01*
X275980205Y-517572365D02*
X276027824Y-517667603D01*
X276027824Y-517667603D02*
X276075443Y-517715223D01*
X276075443Y-517715223D02*
X276170681Y-517762842D01*
X276170681Y-517762842D02*
X276265919Y-517762842D01*
X276265919Y-517762842D02*
X276361157Y-517715223D01*
X276361157Y-517715223D02*
X276408776Y-517667603D01*
X276408776Y-517667603D02*
X276456395Y-517572365D01*
X276456395Y-517572365D02*
X276504014Y-517381889D01*
X276504014Y-517381889D02*
X276504014Y-517143794D01*
X276504014Y-517143794D02*
X276456395Y-516953318D01*
X276456395Y-516953318D02*
X276408776Y-516858080D01*
X276408776Y-516858080D02*
X276361157Y-516810461D01*
X276361157Y-516810461D02*
X276265919Y-516762842D01*
X105255501Y-609442308D02*
X105969786Y-609442308D01*
X105969786Y-609442308D02*
X106112643Y-609394689D01*
X106112643Y-609394689D02*
X106207882Y-609299451D01*
X106207882Y-609299451D02*
X106255501Y-609156594D01*
X106255501Y-609156594D02*
X106255501Y-609061356D01*
X105255501Y-610394689D02*
X105255501Y-609918499D01*
X105255501Y-609918499D02*
X105731691Y-609870880D01*
X105731691Y-609870880D02*
X105684072Y-609918499D01*
X105684072Y-609918499D02*
X105636453Y-610013737D01*
X105636453Y-610013737D02*
X105636453Y-610251832D01*
X105636453Y-610251832D02*
X105684072Y-610347070D01*
X105684072Y-610347070D02*
X105731691Y-610394689D01*
X105731691Y-610394689D02*
X105826929Y-610442308D01*
X105826929Y-610442308D02*
X106065024Y-610442308D01*
X106065024Y-610442308D02*
X106160262Y-610394689D01*
X106160262Y-610394689D02*
X106207882Y-610347070D01*
X106207882Y-610347070D02*
X106255501Y-610251832D01*
X106255501Y-610251832D02*
X106255501Y-610013737D01*
X106255501Y-610013737D02*
X106207882Y-609918499D01*
X106207882Y-609918499D02*
X106160262Y-609870880D01*
X105255501Y-611061356D02*
X105255501Y-611156594D01*
X105255501Y-611156594D02*
X105303120Y-611251832D01*
X105303120Y-611251832D02*
X105350739Y-611299451D01*
X105350739Y-611299451D02*
X105445977Y-611347070D01*
X105445977Y-611347070D02*
X105636453Y-611394689D01*
X105636453Y-611394689D02*
X105874548Y-611394689D01*
X105874548Y-611394689D02*
X106065024Y-611347070D01*
X106065024Y-611347070D02*
X106160262Y-611299451D01*
X106160262Y-611299451D02*
X106207882Y-611251832D01*
X106207882Y-611251832D02*
X106255501Y-611156594D01*
X106255501Y-611156594D02*
X106255501Y-611061356D01*
X106255501Y-611061356D02*
X106207882Y-610966118D01*
X106207882Y-610966118D02*
X106160262Y-610918499D01*
X106160262Y-610918499D02*
X106065024Y-610870880D01*
X106065024Y-610870880D02*
X105874548Y-610823261D01*
X105874548Y-610823261D02*
X105636453Y-610823261D01*
X105636453Y-610823261D02*
X105445977Y-610870880D01*
X105445977Y-610870880D02*
X105350739Y-610918499D01*
X105350739Y-610918499D02*
X105303120Y-610966118D01*
X105303120Y-610966118D02*
X105255501Y-611061356D01*
X106255501Y-612347070D02*
X106255501Y-611775642D01*
X106255501Y-612061356D02*
X105255501Y-612061356D01*
X105255501Y-612061356D02*
X105398358Y-611966118D01*
X105398358Y-611966118D02*
X105493596Y-611870880D01*
X105493596Y-611870880D02*
X105541215Y-611775642D01*
X267255501Y-609442308D02*
X267969786Y-609442308D01*
X267969786Y-609442308D02*
X268112643Y-609394689D01*
X268112643Y-609394689D02*
X268207882Y-609299451D01*
X268207882Y-609299451D02*
X268255501Y-609156594D01*
X268255501Y-609156594D02*
X268255501Y-609061356D01*
X267255501Y-610394689D02*
X267255501Y-609918499D01*
X267255501Y-609918499D02*
X267731691Y-609870880D01*
X267731691Y-609870880D02*
X267684072Y-609918499D01*
X267684072Y-609918499D02*
X267636453Y-610013737D01*
X267636453Y-610013737D02*
X267636453Y-610251832D01*
X267636453Y-610251832D02*
X267684072Y-610347070D01*
X267684072Y-610347070D02*
X267731691Y-610394689D01*
X267731691Y-610394689D02*
X267826929Y-610442308D01*
X267826929Y-610442308D02*
X268065024Y-610442308D01*
X268065024Y-610442308D02*
X268160262Y-610394689D01*
X268160262Y-610394689D02*
X268207882Y-610347070D01*
X268207882Y-610347070D02*
X268255501Y-610251832D01*
X268255501Y-610251832D02*
X268255501Y-610013737D01*
X268255501Y-610013737D02*
X268207882Y-609918499D01*
X268207882Y-609918499D02*
X268160262Y-609870880D01*
X267255501Y-611061356D02*
X267255501Y-611156594D01*
X267255501Y-611156594D02*
X267303120Y-611251832D01*
X267303120Y-611251832D02*
X267350739Y-611299451D01*
X267350739Y-611299451D02*
X267445977Y-611347070D01*
X267445977Y-611347070D02*
X267636453Y-611394689D01*
X267636453Y-611394689D02*
X267874548Y-611394689D01*
X267874548Y-611394689D02*
X268065024Y-611347070D01*
X268065024Y-611347070D02*
X268160262Y-611299451D01*
X268160262Y-611299451D02*
X268207882Y-611251832D01*
X268207882Y-611251832D02*
X268255501Y-611156594D01*
X268255501Y-611156594D02*
X268255501Y-611061356D01*
X268255501Y-611061356D02*
X268207882Y-610966118D01*
X268207882Y-610966118D02*
X268160262Y-610918499D01*
X268160262Y-610918499D02*
X268065024Y-610870880D01*
X268065024Y-610870880D02*
X267874548Y-610823261D01*
X267874548Y-610823261D02*
X267636453Y-610823261D01*
X267636453Y-610823261D02*
X267445977Y-610870880D01*
X267445977Y-610870880D02*
X267350739Y-610918499D01*
X267350739Y-610918499D02*
X267303120Y-610966118D01*
X267303120Y-610966118D02*
X267255501Y-611061356D01*
X267255501Y-611728023D02*
X267255501Y-612394689D01*
X267255501Y-612394689D02*
X268255501Y-611966118D01*
D12*
%TO.C,J505*%
X202130682Y-608128023D02*
X202130682Y-613328023D01*
X189310682Y-608128023D02*
X202130682Y-608128023D01*
X189310682Y-608128023D02*
X189310682Y-610728023D01*
X191910682Y-610728023D02*
X191910682Y-613328023D01*
X189310682Y-610728023D02*
X191910682Y-610728023D01*
X189310682Y-611998023D02*
X189310682Y-613328023D01*
X191910682Y-613328023D02*
X202130682Y-613328023D01*
X189310682Y-613328023D02*
X190640682Y-613328023D01*
D11*
%TO.C,RV502*%
X201960682Y-591723023D02*
X191260682Y-591723023D01*
X191260682Y-591723023D02*
X191260682Y-518323023D01*
X191260682Y-518323023D02*
X201960682Y-518323023D01*
X201960682Y-518323023D02*
X201960682Y-591723023D01*
X204060682Y-592823023D02*
G75*
G03*
X204060682Y-592823023I-500000J0D01*
G01*
%TO.C,RV503*%
X282960682Y-591723023D02*
X272260682Y-591723023D01*
X272260682Y-591723023D02*
X272260682Y-518323023D01*
X272260682Y-518323023D02*
X282960682Y-518323023D01*
X282960682Y-518323023D02*
X282960682Y-591723023D01*
X285060682Y-592823023D02*
G75*
G03*
X285060682Y-592823023I-500000J0D01*
G01*
D12*
%TO.C,D518*%
X437110682Y-514893023D02*
X437110682Y-511803023D01*
X442660681Y-513348485D02*
G75*
G03*
X437110683Y-511803193I-2989999J462D01*
G01*
X437110682Y-514892853D02*
G75*
G03*
X442660682Y-513347561I2560000J1544830D01*
G01*
X442170682Y-513348023D02*
G75*
G03*
X442170682Y-513348023I-2500000J0D01*
G01*
%TO.C,J511*%
X445130682Y-608128023D02*
X445130682Y-613328023D01*
X432310682Y-608128023D02*
X445130682Y-608128023D01*
X432310682Y-608128023D02*
X432310682Y-610728023D01*
X434910682Y-610728023D02*
X434910682Y-613328023D01*
X432310682Y-610728023D02*
X434910682Y-610728023D01*
X432310682Y-611998023D02*
X432310682Y-613328023D01*
X434910682Y-613328023D02*
X445130682Y-613328023D01*
X432310682Y-613328023D02*
X433640682Y-613328023D01*
%TO.C,D514*%
X356110682Y-514893023D02*
X356110682Y-511803023D01*
X361660681Y-513348485D02*
G75*
G03*
X356110683Y-511803193I-2989999J462D01*
G01*
X356110682Y-514892853D02*
G75*
G03*
X361660682Y-513347561I2560000J1544830D01*
G01*
X361170682Y-513348023D02*
G75*
G03*
X361170682Y-513348023I-2500000J0D01*
G01*
D11*
%TO.C,RV501*%
X120960682Y-591723023D02*
X110260682Y-591723023D01*
X110260682Y-591723023D02*
X110260682Y-518323023D01*
X110260682Y-518323023D02*
X120960682Y-518323023D01*
X120960682Y-518323023D02*
X120960682Y-591723023D01*
X123060682Y-592823023D02*
G75*
G03*
X123060682Y-592823023I-500000J0D01*
G01*
D12*
%TO.C,D502*%
X113110682Y-514893023D02*
X113110682Y-511803023D01*
X118660681Y-513348485D02*
G75*
G03*
X113110683Y-511803193I-2989999J462D01*
G01*
X113110682Y-514892853D02*
G75*
G03*
X118660682Y-513347561I2560000J1544830D01*
G01*
X118170682Y-513348023D02*
G75*
G03*
X118170682Y-513348023I-2500000J0D01*
G01*
%TO.C,J509*%
X364130682Y-608128023D02*
X364130682Y-613328023D01*
X351310682Y-608128023D02*
X364130682Y-608128023D01*
X351310682Y-608128023D02*
X351310682Y-610728023D01*
X353910682Y-610728023D02*
X353910682Y-613328023D01*
X351310682Y-610728023D02*
X353910682Y-610728023D01*
X351310682Y-611998023D02*
X351310682Y-613328023D01*
X353910682Y-613328023D02*
X364130682Y-613328023D01*
X351310682Y-613328023D02*
X352640682Y-613328023D01*
%TO.C,D506*%
X194110682Y-514893023D02*
X194110682Y-511803023D01*
X199660681Y-513348485D02*
G75*
G03*
X194110683Y-511803193I-2989999J462D01*
G01*
X194110682Y-514892853D02*
G75*
G03*
X199660682Y-513347561I2560000J1544830D01*
G01*
X199170682Y-513348023D02*
G75*
G03*
X199170682Y-513348023I-2500000J0D01*
G01*
D11*
%TO.C,RV504*%
X363960682Y-591723023D02*
X353260682Y-591723023D01*
X353260682Y-591723023D02*
X353260682Y-518323023D01*
X353260682Y-518323023D02*
X363960682Y-518323023D01*
X363960682Y-518323023D02*
X363960682Y-591723023D01*
X366060682Y-592823023D02*
G75*
G03*
X366060682Y-592823023I-500000J0D01*
G01*
%TO.C,RV505*%
X444960682Y-591723023D02*
X434260682Y-591723023D01*
X434260682Y-591723023D02*
X434260682Y-518323023D01*
X434260682Y-518323023D02*
X444960682Y-518323023D01*
X444960682Y-518323023D02*
X444960682Y-591723023D01*
X447060682Y-592823023D02*
G75*
G03*
X447060682Y-592823023I-500000J0D01*
G01*
D12*
%TO.C,D510*%
X275110682Y-514893023D02*
X275110682Y-511803023D01*
X280660681Y-513348485D02*
G75*
G03*
X275110683Y-511803193I-2989999J462D01*
G01*
X275110682Y-514892853D02*
G75*
G03*
X280660682Y-513347561I2560000J1544830D01*
G01*
X280170682Y-513348023D02*
G75*
G03*
X280170682Y-513348023I-2500000J0D01*
G01*
%TO.C,J501*%
X121130682Y-608128023D02*
X121130682Y-613328023D01*
X108310682Y-608128023D02*
X121130682Y-608128023D01*
X108310682Y-608128023D02*
X108310682Y-610728023D01*
X110910682Y-610728023D02*
X110910682Y-613328023D01*
X108310682Y-610728023D02*
X110910682Y-610728023D01*
X108310682Y-611998023D02*
X108310682Y-613328023D01*
X110910682Y-613328023D02*
X121130682Y-613328023D01*
X108310682Y-613328023D02*
X109640682Y-613328023D01*
%TO.C,J507*%
X283130682Y-608128023D02*
X283130682Y-613328023D01*
X270310682Y-608128023D02*
X283130682Y-608128023D01*
X270310682Y-608128023D02*
X270310682Y-610728023D01*
X272910682Y-610728023D02*
X272910682Y-613328023D01*
X270310682Y-610728023D02*
X272910682Y-610728023D01*
X270310682Y-611998023D02*
X270310682Y-613328023D01*
X272910682Y-613328023D02*
X283130682Y-613328023D01*
X270310682Y-613328023D02*
X271640682Y-613328023D01*
%TD*%
M02*
