%TF.GenerationSoftware,KiCad,Pcbnew,7.0.8*%
%TF.CreationDate,2023-11-15T12:02:35+01:00*%
%TF.ProjectId,JL,4a4c2e6b-6963-4616-945f-706362585858,rev?*%
%TF.SameCoordinates,Original*%
%TF.FileFunction,Soldermask,Bot*%
%TF.FilePolarity,Negative*%
%FSLAX46Y46*%
G04 Gerber Fmt 4.6, Leading zero omitted, Abs format (unit mm)*
G04 Created by KiCad (PCBNEW 7.0.8) date 2023-11-15 12:02:35*
%MOMM*%
%LPD*%
G01*
G04 APERTURE LIST*
%ADD10C,2.286000*%
%ADD11C,0.800000*%
%ADD12C,6.400000*%
%ADD13R,1.500000X3.000000*%
%ADD14O,1.500000X3.000000*%
%ADD15R,1.700000X1.700000*%
%ADD16O,1.700000X1.700000*%
%ADD17R,3.000000X1.500000*%
%ADD18O,3.000000X1.500000*%
%ADD19C,1.803400*%
%ADD20C,2.000000*%
%ADD21C,1.700000*%
%ADD22C,2.400000*%
%ADD23R,1.800000X1.800000*%
%ADD24C,1.800000*%
G04 APERTURE END LIST*
D10*
%TO.C,REF\u002A\u002A*%
X712500000Y-350250000D03*
X712700000Y-399750000D03*
X792200000Y-350150000D03*
X792200000Y-399650000D03*
%TD*%
D11*
%TO.C,H152*%
X300320682Y-615373023D03*
X301023626Y-613675967D03*
X301023626Y-617070079D03*
X302720682Y-612973023D03*
D12*
X302720682Y-615373023D03*
D11*
X302720682Y-617773023D03*
X304417738Y-613675967D03*
X304417738Y-617070079D03*
X305120682Y-615373023D03*
%TD*%
%TO.C,H267*%
X822950000Y-472050000D03*
X823652944Y-470352944D03*
X823652944Y-473747056D03*
X825350000Y-469650000D03*
D12*
X825350000Y-472050000D03*
D11*
X825350000Y-474450000D03*
X827047056Y-470352944D03*
X827047056Y-473747056D03*
X827750000Y-472050000D03*
%TD*%
%TO.C,H198*%
X381320682Y-452873023D03*
X382023626Y-451175967D03*
X382023626Y-454570079D03*
X383720682Y-450473023D03*
D12*
X383720682Y-452873023D03*
D11*
X383720682Y-455273023D03*
X385417738Y-451175967D03*
X385417738Y-454570079D03*
X386120682Y-452873023D03*
%TD*%
D13*
%TO.C,J510*%
X346470682Y-539623023D03*
X346470682Y-544623023D03*
D14*
X351470682Y-539623023D03*
X351470682Y-544623023D03*
%TD*%
D11*
%TO.C,H187*%
X381320682Y-615373023D03*
X382023626Y-613675967D03*
X382023626Y-617070079D03*
X383720682Y-612973023D03*
D12*
X383720682Y-615373023D03*
D11*
X383720682Y-617773023D03*
X385417738Y-613675967D03*
X385417738Y-617070079D03*
X386120682Y-615373023D03*
%TD*%
D13*
%TO.C,J8*%
X888579716Y-669546648D03*
X888579716Y-674546648D03*
D14*
X893579716Y-669546648D03*
X893579716Y-674546648D03*
%TD*%
D11*
%TO.C,H108*%
X890302944Y-755346648D03*
X891005888Y-753649592D03*
X891005888Y-757043704D03*
X892702944Y-752946648D03*
D12*
X892702944Y-755346648D03*
D11*
X892702944Y-757746648D03*
X894400000Y-753649592D03*
X894400000Y-757043704D03*
X895102944Y-755346648D03*
%TD*%
%TO.C,H252*%
X741950000Y-537050000D03*
X742652944Y-535352944D03*
X742652944Y-538747056D03*
X744350000Y-534650000D03*
D12*
X744350000Y-537050000D03*
D11*
X744350000Y-539450000D03*
X746047056Y-535352944D03*
X746047056Y-538747056D03*
X746750000Y-537050000D03*
%TD*%
%TO.C,H258*%
X822950000Y-602050000D03*
X823652944Y-600352944D03*
X823652944Y-603747056D03*
X825350000Y-599650000D03*
D12*
X825350000Y-602050000D03*
D11*
X825350000Y-604450000D03*
X827047056Y-600352944D03*
X827047056Y-603747056D03*
X827750000Y-602050000D03*
%TD*%
%TO.C,H272*%
X888000000Y-586050000D03*
X888702944Y-584352944D03*
X888702944Y-587747056D03*
X890400000Y-583650000D03*
D12*
X890400000Y-586050000D03*
D11*
X890400000Y-588450000D03*
X892097056Y-584352944D03*
X892097056Y-587747056D03*
X892800000Y-586050000D03*
%TD*%
%TO.C,H235*%
X607000000Y-586050000D03*
X607702944Y-584352944D03*
X607702944Y-587747056D03*
X609400000Y-583650000D03*
D12*
X609400000Y-586050000D03*
D11*
X609400000Y-588450000D03*
X611097056Y-584352944D03*
X611097056Y-587747056D03*
X611800000Y-586050000D03*
%TD*%
%TO.C,H108*%
X88300682Y-643708023D03*
X89003626Y-642010967D03*
X89003626Y-645405079D03*
X90700682Y-641308023D03*
D12*
X90700682Y-643708023D03*
D11*
X90700682Y-646108023D03*
X92397738Y-642010967D03*
X92397738Y-645405079D03*
X93100682Y-643708023D03*
%TD*%
%TO.C,H270*%
X903950000Y-602050000D03*
X904652944Y-600352944D03*
X904652944Y-603747056D03*
X906350000Y-599650000D03*
D12*
X906350000Y-602050000D03*
D11*
X906350000Y-604450000D03*
X908047056Y-600352944D03*
X908047056Y-603747056D03*
X908750000Y-602050000D03*
%TD*%
%TO.C,H266*%
X813500000Y-507050000D03*
X814202944Y-505352944D03*
X814202944Y-508747056D03*
X815900000Y-504650000D03*
D12*
X815900000Y-507050000D03*
D11*
X815900000Y-509450000D03*
X817597056Y-505352944D03*
X817597056Y-508747056D03*
X818300000Y-507050000D03*
%TD*%
%TO.C,H256*%
X671902944Y-471997056D03*
X672605888Y-470300000D03*
X672605888Y-473694112D03*
X674302944Y-469597056D03*
D12*
X674302944Y-471997056D03*
D11*
X674302944Y-474397056D03*
X676000000Y-470300000D03*
X676000000Y-473694112D03*
X676702944Y-471997056D03*
%TD*%
%TO.C,H113*%
X219320682Y-564539689D03*
X220023626Y-562842633D03*
X220023626Y-566236745D03*
X221720682Y-562139689D03*
D12*
X221720682Y-564539689D03*
D11*
X221720682Y-566939689D03*
X223417738Y-562842633D03*
X223417738Y-566236745D03*
X224120682Y-564539689D03*
%TD*%
%TO.C,H108*%
X730302944Y-643679982D03*
X731005888Y-641982926D03*
X731005888Y-645377038D03*
X732702944Y-641279982D03*
D12*
X732702944Y-643679982D03*
D11*
X732702944Y-646079982D03*
X734400000Y-641982926D03*
X734400000Y-645377038D03*
X735102944Y-643679982D03*
%TD*%
D13*
%TO.C,SW509*%
X265320682Y-578873023D03*
X265320682Y-583873023D03*
D14*
X270320682Y-578873023D03*
X270320682Y-583873023D03*
%TD*%
D11*
%TO.C,H108*%
X408300682Y-643708023D03*
X409003626Y-642010967D03*
X409003626Y-645405079D03*
X410700682Y-641308023D03*
D12*
X410700682Y-643708023D03*
D11*
X410700682Y-646108023D03*
X412397738Y-642010967D03*
X412397738Y-645405079D03*
X413100682Y-643708023D03*
%TD*%
%TO.C,H157*%
X388150682Y-362891355D03*
X388853626Y-361194299D03*
X388853626Y-364588411D03*
X390550682Y-360491355D03*
D12*
X390550682Y-362891355D03*
D11*
X390550682Y-365291355D03*
X392247738Y-361194299D03*
X392247738Y-364588411D03*
X392950682Y-362891355D03*
%TD*%
%TO.C,H108*%
X596500000Y-420750000D03*
X597202944Y-419052944D03*
X597202944Y-422447056D03*
X598900000Y-418350000D03*
D12*
X598900000Y-420750000D03*
D11*
X598900000Y-423150000D03*
X600597056Y-419052944D03*
X600597056Y-422447056D03*
X601300000Y-420750000D03*
%TD*%
D15*
%TO.C,J105*%
X359720682Y-686088023D03*
D16*
X359720682Y-683548023D03*
X357180682Y-686088023D03*
X357180682Y-683548023D03*
X354640682Y-686088023D03*
X354640682Y-683548023D03*
X352100682Y-686088023D03*
X352100682Y-683548023D03*
X349560682Y-686088023D03*
X349560682Y-683548023D03*
%TD*%
D11*
%TO.C,H153*%
X378150682Y-251224689D03*
X378853626Y-249527633D03*
X378853626Y-252921745D03*
X380550682Y-248824689D03*
D12*
X380550682Y-251224689D03*
D11*
X380550682Y-253624689D03*
X382247738Y-249527633D03*
X382247738Y-252921745D03*
X382950682Y-251224689D03*
%TD*%
%TO.C,H202*%
X412320682Y-564539689D03*
X413023626Y-562842633D03*
X413023626Y-566236745D03*
X414720682Y-562139689D03*
D12*
X414720682Y-564539689D03*
D11*
X414720682Y-566939689D03*
X416417738Y-562842633D03*
X416417738Y-566236745D03*
X417120682Y-564539689D03*
%TD*%
D13*
%TO.C,J502*%
X103470682Y-539623023D03*
X103470682Y-544623023D03*
D14*
X108470682Y-539623023D03*
X108470682Y-544623023D03*
%TD*%
D11*
%TO.C,H231*%
X558150682Y-171224689D03*
X558853626Y-169527633D03*
X558853626Y-172921745D03*
X560550682Y-168824689D03*
D12*
X560550682Y-171224689D03*
D11*
X560550682Y-173624689D03*
X562247738Y-169527633D03*
X562247738Y-172921745D03*
X562950682Y-171224689D03*
%TD*%
%TO.C,H177*%
X508150682Y-362891355D03*
X508853626Y-361194299D03*
X508853626Y-364588411D03*
X510550682Y-360491355D03*
D12*
X510550682Y-362891355D03*
D11*
X510550682Y-365291355D03*
X512247738Y-361194299D03*
X512247738Y-364588411D03*
X512950682Y-362891355D03*
%TD*%
%TO.C,H176*%
X558150682Y-413724689D03*
X558853626Y-412027633D03*
X558853626Y-415421745D03*
X560550682Y-411324689D03*
D12*
X560550682Y-413724689D03*
D11*
X560550682Y-416124689D03*
X562247738Y-412027633D03*
X562247738Y-415421745D03*
X562950682Y-413724689D03*
%TD*%
%TO.C,H123*%
X198150682Y-251224689D03*
X198853626Y-249527633D03*
X198853626Y-252921745D03*
X200550682Y-248824689D03*
D12*
X200550682Y-251224689D03*
D11*
X200550682Y-253624689D03*
X202247738Y-249527633D03*
X202247738Y-252921745D03*
X202950682Y-251224689D03*
%TD*%
%TO.C,H161*%
X388150682Y-251224689D03*
X388853626Y-249527633D03*
X388853626Y-252921745D03*
X390550682Y-248824689D03*
D12*
X390550682Y-251224689D03*
D11*
X390550682Y-253624689D03*
X392247738Y-249527633D03*
X392247738Y-252921745D03*
X392950682Y-251224689D03*
%TD*%
%TO.C,H132*%
X194300682Y-455874689D03*
X195003626Y-454177633D03*
X195003626Y-457571745D03*
X196700682Y-453474689D03*
D12*
X196700682Y-455874689D03*
D11*
X196700682Y-458274689D03*
X198397738Y-454177633D03*
X198397738Y-457571745D03*
X199100682Y-455874689D03*
%TD*%
D13*
%TO.C,J503*%
X363410682Y-669798023D03*
X363410682Y-674798023D03*
D14*
X368410682Y-669798023D03*
X368410682Y-674798023D03*
%TD*%
D11*
%TO.C,H136*%
X318150682Y-413724689D03*
X318853626Y-412027633D03*
X318853626Y-415421745D03*
X320550682Y-411324689D03*
D12*
X320550682Y-413724689D03*
D11*
X320550682Y-416124689D03*
X322247738Y-412027633D03*
X322247738Y-415421745D03*
X322950682Y-413724689D03*
%TD*%
%TO.C,H108*%
X248300682Y-643708023D03*
X249003626Y-642010967D03*
X249003626Y-645405079D03*
X250700682Y-641308023D03*
D12*
X250700682Y-643708023D03*
D11*
X250700682Y-646108023D03*
X252397738Y-642010967D03*
X252397738Y-645405079D03*
X253100682Y-643708023D03*
%TD*%
%TO.C,H204*%
X412320682Y-508706356D03*
X413023626Y-507009300D03*
X413023626Y-510403412D03*
X414720682Y-506306356D03*
D12*
X414720682Y-508706356D03*
D11*
X414720682Y-511106356D03*
X416417738Y-507009300D03*
X416417738Y-510403412D03*
X417120682Y-508706356D03*
%TD*%
%TO.C,H236*%
X645000000Y-586050000D03*
X645702944Y-584352944D03*
X645702944Y-587747056D03*
X647400000Y-583650000D03*
D12*
X647400000Y-586050000D03*
D11*
X647400000Y-588450000D03*
X649097056Y-584352944D03*
X649097056Y-587747056D03*
X649800000Y-586050000D03*
%TD*%
%TO.C,H240*%
X660950000Y-537050000D03*
X661652944Y-535352944D03*
X661652944Y-538747056D03*
X663350000Y-534650000D03*
D12*
X663350000Y-537050000D03*
D11*
X663350000Y-539450000D03*
X665047056Y-535352944D03*
X665047056Y-538747056D03*
X665750000Y-537050000D03*
%TD*%
%TO.C,H215*%
X323121872Y-161229689D03*
X323824816Y-159532633D03*
X323824816Y-162926745D03*
X325521872Y-158829689D03*
D12*
X325521872Y-161229689D03*
D11*
X325521872Y-163629689D03*
X327218928Y-159532633D03*
X327218928Y-162926745D03*
X327921872Y-161229689D03*
%TD*%
%TO.C,H108*%
X564000000Y-586050000D03*
X564702944Y-584352944D03*
X564702944Y-587747056D03*
X566400000Y-583650000D03*
D12*
X566400000Y-586050000D03*
D11*
X566400000Y-588450000D03*
X568097056Y-584352944D03*
X568097056Y-587747056D03*
X568800000Y-586050000D03*
%TD*%
D13*
%TO.C,J15*%
X648429716Y-669846648D03*
X648429716Y-674846648D03*
D14*
X653429716Y-669846648D03*
X653429716Y-674846648D03*
%TD*%
D11*
%TO.C,H191*%
X568121872Y-335896355D03*
X568824816Y-334199299D03*
X568824816Y-337593411D03*
X570521872Y-333496355D03*
D12*
X570521872Y-335896355D03*
D11*
X570521872Y-338296355D03*
X572218928Y-334199299D03*
X572218928Y-337593411D03*
X572921872Y-335896355D03*
%TD*%
%TO.C,H162*%
X300320682Y-564539689D03*
X301023626Y-562842633D03*
X301023626Y-566236745D03*
X302720682Y-562139689D03*
D12*
X302720682Y-564539689D03*
D11*
X302720682Y-566939689D03*
X304417738Y-562842633D03*
X304417738Y-566236745D03*
X305120682Y-564539689D03*
%TD*%
%TO.C,H229*%
X498150682Y-171224689D03*
X498853626Y-169527633D03*
X498853626Y-172921745D03*
X500550682Y-168824689D03*
D12*
X500550682Y-171224689D03*
D11*
X500550682Y-173624689D03*
X502247738Y-169527633D03*
X502247738Y-172921745D03*
X502950682Y-171224689D03*
%TD*%
%TO.C,H222*%
X268150682Y-171224689D03*
X268853626Y-169527633D03*
X268853626Y-172921745D03*
X270550682Y-168824689D03*
D12*
X270550682Y-171224689D03*
D11*
X270550682Y-173624689D03*
X272247738Y-169527633D03*
X272247738Y-172921745D03*
X272950682Y-171224689D03*
%TD*%
%TO.C,H185*%
X300320682Y-452873023D03*
X301023626Y-451175967D03*
X301023626Y-454570079D03*
X302720682Y-450473023D03*
D12*
X302720682Y-452873023D03*
D11*
X302720682Y-455273023D03*
X304417738Y-451175967D03*
X304417738Y-454570079D03*
X305120682Y-452873023D03*
%TD*%
D17*
%TO.C,J120*%
X460580682Y-752135523D03*
X465580682Y-752135523D03*
D18*
X460580682Y-747135523D03*
X465580682Y-747135523D03*
%TD*%
D13*
%TO.C,SW514*%
X446720682Y-579123023D03*
X446720682Y-584123023D03*
D14*
X451720682Y-579123023D03*
X451720682Y-584123023D03*
%TD*%
D11*
%TO.C,H143*%
X318150682Y-251224689D03*
X318853626Y-249527633D03*
X318853626Y-252921745D03*
X320550682Y-248824689D03*
D12*
X320550682Y-251224689D03*
D11*
X320550682Y-253624689D03*
X322247738Y-249527633D03*
X322247738Y-252921745D03*
X322950682Y-251224689D03*
%TD*%
D15*
%TO.C,J109*%
X600949716Y-686019982D03*
D16*
X600949716Y-683479982D03*
X598409716Y-686019982D03*
X598409716Y-683479982D03*
X595869716Y-686019982D03*
X595869716Y-683479982D03*
X593329716Y-686019982D03*
X593329716Y-683479982D03*
X590789716Y-686019982D03*
X590789716Y-683479982D03*
%TD*%
D11*
%TO.C,H247*%
X688000000Y-586050000D03*
X688702944Y-584352944D03*
X688702944Y-587747056D03*
X690400000Y-583650000D03*
D12*
X690400000Y-586050000D03*
D11*
X690400000Y-588450000D03*
X692097056Y-584352944D03*
X692097056Y-587747056D03*
X692800000Y-586050000D03*
%TD*%
%TO.C,H200*%
X412320682Y-615373023D03*
X413023626Y-613675967D03*
X413023626Y-617070079D03*
X414720682Y-612973023D03*
D12*
X414720682Y-615373023D03*
D11*
X414720682Y-617773023D03*
X416417738Y-613675967D03*
X416417738Y-617070079D03*
X417120682Y-615373023D03*
%TD*%
%TO.C,H194*%
X78121872Y-423729689D03*
X78824816Y-422032633D03*
X78824816Y-425426745D03*
X80521872Y-421329689D03*
D12*
X80521872Y-423729689D03*
D11*
X80521872Y-426129689D03*
X82218928Y-422032633D03*
X82218928Y-425426745D03*
X82921872Y-423729689D03*
%TD*%
%TO.C,H108*%
X88320682Y-452873023D03*
X89023626Y-451175967D03*
X89023626Y-454570079D03*
X90720682Y-450473023D03*
D12*
X90720682Y-452873023D03*
D11*
X90720682Y-455273023D03*
X92417738Y-451175967D03*
X92417738Y-454570079D03*
X93120682Y-452873023D03*
%TD*%
%TO.C,H108*%
X579950000Y-602050000D03*
X580652944Y-600352944D03*
X580652944Y-603747056D03*
X582350000Y-599650000D03*
D12*
X582350000Y-602050000D03*
D11*
X582350000Y-604450000D03*
X584047056Y-600352944D03*
X584047056Y-603747056D03*
X584750000Y-602050000D03*
%TD*%
%TO.C,H226*%
X388150682Y-171224689D03*
X388853626Y-169527633D03*
X388853626Y-172921745D03*
X390550682Y-168824689D03*
D12*
X390550682Y-171224689D03*
D11*
X390550682Y-173624689D03*
X392247738Y-169527633D03*
X392247738Y-172921745D03*
X392950682Y-171224689D03*
%TD*%
%TO.C,H244*%
X590902944Y-471997056D03*
X591605888Y-470300000D03*
X591605888Y-473694112D03*
X593302944Y-469597056D03*
D12*
X593302944Y-471997056D03*
D11*
X593302944Y-474397056D03*
X595000000Y-470300000D03*
X595000000Y-473694112D03*
X595702944Y-471997056D03*
%TD*%
D13*
%TO.C,J7*%
X903979716Y-669546648D03*
X903979716Y-674546648D03*
D14*
X908979716Y-669546648D03*
X908979716Y-674546648D03*
%TD*%
D15*
%TO.C,J104*%
X299780682Y-685788023D03*
D16*
X299780682Y-683248023D03*
X297240682Y-685788023D03*
X297240682Y-683248023D03*
X294700682Y-685788023D03*
X294700682Y-683248023D03*
X292160682Y-685788023D03*
X292160682Y-683248023D03*
X289620682Y-685788023D03*
X289620682Y-683248023D03*
%TD*%
D11*
%TO.C,H163*%
X250320682Y-508706356D03*
X251023626Y-507009300D03*
X251023626Y-510403412D03*
X252720682Y-506306356D03*
D12*
X252720682Y-508706356D03*
D11*
X252720682Y-511106356D03*
X254417738Y-507009300D03*
X254417738Y-510403412D03*
X255120682Y-508706356D03*
%TD*%
%TO.C,H224*%
X328150682Y-171224689D03*
X328853626Y-169527633D03*
X328853626Y-172921745D03*
X330550682Y-168824689D03*
D12*
X330550682Y-171224689D03*
D11*
X330550682Y-173624689D03*
X332247738Y-169527633D03*
X332247738Y-172921745D03*
X332950682Y-171224689D03*
%TD*%
D13*
%TO.C,J2*%
X589479716Y-669746648D03*
X589479716Y-674746648D03*
D14*
X594479716Y-669746648D03*
X594479716Y-674746648D03*
%TD*%
D11*
%TO.C,H150*%
X378150682Y-307058022D03*
X378853626Y-305360966D03*
X378853626Y-308755078D03*
X380550682Y-304658022D03*
D12*
X380550682Y-307058022D03*
D11*
X380550682Y-309458022D03*
X382247738Y-305360966D03*
X382247738Y-308755078D03*
X382950682Y-307058022D03*
%TD*%
%TO.C,H126*%
X258150682Y-413724689D03*
X258853626Y-412027633D03*
X258853626Y-415421745D03*
X260550682Y-411324689D03*
D12*
X260550682Y-413724689D03*
D11*
X260550682Y-416124689D03*
X262247738Y-412027633D03*
X262247738Y-415421745D03*
X262950682Y-413724689D03*
%TD*%
D17*
%TO.C,J202*%
X101890682Y-659358023D03*
X106890682Y-659358023D03*
D18*
X101890682Y-654358023D03*
X106890682Y-654358023D03*
X101890682Y-649358023D03*
X106890682Y-649358023D03*
%TD*%
D11*
%TO.C,H108*%
X408300682Y-699541356D03*
X409003626Y-697844300D03*
X409003626Y-701238412D03*
X410700682Y-697141356D03*
D12*
X410700682Y-699541356D03*
D11*
X410700682Y-701941356D03*
X412397738Y-697844300D03*
X412397738Y-701238412D03*
X413100682Y-699541356D03*
%TD*%
%TO.C,H108*%
X890302944Y-806179982D03*
X891005888Y-804482926D03*
X891005888Y-807877038D03*
X892702944Y-803779982D03*
D12*
X892702944Y-806179982D03*
D11*
X892702944Y-808579982D03*
X894400000Y-804482926D03*
X894400000Y-807877038D03*
X895102944Y-806179982D03*
%TD*%
%TO.C,H108*%
X730302944Y-806179982D03*
X731005888Y-804482926D03*
X731005888Y-807877038D03*
X732702944Y-803779982D03*
D12*
X732702944Y-806179982D03*
D11*
X732702944Y-808579982D03*
X734400000Y-804482926D03*
X734400000Y-807877038D03*
X735102944Y-806179982D03*
%TD*%
%TO.C,H165*%
X448150682Y-413724689D03*
X448853626Y-412027633D03*
X448853626Y-415421745D03*
X450550682Y-411324689D03*
D12*
X450550682Y-413724689D03*
D11*
X450550682Y-416124689D03*
X452247738Y-412027633D03*
X452247738Y-415421745D03*
X452950682Y-413724689D03*
%TD*%
%TO.C,H193*%
X381320682Y-508706356D03*
X382023626Y-507009300D03*
X382023626Y-510403412D03*
X383720682Y-506306356D03*
D12*
X383720682Y-508706356D03*
D11*
X383720682Y-511106356D03*
X385417738Y-507009300D03*
X385417738Y-510403412D03*
X386120682Y-508706356D03*
%TD*%
D15*
%TO.C,J1*%
X311980682Y-800574689D03*
D16*
X309440682Y-800574689D03*
X306900682Y-800574689D03*
X304360682Y-800574689D03*
X301820682Y-800574689D03*
X299280682Y-800574689D03*
%TD*%
D11*
%TO.C,H186*%
X331320682Y-615373023D03*
X332023626Y-613675967D03*
X332023626Y-617070079D03*
X333720682Y-612973023D03*
D12*
X333720682Y-615373023D03*
D11*
X333720682Y-617773023D03*
X335417738Y-613675967D03*
X335417738Y-617070079D03*
X336120682Y-615373023D03*
%TD*%
%TO.C,H146*%
X378150682Y-413724689D03*
X378853626Y-412027633D03*
X378853626Y-415421745D03*
X380550682Y-411324689D03*
D12*
X380550682Y-413724689D03*
D11*
X380550682Y-416124689D03*
X382247738Y-412027633D03*
X382247738Y-415421745D03*
X382950682Y-413724689D03*
%TD*%
D17*
%TO.C,U505*%
X447470682Y-568523023D03*
X452470682Y-568523023D03*
D18*
X447470682Y-563523023D03*
X452470682Y-563523023D03*
X447470682Y-558523023D03*
X452470682Y-558523023D03*
X447470682Y-553523023D03*
X452470682Y-553523023D03*
%TD*%
D17*
%TO.C,U504*%
X366470682Y-568523023D03*
X371470682Y-568523023D03*
D18*
X366470682Y-563523023D03*
X371470682Y-563523023D03*
X366470682Y-558523023D03*
X371470682Y-558523023D03*
X366470682Y-553523023D03*
X371470682Y-553523023D03*
%TD*%
D11*
%TO.C,H108*%
X1040302944Y-806179982D03*
X1041005888Y-804482926D03*
X1041005888Y-807877038D03*
X1042702944Y-803779982D03*
D12*
X1042702944Y-806179982D03*
D11*
X1042702944Y-808579982D03*
X1044400000Y-804482926D03*
X1044400000Y-807877038D03*
X1045102944Y-806179982D03*
%TD*%
%TO.C,H135*%
X268150682Y-413724689D03*
X268853626Y-412027633D03*
X268853626Y-415421745D03*
X270550682Y-411324689D03*
D12*
X270550682Y-413724689D03*
D11*
X270550682Y-416124689D03*
X272247738Y-412027633D03*
X272247738Y-415421745D03*
X272950682Y-413724689D03*
%TD*%
D13*
%TO.C,J503*%
X423410682Y-669798023D03*
X423410682Y-674798023D03*
D14*
X428410682Y-669798023D03*
X428410682Y-674798023D03*
%TD*%
D13*
%TO.C,J504*%
X528260682Y-669798023D03*
X528260682Y-674798023D03*
D14*
X533260682Y-669798023D03*
X533260682Y-674798023D03*
%TD*%
D11*
%TO.C,H166*%
X498150682Y-413724689D03*
X498853626Y-412027633D03*
X498853626Y-415421745D03*
X500550682Y-411324689D03*
D12*
X500550682Y-413724689D03*
D11*
X500550682Y-416124689D03*
X502247738Y-412027633D03*
X502247738Y-415421745D03*
X502950682Y-413724689D03*
%TD*%
%TO.C,H108*%
X138150682Y-362891355D03*
X138853626Y-361194299D03*
X138853626Y-364588411D03*
X140550682Y-360491355D03*
D12*
X140550682Y-362891355D03*
D11*
X140550682Y-365291355D03*
X142247738Y-361194299D03*
X142247738Y-364588411D03*
X142950682Y-362891355D03*
%TD*%
%TO.C,H108*%
X570302944Y-643679982D03*
X571005888Y-641982926D03*
X571005888Y-645377038D03*
X572702944Y-641279982D03*
D12*
X572702944Y-643679982D03*
D11*
X572702944Y-646079982D03*
X574400000Y-641982926D03*
X574400000Y-645377038D03*
X575102944Y-643679982D03*
%TD*%
D13*
%TO.C,SW505*%
X203720682Y-579123023D03*
X203720682Y-584123023D03*
D14*
X208720682Y-579123023D03*
X208720682Y-584123023D03*
%TD*%
D11*
%TO.C,H171*%
X448150682Y-251224689D03*
X448853626Y-249527633D03*
X448853626Y-252921745D03*
X450550682Y-248824689D03*
D12*
X450550682Y-251224689D03*
D11*
X450550682Y-253624689D03*
X452247738Y-249527633D03*
X452247738Y-252921745D03*
X452950682Y-251224689D03*
%TD*%
%TO.C,H108*%
X526000000Y-548050000D03*
X526702944Y-546352944D03*
X526702944Y-549747056D03*
X528400000Y-545650000D03*
D12*
X528400000Y-548050000D03*
D11*
X528400000Y-550450000D03*
X530097056Y-546352944D03*
X530097056Y-549747056D03*
X530800000Y-548050000D03*
%TD*%
%TO.C,H108*%
X248300682Y-806208023D03*
X249003626Y-804510967D03*
X249003626Y-807905079D03*
X250700682Y-803808023D03*
D12*
X250700682Y-806208023D03*
D11*
X250700682Y-808608023D03*
X252397738Y-804510967D03*
X252397738Y-807905079D03*
X253100682Y-806208023D03*
%TD*%
%TO.C,H108*%
X564000000Y-548050000D03*
X564702944Y-546352944D03*
X564702944Y-549747056D03*
X566400000Y-545650000D03*
D12*
X566400000Y-548050000D03*
D11*
X566400000Y-550450000D03*
X568097056Y-546352944D03*
X568097056Y-549747056D03*
X568800000Y-548050000D03*
%TD*%
D13*
%TO.C,J503*%
X543410682Y-669798023D03*
X543410682Y-674798023D03*
D14*
X548410682Y-669798023D03*
X548410682Y-674798023D03*
%TD*%
D11*
%TO.C,H108*%
X408300682Y-755374689D03*
X409003626Y-753677633D03*
X409003626Y-757071745D03*
X410700682Y-752974689D03*
D12*
X410700682Y-755374689D03*
D11*
X410700682Y-757774689D03*
X412397738Y-753677633D03*
X412397738Y-757071745D03*
X413100682Y-755374689D03*
%TD*%
D13*
%TO.C,SW515*%
X427320682Y-578873023D03*
X427320682Y-583873023D03*
D14*
X432320682Y-578873023D03*
X432320682Y-583873023D03*
%TD*%
D19*
%TO.C,K502*%
X189280682Y-568763023D03*
X181660682Y-568763023D03*
X189280682Y-558603023D03*
X189280682Y-550983023D03*
%TD*%
D11*
%TO.C,H122*%
X219320682Y-508706356D03*
X220023626Y-507009300D03*
X220023626Y-510403412D03*
X221720682Y-506306356D03*
D12*
X221720682Y-508706356D03*
D11*
X221720682Y-511106356D03*
X223417738Y-507009300D03*
X223417738Y-510403412D03*
X224120682Y-508706356D03*
%TD*%
%TO.C,H108*%
X138150682Y-251224689D03*
X138853626Y-249527633D03*
X138853626Y-252921745D03*
X140550682Y-248824689D03*
D12*
X140550682Y-251224689D03*
D11*
X140550682Y-253624689D03*
X142247738Y-249527633D03*
X142247738Y-252921745D03*
X142950682Y-251224689D03*
%TD*%
D13*
%TO.C,SW201*%
X286085682Y-784448023D03*
X286085682Y-789448023D03*
D14*
X291085682Y-784448023D03*
X291085682Y-789448023D03*
%TD*%
D11*
%TO.C,H184*%
X250320682Y-452873023D03*
X251023626Y-451175967D03*
X251023626Y-454570079D03*
X252720682Y-450473023D03*
D12*
X252720682Y-452873023D03*
D11*
X252720682Y-455273023D03*
X254417738Y-451175967D03*
X254417738Y-454570079D03*
X255120682Y-452873023D03*
%TD*%
%TO.C,H151*%
X328150682Y-251224689D03*
X328853626Y-249527633D03*
X328853626Y-252921745D03*
X330550682Y-248824689D03*
D12*
X330550682Y-251224689D03*
D11*
X330550682Y-253624689D03*
X332247738Y-249527633D03*
X332247738Y-252921745D03*
X332950682Y-251224689D03*
%TD*%
%TO.C,H208*%
X412320682Y-452873023D03*
X413023626Y-451175967D03*
X413023626Y-454570079D03*
X414720682Y-450473023D03*
D12*
X414720682Y-452873023D03*
D11*
X414720682Y-455273023D03*
X416417738Y-451175967D03*
X416417738Y-454570079D03*
X417120682Y-452873023D03*
%TD*%
D13*
%TO.C,J17*%
X708429716Y-669646648D03*
X708429716Y-674646648D03*
D14*
X713429716Y-669646648D03*
X713429716Y-674646648D03*
%TD*%
D11*
%TO.C,H108*%
X138320682Y-452873023D03*
X139023626Y-451175967D03*
X139023626Y-454570079D03*
X140720682Y-450473023D03*
D12*
X140720682Y-452873023D03*
D11*
X140720682Y-455273023D03*
X142417738Y-451175967D03*
X142417738Y-454570079D03*
X143120682Y-452873023D03*
%TD*%
%TO.C,H263*%
X752950000Y-537050000D03*
X753652944Y-535352944D03*
X753652944Y-538747056D03*
X755350000Y-534650000D03*
D12*
X755350000Y-537050000D03*
D11*
X755350000Y-539450000D03*
X757047056Y-535352944D03*
X757047056Y-538747056D03*
X757750000Y-537050000D03*
%TD*%
D13*
%TO.C,J3*%
X1024279716Y-669446648D03*
X1024279716Y-674446648D03*
D14*
X1029279716Y-669446648D03*
X1029279716Y-674446648D03*
%TD*%
D11*
%TO.C,H111*%
X219320682Y-615373023D03*
X220023626Y-613675967D03*
X220023626Y-617070079D03*
X221720682Y-612973023D03*
D12*
X221720682Y-615373023D03*
D11*
X221720682Y-617773023D03*
X223417738Y-613675967D03*
X223417738Y-617070079D03*
X224120682Y-615373023D03*
%TD*%
D15*
%TO.C,J117*%
X521380682Y-703378023D03*
D16*
X523920682Y-703378023D03*
X521380682Y-705918023D03*
X523920682Y-705918023D03*
X521380682Y-708458023D03*
X523920682Y-708458023D03*
X521380682Y-710998023D03*
X523920682Y-710998023D03*
X521380682Y-713538023D03*
X523920682Y-713538023D03*
X521380682Y-716078023D03*
X523920682Y-716078023D03*
X521380682Y-718618023D03*
X523920682Y-718618023D03*
X521380682Y-721158023D03*
X523920682Y-721158023D03*
X521380682Y-723698023D03*
X523920682Y-723698023D03*
X521380682Y-726238023D03*
X523920682Y-726238023D03*
X521380682Y-728778023D03*
X523920682Y-728778023D03*
X521380682Y-731318023D03*
X523920682Y-731318023D03*
X521380682Y-733858023D03*
X523920682Y-733858023D03*
X521380682Y-736398023D03*
X523920682Y-736398023D03*
X521380682Y-738938023D03*
X523920682Y-738938023D03*
X521380682Y-741478023D03*
X523920682Y-741478023D03*
X521380682Y-744018023D03*
X523920682Y-744018023D03*
X521380682Y-746558023D03*
X523920682Y-746558023D03*
X521380682Y-749098023D03*
X523920682Y-749098023D03*
X521380682Y-751638023D03*
X523920682Y-751638023D03*
X521380682Y-754178023D03*
X523920682Y-754178023D03*
X521380682Y-756718023D03*
X523920682Y-756718023D03*
X521380682Y-759258023D03*
X523920682Y-759258023D03*
X521380682Y-761798023D03*
X523920682Y-761798023D03*
X521380682Y-764338023D03*
X523920682Y-764338023D03*
X521380682Y-766878023D03*
X523920682Y-766878023D03*
X521380682Y-769418023D03*
X523920682Y-769418023D03*
X521380682Y-771958023D03*
X523920682Y-771958023D03*
X521380682Y-774498023D03*
X523920682Y-774498023D03*
X521380682Y-777038023D03*
X523920682Y-777038023D03*
X521380682Y-779578023D03*
X523920682Y-779578023D03*
X521380682Y-782118023D03*
X523920682Y-782118023D03*
%TD*%
D13*
%TO.C,SW508*%
X284720682Y-579123023D03*
X284720682Y-584123023D03*
D14*
X289720682Y-579123023D03*
X289720682Y-584123023D03*
%TD*%
D11*
%TO.C,H190*%
X381320682Y-564539689D03*
X382023626Y-562842633D03*
X382023626Y-566236745D03*
X383720682Y-562139689D03*
D12*
X383720682Y-564539689D03*
D11*
X383720682Y-566939689D03*
X385417738Y-562842633D03*
X385417738Y-566236745D03*
X386120682Y-564539689D03*
%TD*%
%TO.C,H225*%
X378150682Y-171224689D03*
X378853626Y-169527633D03*
X378853626Y-172921745D03*
X380550682Y-168824689D03*
D12*
X380550682Y-171224689D03*
D11*
X380550682Y-173624689D03*
X382247738Y-169527633D03*
X382247738Y-172921745D03*
X382950682Y-171224689D03*
%TD*%
%TO.C,H237*%
X607000000Y-548050000D03*
X607702944Y-546352944D03*
X607702944Y-549747056D03*
X609400000Y-545650000D03*
D12*
X609400000Y-548050000D03*
D11*
X609400000Y-550450000D03*
X611097056Y-546352944D03*
X611097056Y-549747056D03*
X611800000Y-548050000D03*
%TD*%
%TO.C,H178*%
X558150682Y-362891355D03*
X558853626Y-361194299D03*
X558853626Y-364588411D03*
X560550682Y-360491355D03*
D12*
X560550682Y-362891355D03*
D11*
X560550682Y-365291355D03*
X562247738Y-361194299D03*
X562247738Y-364588411D03*
X562950682Y-362891355D03*
%TD*%
%TO.C,H201*%
X462320682Y-615373023D03*
X463023626Y-613675967D03*
X463023626Y-617070079D03*
X464720682Y-612973023D03*
D12*
X464720682Y-615373023D03*
D11*
X464720682Y-617773023D03*
X466417738Y-613675967D03*
X466417738Y-617070079D03*
X467120682Y-615373023D03*
%TD*%
D13*
%TO.C,SW302*%
X273225682Y-754500523D03*
X273225682Y-759500523D03*
D14*
X278225682Y-754500523D03*
X278225682Y-759500523D03*
%TD*%
D17*
%TO.C,U501*%
X123470682Y-568523023D03*
X128470682Y-568523023D03*
D18*
X123470682Y-563523023D03*
X128470682Y-563523023D03*
X123470682Y-558523023D03*
X128470682Y-558523023D03*
X123470682Y-553523023D03*
X128470682Y-553523023D03*
%TD*%
D11*
%TO.C,H239*%
X590950000Y-537050000D03*
X591652944Y-535352944D03*
X591652944Y-538747056D03*
X593350000Y-534650000D03*
D12*
X593350000Y-537050000D03*
D11*
X593350000Y-539450000D03*
X595047056Y-535352944D03*
X595047056Y-538747056D03*
X595750000Y-537050000D03*
%TD*%
D13*
%TO.C,J503*%
X483410682Y-669798023D03*
X483410682Y-674798023D03*
D14*
X488410682Y-669798023D03*
X488410682Y-674798023D03*
%TD*%
D11*
%TO.C,H158*%
X438150682Y-362891355D03*
X438853626Y-361194299D03*
X438853626Y-364588411D03*
X440550682Y-360491355D03*
D12*
X440550682Y-362891355D03*
D11*
X440550682Y-365291355D03*
X442247738Y-361194299D03*
X442247738Y-364588411D03*
X442950682Y-362891355D03*
%TD*%
D13*
%TO.C,SW504*%
X193820682Y-597623023D03*
X193820682Y-602623023D03*
D14*
X198820682Y-597623023D03*
X198820682Y-602623023D03*
%TD*%
D15*
%TO.C,J116*%
X1020609716Y-686219982D03*
D16*
X1020609716Y-683679982D03*
X1018069716Y-686219982D03*
X1018069716Y-683679982D03*
X1015529716Y-686219982D03*
X1015529716Y-683679982D03*
X1012989716Y-686219982D03*
X1012989716Y-683679982D03*
X1010449716Y-686219982D03*
X1010449716Y-683679982D03*
%TD*%
D13*
%TO.C,SW513*%
X436820682Y-597623023D03*
X436820682Y-602623023D03*
D14*
X441820682Y-597623023D03*
X441820682Y-602623023D03*
%TD*%
D11*
%TO.C,H108*%
X570302944Y-699513315D03*
X571005888Y-697816259D03*
X571005888Y-701210371D03*
X572702944Y-697113315D03*
D12*
X572702944Y-699513315D03*
D11*
X572702944Y-701913315D03*
X574400000Y-697816259D03*
X574400000Y-701210371D03*
X575102944Y-699513315D03*
%TD*%
%TO.C,H250*%
X726000000Y-548050000D03*
X726702944Y-546352944D03*
X726702944Y-549747056D03*
X728400000Y-545650000D03*
D12*
X728400000Y-548050000D03*
D11*
X728400000Y-550450000D03*
X730097056Y-546352944D03*
X730097056Y-549747056D03*
X730800000Y-548050000D03*
%TD*%
%TO.C,H118*%
X198150682Y-362891355D03*
X198853626Y-361194299D03*
X198853626Y-364588411D03*
X200550682Y-360491355D03*
D12*
X200550682Y-362891355D03*
D11*
X200550682Y-365291355D03*
X202247738Y-361194299D03*
X202247738Y-364588411D03*
X202950682Y-362891355D03*
%TD*%
%TO.C,H275*%
X833950000Y-537050000D03*
X834652944Y-535352944D03*
X834652944Y-538747056D03*
X836350000Y-534650000D03*
D12*
X836350000Y-537050000D03*
D11*
X836350000Y-539450000D03*
X838047056Y-535352944D03*
X838047056Y-538747056D03*
X838750000Y-537050000D03*
%TD*%
D13*
%TO.C,J11*%
X828429716Y-669546648D03*
X828429716Y-674546648D03*
D14*
X833429716Y-669546648D03*
X833429716Y-674546648D03*
%TD*%
D13*
%TO.C,SW511*%
X365720682Y-579123023D03*
X365720682Y-584123023D03*
D14*
X370720682Y-579123023D03*
X370720682Y-584123023D03*
%TD*%
D13*
%TO.C,SW502*%
X122720682Y-579123023D03*
X122720682Y-584123023D03*
D14*
X127720682Y-579123023D03*
X127720682Y-584123023D03*
%TD*%
D11*
%TO.C,H108*%
X88320682Y-564539689D03*
X89023626Y-562842633D03*
X89023626Y-566236745D03*
X90720682Y-562139689D03*
D12*
X90720682Y-564539689D03*
D11*
X90720682Y-566939689D03*
X92417738Y-562842633D03*
X92417738Y-566236745D03*
X93120682Y-564539689D03*
%TD*%
%TO.C,H230*%
X508150682Y-171224689D03*
X508853626Y-169527633D03*
X508853626Y-172921745D03*
X510550682Y-168824689D03*
D12*
X510550682Y-171224689D03*
D11*
X510550682Y-173624689D03*
X512247738Y-169527633D03*
X512247738Y-172921745D03*
X512950682Y-171224689D03*
%TD*%
%TO.C,H108*%
X408300682Y-806208023D03*
X409003626Y-804510967D03*
X409003626Y-807905079D03*
X410700682Y-803808023D03*
D12*
X410700682Y-806208023D03*
D11*
X410700682Y-808608023D03*
X412397738Y-804510967D03*
X412397738Y-807905079D03*
X413100682Y-806208023D03*
%TD*%
%TO.C,H206*%
X437300682Y-503374689D03*
X438003626Y-501677633D03*
X438003626Y-505071745D03*
X439700682Y-500974689D03*
D12*
X439700682Y-503374689D03*
D11*
X439700682Y-505774689D03*
X441397738Y-501677633D03*
X441397738Y-505071745D03*
X442100682Y-503374689D03*
%TD*%
%TO.C,H276*%
X903950000Y-537050000D03*
X904652944Y-535352944D03*
X904652944Y-538747056D03*
X906350000Y-534650000D03*
D12*
X906350000Y-537050000D03*
D11*
X906350000Y-539450000D03*
X908047056Y-535352944D03*
X908047056Y-538747056D03*
X908750000Y-537050000D03*
%TD*%
%TO.C,H108*%
X526000000Y-586050000D03*
X526702944Y-584352944D03*
X526702944Y-587747056D03*
X528400000Y-583650000D03*
D12*
X528400000Y-586050000D03*
D11*
X528400000Y-588450000D03*
X530097056Y-584352944D03*
X530097056Y-587747056D03*
X530800000Y-586050000D03*
%TD*%
%TO.C,H108*%
X138320682Y-615373023D03*
X139023626Y-613675967D03*
X139023626Y-617070079D03*
X140720682Y-612973023D03*
D12*
X140720682Y-615373023D03*
D11*
X140720682Y-617773023D03*
X142417738Y-613675967D03*
X142417738Y-617070079D03*
X143120682Y-615373023D03*
%TD*%
%TO.C,H188*%
X568121872Y-248563022D03*
X568824816Y-246865966D03*
X568824816Y-250260078D03*
X570521872Y-246163022D03*
D12*
X570521872Y-248563022D03*
D11*
X570521872Y-250963022D03*
X572218928Y-246865966D03*
X572218928Y-250260078D03*
X572921872Y-248563022D03*
%TD*%
%TO.C,H233*%
X590950000Y-602050000D03*
X591652944Y-600352944D03*
X591652944Y-603747056D03*
X593350000Y-599650000D03*
D12*
X593350000Y-602050000D03*
D11*
X593350000Y-604450000D03*
X595047056Y-600352944D03*
X595047056Y-603747056D03*
X595750000Y-602050000D03*
%TD*%
%TO.C,H108*%
X509950000Y-602050000D03*
X510652944Y-600352944D03*
X510652944Y-603747056D03*
X512350000Y-599650000D03*
D12*
X512350000Y-602050000D03*
D11*
X512350000Y-604450000D03*
X514047056Y-600352944D03*
X514047056Y-603747056D03*
X514750000Y-602050000D03*
%TD*%
%TO.C,H154*%
X250320682Y-564539689D03*
X251023626Y-562842633D03*
X251023626Y-566236745D03*
X252720682Y-562139689D03*
D12*
X252720682Y-564539689D03*
D11*
X252720682Y-566939689D03*
X254417738Y-562842633D03*
X254417738Y-566236745D03*
X255120682Y-564539689D03*
%TD*%
%TO.C,H195*%
X356300682Y-503374689D03*
X357003626Y-501677633D03*
X357003626Y-505071745D03*
X358700682Y-500974689D03*
D12*
X358700682Y-503374689D03*
D11*
X358700682Y-505774689D03*
X360397738Y-501677633D03*
X360397738Y-505071745D03*
X361100682Y-503374689D03*
%TD*%
%TO.C,H108*%
X113300682Y-503374689D03*
X114003626Y-501677633D03*
X114003626Y-505071745D03*
X115700682Y-500974689D03*
D12*
X115700682Y-503374689D03*
D11*
X115700682Y-505774689D03*
X117397738Y-501677633D03*
X117397738Y-505071745D03*
X118100682Y-503374689D03*
%TD*%
%TO.C,H133*%
X169320682Y-452873023D03*
X170023626Y-451175967D03*
X170023626Y-454570079D03*
X171720682Y-450473023D03*
D12*
X171720682Y-452873023D03*
D11*
X171720682Y-455273023D03*
X173417738Y-451175967D03*
X173417738Y-454570079D03*
X174120682Y-452873023D03*
%TD*%
%TO.C,H108*%
X88320682Y-508706356D03*
X89023626Y-507009300D03*
X89023626Y-510403412D03*
X90720682Y-506306356D03*
D12*
X90720682Y-508706356D03*
D11*
X90720682Y-511106356D03*
X92417738Y-507009300D03*
X92417738Y-510403412D03*
X93120682Y-508706356D03*
%TD*%
%TO.C,H188*%
X78121872Y-248563022D03*
X78824816Y-246865966D03*
X78824816Y-250260078D03*
X80521872Y-246163022D03*
D12*
X80521872Y-248563022D03*
D11*
X80521872Y-250963022D03*
X82218928Y-246865966D03*
X82218928Y-250260078D03*
X82921872Y-248563022D03*
%TD*%
%TO.C,H121*%
X148150682Y-251224689D03*
X148853626Y-249527633D03*
X148853626Y-252921745D03*
X150550682Y-248824689D03*
D12*
X150550682Y-251224689D03*
D11*
X150550682Y-253624689D03*
X152247738Y-249527633D03*
X152247738Y-252921745D03*
X152950682Y-251224689D03*
%TD*%
%TO.C,H109*%
X169320682Y-615373023D03*
X170023626Y-613675967D03*
X170023626Y-617070079D03*
X171720682Y-612973023D03*
D12*
X171720682Y-615373023D03*
D11*
X171720682Y-617773023D03*
X173417738Y-613675967D03*
X173417738Y-617070079D03*
X174120682Y-615373023D03*
%TD*%
%TO.C,H108*%
X579950000Y-472050000D03*
X580652944Y-470352944D03*
X580652944Y-473747056D03*
X582350000Y-469650000D03*
D12*
X582350000Y-472050000D03*
D11*
X582350000Y-474450000D03*
X584047056Y-470352944D03*
X584047056Y-473747056D03*
X584750000Y-472050000D03*
%TD*%
%TO.C,H108*%
X558300682Y-806208023D03*
X559003626Y-804510967D03*
X559003626Y-807905079D03*
X560700682Y-803808023D03*
D12*
X560700682Y-806208023D03*
D11*
X560700682Y-808608023D03*
X562397738Y-804510967D03*
X562397738Y-807905079D03*
X563100682Y-806208023D03*
%TD*%
%TO.C,H128*%
X258150682Y-362891355D03*
X258853626Y-361194299D03*
X258853626Y-364588411D03*
X260550682Y-360491355D03*
D12*
X260550682Y-362891355D03*
D11*
X260550682Y-365291355D03*
X262247738Y-361194299D03*
X262247738Y-364588411D03*
X262950682Y-362891355D03*
%TD*%
D15*
%TO.C,J103*%
X239620682Y-685748023D03*
D16*
X239620682Y-683208023D03*
X237080682Y-685748023D03*
X237080682Y-683208023D03*
X234540682Y-685748023D03*
X234540682Y-683208023D03*
X232000682Y-685748023D03*
X232000682Y-683208023D03*
X229460682Y-685748023D03*
X229460682Y-683208023D03*
%TD*%
D13*
%TO.C,J504*%
X288260682Y-669798023D03*
X288260682Y-674798023D03*
D14*
X293260682Y-669798023D03*
X293260682Y-674798023D03*
%TD*%
D11*
%TO.C,H108*%
X138150682Y-171224689D03*
X138853626Y-169527633D03*
X138853626Y-172921745D03*
X140550682Y-168824689D03*
D12*
X140550682Y-171224689D03*
D11*
X140550682Y-173624689D03*
X142247738Y-169527633D03*
X142247738Y-172921745D03*
X142950682Y-171224689D03*
%TD*%
%TO.C,H245*%
X671950000Y-602050000D03*
X672652944Y-600352944D03*
X672652944Y-603747056D03*
X674350000Y-599650000D03*
D12*
X674350000Y-602050000D03*
D11*
X674350000Y-604450000D03*
X676047056Y-600352944D03*
X676047056Y-603747056D03*
X676750000Y-602050000D03*
%TD*%
%TO.C,H119*%
X148150682Y-307058022D03*
X148853626Y-305360966D03*
X148853626Y-308755078D03*
X150550682Y-304658022D03*
D12*
X150550682Y-307058022D03*
D11*
X150550682Y-309458022D03*
X152247738Y-305360966D03*
X152247738Y-308755078D03*
X152950682Y-307058022D03*
%TD*%
%TO.C,H407*%
X107770682Y-725298023D03*
X108473626Y-723600967D03*
X108473626Y-726995079D03*
X110170682Y-722898023D03*
D12*
X110170682Y-725298023D03*
D11*
X110170682Y-727698023D03*
X111867738Y-723600967D03*
X111867738Y-726995079D03*
X112570682Y-725298023D03*
%TD*%
D13*
%TO.C,SW510*%
X355820682Y-597623023D03*
X355820682Y-602623023D03*
D14*
X360820682Y-597623023D03*
X360820682Y-602623023D03*
%TD*%
D15*
%TO.C,J114*%
X901339716Y-686009982D03*
D16*
X901339716Y-683469982D03*
X898799716Y-686009982D03*
X898799716Y-683469982D03*
X896259716Y-686009982D03*
X896259716Y-683469982D03*
X893719716Y-686009982D03*
X893719716Y-683469982D03*
X891179716Y-686009982D03*
X891179716Y-683469982D03*
%TD*%
D11*
%TO.C,H142*%
X268150682Y-251224689D03*
X268853626Y-249527633D03*
X268853626Y-252921745D03*
X270550682Y-248824689D03*
D12*
X270550682Y-251224689D03*
D11*
X270550682Y-253624689D03*
X272247738Y-249527633D03*
X272247738Y-252921745D03*
X272950682Y-251224689D03*
%TD*%
%TO.C,H213*%
X568121872Y-423729689D03*
X568824816Y-422032633D03*
X568824816Y-425426745D03*
X570521872Y-421329689D03*
D12*
X570521872Y-423729689D03*
D11*
X570521872Y-426129689D03*
X572218928Y-422032633D03*
X572218928Y-425426745D03*
X572921872Y-423729689D03*
%TD*%
D13*
%TO.C,J9*%
X843779716Y-669546648D03*
X843779716Y-674546648D03*
D14*
X848779716Y-669546648D03*
X848779716Y-674546648D03*
%TD*%
D15*
%TO.C,J102*%
X180620682Y-685648023D03*
D16*
X180620682Y-683108023D03*
X178080682Y-685648023D03*
X178080682Y-683108023D03*
X175540682Y-685648023D03*
X175540682Y-683108023D03*
X173000682Y-685648023D03*
X173000682Y-683108023D03*
X170460682Y-685648023D03*
X170460682Y-683108023D03*
%TD*%
D19*
%TO.C,K504*%
X351280682Y-568763023D03*
X343660682Y-568763023D03*
X351280682Y-558603023D03*
X351280682Y-550983023D03*
%TD*%
D11*
%TO.C,H246*%
X741950000Y-602050000D03*
X742652944Y-600352944D03*
X742652944Y-603747056D03*
X744350000Y-599650000D03*
D12*
X744350000Y-602050000D03*
D11*
X744350000Y-604450000D03*
X746047056Y-600352944D03*
X746047056Y-603747056D03*
X746750000Y-602050000D03*
%TD*%
%TO.C,H108*%
X509902944Y-471997056D03*
X510605888Y-470300000D03*
X510605888Y-473694112D03*
X512302944Y-469597056D03*
D12*
X512302944Y-471997056D03*
D11*
X512302944Y-474397056D03*
X514000000Y-470300000D03*
X514000000Y-473694112D03*
X514702944Y-471997056D03*
%TD*%
%TO.C,H108*%
X88300682Y-699541356D03*
X89003626Y-697844300D03*
X89003626Y-701238412D03*
X90700682Y-697141356D03*
D12*
X90700682Y-699541356D03*
D11*
X90700682Y-701941356D03*
X92397738Y-697844300D03*
X92397738Y-701238412D03*
X93100682Y-699541356D03*
%TD*%
%TO.C,H214*%
X200621872Y-161229689D03*
X201324816Y-159532633D03*
X201324816Y-162926745D03*
X203021872Y-158829689D03*
D12*
X203021872Y-161229689D03*
D11*
X203021872Y-163629689D03*
X204718928Y-159532633D03*
X204718928Y-162926745D03*
X205421872Y-161229689D03*
%TD*%
D15*
%TO.C,J112*%
X780749716Y-686119982D03*
D16*
X780749716Y-683579982D03*
X778209716Y-686119982D03*
X778209716Y-683579982D03*
X775669716Y-686119982D03*
X775669716Y-683579982D03*
X773129716Y-686119982D03*
X773129716Y-683579982D03*
X770589716Y-686119982D03*
X770589716Y-683579982D03*
%TD*%
D11*
%TO.C,H169*%
X448150682Y-307058022D03*
X448853626Y-305360966D03*
X448853626Y-308755078D03*
X450550682Y-304658022D03*
D12*
X450550682Y-307058022D03*
D11*
X450550682Y-309458022D03*
X452247738Y-305360966D03*
X452247738Y-308755078D03*
X452950682Y-307058022D03*
%TD*%
%TO.C,H180*%
X558150682Y-307058022D03*
X558853626Y-305360966D03*
X558853626Y-308755078D03*
X560550682Y-304658022D03*
D12*
X560550682Y-307058022D03*
D11*
X560550682Y-309458022D03*
X562247738Y-305360966D03*
X562247738Y-308755078D03*
X562950682Y-307058022D03*
%TD*%
D13*
%TO.C,J503*%
X123410682Y-669798023D03*
X123410682Y-674798023D03*
D14*
X128410682Y-669798023D03*
X128410682Y-674798023D03*
%TD*%
D11*
%TO.C,H108*%
X138150682Y-307058022D03*
X138853626Y-305360966D03*
X138853626Y-308755078D03*
X140550682Y-304658022D03*
D12*
X140550682Y-307058022D03*
D11*
X140550682Y-309458022D03*
X142247738Y-305360966D03*
X142247738Y-308755078D03*
X142950682Y-307058022D03*
%TD*%
%TO.C,H138*%
X318150682Y-362891355D03*
X318853626Y-361194299D03*
X318853626Y-364588411D03*
X320550682Y-360491355D03*
D12*
X320550682Y-362891355D03*
D11*
X320550682Y-365291355D03*
X322247738Y-361194299D03*
X322247738Y-364588411D03*
X322950682Y-362891355D03*
%TD*%
D13*
%TO.C,J506*%
X184470682Y-539623023D03*
X184470682Y-544623023D03*
D14*
X189470682Y-539623023D03*
X189470682Y-544623023D03*
%TD*%
D11*
%TO.C,H234*%
X660950000Y-602050000D03*
X661652944Y-600352944D03*
X661652944Y-603747056D03*
X663350000Y-599650000D03*
D12*
X663350000Y-602050000D03*
D11*
X663350000Y-604450000D03*
X665047056Y-600352944D03*
X665047056Y-603747056D03*
X665750000Y-602050000D03*
%TD*%
D13*
%TO.C,SW503*%
X103320682Y-578873023D03*
X103320682Y-583873023D03*
D14*
X108320682Y-578873023D03*
X108320682Y-583873023D03*
%TD*%
D11*
%TO.C,H160*%
X438150682Y-307058022D03*
X438853626Y-305360966D03*
X438853626Y-308755078D03*
X440550682Y-304658022D03*
D12*
X440550682Y-307058022D03*
D11*
X440550682Y-309458022D03*
X442247738Y-305360966D03*
X442247738Y-308755078D03*
X442950682Y-307058022D03*
%TD*%
%TO.C,H219*%
X198150682Y-171224689D03*
X198853626Y-169527633D03*
X198853626Y-172921745D03*
X200550682Y-168824689D03*
D12*
X200550682Y-171224689D03*
D11*
X200550682Y-173624689D03*
X202247738Y-169527633D03*
X202247738Y-172921745D03*
X202950682Y-171224689D03*
%TD*%
%TO.C,H155*%
X388150682Y-413724689D03*
X388853626Y-412027633D03*
X388853626Y-415421745D03*
X390550682Y-411324689D03*
D12*
X390550682Y-413724689D03*
D11*
X390550682Y-416124689D03*
X392247738Y-412027633D03*
X392247738Y-415421745D03*
X392950682Y-413724689D03*
%TD*%
%TO.C,H248*%
X726000000Y-586050000D03*
X726702944Y-584352944D03*
X726702944Y-587747056D03*
X728400000Y-583650000D03*
D12*
X728400000Y-586050000D03*
D11*
X728400000Y-588450000D03*
X730097056Y-584352944D03*
X730097056Y-587747056D03*
X730800000Y-586050000D03*
%TD*%
%TO.C,H114*%
X169320682Y-508706356D03*
X170023626Y-507009300D03*
X170023626Y-510403412D03*
X171720682Y-506306356D03*
D12*
X171720682Y-508706356D03*
D11*
X171720682Y-511106356D03*
X173417738Y-507009300D03*
X173417738Y-510403412D03*
X174120682Y-508706356D03*
%TD*%
%TO.C,H108*%
X88150682Y-362891355D03*
X88853626Y-361194299D03*
X88853626Y-364588411D03*
X90550682Y-360491355D03*
D12*
X90550682Y-362891355D03*
D11*
X90550682Y-365291355D03*
X92247738Y-361194299D03*
X92247738Y-364588411D03*
X92950682Y-362891355D03*
%TD*%
%TO.C,H108*%
X88150682Y-413724689D03*
X88853626Y-412027633D03*
X88853626Y-415421745D03*
X90550682Y-411324689D03*
D12*
X90550682Y-413724689D03*
D11*
X90550682Y-416124689D03*
X92247738Y-412027633D03*
X92247738Y-415421745D03*
X92950682Y-413724689D03*
%TD*%
%TO.C,H124*%
X194300682Y-503374689D03*
X195003626Y-501677633D03*
X195003626Y-505071745D03*
X196700682Y-500974689D03*
D12*
X196700682Y-503374689D03*
D11*
X196700682Y-505774689D03*
X198397738Y-501677633D03*
X198397738Y-505071745D03*
X199100682Y-503374689D03*
%TD*%
%TO.C,H227*%
X438150682Y-171224689D03*
X438853626Y-169527633D03*
X438853626Y-172921745D03*
X440550682Y-168824689D03*
D12*
X440550682Y-171224689D03*
D11*
X440550682Y-173624689D03*
X442247738Y-169527633D03*
X442247738Y-172921745D03*
X442950682Y-171224689D03*
%TD*%
%TO.C,H108*%
X248300682Y-755374689D03*
X249003626Y-753677633D03*
X249003626Y-757071745D03*
X250700682Y-752974689D03*
D12*
X250700682Y-755374689D03*
D11*
X250700682Y-757774689D03*
X252397738Y-753677633D03*
X252397738Y-757071745D03*
X253100682Y-755374689D03*
%TD*%
D17*
%TO.C,U502*%
X204470682Y-568523023D03*
X209470682Y-568523023D03*
D18*
X204470682Y-563523023D03*
X209470682Y-563523023D03*
X204470682Y-558523023D03*
X209470682Y-558523023D03*
X204470682Y-553523023D03*
X209470682Y-553523023D03*
%TD*%
D11*
%TO.C,H108*%
X579950000Y-537050000D03*
X580652944Y-535352944D03*
X580652944Y-538747056D03*
X582350000Y-534650000D03*
D12*
X582350000Y-537050000D03*
D11*
X582350000Y-539450000D03*
X584047056Y-535352944D03*
X584047056Y-538747056D03*
X584750000Y-537050000D03*
%TD*%
%TO.C,H108*%
X890302944Y-643679982D03*
X891005888Y-641982926D03*
X891005888Y-645377038D03*
X892702944Y-641279982D03*
D12*
X892702944Y-643679982D03*
D11*
X892702944Y-646079982D03*
X894400000Y-641982926D03*
X894400000Y-645377038D03*
X895102944Y-643679982D03*
%TD*%
%TO.C,H189*%
X331320682Y-564539689D03*
X332023626Y-562842633D03*
X332023626Y-566236745D03*
X333720682Y-562139689D03*
D12*
X333720682Y-564539689D03*
D11*
X333720682Y-566939689D03*
X335417738Y-562842633D03*
X335417738Y-566236745D03*
X336120682Y-564539689D03*
%TD*%
%TO.C,H264*%
X822950000Y-537050000D03*
X823652944Y-535352944D03*
X823652944Y-538747056D03*
X825350000Y-534650000D03*
D12*
X825350000Y-537050000D03*
D11*
X825350000Y-539450000D03*
X827047056Y-535352944D03*
X827047056Y-538747056D03*
X827750000Y-537050000D03*
%TD*%
D13*
%TO.C,J13*%
X768579716Y-669746648D03*
X768579716Y-674746648D03*
D14*
X773579716Y-669746648D03*
X773579716Y-674746648D03*
%TD*%
D11*
%TO.C,H192*%
X331320682Y-508706356D03*
X332023626Y-507009300D03*
X332023626Y-510403412D03*
X333720682Y-506306356D03*
D12*
X333720682Y-508706356D03*
D11*
X333720682Y-511106356D03*
X335417738Y-507009300D03*
X335417738Y-510403412D03*
X336120682Y-508706356D03*
%TD*%
D13*
%TO.C,SW506*%
X184320682Y-578873023D03*
X184320682Y-583873023D03*
D14*
X189320682Y-578873023D03*
X189320682Y-583873023D03*
%TD*%
D11*
%TO.C,H179*%
X508150682Y-307058022D03*
X508853626Y-305360966D03*
X508853626Y-308755078D03*
X510550682Y-304658022D03*
D12*
X510550682Y-307058022D03*
D11*
X510550682Y-309458022D03*
X512247738Y-305360966D03*
X512247738Y-308755078D03*
X512950682Y-307058022D03*
%TD*%
%TO.C,H209*%
X462320682Y-452873023D03*
X463023626Y-451175967D03*
X463023626Y-454570079D03*
X464720682Y-450473023D03*
D12*
X464720682Y-452873023D03*
D11*
X464720682Y-455273023D03*
X466417738Y-451175967D03*
X466417738Y-454570079D03*
X467120682Y-452873023D03*
%TD*%
%TO.C,H277*%
X843500000Y-507050000D03*
X844202944Y-505352944D03*
X844202944Y-508747056D03*
X845900000Y-504650000D03*
D12*
X845900000Y-507050000D03*
D11*
X845900000Y-509450000D03*
X847597056Y-505352944D03*
X847597056Y-508747056D03*
X848300000Y-507050000D03*
%TD*%
%TO.C,H197*%
X331320682Y-452873023D03*
X332023626Y-451175967D03*
X332023626Y-454570079D03*
X333720682Y-450473023D03*
D12*
X333720682Y-452873023D03*
D11*
X333720682Y-455273023D03*
X335417738Y-451175967D03*
X335417738Y-454570079D03*
X336120682Y-452873023D03*
%TD*%
%TO.C,H120*%
X198150682Y-307058022D03*
X198853626Y-305360966D03*
X198853626Y-308755078D03*
X200550682Y-304658022D03*
D12*
X200550682Y-307058022D03*
D11*
X200550682Y-309458022D03*
X202247738Y-305360966D03*
X202247738Y-308755078D03*
X202950682Y-307058022D03*
%TD*%
D19*
%TO.C,K505*%
X432280682Y-568763023D03*
X424660682Y-568763023D03*
X432280682Y-558603023D03*
X432280682Y-550983023D03*
%TD*%
D11*
%TO.C,H164*%
X438150682Y-251224689D03*
X438853626Y-249527633D03*
X438853626Y-252921745D03*
X440550682Y-248824689D03*
D12*
X440550682Y-251224689D03*
D11*
X440550682Y-253624689D03*
X442247738Y-249527633D03*
X442247738Y-252921745D03*
X442950682Y-251224689D03*
%TD*%
%TO.C,H405*%
X200270682Y-795198023D03*
X200973626Y-793500967D03*
X200973626Y-796895079D03*
X202670682Y-792798023D03*
D12*
X202670682Y-795198023D03*
D11*
X202670682Y-797598023D03*
X204367738Y-793500967D03*
X204367738Y-796895079D03*
X205070682Y-795198023D03*
%TD*%
%TO.C,H257*%
X752950000Y-602050000D03*
X753652944Y-600352944D03*
X753652944Y-603747056D03*
X755350000Y-599650000D03*
D12*
X755350000Y-602050000D03*
D11*
X755350000Y-604450000D03*
X757047056Y-600352944D03*
X757047056Y-603747056D03*
X757750000Y-602050000D03*
%TD*%
%TO.C,H175*%
X508150682Y-413724689D03*
X508853626Y-412027633D03*
X508853626Y-415421745D03*
X510550682Y-411324689D03*
D12*
X510550682Y-413724689D03*
D11*
X510550682Y-416124689D03*
X512247738Y-412027633D03*
X512247738Y-415421745D03*
X512950682Y-413724689D03*
%TD*%
%TO.C,H108*%
X88150682Y-251224689D03*
X88853626Y-249527633D03*
X88853626Y-252921745D03*
X90550682Y-248824689D03*
D12*
X90550682Y-251224689D03*
D11*
X90550682Y-253624689D03*
X92247738Y-249527633D03*
X92247738Y-252921745D03*
X92950682Y-251224689D03*
%TD*%
%TO.C,H141*%
X219320682Y-452873023D03*
X220023626Y-451175967D03*
X220023626Y-454570079D03*
X221720682Y-450473023D03*
D12*
X221720682Y-452873023D03*
D11*
X221720682Y-455273023D03*
X223417738Y-451175967D03*
X223417738Y-454570079D03*
X224120682Y-452873023D03*
%TD*%
%TO.C,H228*%
X448150682Y-171224689D03*
X448853626Y-169527633D03*
X448853626Y-172921745D03*
X450550682Y-168824689D03*
D12*
X450550682Y-171224689D03*
D11*
X450550682Y-173624689D03*
X452247738Y-169527633D03*
X452247738Y-172921745D03*
X452950682Y-171224689D03*
%TD*%
%TO.C,H108*%
X730302944Y-755346648D03*
X731005888Y-753649592D03*
X731005888Y-757043704D03*
X732702944Y-752946648D03*
D12*
X732702944Y-755346648D03*
D11*
X732702944Y-757746648D03*
X734400000Y-753649592D03*
X734400000Y-757043704D03*
X735102944Y-755346648D03*
%TD*%
%TO.C,H265*%
X762500000Y-507050000D03*
X763202944Y-505352944D03*
X763202944Y-508747056D03*
X764900000Y-504650000D03*
D12*
X764900000Y-507050000D03*
D11*
X764900000Y-509450000D03*
X766597056Y-505352944D03*
X766597056Y-508747056D03*
X767300000Y-507050000D03*
%TD*%
%TO.C,H253*%
X681500000Y-507050000D03*
X682202944Y-505352944D03*
X682202944Y-508747056D03*
X683900000Y-504650000D03*
D12*
X683900000Y-507050000D03*
D11*
X683900000Y-509450000D03*
X685597056Y-505352944D03*
X685597056Y-508747056D03*
X686300000Y-507050000D03*
%TD*%
%TO.C,H108*%
X646500000Y-330800000D03*
X647202944Y-329102944D03*
X647202944Y-332497056D03*
X648900000Y-328400000D03*
D12*
X648900000Y-330800000D03*
D11*
X648900000Y-333200000D03*
X650597056Y-329102944D03*
X650597056Y-332497056D03*
X651300000Y-330800000D03*
%TD*%
%TO.C,H211*%
X323121872Y-423729689D03*
X323824816Y-422032633D03*
X323824816Y-425426745D03*
X325521872Y-421329689D03*
D12*
X325521872Y-423729689D03*
D11*
X325521872Y-426129689D03*
X327218928Y-422032633D03*
X327218928Y-425426745D03*
X327921872Y-423729689D03*
%TD*%
%TO.C,H116*%
X198150682Y-413724689D03*
X198853626Y-412027633D03*
X198853626Y-415421745D03*
X200550682Y-411324689D03*
D12*
X200550682Y-413724689D03*
D11*
X200550682Y-416124689D03*
X202247738Y-412027633D03*
X202247738Y-415421745D03*
X202950682Y-413724689D03*
%TD*%
%TO.C,H108*%
X88300682Y-806208023D03*
X89003626Y-804510967D03*
X89003626Y-807905079D03*
X90700682Y-803808023D03*
D12*
X90700682Y-806208023D03*
D11*
X90700682Y-808608023D03*
X92397738Y-804510967D03*
X92397738Y-807905079D03*
X93100682Y-806208023D03*
%TD*%
%TO.C,H112*%
X169320682Y-564539689D03*
X170023626Y-562842633D03*
X170023626Y-566236745D03*
X171720682Y-562139689D03*
D12*
X171720682Y-564539689D03*
D11*
X171720682Y-566939689D03*
X173417738Y-562842633D03*
X173417738Y-566236745D03*
X174120682Y-564539689D03*
%TD*%
%TO.C,H108*%
X570302944Y-755346648D03*
X571005888Y-753649592D03*
X571005888Y-757043704D03*
X572702944Y-752946648D03*
D12*
X572702944Y-755346648D03*
D11*
X572702944Y-757746648D03*
X574400000Y-753649592D03*
X574400000Y-757043704D03*
X575102944Y-755346648D03*
%TD*%
D15*
%TO.C,J107*%
X479420682Y-686148023D03*
D16*
X479420682Y-683608023D03*
X476880682Y-686148023D03*
X476880682Y-683608023D03*
X474340682Y-686148023D03*
X474340682Y-683608023D03*
X471800682Y-686148023D03*
X471800682Y-683608023D03*
X469260682Y-686148023D03*
X469260682Y-683608023D03*
%TD*%
D11*
%TO.C,H170*%
X498150682Y-307058022D03*
X498853626Y-305360966D03*
X498853626Y-308755078D03*
X500550682Y-304658022D03*
D12*
X500550682Y-307058022D03*
D11*
X500550682Y-309458022D03*
X502247738Y-305360966D03*
X502247738Y-308755078D03*
X502950682Y-307058022D03*
%TD*%
%TO.C,H216*%
X445621872Y-161229689D03*
X446324816Y-159532633D03*
X446324816Y-162926745D03*
X448021872Y-158829689D03*
D12*
X448021872Y-161229689D03*
D11*
X448021872Y-163629689D03*
X449718928Y-159532633D03*
X449718928Y-162926745D03*
X450421872Y-161229689D03*
%TD*%
%TO.C,H145*%
X328150682Y-413724689D03*
X328853626Y-412027633D03*
X328853626Y-415421745D03*
X330550682Y-411324689D03*
D12*
X330550682Y-413724689D03*
D11*
X330550682Y-416124689D03*
X332247738Y-412027633D03*
X332247738Y-415421745D03*
X332950682Y-413724689D03*
%TD*%
%TO.C,H260*%
X807000000Y-586050000D03*
X807702944Y-584352944D03*
X807702944Y-587747056D03*
X809400000Y-583650000D03*
D12*
X809400000Y-586050000D03*
D11*
X809400000Y-588450000D03*
X811097056Y-584352944D03*
X811097056Y-587747056D03*
X811800000Y-586050000D03*
%TD*%
D13*
%TO.C,J12*%
X783679716Y-669646648D03*
X783679716Y-674646648D03*
D14*
X788679716Y-669646648D03*
X788679716Y-674646648D03*
%TD*%
D11*
%TO.C,H108*%
X570500000Y-507050000D03*
X571202944Y-505352944D03*
X571202944Y-508747056D03*
X572900000Y-504650000D03*
D12*
X572900000Y-507050000D03*
D11*
X572900000Y-509450000D03*
X574597056Y-505352944D03*
X574597056Y-508747056D03*
X575300000Y-507050000D03*
%TD*%
%TO.C,H183*%
X558150682Y-251224689D03*
X558853626Y-249527633D03*
X558853626Y-252921745D03*
X560550682Y-248824689D03*
D12*
X560550682Y-251224689D03*
D11*
X560550682Y-253624689D03*
X562247738Y-249527633D03*
X562247738Y-252921745D03*
X562950682Y-251224689D03*
%TD*%
%TO.C,H108*%
X730302944Y-699513315D03*
X731005888Y-697816259D03*
X731005888Y-701210371D03*
X732702944Y-697113315D03*
D12*
X732702944Y-699513315D03*
D11*
X732702944Y-701913315D03*
X734400000Y-697816259D03*
X734400000Y-701210371D03*
X735102944Y-699513315D03*
%TD*%
%TO.C,H108*%
X890302944Y-699513315D03*
X891005888Y-697816259D03*
X891005888Y-701210371D03*
X892702944Y-697113315D03*
D12*
X892702944Y-699513315D03*
D11*
X892702944Y-701913315D03*
X894400000Y-697816259D03*
X894400000Y-701210371D03*
X895102944Y-699513315D03*
%TD*%
%TO.C,H274*%
X888000000Y-548050000D03*
X888702944Y-546352944D03*
X888702944Y-549747056D03*
X890400000Y-545650000D03*
D12*
X890400000Y-548050000D03*
D11*
X890400000Y-550450000D03*
X892097056Y-546352944D03*
X892097056Y-549747056D03*
X892800000Y-548050000D03*
%TD*%
%TO.C,H205*%
X462320682Y-508706356D03*
X463023626Y-507009300D03*
X463023626Y-510403412D03*
X464720682Y-506306356D03*
D12*
X464720682Y-508706356D03*
D11*
X464720682Y-511106356D03*
X466417738Y-507009300D03*
X466417738Y-510403412D03*
X467120682Y-508706356D03*
%TD*%
%TO.C,H108*%
X113300682Y-455874689D03*
X114003626Y-454177633D03*
X114003626Y-457571745D03*
X115700682Y-453474689D03*
D12*
X115700682Y-455874689D03*
D11*
X115700682Y-458274689D03*
X117397738Y-454177633D03*
X117397738Y-457571745D03*
X118100682Y-455874689D03*
%TD*%
D20*
%TO.C,TP401*%
X446830682Y-730298023D03*
%TD*%
D11*
%TO.C,H223*%
X318150682Y-171224689D03*
X318853626Y-169527633D03*
X318853626Y-172921745D03*
X320550682Y-168824689D03*
D12*
X320550682Y-171224689D03*
D11*
X320550682Y-173624689D03*
X322247738Y-169527633D03*
X322247738Y-172921745D03*
X322950682Y-171224689D03*
%TD*%
D13*
%TO.C,J10*%
X723579716Y-669746648D03*
X723579716Y-674746648D03*
D14*
X728579716Y-669746648D03*
X728579716Y-674746648D03*
%TD*%
D11*
%TO.C,H220*%
X208150682Y-171224689D03*
X208853626Y-169527633D03*
X208853626Y-172921745D03*
X210550682Y-168824689D03*
D12*
X210550682Y-171224689D03*
D11*
X210550682Y-173624689D03*
X212247738Y-169527633D03*
X212247738Y-172921745D03*
X212950682Y-171224689D03*
%TD*%
D13*
%TO.C,J504*%
X408260682Y-669798023D03*
X408260682Y-674798023D03*
D14*
X413260682Y-669798023D03*
X413260682Y-674798023D03*
%TD*%
D11*
%TO.C,H255*%
X741950000Y-472050000D03*
X742652944Y-470352944D03*
X742652944Y-473747056D03*
X744350000Y-469650000D03*
D12*
X744350000Y-472050000D03*
D11*
X744350000Y-474450000D03*
X746047056Y-470352944D03*
X746047056Y-473747056D03*
X746750000Y-472050000D03*
%TD*%
%TO.C,H238*%
X645000000Y-548050000D03*
X645702944Y-546352944D03*
X645702944Y-549747056D03*
X647400000Y-545650000D03*
D12*
X647400000Y-548050000D03*
D11*
X647400000Y-550450000D03*
X649097056Y-546352944D03*
X649097056Y-549747056D03*
X649800000Y-548050000D03*
%TD*%
%TO.C,H131*%
X208150682Y-251224689D03*
X208853626Y-249527633D03*
X208853626Y-252921745D03*
X210550682Y-248824689D03*
D12*
X210550682Y-251224689D03*
D11*
X210550682Y-253624689D03*
X212247738Y-249527633D03*
X212247738Y-252921745D03*
X212950682Y-251224689D03*
%TD*%
%TO.C,H108*%
X78121872Y-161229689D03*
X78824816Y-159532633D03*
X78824816Y-162926745D03*
X80521872Y-158829689D03*
D12*
X80521872Y-161229689D03*
D11*
X80521872Y-163629689D03*
X82218928Y-159532633D03*
X82218928Y-162926745D03*
X82921872Y-161229689D03*
%TD*%
%TO.C,H130*%
X258150682Y-307058022D03*
X258853626Y-305360966D03*
X258853626Y-308755078D03*
X260550682Y-304658022D03*
D12*
X260550682Y-307058022D03*
D11*
X260550682Y-309458022D03*
X262247738Y-305360966D03*
X262247738Y-308755078D03*
X262950682Y-307058022D03*
%TD*%
%TO.C,H147*%
X328150682Y-362891355D03*
X328853626Y-361194299D03*
X328853626Y-364588411D03*
X330550682Y-360491355D03*
D12*
X330550682Y-362891355D03*
D11*
X330550682Y-365291355D03*
X332247738Y-361194299D03*
X332247738Y-364588411D03*
X332950682Y-362891355D03*
%TD*%
%TO.C,H108*%
X570302944Y-806179982D03*
X571005888Y-804482926D03*
X571005888Y-807877038D03*
X572702944Y-803779982D03*
D12*
X572702944Y-806179982D03*
D11*
X572702944Y-808579982D03*
X574400000Y-804482926D03*
X574400000Y-807877038D03*
X575102944Y-806179982D03*
%TD*%
D19*
%TO.C,K503*%
X270280682Y-568763023D03*
X262660682Y-568763023D03*
X270280682Y-558603023D03*
X270280682Y-550983023D03*
%TD*%
D11*
%TO.C,H108*%
X596500000Y-330800000D03*
X597202944Y-329102944D03*
X597202944Y-332497056D03*
X598900000Y-328400000D03*
D12*
X598900000Y-330800000D03*
D11*
X598900000Y-333200000D03*
X600597056Y-329102944D03*
X600597056Y-332497056D03*
X601300000Y-330800000D03*
%TD*%
D15*
%TO.C,J111*%
X720969716Y-686219982D03*
D16*
X720969716Y-683679982D03*
X718429716Y-686219982D03*
X718429716Y-683679982D03*
X715889716Y-686219982D03*
X715889716Y-683679982D03*
X713349716Y-686219982D03*
X713349716Y-683679982D03*
X710809716Y-686219982D03*
X710809716Y-683679982D03*
%TD*%
D11*
%TO.C,H108*%
X138150682Y-413724689D03*
X138853626Y-412027633D03*
X138853626Y-415421745D03*
X140550682Y-411324689D03*
D12*
X140550682Y-413724689D03*
D11*
X140550682Y-416124689D03*
X142247738Y-412027633D03*
X142247738Y-415421745D03*
X142950682Y-413724689D03*
%TD*%
%TO.C,H249*%
X688000000Y-548050000D03*
X688702944Y-546352944D03*
X688702944Y-549747056D03*
X690400000Y-545650000D03*
D12*
X690400000Y-548050000D03*
D11*
X690400000Y-550450000D03*
X692097056Y-546352944D03*
X692097056Y-549747056D03*
X692800000Y-548050000D03*
%TD*%
%TO.C,H207*%
X437300682Y-455874689D03*
X438003626Y-454177633D03*
X438003626Y-457571745D03*
X439700682Y-453474689D03*
D12*
X439700682Y-455874689D03*
D11*
X439700682Y-458274689D03*
X441397738Y-454177633D03*
X441397738Y-457571745D03*
X442100682Y-455874689D03*
%TD*%
%TO.C,H108*%
X509950000Y-537050000D03*
X510652944Y-535352944D03*
X510652944Y-538747056D03*
X512350000Y-534650000D03*
D12*
X512350000Y-537050000D03*
D11*
X512350000Y-539450000D03*
X514047056Y-535352944D03*
X514047056Y-538747056D03*
X514750000Y-537050000D03*
%TD*%
%TO.C,H108*%
X88150682Y-171224689D03*
X88853626Y-169527633D03*
X88853626Y-172921745D03*
X90550682Y-168824689D03*
D12*
X90550682Y-171224689D03*
D11*
X90550682Y-173624689D03*
X92247738Y-169527633D03*
X92247738Y-172921745D03*
X92950682Y-171224689D03*
%TD*%
%TO.C,H174*%
X275300682Y-503374689D03*
X276003626Y-501677633D03*
X276003626Y-505071745D03*
X277700682Y-500974689D03*
D12*
X277700682Y-503374689D03*
D11*
X277700682Y-505774689D03*
X279397738Y-501677633D03*
X279397738Y-505071745D03*
X280100682Y-503374689D03*
%TD*%
%TO.C,H241*%
X600500000Y-507050000D03*
X601202944Y-505352944D03*
X601202944Y-508747056D03*
X602900000Y-504650000D03*
D12*
X602900000Y-507050000D03*
D11*
X602900000Y-509450000D03*
X604597056Y-505352944D03*
X604597056Y-508747056D03*
X605300000Y-507050000D03*
%TD*%
D15*
%TO.C,J101*%
X119620682Y-685648023D03*
D16*
X119620682Y-683108023D03*
X117080682Y-685648023D03*
X117080682Y-683108023D03*
X114540682Y-685648023D03*
X114540682Y-683108023D03*
X112000682Y-685648023D03*
X112000682Y-683108023D03*
X109460682Y-685648023D03*
X109460682Y-683108023D03*
%TD*%
D11*
%TO.C,H137*%
X268150682Y-362891355D03*
X268853626Y-361194299D03*
X268853626Y-364588411D03*
X270550682Y-360491355D03*
D12*
X270550682Y-362891355D03*
D11*
X270550682Y-365291355D03*
X272247738Y-361194299D03*
X272247738Y-364588411D03*
X272950682Y-362891355D03*
%TD*%
%TO.C,H140*%
X318150682Y-307058022D03*
X318853626Y-305360966D03*
X318853626Y-308755078D03*
X320550682Y-304658022D03*
D12*
X320550682Y-307058022D03*
D11*
X320550682Y-309458022D03*
X322247738Y-305360966D03*
X322247738Y-308755078D03*
X322950682Y-307058022D03*
%TD*%
%TO.C,H199*%
X568121872Y-161229689D03*
X568824816Y-159532633D03*
X568824816Y-162926745D03*
X570521872Y-158829689D03*
D12*
X570521872Y-161229689D03*
D11*
X570521872Y-163629689D03*
X572218928Y-159532633D03*
X572218928Y-162926745D03*
X572921872Y-161229689D03*
%TD*%
%TO.C,H251*%
X671950000Y-537050000D03*
X672652944Y-535352944D03*
X672652944Y-538747056D03*
X674350000Y-534650000D03*
D12*
X674350000Y-537050000D03*
D11*
X674350000Y-539450000D03*
X676047056Y-535352944D03*
X676047056Y-538747056D03*
X676750000Y-537050000D03*
%TD*%
D13*
%TO.C,J503*%
X183410682Y-669798023D03*
X183410682Y-674798023D03*
D14*
X188410682Y-669798023D03*
X188410682Y-674798023D03*
%TD*%
D11*
%TO.C,H212*%
X445621872Y-423729689D03*
X446324816Y-422032633D03*
X446324816Y-425426745D03*
X448021872Y-421329689D03*
D12*
X448021872Y-423729689D03*
D11*
X448021872Y-426129689D03*
X449718928Y-422032633D03*
X449718928Y-425426745D03*
X450421872Y-423729689D03*
%TD*%
%TO.C,H196*%
X356300682Y-455874689D03*
X357003626Y-454177633D03*
X357003626Y-457571745D03*
X358700682Y-453474689D03*
D12*
X358700682Y-455874689D03*
D11*
X358700682Y-458274689D03*
X360397738Y-454177633D03*
X360397738Y-457571745D03*
X361100682Y-455874689D03*
%TD*%
D13*
%TO.C,J503*%
X303410682Y-669798023D03*
X303410682Y-674798023D03*
D14*
X308410682Y-669798023D03*
X308410682Y-674798023D03*
%TD*%
D11*
%TO.C,H273*%
X850000000Y-548050000D03*
X850702944Y-546352944D03*
X850702944Y-549747056D03*
X852400000Y-545650000D03*
D12*
X852400000Y-548050000D03*
D11*
X852400000Y-550450000D03*
X854097056Y-546352944D03*
X854097056Y-549747056D03*
X854800000Y-548050000D03*
%TD*%
D13*
%TO.C,J504*%
X168260682Y-669798023D03*
X168260682Y-674798023D03*
D14*
X173260682Y-669798023D03*
X173260682Y-674798023D03*
%TD*%
D11*
%TO.C,H108*%
X558300682Y-755374689D03*
X559003626Y-753677633D03*
X559003626Y-757071745D03*
X560700682Y-752974689D03*
D12*
X560700682Y-755374689D03*
D11*
X560700682Y-757774689D03*
X562397738Y-753677633D03*
X562397738Y-757071745D03*
X563100682Y-755374689D03*
%TD*%
D17*
%TO.C,J201*%
X268735682Y-788598023D03*
X273735682Y-788598023D03*
D18*
X268735682Y-783598023D03*
X273735682Y-783598023D03*
%TD*%
D11*
%TO.C,H108*%
X88150682Y-307058022D03*
X88853626Y-305360966D03*
X88853626Y-308755078D03*
X90550682Y-304658022D03*
D12*
X90550682Y-307058022D03*
D11*
X90550682Y-309458022D03*
X92247738Y-305360966D03*
X92247738Y-308755078D03*
X92950682Y-307058022D03*
%TD*%
D13*
%TO.C,J4*%
X1008379716Y-669446648D03*
X1008379716Y-674446648D03*
D14*
X1013379716Y-669446648D03*
X1013379716Y-674446648D03*
%TD*%
D11*
%TO.C,H110*%
X463383626Y-736521800D03*
X464086570Y-734824744D03*
X464086570Y-738218856D03*
X465783626Y-734121800D03*
D12*
X465783626Y-736521800D03*
D11*
X465783626Y-738921800D03*
X467480682Y-734824744D03*
X467480682Y-738218856D03*
X468183626Y-736521800D03*
%TD*%
%TO.C,H168*%
X498150682Y-362891355D03*
X498853626Y-361194299D03*
X498853626Y-364588411D03*
X500550682Y-360491355D03*
D12*
X500550682Y-362891355D03*
D11*
X500550682Y-365291355D03*
X502247738Y-361194299D03*
X502247738Y-364588411D03*
X502950682Y-362891355D03*
%TD*%
%TO.C,H102*%
X123717711Y-761375658D03*
X124420655Y-759678602D03*
X124420655Y-763072714D03*
X126117711Y-758975658D03*
D12*
X126117711Y-761375658D03*
D11*
X126117711Y-763775658D03*
X127814767Y-759678602D03*
X127814767Y-763072714D03*
X128517711Y-761375658D03*
%TD*%
%TO.C,H242*%
X651500000Y-507050000D03*
X652202944Y-505352944D03*
X652202944Y-508747056D03*
X653900000Y-504650000D03*
D12*
X653900000Y-507050000D03*
D11*
X653900000Y-509450000D03*
X655597056Y-505352944D03*
X655597056Y-508747056D03*
X656300000Y-507050000D03*
%TD*%
D20*
%TO.C,TP204*%
X341660682Y-775298023D03*
%TD*%
D15*
%TO.C,J108*%
X539700682Y-686148023D03*
D16*
X539700682Y-683608023D03*
X537160682Y-686148023D03*
X537160682Y-683608023D03*
X534620682Y-686148023D03*
X534620682Y-683608023D03*
X532080682Y-686148023D03*
X532080682Y-683608023D03*
X529540682Y-686148023D03*
X529540682Y-683608023D03*
%TD*%
D11*
%TO.C,H191*%
X78121872Y-335896355D03*
X78824816Y-334199299D03*
X78824816Y-337593411D03*
X80521872Y-333496355D03*
D12*
X80521872Y-335896355D03*
D11*
X80521872Y-338296355D03*
X82218928Y-334199299D03*
X82218928Y-337593411D03*
X82921872Y-335896355D03*
%TD*%
%TO.C,H269*%
X833950000Y-602050000D03*
X834652944Y-600352944D03*
X834652944Y-603747056D03*
X836350000Y-599650000D03*
D12*
X836350000Y-602050000D03*
D11*
X836350000Y-604450000D03*
X838047056Y-600352944D03*
X838047056Y-603747056D03*
X838750000Y-602050000D03*
%TD*%
%TO.C,H182*%
X508150682Y-251224689D03*
X508853626Y-249527633D03*
X508853626Y-252921745D03*
X510550682Y-248824689D03*
D12*
X510550682Y-251224689D03*
D11*
X510550682Y-253624689D03*
X512247738Y-249527633D03*
X512247738Y-252921745D03*
X512950682Y-251224689D03*
%TD*%
D19*
%TO.C,K501*%
X108280682Y-568763023D03*
X100660682Y-568763023D03*
X108280682Y-558603023D03*
X108280682Y-550983023D03*
%TD*%
D11*
%TO.C,H408*%
X178670682Y-761298023D03*
X179373626Y-759600967D03*
X179373626Y-762995079D03*
X181070682Y-758898023D03*
D12*
X181070682Y-761298023D03*
D11*
X181070682Y-763698023D03*
X182767738Y-759600967D03*
X182767738Y-762995079D03*
X183470682Y-761298023D03*
%TD*%
D17*
%TO.C,SW301*%
X419680682Y-750368023D03*
X424680682Y-750368023D03*
D18*
X419680682Y-745368023D03*
X424680682Y-745368023D03*
X419680682Y-740368023D03*
X424680682Y-740368023D03*
%TD*%
D17*
%TO.C,J203*%
X582919716Y-659329982D03*
X587919716Y-659329982D03*
D18*
X582919716Y-654329982D03*
X587919716Y-654329982D03*
X582919716Y-649329982D03*
X587919716Y-649329982D03*
%TD*%
D11*
%TO.C,H108*%
X88300682Y-755374689D03*
X89003626Y-753677633D03*
X89003626Y-757071745D03*
X90700682Y-752974689D03*
D12*
X90700682Y-755374689D03*
D11*
X90700682Y-757774689D03*
X92397738Y-753677633D03*
X92397738Y-757071745D03*
X93100682Y-755374689D03*
%TD*%
D17*
%TO.C,RV301*%
X301235682Y-763010523D03*
X306235682Y-763010523D03*
D18*
X301235682Y-758010523D03*
X306235682Y-758010523D03*
X301235682Y-753010523D03*
X306235682Y-753010523D03*
%TD*%
D11*
%TO.C,H108*%
X88320682Y-615373023D03*
X89023626Y-613675967D03*
X89023626Y-617070079D03*
X90720682Y-612973023D03*
D12*
X90720682Y-615373023D03*
D11*
X90720682Y-617773023D03*
X92417738Y-613675967D03*
X92417738Y-617070079D03*
X93120682Y-615373023D03*
%TD*%
D15*
%TO.C,J115*%
X960539716Y-686109982D03*
D16*
X960539716Y-683569982D03*
X957999716Y-686109982D03*
X957999716Y-683569982D03*
X955459716Y-686109982D03*
X955459716Y-683569982D03*
X952919716Y-686109982D03*
X952919716Y-683569982D03*
X950379716Y-686109982D03*
X950379716Y-683569982D03*
%TD*%
D11*
%TO.C,H159*%
X388150682Y-307058022D03*
X388853626Y-305360966D03*
X388853626Y-308755078D03*
X390550682Y-304658022D03*
D12*
X390550682Y-307058022D03*
D11*
X390550682Y-309458022D03*
X392247738Y-305360966D03*
X392247738Y-308755078D03*
X392950682Y-307058022D03*
%TD*%
D13*
%TO.C,J508*%
X265470682Y-539623023D03*
X265470682Y-544623023D03*
D14*
X270470682Y-539623023D03*
X270470682Y-544623023D03*
%TD*%
D11*
%TO.C,H108*%
X138320682Y-564539689D03*
X139023626Y-562842633D03*
X139023626Y-566236745D03*
X140720682Y-562139689D03*
D12*
X140720682Y-564539689D03*
D11*
X140720682Y-566939689D03*
X142417738Y-562842633D03*
X142417738Y-566236745D03*
X143120682Y-564539689D03*
%TD*%
%TO.C,H173*%
X498150682Y-251224689D03*
X498853626Y-249527633D03*
X498853626Y-252921745D03*
X500550682Y-248824689D03*
D12*
X500550682Y-251224689D03*
D11*
X500550682Y-253624689D03*
X502247738Y-249527633D03*
X502247738Y-252921745D03*
X502950682Y-251224689D03*
%TD*%
D13*
%TO.C,J504*%
X108260682Y-669798023D03*
X108260682Y-674798023D03*
D14*
X113260682Y-669798023D03*
X113260682Y-674798023D03*
%TD*%
D11*
%TO.C,H278*%
X894500000Y-507050000D03*
X895202944Y-505352944D03*
X895202944Y-508747056D03*
X896900000Y-504650000D03*
D12*
X896900000Y-507050000D03*
D11*
X896900000Y-509450000D03*
X898597056Y-505352944D03*
X898597056Y-508747056D03*
X899300000Y-507050000D03*
%TD*%
D15*
%TO.C,J118*%
X622409716Y-703309982D03*
D16*
X624949716Y-703309982D03*
X622409716Y-705849982D03*
X624949716Y-705849982D03*
X622409716Y-708389982D03*
X624949716Y-708389982D03*
X622409716Y-710929982D03*
X624949716Y-710929982D03*
X622409716Y-713469982D03*
X624949716Y-713469982D03*
X622409716Y-716009982D03*
X624949716Y-716009982D03*
X622409716Y-718549982D03*
X624949716Y-718549982D03*
X622409716Y-721089982D03*
X624949716Y-721089982D03*
X622409716Y-723629982D03*
X624949716Y-723629982D03*
X622409716Y-726169982D03*
X624949716Y-726169982D03*
X622409716Y-728709982D03*
X624949716Y-728709982D03*
X622409716Y-731249982D03*
X624949716Y-731249982D03*
X622409716Y-733789982D03*
X624949716Y-733789982D03*
X622409716Y-736329982D03*
X624949716Y-736329982D03*
X622409716Y-738869982D03*
X624949716Y-738869982D03*
X622409716Y-741409982D03*
X624949716Y-741409982D03*
X622409716Y-743949982D03*
X624949716Y-743949982D03*
X622409716Y-746489982D03*
X624949716Y-746489982D03*
X622409716Y-749029982D03*
X624949716Y-749029982D03*
X622409716Y-751569982D03*
X624949716Y-751569982D03*
X622409716Y-754109982D03*
X624949716Y-754109982D03*
X622409716Y-756649982D03*
X624949716Y-756649982D03*
X622409716Y-759189982D03*
X624949716Y-759189982D03*
X622409716Y-761729982D03*
X624949716Y-761729982D03*
X622409716Y-764269982D03*
X624949716Y-764269982D03*
X622409716Y-766809982D03*
X624949716Y-766809982D03*
X622409716Y-769349982D03*
X624949716Y-769349982D03*
X622409716Y-771889982D03*
X624949716Y-771889982D03*
X622409716Y-774429982D03*
X624949716Y-774429982D03*
X622409716Y-776969982D03*
X624949716Y-776969982D03*
X622409716Y-779509982D03*
X624949716Y-779509982D03*
X622409716Y-782049982D03*
X624949716Y-782049982D03*
%TD*%
D20*
%TO.C,TP203*%
X331910682Y-782223023D03*
%TD*%
D11*
%TO.C,H149*%
X328150682Y-307058022D03*
X328853626Y-305360966D03*
X328853626Y-308755078D03*
X330550682Y-304658022D03*
D12*
X330550682Y-307058022D03*
D11*
X330550682Y-309458022D03*
X332247738Y-305360966D03*
X332247738Y-308755078D03*
X332950682Y-307058022D03*
%TD*%
%TO.C,H221*%
X258150682Y-171224689D03*
X258853626Y-169527633D03*
X258853626Y-172921745D03*
X260550682Y-168824689D03*
D12*
X260550682Y-171224689D03*
D11*
X260550682Y-173624689D03*
X262247738Y-169527633D03*
X262247738Y-172921745D03*
X262950682Y-171224689D03*
%TD*%
D13*
%TO.C,J504*%
X228260682Y-669798023D03*
X228260682Y-674798023D03*
D14*
X233260682Y-669798023D03*
X233260682Y-674798023D03*
%TD*%
D11*
%TO.C,H108*%
X558300682Y-643708023D03*
X559003626Y-642010967D03*
X559003626Y-645405079D03*
X560700682Y-641308023D03*
D12*
X560700682Y-643708023D03*
D11*
X560700682Y-646108023D03*
X562397738Y-642010967D03*
X562397738Y-645405079D03*
X563100682Y-643708023D03*
%TD*%
%TO.C,H125*%
X208150682Y-413724689D03*
X208853626Y-412027633D03*
X208853626Y-415421745D03*
X210550682Y-411324689D03*
D12*
X210550682Y-413724689D03*
D11*
X210550682Y-416124689D03*
X212247738Y-412027633D03*
X212247738Y-415421745D03*
X212950682Y-413724689D03*
%TD*%
%TO.C,H172*%
X300320682Y-508706356D03*
X301023626Y-507009300D03*
X301023626Y-510403412D03*
X302720682Y-506306356D03*
D12*
X302720682Y-508706356D03*
D11*
X302720682Y-511106356D03*
X304417738Y-507009300D03*
X304417738Y-510403412D03*
X305120682Y-508706356D03*
%TD*%
D15*
%TO.C,JP202*%
X595789716Y-647319982D03*
D16*
X598329716Y-647319982D03*
%TD*%
D11*
%TO.C,H254*%
X732500000Y-507050000D03*
X733202944Y-505352944D03*
X733202944Y-508747056D03*
X734900000Y-504650000D03*
D12*
X734900000Y-507050000D03*
D11*
X734900000Y-509450000D03*
X736597056Y-505352944D03*
X736597056Y-508747056D03*
X737300000Y-507050000D03*
%TD*%
D17*
%TO.C,J119*%
X460730682Y-722398023D03*
X465730682Y-722398023D03*
D18*
X460730682Y-717398023D03*
X465730682Y-717398023D03*
%TD*%
D11*
%TO.C,H203*%
X462320682Y-564539689D03*
X463023626Y-562842633D03*
X463023626Y-566236745D03*
X464720682Y-562139689D03*
D12*
X464720682Y-564539689D03*
D11*
X464720682Y-566939689D03*
X466417738Y-562842633D03*
X466417738Y-566236745D03*
X467120682Y-564539689D03*
%TD*%
%TO.C,H108*%
X646500000Y-420750000D03*
X647202944Y-419052944D03*
X647202944Y-422447056D03*
X648900000Y-418350000D03*
D12*
X648900000Y-420750000D03*
D11*
X648900000Y-423150000D03*
X650597056Y-419052944D03*
X650597056Y-422447056D03*
X651300000Y-420750000D03*
%TD*%
%TO.C,H259*%
X769000000Y-586050000D03*
X769702944Y-584352944D03*
X769702944Y-587747056D03*
X771400000Y-583650000D03*
D12*
X771400000Y-586050000D03*
D11*
X771400000Y-588450000D03*
X773097056Y-584352944D03*
X773097056Y-587747056D03*
X773800000Y-586050000D03*
%TD*%
%TO.C,H108*%
X558300682Y-699541356D03*
X559003626Y-697844300D03*
X559003626Y-701238412D03*
X560700682Y-697141356D03*
D12*
X560700682Y-699541356D03*
D11*
X560700682Y-701941356D03*
X562397738Y-697844300D03*
X562397738Y-701238412D03*
X563100682Y-699541356D03*
%TD*%
%TO.C,H280*%
X833902944Y-471997056D03*
X834605888Y-470300000D03*
X834605888Y-473694112D03*
X836302944Y-469597056D03*
D12*
X836302944Y-471997056D03*
D11*
X836302944Y-474397056D03*
X838000000Y-470300000D03*
X838000000Y-473694112D03*
X838702944Y-471997056D03*
%TD*%
D13*
%TO.C,J5*%
X963629716Y-669546648D03*
X963629716Y-674546648D03*
D14*
X968629716Y-669546648D03*
X968629716Y-674546648D03*
%TD*%
D11*
%TO.C,H181*%
X275300682Y-455874689D03*
X276003626Y-454177633D03*
X276003626Y-457571745D03*
X277700682Y-453474689D03*
D12*
X277700682Y-455874689D03*
D11*
X277700682Y-458274689D03*
X279397738Y-454177633D03*
X279397738Y-457571745D03*
X280100682Y-455874689D03*
%TD*%
%TO.C,H115*%
X148150682Y-413724689D03*
X148853626Y-412027633D03*
X148853626Y-415421745D03*
X150550682Y-411324689D03*
D12*
X150550682Y-413724689D03*
D11*
X150550682Y-416124689D03*
X152247738Y-412027633D03*
X152247738Y-415421745D03*
X152950682Y-413724689D03*
%TD*%
%TO.C,H210*%
X200621872Y-423729689D03*
X201324816Y-422032633D03*
X201324816Y-425426745D03*
X203021872Y-421329689D03*
D12*
X203021872Y-423729689D03*
D11*
X203021872Y-426129689D03*
X204718928Y-422032633D03*
X204718928Y-425426745D03*
X205421872Y-423729689D03*
%TD*%
D13*
%TO.C,J503*%
X243410682Y-669798023D03*
X243410682Y-674798023D03*
D14*
X248410682Y-669798023D03*
X248410682Y-674798023D03*
%TD*%
D11*
%TO.C,H261*%
X769000000Y-548050000D03*
X769702944Y-546352944D03*
X769702944Y-549747056D03*
X771400000Y-545650000D03*
D12*
X771400000Y-548050000D03*
D11*
X771400000Y-550450000D03*
X773097056Y-546352944D03*
X773097056Y-549747056D03*
X773800000Y-548050000D03*
%TD*%
D13*
%TO.C,J504*%
X348260682Y-669798023D03*
X348260682Y-674798023D03*
D14*
X353260682Y-669798023D03*
X353260682Y-674798023D03*
%TD*%
D13*
%TO.C,J512*%
X427470682Y-539623023D03*
X427470682Y-544623023D03*
D14*
X432470682Y-539623023D03*
X432470682Y-544623023D03*
%TD*%
D11*
%TO.C,H134*%
X258150682Y-251224689D03*
X258853626Y-249527633D03*
X258853626Y-252921745D03*
X260550682Y-248824689D03*
D12*
X260550682Y-251224689D03*
D11*
X260550682Y-253624689D03*
X262247738Y-249527633D03*
X262247738Y-252921745D03*
X262950682Y-251224689D03*
%TD*%
%TO.C,H108*%
X1040302944Y-699513315D03*
X1041005888Y-697816259D03*
X1041005888Y-701210371D03*
X1042702944Y-697113315D03*
D12*
X1042702944Y-699513315D03*
D11*
X1042702944Y-701913315D03*
X1044400000Y-697816259D03*
X1044400000Y-701210371D03*
X1045102944Y-699513315D03*
%TD*%
D15*
%TO.C,J110*%
X660909716Y-686019982D03*
D16*
X660909716Y-683479982D03*
X658369716Y-686019982D03*
X658369716Y-683479982D03*
X655829716Y-686019982D03*
X655829716Y-683479982D03*
X653289716Y-686019982D03*
X653289716Y-683479982D03*
X650749716Y-686019982D03*
X650749716Y-683479982D03*
%TD*%
D11*
%TO.C,H108*%
X1040302944Y-643679982D03*
X1041005888Y-641982926D03*
X1041005888Y-645377038D03*
X1042702944Y-641279982D03*
D12*
X1042702944Y-643679982D03*
D11*
X1042702944Y-646079982D03*
X1044400000Y-641982926D03*
X1044400000Y-645377038D03*
X1045102944Y-643679982D03*
%TD*%
%TO.C,H108*%
X248300682Y-699541356D03*
X249003626Y-697844300D03*
X249003626Y-701238412D03*
X250700682Y-697141356D03*
D12*
X250700682Y-699541356D03*
D11*
X250700682Y-701941356D03*
X252397738Y-697844300D03*
X252397738Y-701238412D03*
X253100682Y-699541356D03*
%TD*%
D13*
%TO.C,J16*%
X663529716Y-669746648D03*
X663529716Y-674746648D03*
D14*
X668529716Y-669746648D03*
X668529716Y-674746648D03*
%TD*%
D15*
%TO.C,J106*%
X419820682Y-685988023D03*
D16*
X419820682Y-683448023D03*
X417280682Y-685988023D03*
X417280682Y-683448023D03*
X414740682Y-685988023D03*
X414740682Y-683448023D03*
X412200682Y-685988023D03*
X412200682Y-683448023D03*
X409660682Y-685988023D03*
X409660682Y-683448023D03*
%TD*%
D17*
%TO.C,SW401*%
X405630682Y-763435523D03*
X400630682Y-763435523D03*
D18*
X405630682Y-768435523D03*
X400630682Y-768435523D03*
%TD*%
D11*
%TO.C,H108*%
X1040302944Y-755346648D03*
X1041005888Y-753649592D03*
X1041005888Y-757043704D03*
X1042702944Y-752946648D03*
D12*
X1042702944Y-755346648D03*
D11*
X1042702944Y-757746648D03*
X1044400000Y-753649592D03*
X1044400000Y-757043704D03*
X1045102944Y-755346648D03*
%TD*%
%TO.C,H129*%
X208150682Y-307058022D03*
X208853626Y-305360966D03*
X208853626Y-308755078D03*
X210550682Y-304658022D03*
D12*
X210550682Y-307058022D03*
D11*
X210550682Y-309458022D03*
X212247738Y-305360966D03*
X212247738Y-308755078D03*
X212950682Y-307058022D03*
%TD*%
%TO.C,H117*%
X148150682Y-362891355D03*
X148853626Y-361194299D03*
X148853626Y-364588411D03*
X150550682Y-360491355D03*
D12*
X150550682Y-362891355D03*
D11*
X150550682Y-365291355D03*
X152247738Y-361194299D03*
X152247738Y-364588411D03*
X152950682Y-362891355D03*
%TD*%
%TO.C,H268*%
X752902944Y-471997056D03*
X753605888Y-470300000D03*
X753605888Y-473694112D03*
X755302944Y-469597056D03*
D12*
X755302944Y-471997056D03*
D11*
X755302944Y-474397056D03*
X757000000Y-470300000D03*
X757000000Y-473694112D03*
X757702944Y-471997056D03*
%TD*%
%TO.C,H167*%
X448150682Y-362891355D03*
X448853626Y-361194299D03*
X448853626Y-364588411D03*
X450550682Y-360491355D03*
D12*
X450550682Y-362891355D03*
D11*
X450550682Y-365291355D03*
X452247738Y-361194299D03*
X452247738Y-364588411D03*
X452950682Y-362891355D03*
%TD*%
%TO.C,H139*%
X268150682Y-307058022D03*
X268853626Y-305360966D03*
X268853626Y-308755078D03*
X270550682Y-304658022D03*
D12*
X270550682Y-307058022D03*
D11*
X270550682Y-309458022D03*
X272247738Y-305360966D03*
X272247738Y-308755078D03*
X272950682Y-307058022D03*
%TD*%
D13*
%TO.C,SW512*%
X346320682Y-578873023D03*
X346320682Y-583873023D03*
D14*
X351320682Y-578873023D03*
X351320682Y-583873023D03*
%TD*%
D17*
%TO.C,U503*%
X285470682Y-568523023D03*
X290470682Y-568523023D03*
D18*
X285470682Y-563523023D03*
X290470682Y-563523023D03*
X285470682Y-558523023D03*
X290470682Y-558523023D03*
X285470682Y-553523023D03*
X290470682Y-553523023D03*
%TD*%
D11*
%TO.C,H262*%
X807000000Y-548050000D03*
X807702944Y-546352944D03*
X807702944Y-549747056D03*
X809400000Y-545650000D03*
D12*
X809400000Y-548050000D03*
D11*
X809400000Y-550450000D03*
X811097056Y-546352944D03*
X811097056Y-549747056D03*
X811800000Y-548050000D03*
%TD*%
%TO.C,H271*%
X850000000Y-586050000D03*
X850702944Y-584352944D03*
X850702944Y-587747056D03*
X852400000Y-583650000D03*
D12*
X852400000Y-586050000D03*
D11*
X852400000Y-588450000D03*
X854097056Y-584352944D03*
X854097056Y-587747056D03*
X854800000Y-586050000D03*
%TD*%
%TO.C,H243*%
X660950000Y-472050000D03*
X661652944Y-470352944D03*
X661652944Y-473747056D03*
X663350000Y-469650000D03*
D12*
X663350000Y-472050000D03*
D11*
X663350000Y-474450000D03*
X665047056Y-470352944D03*
X665047056Y-473747056D03*
X665750000Y-472050000D03*
%TD*%
%TO.C,H218*%
X148150682Y-171224689D03*
X148853626Y-169527633D03*
X148853626Y-172921745D03*
X150550682Y-168824689D03*
D12*
X150550682Y-171224689D03*
D11*
X150550682Y-173624689D03*
X152247738Y-169527633D03*
X152247738Y-172921745D03*
X152950682Y-171224689D03*
%TD*%
D13*
%TO.C,SW501*%
X112820682Y-597623023D03*
X112820682Y-602623023D03*
D14*
X117820682Y-597623023D03*
X117820682Y-602623023D03*
%TD*%
D11*
%TO.C,H108*%
X138320682Y-508706356D03*
X139023626Y-507009300D03*
X139023626Y-510403412D03*
X140720682Y-506306356D03*
D12*
X140720682Y-508706356D03*
D11*
X140720682Y-511106356D03*
X142417738Y-507009300D03*
X142417738Y-510403412D03*
X143120682Y-508706356D03*
%TD*%
%TO.C,H144*%
X250320682Y-615373023D03*
X251023626Y-613675967D03*
X251023626Y-617070079D03*
X252720682Y-612973023D03*
D12*
X252720682Y-615373023D03*
D11*
X252720682Y-617773023D03*
X254417738Y-613675967D03*
X254417738Y-617070079D03*
X255120682Y-615373023D03*
%TD*%
%TO.C,H148*%
X378150682Y-362891355D03*
X378853626Y-361194299D03*
X378853626Y-364588411D03*
X380550682Y-360491355D03*
D12*
X380550682Y-362891355D03*
D11*
X380550682Y-365291355D03*
X382247738Y-361194299D03*
X382247738Y-364588411D03*
X382950682Y-362891355D03*
%TD*%
D15*
%TO.C,JP201*%
X113775682Y-646808023D03*
D16*
X116315682Y-646808023D03*
%TD*%
D13*
%TO.C,J14*%
X603529716Y-669846648D03*
X603529716Y-674846648D03*
D14*
X608529716Y-669846648D03*
X608529716Y-674846648D03*
%TD*%
D13*
%TO.C,J504*%
X468260682Y-669798023D03*
X468260682Y-674798023D03*
D14*
X473260682Y-669798023D03*
X473260682Y-674798023D03*
%TD*%
D11*
%TO.C,H127*%
X208150682Y-362891355D03*
X208853626Y-361194299D03*
X208853626Y-364588411D03*
X210550682Y-360491355D03*
D12*
X210550682Y-362891355D03*
D11*
X210550682Y-365291355D03*
X212247738Y-361194299D03*
X212247738Y-364588411D03*
X212950682Y-362891355D03*
%TD*%
%TO.C,H108*%
X519500000Y-507050000D03*
X520202944Y-505352944D03*
X520202944Y-508747056D03*
X521900000Y-504650000D03*
D12*
X521900000Y-507050000D03*
D11*
X521900000Y-509450000D03*
X523597056Y-505352944D03*
X523597056Y-508747056D03*
X524300000Y-507050000D03*
%TD*%
%TO.C,H279*%
X903950000Y-472050000D03*
X904652944Y-470352944D03*
X904652944Y-473747056D03*
X906350000Y-469650000D03*
D12*
X906350000Y-472050000D03*
D11*
X906350000Y-474450000D03*
X908047056Y-470352944D03*
X908047056Y-473747056D03*
X908750000Y-472050000D03*
%TD*%
D13*
%TO.C,J6*%
X948679716Y-669546648D03*
X948679716Y-674546648D03*
D14*
X953679716Y-669546648D03*
X953679716Y-674546648D03*
%TD*%
D11*
%TO.C,H156*%
X438150682Y-413724689D03*
X438853626Y-412027633D03*
X438853626Y-415421745D03*
X440550682Y-411324689D03*
D12*
X440550682Y-413724689D03*
D11*
X440550682Y-416124689D03*
X442247738Y-412027633D03*
X442247738Y-415421745D03*
X442950682Y-413724689D03*
%TD*%
D15*
%TO.C,J113*%
X840889716Y-686119982D03*
D16*
X840889716Y-683579982D03*
X838349716Y-686119982D03*
X838349716Y-683579982D03*
X835809716Y-686119982D03*
X835809716Y-683579982D03*
X833269716Y-686119982D03*
X833269716Y-683579982D03*
X830729716Y-686119982D03*
X830729716Y-683579982D03*
%TD*%
D13*
%TO.C,SW507*%
X274820682Y-597623023D03*
X274820682Y-602623023D03*
D14*
X279820682Y-597623023D03*
X279820682Y-602623023D03*
%TD*%
D15*
%TO.C,J505*%
X190640682Y-611998023D03*
D16*
X190640682Y-609458023D03*
X193180682Y-611998023D03*
X193180682Y-609458023D03*
X195720682Y-611998023D03*
X195720682Y-609458023D03*
X198260682Y-611998023D03*
X198260682Y-609458023D03*
X200800682Y-611998023D03*
X200800682Y-609458023D03*
%TD*%
D21*
%TO.C,RV502*%
X192910682Y-588123023D03*
X200410682Y-588123023D03*
X192910682Y-522123023D03*
X200410682Y-522123023D03*
X197910682Y-590123023D03*
X200410682Y-590123023D03*
X197910682Y-520123023D03*
X192910682Y-590123023D03*
X195410682Y-590123023D03*
D22*
X196660682Y-580123023D03*
X196660682Y-532623023D03*
D21*
X192910682Y-520123023D03*
%TD*%
%TO.C,RV503*%
X273910682Y-588123023D03*
X281410682Y-588123023D03*
X273910682Y-522123023D03*
X281410682Y-522123023D03*
X278910682Y-590123023D03*
X281410682Y-590123023D03*
X278910682Y-520123023D03*
X273910682Y-590123023D03*
X276410682Y-590123023D03*
D22*
X277660682Y-580123023D03*
X277660682Y-532623023D03*
D21*
X273910682Y-520123023D03*
%TD*%
D23*
%TO.C,D518*%
X438400682Y-513348023D03*
D24*
X440940682Y-513348023D03*
%TD*%
D15*
%TO.C,J511*%
X433640682Y-611998023D03*
D16*
X433640682Y-609458023D03*
X436180682Y-611998023D03*
X436180682Y-609458023D03*
X438720682Y-611998023D03*
X438720682Y-609458023D03*
X441260682Y-611998023D03*
X441260682Y-609458023D03*
X443800682Y-611998023D03*
X443800682Y-609458023D03*
%TD*%
D23*
%TO.C,D514*%
X357400682Y-513348023D03*
D24*
X359940682Y-513348023D03*
%TD*%
D21*
%TO.C,RV501*%
X111910682Y-588123023D03*
X119410682Y-588123023D03*
X111910682Y-522123023D03*
X119410682Y-522123023D03*
X116910682Y-590123023D03*
X119410682Y-590123023D03*
X116910682Y-520123023D03*
X111910682Y-590123023D03*
X114410682Y-590123023D03*
D22*
X115660682Y-580123023D03*
X115660682Y-532623023D03*
D21*
X111910682Y-520123023D03*
%TD*%
D23*
%TO.C,D502*%
X114400682Y-513348023D03*
D24*
X116940682Y-513348023D03*
%TD*%
D15*
%TO.C,J509*%
X352640682Y-611998023D03*
D16*
X352640682Y-609458023D03*
X355180682Y-611998023D03*
X355180682Y-609458023D03*
X357720682Y-611998023D03*
X357720682Y-609458023D03*
X360260682Y-611998023D03*
X360260682Y-609458023D03*
X362800682Y-611998023D03*
X362800682Y-609458023D03*
%TD*%
D23*
%TO.C,D506*%
X195400682Y-513348023D03*
D24*
X197940682Y-513348023D03*
%TD*%
D21*
%TO.C,RV504*%
X354910682Y-588123023D03*
X362410682Y-588123023D03*
X354910682Y-522123023D03*
X362410682Y-522123023D03*
X359910682Y-590123023D03*
X362410682Y-590123023D03*
X359910682Y-520123023D03*
X354910682Y-590123023D03*
X357410682Y-590123023D03*
D22*
X358660682Y-580123023D03*
X358660682Y-532623023D03*
D21*
X354910682Y-520123023D03*
%TD*%
%TO.C,RV505*%
X435910682Y-588123023D03*
X443410682Y-588123023D03*
X435910682Y-522123023D03*
X443410682Y-522123023D03*
X440910682Y-590123023D03*
X443410682Y-590123023D03*
X440910682Y-520123023D03*
X435910682Y-590123023D03*
X438410682Y-590123023D03*
D22*
X439660682Y-580123023D03*
X439660682Y-532623023D03*
D21*
X435910682Y-520123023D03*
%TD*%
D23*
%TO.C,D510*%
X276400682Y-513348023D03*
D24*
X278940682Y-513348023D03*
%TD*%
D15*
%TO.C,J501*%
X109640682Y-611998023D03*
D16*
X109640682Y-609458023D03*
X112180682Y-611998023D03*
X112180682Y-609458023D03*
X114720682Y-611998023D03*
X114720682Y-609458023D03*
X117260682Y-611998023D03*
X117260682Y-609458023D03*
X119800682Y-611998023D03*
X119800682Y-609458023D03*
%TD*%
D15*
%TO.C,J507*%
X271640682Y-611998023D03*
D16*
X271640682Y-609458023D03*
X274180682Y-611998023D03*
X274180682Y-609458023D03*
X276720682Y-611998023D03*
X276720682Y-609458023D03*
X279260682Y-611998023D03*
X279260682Y-609458023D03*
X281800682Y-611998023D03*
X281800682Y-609458023D03*
%TD*%
M02*
