%TF.GenerationSoftware,KiCad,Pcbnew,7.0.8*%
%TF.CreationDate,2023-11-15T12:02:35+01:00*%
%TF.ProjectId,JL,4a4c2e6b-6963-4616-945f-706362585858,rev?*%
%TF.SameCoordinates,Original*%
%TF.FileFunction,Profile,NP*%
%FSLAX46Y46*%
G04 Gerber Fmt 4.6, Leading zero omitted, Abs format (unit mm)*
G04 Created by KiCad (PCBNEW 7.0.8) date 2023-11-15 12:02:35*
%MOMM*%
%LPD*%
G01*
G04 APERTURE LIST*
%TA.AperFunction,Profile*%
%ADD10C,0.150000*%
%TD*%
%TA.AperFunction,Profile*%
%ADD11C,0.100000*%
%TD*%
%TA.AperFunction,Profile*%
%ADD12C,0.200000*%
%TD*%
%TA.AperFunction,Profile*%
%ADD13C,0.050000*%
%TD*%
G04 APERTURE END LIST*
D10*
X255852082Y-191174689D02*
G75*
G03*
X255852082Y-191174689I-6251400J0D01*
G01*
D11*
X75544030Y-423742161D02*
X75559094Y-161273474D01*
X567785818Y-806170007D02*
X567800883Y-643701316D01*
D12*
X512437529Y-467022161D02*
G75*
G03*
X507437222Y-472043785I19671J-5019939D01*
G01*
D11*
X145713462Y-615330907D02*
X145728526Y-452862216D01*
X570534343Y-428757531D02*
X80565657Y-428742468D01*
D12*
X171700989Y-447853120D02*
G75*
G03*
X166700682Y-452874689I19611J-5019880D01*
G01*
X825412471Y-606977839D02*
G75*
G03*
X830412778Y-601956215I-19671J5019939D01*
G01*
D10*
X641778128Y-350770311D02*
G75*
G03*
X641778128Y-350770311I-3800000J0D01*
G01*
D11*
X85700682Y-452874689D02*
X85722837Y-615337162D01*
D12*
X567785825Y-806170007D02*
G75*
G03*
X572807445Y-811170314I5019975J19707D01*
G01*
X593437529Y-467022161D02*
G75*
G03*
X588437222Y-472043785I19671J-5019939D01*
G01*
D11*
X90744464Y-620337469D02*
X140713155Y-620352534D01*
D10*
X287852082Y-191174689D02*
G75*
G03*
X287852082Y-191174689I-6251400J0D01*
G01*
D12*
X90738209Y-638696841D02*
G75*
G03*
X85737902Y-643718471I19691J-5019959D01*
G01*
D11*
X744406215Y-467037222D02*
X674437529Y-467022158D01*
X85722837Y-806187162D02*
X85737902Y-643718471D01*
D10*
X567400000Y-507050000D02*
G75*
G03*
X567400000Y-507050000I-20000000J0D01*
G01*
D12*
X85722870Y-806187162D02*
G75*
G03*
X90744464Y-811187469I5019930J19662D01*
G01*
D10*
X467852082Y-191174689D02*
G75*
G03*
X467852082Y-191174689I-6251400J0D01*
G01*
D11*
X328700682Y-452874689D02*
X328722837Y-615337162D01*
D12*
X648899693Y-425771562D02*
G75*
G03*
X653900000Y-420750000I-19593J5019862D01*
G01*
D11*
X593493784Y-607012778D02*
X663412471Y-606977842D01*
D12*
X464713155Y-620352524D02*
G75*
G03*
X469713462Y-615330907I-19655J5019924D01*
G01*
D10*
X481850000Y-226300000D02*
G75*
G03*
X481850000Y-226300000I-6500000J0D01*
G01*
D11*
X830412778Y-601956215D02*
X830427842Y-472037529D01*
D12*
X572801190Y-638679622D02*
G75*
G03*
X567800883Y-643701316I19710J-5019978D01*
G01*
D11*
X464706899Y-447861909D02*
X414700989Y-447853062D01*
X911412778Y-601956215D02*
X911427842Y-472037529D01*
D10*
X234050682Y-319724689D02*
X237050682Y-319724689D01*
X237050682Y-386724689D01*
X234050682Y-386724689D01*
X234050682Y-319724689D01*
D12*
X383713155Y-620352524D02*
G75*
G03*
X388713462Y-615330907I-19655J5019924D01*
G01*
X307728552Y-452862216D02*
G75*
G03*
X302706899Y-447861909I-5019952J-19684D01*
G01*
D10*
X616201400Y-400750000D02*
G75*
G03*
X616201400Y-400750000I-6251400J0D01*
G01*
X358532348Y-311626355D02*
G75*
G03*
X358532348Y-311626355I-3001666J0D01*
G01*
D12*
X75544071Y-423742161D02*
G75*
G03*
X80565657Y-428742468I5019929J19661D01*
G01*
D10*
X891400000Y-507050000D02*
G75*
G03*
X891400000Y-507050000I-20000000J0D01*
G01*
D11*
X674493784Y-607012778D02*
X744412471Y-606977842D01*
D12*
X166722770Y-615337162D02*
G75*
G03*
X171744464Y-620337469I5020030J19762D01*
G01*
D11*
X307713462Y-615330907D02*
X307728526Y-452862216D01*
D12*
X653871661Y-330800307D02*
G75*
G03*
X648850000Y-325800000I-5020061J-19793D01*
G01*
X588472161Y-602012471D02*
G75*
G03*
X593493784Y-607012778I5020039J19771D01*
G01*
X830427840Y-472037529D02*
G75*
G03*
X825406215Y-467037222I-5019840J-19571D01*
G01*
D11*
X247700682Y-452874689D02*
X247722837Y-615337162D01*
X836493784Y-607012778D02*
X906412471Y-606977842D01*
X572801190Y-638679689D02*
X1042769881Y-638694754D01*
D10*
X892902093Y-567050000D02*
G75*
G03*
X892902093Y-567050000I-21502093J0D01*
G01*
X114050682Y-319724689D02*
X117050682Y-319724689D01*
X117050682Y-386724689D01*
X114050682Y-386724689D01*
X114050682Y-319724689D01*
D12*
X388728552Y-452862216D02*
G75*
G03*
X383706899Y-447861909I-5019952J-19684D01*
G01*
D10*
X407852082Y-191174689D02*
G75*
G03*
X407852082Y-191174689I-6251400J0D01*
G01*
X121850000Y-226300000D02*
G75*
G03*
X121850000Y-226300000I-6500000J0D01*
G01*
D11*
X587412778Y-601956215D02*
X587427842Y-472037529D01*
D10*
X178532348Y-311626355D02*
G75*
G03*
X178532348Y-311626355I-3001666J0D01*
G01*
D12*
X414700989Y-447853120D02*
G75*
G03*
X409700682Y-452874689I19611J-5019880D01*
G01*
X1047791508Y-643695061D02*
G75*
G03*
X1042769881Y-638694754I-5019908J-19639D01*
G01*
D10*
X649902093Y-567050000D02*
G75*
G03*
X649902093Y-567050000I-21502093J0D01*
G01*
X167852082Y-191174689D02*
G75*
G03*
X167852082Y-191174689I-6251400J0D01*
G01*
X118532348Y-311626355D02*
G75*
G03*
X118532348Y-311626355I-3001666J0D01*
G01*
D11*
X669437222Y-472043785D02*
X669472157Y-602012471D01*
D10*
X361850000Y-226300000D02*
G75*
G03*
X361850000Y-226300000I-6500000J0D01*
G01*
D12*
X663412471Y-606977839D02*
G75*
G03*
X668412778Y-601956215I-19671J5019939D01*
G01*
X140713155Y-620352524D02*
G75*
G03*
X145713462Y-615330907I-19655J5019924D01*
G01*
X582412471Y-606977839D02*
G75*
G03*
X587412778Y-601956215I-19671J5019939D01*
G01*
X302713155Y-620352524D02*
G75*
G03*
X307713462Y-615330907I-19655J5019924D01*
G01*
X560713155Y-811202524D02*
G75*
G03*
X565713462Y-806180907I-19655J5019924D01*
G01*
D11*
X750437222Y-472043785D02*
X750472157Y-602012471D01*
X598887529Y-325822157D02*
X648850000Y-325800000D01*
D12*
X750472161Y-602012471D02*
G75*
G03*
X755493784Y-607012778I5020039J19771D01*
G01*
D10*
X107852082Y-191174689D02*
G75*
G03*
X107852082Y-191174689I-6251400J0D01*
G01*
D12*
X598887529Y-325822161D02*
G75*
G03*
X593887222Y-330843784I19671J-5019939D01*
G01*
X226728552Y-452862216D02*
G75*
G03*
X221706899Y-447861909I-5019952J-19684D01*
G01*
D10*
X648400000Y-507050000D02*
G75*
G03*
X648400000Y-507050000I-20000000J0D01*
G01*
X298532348Y-311626355D02*
G75*
G03*
X298532348Y-311626355I-3001666J0D01*
G01*
D12*
X145728552Y-452862216D02*
G75*
G03*
X140706899Y-447861909I-5019952J-19684D01*
G01*
D11*
X226713462Y-615330907D02*
X226728526Y-452862216D01*
X469713462Y-615330907D02*
X469728526Y-452862216D01*
X906406215Y-467037222D02*
X836437529Y-467022158D01*
X588437222Y-472043785D02*
X588472157Y-602012471D01*
D10*
X729400000Y-507050000D02*
G75*
G03*
X729400000Y-507050000I-20000000J0D01*
G01*
D12*
X85722870Y-615337162D02*
G75*
G03*
X90744464Y-620337469I5019930J19662D01*
G01*
D11*
X1042776136Y-811185379D02*
X572807445Y-811170314D01*
D12*
X252700989Y-447853120D02*
G75*
G03*
X247700682Y-452874689I19611J-5019880D01*
G01*
X575549651Y-161267218D02*
G75*
G03*
X570528087Y-156266911I-5019851J-19582D01*
G01*
X1042776136Y-811185304D02*
G75*
G03*
X1047776443Y-806163752I-19736J5020004D01*
G01*
X836437529Y-467022161D02*
G75*
G03*
X831437222Y-472043785I19671J-5019939D01*
G01*
X328722770Y-615337162D02*
G75*
G03*
X333744464Y-620337469I5020030J19762D01*
G01*
D10*
X811902093Y-567050000D02*
G75*
G03*
X811902093Y-567050000I-21502093J0D01*
G01*
D12*
X831472161Y-602012471D02*
G75*
G03*
X836493784Y-607012778I5020039J19771D01*
G01*
D10*
X347852082Y-191174689D02*
G75*
G03*
X347852082Y-191174689I-6251400J0D01*
G01*
D11*
X80559401Y-156251847D02*
X570528087Y-156266911D01*
X302706899Y-447861909D02*
X252700989Y-447853062D01*
D12*
X570534343Y-428757512D02*
G75*
G03*
X575534650Y-423735904I-19643J5019912D01*
G01*
D10*
X301850000Y-226300000D02*
G75*
G03*
X301850000Y-226300000I-6500000J0D01*
G01*
D11*
X1047791508Y-643695061D02*
X1047776443Y-806163752D01*
D12*
X409722770Y-615337162D02*
G75*
G03*
X414744464Y-620337469I5020030J19762D01*
G01*
D11*
X388713462Y-615330907D02*
X388728526Y-452862216D01*
X825406215Y-467037222D02*
X755437529Y-467022158D01*
X383706899Y-447861909D02*
X333700989Y-447853062D01*
D10*
X418532348Y-311626355D02*
G75*
G03*
X418532348Y-311626355I-3001666J0D01*
G01*
D11*
X252744464Y-620337469D02*
X302713155Y-620352534D01*
D12*
X674437529Y-467022161D02*
G75*
G03*
X669437222Y-472043785I19671J-5019939D01*
G01*
X668427840Y-472037529D02*
G75*
G03*
X663406215Y-467037222I-5019840J-19571D01*
G01*
D10*
X478532348Y-311626355D02*
G75*
G03*
X478532348Y-311626355I-3001666J0D01*
G01*
X375852082Y-191174689D02*
G75*
G03*
X375852082Y-191174689I-6251400J0D01*
G01*
D11*
X575534650Y-423735904D02*
X575549714Y-161267218D01*
X512493784Y-607012778D02*
X582412471Y-606977842D01*
D12*
X333700989Y-447853120D02*
G75*
G03*
X328700682Y-452874689I19611J-5019880D01*
G01*
X906412471Y-606977839D02*
G75*
G03*
X911412778Y-601956215I-19671J5019939D01*
G01*
X565728552Y-643712216D02*
G75*
G03*
X560706900Y-638711909I-5019952J-19684D01*
G01*
D11*
X749412778Y-601956215D02*
X749427842Y-472037529D01*
D10*
X730902093Y-567050000D02*
G75*
G03*
X730902093Y-567050000I-21502093J0D01*
G01*
D11*
X409700682Y-452874689D02*
X409722837Y-615337162D01*
X90738209Y-638696844D02*
X560706900Y-638711909D01*
D12*
X221713155Y-620352524D02*
G75*
G03*
X226713462Y-615330907I-19655J5019924D01*
G01*
X749427840Y-472037529D02*
G75*
G03*
X744406215Y-467037222I-5019840J-19571D01*
G01*
D10*
X238532348Y-311626355D02*
G75*
G03*
X238532348Y-311626355I-3001666J0D01*
G01*
X354050682Y-319724689D02*
X357050682Y-319724689D01*
X357050682Y-386724689D01*
X354050682Y-386724689D01*
X354050682Y-319724689D01*
D11*
X507437222Y-472043785D02*
X507472157Y-602012471D01*
D12*
X469728552Y-452862216D02*
G75*
G03*
X464706899Y-447861909I-5019952J-19684D01*
G01*
D11*
X565728527Y-643712216D02*
X565713462Y-806180907D01*
D12*
X669472161Y-602012471D02*
G75*
G03*
X674493784Y-607012778I5020039J19771D01*
G01*
X593922161Y-420762471D02*
G75*
G03*
X598943785Y-425762778I5020039J19771D01*
G01*
D10*
X538532348Y-311626355D02*
G75*
G03*
X538532348Y-311626355I-3001666J0D01*
G01*
D12*
X911427840Y-472037529D02*
G75*
G03*
X906406215Y-467037222I-5019840J-19571D01*
G01*
D10*
X294050682Y-319724689D02*
X297050682Y-319724689D01*
X297050682Y-386724689D01*
X294050682Y-386724689D01*
X294050682Y-319724689D01*
X474050682Y-319724689D02*
X477050682Y-319724689D01*
X477050682Y-386724689D01*
X474050682Y-386724689D01*
X474050682Y-319724689D01*
D11*
X755493784Y-607012778D02*
X825412471Y-606977842D01*
X333744464Y-620337469D02*
X383713155Y-620352534D01*
D12*
X247722770Y-615337162D02*
G75*
G03*
X252744464Y-620337469I5020030J19762D01*
G01*
D10*
X241850000Y-226300000D02*
G75*
G03*
X241850000Y-226300000I-6500000J0D01*
G01*
D11*
X582406215Y-467037222D02*
X512437529Y-467022158D01*
D12*
X755437529Y-467022161D02*
G75*
G03*
X750437222Y-472043785I19671J-5019939D01*
G01*
D10*
X613733388Y-350770311D02*
G75*
G03*
X613733388Y-350770311I-3805260J0D01*
G01*
X495852082Y-191174689D02*
G75*
G03*
X495852082Y-191174689I-6251400J0D01*
G01*
X435852082Y-191174689D02*
G75*
G03*
X435852082Y-191174689I-6251400J0D01*
G01*
D12*
X80559401Y-156251833D02*
G75*
G03*
X75559094Y-161273474I19699J-5019967D01*
G01*
X744412471Y-606977839D02*
G75*
G03*
X749412778Y-601956215I-19671J5019939D01*
G01*
D11*
X560713155Y-811202534D02*
X90744464Y-811187469D01*
X171744464Y-620337469D02*
X221713155Y-620352534D01*
D10*
X421850000Y-226300000D02*
G75*
G03*
X421850000Y-226300000I-6500000J0D01*
G01*
X227852082Y-191174689D02*
G75*
G03*
X227852082Y-191174689I-6251400J0D01*
G01*
D11*
X668412778Y-601956215D02*
X668427842Y-472037529D01*
X663406215Y-467037222D02*
X593437529Y-467022158D01*
D10*
X135852082Y-191174689D02*
G75*
G03*
X135852082Y-191174689I-6251400J0D01*
G01*
D12*
X507472161Y-602012471D02*
G75*
G03*
X512493784Y-607012778I5020039J19771D01*
G01*
D11*
X140706899Y-447861909D02*
X90700989Y-447853062D01*
D10*
X810400000Y-507050000D02*
G75*
G03*
X810400000Y-507050000I-20000000J0D01*
G01*
D12*
X587427840Y-472037529D02*
G75*
G03*
X582406215Y-467037222I-5019840J-19571D01*
G01*
D10*
X541850000Y-226300000D02*
G75*
G03*
X541850000Y-226300000I-6500000J0D01*
G01*
X527852082Y-191174689D02*
G75*
G03*
X527852082Y-191174689I-6251400J0D01*
G01*
D11*
X648899693Y-425771627D02*
X598943785Y-425762778D01*
D10*
X555852082Y-191174689D02*
G75*
G03*
X555852082Y-191174689I-6251400J0D01*
G01*
X181850000Y-226300000D02*
G75*
G03*
X181850000Y-226300000I-6500000J0D01*
G01*
X174050682Y-319724689D02*
X177050682Y-319724689D01*
X177050682Y-386724689D01*
X174050682Y-386724689D01*
X174050682Y-319724689D01*
D11*
X653900000Y-420750000D02*
X653871627Y-330800307D01*
D10*
X534050682Y-319724689D02*
X537050682Y-319724689D01*
X537050682Y-386724689D01*
X534050682Y-386724689D01*
X534050682Y-319724689D01*
D11*
X166700682Y-452874689D02*
X166722837Y-615337162D01*
D12*
X90700989Y-447853021D02*
G75*
G03*
X85700682Y-452874689I19711J-5019979D01*
G01*
D10*
X568902093Y-567050000D02*
G75*
G03*
X568902093Y-567050000I-21502093J0D01*
G01*
D11*
X414744464Y-620337469D02*
X464713155Y-620352534D01*
X831437222Y-472043785D02*
X831472157Y-602012471D01*
D10*
X414050682Y-319724689D02*
X417050682Y-319724689D01*
X417050682Y-386724689D01*
X414050682Y-386724689D01*
X414050682Y-319724689D01*
X315852082Y-191174689D02*
G75*
G03*
X315852082Y-191174689I-6251400J0D01*
G01*
D11*
X593887222Y-330843784D02*
X593922158Y-420762471D01*
D10*
X641700000Y-400750000D02*
G75*
G03*
X641700000Y-400750000I-3750000J0D01*
G01*
X195852082Y-191174689D02*
G75*
G03*
X195852082Y-191174689I-6251400J0D01*
G01*
D11*
X221706899Y-447861909D02*
X171700989Y-447853062D01*
D13*
%TO.C,REF\u002A\u002A*%
X709844681Y-350221175D02*
X709903633Y-399751720D01*
X712700000Y-402450000D02*
X792201720Y-402446367D01*
X792103633Y-347451720D02*
X712542961Y-347424808D01*
X794900000Y-399650000D02*
X794900000Y-350150000D01*
X712542961Y-347424808D02*
G75*
G03*
X709844681Y-350221175I-1J-2699999D01*
G01*
X709903633Y-399751720D02*
G75*
G03*
X712700000Y-402450000I2699999J-1D01*
G01*
X794900000Y-350150000D02*
G75*
G03*
X792103633Y-347451720I-2700000J0D01*
G01*
X792201720Y-402446370D02*
G75*
G03*
X794900000Y-399650000I0J2700000D01*
G01*
%TD*%
M02*
