%TF.GenerationSoftware,KiCad,Pcbnew,7.0.8*%
%TF.CreationDate,2023-11-15T12:02:35+01:00*%
%TF.ProjectId,JL,4a4c2e6b-6963-4616-945f-706362585858,rev?*%
%TF.SameCoordinates,Original*%
%TF.FileFunction,Soldermask,Top*%
%TF.FilePolarity,Negative*%
%FSLAX46Y46*%
G04 Gerber Fmt 4.6, Leading zero omitted, Abs format (unit mm)*
G04 Created by KiCad (PCBNEW 7.0.8) date 2023-11-15 12:02:35*
%MOMM*%
%LPD*%
G01*
G04 APERTURE LIST*
G04 Aperture macros list*
%AMRoundRect*
0 Rectangle with rounded corners*
0 $1 Rounding radius*
0 $2 $3 $4 $5 $6 $7 $8 $9 X,Y pos of 4 corners*
0 Add a 4 corners polygon primitive as box body*
4,1,4,$2,$3,$4,$5,$6,$7,$8,$9,$2,$3,0*
0 Add four circle primitives for the rounded corners*
1,1,$1+$1,$2,$3*
1,1,$1+$1,$4,$5*
1,1,$1+$1,$6,$7*
1,1,$1+$1,$8,$9*
0 Add four rect primitives between the rounded corners*
20,1,$1+$1,$2,$3,$4,$5,0*
20,1,$1+$1,$4,$5,$6,$7,0*
20,1,$1+$1,$6,$7,$8,$9,0*
20,1,$1+$1,$8,$9,$2,$3,0*%
%AMRotRect*
0 Rectangle, with rotation*
0 The origin of the aperture is its center*
0 $1 length*
0 $2 width*
0 $3 Rotation angle, in degrees counterclockwise*
0 Add horizontal line*
21,1,$1,$2,0,0,$3*%
G04 Aperture macros list end*
%ADD10C,2.286000*%
%ADD11RoundRect,0.062500X-0.212132X-0.300520X0.300520X0.212132X0.212132X0.300520X-0.300520X-0.212132X0*%
%ADD12RoundRect,0.062500X0.212132X-0.300520X0.300520X-0.212132X-0.212132X0.300520X-0.300520X0.212132X0*%
%ADD13RotRect,2.650000X3.650000X45.000000*%
%ADD14RoundRect,0.150000X0.150000X-0.825000X0.150000X0.825000X-0.150000X0.825000X-0.150000X-0.825000X0*%
%ADD15C,0.800000*%
%ADD16C,6.400000*%
%ADD17RoundRect,0.250000X-0.625000X0.312500X-0.625000X-0.312500X0.625000X-0.312500X0.625000X0.312500X0*%
%ADD18R,1.500000X3.000000*%
%ADD19O,1.500000X3.000000*%
%ADD20RoundRect,0.150000X-0.150000X0.825000X-0.150000X-0.825000X0.150000X-0.825000X0.150000X0.825000X0*%
%ADD21RoundRect,0.225000X0.375000X-0.225000X0.375000X0.225000X-0.375000X0.225000X-0.375000X-0.225000X0*%
%ADD22RoundRect,0.140000X0.140000X0.170000X-0.140000X0.170000X-0.140000X-0.170000X0.140000X-0.170000X0*%
%ADD23RoundRect,0.250000X0.625000X-0.312500X0.625000X0.312500X-0.625000X0.312500X-0.625000X-0.312500X0*%
%ADD24R,1.700000X1.700000*%
%ADD25O,1.700000X1.700000*%
%ADD26RoundRect,0.250000X-0.475000X0.250000X-0.475000X-0.250000X0.475000X-0.250000X0.475000X0.250000X0*%
%ADD27RoundRect,0.225000X0.225000X0.375000X-0.225000X0.375000X-0.225000X-0.375000X0.225000X-0.375000X0*%
%ADD28RoundRect,0.140000X0.170000X-0.140000X0.170000X0.140000X-0.170000X0.140000X-0.170000X-0.140000X0*%
%ADD29RoundRect,0.250001X-0.462499X-0.624999X0.462499X-0.624999X0.462499X0.624999X-0.462499X0.624999X0*%
%ADD30RoundRect,0.250000X0.475000X-0.250000X0.475000X0.250000X-0.475000X0.250000X-0.475000X-0.250000X0*%
%ADD31RoundRect,0.150000X-0.150000X0.587500X-0.150000X-0.587500X0.150000X-0.587500X0.150000X0.587500X0*%
%ADD32RoundRect,0.250000X2.050000X0.300000X-2.050000X0.300000X-2.050000X-0.300000X2.050000X-0.300000X0*%
%ADD33RoundRect,0.250002X4.449998X5.149998X-4.449998X5.149998X-4.449998X-5.149998X4.449998X-5.149998X0*%
%ADD34R,3.000000X1.500000*%
%ADD35O,3.000000X1.500000*%
%ADD36RoundRect,0.250000X-0.650000X0.412500X-0.650000X-0.412500X0.650000X-0.412500X0.650000X0.412500X0*%
%ADD37RoundRect,0.250000X1.050000X0.550000X-1.050000X0.550000X-1.050000X-0.550000X1.050000X-0.550000X0*%
%ADD38RoundRect,0.250000X-0.412500X-0.650000X0.412500X-0.650000X0.412500X0.650000X-0.412500X0.650000X0*%
%ADD39RoundRect,0.250000X0.250000X0.475000X-0.250000X0.475000X-0.250000X-0.475000X0.250000X-0.475000X0*%
%ADD40RoundRect,0.250000X0.312500X0.625000X-0.312500X0.625000X-0.312500X-0.625000X0.312500X-0.625000X0*%
%ADD41RoundRect,0.250000X-0.250000X-0.475000X0.250000X-0.475000X0.250000X0.475000X-0.250000X0.475000X0*%
%ADD42C,1.803400*%
%ADD43RoundRect,0.140000X-0.170000X0.140000X-0.170000X-0.140000X0.170000X-0.140000X0.170000X0.140000X0*%
%ADD44RoundRect,0.140000X-0.140000X-0.170000X0.140000X-0.170000X0.140000X0.170000X-0.140000X0.170000X0*%
%ADD45RoundRect,0.150000X-0.150000X0.650000X-0.150000X-0.650000X0.150000X-0.650000X0.150000X0.650000X0*%
%ADD46R,3.400000X1.300000*%
%ADD47RoundRect,0.250000X-0.312500X-0.625000X0.312500X-0.625000X0.312500X0.625000X-0.312500X0.625000X0*%
%ADD48R,2.400000X1.600000*%
%ADD49R,2.400000X0.600000*%
%ADD50R,0.500000X0.600000*%
%ADD51R,1.300000X3.400000*%
%ADD52RoundRect,0.250000X-1.950000X-0.700000X1.950000X-0.700000X1.950000X0.700000X-1.950000X0.700000X0*%
%ADD53RoundRect,0.250000X0.750000X-0.400000X0.750000X0.400000X-0.750000X0.400000X-0.750000X-0.400000X0*%
%ADD54RoundRect,0.250000X0.750000X-0.750000X0.750000X0.750000X-0.750000X0.750000X-0.750000X-0.750000X0*%
%ADD55RoundRect,0.250000X0.400000X0.750000X-0.400000X0.750000X-0.400000X-0.750000X0.400000X-0.750000X0*%
%ADD56RoundRect,0.250000X0.750000X0.750000X-0.750000X0.750000X-0.750000X-0.750000X0.750000X-0.750000X0*%
%ADD57RoundRect,0.150000X0.825000X0.150000X-0.825000X0.150000X-0.825000X-0.150000X0.825000X-0.150000X0*%
%ADD58C,2.000000*%
%ADD59RoundRect,0.225000X-0.225000X-0.375000X0.225000X-0.375000X0.225000X0.375000X-0.225000X0.375000X0*%
%ADD60RoundRect,0.250001X-0.624999X0.462499X-0.624999X-0.462499X0.624999X-0.462499X0.624999X0.462499X0*%
%ADD61RoundRect,0.250000X0.550000X-1.050000X0.550000X1.050000X-0.550000X1.050000X-0.550000X-1.050000X0*%
%ADD62RoundRect,0.225000X-0.375000X0.225000X-0.375000X-0.225000X0.375000X-0.225000X0.375000X0.225000X0*%
%ADD63R,1.600000X2.400000*%
%ADD64R,0.600000X2.400000*%
%ADD65R,0.600000X0.500000*%
%ADD66RoundRect,0.150000X-0.825000X-0.150000X0.825000X-0.150000X0.825000X0.150000X-0.825000X0.150000X0*%
%ADD67R,0.250000X0.600000*%
%ADD68R,4.000000X3.200000*%
%ADD69RoundRect,0.250000X-0.300000X-0.300000X0.300000X-0.300000X0.300000X0.300000X-0.300000X0.300000X0*%
%ADD70RoundRect,0.150000X0.150000X-0.650000X0.150000X0.650000X-0.150000X0.650000X-0.150000X-0.650000X0*%
%ADD71RoundRect,0.150000X0.200000X-0.150000X0.200000X0.150000X-0.200000X0.150000X-0.200000X-0.150000X0*%
%ADD72RoundRect,0.250000X-0.550000X1.500000X-0.550000X-1.500000X0.550000X-1.500000X0.550000X1.500000X0*%
%ADD73C,1.700000*%
%ADD74C,2.400000*%
%ADD75R,1.800000X1.800000*%
%ADD76C,1.800000*%
G04 APERTURE END LIST*
D10*
%TO.C,REF\u002A\u002A*%
X712500000Y-350250000D03*
X712700000Y-399750000D03*
X792200000Y-350150000D03*
X792200000Y-399650000D03*
D11*
X727630152Y-373132628D03*
X727983705Y-373486182D03*
X728337259Y-373839735D03*
X728690812Y-374193289D03*
X729044365Y-374546842D03*
X729397919Y-374900395D03*
X729751472Y-375253949D03*
X730105026Y-375607502D03*
D12*
X731094975Y-375607502D03*
X731448529Y-375253949D03*
X731802082Y-374900395D03*
X732155635Y-374546842D03*
X732509189Y-374193289D03*
X732862742Y-373839735D03*
D11*
X732862742Y-372849786D03*
X732509189Y-372496232D03*
X732155635Y-372142679D03*
X731802082Y-371789125D03*
X731448529Y-371435572D03*
X731094975Y-371082019D03*
X730741422Y-370728465D03*
X730387868Y-370374912D03*
D12*
X729397919Y-370374912D03*
X729044365Y-370728465D03*
X728690812Y-371082019D03*
X728337259Y-371435572D03*
X727983705Y-371789125D03*
X727630152Y-372142679D03*
D13*
X730246447Y-372991207D03*
%TD*%
D14*
%TO.C,U409*%
X315060682Y-712998023D03*
X316330682Y-712998023D03*
X317600682Y-712998023D03*
X318870682Y-712998023D03*
X320140682Y-712998023D03*
X321410682Y-712998023D03*
X322680682Y-712998023D03*
X322680682Y-708048023D03*
X321410682Y-708048023D03*
X320140682Y-708048023D03*
X318870682Y-708048023D03*
X317600682Y-708048023D03*
X316330682Y-708048023D03*
X315060682Y-708048023D03*
%TD*%
D15*
%TO.C,H152*%
X300320682Y-615373023D03*
X301023626Y-613675967D03*
X301023626Y-617070079D03*
X302720682Y-612973023D03*
D16*
X302720682Y-615373023D03*
D15*
X302720682Y-617773023D03*
X304417738Y-613675967D03*
X304417738Y-617070079D03*
X305120682Y-615373023D03*
%TD*%
%TO.C,H267*%
X822950000Y-472050000D03*
X823652944Y-470352944D03*
X823652944Y-473747056D03*
X825350000Y-469650000D03*
D16*
X825350000Y-472050000D03*
D15*
X825350000Y-474450000D03*
X827047056Y-470352944D03*
X827047056Y-473747056D03*
X827750000Y-472050000D03*
%TD*%
%TO.C,H198*%
X381320682Y-452873023D03*
X382023626Y-451175967D03*
X382023626Y-454570079D03*
X383720682Y-450473023D03*
D16*
X383720682Y-452873023D03*
D15*
X383720682Y-455273023D03*
X385417738Y-451175967D03*
X385417738Y-454570079D03*
X386120682Y-452873023D03*
%TD*%
D17*
%TO.C,R515*%
X282420682Y-513135523D03*
X282420682Y-516060523D03*
%TD*%
D18*
%TO.C,J510*%
X346470682Y-539623023D03*
X346470682Y-544623023D03*
D19*
X351470682Y-539623023D03*
X351470682Y-544623023D03*
%TD*%
D20*
%TO.C,U402*%
X361680682Y-745198023D03*
X360410682Y-745198023D03*
X359140682Y-745198023D03*
X357870682Y-745198023D03*
X356600682Y-745198023D03*
X355330682Y-745198023D03*
X354060682Y-745198023D03*
X354060682Y-750148023D03*
X355330682Y-750148023D03*
X356600682Y-750148023D03*
X357870682Y-750148023D03*
X359140682Y-750148023D03*
X360410682Y-750148023D03*
X361680682Y-750148023D03*
%TD*%
D15*
%TO.C,H187*%
X381320682Y-615373023D03*
X382023626Y-613675967D03*
X382023626Y-617070079D03*
X383720682Y-612973023D03*
D16*
X383720682Y-615373023D03*
D15*
X383720682Y-617773023D03*
X385417738Y-613675967D03*
X385417738Y-617070079D03*
X386120682Y-615373023D03*
%TD*%
D18*
%TO.C,J8*%
X888579716Y-669546648D03*
X888579716Y-674546648D03*
D19*
X893579716Y-669546648D03*
X893579716Y-674546648D03*
%TD*%
D15*
%TO.C,H108*%
X890302944Y-755346648D03*
X891005888Y-753649592D03*
X891005888Y-757043704D03*
X892702944Y-752946648D03*
D16*
X892702944Y-755346648D03*
D15*
X892702944Y-757746648D03*
X894400000Y-753649592D03*
X894400000Y-757043704D03*
X895102944Y-755346648D03*
%TD*%
%TO.C,H252*%
X741950000Y-537050000D03*
X742652944Y-535352944D03*
X742652944Y-538747056D03*
X744350000Y-534650000D03*
D16*
X744350000Y-537050000D03*
D15*
X744350000Y-539450000D03*
X746047056Y-535352944D03*
X746047056Y-538747056D03*
X746750000Y-537050000D03*
%TD*%
%TO.C,H258*%
X822950000Y-602050000D03*
X823652944Y-600352944D03*
X823652944Y-603747056D03*
X825350000Y-599650000D03*
D16*
X825350000Y-602050000D03*
D15*
X825350000Y-604450000D03*
X827047056Y-600352944D03*
X827047056Y-603747056D03*
X827750000Y-602050000D03*
%TD*%
%TO.C,H272*%
X888000000Y-586050000D03*
X888702944Y-584352944D03*
X888702944Y-587747056D03*
X890400000Y-583650000D03*
D16*
X890400000Y-586050000D03*
D15*
X890400000Y-588450000D03*
X892097056Y-584352944D03*
X892097056Y-587747056D03*
X892800000Y-586050000D03*
%TD*%
%TO.C,H235*%
X607000000Y-586050000D03*
X607702944Y-584352944D03*
X607702944Y-587747056D03*
X609400000Y-583650000D03*
D16*
X609400000Y-586050000D03*
D15*
X609400000Y-588450000D03*
X611097056Y-584352944D03*
X611097056Y-587747056D03*
X611800000Y-586050000D03*
%TD*%
%TO.C,H108*%
X88300682Y-643708023D03*
X89003626Y-642010967D03*
X89003626Y-645405079D03*
X90700682Y-641308023D03*
D16*
X90700682Y-643708023D03*
D15*
X90700682Y-646108023D03*
X92397738Y-642010967D03*
X92397738Y-645405079D03*
X93100682Y-643708023D03*
%TD*%
D14*
%TO.C,U419*%
X391240682Y-713098023D03*
X392510682Y-713098023D03*
X393780682Y-713098023D03*
X395050682Y-713098023D03*
X396320682Y-713098023D03*
X397590682Y-713098023D03*
X398860682Y-713098023D03*
X398860682Y-708148023D03*
X397590682Y-708148023D03*
X396320682Y-708148023D03*
X395050682Y-708148023D03*
X393780682Y-708148023D03*
X392510682Y-708148023D03*
X391240682Y-708148023D03*
%TD*%
D15*
%TO.C,H270*%
X903950000Y-602050000D03*
X904652944Y-600352944D03*
X904652944Y-603747056D03*
X906350000Y-599650000D03*
D16*
X906350000Y-602050000D03*
D15*
X906350000Y-604450000D03*
X908047056Y-600352944D03*
X908047056Y-603747056D03*
X908750000Y-602050000D03*
%TD*%
%TO.C,H266*%
X813500000Y-507050000D03*
X814202944Y-505352944D03*
X814202944Y-508747056D03*
X815900000Y-504650000D03*
D16*
X815900000Y-507050000D03*
D15*
X815900000Y-509450000D03*
X817597056Y-505352944D03*
X817597056Y-508747056D03*
X818300000Y-507050000D03*
%TD*%
%TO.C,H256*%
X671902944Y-471997056D03*
X672605888Y-470300000D03*
X672605888Y-473694112D03*
X674302944Y-469597056D03*
D16*
X674302944Y-471997056D03*
D15*
X674302944Y-474397056D03*
X676000000Y-470300000D03*
X676000000Y-473694112D03*
X676702944Y-471997056D03*
%TD*%
D21*
%TO.C,D128*%
X775649716Y-693169982D03*
X775649716Y-689869982D03*
%TD*%
D15*
%TO.C,H113*%
X219320682Y-564539689D03*
X220023626Y-562842633D03*
X220023626Y-566236745D03*
X221720682Y-562139689D03*
D16*
X221720682Y-564539689D03*
D15*
X221720682Y-566939689D03*
X223417738Y-562842633D03*
X223417738Y-566236745D03*
X224120682Y-564539689D03*
%TD*%
D22*
%TO.C,C403*%
X319670682Y-714748023D03*
X318710682Y-714748023D03*
%TD*%
D15*
%TO.C,H108*%
X730302944Y-643679982D03*
X731005888Y-641982926D03*
X731005888Y-645377038D03*
X732702944Y-641279982D03*
D16*
X732702944Y-643679982D03*
D15*
X732702944Y-646079982D03*
X734400000Y-641982926D03*
X734400000Y-645377038D03*
X735102944Y-643679982D03*
%TD*%
D21*
%TO.C,D101*%
X114320682Y-693198023D03*
X114320682Y-689898023D03*
%TD*%
%TO.C,D130*%
X895949716Y-693069982D03*
X895949716Y-689769982D03*
%TD*%
D18*
%TO.C,SW509*%
X265320682Y-578873023D03*
X265320682Y-583873023D03*
D19*
X270320682Y-578873023D03*
X270320682Y-583873023D03*
%TD*%
D15*
%TO.C,H108*%
X408300682Y-643708023D03*
X409003626Y-642010967D03*
X409003626Y-645405079D03*
X410700682Y-641308023D03*
D16*
X410700682Y-643708023D03*
D15*
X410700682Y-646108023D03*
X412397738Y-642010967D03*
X412397738Y-645405079D03*
X413100682Y-643708023D03*
%TD*%
D17*
%TO.C,R304*%
X408180682Y-738185523D03*
X408180682Y-741110523D03*
%TD*%
D23*
%TO.C,R513*%
X287820682Y-604823023D03*
X287820682Y-601898023D03*
%TD*%
D21*
%TO.C,D110*%
X181520682Y-693198023D03*
X181520682Y-689898023D03*
%TD*%
D15*
%TO.C,H157*%
X388150682Y-362891355D03*
X388853626Y-361194299D03*
X388853626Y-364588411D03*
X390550682Y-360491355D03*
D16*
X390550682Y-362891355D03*
D15*
X390550682Y-365291355D03*
X392247738Y-361194299D03*
X392247738Y-364588411D03*
X392950682Y-362891355D03*
%TD*%
%TO.C,H108*%
X596500000Y-420750000D03*
X597202944Y-419052944D03*
X597202944Y-422447056D03*
X598900000Y-418350000D03*
D16*
X598900000Y-420750000D03*
D15*
X598900000Y-423150000D03*
X600597056Y-419052944D03*
X600597056Y-422447056D03*
X601300000Y-420750000D03*
%TD*%
D14*
%TO.C,U413*%
X284610682Y-732298023D03*
X285880682Y-732298023D03*
X287150682Y-732298023D03*
X288420682Y-732298023D03*
X289690682Y-732298023D03*
X290960682Y-732298023D03*
X292230682Y-732298023D03*
X292230682Y-727348023D03*
X290960682Y-727348023D03*
X289690682Y-727348023D03*
X288420682Y-727348023D03*
X287150682Y-727348023D03*
X285880682Y-727348023D03*
X284610682Y-727348023D03*
%TD*%
D24*
%TO.C,J105*%
X359720682Y-686088023D03*
D25*
X359720682Y-683548023D03*
X357180682Y-686088023D03*
X357180682Y-683548023D03*
X354640682Y-686088023D03*
X354640682Y-683548023D03*
X352100682Y-686088023D03*
X352100682Y-683548023D03*
X349560682Y-686088023D03*
X349560682Y-683548023D03*
%TD*%
D26*
%TO.C,C511*%
X360320682Y-582548023D03*
X360320682Y-584448023D03*
%TD*%
D15*
%TO.C,H153*%
X378150682Y-251224689D03*
X378853626Y-249527633D03*
X378853626Y-252921745D03*
X380550682Y-248824689D03*
D16*
X380550682Y-251224689D03*
D15*
X380550682Y-253624689D03*
X382247738Y-249527633D03*
X382247738Y-252921745D03*
X382950682Y-251224689D03*
%TD*%
%TO.C,H202*%
X412320682Y-564539689D03*
X413023626Y-562842633D03*
X413023626Y-566236745D03*
X414720682Y-562139689D03*
D16*
X414720682Y-564539689D03*
D15*
X414720682Y-566939689D03*
X416417738Y-562842633D03*
X416417738Y-566236745D03*
X417120682Y-564539689D03*
%TD*%
D18*
%TO.C,J502*%
X103470682Y-539623023D03*
X103470682Y-544623023D03*
D19*
X108470682Y-539623023D03*
X108470682Y-544623023D03*
%TD*%
D15*
%TO.C,H231*%
X558150682Y-171224689D03*
X558853626Y-169527633D03*
X558853626Y-172921745D03*
X560550682Y-168824689D03*
D16*
X560550682Y-171224689D03*
D15*
X560550682Y-173624689D03*
X562247738Y-169527633D03*
X562247738Y-172921745D03*
X562950682Y-171224689D03*
%TD*%
%TO.C,H177*%
X508150682Y-362891355D03*
X508853626Y-361194299D03*
X508853626Y-364588411D03*
X510550682Y-360491355D03*
D16*
X510550682Y-362891355D03*
D15*
X510550682Y-365291355D03*
X512247738Y-361194299D03*
X512247738Y-364588411D03*
X512950682Y-362891355D03*
%TD*%
D27*
%TO.C,D125*%
X437080682Y-733548023D03*
X433780682Y-733548023D03*
%TD*%
D15*
%TO.C,H176*%
X558150682Y-413724689D03*
X558853626Y-412027633D03*
X558853626Y-415421745D03*
X560550682Y-411324689D03*
D16*
X560550682Y-413724689D03*
D15*
X560550682Y-416124689D03*
X562247738Y-412027633D03*
X562247738Y-415421745D03*
X562950682Y-413724689D03*
%TD*%
D21*
%TO.C,D109*%
X120520682Y-693198023D03*
X120520682Y-689898023D03*
%TD*%
D15*
%TO.C,H123*%
X198150682Y-251224689D03*
X198853626Y-249527633D03*
X198853626Y-252921745D03*
X200550682Y-248824689D03*
D16*
X200550682Y-251224689D03*
D15*
X200550682Y-253624689D03*
X202247738Y-249527633D03*
X202247738Y-252921745D03*
X202950682Y-251224689D03*
%TD*%
%TO.C,H161*%
X388150682Y-251224689D03*
X388853626Y-249527633D03*
X388853626Y-252921745D03*
X390550682Y-248824689D03*
D16*
X390550682Y-251224689D03*
D15*
X390550682Y-253624689D03*
X392247738Y-249527633D03*
X392247738Y-252921745D03*
X392950682Y-251224689D03*
%TD*%
%TO.C,H132*%
X194300682Y-455874689D03*
X195003626Y-454177633D03*
X195003626Y-457571745D03*
X196700682Y-453474689D03*
D16*
X196700682Y-455874689D03*
D15*
X196700682Y-458274689D03*
X198397738Y-454177633D03*
X198397738Y-457571745D03*
X199100682Y-455874689D03*
%TD*%
D18*
%TO.C,J503*%
X363410682Y-669798023D03*
X363410682Y-674798023D03*
D19*
X368410682Y-669798023D03*
X368410682Y-674798023D03*
%TD*%
D15*
%TO.C,H136*%
X318150682Y-413724689D03*
X318853626Y-412027633D03*
X318853626Y-415421745D03*
X320550682Y-411324689D03*
D16*
X320550682Y-413724689D03*
D15*
X320550682Y-416124689D03*
X322247738Y-412027633D03*
X322247738Y-415421745D03*
X322950682Y-413724689D03*
%TD*%
%TO.C,H108*%
X248300682Y-643708023D03*
X249003626Y-642010967D03*
X249003626Y-645405079D03*
X250700682Y-641308023D03*
D16*
X250700682Y-643708023D03*
D15*
X250700682Y-646108023D03*
X252397738Y-642010967D03*
X252397738Y-645405079D03*
X253100682Y-643708023D03*
%TD*%
%TO.C,H204*%
X412320682Y-508706356D03*
X413023626Y-507009300D03*
X413023626Y-510403412D03*
X414720682Y-506306356D03*
D16*
X414720682Y-508706356D03*
D15*
X414720682Y-511106356D03*
X416417738Y-507009300D03*
X416417738Y-510403412D03*
X417120682Y-508706356D03*
%TD*%
%TO.C,H236*%
X645000000Y-586050000D03*
X645702944Y-584352944D03*
X645702944Y-587747056D03*
X647400000Y-583650000D03*
D16*
X647400000Y-586050000D03*
D15*
X647400000Y-588450000D03*
X649097056Y-584352944D03*
X649097056Y-587747056D03*
X649800000Y-586050000D03*
%TD*%
%TO.C,H240*%
X660950000Y-537050000D03*
X661652944Y-535352944D03*
X661652944Y-538747056D03*
X663350000Y-534650000D03*
D16*
X663350000Y-537050000D03*
D15*
X663350000Y-539450000D03*
X665047056Y-535352944D03*
X665047056Y-538747056D03*
X665750000Y-537050000D03*
%TD*%
%TO.C,H215*%
X323121872Y-161229689D03*
X323824816Y-159532633D03*
X323824816Y-162926745D03*
X325521872Y-158829689D03*
D16*
X325521872Y-161229689D03*
D15*
X325521872Y-163629689D03*
X327218928Y-159532633D03*
X327218928Y-162926745D03*
X327921872Y-161229689D03*
%TD*%
%TO.C,H108*%
X564000000Y-586050000D03*
X564702944Y-584352944D03*
X564702944Y-587747056D03*
X566400000Y-583650000D03*
D16*
X566400000Y-586050000D03*
D15*
X566400000Y-588450000D03*
X568097056Y-584352944D03*
X568097056Y-587747056D03*
X568800000Y-586050000D03*
%TD*%
D28*
%TO.C,C504*%
X206320682Y-594378023D03*
X206320682Y-593418023D03*
%TD*%
D18*
%TO.C,J15*%
X648429716Y-669846648D03*
X648429716Y-674846648D03*
D19*
X653429716Y-669846648D03*
X653429716Y-674846648D03*
%TD*%
D29*
%TO.C,D204*%
X311798182Y-764223023D03*
X314773182Y-764223023D03*
%TD*%
D15*
%TO.C,H191*%
X568121872Y-335896355D03*
X568824816Y-334199299D03*
X568824816Y-337593411D03*
X570521872Y-333496355D03*
D16*
X570521872Y-335896355D03*
D15*
X570521872Y-338296355D03*
X572218928Y-334199299D03*
X572218928Y-337593411D03*
X572921872Y-335896355D03*
%TD*%
D30*
%TO.C,C205*%
X343160682Y-797748023D03*
X343160682Y-795848023D03*
%TD*%
D15*
%TO.C,H162*%
X300320682Y-564539689D03*
X301023626Y-562842633D03*
X301023626Y-566236745D03*
X302720682Y-562139689D03*
D16*
X302720682Y-564539689D03*
D15*
X302720682Y-566939689D03*
X304417738Y-562842633D03*
X304417738Y-566236745D03*
X305120682Y-564539689D03*
%TD*%
%TO.C,H229*%
X498150682Y-171224689D03*
X498853626Y-169527633D03*
X498853626Y-172921745D03*
X500550682Y-168824689D03*
D16*
X500550682Y-171224689D03*
D15*
X500550682Y-173624689D03*
X502247738Y-169527633D03*
X502247738Y-172921745D03*
X502950682Y-171224689D03*
%TD*%
D31*
%TO.C,Q502*%
X207170682Y-589935523D03*
X205270682Y-589935523D03*
X206220682Y-591810523D03*
%TD*%
D15*
%TO.C,H222*%
X268150682Y-171224689D03*
X268853626Y-169527633D03*
X268853626Y-172921745D03*
X270550682Y-168824689D03*
D16*
X270550682Y-171224689D03*
D15*
X270550682Y-173624689D03*
X272247738Y-169527633D03*
X272247738Y-172921745D03*
X272950682Y-171224689D03*
%TD*%
%TO.C,H185*%
X300320682Y-452873023D03*
X301023626Y-451175967D03*
X301023626Y-454570079D03*
X302720682Y-450473023D03*
D16*
X302720682Y-452873023D03*
D15*
X302720682Y-455273023D03*
X304417738Y-451175967D03*
X304417738Y-454570079D03*
X305120682Y-452873023D03*
%TD*%
D21*
%TO.C,D129*%
X902149716Y-693069982D03*
X902149716Y-689769982D03*
%TD*%
D32*
%TO.C,U202*%
X317510682Y-775838023D03*
D33*
X308360682Y-773298023D03*
D32*
X317510682Y-770758023D03*
%TD*%
D34*
%TO.C,J120*%
X460580682Y-752135523D03*
X465580682Y-752135523D03*
D35*
X460580682Y-747135523D03*
X465580682Y-747135523D03*
%TD*%
D18*
%TO.C,SW514*%
X446720682Y-579123023D03*
X446720682Y-584123023D03*
D19*
X451720682Y-579123023D03*
X451720682Y-584123023D03*
%TD*%
D15*
%TO.C,H143*%
X318150682Y-251224689D03*
X318853626Y-249527633D03*
X318853626Y-252921745D03*
X320550682Y-248824689D03*
D16*
X320550682Y-251224689D03*
D15*
X320550682Y-253624689D03*
X322247738Y-249527633D03*
X322247738Y-252921745D03*
X322950682Y-251224689D03*
%TD*%
D21*
%TO.C,D118*%
X715849716Y-693169982D03*
X715849716Y-689869982D03*
%TD*%
%TO.C,D107*%
X474620682Y-693198023D03*
X474620682Y-689898023D03*
%TD*%
D24*
%TO.C,J109*%
X600949716Y-686019982D03*
D25*
X600949716Y-683479982D03*
X598409716Y-686019982D03*
X598409716Y-683479982D03*
X595869716Y-686019982D03*
X595869716Y-683479982D03*
X593329716Y-686019982D03*
X593329716Y-683479982D03*
X590789716Y-686019982D03*
X590789716Y-683479982D03*
%TD*%
D15*
%TO.C,H247*%
X688000000Y-586050000D03*
X688702944Y-584352944D03*
X688702944Y-587747056D03*
X690400000Y-583650000D03*
D16*
X690400000Y-586050000D03*
D15*
X690400000Y-588450000D03*
X692097056Y-584352944D03*
X692097056Y-587747056D03*
X692800000Y-586050000D03*
%TD*%
D22*
%TO.C,C410*%
X289160682Y-734174689D03*
X288200682Y-734174689D03*
%TD*%
D15*
%TO.C,H200*%
X412320682Y-615373023D03*
X413023626Y-613675967D03*
X413023626Y-617070079D03*
X414720682Y-612973023D03*
D16*
X414720682Y-615373023D03*
D15*
X414720682Y-617773023D03*
X416417738Y-613675967D03*
X416417738Y-617070079D03*
X417120682Y-615373023D03*
%TD*%
%TO.C,H194*%
X78121872Y-423729689D03*
X78824816Y-422032633D03*
X78824816Y-425426745D03*
X80521872Y-421329689D03*
D16*
X80521872Y-423729689D03*
D15*
X80521872Y-426129689D03*
X82218928Y-422032633D03*
X82218928Y-425426745D03*
X82921872Y-423729689D03*
%TD*%
%TO.C,H108*%
X88320682Y-452873023D03*
X89023626Y-451175967D03*
X89023626Y-454570079D03*
X90720682Y-450473023D03*
D16*
X90720682Y-452873023D03*
D15*
X90720682Y-455273023D03*
X92417738Y-451175967D03*
X92417738Y-454570079D03*
X93120682Y-452873023D03*
%TD*%
%TO.C,H108*%
X579950000Y-602050000D03*
X580652944Y-600352944D03*
X580652944Y-603747056D03*
X582350000Y-599650000D03*
D16*
X582350000Y-602050000D03*
D15*
X582350000Y-604450000D03*
X584047056Y-600352944D03*
X584047056Y-603747056D03*
X584750000Y-602050000D03*
%TD*%
D36*
%TO.C,C209*%
X321485682Y-772173023D03*
X321485682Y-775298023D03*
%TD*%
D15*
%TO.C,H226*%
X388150682Y-171224689D03*
X388853626Y-169527633D03*
X388853626Y-172921745D03*
X390550682Y-168824689D03*
D16*
X390550682Y-171224689D03*
D15*
X390550682Y-173624689D03*
X392247738Y-169527633D03*
X392247738Y-172921745D03*
X392950682Y-171224689D03*
%TD*%
%TO.C,H244*%
X590902944Y-471997056D03*
X591605888Y-470300000D03*
X591605888Y-473694112D03*
X593302944Y-469597056D03*
D16*
X593302944Y-471997056D03*
D15*
X593302944Y-474397056D03*
X595000000Y-470300000D03*
X595000000Y-473694112D03*
X595702944Y-471997056D03*
%TD*%
D18*
%TO.C,J7*%
X903979716Y-669546648D03*
X903979716Y-674546648D03*
D19*
X908979716Y-669546648D03*
X908979716Y-674546648D03*
%TD*%
D24*
%TO.C,J104*%
X299780682Y-685788023D03*
D25*
X299780682Y-683248023D03*
X297240682Y-685788023D03*
X297240682Y-683248023D03*
X294700682Y-685788023D03*
X294700682Y-683248023D03*
X292160682Y-685788023D03*
X292160682Y-683248023D03*
X289620682Y-685788023D03*
X289620682Y-683248023D03*
%TD*%
D32*
%TO.C,Q201*%
X310810682Y-787263023D03*
X310810682Y-784723023D03*
D33*
X301660682Y-784723023D03*
D32*
X310810682Y-782183023D03*
%TD*%
D20*
%TO.C,U405*%
X320980682Y-744898023D03*
X319710682Y-744898023D03*
X318440682Y-744898023D03*
X317170682Y-744898023D03*
X315900682Y-744898023D03*
X314630682Y-744898023D03*
X313360682Y-744898023D03*
X313360682Y-749848023D03*
X314630682Y-749848023D03*
X315900682Y-749848023D03*
X317170682Y-749848023D03*
X318440682Y-749848023D03*
X319710682Y-749848023D03*
X320980682Y-749848023D03*
%TD*%
D15*
%TO.C,H163*%
X250320682Y-508706356D03*
X251023626Y-507009300D03*
X251023626Y-510403412D03*
X252720682Y-506306356D03*
D16*
X252720682Y-508706356D03*
D15*
X252720682Y-511106356D03*
X254417738Y-507009300D03*
X254417738Y-510403412D03*
X255120682Y-508706356D03*
%TD*%
%TO.C,H224*%
X328150682Y-171224689D03*
X328853626Y-169527633D03*
X328853626Y-172921745D03*
X330550682Y-168824689D03*
D16*
X330550682Y-171224689D03*
D15*
X330550682Y-173624689D03*
X332247738Y-169527633D03*
X332247738Y-172921745D03*
X332950682Y-171224689D03*
%TD*%
D18*
%TO.C,J2*%
X589479716Y-669746648D03*
X589479716Y-674746648D03*
D19*
X594479716Y-669746648D03*
X594479716Y-674746648D03*
%TD*%
D30*
%TO.C,C515*%
X430970682Y-591623023D03*
X430970682Y-589723023D03*
%TD*%
D15*
%TO.C,H150*%
X378150682Y-307058022D03*
X378853626Y-305360966D03*
X378853626Y-308755078D03*
X380550682Y-304658022D03*
D16*
X380550682Y-307058022D03*
D15*
X380550682Y-309458022D03*
X382247738Y-305360966D03*
X382247738Y-308755078D03*
X382950682Y-307058022D03*
%TD*%
%TO.C,H126*%
X258150682Y-413724689D03*
X258853626Y-412027633D03*
X258853626Y-415421745D03*
X260550682Y-411324689D03*
D16*
X260550682Y-413724689D03*
D15*
X260550682Y-416124689D03*
X262247738Y-412027633D03*
X262247738Y-415421745D03*
X262950682Y-413724689D03*
%TD*%
D34*
%TO.C,J202*%
X101890682Y-659358023D03*
X106890682Y-659358023D03*
D35*
X101890682Y-654358023D03*
X106890682Y-654358023D03*
X101890682Y-649358023D03*
X106890682Y-649358023D03*
%TD*%
D15*
%TO.C,H108*%
X408300682Y-699541356D03*
X409003626Y-697844300D03*
X409003626Y-701238412D03*
X410700682Y-697141356D03*
D16*
X410700682Y-699541356D03*
D15*
X410700682Y-701941356D03*
X412397738Y-697844300D03*
X412397738Y-701238412D03*
X413100682Y-699541356D03*
%TD*%
%TO.C,H108*%
X890302944Y-806179982D03*
X891005888Y-804482926D03*
X891005888Y-807877038D03*
X892702944Y-803779982D03*
D16*
X892702944Y-806179982D03*
D15*
X892702944Y-808579982D03*
X894400000Y-804482926D03*
X894400000Y-807877038D03*
X895102944Y-806179982D03*
%TD*%
D37*
%TO.C,C303*%
X291735682Y-759510523D03*
X288135682Y-759510523D03*
%TD*%
D38*
%TO.C,C207*%
X336410682Y-791798023D03*
X339535682Y-791798023D03*
%TD*%
D15*
%TO.C,H108*%
X730302944Y-806179982D03*
X731005888Y-804482926D03*
X731005888Y-807877038D03*
X732702944Y-803779982D03*
D16*
X732702944Y-806179982D03*
D15*
X732702944Y-808579982D03*
X734400000Y-804482926D03*
X734400000Y-807877038D03*
X735102944Y-806179982D03*
%TD*%
%TO.C,H165*%
X448150682Y-413724689D03*
X448853626Y-412027633D03*
X448853626Y-415421745D03*
X450550682Y-411324689D03*
D16*
X450550682Y-413724689D03*
D15*
X450550682Y-416124689D03*
X452247738Y-412027633D03*
X452247738Y-415421745D03*
X452950682Y-413724689D03*
%TD*%
%TO.C,H193*%
X381320682Y-508706356D03*
X382023626Y-507009300D03*
X382023626Y-510403412D03*
X383720682Y-506306356D03*
D16*
X383720682Y-508706356D03*
D15*
X383720682Y-511106356D03*
X385417738Y-507009300D03*
X385417738Y-510403412D03*
X386120682Y-508706356D03*
%TD*%
D21*
%TO.C,D132*%
X955749716Y-693269982D03*
X955749716Y-689969982D03*
%TD*%
D39*
%TO.C,C202*%
X316185682Y-780048023D03*
X314285682Y-780048023D03*
%TD*%
D24*
%TO.C,J1*%
X311980682Y-800574689D03*
D25*
X309440682Y-800574689D03*
X306900682Y-800574689D03*
X304360682Y-800574689D03*
X301820682Y-800574689D03*
X299280682Y-800574689D03*
%TD*%
D21*
%TO.C,D105*%
X354720682Y-693198023D03*
X354720682Y-689898023D03*
%TD*%
D15*
%TO.C,H186*%
X331320682Y-615373023D03*
X332023626Y-613675967D03*
X332023626Y-617070079D03*
X333720682Y-612973023D03*
D16*
X333720682Y-615373023D03*
D15*
X333720682Y-617773023D03*
X335417738Y-613675967D03*
X335417738Y-617070079D03*
X336120682Y-615373023D03*
%TD*%
D21*
%TO.C,D134*%
X1021949716Y-694069982D03*
X1021949716Y-690769982D03*
%TD*%
%TO.C,D102*%
X175220682Y-693198023D03*
X175220682Y-689898023D03*
%TD*%
D15*
%TO.C,H146*%
X378150682Y-413724689D03*
X378853626Y-412027633D03*
X378853626Y-415421745D03*
X380550682Y-411324689D03*
D16*
X380550682Y-413724689D03*
D15*
X380550682Y-416124689D03*
X382247738Y-412027633D03*
X382247738Y-415421745D03*
X382950682Y-413724689D03*
%TD*%
D38*
%TO.C,C206*%
X336410682Y-795798023D03*
X339535682Y-795798023D03*
%TD*%
D34*
%TO.C,U505*%
X447470682Y-568523023D03*
X452470682Y-568523023D03*
D35*
X447470682Y-563523023D03*
X452470682Y-563523023D03*
X447470682Y-558523023D03*
X452470682Y-558523023D03*
X447470682Y-553523023D03*
X452470682Y-553523023D03*
%TD*%
D34*
%TO.C,U504*%
X366470682Y-568523023D03*
X371470682Y-568523023D03*
D35*
X366470682Y-563523023D03*
X371470682Y-563523023D03*
X366470682Y-558523023D03*
X371470682Y-558523023D03*
X366470682Y-553523023D03*
X371470682Y-553523023D03*
%TD*%
D15*
%TO.C,H108*%
X1040302944Y-806179982D03*
X1041005888Y-804482926D03*
X1041005888Y-807877038D03*
X1042702944Y-803779982D03*
D16*
X1042702944Y-806179982D03*
D15*
X1042702944Y-808579982D03*
X1044400000Y-804482926D03*
X1044400000Y-807877038D03*
X1045102944Y-806179982D03*
%TD*%
%TO.C,H135*%
X268150682Y-413724689D03*
X268853626Y-412027633D03*
X268853626Y-415421745D03*
X270550682Y-411324689D03*
D16*
X270550682Y-413724689D03*
D15*
X270550682Y-416124689D03*
X272247738Y-412027633D03*
X272247738Y-415421745D03*
X272950682Y-413724689D03*
%TD*%
D18*
%TO.C,J503*%
X423410682Y-669798023D03*
X423410682Y-674798023D03*
D19*
X428410682Y-669798023D03*
X428410682Y-674798023D03*
%TD*%
D18*
%TO.C,J504*%
X528260682Y-669798023D03*
X528260682Y-674798023D03*
D19*
X533260682Y-669798023D03*
X533260682Y-674798023D03*
%TD*%
D15*
%TO.C,H166*%
X498150682Y-413724689D03*
X498853626Y-412027633D03*
X498853626Y-415421745D03*
X500550682Y-411324689D03*
D16*
X500550682Y-413724689D03*
D15*
X500550682Y-416124689D03*
X502247738Y-412027633D03*
X502247738Y-415421745D03*
X502950682Y-413724689D03*
%TD*%
%TO.C,H108*%
X138150682Y-362891355D03*
X138853626Y-361194299D03*
X138853626Y-364588411D03*
X140550682Y-360491355D03*
D16*
X140550682Y-362891355D03*
D15*
X140550682Y-365291355D03*
X142247738Y-361194299D03*
X142247738Y-364588411D03*
X142950682Y-362891355D03*
%TD*%
%TO.C,H108*%
X570302944Y-643679982D03*
X571005888Y-641982926D03*
X571005888Y-645377038D03*
X572702944Y-641279982D03*
D16*
X572702944Y-643679982D03*
D15*
X572702944Y-646079982D03*
X574400000Y-641982926D03*
X574400000Y-645377038D03*
X575102944Y-643679982D03*
%TD*%
D18*
%TO.C,SW505*%
X203720682Y-579123023D03*
X203720682Y-584123023D03*
D19*
X208720682Y-579123023D03*
X208720682Y-584123023D03*
%TD*%
D15*
%TO.C,H171*%
X448150682Y-251224689D03*
X448853626Y-249527633D03*
X448853626Y-252921745D03*
X450550682Y-248824689D03*
D16*
X450550682Y-251224689D03*
D15*
X450550682Y-253624689D03*
X452247738Y-249527633D03*
X452247738Y-252921745D03*
X452950682Y-251224689D03*
%TD*%
D40*
%TO.C,R201*%
X290235682Y-795948023D03*
X287310682Y-795948023D03*
%TD*%
D15*
%TO.C,H108*%
X526000000Y-548050000D03*
X526702944Y-546352944D03*
X526702944Y-549747056D03*
X528400000Y-545650000D03*
D16*
X528400000Y-548050000D03*
D15*
X528400000Y-550450000D03*
X530097056Y-546352944D03*
X530097056Y-549747056D03*
X530800000Y-548050000D03*
%TD*%
D31*
%TO.C,Q505*%
X450170682Y-589935523D03*
X448270682Y-589935523D03*
X449220682Y-591810523D03*
%TD*%
%TO.C,Q504*%
X369170682Y-589935523D03*
X367270682Y-589935523D03*
X368220682Y-591810523D03*
%TD*%
D15*
%TO.C,H108*%
X248300682Y-806208023D03*
X249003626Y-804510967D03*
X249003626Y-807905079D03*
X250700682Y-803808023D03*
D16*
X250700682Y-806208023D03*
D15*
X250700682Y-808608023D03*
X252397738Y-804510967D03*
X252397738Y-807905079D03*
X253100682Y-806208023D03*
%TD*%
%TO.C,H108*%
X564000000Y-548050000D03*
X564702944Y-546352944D03*
X564702944Y-549747056D03*
X566400000Y-545650000D03*
D16*
X566400000Y-548050000D03*
D15*
X566400000Y-550450000D03*
X568097056Y-546352944D03*
X568097056Y-549747056D03*
X568800000Y-548050000D03*
%TD*%
D18*
%TO.C,J503*%
X543410682Y-669798023D03*
X543410682Y-674798023D03*
D19*
X548410682Y-669798023D03*
X548410682Y-674798023D03*
%TD*%
D15*
%TO.C,H108*%
X408300682Y-755374689D03*
X409003626Y-753677633D03*
X409003626Y-757071745D03*
X410700682Y-752974689D03*
D16*
X410700682Y-755374689D03*
D15*
X410700682Y-757774689D03*
X412397738Y-753677633D03*
X412397738Y-757071745D03*
X413100682Y-755374689D03*
%TD*%
D21*
%TO.C,D126*%
X446180682Y-724948023D03*
X446180682Y-721648023D03*
%TD*%
%TO.C,D112*%
X300920682Y-693198023D03*
X300920682Y-689898023D03*
%TD*%
D23*
%TO.C,R520*%
X346900682Y-606048023D03*
X346900682Y-603123023D03*
%TD*%
D18*
%TO.C,SW515*%
X427320682Y-578873023D03*
X427320682Y-583873023D03*
D19*
X432320682Y-578873023D03*
X432320682Y-583873023D03*
%TD*%
D41*
%TO.C,C306*%
X416520682Y-755578023D03*
X418420682Y-755578023D03*
%TD*%
D42*
%TO.C,K502*%
X189280682Y-568763023D03*
X181660682Y-568763023D03*
X189280682Y-558603023D03*
X189280682Y-550983023D03*
%TD*%
D27*
%TO.C,D507*%
X208270682Y-597098023D03*
X204970682Y-597098023D03*
%TD*%
D15*
%TO.C,H122*%
X219320682Y-508706356D03*
X220023626Y-507009300D03*
X220023626Y-510403412D03*
X221720682Y-506306356D03*
D16*
X221720682Y-508706356D03*
D15*
X221720682Y-511106356D03*
X223417738Y-507009300D03*
X223417738Y-510403412D03*
X224120682Y-508706356D03*
%TD*%
%TO.C,H108*%
X138150682Y-251224689D03*
X138853626Y-249527633D03*
X138853626Y-252921745D03*
X140550682Y-248824689D03*
D16*
X140550682Y-251224689D03*
D15*
X140550682Y-253624689D03*
X142247738Y-249527633D03*
X142247738Y-252921745D03*
X142950682Y-251224689D03*
%TD*%
D40*
%TO.C,R103*%
X441630682Y-719098023D03*
X438705682Y-719098023D03*
%TD*%
D22*
%TO.C,C419*%
X395520682Y-714948023D03*
X394560682Y-714948023D03*
%TD*%
D18*
%TO.C,SW201*%
X286085682Y-784448023D03*
X286085682Y-789448023D03*
D19*
X291085682Y-784448023D03*
X291085682Y-789448023D03*
%TD*%
D15*
%TO.C,H184*%
X250320682Y-452873023D03*
X251023626Y-451175967D03*
X251023626Y-454570079D03*
X252720682Y-450473023D03*
D16*
X252720682Y-452873023D03*
D15*
X252720682Y-455273023D03*
X254417738Y-451175967D03*
X254417738Y-454570079D03*
X255120682Y-452873023D03*
%TD*%
%TO.C,H151*%
X328150682Y-251224689D03*
X328853626Y-249527633D03*
X328853626Y-252921745D03*
X330550682Y-248824689D03*
D16*
X330550682Y-251224689D03*
D15*
X330550682Y-253624689D03*
X332247738Y-249527633D03*
X332247738Y-252921745D03*
X332950682Y-251224689D03*
%TD*%
%TO.C,H208*%
X412320682Y-452873023D03*
X413023626Y-451175967D03*
X413023626Y-454570079D03*
X414720682Y-450473023D03*
D16*
X414720682Y-452873023D03*
D15*
X414720682Y-455273023D03*
X416417738Y-451175967D03*
X416417738Y-454570079D03*
X417120682Y-452873023D03*
%TD*%
D18*
%TO.C,J17*%
X708429716Y-669646648D03*
X708429716Y-674646648D03*
D19*
X713429716Y-669646648D03*
X713429716Y-674646648D03*
%TD*%
D15*
%TO.C,H108*%
X138320682Y-452873023D03*
X139023626Y-451175967D03*
X139023626Y-454570079D03*
X140720682Y-450473023D03*
D16*
X140720682Y-452873023D03*
D15*
X140720682Y-455273023D03*
X142417738Y-451175967D03*
X142417738Y-454570079D03*
X143120682Y-452873023D03*
%TD*%
D43*
%TO.C,C201*%
X328160682Y-785150523D03*
X328160682Y-786110523D03*
%TD*%
D15*
%TO.C,H263*%
X752950000Y-537050000D03*
X753652944Y-535352944D03*
X753652944Y-538747056D03*
X755350000Y-534650000D03*
D16*
X755350000Y-537050000D03*
D15*
X755350000Y-539450000D03*
X757047056Y-535352944D03*
X757047056Y-538747056D03*
X757750000Y-537050000D03*
%TD*%
D18*
%TO.C,J3*%
X1024279716Y-669446648D03*
X1024279716Y-674446648D03*
D19*
X1029279716Y-669446648D03*
X1029279716Y-674446648D03*
%TD*%
D22*
%TO.C,C415*%
X270320682Y-714748023D03*
X269360682Y-714748023D03*
%TD*%
D39*
%TO.C,C204*%
X316135682Y-766548023D03*
X314235682Y-766548023D03*
%TD*%
D15*
%TO.C,H111*%
X219320682Y-615373023D03*
X220023626Y-613675967D03*
X220023626Y-617070079D03*
X221720682Y-612973023D03*
D16*
X221720682Y-615373023D03*
D15*
X221720682Y-617773023D03*
X223417738Y-613675967D03*
X223417738Y-617070079D03*
X224120682Y-615373023D03*
%TD*%
D21*
%TO.C,D103*%
X234720682Y-693198023D03*
X234720682Y-689898023D03*
%TD*%
D24*
%TO.C,J117*%
X521380682Y-703378023D03*
D25*
X523920682Y-703378023D03*
X521380682Y-705918023D03*
X523920682Y-705918023D03*
X521380682Y-708458023D03*
X523920682Y-708458023D03*
X521380682Y-710998023D03*
X523920682Y-710998023D03*
X521380682Y-713538023D03*
X523920682Y-713538023D03*
X521380682Y-716078023D03*
X523920682Y-716078023D03*
X521380682Y-718618023D03*
X523920682Y-718618023D03*
X521380682Y-721158023D03*
X523920682Y-721158023D03*
X521380682Y-723698023D03*
X523920682Y-723698023D03*
X521380682Y-726238023D03*
X523920682Y-726238023D03*
X521380682Y-728778023D03*
X523920682Y-728778023D03*
X521380682Y-731318023D03*
X523920682Y-731318023D03*
X521380682Y-733858023D03*
X523920682Y-733858023D03*
X521380682Y-736398023D03*
X523920682Y-736398023D03*
X521380682Y-738938023D03*
X523920682Y-738938023D03*
X521380682Y-741478023D03*
X523920682Y-741478023D03*
X521380682Y-744018023D03*
X523920682Y-744018023D03*
X521380682Y-746558023D03*
X523920682Y-746558023D03*
X521380682Y-749098023D03*
X523920682Y-749098023D03*
X521380682Y-751638023D03*
X523920682Y-751638023D03*
X521380682Y-754178023D03*
X523920682Y-754178023D03*
X521380682Y-756718023D03*
X523920682Y-756718023D03*
X521380682Y-759258023D03*
X523920682Y-759258023D03*
X521380682Y-761798023D03*
X523920682Y-761798023D03*
X521380682Y-764338023D03*
X523920682Y-764338023D03*
X521380682Y-766878023D03*
X523920682Y-766878023D03*
X521380682Y-769418023D03*
X523920682Y-769418023D03*
X521380682Y-771958023D03*
X523920682Y-771958023D03*
X521380682Y-774498023D03*
X523920682Y-774498023D03*
X521380682Y-777038023D03*
X523920682Y-777038023D03*
X521380682Y-779578023D03*
X523920682Y-779578023D03*
X521380682Y-782118023D03*
X523920682Y-782118023D03*
%TD*%
D18*
%TO.C,SW508*%
X284720682Y-579123023D03*
X284720682Y-584123023D03*
D19*
X289720682Y-579123023D03*
X289720682Y-584123023D03*
%TD*%
D15*
%TO.C,H190*%
X381320682Y-564539689D03*
X382023626Y-562842633D03*
X382023626Y-566236745D03*
X383720682Y-562139689D03*
D16*
X383720682Y-564539689D03*
D15*
X383720682Y-566939689D03*
X385417738Y-562842633D03*
X385417738Y-566236745D03*
X386120682Y-564539689D03*
%TD*%
D17*
%TO.C,R527*%
X444420682Y-513135523D03*
X444420682Y-516060523D03*
%TD*%
D15*
%TO.C,H225*%
X378150682Y-171224689D03*
X378853626Y-169527633D03*
X378853626Y-172921745D03*
X380550682Y-168824689D03*
D16*
X380550682Y-171224689D03*
D15*
X380550682Y-173624689D03*
X382247738Y-169527633D03*
X382247738Y-172921745D03*
X382950682Y-171224689D03*
%TD*%
%TO.C,H237*%
X607000000Y-548050000D03*
X607702944Y-546352944D03*
X607702944Y-549747056D03*
X609400000Y-545650000D03*
D16*
X609400000Y-548050000D03*
D15*
X609400000Y-550450000D03*
X611097056Y-546352944D03*
X611097056Y-549747056D03*
X611800000Y-548050000D03*
%TD*%
%TO.C,H178*%
X558150682Y-362891355D03*
X558853626Y-361194299D03*
X558853626Y-364588411D03*
X560550682Y-360491355D03*
D16*
X560550682Y-362891355D03*
D15*
X560550682Y-365291355D03*
X562247738Y-361194299D03*
X562247738Y-364588411D03*
X562950682Y-362891355D03*
%TD*%
%TO.C,H201*%
X462320682Y-615373023D03*
X463023626Y-613675967D03*
X463023626Y-617070079D03*
X464720682Y-612973023D03*
D16*
X464720682Y-615373023D03*
D15*
X464720682Y-617773023D03*
X466417738Y-613675967D03*
X466417738Y-617070079D03*
X467120682Y-615373023D03*
%TD*%
D41*
%TO.C,C304*%
X290585682Y-763010523D03*
X292485682Y-763010523D03*
%TD*%
D18*
%TO.C,SW302*%
X273225682Y-754500523D03*
X273225682Y-759500523D03*
D19*
X278225682Y-754500523D03*
X278225682Y-759500523D03*
%TD*%
D23*
%TO.C,R501*%
X125820682Y-604823023D03*
X125820682Y-601898023D03*
%TD*%
D44*
%TO.C,C416*%
X333300682Y-734148023D03*
X334260682Y-734148023D03*
%TD*%
D34*
%TO.C,U501*%
X123470682Y-568523023D03*
X128470682Y-568523023D03*
D35*
X123470682Y-563523023D03*
X128470682Y-563523023D03*
X123470682Y-558523023D03*
X128470682Y-558523023D03*
X123470682Y-553523023D03*
X128470682Y-553523023D03*
%TD*%
D17*
%TO.C,R106*%
X434430682Y-728123023D03*
X434430682Y-731048023D03*
%TD*%
D15*
%TO.C,H239*%
X590950000Y-537050000D03*
X591652944Y-535352944D03*
X591652944Y-538747056D03*
X593350000Y-534650000D03*
D16*
X593350000Y-537050000D03*
D15*
X593350000Y-539450000D03*
X595047056Y-535352944D03*
X595047056Y-538747056D03*
X595750000Y-537050000D03*
%TD*%
D18*
%TO.C,J503*%
X483410682Y-669798023D03*
X483410682Y-674798023D03*
D19*
X488410682Y-669798023D03*
X488410682Y-674798023D03*
%TD*%
D15*
%TO.C,H158*%
X438150682Y-362891355D03*
X438853626Y-361194299D03*
X438853626Y-364588411D03*
X440550682Y-360491355D03*
D16*
X440550682Y-362891355D03*
D15*
X440550682Y-365291355D03*
X442247738Y-361194299D03*
X442247738Y-364588411D03*
X442950682Y-362891355D03*
%TD*%
D26*
%TO.C,C505*%
X198320682Y-582548023D03*
X198320682Y-584448023D03*
%TD*%
D17*
%TO.C,R521*%
X363420682Y-513135523D03*
X363420682Y-516060523D03*
%TD*%
D23*
%TO.C,R523*%
X346970682Y-592348023D03*
X346970682Y-589423023D03*
%TD*%
D14*
%TO.C,U407*%
X373850682Y-751123023D03*
X375120682Y-751123023D03*
X376390682Y-751123023D03*
X377660682Y-751123023D03*
X378930682Y-751123023D03*
X380200682Y-751123023D03*
X381470682Y-751123023D03*
X381470682Y-746173023D03*
X380200682Y-746173023D03*
X378930682Y-746173023D03*
X377660682Y-746173023D03*
X376390682Y-746173023D03*
X375120682Y-746173023D03*
X373850682Y-746173023D03*
%TD*%
D18*
%TO.C,SW504*%
X193820682Y-597623023D03*
X193820682Y-602623023D03*
D19*
X198820682Y-597623023D03*
X198820682Y-602623023D03*
%TD*%
D45*
%TO.C,U404*%
X327430682Y-758048023D03*
X326160682Y-758048023D03*
X324890682Y-758048023D03*
X323620682Y-758048023D03*
X322350682Y-758048023D03*
X321080682Y-758048023D03*
X319810682Y-758048023D03*
X318540682Y-758048023D03*
X318540682Y-764548023D03*
X319810682Y-764548023D03*
X321080682Y-764548023D03*
X322350682Y-764548023D03*
X323620682Y-764548023D03*
X324890682Y-764548023D03*
X326160682Y-764548023D03*
X327430682Y-764548023D03*
%TD*%
D22*
%TO.C,C404*%
X376490682Y-733848023D03*
X375530682Y-733848023D03*
%TD*%
D24*
%TO.C,J116*%
X1020609716Y-686219982D03*
D25*
X1020609716Y-683679982D03*
X1018069716Y-686219982D03*
X1018069716Y-683679982D03*
X1015529716Y-686219982D03*
X1015529716Y-683679982D03*
X1012989716Y-686219982D03*
X1012989716Y-683679982D03*
X1010449716Y-686219982D03*
X1010449716Y-683679982D03*
%TD*%
D27*
%TO.C,D520*%
X429870682Y-571623023D03*
X426570682Y-571623023D03*
%TD*%
D18*
%TO.C,SW513*%
X436820682Y-597623023D03*
X436820682Y-602623023D03*
D19*
X441820682Y-597623023D03*
X441820682Y-602623023D03*
%TD*%
D15*
%TO.C,H108*%
X570302944Y-699513315D03*
X571005888Y-697816259D03*
X571005888Y-701210371D03*
X572702944Y-697113315D03*
D16*
X572702944Y-699513315D03*
D15*
X572702944Y-701913315D03*
X574400000Y-697816259D03*
X574400000Y-701210371D03*
X575102944Y-699513315D03*
%TD*%
%TO.C,H250*%
X726000000Y-548050000D03*
X726702944Y-546352944D03*
X726702944Y-549747056D03*
X728400000Y-545650000D03*
D16*
X728400000Y-548050000D03*
D15*
X728400000Y-550450000D03*
X730097056Y-546352944D03*
X730097056Y-549747056D03*
X730800000Y-548050000D03*
%TD*%
D23*
%TO.C,R504*%
X117020682Y-577760523D03*
X117020682Y-574835523D03*
%TD*%
D15*
%TO.C,H118*%
X198150682Y-362891355D03*
X198853626Y-361194299D03*
X198853626Y-364588411D03*
X200550682Y-360491355D03*
D16*
X200550682Y-362891355D03*
D15*
X200550682Y-365291355D03*
X202247738Y-361194299D03*
X202247738Y-364588411D03*
X202950682Y-362891355D03*
%TD*%
%TO.C,H275*%
X833950000Y-537050000D03*
X834652944Y-535352944D03*
X834652944Y-538747056D03*
X836350000Y-534650000D03*
D16*
X836350000Y-537050000D03*
D15*
X836350000Y-539450000D03*
X838047056Y-535352944D03*
X838047056Y-538747056D03*
X838750000Y-537050000D03*
%TD*%
D43*
%TO.C,C405*%
X393260682Y-728038023D03*
X393260682Y-728998023D03*
%TD*%
D18*
%TO.C,J11*%
X828429716Y-669546648D03*
X828429716Y-674546648D03*
D19*
X833429716Y-669546648D03*
X833429716Y-674546648D03*
%TD*%
D18*
%TO.C,SW511*%
X365720682Y-579123023D03*
X365720682Y-584123023D03*
D19*
X370720682Y-579123023D03*
X370720682Y-584123023D03*
%TD*%
D46*
%TO.C,L201*%
X315985682Y-789760523D03*
X315985682Y-791860523D03*
%TD*%
D18*
%TO.C,SW502*%
X122720682Y-579123023D03*
X122720682Y-584123023D03*
D19*
X127720682Y-579123023D03*
X127720682Y-584123023D03*
%TD*%
D15*
%TO.C,H108*%
X88320682Y-564539689D03*
X89023626Y-562842633D03*
X89023626Y-566236745D03*
X90720682Y-562139689D03*
D16*
X90720682Y-564539689D03*
D15*
X90720682Y-566939689D03*
X92417738Y-562842633D03*
X92417738Y-566236745D03*
X93120682Y-564539689D03*
%TD*%
D21*
%TO.C,D135*%
X435000682Y-723174689D03*
X435000682Y-719874689D03*
%TD*%
D47*
%TO.C,R506*%
X128045682Y-590123023D03*
X130970682Y-590123023D03*
%TD*%
D15*
%TO.C,H230*%
X508150682Y-171224689D03*
X508853626Y-169527633D03*
X508853626Y-172921745D03*
X510550682Y-168824689D03*
D16*
X510550682Y-171224689D03*
D15*
X510550682Y-173624689D03*
X512247738Y-169527633D03*
X512247738Y-172921745D03*
X512950682Y-171224689D03*
%TD*%
%TO.C,H108*%
X408300682Y-806208023D03*
X409003626Y-804510967D03*
X409003626Y-807905079D03*
X410700682Y-803808023D03*
D16*
X410700682Y-806208023D03*
D15*
X410700682Y-808608023D03*
X412397738Y-804510967D03*
X412397738Y-807905079D03*
X413100682Y-806208023D03*
%TD*%
%TO.C,H206*%
X437300682Y-503374689D03*
X438003626Y-501677633D03*
X438003626Y-505071745D03*
X439700682Y-500974689D03*
D16*
X439700682Y-503374689D03*
D15*
X439700682Y-505774689D03*
X441397738Y-501677633D03*
X441397738Y-505071745D03*
X442100682Y-503374689D03*
%TD*%
D36*
%TO.C,C210*%
X324985682Y-772173023D03*
X324985682Y-775298023D03*
%TD*%
D15*
%TO.C,H276*%
X903950000Y-537050000D03*
X904652944Y-535352944D03*
X904652944Y-538747056D03*
X906350000Y-534650000D03*
D16*
X906350000Y-537050000D03*
D15*
X906350000Y-539450000D03*
X908047056Y-535352944D03*
X908047056Y-538747056D03*
X908750000Y-537050000D03*
%TD*%
%TO.C,H108*%
X526000000Y-586050000D03*
X526702944Y-584352944D03*
X526702944Y-587747056D03*
X528400000Y-583650000D03*
D16*
X528400000Y-586050000D03*
D15*
X528400000Y-588450000D03*
X530097056Y-584352944D03*
X530097056Y-587747056D03*
X530800000Y-586050000D03*
%TD*%
%TO.C,H108*%
X138320682Y-615373023D03*
X139023626Y-613675967D03*
X139023626Y-617070079D03*
X140720682Y-612973023D03*
D16*
X140720682Y-615373023D03*
D15*
X140720682Y-617773023D03*
X142417738Y-613675967D03*
X142417738Y-617070079D03*
X143120682Y-615373023D03*
%TD*%
%TO.C,H188*%
X568121872Y-248563022D03*
X568824816Y-246865966D03*
X568824816Y-250260078D03*
X570521872Y-246163022D03*
D16*
X570521872Y-248563022D03*
D15*
X570521872Y-250963022D03*
X572218928Y-246865966D03*
X572218928Y-250260078D03*
X572921872Y-248563022D03*
%TD*%
%TO.C,H233*%
X590950000Y-602050000D03*
X591652944Y-600352944D03*
X591652944Y-603747056D03*
X593350000Y-599650000D03*
D16*
X593350000Y-602050000D03*
D15*
X593350000Y-604450000D03*
X595047056Y-600352944D03*
X595047056Y-603747056D03*
X595750000Y-602050000D03*
%TD*%
D21*
%TO.C,D104*%
X294720682Y-693198023D03*
X294720682Y-689898023D03*
%TD*%
D15*
%TO.C,H108*%
X509950000Y-602050000D03*
X510652944Y-600352944D03*
X510652944Y-603747056D03*
X512350000Y-599650000D03*
D16*
X512350000Y-602050000D03*
D15*
X512350000Y-604450000D03*
X514047056Y-600352944D03*
X514047056Y-603747056D03*
X514750000Y-602050000D03*
%TD*%
%TO.C,H154*%
X250320682Y-564539689D03*
X251023626Y-562842633D03*
X251023626Y-566236745D03*
X252720682Y-562139689D03*
D16*
X252720682Y-564539689D03*
D15*
X252720682Y-566939689D03*
X254417738Y-562842633D03*
X254417738Y-566236745D03*
X255120682Y-564539689D03*
%TD*%
%TO.C,H195*%
X356300682Y-503374689D03*
X357003626Y-501677633D03*
X357003626Y-505071745D03*
X358700682Y-500974689D03*
D16*
X358700682Y-503374689D03*
D15*
X358700682Y-505774689D03*
X360397738Y-501677633D03*
X360397738Y-505071745D03*
X361100682Y-503374689D03*
%TD*%
%TO.C,H108*%
X113300682Y-503374689D03*
X114003626Y-501677633D03*
X114003626Y-505071745D03*
X115700682Y-500974689D03*
D16*
X115700682Y-503374689D03*
D15*
X115700682Y-505774689D03*
X117397738Y-501677633D03*
X117397738Y-505071745D03*
X118100682Y-503374689D03*
%TD*%
%TO.C,H133*%
X169320682Y-452873023D03*
X170023626Y-451175967D03*
X170023626Y-454570079D03*
X171720682Y-450473023D03*
D16*
X171720682Y-452873023D03*
D15*
X171720682Y-455273023D03*
X173417738Y-451175967D03*
X173417738Y-454570079D03*
X174120682Y-452873023D03*
%TD*%
%TO.C,H108*%
X88320682Y-508706356D03*
X89023626Y-507009300D03*
X89023626Y-510403412D03*
X90720682Y-506306356D03*
D16*
X90720682Y-508706356D03*
D15*
X90720682Y-511106356D03*
X92417738Y-507009300D03*
X92417738Y-510403412D03*
X93120682Y-508706356D03*
%TD*%
%TO.C,H188*%
X78121872Y-248563022D03*
X78824816Y-246865966D03*
X78824816Y-250260078D03*
X80521872Y-246163022D03*
D16*
X80521872Y-248563022D03*
D15*
X80521872Y-250963022D03*
X82218928Y-246865966D03*
X82218928Y-250260078D03*
X82921872Y-248563022D03*
%TD*%
%TO.C,H121*%
X148150682Y-251224689D03*
X148853626Y-249527633D03*
X148853626Y-252921745D03*
X150550682Y-248824689D03*
D16*
X150550682Y-251224689D03*
D15*
X150550682Y-253624689D03*
X152247738Y-249527633D03*
X152247738Y-252921745D03*
X152950682Y-251224689D03*
%TD*%
%TO.C,H109*%
X169320682Y-615373023D03*
X170023626Y-613675967D03*
X170023626Y-617070079D03*
X171720682Y-612973023D03*
D16*
X171720682Y-615373023D03*
D15*
X171720682Y-617773023D03*
X173417738Y-613675967D03*
X173417738Y-617070079D03*
X174120682Y-615373023D03*
%TD*%
D28*
%TO.C,C402*%
X335160682Y-759778023D03*
X335160682Y-758818023D03*
%TD*%
D21*
%TO.C,D115*%
X481120682Y-693198023D03*
X481120682Y-689898023D03*
%TD*%
D15*
%TO.C,H108*%
X579950000Y-472050000D03*
X580652944Y-470352944D03*
X580652944Y-473747056D03*
X582350000Y-469650000D03*
D16*
X582350000Y-472050000D03*
D15*
X582350000Y-474450000D03*
X584047056Y-470352944D03*
X584047056Y-473747056D03*
X584750000Y-472050000D03*
%TD*%
%TO.C,H108*%
X558300682Y-806208023D03*
X559003626Y-804510967D03*
X559003626Y-807905079D03*
X560700682Y-803808023D03*
D16*
X560700682Y-806208023D03*
D15*
X560700682Y-808608023D03*
X562397738Y-804510967D03*
X562397738Y-807905079D03*
X563100682Y-806208023D03*
%TD*%
%TO.C,H128*%
X258150682Y-362891355D03*
X258853626Y-361194299D03*
X258853626Y-364588411D03*
X260550682Y-360491355D03*
D16*
X260550682Y-362891355D03*
D15*
X260550682Y-365291355D03*
X262247738Y-361194299D03*
X262247738Y-364588411D03*
X262950682Y-362891355D03*
%TD*%
D44*
%TO.C,C409*%
X344330682Y-714748023D03*
X345290682Y-714748023D03*
%TD*%
D24*
%TO.C,J103*%
X239620682Y-685748023D03*
D25*
X239620682Y-683208023D03*
X237080682Y-685748023D03*
X237080682Y-683208023D03*
X234540682Y-685748023D03*
X234540682Y-683208023D03*
X232000682Y-685748023D03*
X232000682Y-683208023D03*
X229460682Y-685748023D03*
X229460682Y-683208023D03*
%TD*%
D18*
%TO.C,J504*%
X288260682Y-669798023D03*
X288260682Y-674798023D03*
D19*
X293260682Y-669798023D03*
X293260682Y-674798023D03*
%TD*%
D15*
%TO.C,H108*%
X138150682Y-171224689D03*
X138853626Y-169527633D03*
X138853626Y-172921745D03*
X140550682Y-168824689D03*
D16*
X140550682Y-171224689D03*
D15*
X140550682Y-173624689D03*
X142247738Y-169527633D03*
X142247738Y-172921745D03*
X142950682Y-171224689D03*
%TD*%
%TO.C,H245*%
X671950000Y-602050000D03*
X672652944Y-600352944D03*
X672652944Y-603747056D03*
X674350000Y-599650000D03*
D16*
X674350000Y-602050000D03*
D15*
X674350000Y-604450000D03*
X676047056Y-600352944D03*
X676047056Y-603747056D03*
X676750000Y-602050000D03*
%TD*%
D48*
%TO.C,D301*%
X285985682Y-769160523D03*
D49*
X285985682Y-767510523D03*
D50*
X285985682Y-767210523D03*
%TD*%
D15*
%TO.C,H119*%
X148150682Y-307058022D03*
X148853626Y-305360966D03*
X148853626Y-308755078D03*
X150550682Y-304658022D03*
D16*
X150550682Y-307058022D03*
D15*
X150550682Y-309458022D03*
X152247738Y-305360966D03*
X152247738Y-308755078D03*
X152950682Y-307058022D03*
%TD*%
%TO.C,H407*%
X107770682Y-725298023D03*
X108473626Y-723600967D03*
X108473626Y-726995079D03*
X110170682Y-722898023D03*
D16*
X110170682Y-725298023D03*
D15*
X110170682Y-727698023D03*
X111867738Y-723600967D03*
X111867738Y-726995079D03*
X112570682Y-725298023D03*
%TD*%
D18*
%TO.C,SW510*%
X355820682Y-597623023D03*
X355820682Y-602623023D03*
D19*
X360820682Y-597623023D03*
X360820682Y-602623023D03*
%TD*%
D21*
%TO.C,D122*%
X835549716Y-693169982D03*
X835549716Y-689869982D03*
%TD*%
%TO.C,D133*%
X655649716Y-693269982D03*
X655649716Y-689969982D03*
%TD*%
D24*
%TO.C,J114*%
X901339716Y-686009982D03*
D25*
X901339716Y-683469982D03*
X898799716Y-686009982D03*
X898799716Y-683469982D03*
X896259716Y-686009982D03*
X896259716Y-683469982D03*
X893719716Y-686009982D03*
X893719716Y-683469982D03*
X891179716Y-686009982D03*
X891179716Y-683469982D03*
%TD*%
D15*
%TO.C,H142*%
X268150682Y-251224689D03*
X268853626Y-249527633D03*
X268853626Y-252921745D03*
X270550682Y-248824689D03*
D16*
X270550682Y-251224689D03*
D15*
X270550682Y-253624689D03*
X272247738Y-249527633D03*
X272247738Y-252921745D03*
X272950682Y-251224689D03*
%TD*%
D21*
%TO.C,D123*%
X601949716Y-693269982D03*
X601949716Y-689969982D03*
%TD*%
D15*
%TO.C,H213*%
X568121872Y-423729689D03*
X568824816Y-422032633D03*
X568824816Y-425426745D03*
X570521872Y-421329689D03*
D16*
X570521872Y-423729689D03*
D15*
X570521872Y-426129689D03*
X572218928Y-422032633D03*
X572218928Y-425426745D03*
X572921872Y-423729689D03*
%TD*%
D18*
%TO.C,J9*%
X843779716Y-669546648D03*
X843779716Y-674546648D03*
D19*
X848779716Y-669546648D03*
X848779716Y-674546648D03*
%TD*%
D24*
%TO.C,J102*%
X180620682Y-685648023D03*
D25*
X180620682Y-683108023D03*
X178080682Y-685648023D03*
X178080682Y-683108023D03*
X175540682Y-685648023D03*
X175540682Y-683108023D03*
X173000682Y-685648023D03*
X173000682Y-683108023D03*
X170460682Y-685648023D03*
X170460682Y-683108023D03*
%TD*%
D42*
%TO.C,K504*%
X351280682Y-568763023D03*
X343660682Y-568763023D03*
X351280682Y-558603023D03*
X351280682Y-550983023D03*
%TD*%
D15*
%TO.C,H246*%
X741950000Y-602050000D03*
X742652944Y-600352944D03*
X742652944Y-603747056D03*
X744350000Y-599650000D03*
D16*
X744350000Y-602050000D03*
D15*
X744350000Y-604450000D03*
X746047056Y-600352944D03*
X746047056Y-603747056D03*
X746750000Y-602050000D03*
%TD*%
%TO.C,H108*%
X509902944Y-471997056D03*
X510605888Y-470300000D03*
X510605888Y-473694112D03*
X512302944Y-469597056D03*
D16*
X512302944Y-471997056D03*
D15*
X512302944Y-474397056D03*
X514000000Y-470300000D03*
X514000000Y-473694112D03*
X514702944Y-471997056D03*
%TD*%
%TO.C,H108*%
X88300682Y-699541356D03*
X89003626Y-697844300D03*
X89003626Y-701238412D03*
X90700682Y-697141356D03*
D16*
X90700682Y-699541356D03*
D15*
X90700682Y-701941356D03*
X92397738Y-697844300D03*
X92397738Y-701238412D03*
X93100682Y-699541356D03*
%TD*%
D22*
%TO.C,C412*%
X295070682Y-714848023D03*
X294110682Y-714848023D03*
%TD*%
D23*
%TO.C,R507*%
X206820682Y-604823023D03*
X206820682Y-601898023D03*
%TD*%
D15*
%TO.C,H214*%
X200621872Y-161229689D03*
X201324816Y-159532633D03*
X201324816Y-162926745D03*
X203021872Y-158829689D03*
D16*
X203021872Y-161229689D03*
D15*
X203021872Y-163629689D03*
X204718928Y-159532633D03*
X204718928Y-162926745D03*
X205421872Y-161229689D03*
%TD*%
D24*
%TO.C,J112*%
X780749716Y-686119982D03*
D25*
X780749716Y-683579982D03*
X778209716Y-686119982D03*
X778209716Y-683579982D03*
X775669716Y-686119982D03*
X775669716Y-683579982D03*
X773129716Y-686119982D03*
X773129716Y-683579982D03*
X770589716Y-686119982D03*
X770589716Y-683579982D03*
%TD*%
D40*
%TO.C,R101*%
X448963182Y-726974689D03*
X446038182Y-726974689D03*
%TD*%
D15*
%TO.C,H169*%
X448150682Y-307058022D03*
X448853626Y-305360966D03*
X448853626Y-308755078D03*
X450550682Y-304658022D03*
D16*
X450550682Y-307058022D03*
D15*
X450550682Y-309458022D03*
X452247738Y-305360966D03*
X452247738Y-308755078D03*
X452950682Y-307058022D03*
%TD*%
%TO.C,H180*%
X558150682Y-307058022D03*
X558853626Y-305360966D03*
X558853626Y-308755078D03*
X560550682Y-304658022D03*
D16*
X560550682Y-307058022D03*
D15*
X560550682Y-309458022D03*
X562247738Y-305360966D03*
X562247738Y-308755078D03*
X562950682Y-307058022D03*
%TD*%
D18*
%TO.C,J503*%
X123410682Y-669798023D03*
X123410682Y-674798023D03*
D19*
X128410682Y-669798023D03*
X128410682Y-674798023D03*
%TD*%
D15*
%TO.C,H108*%
X138150682Y-307058022D03*
X138853626Y-305360966D03*
X138853626Y-308755078D03*
X140550682Y-304658022D03*
D16*
X140550682Y-307058022D03*
D15*
X140550682Y-309458022D03*
X142247738Y-305360966D03*
X142247738Y-308755078D03*
X142950682Y-307058022D03*
%TD*%
%TO.C,H138*%
X318150682Y-362891355D03*
X318853626Y-361194299D03*
X318853626Y-364588411D03*
X320550682Y-360491355D03*
D16*
X320550682Y-362891355D03*
D15*
X320550682Y-365291355D03*
X322247738Y-361194299D03*
X322247738Y-364588411D03*
X322950682Y-362891355D03*
%TD*%
D18*
%TO.C,J506*%
X184470682Y-539623023D03*
X184470682Y-544623023D03*
D19*
X189470682Y-539623023D03*
X189470682Y-544623023D03*
%TD*%
D23*
%TO.C,R529*%
X427970682Y-592348023D03*
X427970682Y-589423023D03*
%TD*%
D15*
%TO.C,H234*%
X660950000Y-602050000D03*
X661652944Y-600352944D03*
X661652944Y-603747056D03*
X663350000Y-599650000D03*
D16*
X663350000Y-602050000D03*
D15*
X663350000Y-604450000D03*
X665047056Y-600352944D03*
X665047056Y-603747056D03*
X665750000Y-602050000D03*
%TD*%
D18*
%TO.C,SW503*%
X103320682Y-578873023D03*
X103320682Y-583873023D03*
D19*
X108320682Y-578873023D03*
X108320682Y-583873023D03*
%TD*%
D30*
%TO.C,C512*%
X349970682Y-591623023D03*
X349970682Y-589723023D03*
%TD*%
D23*
%TO.C,R528*%
X441020682Y-577760523D03*
X441020682Y-574835523D03*
%TD*%
D15*
%TO.C,H160*%
X438150682Y-307058022D03*
X438853626Y-305360966D03*
X438853626Y-308755078D03*
X440550682Y-304658022D03*
D16*
X440550682Y-307058022D03*
D15*
X440550682Y-309458022D03*
X442247738Y-305360966D03*
X442247738Y-308755078D03*
X442950682Y-307058022D03*
%TD*%
%TO.C,H219*%
X198150682Y-171224689D03*
X198853626Y-169527633D03*
X198853626Y-172921745D03*
X200550682Y-168824689D03*
D16*
X200550682Y-171224689D03*
D15*
X200550682Y-173624689D03*
X202247738Y-169527633D03*
X202247738Y-172921745D03*
X202950682Y-171224689D03*
%TD*%
%TO.C,H155*%
X388150682Y-413724689D03*
X388853626Y-412027633D03*
X388853626Y-415421745D03*
X390550682Y-411324689D03*
D16*
X390550682Y-413724689D03*
D15*
X390550682Y-416124689D03*
X392247738Y-412027633D03*
X392247738Y-415421745D03*
X392950682Y-413724689D03*
%TD*%
%TO.C,H248*%
X726000000Y-586050000D03*
X726702944Y-584352944D03*
X726702944Y-587747056D03*
X728400000Y-583650000D03*
D16*
X728400000Y-586050000D03*
D15*
X728400000Y-588450000D03*
X730097056Y-584352944D03*
X730097056Y-587747056D03*
X730800000Y-586050000D03*
%TD*%
D21*
%TO.C,D517*%
X447470682Y-607298023D03*
X447470682Y-603998023D03*
%TD*%
D23*
%TO.C,R502*%
X103900682Y-606048023D03*
X103900682Y-603123023D03*
%TD*%
D21*
%TO.C,D113*%
X360920682Y-693198023D03*
X360920682Y-689898023D03*
%TD*%
D15*
%TO.C,H114*%
X169320682Y-508706356D03*
X170023626Y-507009300D03*
X170023626Y-510403412D03*
X171720682Y-506306356D03*
D16*
X171720682Y-508706356D03*
D15*
X171720682Y-511106356D03*
X173417738Y-507009300D03*
X173417738Y-510403412D03*
X174120682Y-508706356D03*
%TD*%
%TO.C,H108*%
X88150682Y-362891355D03*
X88853626Y-361194299D03*
X88853626Y-364588411D03*
X90550682Y-360491355D03*
D16*
X90550682Y-362891355D03*
D15*
X90550682Y-365291355D03*
X92247738Y-361194299D03*
X92247738Y-364588411D03*
X92950682Y-362891355D03*
%TD*%
%TO.C,H108*%
X88150682Y-413724689D03*
X88853626Y-412027633D03*
X88853626Y-415421745D03*
X90550682Y-411324689D03*
D16*
X90550682Y-413724689D03*
D15*
X90550682Y-416124689D03*
X92247738Y-412027633D03*
X92247738Y-415421745D03*
X92950682Y-413724689D03*
%TD*%
%TO.C,H124*%
X194300682Y-503374689D03*
X195003626Y-501677633D03*
X195003626Y-505071745D03*
X196700682Y-500974689D03*
D16*
X196700682Y-503374689D03*
D15*
X196700682Y-505774689D03*
X198397738Y-501677633D03*
X198397738Y-505071745D03*
X199100682Y-503374689D03*
%TD*%
%TO.C,H227*%
X438150682Y-171224689D03*
X438853626Y-169527633D03*
X438853626Y-172921745D03*
X440550682Y-168824689D03*
D16*
X440550682Y-171224689D03*
D15*
X440550682Y-173624689D03*
X442247738Y-169527633D03*
X442247738Y-172921745D03*
X442950682Y-171224689D03*
%TD*%
%TO.C,H108*%
X248300682Y-755374689D03*
X249003626Y-753677633D03*
X249003626Y-757071745D03*
X250700682Y-752974689D03*
D16*
X250700682Y-755374689D03*
D15*
X250700682Y-757774689D03*
X252397738Y-753677633D03*
X252397738Y-757071745D03*
X253100682Y-755374689D03*
%TD*%
D34*
%TO.C,U502*%
X204470682Y-568523023D03*
X209470682Y-568523023D03*
D35*
X204470682Y-563523023D03*
X209470682Y-563523023D03*
X204470682Y-558523023D03*
X209470682Y-558523023D03*
X204470682Y-553523023D03*
X209470682Y-553523023D03*
%TD*%
D23*
%TO.C,R107*%
X444580682Y-735985523D03*
X444580682Y-733060523D03*
%TD*%
D28*
%TO.C,C1*%
X436300682Y-727234689D03*
X436300682Y-726274689D03*
%TD*%
D51*
%TO.C,L203*%
X322185682Y-769173023D03*
X324285682Y-769173023D03*
%TD*%
D52*
%TO.C,C211*%
X328985682Y-771548023D03*
X337685682Y-771548023D03*
%TD*%
D23*
%TO.C,R514*%
X265900682Y-606048023D03*
X265900682Y-603123023D03*
%TD*%
D15*
%TO.C,H108*%
X579950000Y-537050000D03*
X580652944Y-535352944D03*
X580652944Y-538747056D03*
X582350000Y-534650000D03*
D16*
X582350000Y-537050000D03*
D15*
X582350000Y-539450000D03*
X584047056Y-535352944D03*
X584047056Y-538747056D03*
X584750000Y-537050000D03*
%TD*%
%TO.C,H108*%
X890302944Y-643679982D03*
X891005888Y-641982926D03*
X891005888Y-645377038D03*
X892702944Y-641279982D03*
D16*
X892702944Y-643679982D03*
D15*
X892702944Y-646079982D03*
X894400000Y-641982926D03*
X894400000Y-645377038D03*
X895102944Y-643679982D03*
%TD*%
D27*
%TO.C,D516*%
X348870682Y-571623023D03*
X345570682Y-571623023D03*
%TD*%
D15*
%TO.C,H189*%
X331320682Y-564539689D03*
X332023626Y-562842633D03*
X332023626Y-566236745D03*
X333720682Y-562139689D03*
D16*
X333720682Y-564539689D03*
D15*
X333720682Y-566939689D03*
X335417738Y-562842633D03*
X335417738Y-566236745D03*
X336120682Y-564539689D03*
%TD*%
%TO.C,H264*%
X822950000Y-537050000D03*
X823652944Y-535352944D03*
X823652944Y-538747056D03*
X825350000Y-534650000D03*
D16*
X825350000Y-537050000D03*
D15*
X825350000Y-539450000D03*
X827047056Y-535352944D03*
X827047056Y-538747056D03*
X827750000Y-537050000D03*
%TD*%
D18*
%TO.C,J13*%
X768579716Y-669746648D03*
X768579716Y-674746648D03*
D19*
X773579716Y-669746648D03*
X773579716Y-674746648D03*
%TD*%
D28*
%TO.C,C513*%
X449320682Y-594378023D03*
X449320682Y-593418023D03*
%TD*%
D15*
%TO.C,H192*%
X331320682Y-508706356D03*
X332023626Y-507009300D03*
X332023626Y-510403412D03*
X333720682Y-506306356D03*
D16*
X333720682Y-508706356D03*
D15*
X333720682Y-511106356D03*
X335417738Y-507009300D03*
X335417738Y-510403412D03*
X336120682Y-508706356D03*
%TD*%
D18*
%TO.C,SW506*%
X184320682Y-578873023D03*
X184320682Y-583873023D03*
D19*
X189320682Y-578873023D03*
X189320682Y-583873023D03*
%TD*%
D15*
%TO.C,H179*%
X508150682Y-307058022D03*
X508853626Y-305360966D03*
X508853626Y-308755078D03*
X510550682Y-304658022D03*
D16*
X510550682Y-307058022D03*
D15*
X510550682Y-309458022D03*
X512247738Y-305360966D03*
X512247738Y-308755078D03*
X512950682Y-307058022D03*
%TD*%
%TO.C,H209*%
X462320682Y-452873023D03*
X463023626Y-451175967D03*
X463023626Y-454570079D03*
X464720682Y-450473023D03*
D16*
X464720682Y-452873023D03*
D15*
X464720682Y-455273023D03*
X466417738Y-451175967D03*
X466417738Y-454570079D03*
X467120682Y-452873023D03*
%TD*%
%TO.C,H277*%
X843500000Y-507050000D03*
X844202944Y-505352944D03*
X844202944Y-508747056D03*
X845900000Y-504650000D03*
D16*
X845900000Y-507050000D03*
D15*
X845900000Y-509450000D03*
X847597056Y-505352944D03*
X847597056Y-508747056D03*
X848300000Y-507050000D03*
%TD*%
D21*
%TO.C,D131*%
X661849716Y-693269982D03*
X661849716Y-689969982D03*
%TD*%
D23*
%TO.C,R525*%
X449820682Y-604823023D03*
X449820682Y-601898023D03*
%TD*%
D15*
%TO.C,H197*%
X331320682Y-452873023D03*
X332023626Y-451175967D03*
X332023626Y-454570079D03*
X333720682Y-450473023D03*
D16*
X333720682Y-452873023D03*
D15*
X333720682Y-455273023D03*
X335417738Y-451175967D03*
X335417738Y-454570079D03*
X336120682Y-452873023D03*
%TD*%
%TO.C,H120*%
X198150682Y-307058022D03*
X198853626Y-305360966D03*
X198853626Y-308755078D03*
X200550682Y-304658022D03*
D16*
X200550682Y-307058022D03*
D15*
X200550682Y-309458022D03*
X202247738Y-305360966D03*
X202247738Y-308755078D03*
X202950682Y-307058022D03*
%TD*%
D53*
%TO.C,RV102*%
X448980682Y-718548023D03*
D54*
X452980682Y-717398023D03*
D53*
X448980682Y-716248023D03*
%TD*%
D21*
%TO.C,D509*%
X285470682Y-607298023D03*
X285470682Y-603998023D03*
%TD*%
%TO.C,D127*%
X781849716Y-693169982D03*
X781849716Y-689869982D03*
%TD*%
D42*
%TO.C,K505*%
X432280682Y-568763023D03*
X424660682Y-568763023D03*
X432280682Y-558603023D03*
X432280682Y-550983023D03*
%TD*%
D53*
%TO.C,RV103*%
X448880682Y-748235523D03*
D54*
X452880682Y-747085523D03*
D53*
X448880682Y-745935523D03*
%TD*%
D15*
%TO.C,H164*%
X438150682Y-251224689D03*
X438853626Y-249527633D03*
X438853626Y-252921745D03*
X440550682Y-248824689D03*
D16*
X440550682Y-251224689D03*
D15*
X440550682Y-253624689D03*
X442247738Y-249527633D03*
X442247738Y-252921745D03*
X442950682Y-251224689D03*
%TD*%
%TO.C,H405*%
X200270682Y-795198023D03*
X200973626Y-793500967D03*
X200973626Y-796895079D03*
X202670682Y-792798023D03*
D16*
X202670682Y-795198023D03*
D15*
X202670682Y-797598023D03*
X204367738Y-793500967D03*
X204367738Y-796895079D03*
X205070682Y-795198023D03*
%TD*%
%TO.C,H257*%
X752950000Y-602050000D03*
X753652944Y-600352944D03*
X753652944Y-603747056D03*
X755350000Y-599650000D03*
D16*
X755350000Y-602050000D03*
D15*
X755350000Y-604450000D03*
X757047056Y-600352944D03*
X757047056Y-603747056D03*
X757750000Y-602050000D03*
%TD*%
%TO.C,H175*%
X508150682Y-413724689D03*
X508853626Y-412027633D03*
X508853626Y-415421745D03*
X510550682Y-411324689D03*
D16*
X510550682Y-413724689D03*
D15*
X510550682Y-416124689D03*
X512247738Y-412027633D03*
X512247738Y-415421745D03*
X512950682Y-413724689D03*
%TD*%
%TO.C,H108*%
X88150682Y-251224689D03*
X88853626Y-249527633D03*
X88853626Y-252921745D03*
X90550682Y-248824689D03*
D16*
X90550682Y-251224689D03*
D15*
X90550682Y-253624689D03*
X92247738Y-249527633D03*
X92247738Y-252921745D03*
X92950682Y-251224689D03*
%TD*%
%TO.C,H141*%
X219320682Y-452873023D03*
X220023626Y-451175967D03*
X220023626Y-454570079D03*
X221720682Y-450473023D03*
D16*
X221720682Y-452873023D03*
D15*
X221720682Y-455273023D03*
X223417738Y-451175967D03*
X223417738Y-454570079D03*
X224120682Y-452873023D03*
%TD*%
%TO.C,H228*%
X448150682Y-171224689D03*
X448853626Y-169527633D03*
X448853626Y-172921745D03*
X450550682Y-168824689D03*
D16*
X450550682Y-171224689D03*
D15*
X450550682Y-173624689D03*
X452247738Y-169527633D03*
X452247738Y-172921745D03*
X452950682Y-171224689D03*
%TD*%
%TO.C,H108*%
X730302944Y-755346648D03*
X731005888Y-753649592D03*
X731005888Y-757043704D03*
X732702944Y-752946648D03*
D16*
X732702944Y-755346648D03*
D15*
X732702944Y-757746648D03*
X734400000Y-753649592D03*
X734400000Y-757043704D03*
X735102944Y-755346648D03*
%TD*%
D47*
%TO.C,R306*%
X273773182Y-766698023D03*
X276698182Y-766698023D03*
%TD*%
D15*
%TO.C,H265*%
X762500000Y-507050000D03*
X763202944Y-505352944D03*
X763202944Y-508747056D03*
X764900000Y-504650000D03*
D16*
X764900000Y-507050000D03*
D15*
X764900000Y-509450000D03*
X766597056Y-505352944D03*
X766597056Y-508747056D03*
X767300000Y-507050000D03*
%TD*%
D28*
%TO.C,C414*%
X322260682Y-748958023D03*
X322260682Y-747998023D03*
%TD*%
D26*
%TO.C,C514*%
X441320682Y-582548023D03*
X441320682Y-584448023D03*
%TD*%
D15*
%TO.C,H253*%
X681500000Y-507050000D03*
X682202944Y-505352944D03*
X682202944Y-508747056D03*
X683900000Y-504650000D03*
D16*
X683900000Y-507050000D03*
D15*
X683900000Y-509450000D03*
X685597056Y-505352944D03*
X685597056Y-508747056D03*
X686300000Y-507050000D03*
%TD*%
%TO.C,H108*%
X646500000Y-330800000D03*
X647202944Y-329102944D03*
X647202944Y-332497056D03*
X648900000Y-328400000D03*
D16*
X648900000Y-330800000D03*
D15*
X648900000Y-333200000D03*
X650597056Y-329102944D03*
X650597056Y-332497056D03*
X651300000Y-330800000D03*
%TD*%
D26*
%TO.C,C508*%
X279320682Y-582548023D03*
X279320682Y-584448023D03*
%TD*%
D15*
%TO.C,H211*%
X323121872Y-423729689D03*
X323824816Y-422032633D03*
X323824816Y-425426745D03*
X325521872Y-421329689D03*
D16*
X325521872Y-423729689D03*
D15*
X325521872Y-426129689D03*
X327218928Y-422032633D03*
X327218928Y-425426745D03*
X327921872Y-423729689D03*
%TD*%
%TO.C,H116*%
X198150682Y-413724689D03*
X198853626Y-412027633D03*
X198853626Y-415421745D03*
X200550682Y-411324689D03*
D16*
X200550682Y-413724689D03*
D15*
X200550682Y-416124689D03*
X202247738Y-412027633D03*
X202247738Y-415421745D03*
X202950682Y-413724689D03*
%TD*%
D55*
%TO.C,RV101*%
X434030682Y-716185523D03*
D56*
X432880682Y-712185523D03*
D55*
X431730682Y-716185523D03*
%TD*%
D15*
%TO.C,H108*%
X88300682Y-806208023D03*
X89003626Y-804510967D03*
X89003626Y-807905079D03*
X90700682Y-803808023D03*
D16*
X90700682Y-806208023D03*
D15*
X90700682Y-808608023D03*
X92397738Y-804510967D03*
X92397738Y-807905079D03*
X93100682Y-806208023D03*
%TD*%
%TO.C,H112*%
X169320682Y-564539689D03*
X170023626Y-562842633D03*
X170023626Y-566236745D03*
X171720682Y-562139689D03*
D16*
X171720682Y-564539689D03*
D15*
X171720682Y-566939689D03*
X173417738Y-562842633D03*
X173417738Y-566236745D03*
X174120682Y-564539689D03*
%TD*%
D14*
%TO.C,U414*%
X290540682Y-713048023D03*
X291810682Y-713048023D03*
X293080682Y-713048023D03*
X294350682Y-713048023D03*
X295620682Y-713048023D03*
X296890682Y-713048023D03*
X298160682Y-713048023D03*
X298160682Y-708098023D03*
X296890682Y-708098023D03*
X295620682Y-708098023D03*
X294350682Y-708098023D03*
X293080682Y-708098023D03*
X291810682Y-708098023D03*
X290540682Y-708098023D03*
%TD*%
D15*
%TO.C,H108*%
X570302944Y-755346648D03*
X571005888Y-753649592D03*
X571005888Y-757043704D03*
X572702944Y-752946648D03*
D16*
X572702944Y-755346648D03*
D15*
X572702944Y-757746648D03*
X574400000Y-753649592D03*
X574400000Y-757043704D03*
X575102944Y-755346648D03*
%TD*%
D47*
%TO.C,R518*%
X290045682Y-590123023D03*
X292970682Y-590123023D03*
%TD*%
D24*
%TO.C,J107*%
X479420682Y-686148023D03*
D25*
X479420682Y-683608023D03*
X476880682Y-686148023D03*
X476880682Y-683608023D03*
X474340682Y-686148023D03*
X474340682Y-683608023D03*
X471800682Y-686148023D03*
X471800682Y-683608023D03*
X469260682Y-686148023D03*
X469260682Y-683608023D03*
%TD*%
D15*
%TO.C,H170*%
X498150682Y-307058022D03*
X498853626Y-305360966D03*
X498853626Y-308755078D03*
X500550682Y-304658022D03*
D16*
X500550682Y-307058022D03*
D15*
X500550682Y-309458022D03*
X502247738Y-305360966D03*
X502247738Y-308755078D03*
X502950682Y-307058022D03*
%TD*%
D21*
%TO.C,D117*%
X961949716Y-693269982D03*
X961949716Y-689969982D03*
%TD*%
D15*
%TO.C,H216*%
X445621872Y-161229689D03*
X446324816Y-159532633D03*
X446324816Y-162926745D03*
X448021872Y-158829689D03*
D16*
X448021872Y-161229689D03*
D15*
X448021872Y-163629689D03*
X449718928Y-159532633D03*
X449718928Y-162926745D03*
X450421872Y-161229689D03*
%TD*%
%TO.C,H145*%
X328150682Y-413724689D03*
X328853626Y-412027633D03*
X328853626Y-415421745D03*
X330550682Y-411324689D03*
D16*
X330550682Y-413724689D03*
D15*
X330550682Y-416124689D03*
X332247738Y-412027633D03*
X332247738Y-415421745D03*
X332950682Y-413724689D03*
%TD*%
%TO.C,H260*%
X807000000Y-586050000D03*
X807702944Y-584352944D03*
X807702944Y-587747056D03*
X809400000Y-583650000D03*
D16*
X809400000Y-586050000D03*
D15*
X809400000Y-588450000D03*
X811097056Y-584352944D03*
X811097056Y-587747056D03*
X811800000Y-586050000D03*
%TD*%
D18*
%TO.C,J12*%
X783679716Y-669646648D03*
X783679716Y-674646648D03*
D19*
X788679716Y-669646648D03*
X788679716Y-674646648D03*
%TD*%
D41*
%TO.C,C301*%
X292785682Y-770510523D03*
X294685682Y-770510523D03*
%TD*%
D15*
%TO.C,H108*%
X570500000Y-507050000D03*
X571202944Y-505352944D03*
X571202944Y-508747056D03*
X572900000Y-504650000D03*
D16*
X572900000Y-507050000D03*
D15*
X572900000Y-509450000D03*
X574597056Y-505352944D03*
X574597056Y-508747056D03*
X575300000Y-507050000D03*
%TD*%
D57*
%TO.C,U2*%
X443050682Y-730594689D03*
X443050682Y-729324689D03*
X443050682Y-728054689D03*
X443050682Y-726784689D03*
X443050682Y-725514689D03*
X443050682Y-724244689D03*
X443050682Y-722974689D03*
X438100682Y-722974689D03*
X438100682Y-724244689D03*
X438100682Y-725514689D03*
X438100682Y-726784689D03*
X438100682Y-728054689D03*
X438100682Y-729324689D03*
X438100682Y-730594689D03*
%TD*%
D15*
%TO.C,H183*%
X558150682Y-251224689D03*
X558853626Y-249527633D03*
X558853626Y-252921745D03*
X560550682Y-248824689D03*
D16*
X560550682Y-251224689D03*
D15*
X560550682Y-253624689D03*
X562247738Y-249527633D03*
X562247738Y-252921745D03*
X562950682Y-251224689D03*
%TD*%
%TO.C,H108*%
X730302944Y-699513315D03*
X731005888Y-697816259D03*
X731005888Y-701210371D03*
X732702944Y-697113315D03*
D16*
X732702944Y-699513315D03*
D15*
X732702944Y-701913315D03*
X734400000Y-697816259D03*
X734400000Y-701210371D03*
X735102944Y-699513315D03*
%TD*%
D44*
%TO.C,C413*%
X263900682Y-734098023D03*
X264860682Y-734098023D03*
%TD*%
D30*
%TO.C,C503*%
X106970682Y-591623023D03*
X106970682Y-589723023D03*
%TD*%
D15*
%TO.C,H108*%
X890302944Y-699513315D03*
X891005888Y-697816259D03*
X891005888Y-701210371D03*
X892702944Y-697113315D03*
D16*
X892702944Y-699513315D03*
D15*
X892702944Y-701913315D03*
X894400000Y-697816259D03*
X894400000Y-701210371D03*
X895102944Y-699513315D03*
%TD*%
%TO.C,H274*%
X888000000Y-548050000D03*
X888702944Y-546352944D03*
X888702944Y-549747056D03*
X890400000Y-545650000D03*
D16*
X890400000Y-548050000D03*
D15*
X890400000Y-550450000D03*
X892097056Y-546352944D03*
X892097056Y-549747056D03*
X892800000Y-548050000D03*
%TD*%
D14*
%TO.C,U418*%
X351810682Y-732248023D03*
X353080682Y-732248023D03*
X354350682Y-732248023D03*
X355620682Y-732248023D03*
X356890682Y-732248023D03*
X358160682Y-732248023D03*
X359430682Y-732248023D03*
X359430682Y-727298023D03*
X358160682Y-727298023D03*
X356890682Y-727298023D03*
X355620682Y-727298023D03*
X354350682Y-727298023D03*
X353080682Y-727298023D03*
X351810682Y-727298023D03*
%TD*%
D15*
%TO.C,H205*%
X462320682Y-508706356D03*
X463023626Y-507009300D03*
X463023626Y-510403412D03*
X464720682Y-506306356D03*
D16*
X464720682Y-508706356D03*
D15*
X464720682Y-511106356D03*
X466417738Y-507009300D03*
X466417738Y-510403412D03*
X467120682Y-508706356D03*
%TD*%
%TO.C,H108*%
X113300682Y-455874689D03*
X114003626Y-454177633D03*
X114003626Y-457571745D03*
X115700682Y-453474689D03*
D16*
X115700682Y-455874689D03*
D15*
X115700682Y-458274689D03*
X117397738Y-454177633D03*
X117397738Y-457571745D03*
X118100682Y-455874689D03*
%TD*%
D58*
%TO.C,TP401*%
X446830682Y-730298023D03*
%TD*%
D59*
%TO.C,D401*%
X370625682Y-776900523D03*
X373925682Y-776900523D03*
%TD*%
D15*
%TO.C,H223*%
X318150682Y-171224689D03*
X318853626Y-169527633D03*
X318853626Y-172921745D03*
X320550682Y-168824689D03*
D16*
X320550682Y-171224689D03*
D15*
X320550682Y-173624689D03*
X322247738Y-169527633D03*
X322247738Y-172921745D03*
X322950682Y-171224689D03*
%TD*%
D18*
%TO.C,J10*%
X723579716Y-669746648D03*
X723579716Y-674746648D03*
D19*
X728579716Y-669746648D03*
X728579716Y-674746648D03*
%TD*%
D40*
%TO.C,R105*%
X431643182Y-732398023D03*
X428718182Y-732398023D03*
%TD*%
D15*
%TO.C,H220*%
X208150682Y-171224689D03*
X208853626Y-169527633D03*
X208853626Y-172921745D03*
X210550682Y-168824689D03*
D16*
X210550682Y-171224689D03*
D15*
X210550682Y-173624689D03*
X212247738Y-169527633D03*
X212247738Y-172921745D03*
X212950682Y-171224689D03*
%TD*%
D21*
%TO.C,D513*%
X366470682Y-607298023D03*
X366470682Y-603998023D03*
%TD*%
D18*
%TO.C,J504*%
X408260682Y-669798023D03*
X408260682Y-674798023D03*
D19*
X413260682Y-669798023D03*
X413260682Y-674798023D03*
%TD*%
D40*
%TO.C,R401*%
X324818182Y-755063023D03*
X321893182Y-755063023D03*
%TD*%
D15*
%TO.C,H255*%
X741950000Y-472050000D03*
X742652944Y-470352944D03*
X742652944Y-473747056D03*
X744350000Y-469650000D03*
D16*
X744350000Y-472050000D03*
D15*
X744350000Y-474450000D03*
X746047056Y-470352944D03*
X746047056Y-473747056D03*
X746750000Y-472050000D03*
%TD*%
D17*
%TO.C,R205*%
X326410682Y-789585523D03*
X326410682Y-792510523D03*
%TD*%
D47*
%TO.C,R512*%
X209045682Y-590123023D03*
X211970682Y-590123023D03*
%TD*%
D60*
%TO.C,D205*%
X326160682Y-794560523D03*
X326160682Y-797535523D03*
%TD*%
D15*
%TO.C,H238*%
X645000000Y-548050000D03*
X645702944Y-546352944D03*
X645702944Y-549747056D03*
X647400000Y-545650000D03*
D16*
X647400000Y-548050000D03*
D15*
X647400000Y-550450000D03*
X649097056Y-546352944D03*
X649097056Y-549747056D03*
X649800000Y-548050000D03*
%TD*%
D14*
%TO.C,U417*%
X330890682Y-732398023D03*
X332160682Y-732398023D03*
X333430682Y-732398023D03*
X334700682Y-732398023D03*
X335970682Y-732398023D03*
X337240682Y-732398023D03*
X338510682Y-732398023D03*
X338510682Y-727448023D03*
X337240682Y-727448023D03*
X335970682Y-727448023D03*
X334700682Y-727448023D03*
X333430682Y-727448023D03*
X332160682Y-727448023D03*
X330890682Y-727448023D03*
%TD*%
%TO.C,U408*%
X372050682Y-731998023D03*
X373320682Y-731998023D03*
X374590682Y-731998023D03*
X375860682Y-731998023D03*
X377130682Y-731998023D03*
X378400682Y-731998023D03*
X379670682Y-731998023D03*
X379670682Y-727048023D03*
X378400682Y-727048023D03*
X377130682Y-727048023D03*
X375860682Y-727048023D03*
X374590682Y-727048023D03*
X373320682Y-727048023D03*
X372050682Y-727048023D03*
%TD*%
D44*
%TO.C,C406*%
X368450682Y-714998023D03*
X369410682Y-714998023D03*
%TD*%
D14*
%TO.C,U416*%
X266140682Y-712898023D03*
X267410682Y-712898023D03*
X268680682Y-712898023D03*
X269950682Y-712898023D03*
X271220682Y-712898023D03*
X272490682Y-712898023D03*
X273760682Y-712898023D03*
X273760682Y-707948023D03*
X272490682Y-707948023D03*
X271220682Y-707948023D03*
X269950682Y-707948023D03*
X268680682Y-707948023D03*
X267410682Y-707948023D03*
X266140682Y-707948023D03*
%TD*%
D40*
%TO.C,R204*%
X314710682Y-761723023D03*
X311785682Y-761723023D03*
%TD*%
D15*
%TO.C,H131*%
X208150682Y-251224689D03*
X208853626Y-249527633D03*
X208853626Y-252921745D03*
X210550682Y-248824689D03*
D16*
X210550682Y-251224689D03*
D15*
X210550682Y-253624689D03*
X212247738Y-249527633D03*
X212247738Y-252921745D03*
X212950682Y-251224689D03*
%TD*%
%TO.C,H108*%
X78121872Y-161229689D03*
X78824816Y-159532633D03*
X78824816Y-162926745D03*
X80521872Y-158829689D03*
D16*
X80521872Y-161229689D03*
D15*
X80521872Y-163629689D03*
X82218928Y-159532633D03*
X82218928Y-162926745D03*
X82921872Y-161229689D03*
%TD*%
D21*
%TO.C,D119*%
X1015649716Y-694069982D03*
X1015649716Y-690769982D03*
%TD*%
D27*
%TO.C,D504*%
X105870682Y-571623023D03*
X102570682Y-571623023D03*
%TD*%
D21*
%TO.C,D120*%
X722049716Y-693169982D03*
X722049716Y-689869982D03*
%TD*%
D15*
%TO.C,H130*%
X258150682Y-307058022D03*
X258853626Y-305360966D03*
X258853626Y-308755078D03*
X260550682Y-304658022D03*
D16*
X260550682Y-307058022D03*
D15*
X260550682Y-309458022D03*
X262247738Y-305360966D03*
X262247738Y-308755078D03*
X262950682Y-307058022D03*
%TD*%
%TO.C,H147*%
X328150682Y-362891355D03*
X328853626Y-361194299D03*
X328853626Y-364588411D03*
X330550682Y-360491355D03*
D16*
X330550682Y-362891355D03*
D15*
X330550682Y-365291355D03*
X332247738Y-361194299D03*
X332247738Y-364588411D03*
X332950682Y-362891355D03*
%TD*%
D23*
%TO.C,R511*%
X184970682Y-592348023D03*
X184970682Y-589423023D03*
%TD*%
D15*
%TO.C,H108*%
X570302944Y-806179982D03*
X571005888Y-804482926D03*
X571005888Y-807877038D03*
X572702944Y-803779982D03*
D16*
X572702944Y-806179982D03*
D15*
X572702944Y-808579982D03*
X574400000Y-804482926D03*
X574400000Y-807877038D03*
X575102944Y-806179982D03*
%TD*%
D41*
%TO.C,C305*%
X409230682Y-734698023D03*
X411130682Y-734698023D03*
%TD*%
D28*
%TO.C,C401*%
X329160682Y-764528023D03*
X329160682Y-763568023D03*
%TD*%
%TO.C,C501*%
X125320682Y-594378023D03*
X125320682Y-593418023D03*
%TD*%
D42*
%TO.C,K503*%
X270280682Y-568763023D03*
X262660682Y-568763023D03*
X270280682Y-558603023D03*
X270280682Y-550983023D03*
%TD*%
D15*
%TO.C,H108*%
X596500000Y-330800000D03*
X597202944Y-329102944D03*
X597202944Y-332497056D03*
X598900000Y-328400000D03*
D16*
X598900000Y-330800000D03*
D15*
X598900000Y-333200000D03*
X600597056Y-329102944D03*
X600597056Y-332497056D03*
X601300000Y-330800000D03*
%TD*%
D17*
%TO.C,R503*%
X120420682Y-513135523D03*
X120420682Y-516060523D03*
%TD*%
D24*
%TO.C,J111*%
X720969716Y-686219982D03*
D25*
X720969716Y-683679982D03*
X718429716Y-686219982D03*
X718429716Y-683679982D03*
X715889716Y-686219982D03*
X715889716Y-683679982D03*
X713349716Y-686219982D03*
X713349716Y-683679982D03*
X710809716Y-686219982D03*
X710809716Y-683679982D03*
%TD*%
D15*
%TO.C,H108*%
X138150682Y-413724689D03*
X138853626Y-412027633D03*
X138853626Y-415421745D03*
X140550682Y-411324689D03*
D16*
X140550682Y-413724689D03*
D15*
X140550682Y-416124689D03*
X142247738Y-412027633D03*
X142247738Y-415421745D03*
X142950682Y-413724689D03*
%TD*%
D31*
%TO.C,Q501*%
X126170682Y-589935523D03*
X124270682Y-589935523D03*
X125220682Y-591810523D03*
%TD*%
D15*
%TO.C,H249*%
X688000000Y-548050000D03*
X688702944Y-546352944D03*
X688702944Y-549747056D03*
X690400000Y-545650000D03*
D16*
X690400000Y-548050000D03*
D15*
X690400000Y-550450000D03*
X692097056Y-546352944D03*
X692097056Y-549747056D03*
X692800000Y-548050000D03*
%TD*%
D46*
%TO.C,L202*%
X333410682Y-794848023D03*
X333410682Y-792748023D03*
%TD*%
D30*
%TO.C,C506*%
X187970682Y-591623023D03*
X187970682Y-589723023D03*
%TD*%
D15*
%TO.C,H207*%
X437300682Y-455874689D03*
X438003626Y-454177633D03*
X438003626Y-457571745D03*
X439700682Y-453474689D03*
D16*
X439700682Y-455874689D03*
D15*
X439700682Y-458274689D03*
X441397738Y-454177633D03*
X441397738Y-457571745D03*
X442100682Y-455874689D03*
%TD*%
%TO.C,H108*%
X509950000Y-537050000D03*
X510652944Y-535352944D03*
X510652944Y-538747056D03*
X512350000Y-534650000D03*
D16*
X512350000Y-537050000D03*
D15*
X512350000Y-539450000D03*
X514047056Y-535352944D03*
X514047056Y-538747056D03*
X514750000Y-537050000D03*
%TD*%
%TO.C,H108*%
X88150682Y-171224689D03*
X88853626Y-169527633D03*
X88853626Y-172921745D03*
X90550682Y-168824689D03*
D16*
X90550682Y-171224689D03*
D15*
X90550682Y-173624689D03*
X92247738Y-169527633D03*
X92247738Y-172921745D03*
X92950682Y-171224689D03*
%TD*%
%TO.C,H174*%
X275300682Y-503374689D03*
X276003626Y-501677633D03*
X276003626Y-505071745D03*
X277700682Y-500974689D03*
D16*
X277700682Y-503374689D03*
D15*
X277700682Y-505774689D03*
X279397738Y-501677633D03*
X279397738Y-505071745D03*
X280100682Y-503374689D03*
%TD*%
%TO.C,H241*%
X600500000Y-507050000D03*
X601202944Y-505352944D03*
X601202944Y-508747056D03*
X602900000Y-504650000D03*
D16*
X602900000Y-507050000D03*
D15*
X602900000Y-509450000D03*
X604597056Y-505352944D03*
X604597056Y-508747056D03*
X605300000Y-507050000D03*
%TD*%
D24*
%TO.C,J101*%
X119620682Y-685648023D03*
D25*
X119620682Y-683108023D03*
X117080682Y-685648023D03*
X117080682Y-683108023D03*
X114540682Y-685648023D03*
X114540682Y-683108023D03*
X112000682Y-685648023D03*
X112000682Y-683108023D03*
X109460682Y-685648023D03*
X109460682Y-683108023D03*
%TD*%
D21*
%TO.C,D106*%
X414720682Y-693198023D03*
X414720682Y-689898023D03*
%TD*%
D15*
%TO.C,H137*%
X268150682Y-362891355D03*
X268853626Y-361194299D03*
X268853626Y-364588411D03*
X270550682Y-360491355D03*
D16*
X270550682Y-362891355D03*
D15*
X270550682Y-365291355D03*
X272247738Y-361194299D03*
X272247738Y-364588411D03*
X272950682Y-362891355D03*
%TD*%
D21*
%TO.C,D111*%
X241120682Y-693198023D03*
X241120682Y-689898023D03*
%TD*%
D15*
%TO.C,H140*%
X318150682Y-307058022D03*
X318853626Y-305360966D03*
X318853626Y-308755078D03*
X320550682Y-304658022D03*
D16*
X320550682Y-307058022D03*
D15*
X320550682Y-309458022D03*
X322247738Y-305360966D03*
X322247738Y-308755078D03*
X322950682Y-307058022D03*
%TD*%
%TO.C,H199*%
X568121872Y-161229689D03*
X568824816Y-159532633D03*
X568824816Y-162926745D03*
X570521872Y-158829689D03*
D16*
X570521872Y-161229689D03*
D15*
X570521872Y-163629689D03*
X572218928Y-159532633D03*
X572218928Y-162926745D03*
X572921872Y-161229689D03*
%TD*%
%TO.C,H251*%
X671950000Y-537050000D03*
X672652944Y-535352944D03*
X672652944Y-538747056D03*
X674350000Y-534650000D03*
D16*
X674350000Y-537050000D03*
D15*
X674350000Y-539450000D03*
X676047056Y-535352944D03*
X676047056Y-538747056D03*
X676750000Y-537050000D03*
%TD*%
D18*
%TO.C,J503*%
X183410682Y-669798023D03*
X183410682Y-674798023D03*
D19*
X188410682Y-669798023D03*
X188410682Y-674798023D03*
%TD*%
D15*
%TO.C,H212*%
X445621872Y-423729689D03*
X446324816Y-422032633D03*
X446324816Y-425426745D03*
X448021872Y-421329689D03*
D16*
X448021872Y-423729689D03*
D15*
X448021872Y-426129689D03*
X449718928Y-422032633D03*
X449718928Y-425426745D03*
X450421872Y-423729689D03*
%TD*%
%TO.C,H196*%
X356300682Y-455874689D03*
X357003626Y-454177633D03*
X357003626Y-457571745D03*
X358700682Y-453474689D03*
D16*
X358700682Y-455874689D03*
D15*
X358700682Y-458274689D03*
X360397738Y-454177633D03*
X360397738Y-457571745D03*
X361100682Y-455874689D03*
%TD*%
D18*
%TO.C,J503*%
X303410682Y-669798023D03*
X303410682Y-674798023D03*
D19*
X308410682Y-669798023D03*
X308410682Y-674798023D03*
%TD*%
D21*
%TO.C,D501*%
X123470682Y-607298023D03*
X123470682Y-603998023D03*
%TD*%
D31*
%TO.C,Q503*%
X288170682Y-589935523D03*
X286270682Y-589935523D03*
X287220682Y-591810523D03*
%TD*%
D15*
%TO.C,H273*%
X850000000Y-548050000D03*
X850702944Y-546352944D03*
X850702944Y-549747056D03*
X852400000Y-545650000D03*
D16*
X852400000Y-548050000D03*
D15*
X852400000Y-550450000D03*
X854097056Y-546352944D03*
X854097056Y-549747056D03*
X854800000Y-548050000D03*
%TD*%
D17*
%TO.C,R509*%
X201420682Y-513135523D03*
X201420682Y-516060523D03*
%TD*%
D27*
%TO.C,D511*%
X289270682Y-597098023D03*
X285970682Y-597098023D03*
%TD*%
D18*
%TO.C,J504*%
X168260682Y-669798023D03*
X168260682Y-674798023D03*
D19*
X173260682Y-669798023D03*
X173260682Y-674798023D03*
%TD*%
D15*
%TO.C,H108*%
X558300682Y-755374689D03*
X559003626Y-753677633D03*
X559003626Y-757071745D03*
X560700682Y-752974689D03*
D16*
X560700682Y-755374689D03*
D15*
X560700682Y-757774689D03*
X562397738Y-753677633D03*
X562397738Y-757071745D03*
X563100682Y-755374689D03*
%TD*%
D34*
%TO.C,J201*%
X268735682Y-788598023D03*
X273735682Y-788598023D03*
D35*
X268735682Y-783598023D03*
X273735682Y-783598023D03*
%TD*%
D15*
%TO.C,H108*%
X88150682Y-307058022D03*
X88853626Y-305360966D03*
X88853626Y-308755078D03*
X90550682Y-304658022D03*
D16*
X90550682Y-307058022D03*
D15*
X90550682Y-309458022D03*
X92247738Y-305360966D03*
X92247738Y-308755078D03*
X92950682Y-307058022D03*
%TD*%
D61*
%TO.C,C308*%
X279735682Y-773798023D03*
X279735682Y-770198023D03*
%TD*%
D18*
%TO.C,J4*%
X1008379716Y-669446648D03*
X1008379716Y-674446648D03*
D19*
X1013379716Y-669446648D03*
X1013379716Y-674446648D03*
%TD*%
D62*
%TO.C,D202*%
X314985682Y-783398023D03*
X314985682Y-786698023D03*
%TD*%
D15*
%TO.C,H110*%
X463383626Y-736521800D03*
X464086570Y-734824744D03*
X464086570Y-738218856D03*
X465783626Y-734121800D03*
D16*
X465783626Y-736521800D03*
D15*
X465783626Y-738921800D03*
X467480682Y-734824744D03*
X467480682Y-738218856D03*
X468183626Y-736521800D03*
%TD*%
D52*
%TO.C,C208*%
X335685682Y-784798023D03*
X344385682Y-784798023D03*
%TD*%
D15*
%TO.C,H168*%
X498150682Y-362891355D03*
X498853626Y-361194299D03*
X498853626Y-364588411D03*
X500550682Y-360491355D03*
D16*
X500550682Y-362891355D03*
D15*
X500550682Y-365291355D03*
X502247738Y-361194299D03*
X502247738Y-364588411D03*
X502950682Y-362891355D03*
%TD*%
D26*
%TO.C,C309*%
X276235682Y-770798023D03*
X276235682Y-772698023D03*
%TD*%
D15*
%TO.C,H102*%
X123717711Y-761375658D03*
X124420655Y-759678602D03*
X124420655Y-763072714D03*
X126117711Y-758975658D03*
D16*
X126117711Y-761375658D03*
D15*
X126117711Y-763775658D03*
X127814767Y-759678602D03*
X127814767Y-763072714D03*
X128517711Y-761375658D03*
%TD*%
%TO.C,H242*%
X651500000Y-507050000D03*
X652202944Y-505352944D03*
X652202944Y-508747056D03*
X653900000Y-504650000D03*
D16*
X653900000Y-507050000D03*
D15*
X653900000Y-509450000D03*
X655597056Y-505352944D03*
X655597056Y-508747056D03*
X656300000Y-507050000D03*
%TD*%
D17*
%TO.C,R307*%
X267735682Y-762985523D03*
X267735682Y-765910523D03*
%TD*%
D58*
%TO.C,TP204*%
X341660682Y-775298023D03*
%TD*%
D24*
%TO.C,J108*%
X539700682Y-686148023D03*
D25*
X539700682Y-683608023D03*
X537160682Y-686148023D03*
X537160682Y-683608023D03*
X534620682Y-686148023D03*
X534620682Y-683608023D03*
X532080682Y-686148023D03*
X532080682Y-683608023D03*
X529540682Y-686148023D03*
X529540682Y-683608023D03*
%TD*%
D15*
%TO.C,H191*%
X78121872Y-335896355D03*
X78824816Y-334199299D03*
X78824816Y-337593411D03*
X80521872Y-333496355D03*
D16*
X80521872Y-335896355D03*
D15*
X80521872Y-338296355D03*
X82218928Y-334199299D03*
X82218928Y-337593411D03*
X82921872Y-335896355D03*
%TD*%
%TO.C,H269*%
X833950000Y-602050000D03*
X834652944Y-600352944D03*
X834652944Y-603747056D03*
X836350000Y-599650000D03*
D16*
X836350000Y-602050000D03*
D15*
X836350000Y-604450000D03*
X838047056Y-600352944D03*
X838047056Y-603747056D03*
X838750000Y-602050000D03*
%TD*%
D21*
%TO.C,D124*%
X595649716Y-693169982D03*
X595649716Y-689869982D03*
%TD*%
%TO.C,D505*%
X204470682Y-607298023D03*
X204470682Y-603998023D03*
%TD*%
D15*
%TO.C,H182*%
X508150682Y-251224689D03*
X508853626Y-249527633D03*
X508853626Y-252921745D03*
X510550682Y-248824689D03*
D16*
X510550682Y-251224689D03*
D15*
X510550682Y-253624689D03*
X512247738Y-249527633D03*
X512247738Y-252921745D03*
X512950682Y-251224689D03*
%TD*%
D42*
%TO.C,K501*%
X108280682Y-568763023D03*
X100660682Y-568763023D03*
X108280682Y-558603023D03*
X108280682Y-550983023D03*
%TD*%
D15*
%TO.C,H408*%
X178670682Y-761298023D03*
X179373626Y-759600967D03*
X179373626Y-762995079D03*
X181070682Y-758898023D03*
D16*
X181070682Y-761298023D03*
D15*
X181070682Y-763698023D03*
X182767738Y-759600967D03*
X182767738Y-762995079D03*
X183470682Y-761298023D03*
%TD*%
D34*
%TO.C,SW301*%
X419680682Y-750368023D03*
X424680682Y-750368023D03*
D35*
X419680682Y-745368023D03*
X424680682Y-745368023D03*
X419680682Y-740368023D03*
X424680682Y-740368023D03*
%TD*%
D34*
%TO.C,J203*%
X582919716Y-659329982D03*
X587919716Y-659329982D03*
D35*
X582919716Y-654329982D03*
X587919716Y-654329982D03*
X582919716Y-649329982D03*
X587919716Y-649329982D03*
%TD*%
D15*
%TO.C,H108*%
X88300682Y-755374689D03*
X89003626Y-753677633D03*
X89003626Y-757071745D03*
X90700682Y-752974689D03*
D16*
X90700682Y-755374689D03*
D15*
X90700682Y-757774689D03*
X92397738Y-753677633D03*
X92397738Y-757071745D03*
X93100682Y-755374689D03*
%TD*%
D23*
%TO.C,R508*%
X184900682Y-606048023D03*
X184900682Y-603123023D03*
%TD*%
%TO.C,R510*%
X198020682Y-577760523D03*
X198020682Y-574835523D03*
%TD*%
D40*
%TO.C,R305*%
X412725682Y-750038023D03*
X409800682Y-750038023D03*
%TD*%
D14*
%TO.C,U412*%
X341090682Y-712948023D03*
X342360682Y-712948023D03*
X343630682Y-712948023D03*
X344900682Y-712948023D03*
X346170682Y-712948023D03*
X347440682Y-712948023D03*
X348710682Y-712948023D03*
X348710682Y-707998023D03*
X347440682Y-707998023D03*
X346170682Y-707998023D03*
X344900682Y-707998023D03*
X343630682Y-707998023D03*
X342360682Y-707998023D03*
X341090682Y-707998023D03*
%TD*%
D23*
%TO.C,R516*%
X279020682Y-577760523D03*
X279020682Y-574835523D03*
%TD*%
D34*
%TO.C,RV301*%
X301235682Y-763010523D03*
X306235682Y-763010523D03*
D35*
X301235682Y-758010523D03*
X306235682Y-758010523D03*
X301235682Y-753010523D03*
X306235682Y-753010523D03*
%TD*%
D15*
%TO.C,H108*%
X88320682Y-615373023D03*
X89023626Y-613675967D03*
X89023626Y-617070079D03*
X90720682Y-612973023D03*
D16*
X90720682Y-615373023D03*
D15*
X90720682Y-617773023D03*
X92417738Y-613675967D03*
X92417738Y-617070079D03*
X93120682Y-615373023D03*
%TD*%
D23*
%TO.C,R303*%
X294485682Y-763010523D03*
X294485682Y-760085523D03*
%TD*%
D63*
%TO.C,D302*%
X270160682Y-766198023D03*
D64*
X271810682Y-766198023D03*
D65*
X272110682Y-766198023D03*
%TD*%
D23*
%TO.C,R505*%
X103970682Y-592348023D03*
X103970682Y-589423023D03*
%TD*%
D24*
%TO.C,J115*%
X960539716Y-686109982D03*
D25*
X960539716Y-683569982D03*
X957999716Y-686109982D03*
X957999716Y-683569982D03*
X955459716Y-686109982D03*
X955459716Y-683569982D03*
X952919716Y-686109982D03*
X952919716Y-683569982D03*
X950379716Y-686109982D03*
X950379716Y-683569982D03*
%TD*%
D30*
%TO.C,C509*%
X268970682Y-591623023D03*
X268970682Y-589723023D03*
%TD*%
D15*
%TO.C,H159*%
X388150682Y-307058022D03*
X388853626Y-305360966D03*
X388853626Y-308755078D03*
X390550682Y-304658022D03*
D16*
X390550682Y-307058022D03*
D15*
X390550682Y-309458022D03*
X392247738Y-305360966D03*
X392247738Y-308755078D03*
X392950682Y-307058022D03*
%TD*%
D18*
%TO.C,J508*%
X265470682Y-539623023D03*
X265470682Y-544623023D03*
D19*
X270470682Y-539623023D03*
X270470682Y-544623023D03*
%TD*%
D15*
%TO.C,H108*%
X138320682Y-564539689D03*
X139023626Y-562842633D03*
X139023626Y-566236745D03*
X140720682Y-562139689D03*
D16*
X140720682Y-564539689D03*
D15*
X140720682Y-566939689D03*
X142417738Y-562842633D03*
X142417738Y-566236745D03*
X143120682Y-564539689D03*
%TD*%
D27*
%TO.C,D519*%
X451270682Y-597098023D03*
X447970682Y-597098023D03*
%TD*%
D15*
%TO.C,H173*%
X498150682Y-251224689D03*
X498853626Y-249527633D03*
X498853626Y-252921745D03*
X500550682Y-248824689D03*
D16*
X500550682Y-251224689D03*
D15*
X500550682Y-253624689D03*
X502247738Y-249527633D03*
X502247738Y-252921745D03*
X502950682Y-251224689D03*
%TD*%
D47*
%TO.C,R530*%
X452045682Y-590123023D03*
X454970682Y-590123023D03*
%TD*%
D18*
%TO.C,J504*%
X108260682Y-669798023D03*
X108260682Y-674798023D03*
D19*
X113260682Y-669798023D03*
X113260682Y-674798023D03*
%TD*%
D43*
%TO.C,C417*%
X372300682Y-746214689D03*
X372300682Y-747174689D03*
%TD*%
D15*
%TO.C,H278*%
X894500000Y-507050000D03*
X895202944Y-505352944D03*
X895202944Y-508747056D03*
X896900000Y-504650000D03*
D16*
X896900000Y-507050000D03*
D15*
X896900000Y-509450000D03*
X898597056Y-505352944D03*
X898597056Y-508747056D03*
X899300000Y-507050000D03*
%TD*%
D66*
%TO.C,U301*%
X289260682Y-764855523D03*
X289260682Y-766125523D03*
X289260682Y-767395523D03*
X289260682Y-768665523D03*
X294210682Y-768665523D03*
X294210682Y-767395523D03*
X294210682Y-766125523D03*
X294210682Y-764855523D03*
%TD*%
D22*
%TO.C,C418*%
X356520682Y-734048023D03*
X355560682Y-734048023D03*
%TD*%
D24*
%TO.C,J118*%
X622409716Y-703309982D03*
D25*
X624949716Y-703309982D03*
X622409716Y-705849982D03*
X624949716Y-705849982D03*
X622409716Y-708389982D03*
X624949716Y-708389982D03*
X622409716Y-710929982D03*
X624949716Y-710929982D03*
X622409716Y-713469982D03*
X624949716Y-713469982D03*
X622409716Y-716009982D03*
X624949716Y-716009982D03*
X622409716Y-718549982D03*
X624949716Y-718549982D03*
X622409716Y-721089982D03*
X624949716Y-721089982D03*
X622409716Y-723629982D03*
X624949716Y-723629982D03*
X622409716Y-726169982D03*
X624949716Y-726169982D03*
X622409716Y-728709982D03*
X624949716Y-728709982D03*
X622409716Y-731249982D03*
X624949716Y-731249982D03*
X622409716Y-733789982D03*
X624949716Y-733789982D03*
X622409716Y-736329982D03*
X624949716Y-736329982D03*
X622409716Y-738869982D03*
X624949716Y-738869982D03*
X622409716Y-741409982D03*
X624949716Y-741409982D03*
X622409716Y-743949982D03*
X624949716Y-743949982D03*
X622409716Y-746489982D03*
X624949716Y-746489982D03*
X622409716Y-749029982D03*
X624949716Y-749029982D03*
X622409716Y-751569982D03*
X624949716Y-751569982D03*
X622409716Y-754109982D03*
X624949716Y-754109982D03*
X622409716Y-756649982D03*
X624949716Y-756649982D03*
X622409716Y-759189982D03*
X624949716Y-759189982D03*
X622409716Y-761729982D03*
X624949716Y-761729982D03*
X622409716Y-764269982D03*
X624949716Y-764269982D03*
X622409716Y-766809982D03*
X624949716Y-766809982D03*
X622409716Y-769349982D03*
X624949716Y-769349982D03*
X622409716Y-771889982D03*
X624949716Y-771889982D03*
X622409716Y-774429982D03*
X624949716Y-774429982D03*
X622409716Y-776969982D03*
X624949716Y-776969982D03*
X622409716Y-779509982D03*
X624949716Y-779509982D03*
X622409716Y-782049982D03*
X624949716Y-782049982D03*
%TD*%
D58*
%TO.C,TP203*%
X331910682Y-782223023D03*
%TD*%
D15*
%TO.C,H149*%
X328150682Y-307058022D03*
X328853626Y-305360966D03*
X328853626Y-308755078D03*
X330550682Y-304658022D03*
D16*
X330550682Y-307058022D03*
D15*
X330550682Y-309458022D03*
X332247738Y-305360966D03*
X332247738Y-308755078D03*
X332950682Y-307058022D03*
%TD*%
%TO.C,H221*%
X258150682Y-171224689D03*
X258853626Y-169527633D03*
X258853626Y-172921745D03*
X260550682Y-168824689D03*
D16*
X260550682Y-171224689D03*
D15*
X260550682Y-173624689D03*
X262247738Y-169527633D03*
X262247738Y-172921745D03*
X262950682Y-171224689D03*
%TD*%
D18*
%TO.C,J504*%
X228260682Y-669798023D03*
X228260682Y-674798023D03*
D19*
X233260682Y-669798023D03*
X233260682Y-674798023D03*
%TD*%
D15*
%TO.C,H108*%
X558300682Y-643708023D03*
X559003626Y-642010967D03*
X559003626Y-645405079D03*
X560700682Y-641308023D03*
D16*
X560700682Y-643708023D03*
D15*
X560700682Y-646108023D03*
X562397738Y-642010967D03*
X562397738Y-645405079D03*
X563100682Y-643708023D03*
%TD*%
%TO.C,H125*%
X208150682Y-413724689D03*
X208853626Y-412027633D03*
X208853626Y-415421745D03*
X210550682Y-411324689D03*
D16*
X210550682Y-413724689D03*
D15*
X210550682Y-416124689D03*
X212247738Y-412027633D03*
X212247738Y-415421745D03*
X212950682Y-413724689D03*
%TD*%
D23*
%TO.C,R104*%
X432880682Y-708548023D03*
X432880682Y-705623023D03*
%TD*%
D47*
%TO.C,R524*%
X371045682Y-590123023D03*
X373970682Y-590123023D03*
%TD*%
D27*
%TO.C,D503*%
X127270682Y-597098023D03*
X123970682Y-597098023D03*
%TD*%
D15*
%TO.C,H172*%
X300320682Y-508706356D03*
X301023626Y-507009300D03*
X301023626Y-510403412D03*
X302720682Y-506306356D03*
D16*
X302720682Y-508706356D03*
D15*
X302720682Y-511106356D03*
X304417738Y-507009300D03*
X304417738Y-510403412D03*
X305120682Y-508706356D03*
%TD*%
D27*
%TO.C,D515*%
X370270682Y-597098023D03*
X366970682Y-597098023D03*
%TD*%
D24*
%TO.C,JP202*%
X595789716Y-647319982D03*
D25*
X598329716Y-647319982D03*
%TD*%
D15*
%TO.C,H254*%
X732500000Y-507050000D03*
X733202944Y-505352944D03*
X733202944Y-508747056D03*
X734900000Y-504650000D03*
D16*
X734900000Y-507050000D03*
D15*
X734900000Y-509450000D03*
X736597056Y-505352944D03*
X736597056Y-508747056D03*
X737300000Y-507050000D03*
%TD*%
D23*
%TO.C,R517*%
X265970682Y-592348023D03*
X265970682Y-589423023D03*
%TD*%
D34*
%TO.C,J119*%
X460730682Y-722398023D03*
X465730682Y-722398023D03*
D35*
X460730682Y-717398023D03*
X465730682Y-717398023D03*
%TD*%
D15*
%TO.C,H203*%
X462320682Y-564539689D03*
X463023626Y-562842633D03*
X463023626Y-566236745D03*
X464720682Y-562139689D03*
D16*
X464720682Y-564539689D03*
D15*
X464720682Y-566939689D03*
X466417738Y-562842633D03*
X466417738Y-566236745D03*
X467120682Y-564539689D03*
%TD*%
D67*
%TO.C,U201*%
X320310682Y-793648023D03*
X320810682Y-793648023D03*
X321310682Y-793648023D03*
X321810682Y-793648023D03*
X322310682Y-793648023D03*
X322810682Y-793648023D03*
X323310682Y-793648023D03*
X323810682Y-793648023D03*
X323810682Y-789248023D03*
X323310682Y-789248023D03*
X322810682Y-789248023D03*
X322310682Y-789248023D03*
X321810682Y-789248023D03*
X321310682Y-789248023D03*
X320810682Y-789248023D03*
X320310682Y-789248023D03*
D68*
X322110682Y-791448023D03*
%TD*%
D15*
%TO.C,H108*%
X646500000Y-420750000D03*
X647202944Y-419052944D03*
X647202944Y-422447056D03*
X648900000Y-418350000D03*
D16*
X648900000Y-420750000D03*
D15*
X648900000Y-423150000D03*
X650597056Y-419052944D03*
X650597056Y-422447056D03*
X651300000Y-420750000D03*
%TD*%
D17*
%TO.C,R202*%
X297985682Y-792773023D03*
X297985682Y-795698023D03*
%TD*%
D15*
%TO.C,H259*%
X769000000Y-586050000D03*
X769702944Y-584352944D03*
X769702944Y-587747056D03*
X771400000Y-583650000D03*
D16*
X771400000Y-586050000D03*
D15*
X771400000Y-588450000D03*
X773097056Y-584352944D03*
X773097056Y-587747056D03*
X773800000Y-586050000D03*
%TD*%
D14*
%TO.C,U415*%
X261270682Y-732348023D03*
X262540682Y-732348023D03*
X263810682Y-732348023D03*
X265080682Y-732348023D03*
X266350682Y-732348023D03*
X267620682Y-732348023D03*
X268890682Y-732348023D03*
X268890682Y-727398023D03*
X267620682Y-727398023D03*
X266350682Y-727398023D03*
X265080682Y-727398023D03*
X263810682Y-727398023D03*
X262540682Y-727398023D03*
X261270682Y-727398023D03*
%TD*%
D28*
%TO.C,C408*%
X363010682Y-749528023D03*
X363010682Y-748568023D03*
%TD*%
D15*
%TO.C,H108*%
X558300682Y-699541356D03*
X559003626Y-697844300D03*
X559003626Y-701238412D03*
X560700682Y-697141356D03*
D16*
X560700682Y-699541356D03*
D15*
X560700682Y-701941356D03*
X562397738Y-697844300D03*
X562397738Y-701238412D03*
X563100682Y-699541356D03*
%TD*%
D23*
%TO.C,R522*%
X360020682Y-577760523D03*
X360020682Y-574835523D03*
%TD*%
D21*
%TO.C,D114*%
X420920682Y-693198023D03*
X420920682Y-689898023D03*
%TD*%
D27*
%TO.C,D512*%
X267870682Y-571623023D03*
X264570682Y-571623023D03*
%TD*%
D23*
%TO.C,R519*%
X368820682Y-604823023D03*
X368820682Y-601898023D03*
%TD*%
D14*
%TO.C,U410*%
X365360682Y-713198023D03*
X366630682Y-713198023D03*
X367900682Y-713198023D03*
X369170682Y-713198023D03*
X370440682Y-713198023D03*
X371710682Y-713198023D03*
X372980682Y-713198023D03*
X372980682Y-708248023D03*
X371710682Y-708248023D03*
X370440682Y-708248023D03*
X369170682Y-708248023D03*
X367900682Y-708248023D03*
X366630682Y-708248023D03*
X365360682Y-708248023D03*
%TD*%
D15*
%TO.C,H280*%
X833902944Y-471997056D03*
X834605888Y-470300000D03*
X834605888Y-473694112D03*
X836302944Y-469597056D03*
D16*
X836302944Y-471997056D03*
D15*
X836302944Y-474397056D03*
X838000000Y-470300000D03*
X838000000Y-473694112D03*
X838702944Y-471997056D03*
%TD*%
D18*
%TO.C,J5*%
X963629716Y-669546648D03*
X963629716Y-674546648D03*
D19*
X968629716Y-669546648D03*
X968629716Y-674546648D03*
%TD*%
D15*
%TO.C,H181*%
X275300682Y-455874689D03*
X276003626Y-454177633D03*
X276003626Y-457571745D03*
X277700682Y-453474689D03*
D16*
X277700682Y-455874689D03*
D15*
X277700682Y-458274689D03*
X279397738Y-454177633D03*
X279397738Y-457571745D03*
X280100682Y-455874689D03*
%TD*%
%TO.C,H115*%
X148150682Y-413724689D03*
X148853626Y-412027633D03*
X148853626Y-415421745D03*
X150550682Y-411324689D03*
D16*
X150550682Y-413724689D03*
D15*
X150550682Y-416124689D03*
X152247738Y-412027633D03*
X152247738Y-415421745D03*
X152950682Y-413724689D03*
%TD*%
%TO.C,H210*%
X200621872Y-423729689D03*
X201324816Y-422032633D03*
X201324816Y-425426745D03*
X203021872Y-421329689D03*
D16*
X203021872Y-423729689D03*
D15*
X203021872Y-426129689D03*
X204718928Y-422032633D03*
X204718928Y-425426745D03*
X205421872Y-423729689D03*
%TD*%
D14*
%TO.C,U401*%
X394640682Y-732498023D03*
X395910682Y-732498023D03*
X397180682Y-732498023D03*
X398450682Y-732498023D03*
X399720682Y-732498023D03*
X400990682Y-732498023D03*
X402260682Y-732498023D03*
X402260682Y-727548023D03*
X400990682Y-727548023D03*
X399720682Y-727548023D03*
X398450682Y-727548023D03*
X397180682Y-727548023D03*
X395910682Y-727548023D03*
X394640682Y-727548023D03*
%TD*%
D39*
%TO.C,C310*%
X272985682Y-776698023D03*
X271085682Y-776698023D03*
%TD*%
D18*
%TO.C,J503*%
X243410682Y-669798023D03*
X243410682Y-674798023D03*
D19*
X248410682Y-669798023D03*
X248410682Y-674798023D03*
%TD*%
D15*
%TO.C,H261*%
X769000000Y-548050000D03*
X769702944Y-546352944D03*
X769702944Y-549747056D03*
X771400000Y-545650000D03*
D16*
X771400000Y-548050000D03*
D15*
X771400000Y-550450000D03*
X773097056Y-546352944D03*
X773097056Y-549747056D03*
X773800000Y-548050000D03*
%TD*%
D18*
%TO.C,J504*%
X348260682Y-669798023D03*
X348260682Y-674798023D03*
D19*
X353260682Y-669798023D03*
X353260682Y-674798023D03*
%TD*%
D18*
%TO.C,J512*%
X427470682Y-539623023D03*
X427470682Y-544623023D03*
D19*
X432470682Y-539623023D03*
X432470682Y-544623023D03*
%TD*%
D15*
%TO.C,H134*%
X258150682Y-251224689D03*
X258853626Y-249527633D03*
X258853626Y-252921745D03*
X260550682Y-248824689D03*
D16*
X260550682Y-251224689D03*
D15*
X260550682Y-253624689D03*
X262247738Y-249527633D03*
X262247738Y-252921745D03*
X262950682Y-251224689D03*
%TD*%
%TO.C,H108*%
X1040302944Y-699513315D03*
X1041005888Y-697816259D03*
X1041005888Y-701210371D03*
X1042702944Y-697113315D03*
D16*
X1042702944Y-699513315D03*
D15*
X1042702944Y-701913315D03*
X1044400000Y-697816259D03*
X1044400000Y-701210371D03*
X1045102944Y-699513315D03*
%TD*%
D24*
%TO.C,J110*%
X660909716Y-686019982D03*
D25*
X660909716Y-683479982D03*
X658369716Y-686019982D03*
X658369716Y-683479982D03*
X655829716Y-686019982D03*
X655829716Y-683479982D03*
X653289716Y-686019982D03*
X653289716Y-683479982D03*
X650749716Y-686019982D03*
X650749716Y-683479982D03*
%TD*%
D21*
%TO.C,D116*%
X541020682Y-693198023D03*
X541020682Y-689898023D03*
%TD*%
D15*
%TO.C,H108*%
X1040302944Y-643679982D03*
X1041005888Y-641982926D03*
X1041005888Y-645377038D03*
X1042702944Y-641279982D03*
D16*
X1042702944Y-643679982D03*
D15*
X1042702944Y-646079982D03*
X1044400000Y-641982926D03*
X1044400000Y-645377038D03*
X1045102944Y-643679982D03*
%TD*%
%TO.C,H108*%
X248300682Y-699541356D03*
X249003626Y-697844300D03*
X249003626Y-701238412D03*
X250700682Y-697141356D03*
D16*
X250700682Y-699541356D03*
D15*
X250700682Y-701941356D03*
X252397738Y-697844300D03*
X252397738Y-701238412D03*
X253100682Y-699541356D03*
%TD*%
D18*
%TO.C,J16*%
X663529716Y-669746648D03*
X663529716Y-674746648D03*
D19*
X668529716Y-669746648D03*
X668529716Y-674746648D03*
%TD*%
D69*
%TO.C,D203*%
X319910682Y-786860523D03*
X322710682Y-786860523D03*
%TD*%
D26*
%TO.C,C307*%
X268485682Y-772798023D03*
X268485682Y-774698023D03*
%TD*%
D24*
%TO.C,J106*%
X419820682Y-685988023D03*
D25*
X419820682Y-683448023D03*
X417280682Y-685988023D03*
X417280682Y-683448023D03*
X414740682Y-685988023D03*
X414740682Y-683448023D03*
X412200682Y-685988023D03*
X412200682Y-683448023D03*
X409660682Y-685988023D03*
X409660682Y-683448023D03*
%TD*%
D34*
%TO.C,SW401*%
X405630682Y-763435523D03*
X400630682Y-763435523D03*
D35*
X405630682Y-768435523D03*
X400630682Y-768435523D03*
%TD*%
D23*
%TO.C,R302*%
X294485682Y-758185523D03*
X294485682Y-755260523D03*
%TD*%
D14*
%TO.C,U403*%
X331650682Y-750323023D03*
X332920682Y-750323023D03*
X334190682Y-750323023D03*
X335460682Y-750323023D03*
X336730682Y-750323023D03*
X338000682Y-750323023D03*
X339270682Y-750323023D03*
X339270682Y-745373023D03*
X338000682Y-745373023D03*
X336730682Y-745373023D03*
X335460682Y-745373023D03*
X334190682Y-745373023D03*
X332920682Y-745373023D03*
X331650682Y-745373023D03*
%TD*%
D15*
%TO.C,H108*%
X1040302944Y-755346648D03*
X1041005888Y-753649592D03*
X1041005888Y-757043704D03*
X1042702944Y-752946648D03*
D16*
X1042702944Y-755346648D03*
D15*
X1042702944Y-757746648D03*
X1044400000Y-753649592D03*
X1044400000Y-757043704D03*
X1045102944Y-755346648D03*
%TD*%
%TO.C,H129*%
X208150682Y-307058022D03*
X208853626Y-305360966D03*
X208853626Y-308755078D03*
X210550682Y-304658022D03*
D16*
X210550682Y-307058022D03*
D15*
X210550682Y-309458022D03*
X212247738Y-305360966D03*
X212247738Y-308755078D03*
X212950682Y-307058022D03*
%TD*%
D26*
%TO.C,C502*%
X117320682Y-582548023D03*
X117320682Y-584448023D03*
%TD*%
D43*
%TO.C,C411*%
X329260682Y-746068023D03*
X329260682Y-747028023D03*
%TD*%
D21*
%TO.C,D108*%
X534520682Y-693198023D03*
X534520682Y-689898023D03*
%TD*%
D15*
%TO.C,H117*%
X148150682Y-362891355D03*
X148853626Y-361194299D03*
X148853626Y-364588411D03*
X150550682Y-360491355D03*
D16*
X150550682Y-362891355D03*
D15*
X150550682Y-365291355D03*
X152247738Y-361194299D03*
X152247738Y-364588411D03*
X152950682Y-362891355D03*
%TD*%
D28*
%TO.C,C203*%
X318735682Y-791110523D03*
X318735682Y-790150523D03*
%TD*%
D15*
%TO.C,H268*%
X752902944Y-471997056D03*
X753605888Y-470300000D03*
X753605888Y-473694112D03*
X755302944Y-469597056D03*
D16*
X755302944Y-471997056D03*
D15*
X755302944Y-474397056D03*
X757000000Y-470300000D03*
X757000000Y-473694112D03*
X757702944Y-471997056D03*
%TD*%
D20*
%TO.C,U302*%
X274235682Y-769248023D03*
X272965682Y-769248023D03*
X271695682Y-769248023D03*
X270425682Y-769248023D03*
X270425682Y-774198023D03*
X271695682Y-774198023D03*
X272965682Y-774198023D03*
X274235682Y-774198023D03*
%TD*%
D15*
%TO.C,H167*%
X448150682Y-362891355D03*
X448853626Y-361194299D03*
X448853626Y-364588411D03*
X450550682Y-360491355D03*
D16*
X450550682Y-362891355D03*
D15*
X450550682Y-365291355D03*
X452247738Y-361194299D03*
X452247738Y-364588411D03*
X452950682Y-362891355D03*
%TD*%
%TO.C,H139*%
X268150682Y-307058022D03*
X268853626Y-305360966D03*
X268853626Y-308755078D03*
X270550682Y-304658022D03*
D16*
X270550682Y-307058022D03*
D15*
X270550682Y-309458022D03*
X272247738Y-305360966D03*
X272247738Y-308755078D03*
X272950682Y-307058022D03*
%TD*%
D47*
%TO.C,R308*%
X274735682Y-776698023D03*
X277660682Y-776698023D03*
%TD*%
D22*
%TO.C,C407*%
X313270682Y-734048023D03*
X312310682Y-734048023D03*
%TD*%
D18*
%TO.C,SW512*%
X346320682Y-578873023D03*
X346320682Y-583873023D03*
D19*
X351320682Y-578873023D03*
X351320682Y-583873023D03*
%TD*%
D34*
%TO.C,U503*%
X285470682Y-568523023D03*
X290470682Y-568523023D03*
D35*
X285470682Y-563523023D03*
X290470682Y-563523023D03*
X285470682Y-558523023D03*
X290470682Y-558523023D03*
X285470682Y-553523023D03*
X290470682Y-553523023D03*
%TD*%
D15*
%TO.C,H262*%
X807000000Y-548050000D03*
X807702944Y-546352944D03*
X807702944Y-549747056D03*
X809400000Y-545650000D03*
D16*
X809400000Y-548050000D03*
D15*
X809400000Y-550450000D03*
X811097056Y-546352944D03*
X811097056Y-549747056D03*
X811800000Y-548050000D03*
%TD*%
%TO.C,H271*%
X850000000Y-586050000D03*
X850702944Y-584352944D03*
X850702944Y-587747056D03*
X852400000Y-583650000D03*
D16*
X852400000Y-586050000D03*
D15*
X852400000Y-588450000D03*
X854097056Y-584352944D03*
X854097056Y-587747056D03*
X854800000Y-586050000D03*
%TD*%
%TO.C,H243*%
X660950000Y-472050000D03*
X661652944Y-470352944D03*
X661652944Y-473747056D03*
X663350000Y-469650000D03*
D16*
X663350000Y-472050000D03*
D15*
X663350000Y-474450000D03*
X665047056Y-470352944D03*
X665047056Y-473747056D03*
X665750000Y-472050000D03*
%TD*%
D27*
%TO.C,D508*%
X186870682Y-571623023D03*
X183570682Y-571623023D03*
%TD*%
D47*
%TO.C,R301*%
X284023182Y-771510523D03*
X286948182Y-771510523D03*
%TD*%
D21*
%TO.C,D121*%
X841749716Y-693169982D03*
X841749716Y-689869982D03*
%TD*%
D15*
%TO.C,H218*%
X148150682Y-171224689D03*
X148853626Y-169527633D03*
X148853626Y-172921745D03*
X150550682Y-168824689D03*
D16*
X150550682Y-171224689D03*
D15*
X150550682Y-173624689D03*
X152247738Y-169527633D03*
X152247738Y-172921745D03*
X152950682Y-171224689D03*
%TD*%
D18*
%TO.C,SW501*%
X112820682Y-597623023D03*
X112820682Y-602623023D03*
D19*
X117820682Y-597623023D03*
X117820682Y-602623023D03*
%TD*%
D15*
%TO.C,H108*%
X138320682Y-508706356D03*
X139023626Y-507009300D03*
X139023626Y-510403412D03*
X140720682Y-506306356D03*
D16*
X140720682Y-508706356D03*
D15*
X140720682Y-511106356D03*
X142417738Y-507009300D03*
X142417738Y-510403412D03*
X143120682Y-508706356D03*
%TD*%
%TO.C,H144*%
X250320682Y-615373023D03*
X251023626Y-613675967D03*
X251023626Y-617070079D03*
X252720682Y-612973023D03*
D16*
X252720682Y-615373023D03*
D15*
X252720682Y-617773023D03*
X254417738Y-613675967D03*
X254417738Y-617070079D03*
X255120682Y-615373023D03*
%TD*%
%TO.C,H148*%
X378150682Y-362891355D03*
X378853626Y-361194299D03*
X378853626Y-364588411D03*
X380550682Y-360491355D03*
D16*
X380550682Y-362891355D03*
D15*
X380550682Y-365291355D03*
X382247738Y-361194299D03*
X382247738Y-364588411D03*
X382950682Y-362891355D03*
%TD*%
D24*
%TO.C,JP201*%
X113775682Y-646808023D03*
D25*
X116315682Y-646808023D03*
%TD*%
D70*
%TO.C,U406*%
X336715682Y-764798023D03*
X337985682Y-764798023D03*
X339255682Y-764798023D03*
X340525682Y-764798023D03*
X341795682Y-764798023D03*
X343065682Y-764798023D03*
X344335682Y-764798023D03*
X345605682Y-764798023D03*
X345605682Y-758298023D03*
X344335682Y-758298023D03*
X343065682Y-758298023D03*
X341795682Y-758298023D03*
X340525682Y-758298023D03*
X339255682Y-758298023D03*
X337985682Y-758298023D03*
X336715682Y-758298023D03*
%TD*%
D18*
%TO.C,J14*%
X603529716Y-669846648D03*
X603529716Y-674846648D03*
D19*
X608529716Y-669846648D03*
X608529716Y-674846648D03*
%TD*%
D18*
%TO.C,J504*%
X468260682Y-669798023D03*
X468260682Y-674798023D03*
D19*
X473260682Y-669798023D03*
X473260682Y-674798023D03*
%TD*%
D71*
%TO.C,D201*%
X279735682Y-785613023D03*
X279735682Y-787013023D03*
%TD*%
D15*
%TO.C,H127*%
X208150682Y-362891355D03*
X208853626Y-361194299D03*
X208853626Y-364588411D03*
X210550682Y-360491355D03*
D16*
X210550682Y-362891355D03*
D15*
X210550682Y-365291355D03*
X212247738Y-361194299D03*
X212247738Y-364588411D03*
X212950682Y-362891355D03*
%TD*%
D72*
%TO.C,C302*%
X299235682Y-769260523D03*
X299235682Y-774660523D03*
%TD*%
D23*
%TO.C,R203*%
X325910682Y-785048023D03*
X325910682Y-782123023D03*
%TD*%
D14*
%TO.C,U411*%
X308630682Y-732274689D03*
X309900682Y-732274689D03*
X311170682Y-732274689D03*
X312440682Y-732274689D03*
X313710682Y-732274689D03*
X314980682Y-732274689D03*
X316250682Y-732274689D03*
X316250682Y-727324689D03*
X314980682Y-727324689D03*
X313710682Y-727324689D03*
X312440682Y-727324689D03*
X311170682Y-727324689D03*
X309900682Y-727324689D03*
X308630682Y-727324689D03*
%TD*%
D15*
%TO.C,H108*%
X519500000Y-507050000D03*
X520202944Y-505352944D03*
X520202944Y-508747056D03*
X521900000Y-504650000D03*
D16*
X521900000Y-507050000D03*
D15*
X521900000Y-509450000D03*
X523597056Y-505352944D03*
X523597056Y-508747056D03*
X524300000Y-507050000D03*
%TD*%
%TO.C,H279*%
X903950000Y-472050000D03*
X904652944Y-470352944D03*
X904652944Y-473747056D03*
X906350000Y-469650000D03*
D16*
X906350000Y-472050000D03*
D15*
X906350000Y-474450000D03*
X908047056Y-470352944D03*
X908047056Y-473747056D03*
X908750000Y-472050000D03*
%TD*%
D17*
%TO.C,R102*%
X432980682Y-699973023D03*
X432980682Y-702898023D03*
%TD*%
D28*
%TO.C,C507*%
X287320682Y-594378023D03*
X287320682Y-593418023D03*
%TD*%
D18*
%TO.C,J6*%
X948679716Y-669546648D03*
X948679716Y-674546648D03*
D19*
X953679716Y-669546648D03*
X953679716Y-674546648D03*
%TD*%
D23*
%TO.C,R526*%
X427900682Y-606048023D03*
X427900682Y-603123023D03*
%TD*%
D15*
%TO.C,H156*%
X438150682Y-413724689D03*
X438853626Y-412027633D03*
X438853626Y-415421745D03*
X440550682Y-411324689D03*
D16*
X440550682Y-413724689D03*
D15*
X440550682Y-416124689D03*
X442247738Y-412027633D03*
X442247738Y-415421745D03*
X442950682Y-413724689D03*
%TD*%
D28*
%TO.C,C510*%
X368320682Y-594378023D03*
X368320682Y-593418023D03*
%TD*%
D24*
%TO.C,J113*%
X840889716Y-686119982D03*
D25*
X840889716Y-683579982D03*
X838349716Y-686119982D03*
X838349716Y-683579982D03*
X835809716Y-686119982D03*
X835809716Y-683579982D03*
X833269716Y-686119982D03*
X833269716Y-683579982D03*
X830729716Y-686119982D03*
X830729716Y-683579982D03*
%TD*%
D18*
%TO.C,SW507*%
X274820682Y-597623023D03*
X274820682Y-602623023D03*
D19*
X279820682Y-597623023D03*
X279820682Y-602623023D03*
%TD*%
D24*
%TO.C,J505*%
X190640682Y-611998023D03*
D25*
X190640682Y-609458023D03*
X193180682Y-611998023D03*
X193180682Y-609458023D03*
X195720682Y-611998023D03*
X195720682Y-609458023D03*
X198260682Y-611998023D03*
X198260682Y-609458023D03*
X200800682Y-611998023D03*
X200800682Y-609458023D03*
%TD*%
D73*
%TO.C,RV502*%
X192910682Y-588123023D03*
X200410682Y-588123023D03*
X192910682Y-522123023D03*
X200410682Y-522123023D03*
X197910682Y-590123023D03*
X200410682Y-590123023D03*
X197910682Y-520123023D03*
X192910682Y-590123023D03*
X195410682Y-590123023D03*
D74*
X196660682Y-580123023D03*
X196660682Y-532623023D03*
D73*
X192910682Y-520123023D03*
%TD*%
%TO.C,RV503*%
X273910682Y-588123023D03*
X281410682Y-588123023D03*
X273910682Y-522123023D03*
X281410682Y-522123023D03*
X278910682Y-590123023D03*
X281410682Y-590123023D03*
X278910682Y-520123023D03*
X273910682Y-590123023D03*
X276410682Y-590123023D03*
D74*
X277660682Y-580123023D03*
X277660682Y-532623023D03*
D73*
X273910682Y-520123023D03*
%TD*%
D75*
%TO.C,D518*%
X438400682Y-513348023D03*
D76*
X440940682Y-513348023D03*
%TD*%
D24*
%TO.C,J511*%
X433640682Y-611998023D03*
D25*
X433640682Y-609458023D03*
X436180682Y-611998023D03*
X436180682Y-609458023D03*
X438720682Y-611998023D03*
X438720682Y-609458023D03*
X441260682Y-611998023D03*
X441260682Y-609458023D03*
X443800682Y-611998023D03*
X443800682Y-609458023D03*
%TD*%
D75*
%TO.C,D514*%
X357400682Y-513348023D03*
D76*
X359940682Y-513348023D03*
%TD*%
D73*
%TO.C,RV501*%
X111910682Y-588123023D03*
X119410682Y-588123023D03*
X111910682Y-522123023D03*
X119410682Y-522123023D03*
X116910682Y-590123023D03*
X119410682Y-590123023D03*
X116910682Y-520123023D03*
X111910682Y-590123023D03*
X114410682Y-590123023D03*
D74*
X115660682Y-580123023D03*
X115660682Y-532623023D03*
D73*
X111910682Y-520123023D03*
%TD*%
D75*
%TO.C,D502*%
X114400682Y-513348023D03*
D76*
X116940682Y-513348023D03*
%TD*%
D24*
%TO.C,J509*%
X352640682Y-611998023D03*
D25*
X352640682Y-609458023D03*
X355180682Y-611998023D03*
X355180682Y-609458023D03*
X357720682Y-611998023D03*
X357720682Y-609458023D03*
X360260682Y-611998023D03*
X360260682Y-609458023D03*
X362800682Y-611998023D03*
X362800682Y-609458023D03*
%TD*%
D75*
%TO.C,D506*%
X195400682Y-513348023D03*
D76*
X197940682Y-513348023D03*
%TD*%
D73*
%TO.C,RV504*%
X354910682Y-588123023D03*
X362410682Y-588123023D03*
X354910682Y-522123023D03*
X362410682Y-522123023D03*
X359910682Y-590123023D03*
X362410682Y-590123023D03*
X359910682Y-520123023D03*
X354910682Y-590123023D03*
X357410682Y-590123023D03*
D74*
X358660682Y-580123023D03*
X358660682Y-532623023D03*
D73*
X354910682Y-520123023D03*
%TD*%
%TO.C,RV505*%
X435910682Y-588123023D03*
X443410682Y-588123023D03*
X435910682Y-522123023D03*
X443410682Y-522123023D03*
X440910682Y-590123023D03*
X443410682Y-590123023D03*
X440910682Y-520123023D03*
X435910682Y-590123023D03*
X438410682Y-590123023D03*
D74*
X439660682Y-580123023D03*
X439660682Y-532623023D03*
D73*
X435910682Y-520123023D03*
%TD*%
D75*
%TO.C,D510*%
X276400682Y-513348023D03*
D76*
X278940682Y-513348023D03*
%TD*%
D24*
%TO.C,J501*%
X109640682Y-611998023D03*
D25*
X109640682Y-609458023D03*
X112180682Y-611998023D03*
X112180682Y-609458023D03*
X114720682Y-611998023D03*
X114720682Y-609458023D03*
X117260682Y-611998023D03*
X117260682Y-609458023D03*
X119800682Y-611998023D03*
X119800682Y-609458023D03*
%TD*%
D24*
%TO.C,J507*%
X271640682Y-611998023D03*
D25*
X271640682Y-609458023D03*
X274180682Y-611998023D03*
X274180682Y-609458023D03*
X276720682Y-611998023D03*
X276720682Y-609458023D03*
X279260682Y-611998023D03*
X279260682Y-609458023D03*
X281800682Y-611998023D03*
X281800682Y-609458023D03*
%TD*%
M02*
