%TF.GenerationSoftware,KiCad,Pcbnew,7.0.8*%
%TF.CreationDate,2023-11-15T13:51:47+01:00*%
%TF.ProjectId,module-rev1,6d6f6475-6c65-42d7-9265-76312e6b6963,rev?*%
%TF.SameCoordinates,Original*%
%TF.FileFunction,Copper,L1,Top*%
%TF.FilePolarity,Positive*%
%FSLAX46Y46*%
G04 Gerber Fmt 4.6, Leading zero omitted, Abs format (unit mm)*
G04 Created by KiCad (PCBNEW 7.0.8) date 2023-11-15 13:51:47*
%MOMM*%
%LPD*%
G01*
G04 APERTURE LIST*
G04 Aperture macros list*
%AMRoundRect*
0 Rectangle with rounded corners*
0 $1 Rounding radius*
0 $2 $3 $4 $5 $6 $7 $8 $9 X,Y pos of 4 corners*
0 Add a 4 corners polygon primitive as box body*
4,1,4,$2,$3,$4,$5,$6,$7,$8,$9,$2,$3,0*
0 Add four circle primitives for the rounded corners*
1,1,$1+$1,$2,$3*
1,1,$1+$1,$4,$5*
1,1,$1+$1,$6,$7*
1,1,$1+$1,$8,$9*
0 Add four rect primitives between the rounded corners*
20,1,$1+$1,$2,$3,$4,$5,0*
20,1,$1+$1,$4,$5,$6,$7,0*
20,1,$1+$1,$6,$7,$8,$9,0*
20,1,$1+$1,$8,$9,$2,$3,0*%
G04 Aperture macros list end*
%TA.AperFunction,ComponentPad*%
%ADD10R,1.500000X3.000000*%
%TD*%
%TA.AperFunction,ComponentPad*%
%ADD11O,1.500000X3.000000*%
%TD*%
%TA.AperFunction,ComponentPad*%
%ADD12C,0.800000*%
%TD*%
%TA.AperFunction,ComponentPad*%
%ADD13C,6.400000*%
%TD*%
%TA.AperFunction,SMDPad,CuDef*%
%ADD14RoundRect,0.250000X0.625000X-0.312500X0.625000X0.312500X-0.625000X0.312500X-0.625000X-0.312500X0*%
%TD*%
%TA.AperFunction,ComponentPad*%
%ADD15R,3.000000X1.500000*%
%TD*%
%TA.AperFunction,ComponentPad*%
%ADD16O,3.000000X1.500000*%
%TD*%
%TA.AperFunction,SMDPad,CuDef*%
%ADD17RoundRect,0.250000X-0.312500X-0.625000X0.312500X-0.625000X0.312500X0.625000X-0.312500X0.625000X0*%
%TD*%
%TA.AperFunction,SMDPad,CuDef*%
%ADD18RoundRect,0.250000X0.475000X-0.250000X0.475000X0.250000X-0.475000X0.250000X-0.475000X-0.250000X0*%
%TD*%
%TA.AperFunction,SMDPad,CuDef*%
%ADD19RoundRect,0.225000X0.225000X0.375000X-0.225000X0.375000X-0.225000X-0.375000X0.225000X-0.375000X0*%
%TD*%
%TA.AperFunction,SMDPad,CuDef*%
%ADD20RoundRect,0.140000X0.170000X-0.140000X0.170000X0.140000X-0.170000X0.140000X-0.170000X-0.140000X0*%
%TD*%
%TA.AperFunction,SMDPad,CuDef*%
%ADD21RoundRect,0.250000X-0.625000X0.312500X-0.625000X-0.312500X0.625000X-0.312500X0.625000X0.312500X0*%
%TD*%
%TA.AperFunction,SMDPad,CuDef*%
%ADD22RoundRect,0.150000X-0.150000X0.587500X-0.150000X-0.587500X0.150000X-0.587500X0.150000X0.587500X0*%
%TD*%
%TA.AperFunction,SMDPad,CuDef*%
%ADD23RoundRect,0.225000X0.375000X-0.225000X0.375000X0.225000X-0.375000X0.225000X-0.375000X-0.225000X0*%
%TD*%
%TA.AperFunction,ComponentPad*%
%ADD24C,1.803400*%
%TD*%
%TA.AperFunction,SMDPad,CuDef*%
%ADD25RoundRect,0.250000X-0.475000X0.250000X-0.475000X-0.250000X0.475000X-0.250000X0.475000X0.250000X0*%
%TD*%
%TA.AperFunction,ComponentPad*%
%ADD26C,1.700000*%
%TD*%
%TA.AperFunction,ComponentPad*%
%ADD27C,2.400000*%
%TD*%
%TA.AperFunction,ComponentPad*%
%ADD28R,1.800000X1.800000*%
%TD*%
%TA.AperFunction,ComponentPad*%
%ADD29C,1.800000*%
%TD*%
%TA.AperFunction,ComponentPad*%
%ADD30R,1.700000X1.700000*%
%TD*%
%TA.AperFunction,ComponentPad*%
%ADD31O,1.700000X1.700000*%
%TD*%
%TA.AperFunction,ViaPad*%
%ADD32C,0.700000*%
%TD*%
%TA.AperFunction,Conductor*%
%ADD33C,0.349000*%
%TD*%
%TA.AperFunction,Conductor*%
%ADD34C,0.300000*%
%TD*%
%TA.AperFunction,Conductor*%
%ADD35C,0.500000*%
%TD*%
G04 APERTURE END LIST*
D10*
%TO.P,J502,1,Pin_1*%
%TO.N,Net-(J502-Pin_1)*%
X103470682Y-539623023D03*
X103470682Y-544623023D03*
D11*
%TO.P,J502,2,Pin_2*%
%TO.N,Net-(J502-Pin_2)*%
X108470682Y-539623023D03*
X108470682Y-544623023D03*
%TD*%
D12*
%TO.P,H108,1*%
%TO.N,N/C*%
X88320682Y-452873023D03*
X89023626Y-451175967D03*
X89023626Y-454570079D03*
X90720682Y-450473023D03*
D13*
X90720682Y-452873023D03*
D12*
X90720682Y-455273023D03*
X92417738Y-451175967D03*
X92417738Y-454570079D03*
X93120682Y-452873023D03*
%TD*%
%TO.P,H108,1*%
%TO.N,N/C*%
X138320682Y-452873023D03*
X139023626Y-451175967D03*
X139023626Y-454570079D03*
X140720682Y-450473023D03*
D13*
X140720682Y-452873023D03*
D12*
X140720682Y-455273023D03*
X142417738Y-451175967D03*
X142417738Y-454570079D03*
X143120682Y-452873023D03*
%TD*%
D14*
%TO.P,R501,1*%
%TO.N,_RELAYS_0*%
X125820682Y-604823023D03*
%TO.P,R501,2*%
%TO.N,/module-master/R_to_B_0*%
X125820682Y-601898023D03*
%TD*%
D15*
%TO.P,U501,1,LOAD-1*%
%TO.N,unconnected-(U501-LOAD-1-Pad1)*%
X123470682Y-568523023D03*
X128470682Y-568523023D03*
D16*
%TO.P,U501,2,LOAD-2*%
%TO.N,unconnected-(U501-LOAD-2-Pad2)*%
X123470682Y-563523023D03*
X128470682Y-563523023D03*
%TO.P,U501,3,In+*%
%TO.N,/module-master/SW_to_AQ-A_IN_0*%
X123470682Y-558523023D03*
X128470682Y-558523023D03*
%TO.P,U501,4,In-*%
%TO.N,_GND_0*%
X123470682Y-553523023D03*
X128470682Y-553523023D03*
%TD*%
D14*
%TO.P,R504,1*%
%TO.N,/module-master/SHUNT_1_0*%
X117020682Y-577760523D03*
%TO.P,R504,2*%
%TO.N,/module-master/R_to_C_0*%
X117020682Y-574835523D03*
%TD*%
D10*
%TO.P,SW502,1,A*%
%TO.N,/module-master/R_to_C_0*%
X122720682Y-579123023D03*
X122720682Y-584123023D03*
D11*
%TO.P,SW502,2,B*%
%TO.N,/module-master/SW_to_AQ-A_IN_0*%
X127720682Y-579123023D03*
X127720682Y-584123023D03*
%TD*%
D12*
%TO.P,H108,1*%
%TO.N,N/C*%
X88320682Y-564539689D03*
X89023626Y-562842633D03*
X89023626Y-566236745D03*
X90720682Y-562139689D03*
D13*
X90720682Y-564539689D03*
D12*
X90720682Y-566939689D03*
X92417738Y-562842633D03*
X92417738Y-566236745D03*
X93120682Y-564539689D03*
%TD*%
D17*
%TO.P,R506,1*%
%TO.N,_GND_0*%
X128045682Y-590123023D03*
%TO.P,R506,2*%
%TO.N,/module-master/SW_to_AQ-A_IN_0*%
X130970682Y-590123023D03*
%TD*%
D12*
%TO.P,H108,1*%
%TO.N,N/C*%
X138320682Y-615373023D03*
X139023626Y-613675967D03*
X139023626Y-617070079D03*
X140720682Y-612973023D03*
D13*
X140720682Y-615373023D03*
D12*
X140720682Y-617773023D03*
X142417738Y-613675967D03*
X142417738Y-617070079D03*
X143120682Y-615373023D03*
%TD*%
%TO.P,H108,1*%
%TO.N,N/C*%
X113300682Y-503374689D03*
X114003626Y-501677633D03*
X114003626Y-505071745D03*
X115700682Y-500974689D03*
D13*
X115700682Y-503374689D03*
D12*
X115700682Y-505774689D03*
X117397738Y-501677633D03*
X117397738Y-505071745D03*
X118100682Y-503374689D03*
%TD*%
%TO.P,H108,1*%
%TO.N,N/C*%
X88320682Y-508706356D03*
X89023626Y-507009300D03*
X89023626Y-510403412D03*
X90720682Y-506306356D03*
D13*
X90720682Y-508706356D03*
D12*
X90720682Y-511106356D03*
X92417738Y-507009300D03*
X92417738Y-510403412D03*
X93120682Y-508706356D03*
%TD*%
D10*
%TO.P,SW503,1,A*%
%TO.N,/module-master/R_to_C_0*%
X103320682Y-578873023D03*
X103320682Y-583873023D03*
D11*
%TO.P,SW503,2,B*%
%TO.N,/module-master/A_to_ALQ305_0*%
X108320682Y-578873023D03*
X108320682Y-583873023D03*
%TD*%
D14*
%TO.P,R502,1*%
%TO.N,_5VA_0*%
X103900682Y-606048023D03*
%TO.P,R502,2*%
%TO.N,/module-master/R_to_C_0*%
X103900682Y-603123023D03*
%TD*%
D18*
%TO.P,C503,1*%
%TO.N,/module-master/SHUNT_2_0*%
X106970682Y-591623023D03*
%TO.P,C503,2*%
%TO.N,/module-master/A_to_ALQ305_0*%
X106970682Y-589723023D03*
%TD*%
D12*
%TO.P,H108,1*%
%TO.N,N/C*%
X113300682Y-455874689D03*
X114003626Y-454177633D03*
X114003626Y-457571745D03*
X115700682Y-453474689D03*
D13*
X115700682Y-455874689D03*
D12*
X115700682Y-458274689D03*
X117397738Y-454177633D03*
X117397738Y-457571745D03*
X118100682Y-455874689D03*
%TD*%
D19*
%TO.P,D504,1,K*%
%TO.N,/module-master/A_to_ALQ305_0*%
X105870682Y-571623023D03*
%TO.P,D504,2,A*%
%TO.N,_GND_0*%
X102570682Y-571623023D03*
%TD*%
D20*
%TO.P,C501,1*%
%TO.N,/module-master/R_to_C_0*%
X125320682Y-594378023D03*
%TO.P,C501,2*%
X125320682Y-593418023D03*
%TD*%
D21*
%TO.P,R503,1*%
%TO.N,/module-master/R_to_KLED_0*%
X120420682Y-513135523D03*
%TO.P,R503,2*%
%TO.N,/module-master/E_to_R_0*%
X120420682Y-516060523D03*
%TD*%
D22*
%TO.P,Q501,1,B*%
%TO.N,/module-master/R_to_B_0*%
X126170682Y-589935523D03*
%TO.P,Q501,2,E*%
%TO.N,/module-master/E_to_R_0*%
X124270682Y-589935523D03*
%TO.P,Q501,3,C*%
%TO.N,/module-master/R_to_C_0*%
X125220682Y-591810523D03*
%TD*%
D23*
%TO.P,D501,1,K*%
%TO.N,_CV_0*%
X123470682Y-607298023D03*
%TO.P,D501,2,A*%
%TO.N,_GND_0*%
X123470682Y-603998023D03*
%TD*%
D24*
%TO.P,K501,1,1*%
%TO.N,/module-master/A_to_ALQ305_0*%
X108280682Y-568763023D03*
%TO.P,K501,2,2*%
%TO.N,_GND_0*%
X100660682Y-568763023D03*
%TO.P,K501,3,3*%
%TO.N,Net-(J502-Pin_2)*%
X108280682Y-558603023D03*
%TO.P,K501,4,4*%
%TO.N,Net-(J502-Pin_1)*%
X108280682Y-550983023D03*
%TD*%
D12*
%TO.P,H108,1*%
%TO.N,N/C*%
X88320682Y-615373023D03*
X89023626Y-613675967D03*
X89023626Y-617070079D03*
X90720682Y-612973023D03*
D13*
X90720682Y-615373023D03*
D12*
X90720682Y-617773023D03*
X92417738Y-613675967D03*
X92417738Y-617070079D03*
X93120682Y-615373023D03*
%TD*%
D14*
%TO.P,R505,1*%
%TO.N,/module-master/R_to_C_0*%
X103970682Y-592348023D03*
%TO.P,R505,2*%
%TO.N,/module-master/SHUNT_2_0*%
X103970682Y-589423023D03*
%TD*%
D12*
%TO.P,H108,1*%
%TO.N,N/C*%
X138320682Y-564539689D03*
X139023626Y-562842633D03*
X139023626Y-566236745D03*
X140720682Y-562139689D03*
D13*
X140720682Y-564539689D03*
D12*
X140720682Y-566939689D03*
X142417738Y-562842633D03*
X142417738Y-566236745D03*
X143120682Y-564539689D03*
%TD*%
D19*
%TO.P,D503,1,K*%
%TO.N,/module-master/R_to_C_0*%
X127270682Y-597098023D03*
%TO.P,D503,2,A*%
%TO.N,/module-master/E_to_R_0*%
X123970682Y-597098023D03*
%TD*%
D25*
%TO.P,C502,1*%
%TO.N,/module-master/SHUNT_1_0*%
X117320682Y-582548023D03*
%TO.P,C502,2*%
%TO.N,/module-master/SW_to_AQ-A_IN_0*%
X117320682Y-584448023D03*
%TD*%
D10*
%TO.P,SW501,1,1*%
%TO.N,_GATE_0*%
X112820682Y-597623023D03*
X112820682Y-602623023D03*
D11*
%TO.P,SW501,2,2*%
%TO.N,_GATE_OUTPUT_0*%
X117820682Y-597623023D03*
X117820682Y-602623023D03*
%TD*%
D12*
%TO.P,H108,1*%
%TO.N,N/C*%
X138320682Y-508706356D03*
X139023626Y-507009300D03*
X139023626Y-510403412D03*
X140720682Y-506306356D03*
D13*
X140720682Y-508706356D03*
D12*
X140720682Y-511106356D03*
X142417738Y-507009300D03*
X142417738Y-510403412D03*
X143120682Y-508706356D03*
%TD*%
D26*
%TO.P,RV501,1,1*%
%TO.N,_CV_0*%
X116910682Y-590123023D03*
%TO.P,RV501,2,2*%
%TO.N,_CV_OUTPUT_0*%
X119410682Y-590123023D03*
%TO.P,RV501,3,3*%
%TO.N,_GND_0*%
X116910682Y-520123023D03*
%TO.P,RV501,L*%
%TO.N,N/C*%
X111910682Y-590123023D03*
X114410682Y-590123023D03*
D27*
X115660682Y-580123023D03*
X115660682Y-532623023D03*
D26*
X111910682Y-520123023D03*
%TD*%
D28*
%TO.P,D502,1,K*%
%TO.N,_GND_0*%
X114400682Y-513348023D03*
D29*
%TO.P,D502,2,A*%
%TO.N,/module-master/R_to_KLED_0*%
X116940682Y-513348023D03*
%TD*%
D30*
%TO.P,J501,1,Pin_1*%
%TO.N,_GATE_OUTPUT_0*%
X109640682Y-611998023D03*
D31*
%TO.P,J501,2,Pin_2*%
%TO.N,_GND_0*%
X109640682Y-609458023D03*
%TO.P,J501,3,Pin_3*%
%TO.N,_GATE_0*%
X112180682Y-611998023D03*
%TO.P,J501,4,Pin_4*%
%TO.N,_GND_0*%
X112180682Y-609458023D03*
%TO.P,J501,5,Pin_5*%
%TO.N,_CV_OUTPUT_0*%
X114720682Y-611998023D03*
%TO.P,J501,6,Pin_6*%
%TO.N,_GND_0*%
X114720682Y-609458023D03*
%TO.P,J501,7,Pin_7*%
%TO.N,_RELAYS_0*%
X117260682Y-611998023D03*
%TO.P,J501,8,Pin_8*%
%TO.N,_5VA_0*%
X117260682Y-609458023D03*
%TO.P,J501,9,Pin_9*%
%TO.N,_CV_0*%
X119800682Y-611998023D03*
%TO.P,J501,10,Pin_10*%
%TO.N,_GND_0*%
X119800682Y-609458023D03*
%TD*%
D32*
%TO.N,_GND_0*%
X138873062Y-544769689D03*
X133793062Y-590489689D03*
X98233062Y-560009689D03*
X113473062Y-593029689D03*
X133793062Y-509209689D03*
X121093062Y-519369689D03*
X131253062Y-471109689D03*
X108393062Y-471109689D03*
X98233062Y-514289689D03*
X123400682Y-602674689D03*
X128713062Y-506669689D03*
X110933062Y-575249689D03*
X105853062Y-580329689D03*
X138873062Y-476189689D03*
X138873062Y-593029689D03*
X123633062Y-460949689D03*
X108393062Y-547309689D03*
X133793062Y-468569689D03*
X100773062Y-539689689D03*
X105853062Y-577789689D03*
X136333062Y-567629689D03*
X100773062Y-608269689D03*
X108393062Y-537149689D03*
X98233062Y-567629689D03*
X123633062Y-509209689D03*
X126173062Y-460949689D03*
X95693062Y-521909689D03*
X126173062Y-610809689D03*
X133793062Y-593029689D03*
X105853062Y-524449689D03*
X123633062Y-504129689D03*
X128713062Y-613349689D03*
X103313062Y-463489689D03*
X108393062Y-463489689D03*
X98233062Y-554929689D03*
X93153062Y-570169689D03*
X95693062Y-499049689D03*
X123633062Y-511749689D03*
X118553062Y-488889689D03*
X133793062Y-570169689D03*
X98233062Y-562549689D03*
X116013062Y-565089689D03*
X103313062Y-473649689D03*
X113473062Y-582869689D03*
X100773062Y-547309689D03*
X105853062Y-595569689D03*
X131253062Y-468569689D03*
X123633062Y-570169689D03*
X133793062Y-466029689D03*
X100773062Y-493969689D03*
X105853062Y-514289689D03*
X128713062Y-499049689D03*
X128713062Y-455869689D03*
X133793062Y-504129689D03*
X126173062Y-458409689D03*
X136333062Y-491429689D03*
X121093062Y-496509689D03*
X126173062Y-514289689D03*
X100773062Y-486349689D03*
X95693062Y-590489689D03*
X123633062Y-544769689D03*
X95693062Y-595569689D03*
X121093062Y-455869689D03*
X126173062Y-542229689D03*
X108393062Y-529529689D03*
X98233062Y-608269689D03*
X95693062Y-529529689D03*
X105853062Y-481269689D03*
X110933062Y-565089689D03*
X93153062Y-552389689D03*
X123633062Y-539689689D03*
X95693062Y-570169689D03*
X110933062Y-501589689D03*
X116013062Y-516829689D03*
X116013062Y-471109689D03*
X136333062Y-463489689D03*
X93153062Y-554929689D03*
X103313062Y-496509689D03*
X126173062Y-526989689D03*
X118553062Y-486349689D03*
X133793062Y-608269689D03*
X121093062Y-565089689D03*
X118553062Y-532069689D03*
X103313062Y-511749689D03*
X110933062Y-476189689D03*
X95693062Y-524449689D03*
X93153062Y-534609689D03*
X93153062Y-590489689D03*
X93153062Y-532069689D03*
X95693062Y-534609689D03*
X138873062Y-499049689D03*
X136333062Y-483809689D03*
X108393062Y-473649689D03*
X121093062Y-506669689D03*
X103313062Y-488889689D03*
X105853062Y-509209689D03*
X133793062Y-554929689D03*
X131253062Y-460949689D03*
X118553062Y-605729689D03*
X98233062Y-580329689D03*
X98233062Y-542229689D03*
X128713062Y-537149689D03*
X103313062Y-534609689D03*
X93153062Y-514289689D03*
X110933062Y-509209689D03*
X108393062Y-466029689D03*
X93153062Y-466029689D03*
X93153062Y-549849689D03*
X103313062Y-458409689D03*
X138873062Y-595569689D03*
X133793062Y-544769689D03*
X103313062Y-532069689D03*
X95693062Y-466029689D03*
X131253062Y-598109689D03*
X110933062Y-471109689D03*
X103313062Y-514289689D03*
X93153062Y-496509689D03*
X121093062Y-499049689D03*
X93153062Y-605729689D03*
X131253062Y-514289689D03*
X93153062Y-460949689D03*
X136333062Y-511749689D03*
X105853062Y-598109689D03*
X98233062Y-460949689D03*
X110933062Y-486349689D03*
X98233062Y-455869689D03*
X98233062Y-524449689D03*
X103313062Y-466029689D03*
X113473062Y-567629689D03*
X133793062Y-496509689D03*
X95693062Y-547309689D03*
X103313062Y-537149689D03*
X136333062Y-516829689D03*
X123633062Y-516829689D03*
X138873062Y-516829689D03*
X108393062Y-534609689D03*
X138873062Y-519369689D03*
X113473062Y-524449689D03*
X131253062Y-521909689D03*
X108393062Y-509209689D03*
X100773062Y-468569689D03*
X105853062Y-463489689D03*
X113473062Y-557469689D03*
X121093062Y-526989689D03*
X138873062Y-481269689D03*
X103313062Y-529529689D03*
X95693062Y-526989689D03*
X93153062Y-524449689D03*
X138873062Y-534609689D03*
X121093062Y-532069689D03*
X116013062Y-557469689D03*
X121093062Y-542229689D03*
X116013062Y-542229689D03*
X103313062Y-610809689D03*
X105853062Y-605729689D03*
X93153062Y-587949689D03*
X138873062Y-524449689D03*
X108393062Y-481269689D03*
X108393062Y-554929689D03*
X116013062Y-529529689D03*
X133793062Y-519369689D03*
X113473062Y-542229689D03*
X113473062Y-493969689D03*
X121093062Y-529529689D03*
X113473062Y-554929689D03*
X138873062Y-542229689D03*
X100773062Y-565089689D03*
X136333062Y-519369689D03*
X133793062Y-534609689D03*
X138873062Y-598109689D03*
X131253062Y-496509689D03*
X116013062Y-598109689D03*
X113473062Y-509209689D03*
X95693062Y-468569689D03*
X98233062Y-577789689D03*
X118553062Y-572709689D03*
X136333062Y-560009689D03*
X116013062Y-496509689D03*
X123633062Y-491429689D03*
X128713062Y-463489689D03*
X118553062Y-526989689D03*
X121093062Y-486349689D03*
X93153062Y-582869689D03*
X98233062Y-570169689D03*
X138873062Y-486349689D03*
X126173062Y-613349689D03*
X93153062Y-557469689D03*
X138873062Y-552389689D03*
X138873062Y-529529689D03*
X103313062Y-504129689D03*
X108393062Y-562549689D03*
X108393062Y-501589689D03*
X105853062Y-575249689D03*
X110933062Y-544769689D03*
X93153062Y-493969689D03*
X103313062Y-460949689D03*
X123633062Y-587949689D03*
X118553062Y-542229689D03*
X113473062Y-547309689D03*
X136333062Y-557469689D03*
X105853062Y-526989689D03*
X138873062Y-554929689D03*
X95693062Y-539689689D03*
X98233062Y-572709689D03*
X110933062Y-560009689D03*
X131253062Y-610809689D03*
X95693062Y-504129689D03*
X95693062Y-476189689D03*
X123633062Y-496509689D03*
X95693062Y-478729689D03*
X126173062Y-524449689D03*
X126173062Y-483809689D03*
X133793062Y-577789689D03*
X113473062Y-532069689D03*
X100773062Y-509209689D03*
X113473062Y-526989689D03*
X105853062Y-499049689D03*
X108393062Y-506669689D03*
X121093062Y-549849689D03*
X113473062Y-473649689D03*
X93153062Y-488889689D03*
X136333062Y-532069689D03*
X136333062Y-544769689D03*
X133793062Y-511749689D03*
X121093062Y-463489689D03*
X136333062Y-598109689D03*
X98233062Y-605729689D03*
X93153062Y-575249689D03*
X133793062Y-582869689D03*
X100773062Y-473649689D03*
X98233062Y-595569689D03*
X110933062Y-585409689D03*
X133793062Y-547309689D03*
X100773062Y-598109689D03*
X123633062Y-600649689D03*
X136333062Y-575249689D03*
X133793062Y-524449689D03*
X123633062Y-537149689D03*
X110933062Y-532069689D03*
X98233062Y-600649689D03*
X95693062Y-501589689D03*
X93153062Y-501589689D03*
X136333062Y-524449689D03*
X138873062Y-504129689D03*
X113473062Y-468569689D03*
X128713062Y-539689689D03*
X133793062Y-488889689D03*
X110933062Y-468569689D03*
X118553062Y-539689689D03*
X103313062Y-587949689D03*
X95693062Y-593029689D03*
X103313062Y-521909689D03*
X133793062Y-476189689D03*
X93153062Y-471109689D03*
X131253062Y-501589689D03*
X105853062Y-486349689D03*
X136333062Y-539689689D03*
X123633062Y-499049689D03*
X113473062Y-577789689D03*
X123633062Y-488889689D03*
X136333062Y-488889689D03*
X110933062Y-603189689D03*
X100773062Y-466029689D03*
X138873062Y-514289689D03*
X118553062Y-516829689D03*
X126173062Y-552389689D03*
X118553062Y-466029689D03*
X138873062Y-458409689D03*
X108393062Y-478729689D03*
X100773062Y-549849689D03*
X103313062Y-526989689D03*
X100773062Y-501589689D03*
X113473062Y-585409689D03*
X128713062Y-466029689D03*
X110933062Y-516829689D03*
X128713062Y-486349689D03*
X95693062Y-603189689D03*
X118553062Y-565089689D03*
X116013062Y-552389689D03*
X105853062Y-587949689D03*
X128713062Y-605729689D03*
X136333062Y-613349689D03*
X121093062Y-534609689D03*
X108393062Y-493969689D03*
X110933062Y-481269689D03*
X126173062Y-486349689D03*
X100773062Y-613349689D03*
X121093062Y-524449689D03*
X110933062Y-562549689D03*
X121093062Y-466029689D03*
X95693062Y-580329689D03*
X93153062Y-491429689D03*
X95693062Y-582869689D03*
X131253062Y-504129689D03*
X113473062Y-562549689D03*
X136333062Y-509209689D03*
X108393062Y-526989689D03*
X100773062Y-463489689D03*
X95693062Y-565089689D03*
X98233062Y-521909689D03*
X123633062Y-471109689D03*
X138873062Y-582869689D03*
X103313062Y-493969689D03*
X100773062Y-483809689D03*
X93153062Y-478729689D03*
X110933062Y-488889689D03*
X138873062Y-483809689D03*
X121093062Y-471109689D03*
X103313062Y-468569689D03*
X136333062Y-542229689D03*
X116013062Y-547309689D03*
X108393062Y-532069689D03*
X118553062Y-544769689D03*
X95693062Y-610809689D03*
X136333062Y-590489689D03*
X118553062Y-560009689D03*
X105853062Y-539689689D03*
X136333062Y-471109689D03*
X108393062Y-460949689D03*
X98233062Y-499049689D03*
X110933062Y-496509689D03*
X138873062Y-478729689D03*
X100773062Y-562549689D03*
X138873062Y-577789689D03*
X128713062Y-516829689D03*
X116013062Y-476189689D03*
X138873062Y-549849689D03*
X116013062Y-493969689D03*
X108393062Y-565089689D03*
X110933062Y-542229689D03*
X116013062Y-499049689D03*
X108393062Y-486349689D03*
X113473062Y-483809689D03*
X110933062Y-593029689D03*
X123633062Y-572709689D03*
X133793062Y-532069689D03*
X136333062Y-552389689D03*
X100773062Y-481269689D03*
X116013062Y-567629689D03*
X113473062Y-537149689D03*
X113473062Y-488889689D03*
X98233062Y-549849689D03*
X108393062Y-598109689D03*
X93153062Y-593029689D03*
X108393062Y-488889689D03*
X123633062Y-478729689D03*
X123633062Y-529529689D03*
X118553062Y-491429689D03*
X136333062Y-481269689D03*
X98233062Y-526989689D03*
X128713062Y-603189689D03*
X105853062Y-534609689D03*
X100773062Y-455869689D03*
X126173062Y-499049689D03*
X128713062Y-544769689D03*
X123633062Y-549849689D03*
X138873062Y-521909689D03*
X121093062Y-537149689D03*
X113473062Y-549849689D03*
X118553062Y-580329689D03*
X108393062Y-458409689D03*
X113473062Y-580329689D03*
X95693062Y-587949689D03*
X93153062Y-519369689D03*
X118553062Y-511749689D03*
X100773062Y-575249689D03*
X126173062Y-476189689D03*
X126173062Y-493969689D03*
X128713062Y-542229689D03*
X108393062Y-483809689D03*
X116013062Y-466029689D03*
X98233062Y-466029689D03*
X136333062Y-534609689D03*
X93153062Y-585409689D03*
X103313062Y-483809689D03*
X136333062Y-595569689D03*
X126173062Y-481269689D03*
X131253062Y-486349689D03*
X108393062Y-514289689D03*
X105853062Y-603189689D03*
X123633062Y-466029689D03*
X123633062Y-458409689D03*
X131253062Y-493969689D03*
X105853062Y-585409689D03*
X110933062Y-504129689D03*
X95693062Y-562549689D03*
X136333062Y-600649689D03*
X95693062Y-572709689D03*
X128713062Y-532069689D03*
X128713062Y-496509689D03*
X133793062Y-552389689D03*
X121093062Y-473649689D03*
X136333062Y-585409689D03*
X121093062Y-562549689D03*
X95693062Y-585409689D03*
X100773062Y-537149689D03*
X113473062Y-534609689D03*
X138873062Y-570169689D03*
X110933062Y-537149689D03*
X95693062Y-532069689D03*
X95693062Y-516829689D03*
X98233062Y-582869689D03*
X105853062Y-552389689D03*
X93153062Y-547309689D03*
X116013062Y-509209689D03*
X95693062Y-491429689D03*
X136333062Y-504129689D03*
X128713062Y-460949689D03*
X131253062Y-600649689D03*
X121093062Y-488889689D03*
X116013062Y-539689689D03*
X113473062Y-463489689D03*
X95693062Y-608269689D03*
X93153062Y-610809689D03*
X131253062Y-595569689D03*
X100773062Y-519369689D03*
X118553062Y-557469689D03*
X103313062Y-486349689D03*
X131253062Y-613349689D03*
X118553062Y-509209689D03*
X121093062Y-481269689D03*
X95693062Y-493969689D03*
X123633062Y-468569689D03*
X93153062Y-526989689D03*
X136333062Y-603189689D03*
X105853062Y-562549689D03*
X116013062Y-560009689D03*
X100773062Y-460949689D03*
X136333062Y-493969689D03*
X126173062Y-496509689D03*
X121093062Y-478729689D03*
X133793062Y-478729689D03*
X128713062Y-491429689D03*
X98233062Y-473649689D03*
X128713062Y-511749689D03*
X103313062Y-501589689D03*
X126173062Y-511749689D03*
X131253062Y-516829689D03*
X110933062Y-460949689D03*
X113473062Y-481269689D03*
X110933062Y-539689689D03*
X113473062Y-471109689D03*
X110933062Y-572709689D03*
X98233062Y-496509689D03*
X136333062Y-608269689D03*
X121093062Y-572709689D03*
X116013062Y-486349689D03*
X100773062Y-557469689D03*
X103313062Y-557469689D03*
X105853062Y-542229689D03*
X105853062Y-473649689D03*
X118553062Y-496509689D03*
X98233062Y-463489689D03*
X105853062Y-460949689D03*
X98233062Y-547309689D03*
X128713062Y-476189689D03*
X133793062Y-549849689D03*
X123633062Y-486349689D03*
X126173062Y-488889689D03*
X95693062Y-455869689D03*
X138873062Y-610809689D03*
X98233062Y-491429689D03*
X108393062Y-521909689D03*
X100773062Y-577789689D03*
X100773062Y-471109689D03*
X136333062Y-460949689D03*
X131253062Y-473649689D03*
X113473062Y-460949689D03*
X121093062Y-509209689D03*
X110933062Y-473649689D03*
X93153062Y-483809689D03*
X128713062Y-529529689D03*
X105853062Y-455869689D03*
X113473062Y-539689689D03*
X93153062Y-560009689D03*
X138873062Y-532069689D03*
X95693062Y-511749689D03*
X95693062Y-509209689D03*
X95693062Y-519369689D03*
X133793062Y-603189689D03*
X95693062Y-471109689D03*
X105853062Y-554929689D03*
X110933062Y-524449689D03*
X95693062Y-463489689D03*
X100773062Y-610809689D03*
X131253062Y-605729689D03*
X128713062Y-473649689D03*
X123633062Y-501589689D03*
X98233062Y-593029689D03*
X110933062Y-491429689D03*
X136333062Y-496509689D03*
X95693062Y-577789689D03*
X133793062Y-526989689D03*
X100773062Y-605729689D03*
X116013062Y-521909689D03*
X103313062Y-499049689D03*
X93153062Y-595569689D03*
X138873062Y-460949689D03*
X95693062Y-506669689D03*
X128713062Y-504129689D03*
X108393062Y-468569689D03*
X133793062Y-499049689D03*
X136333062Y-537149689D03*
X138873062Y-501589689D03*
X131253062Y-603189689D03*
X103313062Y-524449689D03*
X126173062Y-466029689D03*
X133793062Y-600649689D03*
X131253062Y-483809689D03*
X128713062Y-534609689D03*
X133793062Y-613349689D03*
X98233062Y-575249689D03*
X123633062Y-506669689D03*
X133793062Y-463489689D03*
X128713062Y-519369689D03*
X93153062Y-572709689D03*
X108393062Y-519369689D03*
X133793062Y-481269689D03*
X113473062Y-466029689D03*
X110933062Y-526989689D03*
X133793062Y-595569689D03*
X105853062Y-496509689D03*
X98233062Y-587949689D03*
X123633062Y-526989689D03*
X100773062Y-534609689D03*
X118553062Y-483809689D03*
X98233062Y-590489689D03*
X110933062Y-577789689D03*
X133793062Y-486349689D03*
X128713062Y-488889689D03*
X93153062Y-603189689D03*
X116013062Y-595569689D03*
X128713062Y-549849689D03*
X118553062Y-499049689D03*
X95693062Y-575249689D03*
X95693062Y-496509689D03*
X108393062Y-476189689D03*
X93153062Y-580329689D03*
X123633062Y-524449689D03*
X105853062Y-493969689D03*
X113473062Y-560009689D03*
X133793062Y-557469689D03*
X121093062Y-552389689D03*
X93153062Y-529529689D03*
X95693062Y-567629689D03*
X108393062Y-455869689D03*
X110933062Y-511749689D03*
X108393062Y-499049689D03*
X95693062Y-605729689D03*
X95693062Y-613349689D03*
X126173062Y-516829689D03*
X118553062Y-481269689D03*
X123633062Y-493969689D03*
X118553062Y-463489689D03*
X128713062Y-478729689D03*
X110933062Y-549849689D03*
X98233062Y-481269689D03*
X95693062Y-537149689D03*
X105853062Y-488889689D03*
X93153062Y-486349689D03*
X98233062Y-476189689D03*
X100773062Y-542229689D03*
X126173062Y-491429689D03*
X133793062Y-483809689D03*
X98233062Y-532069689D03*
X113473062Y-491429689D03*
X128713062Y-526989689D03*
X110933062Y-483809689D03*
X123633062Y-481269689D03*
X138873062Y-493969689D03*
X93153062Y-481269689D03*
X105853062Y-565089689D03*
X100773062Y-488889689D03*
X123633062Y-455869689D03*
X131253062Y-466029689D03*
X103313062Y-552389689D03*
X105853062Y-516829689D03*
X110933062Y-506669689D03*
X121093062Y-567629689D03*
X113473062Y-552389689D03*
X98233062Y-585409689D03*
X98233062Y-458409689D03*
X116013062Y-478729689D03*
X138873062Y-496509689D03*
X126173062Y-519369689D03*
X133793062Y-460949689D03*
X126173062Y-537149689D03*
X93153062Y-458409689D03*
X138873062Y-587949689D03*
X100773062Y-524449689D03*
X136333062Y-501589689D03*
X126173062Y-506669689D03*
X105853062Y-529529689D03*
X93153062Y-521909689D03*
X121093062Y-585409689D03*
X133793062Y-565089689D03*
X123633062Y-463489689D03*
X131253062Y-458409689D03*
X123633062Y-476189689D03*
X105853062Y-471109689D03*
X116013062Y-524449689D03*
X110933062Y-582869689D03*
X105853062Y-491429689D03*
X138873062Y-547309689D03*
X128713062Y-547309689D03*
X118553062Y-554929689D03*
X126173062Y-455869689D03*
X103313062Y-519369689D03*
X98233062Y-471109689D03*
X110933062Y-463489689D03*
X123633062Y-547309689D03*
X121093062Y-557469689D03*
X128713062Y-575249689D03*
X123633062Y-542229689D03*
X133793062Y-506669689D03*
X121093062Y-468569689D03*
X95693062Y-488889689D03*
X105853062Y-582869689D03*
X138873062Y-539689689D03*
X131253062Y-593029689D03*
X136333062Y-476189689D03*
X138873062Y-488889689D03*
X100773062Y-593029689D03*
X126173062Y-504129689D03*
X93153062Y-600649689D03*
X138873062Y-590489689D03*
X128713062Y-509209689D03*
X98233062Y-478729689D03*
X123633062Y-534609689D03*
X93153062Y-539689689D03*
X93153062Y-473649689D03*
X116013062Y-554929689D03*
X98233062Y-519369689D03*
X138873062Y-585409689D03*
X128713062Y-514289689D03*
X98233062Y-468569689D03*
X138873062Y-605729689D03*
X136333062Y-473649689D03*
X105853062Y-557469689D03*
X110933062Y-466029689D03*
X126173062Y-534609689D03*
X133793062Y-491429689D03*
X116013062Y-549849689D03*
X118553062Y-534609689D03*
X126173062Y-554929689D03*
X93153062Y-577789689D03*
X118553062Y-493969689D03*
X110933062Y-595569689D03*
X110933062Y-547309689D03*
X121093062Y-560009689D03*
X128713062Y-458409689D03*
X100773062Y-504129689D03*
X95693062Y-458409689D03*
X136333062Y-486349689D03*
X133793062Y-514289689D03*
X123633062Y-521909689D03*
X118553062Y-547309689D03*
X118553062Y-473649689D03*
X103313062Y-549849689D03*
X121093062Y-491429689D03*
X108393062Y-524449689D03*
X123633062Y-473649689D03*
X105853062Y-478729689D03*
X105853062Y-504129689D03*
X118553062Y-570169689D03*
X118553062Y-524449689D03*
X105853062Y-511749689D03*
X95693062Y-542229689D03*
X103313062Y-476189689D03*
X100773062Y-603189689D03*
X105853062Y-483809689D03*
X118553062Y-567629689D03*
X95693062Y-554929689D03*
X131253062Y-478729689D03*
X133793062Y-587949689D03*
X103313062Y-516829689D03*
X113473062Y-529529689D03*
X105853062Y-610809689D03*
X113473062Y-499049689D03*
X105853062Y-519369689D03*
X100773062Y-496509689D03*
X103313062Y-560009689D03*
X133793062Y-537149689D03*
X121093062Y-504129689D03*
X98233062Y-565089689D03*
X131253062Y-463489689D03*
X116013062Y-481269689D03*
X95693062Y-544769689D03*
X100773062Y-506669689D03*
X121093062Y-476189689D03*
X133793062Y-455869689D03*
X136333062Y-455869689D03*
X105853062Y-532069689D03*
X128713062Y-570169689D03*
X98233062Y-483809689D03*
X95693062Y-486349689D03*
X105853062Y-476189689D03*
X133793062Y-572709689D03*
X108393062Y-504129689D03*
X93153062Y-476189689D03*
X136333062Y-587949689D03*
X131253062Y-506669689D03*
X133793062Y-493969689D03*
X116013062Y-544769689D03*
X136333062Y-529529689D03*
X131253062Y-488889689D03*
X133793062Y-560009689D03*
X133793062Y-605729689D03*
X116013062Y-537149689D03*
X123633062Y-514289689D03*
X118553062Y-552389689D03*
X118553062Y-478729689D03*
X128713062Y-481269689D03*
X98233062Y-557469689D03*
X105853062Y-458409689D03*
X118553062Y-562549689D03*
X133793062Y-521909689D03*
X128713062Y-483809689D03*
X116013062Y-491429689D03*
X110933062Y-514289689D03*
X136333062Y-572709689D03*
X131253062Y-524449689D03*
X103313062Y-455869689D03*
X105853062Y-466029689D03*
X138873062Y-468569689D03*
X95693062Y-481269689D03*
X131253062Y-499049689D03*
X123633062Y-532069689D03*
X95693062Y-460949689D03*
X123633062Y-483809689D03*
X105853062Y-521909689D03*
X98233062Y-501589689D03*
X133793062Y-610809689D03*
X121093062Y-575249689D03*
X118553062Y-529529689D03*
X118553062Y-537149689D03*
X105853062Y-544769689D03*
X110933062Y-605729689D03*
X103313062Y-565089689D03*
X93153062Y-544769689D03*
X138873062Y-603189689D03*
X98233062Y-603189689D03*
X136333062Y-577789689D03*
X113473062Y-575249689D03*
X128713062Y-471109689D03*
X100773062Y-587949689D03*
X128713062Y-610809689D03*
X133793062Y-473649689D03*
X98233062Y-598109689D03*
X121093062Y-570169689D03*
X95693062Y-514289689D03*
X93153062Y-499049689D03*
X136333062Y-478729689D03*
X121093062Y-460949689D03*
X98233062Y-534609689D03*
X136333062Y-565089689D03*
X133793062Y-501589689D03*
X100773062Y-529529689D03*
X100773062Y-585409689D03*
X133793062Y-471109689D03*
X105853062Y-593029689D03*
X103313062Y-471109689D03*
X118553062Y-471109689D03*
X103313062Y-567629689D03*
X138873062Y-473649689D03*
X136333062Y-570169689D03*
X131253062Y-519369689D03*
X113473062Y-565089689D03*
X100773062Y-560009689D03*
X110933062Y-554929689D03*
X116013062Y-526989689D03*
X93153062Y-542229689D03*
X110933062Y-534609689D03*
X131253062Y-491429689D03*
X98233062Y-493969689D03*
X118553062Y-460949689D03*
X116013062Y-593029689D03*
X133793062Y-458409689D03*
X100773062Y-526989689D03*
X126173062Y-532069689D03*
X95693062Y-557469689D03*
X98233062Y-544769689D03*
X103313062Y-481269689D03*
X123633062Y-575249689D03*
X133793062Y-575249689D03*
X113473062Y-478729689D03*
X110933062Y-493969689D03*
X105853062Y-537149689D03*
X136333062Y-554929689D03*
X95693062Y-483809689D03*
X128713062Y-608269689D03*
X113473062Y-544769689D03*
X93153062Y-608269689D03*
X116013062Y-488889689D03*
X105853062Y-506669689D03*
X103313062Y-613349689D03*
X136333062Y-458409689D03*
X133793062Y-542229689D03*
X121093062Y-493969689D03*
X136333062Y-580329689D03*
X136333062Y-547309689D03*
X133793062Y-567629689D03*
X100773062Y-491429689D03*
X100773062Y-516829689D03*
X126173062Y-509209689D03*
X128713062Y-501589689D03*
X100773062Y-476189689D03*
X126173062Y-471109689D03*
X113473062Y-486349689D03*
X126173062Y-539689689D03*
X100773062Y-552389689D03*
X100773062Y-478729689D03*
X100773062Y-499049689D03*
X93153062Y-463489689D03*
X126173062Y-478729689D03*
X116013062Y-570169689D03*
X100773062Y-590489689D03*
X100773062Y-595569689D03*
X116013062Y-460949689D03*
X98233062Y-552389689D03*
X126173062Y-501589689D03*
X136333062Y-521909689D03*
X131253062Y-509209689D03*
X116013062Y-600649689D03*
X123633062Y-613349689D03*
X138873062Y-560009689D03*
X138873062Y-471109689D03*
X131253062Y-608269689D03*
X121093062Y-554929689D03*
X93153062Y-598109689D03*
X136333062Y-499049689D03*
X98233062Y-613349689D03*
X118553062Y-549849689D03*
X133793062Y-585409689D03*
X98233062Y-509209689D03*
X133793062Y-539689689D03*
X138873062Y-608269689D03*
X126173062Y-473649689D03*
X138873062Y-491429689D03*
X98233062Y-537149689D03*
X136333062Y-605729689D03*
X93153062Y-504129689D03*
X110933062Y-478729689D03*
X136333062Y-514289689D03*
X116013062Y-562549689D03*
X126173062Y-549849689D03*
X100773062Y-458409689D03*
X105853062Y-600649689D03*
X126173062Y-529529689D03*
X131253062Y-476189689D03*
X131253062Y-455869689D03*
X108393062Y-491429689D03*
X128000682Y-588374689D03*
X110933062Y-552389689D03*
X138873062Y-526989689D03*
X126173062Y-544769689D03*
X98233062Y-506669689D03*
X110933062Y-557469689D03*
X105853062Y-468569689D03*
X128713062Y-572709689D03*
X105853062Y-613349689D03*
X98233062Y-539689689D03*
X133793062Y-580329689D03*
X131253062Y-511749689D03*
X113473062Y-496509689D03*
X110933062Y-580329689D03*
X121093062Y-544769689D03*
X113473062Y-516829689D03*
X95693062Y-560009689D03*
X133793062Y-562549689D03*
X93153062Y-516829689D03*
X121093062Y-483809689D03*
X121093062Y-539689689D03*
X126173062Y-547309689D03*
X136333062Y-562549689D03*
X128713062Y-468569689D03*
X100773062Y-532069689D03*
X98233062Y-488889689D03*
X108393062Y-496509689D03*
X126173062Y-468569689D03*
X98233062Y-486349689D03*
X110933062Y-458409689D03*
X98233062Y-504129689D03*
X133793062Y-529529689D03*
X138873062Y-537149689D03*
X121093062Y-501589689D03*
X100773062Y-600649689D03*
X108393062Y-516829689D03*
X93153062Y-468569689D03*
X136333062Y-582869689D03*
X136333062Y-526989689D03*
X100773062Y-582869689D03*
X110933062Y-529529689D03*
X136333062Y-610809689D03*
X103313062Y-509209689D03*
X103313062Y-554929689D03*
X103313062Y-562549689D03*
X121093062Y-547309689D03*
X136333062Y-506669689D03*
X128713062Y-493969689D03*
X95693062Y-552389689D03*
X136333062Y-468569689D03*
X136333062Y-466029689D03*
X138873062Y-463489689D03*
X100773062Y-544769689D03*
X105853062Y-501589689D03*
X93153062Y-537149689D03*
X138873062Y-557469689D03*
X138873062Y-572709689D03*
X133793062Y-598109689D03*
X100773062Y-580329689D03*
X100773062Y-521909689D03*
X116013062Y-468569689D03*
X105853062Y-560009689D03*
X116013062Y-473649689D03*
X138873062Y-580329689D03*
X110933062Y-499049689D03*
X128713062Y-521909689D03*
X113473062Y-476189689D03*
X138873062Y-600649689D03*
X100773062Y-554929689D03*
X138873062Y-466029689D03*
X138873062Y-575249689D03*
X100773062Y-572709689D03*
X103313062Y-506669689D03*
X95693062Y-600649689D03*
X121093062Y-458409689D03*
X110933062Y-455869689D03*
X103313062Y-478729689D03*
X116013062Y-463489689D03*
X126173062Y-463489689D03*
X95693062Y-549849689D03*
X100773062Y-514289689D03*
X118553062Y-468569689D03*
X100773062Y-511749689D03*
X118553062Y-476189689D03*
X95693062Y-473649689D03*
X108393062Y-511749689D03*
X95693062Y-598109689D03*
X103313062Y-491429689D03*
X133793062Y-516829689D03*
X98233062Y-610809689D03*
X131253062Y-481269689D03*
X136333062Y-593029689D03*
X116013062Y-483809689D03*
X136333062Y-549849689D03*
X98233062Y-516829689D03*
X98233062Y-529529689D03*
X98233062Y-511749689D03*
%TO.N,_5VA_0*%
X104220682Y-607998023D03*
%TD*%
D33*
%TO.N,/module-master/R_to_C_0*%
X103970682Y-603053023D02*
X103900682Y-603123023D01*
X116568364Y-585367523D02*
X118567523Y-585367523D01*
X117020682Y-574835523D02*
X118433182Y-574835523D01*
X127270682Y-596328023D02*
X125320682Y-594378023D01*
X103320682Y-578873023D02*
X103320682Y-573298023D01*
X125320682Y-591910523D02*
X125220682Y-591810523D01*
X109626922Y-567441763D02*
X117020682Y-574835523D01*
X102020682Y-580173023D02*
X102020682Y-590398023D01*
X116617294Y-583472523D02*
X116171182Y-583918635D01*
X118567523Y-585367523D02*
X122791794Y-589591794D01*
X104420682Y-572198023D02*
X104420682Y-570003491D01*
X125320682Y-593418023D02*
X125320682Y-591910523D01*
X103320682Y-583873023D02*
X103320682Y-578873023D01*
X122791794Y-597437667D02*
X123476650Y-598122523D01*
X102020682Y-590398023D02*
X103970682Y-592348023D01*
X123476650Y-598122523D02*
X126246182Y-598122523D01*
X116171182Y-584970341D02*
X116568364Y-585367523D01*
X118371182Y-583472523D02*
X116617294Y-583472523D01*
X118433182Y-574835523D02*
X122720682Y-579123023D01*
X125320682Y-594378023D02*
X125320682Y-593418023D01*
X126246182Y-598122523D02*
X127270682Y-597098023D01*
X104420682Y-570003491D02*
X106982410Y-567441763D01*
X127270682Y-597098023D02*
X127270682Y-596328023D01*
X103320682Y-578873023D02*
X102020682Y-580173023D01*
X122791794Y-589591794D02*
X122791794Y-597437667D01*
X122720682Y-579123023D02*
X118371182Y-583472523D01*
X116171182Y-583918635D02*
X116171182Y-584970341D01*
X103320682Y-573298023D02*
X104420682Y-572198023D01*
X103970682Y-592348023D02*
X103970682Y-603053023D01*
X106982410Y-567441763D02*
X109626922Y-567441763D01*
%TO.N,/module-master/SHUNT_1_0*%
X117320682Y-578060523D02*
X117020682Y-577760523D01*
X117320682Y-582548023D02*
X117320682Y-578060523D01*
%TO.N,/module-master/SW_to_AQ-A_IN_0*%
X118242796Y-584448023D02*
X117320682Y-584448023D01*
X125395182Y-560447523D02*
X125395182Y-576797523D01*
X123470682Y-558523023D02*
X125395182Y-560447523D01*
X124870348Y-581973357D02*
X120717462Y-581973357D01*
X127720682Y-579123023D02*
X124870348Y-581973357D01*
X125395182Y-576797523D02*
X127720682Y-579123023D01*
X130970682Y-582373023D02*
X127720682Y-579123023D01*
X120717462Y-581973357D02*
X118242796Y-584448023D01*
X123470682Y-558523023D02*
X128470682Y-558523023D01*
X127720682Y-579123023D02*
X127720682Y-584123023D01*
X130970682Y-590123023D02*
X130970682Y-582373023D01*
%TO.N,/module-master/SHUNT_2_0*%
X106170682Y-591623023D02*
X106970682Y-591623023D01*
X103970682Y-589423023D02*
X106170682Y-591623023D01*
%TO.N,/module-master/A_to_ALQ305_0*%
X108320682Y-588373023D02*
X108320682Y-578873023D01*
X108320682Y-574073023D02*
X105870682Y-571623023D01*
X106970682Y-589723023D02*
X108320682Y-588373023D01*
X105870682Y-571623023D02*
X105870682Y-571173023D01*
X105870682Y-571173023D02*
X108280682Y-568763023D01*
X108320682Y-578873023D02*
X108320682Y-574073023D01*
%TO.N,_CV_0*%
X121820682Y-595073023D02*
X116870682Y-590123023D01*
D34*
X121820682Y-605648023D02*
X121820682Y-595073023D01*
X123470682Y-607298023D02*
X121820682Y-605648023D01*
X119800682Y-611998023D02*
X123470682Y-608328023D01*
X123470682Y-608328023D02*
X123470682Y-607298023D01*
D33*
%TO.N,_GND_0*%
X102570682Y-570673023D02*
X100660682Y-568763023D01*
X102570682Y-571623023D02*
X102570682Y-570673023D01*
X123470682Y-602744689D02*
X123400682Y-602674689D01*
X123470682Y-603998023D02*
X123470682Y-602744689D01*
X128045682Y-588419689D02*
X128000682Y-588374689D01*
X128045682Y-590123023D02*
X128045682Y-588419689D01*
%TO.N,/module-master/R_to_KLED_0*%
X120383182Y-513098023D02*
X120420682Y-513135523D01*
X116785682Y-513098023D02*
X120383182Y-513098023D01*
%TO.N,/module-master/E_to_R_0*%
X123970682Y-590748023D02*
X123970682Y-597098023D01*
X126895182Y-589072523D02*
X126596182Y-588773523D01*
X126895182Y-591125409D02*
X126895182Y-589072523D01*
X131957682Y-591027411D02*
X131460627Y-591524466D01*
X123820682Y-590385523D02*
X123820682Y-590598023D01*
X124270682Y-589935523D02*
X123820682Y-590385523D01*
X131957682Y-527597523D02*
X131957682Y-591027411D01*
X123820682Y-590598023D02*
X123970682Y-590748023D01*
X127294239Y-591524466D02*
X126895182Y-591125409D01*
X125432682Y-588773523D02*
X124270682Y-589935523D01*
X120420682Y-516060523D02*
X131957682Y-527597523D01*
X131460627Y-591524466D02*
X127294239Y-591524466D01*
X126596182Y-588773523D02*
X125432682Y-588773523D01*
%TO.N,_CV_OUTPUT_0*%
X107121682Y-594797023D02*
X109720682Y-592198023D01*
X109720682Y-592198023D02*
X109720682Y-590472255D01*
X112847182Y-613871523D02*
X108094182Y-613871523D01*
X109720682Y-590472255D02*
X111053735Y-589139202D01*
X114720682Y-611998023D02*
X112847182Y-613871523D01*
X111053735Y-589139202D02*
X110586182Y-588671649D01*
X111362056Y-586798523D02*
X112691460Y-586798523D01*
X110586182Y-588671649D02*
X110586182Y-587574397D01*
X108094182Y-613871523D02*
X107121682Y-612899023D01*
X113042937Y-587150000D02*
X116397659Y-587150000D01*
X107121682Y-612899023D02*
X107121682Y-594797023D01*
X116397659Y-587150000D02*
X119370682Y-590123023D01*
X112691460Y-586798523D02*
X113042937Y-587150000D01*
X110586182Y-587574397D02*
X111362056Y-586798523D01*
%TO.N,_GATE_OUTPUT_0*%
X113366182Y-607077523D02*
X117820682Y-602623023D01*
X108366182Y-607077523D02*
X113366182Y-607077523D01*
X109640682Y-611998023D02*
X108366182Y-610723523D01*
X117820682Y-602623023D02*
X117820682Y-597623023D01*
X108366182Y-610723523D02*
X108366182Y-607077523D01*
%TO.N,_GATE_0*%
X107720682Y-602723023D02*
X112820682Y-597623023D01*
X112180682Y-611998023D02*
X110906182Y-613272523D01*
X110906182Y-613272523D02*
X108495182Y-613272523D01*
X108495182Y-613272523D02*
X107720682Y-612498023D01*
X112820682Y-602623023D02*
X112820682Y-597623023D01*
X107720682Y-612498023D02*
X107720682Y-602723023D01*
%TO.N,_RELAYS_0*%
X125820682Y-604823023D02*
X125820682Y-607778791D01*
X120301450Y-613298023D02*
X118560682Y-613298023D01*
X125820682Y-607778791D02*
X120301450Y-613298023D01*
X118560682Y-613298023D02*
X117260682Y-611998023D01*
D35*
%TO.N,_5VA_0*%
X104220682Y-607998023D02*
X104220682Y-606368023D01*
X104220682Y-606368023D02*
X103900682Y-606048023D01*
D33*
%TO.N,/module-master/R_to_B_0*%
X125820682Y-601898023D02*
X128920682Y-598798023D01*
X129020682Y-598798023D02*
X129020682Y-594098023D01*
X129020682Y-594098023D02*
X126170682Y-591248023D01*
X126170682Y-591248023D02*
X126170682Y-589935523D01*
X128920682Y-598798023D02*
X129020682Y-598798023D01*
%TO.N,Net-(J502-Pin_2)*%
X109606882Y-540759223D02*
X109606882Y-557276823D01*
X108470682Y-539623023D02*
X109606882Y-540759223D01*
X109606882Y-557276823D02*
X108280682Y-558603023D01*
%TO.N,Net-(J502-Pin_1)*%
X103470682Y-539623023D02*
X103470682Y-546173023D01*
X103470682Y-546173023D02*
X108280682Y-550983023D01*
%TD*%
M02*
