M48
; DRILL file {KiCad 7.0.8} date Wed 15 Nov 2023 01:51:45 PM CET
; FORMAT={-:-/ absolute / metric / decimal}
; #@! TF.CreationDate,2023-11-15T13:51:45+01:00
; #@! TF.GenerationSoftware,Kicad,Pcbnew,7.0.8
; #@! TF.FileFunction,MixedPlating,1,4
FMAT,2
METRIC
; #@! TA.AperFunction,Plated,PTH,ViaDrill
T1C0.250
; #@! TA.AperFunction,Plated,PTH,ViaDrill
T2C0.300
; #@! TA.AperFunction,Plated,PTH,ComponentDrill
T3C0.500
; #@! TA.AperFunction,Plated,PTH,ComponentDrill
T4C0.900
; #@! TA.AperFunction,Plated,PTH,ComponentDrill
T5C1.000
; #@! TA.AperFunction,Plated,PTH,ComponentDrill
T6C1.150
; #@! TA.AperFunction,Plated,PTH,ComponentDrill
T7C1.200
; #@! TA.AperFunction,Plated,PTH,ComponentDrill
T8C1.295
; #@! TA.AperFunction,Plated,PTH,ComponentDrill
T9C2.000
; #@! TA.AperFunction,Plated,PTH,ComponentDrill
T10C3.200
; #@! TA.AperFunction,NonPlated,NPTH,ComponentDrill
T11C1.700
%
G90
G05
T1
X93.153Y-458.41
X93.153Y-460.95
X93.153Y-463.49
X93.153Y-466.03
X93.153Y-468.57
X93.153Y-471.11
X93.153Y-473.65
X93.153Y-476.19
X93.153Y-478.73
X93.153Y-481.27
X93.153Y-483.81
X93.153Y-486.35
X93.153Y-488.89
X93.153Y-491.43
X93.153Y-493.97
X93.153Y-496.51
X93.153Y-499.05
X93.153Y-501.59
X93.153Y-504.13
X93.153Y-514.29
X93.153Y-516.83
X93.153Y-519.37
X93.153Y-521.91
X93.153Y-524.45
X93.153Y-526.99
X93.153Y-529.53
X93.153Y-532.07
X93.153Y-534.61
X93.153Y-537.15
X93.153Y-539.69
X93.153Y-542.23
X93.153Y-544.77
X93.153Y-547.31
X93.153Y-549.85
X93.153Y-552.39
X93.153Y-554.93
X93.153Y-557.47
X93.153Y-560.01
X93.153Y-570.17
X93.153Y-572.71
X93.153Y-575.25
X93.153Y-577.79
X93.153Y-580.33
X93.153Y-582.87
X93.153Y-585.41
X93.153Y-587.95
X93.153Y-590.49
X93.153Y-593.03
X93.153Y-595.57
X93.153Y-598.11
X93.153Y-600.65
X93.153Y-603.19
X93.153Y-605.73
X93.153Y-608.27
X93.153Y-610.81
X95.693Y-455.87
X95.693Y-458.41
X95.693Y-460.95
X95.693Y-463.49
X95.693Y-466.03
X95.693Y-468.57
X95.693Y-471.11
X95.693Y-473.65
X95.693Y-476.19
X95.693Y-478.73
X95.693Y-481.27
X95.693Y-483.81
X95.693Y-486.35
X95.693Y-488.89
X95.693Y-491.43
X95.693Y-493.97
X95.693Y-496.51
X95.693Y-499.05
X95.693Y-501.59
X95.693Y-504.13
X95.693Y-506.67
X95.693Y-509.21
X95.693Y-511.75
X95.693Y-514.29
X95.693Y-516.83
X95.693Y-519.37
X95.693Y-521.91
X95.693Y-524.45
X95.693Y-526.99
X95.693Y-529.53
X95.693Y-532.07
X95.693Y-534.61
X95.693Y-537.15
X95.693Y-539.69
X95.693Y-542.23
X95.693Y-544.77
X95.693Y-547.31
X95.693Y-549.85
X95.693Y-552.39
X95.693Y-554.93
X95.693Y-557.47
X95.693Y-560.01
X95.693Y-562.55
X95.693Y-565.09
X95.693Y-567.63
X95.693Y-570.17
X95.693Y-572.71
X95.693Y-575.25
X95.693Y-577.79
X95.693Y-580.33
X95.693Y-582.87
X95.693Y-585.41
X95.693Y-587.95
X95.693Y-590.49
X95.693Y-593.03
X95.693Y-595.57
X95.693Y-598.11
X95.693Y-600.65
X95.693Y-603.19
X95.693Y-605.73
X95.693Y-608.27
X95.693Y-610.81
X95.693Y-613.35
X98.233Y-455.87
X98.233Y-458.41
X98.233Y-460.95
X98.233Y-463.49
X98.233Y-466.03
X98.233Y-468.57
X98.233Y-471.11
X98.233Y-473.65
X98.233Y-476.19
X98.233Y-478.73
X98.233Y-481.27
X98.233Y-483.81
X98.233Y-486.35
X98.233Y-488.89
X98.233Y-491.43
X98.233Y-493.97
X98.233Y-496.51
X98.233Y-499.05
X98.233Y-501.59
X98.233Y-504.13
X98.233Y-506.67
X98.233Y-509.21
X98.233Y-511.75
X98.233Y-514.29
X98.233Y-516.83
X98.233Y-519.37
X98.233Y-521.91
X98.233Y-524.45
X98.233Y-526.99
X98.233Y-529.53
X98.233Y-532.07
X98.233Y-534.61
X98.233Y-537.15
X98.233Y-539.69
X98.233Y-542.23
X98.233Y-544.77
X98.233Y-547.31
X98.233Y-549.85
X98.233Y-552.39
X98.233Y-554.93
X98.233Y-557.47
X98.233Y-560.01
X98.233Y-562.55
X98.233Y-565.09
X98.233Y-567.63
X98.233Y-570.17
X98.233Y-572.71
X98.233Y-575.25
X98.233Y-577.79
X98.233Y-580.33
X98.233Y-582.87
X98.233Y-585.41
X98.233Y-587.95
X98.233Y-590.49
X98.233Y-593.03
X98.233Y-595.57
X98.233Y-598.11
X98.233Y-600.65
X98.233Y-603.19
X98.233Y-605.73
X98.233Y-608.27
X98.233Y-610.81
X98.233Y-613.35
X100.773Y-455.87
X100.773Y-458.41
X100.773Y-460.95
X100.773Y-463.49
X100.773Y-466.03
X100.773Y-468.57
X100.773Y-471.11
X100.773Y-473.65
X100.773Y-476.19
X100.773Y-478.73
X100.773Y-481.27
X100.773Y-483.81
X100.773Y-486.35
X100.773Y-488.89
X100.773Y-491.43
X100.773Y-493.97
X100.773Y-496.51
X100.773Y-499.05
X100.773Y-501.59
X100.773Y-504.13
X100.773Y-506.67
X100.773Y-509.21
X100.773Y-511.75
X100.773Y-514.29
X100.773Y-516.83
X100.773Y-519.37
X100.773Y-521.91
X100.773Y-524.45
X100.773Y-526.99
X100.773Y-529.53
X100.773Y-532.07
X100.773Y-534.61
X100.773Y-537.15
X100.773Y-539.69
X100.773Y-542.23
X100.773Y-544.77
X100.773Y-547.31
X100.773Y-549.85
X100.773Y-552.39
X100.773Y-554.93
X100.773Y-557.47
X100.773Y-560.01
X100.773Y-562.55
X100.773Y-565.09
X100.773Y-572.71
X100.773Y-575.25
X100.773Y-577.79
X100.773Y-580.33
X100.773Y-582.87
X100.773Y-585.41
X100.773Y-587.95
X100.773Y-590.49
X100.773Y-593.03
X100.773Y-595.57
X100.773Y-598.11
X100.773Y-600.65
X100.773Y-603.19
X100.773Y-605.73
X100.773Y-608.27
X100.773Y-610.81
X100.773Y-613.35
X103.313Y-455.87
X103.313Y-458.41
X103.313Y-460.95
X103.313Y-463.49
X103.313Y-466.03
X103.313Y-468.57
X103.313Y-471.11
X103.313Y-473.65
X103.313Y-476.19
X103.313Y-478.73
X103.313Y-481.27
X103.313Y-483.81
X103.313Y-486.35
X103.313Y-488.89
X103.313Y-491.43
X103.313Y-493.97
X103.313Y-496.51
X103.313Y-499.05
X103.313Y-501.59
X103.313Y-504.13
X103.313Y-506.67
X103.313Y-509.21
X103.313Y-511.75
X103.313Y-514.29
X103.313Y-516.83
X103.313Y-519.37
X103.313Y-521.91
X103.313Y-524.45
X103.313Y-526.99
X103.313Y-529.53
X103.313Y-532.07
X103.313Y-534.61
X103.313Y-537.15
X103.313Y-549.85
X103.313Y-552.39
X103.313Y-554.93
X103.313Y-557.47
X103.313Y-560.01
X103.313Y-562.55
X103.313Y-565.09
X103.313Y-567.63
X103.313Y-587.95
X103.313Y-610.81
X103.313Y-613.35
X105.853Y-455.87
X105.853Y-458.41
X105.853Y-460.95
X105.853Y-463.49
X105.853Y-466.03
X105.853Y-468.57
X105.853Y-471.11
X105.853Y-473.65
X105.853Y-476.19
X105.853Y-478.73
X105.853Y-481.27
X105.853Y-483.81
X105.853Y-486.35
X105.853Y-488.89
X105.853Y-491.43
X105.853Y-493.97
X105.853Y-496.51
X105.853Y-499.05
X105.853Y-501.59
X105.853Y-504.13
X105.853Y-506.67
X105.853Y-509.21
X105.853Y-511.75
X105.853Y-514.29
X105.853Y-516.83
X105.853Y-519.37
X105.853Y-521.91
X105.853Y-524.45
X105.853Y-526.99
X105.853Y-529.53
X105.853Y-532.07
X105.853Y-534.61
X105.853Y-537.15
X105.853Y-539.69
X105.853Y-542.23
X105.853Y-544.77
X105.853Y-552.39
X105.853Y-554.93
X105.853Y-557.47
X105.853Y-560.01
X105.853Y-562.55
X105.853Y-565.09
X105.853Y-575.25
X105.853Y-577.79
X105.853Y-580.33
X105.853Y-582.87
X105.853Y-585.41
X105.853Y-587.95
X105.853Y-593.03
X105.853Y-595.57
X105.853Y-598.11
X105.853Y-600.65
X105.853Y-603.19
X105.853Y-605.73
X105.853Y-610.81
X105.853Y-613.35
X108.393Y-455.87
X108.393Y-458.41
X108.393Y-460.95
X108.393Y-463.49
X108.393Y-466.03
X108.393Y-468.57
X108.393Y-471.11
X108.393Y-473.65
X108.393Y-476.19
X108.393Y-478.73
X108.393Y-481.27
X108.393Y-483.81
X108.393Y-486.35
X108.393Y-488.89
X108.393Y-491.43
X108.393Y-493.97
X108.393Y-496.51
X108.393Y-499.05
X108.393Y-501.59
X108.393Y-504.13
X108.393Y-506.67
X108.393Y-509.21
X108.393Y-511.75
X108.393Y-514.29
X108.393Y-516.83
X108.393Y-519.37
X108.393Y-521.91
X108.393Y-524.45
X108.393Y-526.99
X108.393Y-529.53
X108.393Y-532.07
X108.393Y-534.61
X108.393Y-537.15
X108.393Y-547.31
X108.393Y-554.93
X108.393Y-562.55
X108.393Y-565.09
X108.393Y-598.11
X110.933Y-455.87
X110.933Y-458.41
X110.933Y-460.95
X110.933Y-463.49
X110.933Y-466.03
X110.933Y-468.57
X110.933Y-471.11
X110.933Y-473.65
X110.933Y-476.19
X110.933Y-478.73
X110.933Y-481.27
X110.933Y-483.81
X110.933Y-486.35
X110.933Y-488.89
X110.933Y-491.43
X110.933Y-493.97
X110.933Y-496.51
X110.933Y-499.05
X110.933Y-501.59
X110.933Y-504.13
X110.933Y-506.67
X110.933Y-509.21
X110.933Y-511.75
X110.933Y-514.29
X110.933Y-516.83
X110.933Y-524.45
X110.933Y-526.99
X110.933Y-529.53
X110.933Y-532.07
X110.933Y-534.61
X110.933Y-537.15
X110.933Y-539.69
X110.933Y-542.23
X110.933Y-544.77
X110.933Y-547.31
X110.933Y-549.85
X110.933Y-552.39
X110.933Y-554.93
X110.933Y-557.47
X110.933Y-560.01
X110.933Y-562.55
X110.933Y-565.09
X110.933Y-572.71
X110.933Y-575.25
X110.933Y-577.79
X110.933Y-580.33
X110.933Y-582.87
X110.933Y-585.41
X110.933Y-593.03
X110.933Y-595.57
X110.933Y-603.19
X110.933Y-605.73
X113.473Y-460.95
X113.473Y-463.49
X113.473Y-466.03
X113.473Y-468.57
X113.473Y-471.11
X113.473Y-473.65
X113.473Y-476.19
X113.473Y-478.73
X113.473Y-481.27
X113.473Y-483.81
X113.473Y-486.35
X113.473Y-488.89
X113.473Y-491.43
X113.473Y-493.97
X113.473Y-496.51
X113.473Y-499.05
X113.473Y-509.21
X113.473Y-516.83
X113.473Y-524.45
X113.473Y-526.99
X113.473Y-529.53
X113.473Y-532.07
X113.473Y-534.61
X113.473Y-537.15
X113.473Y-539.69
X113.473Y-542.23
X113.473Y-544.77
X113.473Y-547.31
X113.473Y-549.85
X113.473Y-552.39
X113.473Y-554.93
X113.473Y-557.47
X113.473Y-560.01
X113.473Y-562.55
X113.473Y-565.09
X113.473Y-567.63
X113.473Y-575.25
X113.473Y-577.79
X113.473Y-580.33
X113.473Y-582.87
X113.473Y-585.41
X113.473Y-593.03
X116.013Y-460.95
X116.013Y-463.49
X116.013Y-466.03
X116.013Y-468.57
X116.013Y-471.11
X116.013Y-473.65
X116.013Y-476.19
X116.013Y-478.73
X116.013Y-481.27
X116.013Y-483.81
X116.013Y-486.35
X116.013Y-488.89
X116.013Y-491.43
X116.013Y-493.97
X116.013Y-496.51
X116.013Y-499.05
X116.013Y-509.21
X116.013Y-516.83
X116.013Y-521.91
X116.013Y-524.45
X116.013Y-526.99
X116.013Y-529.53
X116.013Y-537.15
X116.013Y-539.69
X116.013Y-542.23
X116.013Y-544.77
X116.013Y-547.31
X116.013Y-549.85
X116.013Y-552.39
X116.013Y-554.93
X116.013Y-557.47
X116.013Y-560.01
X116.013Y-562.55
X116.013Y-565.09
X116.013Y-567.63
X116.013Y-570.17
X116.013Y-593.03
X116.013Y-595.57
X116.013Y-598.11
X116.013Y-600.65
X118.553Y-460.95
X118.553Y-463.49
X118.553Y-466.03
X118.553Y-468.57
X118.553Y-471.11
X118.553Y-473.65
X118.553Y-476.19
X118.553Y-478.73
X118.553Y-481.27
X118.553Y-483.81
X118.553Y-486.35
X118.553Y-488.89
X118.553Y-491.43
X118.553Y-493.97
X118.553Y-496.51
X118.553Y-499.05
X118.553Y-509.21
X118.553Y-511.75
X118.553Y-516.83
X118.553Y-524.45
X118.553Y-526.99
X118.553Y-529.53
X118.553Y-532.07
X118.553Y-534.61
X118.553Y-537.15
X118.553Y-539.69
X118.553Y-542.23
X118.553Y-544.77
X118.553Y-547.31
X118.553Y-549.85
X118.553Y-552.39
X118.553Y-554.93
X118.553Y-557.47
X118.553Y-560.01
X118.553Y-562.55
X118.553Y-565.09
X118.553Y-567.63
X118.553Y-570.17
X118.553Y-572.71
X118.553Y-580.33
X118.553Y-605.73
X121.093Y-455.87
X121.093Y-458.41
X121.093Y-460.95
X121.093Y-463.49
X121.093Y-466.03
X121.093Y-468.57
X121.093Y-471.11
X121.093Y-473.65
X121.093Y-476.19
X121.093Y-478.73
X121.093Y-481.27
X121.093Y-483.81
X121.093Y-486.35
X121.093Y-488.89
X121.093Y-491.43
X121.093Y-493.97
X121.093Y-496.51
X121.093Y-499.05
X121.093Y-501.59
X121.093Y-504.13
X121.093Y-506.67
X121.093Y-509.21
X121.093Y-519.37
X121.093Y-524.45
X121.093Y-526.99
X121.093Y-529.53
X121.093Y-532.07
X121.093Y-534.61
X121.093Y-537.15
X121.093Y-539.69
X121.093Y-542.23
X121.093Y-544.77
X121.093Y-547.31
X121.093Y-549.85
X121.093Y-552.39
X121.093Y-554.93
X121.093Y-557.47
X121.093Y-560.01
X121.093Y-562.55
X121.093Y-565.09
X121.093Y-567.63
X121.093Y-570.17
X121.093Y-572.71
X121.093Y-575.25
X121.093Y-585.41
X123.633Y-455.87
X123.633Y-458.41
X123.633Y-460.95
X123.633Y-463.49
X123.633Y-466.03
X123.633Y-468.57
X123.633Y-471.11
X123.633Y-473.65
X123.633Y-476.19
X123.633Y-478.73
X123.633Y-481.27
X123.633Y-483.81
X123.633Y-486.35
X123.633Y-488.89
X123.633Y-491.43
X123.633Y-493.97
X123.633Y-496.51
X123.633Y-499.05
X123.633Y-501.59
X123.633Y-504.13
X123.633Y-506.67
X123.633Y-509.21
X123.633Y-511.75
X123.633Y-514.29
X123.633Y-516.83
X123.633Y-521.91
X123.633Y-524.45
X123.633Y-526.99
X123.633Y-529.53
X123.633Y-532.07
X123.633Y-534.61
X123.633Y-537.15
X123.633Y-539.69
X123.633Y-542.23
X123.633Y-544.77
X123.633Y-547.31
X123.633Y-549.85
X123.633Y-570.17
X123.633Y-572.71
X123.633Y-575.25
X123.633Y-587.95
X123.633Y-600.65
X123.633Y-613.35
X126.173Y-455.87
X126.173Y-458.41
X126.173Y-460.95
X126.173Y-463.49
X126.173Y-466.03
X126.173Y-468.57
X126.173Y-471.11
X126.173Y-473.65
X126.173Y-476.19
X126.173Y-478.73
X126.173Y-481.27
X126.173Y-483.81
X126.173Y-486.35
X126.173Y-488.89
X126.173Y-491.43
X126.173Y-493.97
X126.173Y-496.51
X126.173Y-499.05
X126.173Y-501.59
X126.173Y-504.13
X126.173Y-506.67
X126.173Y-509.21
X126.173Y-511.75
X126.173Y-514.29
X126.173Y-516.83
X126.173Y-519.37
X126.173Y-524.45
X126.173Y-526.99
X126.173Y-529.53
X126.173Y-532.07
X126.173Y-534.61
X126.173Y-537.15
X126.173Y-539.69
X126.173Y-542.23
X126.173Y-544.77
X126.173Y-547.31
X126.173Y-549.85
X126.173Y-552.39
X126.173Y-554.93
X126.173Y-610.81
X126.173Y-613.35
X128.713Y-455.87
X128.713Y-458.41
X128.713Y-460.95
X128.713Y-463.49
X128.713Y-466.03
X128.713Y-468.57
X128.713Y-471.11
X128.713Y-473.65
X128.713Y-476.19
X128.713Y-478.73
X128.713Y-481.27
X128.713Y-483.81
X128.713Y-486.35
X128.713Y-488.89
X128.713Y-491.43
X128.713Y-493.97
X128.713Y-496.51
X128.713Y-499.05
X128.713Y-501.59
X128.713Y-504.13
X128.713Y-506.67
X128.713Y-509.21
X128.713Y-511.75
X128.713Y-514.29
X128.713Y-516.83
X128.713Y-519.37
X128.713Y-521.91
X128.713Y-526.99
X128.713Y-529.53
X128.713Y-532.07
X128.713Y-534.61
X128.713Y-537.15
X128.713Y-539.69
X128.713Y-542.23
X128.713Y-544.77
X128.713Y-547.31
X128.713Y-549.85
X128.713Y-570.17
X128.713Y-572.71
X128.713Y-575.25
X128.713Y-603.19
X128.713Y-605.73
X128.713Y-608.27
X128.713Y-610.81
X128.713Y-613.35
X131.253Y-455.87
X131.253Y-458.41
X131.253Y-460.95
X131.253Y-463.49
X131.253Y-466.03
X131.253Y-468.57
X131.253Y-471.11
X131.253Y-473.65
X131.253Y-476.19
X131.253Y-478.73
X131.253Y-481.27
X131.253Y-483.81
X131.253Y-486.35
X131.253Y-488.89
X131.253Y-491.43
X131.253Y-493.97
X131.253Y-496.51
X131.253Y-499.05
X131.253Y-501.59
X131.253Y-504.13
X131.253Y-506.67
X131.253Y-509.21
X131.253Y-511.75
X131.253Y-514.29
X131.253Y-516.83
X131.253Y-519.37
X131.253Y-521.91
X131.253Y-524.45
X131.253Y-593.03
X131.253Y-595.57
X131.253Y-598.11
X131.253Y-600.65
X131.253Y-603.19
X131.253Y-605.73
X131.253Y-608.27
X131.253Y-610.81
X131.253Y-613.35
X133.793Y-455.87
X133.793Y-458.41
X133.793Y-460.95
X133.793Y-463.49
X133.793Y-466.03
X133.793Y-468.57
X133.793Y-471.11
X133.793Y-473.65
X133.793Y-476.19
X133.793Y-478.73
X133.793Y-481.27
X133.793Y-483.81
X133.793Y-486.35
X133.793Y-488.89
X133.793Y-491.43
X133.793Y-493.97
X133.793Y-496.51
X133.793Y-499.05
X133.793Y-501.59
X133.793Y-504.13
X133.793Y-506.67
X133.793Y-509.21
X133.793Y-511.75
X133.793Y-514.29
X133.793Y-516.83
X133.793Y-519.37
X133.793Y-521.91
X133.793Y-524.45
X133.793Y-526.99
X133.793Y-529.53
X133.793Y-532.07
X133.793Y-534.61
X133.793Y-537.15
X133.793Y-539.69
X133.793Y-542.23
X133.793Y-544.77
X133.793Y-547.31
X133.793Y-549.85
X133.793Y-552.39
X133.793Y-554.93
X133.793Y-557.47
X133.793Y-560.01
X133.793Y-562.55
X133.793Y-565.09
X133.793Y-567.63
X133.793Y-570.17
X133.793Y-572.71
X133.793Y-575.25
X133.793Y-577.79
X133.793Y-580.33
X133.793Y-582.87
X133.793Y-585.41
X133.793Y-587.95
X133.793Y-590.49
X133.793Y-593.03
X133.793Y-595.57
X133.793Y-598.11
X133.793Y-600.65
X133.793Y-603.19
X133.793Y-605.73
X133.793Y-608.27
X133.793Y-610.81
X133.793Y-613.35
X136.333Y-455.87
X136.333Y-458.41
X136.333Y-460.95
X136.333Y-463.49
X136.333Y-466.03
X136.333Y-468.57
X136.333Y-471.11
X136.333Y-473.65
X136.333Y-476.19
X136.333Y-478.73
X136.333Y-481.27
X136.333Y-483.81
X136.333Y-486.35
X136.333Y-488.89
X136.333Y-491.43
X136.333Y-493.97
X136.333Y-496.51
X136.333Y-499.05
X136.333Y-501.59
X136.333Y-504.13
X136.333Y-506.67
X136.333Y-509.21
X136.333Y-511.75
X136.333Y-514.29
X136.333Y-516.83
X136.333Y-519.37
X136.333Y-521.91
X136.333Y-524.45
X136.333Y-526.99
X136.333Y-529.53
X136.333Y-532.07
X136.333Y-534.61
X136.333Y-537.15
X136.333Y-539.69
X136.333Y-542.23
X136.333Y-544.77
X136.333Y-547.31
X136.333Y-549.85
X136.333Y-552.39
X136.333Y-554.93
X136.333Y-557.47
X136.333Y-560.01
X136.333Y-562.55
X136.333Y-565.09
X136.333Y-567.63
X136.333Y-570.17
X136.333Y-572.71
X136.333Y-575.25
X136.333Y-577.79
X136.333Y-580.33
X136.333Y-582.87
X136.333Y-585.41
X136.333Y-587.95
X136.333Y-590.49
X136.333Y-593.03
X136.333Y-595.57
X136.333Y-598.11
X136.333Y-600.65
X136.333Y-603.19
X136.333Y-605.73
X136.333Y-608.27
X136.333Y-610.81
X136.333Y-613.35
X138.873Y-458.41
X138.873Y-460.95
X138.873Y-463.49
X138.873Y-466.03
X138.873Y-468.57
X138.873Y-471.11
X138.873Y-473.65
X138.873Y-476.19
X138.873Y-478.73
X138.873Y-481.27
X138.873Y-483.81
X138.873Y-486.35
X138.873Y-488.89
X138.873Y-491.43
X138.873Y-493.97
X138.873Y-496.51
X138.873Y-499.05
X138.873Y-501.59
X138.873Y-504.13
X138.873Y-514.29
X138.873Y-516.83
X138.873Y-519.37
X138.873Y-521.91
X138.873Y-524.45
X138.873Y-526.99
X138.873Y-529.53
X138.873Y-532.07
X138.873Y-534.61
X138.873Y-537.15
X138.873Y-539.69
X138.873Y-542.23
X138.873Y-544.77
X138.873Y-547.31
X138.873Y-549.85
X138.873Y-552.39
X138.873Y-554.93
X138.873Y-557.47
X138.873Y-560.01
X138.873Y-570.17
X138.873Y-572.71
X138.873Y-575.25
X138.873Y-577.79
X138.873Y-580.33
X138.873Y-582.87
X138.873Y-585.41
X138.873Y-587.95
X138.873Y-590.49
X138.873Y-593.03
X138.873Y-595.57
X138.873Y-598.11
X138.873Y-600.65
X138.873Y-603.19
X138.873Y-605.73
X138.873Y-608.27
X138.873Y-610.81
T2
X104.221Y-607.998
X123.401Y-602.675
X128.001Y-588.375
T3
X88.321Y-452.873
X88.321Y-508.706
X88.321Y-564.54
X88.321Y-615.373
X89.024Y-451.176
X89.024Y-454.57
X89.024Y-507.009
X89.024Y-510.403
X89.024Y-562.843
X89.024Y-566.237
X89.024Y-613.676
X89.024Y-617.07
X90.721Y-450.473
X90.721Y-455.273
X90.721Y-506.306
X90.721Y-511.106
X90.721Y-562.14
X90.721Y-566.94
X90.721Y-612.973
X90.721Y-617.773
X92.418Y-451.176
X92.418Y-454.57
X92.418Y-507.009
X92.418Y-510.403
X92.418Y-562.843
X92.418Y-566.237
X92.418Y-613.676
X92.418Y-617.07
X93.121Y-452.873
X93.121Y-508.706
X93.121Y-564.54
X93.121Y-615.373
X113.301Y-455.875
X113.301Y-503.375
X114.004Y-454.178
X114.004Y-457.572
X114.004Y-501.678
X114.004Y-505.072
X115.701Y-453.475
X115.701Y-458.275
X115.701Y-500.975
X115.701Y-505.775
X117.398Y-454.178
X117.398Y-457.572
X117.398Y-501.678
X117.398Y-505.072
X118.101Y-455.875
X118.101Y-503.375
X138.321Y-452.873
X138.321Y-508.706
X138.321Y-564.54
X138.321Y-615.373
X139.024Y-451.176
X139.024Y-454.57
X139.024Y-507.009
X139.024Y-510.403
X139.024Y-562.843
X139.024Y-566.237
X139.024Y-613.676
X139.024Y-617.07
X140.721Y-450.473
X140.721Y-455.273
X140.721Y-506.306
X140.721Y-511.106
X140.721Y-562.14
X140.721Y-566.94
X140.721Y-612.973
X140.721Y-617.773
X142.418Y-451.176
X142.418Y-454.57
X142.418Y-507.009
X142.418Y-510.403
X142.418Y-562.843
X142.418Y-566.237
X142.418Y-613.676
X142.418Y-617.07
X143.121Y-452.873
X143.121Y-508.706
X143.121Y-564.54
X143.121Y-615.373
T4
X114.401Y-513.348
X116.941Y-513.348
T5
X109.641Y-609.458
X109.641Y-611.998
X112.181Y-609.458
X112.181Y-611.998
X114.721Y-609.458
X114.721Y-611.998
X117.261Y-609.458
X117.261Y-611.998
X119.801Y-609.458
X119.801Y-611.998
T6
X103.321Y-578.873
X103.321Y-583.873
X103.471Y-539.623
X103.471Y-544.623
X108.321Y-578.873
X108.321Y-583.873
X108.471Y-539.623
X108.471Y-544.623
X112.821Y-597.623
X112.821Y-602.623
X117.821Y-597.623
X117.821Y-602.623
X122.721Y-579.123
X122.721Y-584.123
X123.471Y-553.523
X123.471Y-558.523
X123.471Y-563.523
X123.471Y-568.523
X127.721Y-579.123
X127.721Y-584.123
X128.471Y-553.523
X128.471Y-558.523
X128.471Y-563.523
X128.471Y-568.523
T7
X111.911Y-520.123
X111.911Y-590.123
X114.411Y-590.123
X116.911Y-520.123
X116.911Y-590.123
X119.411Y-590.123
T8
X100.661Y-568.763
X108.281Y-550.983
X108.281Y-558.603
X108.281Y-568.763
T9
X115.661Y-532.623
X115.661Y-580.123
T10
X90.721Y-452.873
X90.721Y-508.706
X90.721Y-564.54
X90.721Y-615.373
X115.701Y-455.875
X115.701Y-503.375
X140.721Y-452.873
X140.721Y-508.706
X140.721Y-564.54
X140.721Y-615.373
T11
X111.911Y-522.123
X111.911Y-588.123
X119.411Y-522.123
X119.411Y-588.123
T0
M30
