%TF.GenerationSoftware,KiCad,Pcbnew,7.0.8*%
%TF.CreationDate,2023-11-15T13:51:47+01:00*%
%TF.ProjectId,module-rev1,6d6f6475-6c65-42d7-9265-76312e6b6963,rev?*%
%TF.SameCoordinates,Original*%
%TF.FileFunction,Legend,Bot*%
%TF.FilePolarity,Positive*%
%FSLAX46Y46*%
G04 Gerber Fmt 4.6, Leading zero omitted, Abs format (unit mm)*
G04 Created by KiCad (PCBNEW 7.0.8) date 2023-11-15 13:51:47*
%MOMM*%
%LPD*%
G01*
G04 APERTURE LIST*
%ADD10C,0.100000*%
%ADD11C,0.150000*%
%ADD12C,0.120000*%
G04 APERTURE END LIST*
D10*
X115703262Y-556670642D02*
X116179453Y-557003975D01*
X115703262Y-557242070D02*
X116703262Y-557242070D01*
X116703262Y-557242070D02*
X116703262Y-556861118D01*
X116703262Y-556861118D02*
X116655643Y-556765880D01*
X116655643Y-556765880D02*
X116608024Y-556718261D01*
X116608024Y-556718261D02*
X116512786Y-556670642D01*
X116512786Y-556670642D02*
X116369929Y-556670642D01*
X116369929Y-556670642D02*
X116274691Y-556718261D01*
X116274691Y-556718261D02*
X116227072Y-556765880D01*
X116227072Y-556765880D02*
X116179453Y-556861118D01*
X116179453Y-556861118D02*
X116179453Y-557242070D01*
X116703262Y-556384927D02*
X115703262Y-556051594D01*
X115703262Y-556051594D02*
X116703262Y-555718261D01*
X116703262Y-554908737D02*
X116703262Y-555384927D01*
X116703262Y-555384927D02*
X116227072Y-555432546D01*
X116227072Y-555432546D02*
X116274691Y-555384927D01*
X116274691Y-555384927D02*
X116322310Y-555289689D01*
X116322310Y-555289689D02*
X116322310Y-555051594D01*
X116322310Y-555051594D02*
X116274691Y-554956356D01*
X116274691Y-554956356D02*
X116227072Y-554908737D01*
X116227072Y-554908737D02*
X116131834Y-554861118D01*
X116131834Y-554861118D02*
X115893739Y-554861118D01*
X115893739Y-554861118D02*
X115798501Y-554908737D01*
X115798501Y-554908737D02*
X115750882Y-554956356D01*
X115750882Y-554956356D02*
X115703262Y-555051594D01*
X115703262Y-555051594D02*
X115703262Y-555289689D01*
X115703262Y-555289689D02*
X115750882Y-555384927D01*
X115750882Y-555384927D02*
X115798501Y-555432546D01*
X116703262Y-554242070D02*
X116703262Y-554146832D01*
X116703262Y-554146832D02*
X116655643Y-554051594D01*
X116655643Y-554051594D02*
X116608024Y-554003975D01*
X116608024Y-554003975D02*
X116512786Y-553956356D01*
X116512786Y-553956356D02*
X116322310Y-553908737D01*
X116322310Y-553908737D02*
X116084215Y-553908737D01*
X116084215Y-553908737D02*
X115893739Y-553956356D01*
X115893739Y-553956356D02*
X115798501Y-554003975D01*
X115798501Y-554003975D02*
X115750882Y-554051594D01*
X115750882Y-554051594D02*
X115703262Y-554146832D01*
X115703262Y-554146832D02*
X115703262Y-554242070D01*
X115703262Y-554242070D02*
X115750882Y-554337308D01*
X115750882Y-554337308D02*
X115798501Y-554384927D01*
X115798501Y-554384927D02*
X115893739Y-554432546D01*
X115893739Y-554432546D02*
X116084215Y-554480165D01*
X116084215Y-554480165D02*
X116322310Y-554480165D01*
X116322310Y-554480165D02*
X116512786Y-554432546D01*
X116512786Y-554432546D02*
X116608024Y-554384927D01*
X116608024Y-554384927D02*
X116655643Y-554337308D01*
X116655643Y-554337308D02*
X116703262Y-554242070D01*
X115703262Y-552956356D02*
X115703262Y-553527784D01*
X115703262Y-553242070D02*
X116703262Y-553242070D01*
X116703262Y-553242070D02*
X116560405Y-553337308D01*
X116560405Y-553337308D02*
X116465167Y-553432546D01*
X116465167Y-553432546D02*
X116417548Y-553527784D01*
D11*
X117361157Y-517762842D02*
X117361157Y-516762842D01*
X117361157Y-516762842D02*
X117123062Y-516762842D01*
X117123062Y-516762842D02*
X116980205Y-516810461D01*
X116980205Y-516810461D02*
X116884967Y-516905699D01*
X116884967Y-516905699D02*
X116837348Y-517000937D01*
X116837348Y-517000937D02*
X116789729Y-517191413D01*
X116789729Y-517191413D02*
X116789729Y-517334270D01*
X116789729Y-517334270D02*
X116837348Y-517524746D01*
X116837348Y-517524746D02*
X116884967Y-517619984D01*
X116884967Y-517619984D02*
X116980205Y-517715223D01*
X116980205Y-517715223D02*
X117123062Y-517762842D01*
X117123062Y-517762842D02*
X117361157Y-517762842D01*
X115884967Y-516762842D02*
X116361157Y-516762842D01*
X116361157Y-516762842D02*
X116408776Y-517239032D01*
X116408776Y-517239032D02*
X116361157Y-517191413D01*
X116361157Y-517191413D02*
X116265919Y-517143794D01*
X116265919Y-517143794D02*
X116027824Y-517143794D01*
X116027824Y-517143794D02*
X115932586Y-517191413D01*
X115932586Y-517191413D02*
X115884967Y-517239032D01*
X115884967Y-517239032D02*
X115837348Y-517334270D01*
X115837348Y-517334270D02*
X115837348Y-517572365D01*
X115837348Y-517572365D02*
X115884967Y-517667603D01*
X115884967Y-517667603D02*
X115932586Y-517715223D01*
X115932586Y-517715223D02*
X116027824Y-517762842D01*
X116027824Y-517762842D02*
X116265919Y-517762842D01*
X116265919Y-517762842D02*
X116361157Y-517715223D01*
X116361157Y-517715223D02*
X116408776Y-517667603D01*
X115218300Y-516762842D02*
X115123062Y-516762842D01*
X115123062Y-516762842D02*
X115027824Y-516810461D01*
X115027824Y-516810461D02*
X114980205Y-516858080D01*
X114980205Y-516858080D02*
X114932586Y-516953318D01*
X114932586Y-516953318D02*
X114884967Y-517143794D01*
X114884967Y-517143794D02*
X114884967Y-517381889D01*
X114884967Y-517381889D02*
X114932586Y-517572365D01*
X114932586Y-517572365D02*
X114980205Y-517667603D01*
X114980205Y-517667603D02*
X115027824Y-517715223D01*
X115027824Y-517715223D02*
X115123062Y-517762842D01*
X115123062Y-517762842D02*
X115218300Y-517762842D01*
X115218300Y-517762842D02*
X115313538Y-517715223D01*
X115313538Y-517715223D02*
X115361157Y-517667603D01*
X115361157Y-517667603D02*
X115408776Y-517572365D01*
X115408776Y-517572365D02*
X115456395Y-517381889D01*
X115456395Y-517381889D02*
X115456395Y-517143794D01*
X115456395Y-517143794D02*
X115408776Y-516953318D01*
X115408776Y-516953318D02*
X115361157Y-516858080D01*
X115361157Y-516858080D02*
X115313538Y-516810461D01*
X115313538Y-516810461D02*
X115218300Y-516762842D01*
X114504014Y-516858080D02*
X114456395Y-516810461D01*
X114456395Y-516810461D02*
X114361157Y-516762842D01*
X114361157Y-516762842D02*
X114123062Y-516762842D01*
X114123062Y-516762842D02*
X114027824Y-516810461D01*
X114027824Y-516810461D02*
X113980205Y-516858080D01*
X113980205Y-516858080D02*
X113932586Y-516953318D01*
X113932586Y-516953318D02*
X113932586Y-517048556D01*
X113932586Y-517048556D02*
X113980205Y-517191413D01*
X113980205Y-517191413D02*
X114551633Y-517762842D01*
X114551633Y-517762842D02*
X113932586Y-517762842D01*
X105255501Y-609442308D02*
X105969786Y-609442308D01*
X105969786Y-609442308D02*
X106112643Y-609394689D01*
X106112643Y-609394689D02*
X106207882Y-609299451D01*
X106207882Y-609299451D02*
X106255501Y-609156594D01*
X106255501Y-609156594D02*
X106255501Y-609061356D01*
X105255501Y-610394689D02*
X105255501Y-609918499D01*
X105255501Y-609918499D02*
X105731691Y-609870880D01*
X105731691Y-609870880D02*
X105684072Y-609918499D01*
X105684072Y-609918499D02*
X105636453Y-610013737D01*
X105636453Y-610013737D02*
X105636453Y-610251832D01*
X105636453Y-610251832D02*
X105684072Y-610347070D01*
X105684072Y-610347070D02*
X105731691Y-610394689D01*
X105731691Y-610394689D02*
X105826929Y-610442308D01*
X105826929Y-610442308D02*
X106065024Y-610442308D01*
X106065024Y-610442308D02*
X106160262Y-610394689D01*
X106160262Y-610394689D02*
X106207882Y-610347070D01*
X106207882Y-610347070D02*
X106255501Y-610251832D01*
X106255501Y-610251832D02*
X106255501Y-610013737D01*
X106255501Y-610013737D02*
X106207882Y-609918499D01*
X106207882Y-609918499D02*
X106160262Y-609870880D01*
X105255501Y-611061356D02*
X105255501Y-611156594D01*
X105255501Y-611156594D02*
X105303120Y-611251832D01*
X105303120Y-611251832D02*
X105350739Y-611299451D01*
X105350739Y-611299451D02*
X105445977Y-611347070D01*
X105445977Y-611347070D02*
X105636453Y-611394689D01*
X105636453Y-611394689D02*
X105874548Y-611394689D01*
X105874548Y-611394689D02*
X106065024Y-611347070D01*
X106065024Y-611347070D02*
X106160262Y-611299451D01*
X106160262Y-611299451D02*
X106207882Y-611251832D01*
X106207882Y-611251832D02*
X106255501Y-611156594D01*
X106255501Y-611156594D02*
X106255501Y-611061356D01*
X106255501Y-611061356D02*
X106207882Y-610966118D01*
X106207882Y-610966118D02*
X106160262Y-610918499D01*
X106160262Y-610918499D02*
X106065024Y-610870880D01*
X106065024Y-610870880D02*
X105874548Y-610823261D01*
X105874548Y-610823261D02*
X105636453Y-610823261D01*
X105636453Y-610823261D02*
X105445977Y-610870880D01*
X105445977Y-610870880D02*
X105350739Y-610918499D01*
X105350739Y-610918499D02*
X105303120Y-610966118D01*
X105303120Y-610966118D02*
X105255501Y-611061356D01*
X106255501Y-612347070D02*
X106255501Y-611775642D01*
X106255501Y-612061356D02*
X105255501Y-612061356D01*
X105255501Y-612061356D02*
X105398358Y-611966118D01*
X105398358Y-611966118D02*
X105493596Y-611870880D01*
X105493596Y-611870880D02*
X105541215Y-611775642D01*
D10*
%TO.C,RV501*%
X120960682Y-591723023D02*
X110260682Y-591723023D01*
X110260682Y-591723023D02*
X110260682Y-518323023D01*
X110260682Y-518323023D02*
X120960682Y-518323023D01*
X120960682Y-518323023D02*
X120960682Y-591723023D01*
X123060682Y-592823023D02*
G75*
G03*
X123060682Y-592823023I-500000J0D01*
G01*
D12*
%TO.C,D502*%
X113110682Y-514893023D02*
X113110682Y-511803023D01*
X118660681Y-513348485D02*
G75*
G03*
X113110683Y-511803193I-2989999J462D01*
G01*
X113110682Y-514892853D02*
G75*
G03*
X118660682Y-513347561I2560000J1544830D01*
G01*
X118170682Y-513348023D02*
G75*
G03*
X118170682Y-513348023I-2500000J0D01*
G01*
%TO.C,J501*%
X121130682Y-608128023D02*
X121130682Y-613328023D01*
X108310682Y-608128023D02*
X121130682Y-608128023D01*
X108310682Y-608128023D02*
X108310682Y-610728023D01*
X110910682Y-610728023D02*
X110910682Y-613328023D01*
X108310682Y-610728023D02*
X110910682Y-610728023D01*
X108310682Y-611998023D02*
X108310682Y-613328023D01*
X110910682Y-613328023D02*
X121130682Y-613328023D01*
X108310682Y-613328023D02*
X109640682Y-613328023D01*
%TD*%
M02*
