%TF.GenerationSoftware,KiCad,Pcbnew,7.0.8*%
%TF.CreationDate,2023-11-15T12:45:32+01:00*%
%TF.ProjectId,panel-rev1,70616e65-6c2d-4726-9576-312e6b696361,rev?*%
%TF.SameCoordinates,Original*%
%TF.FileFunction,Profile,NP*%
%FSLAX46Y46*%
G04 Gerber Fmt 4.6, Leading zero omitted, Abs format (unit mm)*
G04 Created by KiCad (PCBNEW 7.0.8) date 2023-11-15 12:45:32*
%MOMM*%
%LPD*%
G01*
G04 APERTURE LIST*
%TA.AperFunction,Profile*%
%ADD10C,0.100000*%
%TD*%
%TA.AperFunction,Profile*%
%ADD11C,0.150000*%
%TD*%
%TA.AperFunction,Profile*%
%ADD12C,0.200000*%
%TD*%
G04 APERTURE END LIST*
D10*
X81043785Y-428742468D02*
X569984629Y-428757531D01*
X569978373Y-156266911D02*
X81037529Y-156251847D01*
D11*
X255852082Y-191174689D02*
G75*
G03*
X255852082Y-191174689I-6251400J0D01*
G01*
D10*
X76022158Y-423742161D02*
X76037222Y-161273474D01*
D11*
X287852082Y-191174689D02*
G75*
G03*
X287852082Y-191174689I-6251400J0D01*
G01*
X467852082Y-191174689D02*
G75*
G03*
X467852082Y-191174689I-6251400J0D01*
G01*
X481850000Y-226300000D02*
G75*
G03*
X481850000Y-226300000I-6500000J0D01*
G01*
X234050682Y-319724689D02*
X237050682Y-319724689D01*
X237050682Y-386724689D01*
X234050682Y-386724689D01*
X234050682Y-319724689D01*
X358532348Y-311626355D02*
G75*
G03*
X358532348Y-311626355I-3001666J0D01*
G01*
D12*
X76022199Y-423742161D02*
G75*
G03*
X81043785Y-428742468I5019929J19661D01*
G01*
D11*
X114050682Y-319724689D02*
X117050682Y-319724689D01*
X117050682Y-386724689D01*
X114050682Y-386724689D01*
X114050682Y-319724689D01*
X407852082Y-191174689D02*
G75*
G03*
X407852082Y-191174689I-6251400J0D01*
G01*
X121850000Y-226300000D02*
G75*
G03*
X121850000Y-226300000I-6500000J0D01*
G01*
X178532348Y-311626355D02*
G75*
G03*
X178532348Y-311626355I-3001666J0D01*
G01*
X167852082Y-191174689D02*
G75*
G03*
X167852082Y-191174689I-6251400J0D01*
G01*
X118532348Y-311626355D02*
G75*
G03*
X118532348Y-311626355I-3001666J0D01*
G01*
X361850000Y-226300000D02*
G75*
G03*
X361850000Y-226300000I-6500000J0D01*
G01*
X107852082Y-191174689D02*
G75*
G03*
X107852082Y-191174689I-6251400J0D01*
G01*
X298532348Y-311626355D02*
G75*
G03*
X298532348Y-311626355I-3001666J0D01*
G01*
D12*
X574999937Y-161267218D02*
G75*
G03*
X569978373Y-156266911I-5019851J-19582D01*
G01*
D11*
X347852082Y-191174689D02*
G75*
G03*
X347852082Y-191174689I-6251400J0D01*
G01*
D12*
X569984629Y-428757512D02*
G75*
G03*
X574984936Y-423735904I-19643J5019912D01*
G01*
D11*
X301850000Y-226300000D02*
G75*
G03*
X301850000Y-226300000I-6500000J0D01*
G01*
X418532348Y-311626355D02*
G75*
G03*
X418532348Y-311626355I-3001666J0D01*
G01*
X478532348Y-311626355D02*
G75*
G03*
X478532348Y-311626355I-3001666J0D01*
G01*
X375852082Y-191174689D02*
G75*
G03*
X375852082Y-191174689I-6251400J0D01*
G01*
D10*
X574984936Y-423735904D02*
X575000000Y-161267218D01*
D11*
X238532348Y-311626355D02*
G75*
G03*
X238532348Y-311626355I-3001666J0D01*
G01*
X354050682Y-319724689D02*
X357050682Y-319724689D01*
X357050682Y-386724689D01*
X354050682Y-386724689D01*
X354050682Y-319724689D01*
X538532348Y-311626355D02*
G75*
G03*
X538532348Y-311626355I-3001666J0D01*
G01*
X294050682Y-319724689D02*
X297050682Y-319724689D01*
X297050682Y-386724689D01*
X294050682Y-386724689D01*
X294050682Y-319724689D01*
X474050682Y-319724689D02*
X477050682Y-319724689D01*
X477050682Y-386724689D01*
X474050682Y-386724689D01*
X474050682Y-319724689D01*
X241850000Y-226300000D02*
G75*
G03*
X241850000Y-226300000I-6500000J0D01*
G01*
X495852082Y-191174689D02*
G75*
G03*
X495852082Y-191174689I-6251400J0D01*
G01*
X435852082Y-191174689D02*
G75*
G03*
X435852082Y-191174689I-6251400J0D01*
G01*
D12*
X81037529Y-156251833D02*
G75*
G03*
X76037222Y-161273474I19699J-5019967D01*
G01*
D11*
X421850000Y-226300000D02*
G75*
G03*
X421850000Y-226300000I-6500000J0D01*
G01*
X227852082Y-191174689D02*
G75*
G03*
X227852082Y-191174689I-6251400J0D01*
G01*
X135852082Y-191174689D02*
G75*
G03*
X135852082Y-191174689I-6251400J0D01*
G01*
X541850000Y-226300000D02*
G75*
G03*
X541850000Y-226300000I-6500000J0D01*
G01*
X527852082Y-191174689D02*
G75*
G03*
X527852082Y-191174689I-6251400J0D01*
G01*
X555852082Y-191174689D02*
G75*
G03*
X555852082Y-191174689I-6251400J0D01*
G01*
X181850000Y-226300000D02*
G75*
G03*
X181850000Y-226300000I-6500000J0D01*
G01*
X174050682Y-319724689D02*
X177050682Y-319724689D01*
X177050682Y-386724689D01*
X174050682Y-386724689D01*
X174050682Y-319724689D01*
X534050682Y-319724689D02*
X537050682Y-319724689D01*
X537050682Y-386724689D01*
X534050682Y-386724689D01*
X534050682Y-319724689D01*
X414050682Y-319724689D02*
X417050682Y-319724689D01*
X417050682Y-386724689D01*
X414050682Y-386724689D01*
X414050682Y-319724689D01*
X315852082Y-191174689D02*
G75*
G03*
X315852082Y-191174689I-6251400J0D01*
G01*
X195852082Y-191174689D02*
G75*
G03*
X195852082Y-191174689I-6251400J0D01*
G01*
M02*
