%TF.GenerationSoftware,KiCad,Pcbnew,7.0.8*%
%TF.CreationDate,2023-11-15T12:45:32+01:00*%
%TF.ProjectId,panel-rev1,70616e65-6c2d-4726-9576-312e6b696361,rev?*%
%TF.SameCoordinates,Original*%
%TF.FileFunction,Copper,L4,Bot*%
%TF.FilePolarity,Positive*%
%FSLAX46Y46*%
G04 Gerber Fmt 4.6, Leading zero omitted, Abs format (unit mm)*
G04 Created by KiCad (PCBNEW 7.0.8) date 2023-11-15 12:45:32*
%MOMM*%
%LPD*%
G01*
G04 APERTURE LIST*
%TA.AperFunction,ComponentPad*%
%ADD10C,0.800000*%
%TD*%
%TA.AperFunction,ComponentPad*%
%ADD11C,6.400000*%
%TD*%
G04 APERTURE END LIST*
D10*
%TO.P,H157,1*%
%TO.N,N/C*%
X388150682Y-362891355D03*
X388853626Y-361194299D03*
X388853626Y-364588411D03*
X390550682Y-360491355D03*
D11*
X390550682Y-362891355D03*
D10*
X390550682Y-365291355D03*
X392247738Y-361194299D03*
X392247738Y-364588411D03*
X392950682Y-362891355D03*
%TD*%
%TO.P,H153,1*%
%TO.N,N/C*%
X378150682Y-251224689D03*
X378853626Y-249527633D03*
X378853626Y-252921745D03*
X380550682Y-248824689D03*
D11*
X380550682Y-251224689D03*
D10*
X380550682Y-253624689D03*
X382247738Y-249527633D03*
X382247738Y-252921745D03*
X382950682Y-251224689D03*
%TD*%
%TO.P,H231,1*%
%TO.N,N/C*%
X558150682Y-171224689D03*
X558853626Y-169527633D03*
X558853626Y-172921745D03*
X560550682Y-168824689D03*
D11*
X560550682Y-171224689D03*
D10*
X560550682Y-173624689D03*
X562247738Y-169527633D03*
X562247738Y-172921745D03*
X562950682Y-171224689D03*
%TD*%
%TO.P,H177,1*%
%TO.N,N/C*%
X508150682Y-362891355D03*
X508853626Y-361194299D03*
X508853626Y-364588411D03*
X510550682Y-360491355D03*
D11*
X510550682Y-362891355D03*
D10*
X510550682Y-365291355D03*
X512247738Y-361194299D03*
X512247738Y-364588411D03*
X512950682Y-362891355D03*
%TD*%
%TO.P,H176,1*%
%TO.N,N/C*%
X558150682Y-413724689D03*
X558853626Y-412027633D03*
X558853626Y-415421745D03*
X560550682Y-411324689D03*
D11*
X560550682Y-413724689D03*
D10*
X560550682Y-416124689D03*
X562247738Y-412027633D03*
X562247738Y-415421745D03*
X562950682Y-413724689D03*
%TD*%
%TO.P,H123,1*%
%TO.N,N/C*%
X198150682Y-251224689D03*
X198853626Y-249527633D03*
X198853626Y-252921745D03*
X200550682Y-248824689D03*
D11*
X200550682Y-251224689D03*
D10*
X200550682Y-253624689D03*
X202247738Y-249527633D03*
X202247738Y-252921745D03*
X202950682Y-251224689D03*
%TD*%
%TO.P,H161,1*%
%TO.N,N/C*%
X388150682Y-251224689D03*
X388853626Y-249527633D03*
X388853626Y-252921745D03*
X390550682Y-248824689D03*
D11*
X390550682Y-251224689D03*
D10*
X390550682Y-253624689D03*
X392247738Y-249527633D03*
X392247738Y-252921745D03*
X392950682Y-251224689D03*
%TD*%
%TO.P,H136,1*%
%TO.N,N/C*%
X318150682Y-413724689D03*
X318853626Y-412027633D03*
X318853626Y-415421745D03*
X320550682Y-411324689D03*
D11*
X320550682Y-413724689D03*
D10*
X320550682Y-416124689D03*
X322247738Y-412027633D03*
X322247738Y-415421745D03*
X322950682Y-413724689D03*
%TD*%
%TO.P,H215,1*%
%TO.N,N/C*%
X323121872Y-161229689D03*
X323824816Y-159532633D03*
X323824816Y-162926745D03*
X325521872Y-158829689D03*
D11*
X325521872Y-161229689D03*
D10*
X325521872Y-163629689D03*
X327218928Y-159532633D03*
X327218928Y-162926745D03*
X327921872Y-161229689D03*
%TD*%
%TO.P,H191,1*%
%TO.N,N/C*%
X568121872Y-335896355D03*
X568824816Y-334199299D03*
X568824816Y-337593411D03*
X570521872Y-333496355D03*
D11*
X570521872Y-335896355D03*
D10*
X570521872Y-338296355D03*
X572218928Y-334199299D03*
X572218928Y-337593411D03*
X572921872Y-335896355D03*
%TD*%
%TO.P,H229,1*%
%TO.N,N/C*%
X498150682Y-171224689D03*
X498853626Y-169527633D03*
X498853626Y-172921745D03*
X500550682Y-168824689D03*
D11*
X500550682Y-171224689D03*
D10*
X500550682Y-173624689D03*
X502247738Y-169527633D03*
X502247738Y-172921745D03*
X502950682Y-171224689D03*
%TD*%
%TO.P,H222,1*%
%TO.N,N/C*%
X268150682Y-171224689D03*
X268853626Y-169527633D03*
X268853626Y-172921745D03*
X270550682Y-168824689D03*
D11*
X270550682Y-171224689D03*
D10*
X270550682Y-173624689D03*
X272247738Y-169527633D03*
X272247738Y-172921745D03*
X272950682Y-171224689D03*
%TD*%
%TO.P,H143,1*%
%TO.N,N/C*%
X318150682Y-251224689D03*
X318853626Y-249527633D03*
X318853626Y-252921745D03*
X320550682Y-248824689D03*
D11*
X320550682Y-251224689D03*
D10*
X320550682Y-253624689D03*
X322247738Y-249527633D03*
X322247738Y-252921745D03*
X322950682Y-251224689D03*
%TD*%
%TO.P,H194,1*%
%TO.N,N/C*%
X78121872Y-423729689D03*
X78824816Y-422032633D03*
X78824816Y-425426745D03*
X80521872Y-421329689D03*
D11*
X80521872Y-423729689D03*
D10*
X80521872Y-426129689D03*
X82218928Y-422032633D03*
X82218928Y-425426745D03*
X82921872Y-423729689D03*
%TD*%
%TO.P,H226,1*%
%TO.N,N/C*%
X388150682Y-171224689D03*
X388853626Y-169527633D03*
X388853626Y-172921745D03*
X390550682Y-168824689D03*
D11*
X390550682Y-171224689D03*
D10*
X390550682Y-173624689D03*
X392247738Y-169527633D03*
X392247738Y-172921745D03*
X392950682Y-171224689D03*
%TD*%
%TO.P,H224,1*%
%TO.N,N/C*%
X328150682Y-171224689D03*
X328853626Y-169527633D03*
X328853626Y-172921745D03*
X330550682Y-168824689D03*
D11*
X330550682Y-171224689D03*
D10*
X330550682Y-173624689D03*
X332247738Y-169527633D03*
X332247738Y-172921745D03*
X332950682Y-171224689D03*
%TD*%
%TO.P,H150,1*%
%TO.N,N/C*%
X378150682Y-307058022D03*
X378853626Y-305360966D03*
X378853626Y-308755078D03*
X380550682Y-304658022D03*
D11*
X380550682Y-307058022D03*
D10*
X380550682Y-309458022D03*
X382247738Y-305360966D03*
X382247738Y-308755078D03*
X382950682Y-307058022D03*
%TD*%
%TO.P,H126,1*%
%TO.N,N/C*%
X258150682Y-413724689D03*
X258853626Y-412027633D03*
X258853626Y-415421745D03*
X260550682Y-411324689D03*
D11*
X260550682Y-413724689D03*
D10*
X260550682Y-416124689D03*
X262247738Y-412027633D03*
X262247738Y-415421745D03*
X262950682Y-413724689D03*
%TD*%
%TO.P,H165,1*%
%TO.N,N/C*%
X448150682Y-413724689D03*
X448853626Y-412027633D03*
X448853626Y-415421745D03*
X450550682Y-411324689D03*
D11*
X450550682Y-413724689D03*
D10*
X450550682Y-416124689D03*
X452247738Y-412027633D03*
X452247738Y-415421745D03*
X452950682Y-413724689D03*
%TD*%
%TO.P,H146,1*%
%TO.N,N/C*%
X378150682Y-413724689D03*
X378853626Y-412027633D03*
X378853626Y-415421745D03*
X380550682Y-411324689D03*
D11*
X380550682Y-413724689D03*
D10*
X380550682Y-416124689D03*
X382247738Y-412027633D03*
X382247738Y-415421745D03*
X382950682Y-413724689D03*
%TD*%
%TO.P,H135,1*%
%TO.N,N/C*%
X268150682Y-413724689D03*
X268853626Y-412027633D03*
X268853626Y-415421745D03*
X270550682Y-411324689D03*
D11*
X270550682Y-413724689D03*
D10*
X270550682Y-416124689D03*
X272247738Y-412027633D03*
X272247738Y-415421745D03*
X272950682Y-413724689D03*
%TD*%
%TO.P,H166,1*%
%TO.N,N/C*%
X498150682Y-413724689D03*
X498853626Y-412027633D03*
X498853626Y-415421745D03*
X500550682Y-411324689D03*
D11*
X500550682Y-413724689D03*
D10*
X500550682Y-416124689D03*
X502247738Y-412027633D03*
X502247738Y-415421745D03*
X502950682Y-413724689D03*
%TD*%
%TO.P,H108,1*%
%TO.N,N/C*%
X138150682Y-362891355D03*
X138853626Y-361194299D03*
X138853626Y-364588411D03*
X140550682Y-360491355D03*
D11*
X140550682Y-362891355D03*
D10*
X140550682Y-365291355D03*
X142247738Y-361194299D03*
X142247738Y-364588411D03*
X142950682Y-362891355D03*
%TD*%
%TO.P,H171,1*%
%TO.N,N/C*%
X448150682Y-251224689D03*
X448853626Y-249527633D03*
X448853626Y-252921745D03*
X450550682Y-248824689D03*
D11*
X450550682Y-251224689D03*
D10*
X450550682Y-253624689D03*
X452247738Y-249527633D03*
X452247738Y-252921745D03*
X452950682Y-251224689D03*
%TD*%
%TO.P,H108,1*%
%TO.N,N/C*%
X138150682Y-251224689D03*
X138853626Y-249527633D03*
X138853626Y-252921745D03*
X140550682Y-248824689D03*
D11*
X140550682Y-251224689D03*
D10*
X140550682Y-253624689D03*
X142247738Y-249527633D03*
X142247738Y-252921745D03*
X142950682Y-251224689D03*
%TD*%
%TO.P,H151,1*%
%TO.N,N/C*%
X328150682Y-251224689D03*
X328853626Y-249527633D03*
X328853626Y-252921745D03*
X330550682Y-248824689D03*
D11*
X330550682Y-251224689D03*
D10*
X330550682Y-253624689D03*
X332247738Y-249527633D03*
X332247738Y-252921745D03*
X332950682Y-251224689D03*
%TD*%
%TO.P,H225,1*%
%TO.N,N/C*%
X378150682Y-171224689D03*
X378853626Y-169527633D03*
X378853626Y-172921745D03*
X380550682Y-168824689D03*
D11*
X380550682Y-171224689D03*
D10*
X380550682Y-173624689D03*
X382247738Y-169527633D03*
X382247738Y-172921745D03*
X382950682Y-171224689D03*
%TD*%
%TO.P,H178,1*%
%TO.N,N/C*%
X558150682Y-362891355D03*
X558853626Y-361194299D03*
X558853626Y-364588411D03*
X560550682Y-360491355D03*
D11*
X560550682Y-362891355D03*
D10*
X560550682Y-365291355D03*
X562247738Y-361194299D03*
X562247738Y-364588411D03*
X562950682Y-362891355D03*
%TD*%
%TO.P,H158,1*%
%TO.N,N/C*%
X438150682Y-362891355D03*
X438853626Y-361194299D03*
X438853626Y-364588411D03*
X440550682Y-360491355D03*
D11*
X440550682Y-362891355D03*
D10*
X440550682Y-365291355D03*
X442247738Y-361194299D03*
X442247738Y-364588411D03*
X442950682Y-362891355D03*
%TD*%
%TO.P,H118,1*%
%TO.N,N/C*%
X198150682Y-362891355D03*
X198853626Y-361194299D03*
X198853626Y-364588411D03*
X200550682Y-360491355D03*
D11*
X200550682Y-362891355D03*
D10*
X200550682Y-365291355D03*
X202247738Y-361194299D03*
X202247738Y-364588411D03*
X202950682Y-362891355D03*
%TD*%
%TO.P,H230,1*%
%TO.N,N/C*%
X508150682Y-171224689D03*
X508853626Y-169527633D03*
X508853626Y-172921745D03*
X510550682Y-168824689D03*
D11*
X510550682Y-171224689D03*
D10*
X510550682Y-173624689D03*
X512247738Y-169527633D03*
X512247738Y-172921745D03*
X512950682Y-171224689D03*
%TD*%
%TO.P,H188,1*%
%TO.N,N/C*%
X568121872Y-248563022D03*
X568824816Y-246865966D03*
X568824816Y-250260078D03*
X570521872Y-246163022D03*
D11*
X570521872Y-248563022D03*
D10*
X570521872Y-250963022D03*
X572218928Y-246865966D03*
X572218928Y-250260078D03*
X572921872Y-248563022D03*
%TD*%
%TO.P,H188,1*%
%TO.N,N/C*%
X78121872Y-248563022D03*
X78824816Y-246865966D03*
X78824816Y-250260078D03*
X80521872Y-246163022D03*
D11*
X80521872Y-248563022D03*
D10*
X80521872Y-250963022D03*
X82218928Y-246865966D03*
X82218928Y-250260078D03*
X82921872Y-248563022D03*
%TD*%
%TO.P,H121,1*%
%TO.N,N/C*%
X148150682Y-251224689D03*
X148853626Y-249527633D03*
X148853626Y-252921745D03*
X150550682Y-248824689D03*
D11*
X150550682Y-251224689D03*
D10*
X150550682Y-253624689D03*
X152247738Y-249527633D03*
X152247738Y-252921745D03*
X152950682Y-251224689D03*
%TD*%
%TO.P,H128,1*%
%TO.N,N/C*%
X258150682Y-362891355D03*
X258853626Y-361194299D03*
X258853626Y-364588411D03*
X260550682Y-360491355D03*
D11*
X260550682Y-362891355D03*
D10*
X260550682Y-365291355D03*
X262247738Y-361194299D03*
X262247738Y-364588411D03*
X262950682Y-362891355D03*
%TD*%
%TO.P,H108,1*%
%TO.N,N/C*%
X138150682Y-171224689D03*
X138853626Y-169527633D03*
X138853626Y-172921745D03*
X140550682Y-168824689D03*
D11*
X140550682Y-171224689D03*
D10*
X140550682Y-173624689D03*
X142247738Y-169527633D03*
X142247738Y-172921745D03*
X142950682Y-171224689D03*
%TD*%
%TO.P,H119,1*%
%TO.N,N/C*%
X148150682Y-307058022D03*
X148853626Y-305360966D03*
X148853626Y-308755078D03*
X150550682Y-304658022D03*
D11*
X150550682Y-307058022D03*
D10*
X150550682Y-309458022D03*
X152247738Y-305360966D03*
X152247738Y-308755078D03*
X152950682Y-307058022D03*
%TD*%
%TO.P,H142,1*%
%TO.N,N/C*%
X268150682Y-251224689D03*
X268853626Y-249527633D03*
X268853626Y-252921745D03*
X270550682Y-248824689D03*
D11*
X270550682Y-251224689D03*
D10*
X270550682Y-253624689D03*
X272247738Y-249527633D03*
X272247738Y-252921745D03*
X272950682Y-251224689D03*
%TD*%
%TO.P,H213,1*%
%TO.N,N/C*%
X568121872Y-423729689D03*
X568824816Y-422032633D03*
X568824816Y-425426745D03*
X570521872Y-421329689D03*
D11*
X570521872Y-423729689D03*
D10*
X570521872Y-426129689D03*
X572218928Y-422032633D03*
X572218928Y-425426745D03*
X572921872Y-423729689D03*
%TD*%
%TO.P,H214,1*%
%TO.N,N/C*%
X200621872Y-161229689D03*
X201324816Y-159532633D03*
X201324816Y-162926745D03*
X203021872Y-158829689D03*
D11*
X203021872Y-161229689D03*
D10*
X203021872Y-163629689D03*
X204718928Y-159532633D03*
X204718928Y-162926745D03*
X205421872Y-161229689D03*
%TD*%
%TO.P,H169,1*%
%TO.N,N/C*%
X448150682Y-307058022D03*
X448853626Y-305360966D03*
X448853626Y-308755078D03*
X450550682Y-304658022D03*
D11*
X450550682Y-307058022D03*
D10*
X450550682Y-309458022D03*
X452247738Y-305360966D03*
X452247738Y-308755078D03*
X452950682Y-307058022D03*
%TD*%
%TO.P,H180,1*%
%TO.N,N/C*%
X558150682Y-307058022D03*
X558853626Y-305360966D03*
X558853626Y-308755078D03*
X560550682Y-304658022D03*
D11*
X560550682Y-307058022D03*
D10*
X560550682Y-309458022D03*
X562247738Y-305360966D03*
X562247738Y-308755078D03*
X562950682Y-307058022D03*
%TD*%
%TO.P,H108,1*%
%TO.N,N/C*%
X138150682Y-307058022D03*
X138853626Y-305360966D03*
X138853626Y-308755078D03*
X140550682Y-304658022D03*
D11*
X140550682Y-307058022D03*
D10*
X140550682Y-309458022D03*
X142247738Y-305360966D03*
X142247738Y-308755078D03*
X142950682Y-307058022D03*
%TD*%
%TO.P,H138,1*%
%TO.N,N/C*%
X318150682Y-362891355D03*
X318853626Y-361194299D03*
X318853626Y-364588411D03*
X320550682Y-360491355D03*
D11*
X320550682Y-362891355D03*
D10*
X320550682Y-365291355D03*
X322247738Y-361194299D03*
X322247738Y-364588411D03*
X322950682Y-362891355D03*
%TD*%
%TO.P,H160,1*%
%TO.N,N/C*%
X438150682Y-307058022D03*
X438853626Y-305360966D03*
X438853626Y-308755078D03*
X440550682Y-304658022D03*
D11*
X440550682Y-307058022D03*
D10*
X440550682Y-309458022D03*
X442247738Y-305360966D03*
X442247738Y-308755078D03*
X442950682Y-307058022D03*
%TD*%
%TO.P,H219,1*%
%TO.N,N/C*%
X198150682Y-171224689D03*
X198853626Y-169527633D03*
X198853626Y-172921745D03*
X200550682Y-168824689D03*
D11*
X200550682Y-171224689D03*
D10*
X200550682Y-173624689D03*
X202247738Y-169527633D03*
X202247738Y-172921745D03*
X202950682Y-171224689D03*
%TD*%
%TO.P,H155,1*%
%TO.N,N/C*%
X388150682Y-413724689D03*
X388853626Y-412027633D03*
X388853626Y-415421745D03*
X390550682Y-411324689D03*
D11*
X390550682Y-413724689D03*
D10*
X390550682Y-416124689D03*
X392247738Y-412027633D03*
X392247738Y-415421745D03*
X392950682Y-413724689D03*
%TD*%
%TO.P,H108,1*%
%TO.N,N/C*%
X88150682Y-362891355D03*
X88853626Y-361194299D03*
X88853626Y-364588411D03*
X90550682Y-360491355D03*
D11*
X90550682Y-362891355D03*
D10*
X90550682Y-365291355D03*
X92247738Y-361194299D03*
X92247738Y-364588411D03*
X92950682Y-362891355D03*
%TD*%
%TO.P,H108,1*%
%TO.N,N/C*%
X88150682Y-413724689D03*
X88853626Y-412027633D03*
X88853626Y-415421745D03*
X90550682Y-411324689D03*
D11*
X90550682Y-413724689D03*
D10*
X90550682Y-416124689D03*
X92247738Y-412027633D03*
X92247738Y-415421745D03*
X92950682Y-413724689D03*
%TD*%
%TO.P,H227,1*%
%TO.N,N/C*%
X438150682Y-171224689D03*
X438853626Y-169527633D03*
X438853626Y-172921745D03*
X440550682Y-168824689D03*
D11*
X440550682Y-171224689D03*
D10*
X440550682Y-173624689D03*
X442247738Y-169527633D03*
X442247738Y-172921745D03*
X442950682Y-171224689D03*
%TD*%
%TO.P,H179,1*%
%TO.N,N/C*%
X508150682Y-307058022D03*
X508853626Y-305360966D03*
X508853626Y-308755078D03*
X510550682Y-304658022D03*
D11*
X510550682Y-307058022D03*
D10*
X510550682Y-309458022D03*
X512247738Y-305360966D03*
X512247738Y-308755078D03*
X512950682Y-307058022D03*
%TD*%
%TO.P,H120,1*%
%TO.N,N/C*%
X198150682Y-307058022D03*
X198853626Y-305360966D03*
X198853626Y-308755078D03*
X200550682Y-304658022D03*
D11*
X200550682Y-307058022D03*
D10*
X200550682Y-309458022D03*
X202247738Y-305360966D03*
X202247738Y-308755078D03*
X202950682Y-307058022D03*
%TD*%
%TO.P,H164,1*%
%TO.N,N/C*%
X438150682Y-251224689D03*
X438853626Y-249527633D03*
X438853626Y-252921745D03*
X440550682Y-248824689D03*
D11*
X440550682Y-251224689D03*
D10*
X440550682Y-253624689D03*
X442247738Y-249527633D03*
X442247738Y-252921745D03*
X442950682Y-251224689D03*
%TD*%
%TO.P,H175,1*%
%TO.N,N/C*%
X508150682Y-413724689D03*
X508853626Y-412027633D03*
X508853626Y-415421745D03*
X510550682Y-411324689D03*
D11*
X510550682Y-413724689D03*
D10*
X510550682Y-416124689D03*
X512247738Y-412027633D03*
X512247738Y-415421745D03*
X512950682Y-413724689D03*
%TD*%
%TO.P,H108,1*%
%TO.N,N/C*%
X88150682Y-251224689D03*
X88853626Y-249527633D03*
X88853626Y-252921745D03*
X90550682Y-248824689D03*
D11*
X90550682Y-251224689D03*
D10*
X90550682Y-253624689D03*
X92247738Y-249527633D03*
X92247738Y-252921745D03*
X92950682Y-251224689D03*
%TD*%
%TO.P,H228,1*%
%TO.N,N/C*%
X448150682Y-171224689D03*
X448853626Y-169527633D03*
X448853626Y-172921745D03*
X450550682Y-168824689D03*
D11*
X450550682Y-171224689D03*
D10*
X450550682Y-173624689D03*
X452247738Y-169527633D03*
X452247738Y-172921745D03*
X452950682Y-171224689D03*
%TD*%
%TO.P,H211,1*%
%TO.N,N/C*%
X323121872Y-423729689D03*
X323824816Y-422032633D03*
X323824816Y-425426745D03*
X325521872Y-421329689D03*
D11*
X325521872Y-423729689D03*
D10*
X325521872Y-426129689D03*
X327218928Y-422032633D03*
X327218928Y-425426745D03*
X327921872Y-423729689D03*
%TD*%
%TO.P,H116,1*%
%TO.N,N/C*%
X198150682Y-413724689D03*
X198853626Y-412027633D03*
X198853626Y-415421745D03*
X200550682Y-411324689D03*
D11*
X200550682Y-413724689D03*
D10*
X200550682Y-416124689D03*
X202247738Y-412027633D03*
X202247738Y-415421745D03*
X202950682Y-413724689D03*
%TD*%
%TO.P,H170,1*%
%TO.N,N/C*%
X498150682Y-307058022D03*
X498853626Y-305360966D03*
X498853626Y-308755078D03*
X500550682Y-304658022D03*
D11*
X500550682Y-307058022D03*
D10*
X500550682Y-309458022D03*
X502247738Y-305360966D03*
X502247738Y-308755078D03*
X502950682Y-307058022D03*
%TD*%
%TO.P,H216,1*%
%TO.N,N/C*%
X445621872Y-161229689D03*
X446324816Y-159532633D03*
X446324816Y-162926745D03*
X448021872Y-158829689D03*
D11*
X448021872Y-161229689D03*
D10*
X448021872Y-163629689D03*
X449718928Y-159532633D03*
X449718928Y-162926745D03*
X450421872Y-161229689D03*
%TD*%
%TO.P,H145,1*%
%TO.N,N/C*%
X328150682Y-413724689D03*
X328853626Y-412027633D03*
X328853626Y-415421745D03*
X330550682Y-411324689D03*
D11*
X330550682Y-413724689D03*
D10*
X330550682Y-416124689D03*
X332247738Y-412027633D03*
X332247738Y-415421745D03*
X332950682Y-413724689D03*
%TD*%
%TO.P,H183,1*%
%TO.N,N/C*%
X558150682Y-251224689D03*
X558853626Y-249527633D03*
X558853626Y-252921745D03*
X560550682Y-248824689D03*
D11*
X560550682Y-251224689D03*
D10*
X560550682Y-253624689D03*
X562247738Y-249527633D03*
X562247738Y-252921745D03*
X562950682Y-251224689D03*
%TD*%
%TO.P,H223,1*%
%TO.N,N/C*%
X318150682Y-171224689D03*
X318853626Y-169527633D03*
X318853626Y-172921745D03*
X320550682Y-168824689D03*
D11*
X320550682Y-171224689D03*
D10*
X320550682Y-173624689D03*
X322247738Y-169527633D03*
X322247738Y-172921745D03*
X322950682Y-171224689D03*
%TD*%
%TO.P,H220,1*%
%TO.N,N/C*%
X208150682Y-171224689D03*
X208853626Y-169527633D03*
X208853626Y-172921745D03*
X210550682Y-168824689D03*
D11*
X210550682Y-171224689D03*
D10*
X210550682Y-173624689D03*
X212247738Y-169527633D03*
X212247738Y-172921745D03*
X212950682Y-171224689D03*
%TD*%
%TO.P,H131,1*%
%TO.N,N/C*%
X208150682Y-251224689D03*
X208853626Y-249527633D03*
X208853626Y-252921745D03*
X210550682Y-248824689D03*
D11*
X210550682Y-251224689D03*
D10*
X210550682Y-253624689D03*
X212247738Y-249527633D03*
X212247738Y-252921745D03*
X212950682Y-251224689D03*
%TD*%
%TO.P,H108,1*%
%TO.N,N/C*%
X78121872Y-161229689D03*
X78824816Y-159532633D03*
X78824816Y-162926745D03*
X80521872Y-158829689D03*
D11*
X80521872Y-161229689D03*
D10*
X80521872Y-163629689D03*
X82218928Y-159532633D03*
X82218928Y-162926745D03*
X82921872Y-161229689D03*
%TD*%
%TO.P,H130,1*%
%TO.N,N/C*%
X258150682Y-307058022D03*
X258853626Y-305360966D03*
X258853626Y-308755078D03*
X260550682Y-304658022D03*
D11*
X260550682Y-307058022D03*
D10*
X260550682Y-309458022D03*
X262247738Y-305360966D03*
X262247738Y-308755078D03*
X262950682Y-307058022D03*
%TD*%
%TO.P,H147,1*%
%TO.N,N/C*%
X328150682Y-362891355D03*
X328853626Y-361194299D03*
X328853626Y-364588411D03*
X330550682Y-360491355D03*
D11*
X330550682Y-362891355D03*
D10*
X330550682Y-365291355D03*
X332247738Y-361194299D03*
X332247738Y-364588411D03*
X332950682Y-362891355D03*
%TD*%
%TO.P,H108,1*%
%TO.N,N/C*%
X138150682Y-413724689D03*
X138853626Y-412027633D03*
X138853626Y-415421745D03*
X140550682Y-411324689D03*
D11*
X140550682Y-413724689D03*
D10*
X140550682Y-416124689D03*
X142247738Y-412027633D03*
X142247738Y-415421745D03*
X142950682Y-413724689D03*
%TD*%
%TO.P,H108,1*%
%TO.N,N/C*%
X88150682Y-171224689D03*
X88853626Y-169527633D03*
X88853626Y-172921745D03*
X90550682Y-168824689D03*
D11*
X90550682Y-171224689D03*
D10*
X90550682Y-173624689D03*
X92247738Y-169527633D03*
X92247738Y-172921745D03*
X92950682Y-171224689D03*
%TD*%
%TO.P,H137,1*%
%TO.N,N/C*%
X268150682Y-362891355D03*
X268853626Y-361194299D03*
X268853626Y-364588411D03*
X270550682Y-360491355D03*
D11*
X270550682Y-362891355D03*
D10*
X270550682Y-365291355D03*
X272247738Y-361194299D03*
X272247738Y-364588411D03*
X272950682Y-362891355D03*
%TD*%
%TO.P,H140,1*%
%TO.N,N/C*%
X318150682Y-307058022D03*
X318853626Y-305360966D03*
X318853626Y-308755078D03*
X320550682Y-304658022D03*
D11*
X320550682Y-307058022D03*
D10*
X320550682Y-309458022D03*
X322247738Y-305360966D03*
X322247738Y-308755078D03*
X322950682Y-307058022D03*
%TD*%
%TO.P,H199,1*%
%TO.N,N/C*%
X568121872Y-161229689D03*
X568824816Y-159532633D03*
X568824816Y-162926745D03*
X570521872Y-158829689D03*
D11*
X570521872Y-161229689D03*
D10*
X570521872Y-163629689D03*
X572218928Y-159532633D03*
X572218928Y-162926745D03*
X572921872Y-161229689D03*
%TD*%
%TO.P,H212,1*%
%TO.N,N/C*%
X445621872Y-423729689D03*
X446324816Y-422032633D03*
X446324816Y-425426745D03*
X448021872Y-421329689D03*
D11*
X448021872Y-423729689D03*
D10*
X448021872Y-426129689D03*
X449718928Y-422032633D03*
X449718928Y-425426745D03*
X450421872Y-423729689D03*
%TD*%
%TO.P,H108,1*%
%TO.N,N/C*%
X88150682Y-307058022D03*
X88853626Y-305360966D03*
X88853626Y-308755078D03*
X90550682Y-304658022D03*
D11*
X90550682Y-307058022D03*
D10*
X90550682Y-309458022D03*
X92247738Y-305360966D03*
X92247738Y-308755078D03*
X92950682Y-307058022D03*
%TD*%
%TO.P,H168,1*%
%TO.N,N/C*%
X498150682Y-362891355D03*
X498853626Y-361194299D03*
X498853626Y-364588411D03*
X500550682Y-360491355D03*
D11*
X500550682Y-362891355D03*
D10*
X500550682Y-365291355D03*
X502247738Y-361194299D03*
X502247738Y-364588411D03*
X502950682Y-362891355D03*
%TD*%
%TO.P,H191,1*%
%TO.N,N/C*%
X78121872Y-335896355D03*
X78824816Y-334199299D03*
X78824816Y-337593411D03*
X80521872Y-333496355D03*
D11*
X80521872Y-335896355D03*
D10*
X80521872Y-338296355D03*
X82218928Y-334199299D03*
X82218928Y-337593411D03*
X82921872Y-335896355D03*
%TD*%
%TO.P,H182,1*%
%TO.N,N/C*%
X508150682Y-251224689D03*
X508853626Y-249527633D03*
X508853626Y-252921745D03*
X510550682Y-248824689D03*
D11*
X510550682Y-251224689D03*
D10*
X510550682Y-253624689D03*
X512247738Y-249527633D03*
X512247738Y-252921745D03*
X512950682Y-251224689D03*
%TD*%
%TO.P,H159,1*%
%TO.N,N/C*%
X388150682Y-307058022D03*
X388853626Y-305360966D03*
X388853626Y-308755078D03*
X390550682Y-304658022D03*
D11*
X390550682Y-307058022D03*
D10*
X390550682Y-309458022D03*
X392247738Y-305360966D03*
X392247738Y-308755078D03*
X392950682Y-307058022D03*
%TD*%
%TO.P,H173,1*%
%TO.N,N/C*%
X498150682Y-251224689D03*
X498853626Y-249527633D03*
X498853626Y-252921745D03*
X500550682Y-248824689D03*
D11*
X500550682Y-251224689D03*
D10*
X500550682Y-253624689D03*
X502247738Y-249527633D03*
X502247738Y-252921745D03*
X502950682Y-251224689D03*
%TD*%
%TO.P,H149,1*%
%TO.N,N/C*%
X328150682Y-307058022D03*
X328853626Y-305360966D03*
X328853626Y-308755078D03*
X330550682Y-304658022D03*
D11*
X330550682Y-307058022D03*
D10*
X330550682Y-309458022D03*
X332247738Y-305360966D03*
X332247738Y-308755078D03*
X332950682Y-307058022D03*
%TD*%
%TO.P,H221,1*%
%TO.N,N/C*%
X258150682Y-171224689D03*
X258853626Y-169527633D03*
X258853626Y-172921745D03*
X260550682Y-168824689D03*
D11*
X260550682Y-171224689D03*
D10*
X260550682Y-173624689D03*
X262247738Y-169527633D03*
X262247738Y-172921745D03*
X262950682Y-171224689D03*
%TD*%
%TO.P,H125,1*%
%TO.N,N/C*%
X208150682Y-413724689D03*
X208853626Y-412027633D03*
X208853626Y-415421745D03*
X210550682Y-411324689D03*
D11*
X210550682Y-413724689D03*
D10*
X210550682Y-416124689D03*
X212247738Y-412027633D03*
X212247738Y-415421745D03*
X212950682Y-413724689D03*
%TD*%
%TO.P,H115,1*%
%TO.N,N/C*%
X148150682Y-413724689D03*
X148853626Y-412027633D03*
X148853626Y-415421745D03*
X150550682Y-411324689D03*
D11*
X150550682Y-413724689D03*
D10*
X150550682Y-416124689D03*
X152247738Y-412027633D03*
X152247738Y-415421745D03*
X152950682Y-413724689D03*
%TD*%
%TO.P,H210,1*%
%TO.N,N/C*%
X200621872Y-423729689D03*
X201324816Y-422032633D03*
X201324816Y-425426745D03*
X203021872Y-421329689D03*
D11*
X203021872Y-423729689D03*
D10*
X203021872Y-426129689D03*
X204718928Y-422032633D03*
X204718928Y-425426745D03*
X205421872Y-423729689D03*
%TD*%
%TO.P,H134,1*%
%TO.N,N/C*%
X258150682Y-251224689D03*
X258853626Y-249527633D03*
X258853626Y-252921745D03*
X260550682Y-248824689D03*
D11*
X260550682Y-251224689D03*
D10*
X260550682Y-253624689D03*
X262247738Y-249527633D03*
X262247738Y-252921745D03*
X262950682Y-251224689D03*
%TD*%
%TO.P,H129,1*%
%TO.N,N/C*%
X208150682Y-307058022D03*
X208853626Y-305360966D03*
X208853626Y-308755078D03*
X210550682Y-304658022D03*
D11*
X210550682Y-307058022D03*
D10*
X210550682Y-309458022D03*
X212247738Y-305360966D03*
X212247738Y-308755078D03*
X212950682Y-307058022D03*
%TD*%
%TO.P,H117,1*%
%TO.N,N/C*%
X148150682Y-362891355D03*
X148853626Y-361194299D03*
X148853626Y-364588411D03*
X150550682Y-360491355D03*
D11*
X150550682Y-362891355D03*
D10*
X150550682Y-365291355D03*
X152247738Y-361194299D03*
X152247738Y-364588411D03*
X152950682Y-362891355D03*
%TD*%
%TO.P,H167,1*%
%TO.N,N/C*%
X448150682Y-362891355D03*
X448853626Y-361194299D03*
X448853626Y-364588411D03*
X450550682Y-360491355D03*
D11*
X450550682Y-362891355D03*
D10*
X450550682Y-365291355D03*
X452247738Y-361194299D03*
X452247738Y-364588411D03*
X452950682Y-362891355D03*
%TD*%
%TO.P,H139,1*%
%TO.N,N/C*%
X268150682Y-307058022D03*
X268853626Y-305360966D03*
X268853626Y-308755078D03*
X270550682Y-304658022D03*
D11*
X270550682Y-307058022D03*
D10*
X270550682Y-309458022D03*
X272247738Y-305360966D03*
X272247738Y-308755078D03*
X272950682Y-307058022D03*
%TD*%
%TO.P,H218,1*%
%TO.N,N/C*%
X148150682Y-171224689D03*
X148853626Y-169527633D03*
X148853626Y-172921745D03*
X150550682Y-168824689D03*
D11*
X150550682Y-171224689D03*
D10*
X150550682Y-173624689D03*
X152247738Y-169527633D03*
X152247738Y-172921745D03*
X152950682Y-171224689D03*
%TD*%
%TO.P,H148,1*%
%TO.N,N/C*%
X378150682Y-362891355D03*
X378853626Y-361194299D03*
X378853626Y-364588411D03*
X380550682Y-360491355D03*
D11*
X380550682Y-362891355D03*
D10*
X380550682Y-365291355D03*
X382247738Y-361194299D03*
X382247738Y-364588411D03*
X382950682Y-362891355D03*
%TD*%
%TO.P,H127,1*%
%TO.N,N/C*%
X208150682Y-362891355D03*
X208853626Y-361194299D03*
X208853626Y-364588411D03*
X210550682Y-360491355D03*
D11*
X210550682Y-362891355D03*
D10*
X210550682Y-365291355D03*
X212247738Y-361194299D03*
X212247738Y-364588411D03*
X212950682Y-362891355D03*
%TD*%
%TO.P,H156,1*%
%TO.N,N/C*%
X438150682Y-413724689D03*
X438853626Y-412027633D03*
X438853626Y-415421745D03*
X440550682Y-411324689D03*
D11*
X440550682Y-413724689D03*
D10*
X440550682Y-416124689D03*
X442247738Y-412027633D03*
X442247738Y-415421745D03*
X442950682Y-413724689D03*
%TD*%
M02*
