%TF.GenerationSoftware,KiCad,Pcbnew,7.0.8*%
%TF.CreationDate,2023-11-15T12:45:32+01:00*%
%TF.ProjectId,panel-rev1,70616e65-6c2d-4726-9576-312e6b696361,rev?*%
%TF.SameCoordinates,Original*%
%TF.FileFunction,Soldermask,Top*%
%TF.FilePolarity,Negative*%
%FSLAX46Y46*%
G04 Gerber Fmt 4.6, Leading zero omitted, Abs format (unit mm)*
G04 Created by KiCad (PCBNEW 7.0.8) date 2023-11-15 12:45:32*
%MOMM*%
%LPD*%
G01*
G04 APERTURE LIST*
%ADD10C,0.800000*%
%ADD11C,6.400000*%
G04 APERTURE END LIST*
D10*
%TO.C,H157*%
X388150682Y-362891355D03*
X388853626Y-361194299D03*
X388853626Y-364588411D03*
X390550682Y-360491355D03*
D11*
X390550682Y-362891355D03*
D10*
X390550682Y-365291355D03*
X392247738Y-361194299D03*
X392247738Y-364588411D03*
X392950682Y-362891355D03*
%TD*%
%TO.C,H153*%
X378150682Y-251224689D03*
X378853626Y-249527633D03*
X378853626Y-252921745D03*
X380550682Y-248824689D03*
D11*
X380550682Y-251224689D03*
D10*
X380550682Y-253624689D03*
X382247738Y-249527633D03*
X382247738Y-252921745D03*
X382950682Y-251224689D03*
%TD*%
%TO.C,H231*%
X558150682Y-171224689D03*
X558853626Y-169527633D03*
X558853626Y-172921745D03*
X560550682Y-168824689D03*
D11*
X560550682Y-171224689D03*
D10*
X560550682Y-173624689D03*
X562247738Y-169527633D03*
X562247738Y-172921745D03*
X562950682Y-171224689D03*
%TD*%
%TO.C,H177*%
X508150682Y-362891355D03*
X508853626Y-361194299D03*
X508853626Y-364588411D03*
X510550682Y-360491355D03*
D11*
X510550682Y-362891355D03*
D10*
X510550682Y-365291355D03*
X512247738Y-361194299D03*
X512247738Y-364588411D03*
X512950682Y-362891355D03*
%TD*%
%TO.C,H176*%
X558150682Y-413724689D03*
X558853626Y-412027633D03*
X558853626Y-415421745D03*
X560550682Y-411324689D03*
D11*
X560550682Y-413724689D03*
D10*
X560550682Y-416124689D03*
X562247738Y-412027633D03*
X562247738Y-415421745D03*
X562950682Y-413724689D03*
%TD*%
%TO.C,H123*%
X198150682Y-251224689D03*
X198853626Y-249527633D03*
X198853626Y-252921745D03*
X200550682Y-248824689D03*
D11*
X200550682Y-251224689D03*
D10*
X200550682Y-253624689D03*
X202247738Y-249527633D03*
X202247738Y-252921745D03*
X202950682Y-251224689D03*
%TD*%
%TO.C,H161*%
X388150682Y-251224689D03*
X388853626Y-249527633D03*
X388853626Y-252921745D03*
X390550682Y-248824689D03*
D11*
X390550682Y-251224689D03*
D10*
X390550682Y-253624689D03*
X392247738Y-249527633D03*
X392247738Y-252921745D03*
X392950682Y-251224689D03*
%TD*%
%TO.C,H136*%
X318150682Y-413724689D03*
X318853626Y-412027633D03*
X318853626Y-415421745D03*
X320550682Y-411324689D03*
D11*
X320550682Y-413724689D03*
D10*
X320550682Y-416124689D03*
X322247738Y-412027633D03*
X322247738Y-415421745D03*
X322950682Y-413724689D03*
%TD*%
%TO.C,H215*%
X323121872Y-161229689D03*
X323824816Y-159532633D03*
X323824816Y-162926745D03*
X325521872Y-158829689D03*
D11*
X325521872Y-161229689D03*
D10*
X325521872Y-163629689D03*
X327218928Y-159532633D03*
X327218928Y-162926745D03*
X327921872Y-161229689D03*
%TD*%
%TO.C,H191*%
X568121872Y-335896355D03*
X568824816Y-334199299D03*
X568824816Y-337593411D03*
X570521872Y-333496355D03*
D11*
X570521872Y-335896355D03*
D10*
X570521872Y-338296355D03*
X572218928Y-334199299D03*
X572218928Y-337593411D03*
X572921872Y-335896355D03*
%TD*%
%TO.C,H229*%
X498150682Y-171224689D03*
X498853626Y-169527633D03*
X498853626Y-172921745D03*
X500550682Y-168824689D03*
D11*
X500550682Y-171224689D03*
D10*
X500550682Y-173624689D03*
X502247738Y-169527633D03*
X502247738Y-172921745D03*
X502950682Y-171224689D03*
%TD*%
%TO.C,H222*%
X268150682Y-171224689D03*
X268853626Y-169527633D03*
X268853626Y-172921745D03*
X270550682Y-168824689D03*
D11*
X270550682Y-171224689D03*
D10*
X270550682Y-173624689D03*
X272247738Y-169527633D03*
X272247738Y-172921745D03*
X272950682Y-171224689D03*
%TD*%
%TO.C,H143*%
X318150682Y-251224689D03*
X318853626Y-249527633D03*
X318853626Y-252921745D03*
X320550682Y-248824689D03*
D11*
X320550682Y-251224689D03*
D10*
X320550682Y-253624689D03*
X322247738Y-249527633D03*
X322247738Y-252921745D03*
X322950682Y-251224689D03*
%TD*%
%TO.C,H194*%
X78121872Y-423729689D03*
X78824816Y-422032633D03*
X78824816Y-425426745D03*
X80521872Y-421329689D03*
D11*
X80521872Y-423729689D03*
D10*
X80521872Y-426129689D03*
X82218928Y-422032633D03*
X82218928Y-425426745D03*
X82921872Y-423729689D03*
%TD*%
%TO.C,H226*%
X388150682Y-171224689D03*
X388853626Y-169527633D03*
X388853626Y-172921745D03*
X390550682Y-168824689D03*
D11*
X390550682Y-171224689D03*
D10*
X390550682Y-173624689D03*
X392247738Y-169527633D03*
X392247738Y-172921745D03*
X392950682Y-171224689D03*
%TD*%
%TO.C,H224*%
X328150682Y-171224689D03*
X328853626Y-169527633D03*
X328853626Y-172921745D03*
X330550682Y-168824689D03*
D11*
X330550682Y-171224689D03*
D10*
X330550682Y-173624689D03*
X332247738Y-169527633D03*
X332247738Y-172921745D03*
X332950682Y-171224689D03*
%TD*%
%TO.C,H150*%
X378150682Y-307058022D03*
X378853626Y-305360966D03*
X378853626Y-308755078D03*
X380550682Y-304658022D03*
D11*
X380550682Y-307058022D03*
D10*
X380550682Y-309458022D03*
X382247738Y-305360966D03*
X382247738Y-308755078D03*
X382950682Y-307058022D03*
%TD*%
%TO.C,H126*%
X258150682Y-413724689D03*
X258853626Y-412027633D03*
X258853626Y-415421745D03*
X260550682Y-411324689D03*
D11*
X260550682Y-413724689D03*
D10*
X260550682Y-416124689D03*
X262247738Y-412027633D03*
X262247738Y-415421745D03*
X262950682Y-413724689D03*
%TD*%
%TO.C,H165*%
X448150682Y-413724689D03*
X448853626Y-412027633D03*
X448853626Y-415421745D03*
X450550682Y-411324689D03*
D11*
X450550682Y-413724689D03*
D10*
X450550682Y-416124689D03*
X452247738Y-412027633D03*
X452247738Y-415421745D03*
X452950682Y-413724689D03*
%TD*%
%TO.C,H146*%
X378150682Y-413724689D03*
X378853626Y-412027633D03*
X378853626Y-415421745D03*
X380550682Y-411324689D03*
D11*
X380550682Y-413724689D03*
D10*
X380550682Y-416124689D03*
X382247738Y-412027633D03*
X382247738Y-415421745D03*
X382950682Y-413724689D03*
%TD*%
%TO.C,H135*%
X268150682Y-413724689D03*
X268853626Y-412027633D03*
X268853626Y-415421745D03*
X270550682Y-411324689D03*
D11*
X270550682Y-413724689D03*
D10*
X270550682Y-416124689D03*
X272247738Y-412027633D03*
X272247738Y-415421745D03*
X272950682Y-413724689D03*
%TD*%
%TO.C,H166*%
X498150682Y-413724689D03*
X498853626Y-412027633D03*
X498853626Y-415421745D03*
X500550682Y-411324689D03*
D11*
X500550682Y-413724689D03*
D10*
X500550682Y-416124689D03*
X502247738Y-412027633D03*
X502247738Y-415421745D03*
X502950682Y-413724689D03*
%TD*%
%TO.C,H108*%
X138150682Y-362891355D03*
X138853626Y-361194299D03*
X138853626Y-364588411D03*
X140550682Y-360491355D03*
D11*
X140550682Y-362891355D03*
D10*
X140550682Y-365291355D03*
X142247738Y-361194299D03*
X142247738Y-364588411D03*
X142950682Y-362891355D03*
%TD*%
%TO.C,H171*%
X448150682Y-251224689D03*
X448853626Y-249527633D03*
X448853626Y-252921745D03*
X450550682Y-248824689D03*
D11*
X450550682Y-251224689D03*
D10*
X450550682Y-253624689D03*
X452247738Y-249527633D03*
X452247738Y-252921745D03*
X452950682Y-251224689D03*
%TD*%
%TO.C,H108*%
X138150682Y-251224689D03*
X138853626Y-249527633D03*
X138853626Y-252921745D03*
X140550682Y-248824689D03*
D11*
X140550682Y-251224689D03*
D10*
X140550682Y-253624689D03*
X142247738Y-249527633D03*
X142247738Y-252921745D03*
X142950682Y-251224689D03*
%TD*%
%TO.C,H151*%
X328150682Y-251224689D03*
X328853626Y-249527633D03*
X328853626Y-252921745D03*
X330550682Y-248824689D03*
D11*
X330550682Y-251224689D03*
D10*
X330550682Y-253624689D03*
X332247738Y-249527633D03*
X332247738Y-252921745D03*
X332950682Y-251224689D03*
%TD*%
%TO.C,H225*%
X378150682Y-171224689D03*
X378853626Y-169527633D03*
X378853626Y-172921745D03*
X380550682Y-168824689D03*
D11*
X380550682Y-171224689D03*
D10*
X380550682Y-173624689D03*
X382247738Y-169527633D03*
X382247738Y-172921745D03*
X382950682Y-171224689D03*
%TD*%
%TO.C,H178*%
X558150682Y-362891355D03*
X558853626Y-361194299D03*
X558853626Y-364588411D03*
X560550682Y-360491355D03*
D11*
X560550682Y-362891355D03*
D10*
X560550682Y-365291355D03*
X562247738Y-361194299D03*
X562247738Y-364588411D03*
X562950682Y-362891355D03*
%TD*%
%TO.C,H158*%
X438150682Y-362891355D03*
X438853626Y-361194299D03*
X438853626Y-364588411D03*
X440550682Y-360491355D03*
D11*
X440550682Y-362891355D03*
D10*
X440550682Y-365291355D03*
X442247738Y-361194299D03*
X442247738Y-364588411D03*
X442950682Y-362891355D03*
%TD*%
%TO.C,H118*%
X198150682Y-362891355D03*
X198853626Y-361194299D03*
X198853626Y-364588411D03*
X200550682Y-360491355D03*
D11*
X200550682Y-362891355D03*
D10*
X200550682Y-365291355D03*
X202247738Y-361194299D03*
X202247738Y-364588411D03*
X202950682Y-362891355D03*
%TD*%
%TO.C,H230*%
X508150682Y-171224689D03*
X508853626Y-169527633D03*
X508853626Y-172921745D03*
X510550682Y-168824689D03*
D11*
X510550682Y-171224689D03*
D10*
X510550682Y-173624689D03*
X512247738Y-169527633D03*
X512247738Y-172921745D03*
X512950682Y-171224689D03*
%TD*%
%TO.C,H188*%
X568121872Y-248563022D03*
X568824816Y-246865966D03*
X568824816Y-250260078D03*
X570521872Y-246163022D03*
D11*
X570521872Y-248563022D03*
D10*
X570521872Y-250963022D03*
X572218928Y-246865966D03*
X572218928Y-250260078D03*
X572921872Y-248563022D03*
%TD*%
%TO.C,H188*%
X78121872Y-248563022D03*
X78824816Y-246865966D03*
X78824816Y-250260078D03*
X80521872Y-246163022D03*
D11*
X80521872Y-248563022D03*
D10*
X80521872Y-250963022D03*
X82218928Y-246865966D03*
X82218928Y-250260078D03*
X82921872Y-248563022D03*
%TD*%
%TO.C,H121*%
X148150682Y-251224689D03*
X148853626Y-249527633D03*
X148853626Y-252921745D03*
X150550682Y-248824689D03*
D11*
X150550682Y-251224689D03*
D10*
X150550682Y-253624689D03*
X152247738Y-249527633D03*
X152247738Y-252921745D03*
X152950682Y-251224689D03*
%TD*%
%TO.C,H128*%
X258150682Y-362891355D03*
X258853626Y-361194299D03*
X258853626Y-364588411D03*
X260550682Y-360491355D03*
D11*
X260550682Y-362891355D03*
D10*
X260550682Y-365291355D03*
X262247738Y-361194299D03*
X262247738Y-364588411D03*
X262950682Y-362891355D03*
%TD*%
%TO.C,H108*%
X138150682Y-171224689D03*
X138853626Y-169527633D03*
X138853626Y-172921745D03*
X140550682Y-168824689D03*
D11*
X140550682Y-171224689D03*
D10*
X140550682Y-173624689D03*
X142247738Y-169527633D03*
X142247738Y-172921745D03*
X142950682Y-171224689D03*
%TD*%
%TO.C,H119*%
X148150682Y-307058022D03*
X148853626Y-305360966D03*
X148853626Y-308755078D03*
X150550682Y-304658022D03*
D11*
X150550682Y-307058022D03*
D10*
X150550682Y-309458022D03*
X152247738Y-305360966D03*
X152247738Y-308755078D03*
X152950682Y-307058022D03*
%TD*%
%TO.C,H142*%
X268150682Y-251224689D03*
X268853626Y-249527633D03*
X268853626Y-252921745D03*
X270550682Y-248824689D03*
D11*
X270550682Y-251224689D03*
D10*
X270550682Y-253624689D03*
X272247738Y-249527633D03*
X272247738Y-252921745D03*
X272950682Y-251224689D03*
%TD*%
%TO.C,H213*%
X568121872Y-423729689D03*
X568824816Y-422032633D03*
X568824816Y-425426745D03*
X570521872Y-421329689D03*
D11*
X570521872Y-423729689D03*
D10*
X570521872Y-426129689D03*
X572218928Y-422032633D03*
X572218928Y-425426745D03*
X572921872Y-423729689D03*
%TD*%
%TO.C,H214*%
X200621872Y-161229689D03*
X201324816Y-159532633D03*
X201324816Y-162926745D03*
X203021872Y-158829689D03*
D11*
X203021872Y-161229689D03*
D10*
X203021872Y-163629689D03*
X204718928Y-159532633D03*
X204718928Y-162926745D03*
X205421872Y-161229689D03*
%TD*%
%TO.C,H169*%
X448150682Y-307058022D03*
X448853626Y-305360966D03*
X448853626Y-308755078D03*
X450550682Y-304658022D03*
D11*
X450550682Y-307058022D03*
D10*
X450550682Y-309458022D03*
X452247738Y-305360966D03*
X452247738Y-308755078D03*
X452950682Y-307058022D03*
%TD*%
%TO.C,H180*%
X558150682Y-307058022D03*
X558853626Y-305360966D03*
X558853626Y-308755078D03*
X560550682Y-304658022D03*
D11*
X560550682Y-307058022D03*
D10*
X560550682Y-309458022D03*
X562247738Y-305360966D03*
X562247738Y-308755078D03*
X562950682Y-307058022D03*
%TD*%
%TO.C,H108*%
X138150682Y-307058022D03*
X138853626Y-305360966D03*
X138853626Y-308755078D03*
X140550682Y-304658022D03*
D11*
X140550682Y-307058022D03*
D10*
X140550682Y-309458022D03*
X142247738Y-305360966D03*
X142247738Y-308755078D03*
X142950682Y-307058022D03*
%TD*%
%TO.C,H138*%
X318150682Y-362891355D03*
X318853626Y-361194299D03*
X318853626Y-364588411D03*
X320550682Y-360491355D03*
D11*
X320550682Y-362891355D03*
D10*
X320550682Y-365291355D03*
X322247738Y-361194299D03*
X322247738Y-364588411D03*
X322950682Y-362891355D03*
%TD*%
%TO.C,H160*%
X438150682Y-307058022D03*
X438853626Y-305360966D03*
X438853626Y-308755078D03*
X440550682Y-304658022D03*
D11*
X440550682Y-307058022D03*
D10*
X440550682Y-309458022D03*
X442247738Y-305360966D03*
X442247738Y-308755078D03*
X442950682Y-307058022D03*
%TD*%
%TO.C,H219*%
X198150682Y-171224689D03*
X198853626Y-169527633D03*
X198853626Y-172921745D03*
X200550682Y-168824689D03*
D11*
X200550682Y-171224689D03*
D10*
X200550682Y-173624689D03*
X202247738Y-169527633D03*
X202247738Y-172921745D03*
X202950682Y-171224689D03*
%TD*%
%TO.C,H155*%
X388150682Y-413724689D03*
X388853626Y-412027633D03*
X388853626Y-415421745D03*
X390550682Y-411324689D03*
D11*
X390550682Y-413724689D03*
D10*
X390550682Y-416124689D03*
X392247738Y-412027633D03*
X392247738Y-415421745D03*
X392950682Y-413724689D03*
%TD*%
%TO.C,H108*%
X88150682Y-362891355D03*
X88853626Y-361194299D03*
X88853626Y-364588411D03*
X90550682Y-360491355D03*
D11*
X90550682Y-362891355D03*
D10*
X90550682Y-365291355D03*
X92247738Y-361194299D03*
X92247738Y-364588411D03*
X92950682Y-362891355D03*
%TD*%
%TO.C,H108*%
X88150682Y-413724689D03*
X88853626Y-412027633D03*
X88853626Y-415421745D03*
X90550682Y-411324689D03*
D11*
X90550682Y-413724689D03*
D10*
X90550682Y-416124689D03*
X92247738Y-412027633D03*
X92247738Y-415421745D03*
X92950682Y-413724689D03*
%TD*%
%TO.C,H227*%
X438150682Y-171224689D03*
X438853626Y-169527633D03*
X438853626Y-172921745D03*
X440550682Y-168824689D03*
D11*
X440550682Y-171224689D03*
D10*
X440550682Y-173624689D03*
X442247738Y-169527633D03*
X442247738Y-172921745D03*
X442950682Y-171224689D03*
%TD*%
%TO.C,H179*%
X508150682Y-307058022D03*
X508853626Y-305360966D03*
X508853626Y-308755078D03*
X510550682Y-304658022D03*
D11*
X510550682Y-307058022D03*
D10*
X510550682Y-309458022D03*
X512247738Y-305360966D03*
X512247738Y-308755078D03*
X512950682Y-307058022D03*
%TD*%
%TO.C,H120*%
X198150682Y-307058022D03*
X198853626Y-305360966D03*
X198853626Y-308755078D03*
X200550682Y-304658022D03*
D11*
X200550682Y-307058022D03*
D10*
X200550682Y-309458022D03*
X202247738Y-305360966D03*
X202247738Y-308755078D03*
X202950682Y-307058022D03*
%TD*%
%TO.C,H164*%
X438150682Y-251224689D03*
X438853626Y-249527633D03*
X438853626Y-252921745D03*
X440550682Y-248824689D03*
D11*
X440550682Y-251224689D03*
D10*
X440550682Y-253624689D03*
X442247738Y-249527633D03*
X442247738Y-252921745D03*
X442950682Y-251224689D03*
%TD*%
%TO.C,H175*%
X508150682Y-413724689D03*
X508853626Y-412027633D03*
X508853626Y-415421745D03*
X510550682Y-411324689D03*
D11*
X510550682Y-413724689D03*
D10*
X510550682Y-416124689D03*
X512247738Y-412027633D03*
X512247738Y-415421745D03*
X512950682Y-413724689D03*
%TD*%
%TO.C,H108*%
X88150682Y-251224689D03*
X88853626Y-249527633D03*
X88853626Y-252921745D03*
X90550682Y-248824689D03*
D11*
X90550682Y-251224689D03*
D10*
X90550682Y-253624689D03*
X92247738Y-249527633D03*
X92247738Y-252921745D03*
X92950682Y-251224689D03*
%TD*%
%TO.C,H228*%
X448150682Y-171224689D03*
X448853626Y-169527633D03*
X448853626Y-172921745D03*
X450550682Y-168824689D03*
D11*
X450550682Y-171224689D03*
D10*
X450550682Y-173624689D03*
X452247738Y-169527633D03*
X452247738Y-172921745D03*
X452950682Y-171224689D03*
%TD*%
%TO.C,H211*%
X323121872Y-423729689D03*
X323824816Y-422032633D03*
X323824816Y-425426745D03*
X325521872Y-421329689D03*
D11*
X325521872Y-423729689D03*
D10*
X325521872Y-426129689D03*
X327218928Y-422032633D03*
X327218928Y-425426745D03*
X327921872Y-423729689D03*
%TD*%
%TO.C,H116*%
X198150682Y-413724689D03*
X198853626Y-412027633D03*
X198853626Y-415421745D03*
X200550682Y-411324689D03*
D11*
X200550682Y-413724689D03*
D10*
X200550682Y-416124689D03*
X202247738Y-412027633D03*
X202247738Y-415421745D03*
X202950682Y-413724689D03*
%TD*%
%TO.C,H170*%
X498150682Y-307058022D03*
X498853626Y-305360966D03*
X498853626Y-308755078D03*
X500550682Y-304658022D03*
D11*
X500550682Y-307058022D03*
D10*
X500550682Y-309458022D03*
X502247738Y-305360966D03*
X502247738Y-308755078D03*
X502950682Y-307058022D03*
%TD*%
%TO.C,H216*%
X445621872Y-161229689D03*
X446324816Y-159532633D03*
X446324816Y-162926745D03*
X448021872Y-158829689D03*
D11*
X448021872Y-161229689D03*
D10*
X448021872Y-163629689D03*
X449718928Y-159532633D03*
X449718928Y-162926745D03*
X450421872Y-161229689D03*
%TD*%
%TO.C,H145*%
X328150682Y-413724689D03*
X328853626Y-412027633D03*
X328853626Y-415421745D03*
X330550682Y-411324689D03*
D11*
X330550682Y-413724689D03*
D10*
X330550682Y-416124689D03*
X332247738Y-412027633D03*
X332247738Y-415421745D03*
X332950682Y-413724689D03*
%TD*%
%TO.C,H183*%
X558150682Y-251224689D03*
X558853626Y-249527633D03*
X558853626Y-252921745D03*
X560550682Y-248824689D03*
D11*
X560550682Y-251224689D03*
D10*
X560550682Y-253624689D03*
X562247738Y-249527633D03*
X562247738Y-252921745D03*
X562950682Y-251224689D03*
%TD*%
%TO.C,H223*%
X318150682Y-171224689D03*
X318853626Y-169527633D03*
X318853626Y-172921745D03*
X320550682Y-168824689D03*
D11*
X320550682Y-171224689D03*
D10*
X320550682Y-173624689D03*
X322247738Y-169527633D03*
X322247738Y-172921745D03*
X322950682Y-171224689D03*
%TD*%
%TO.C,H220*%
X208150682Y-171224689D03*
X208853626Y-169527633D03*
X208853626Y-172921745D03*
X210550682Y-168824689D03*
D11*
X210550682Y-171224689D03*
D10*
X210550682Y-173624689D03*
X212247738Y-169527633D03*
X212247738Y-172921745D03*
X212950682Y-171224689D03*
%TD*%
%TO.C,H131*%
X208150682Y-251224689D03*
X208853626Y-249527633D03*
X208853626Y-252921745D03*
X210550682Y-248824689D03*
D11*
X210550682Y-251224689D03*
D10*
X210550682Y-253624689D03*
X212247738Y-249527633D03*
X212247738Y-252921745D03*
X212950682Y-251224689D03*
%TD*%
%TO.C,H108*%
X78121872Y-161229689D03*
X78824816Y-159532633D03*
X78824816Y-162926745D03*
X80521872Y-158829689D03*
D11*
X80521872Y-161229689D03*
D10*
X80521872Y-163629689D03*
X82218928Y-159532633D03*
X82218928Y-162926745D03*
X82921872Y-161229689D03*
%TD*%
%TO.C,H130*%
X258150682Y-307058022D03*
X258853626Y-305360966D03*
X258853626Y-308755078D03*
X260550682Y-304658022D03*
D11*
X260550682Y-307058022D03*
D10*
X260550682Y-309458022D03*
X262247738Y-305360966D03*
X262247738Y-308755078D03*
X262950682Y-307058022D03*
%TD*%
%TO.C,H147*%
X328150682Y-362891355D03*
X328853626Y-361194299D03*
X328853626Y-364588411D03*
X330550682Y-360491355D03*
D11*
X330550682Y-362891355D03*
D10*
X330550682Y-365291355D03*
X332247738Y-361194299D03*
X332247738Y-364588411D03*
X332950682Y-362891355D03*
%TD*%
%TO.C,H108*%
X138150682Y-413724689D03*
X138853626Y-412027633D03*
X138853626Y-415421745D03*
X140550682Y-411324689D03*
D11*
X140550682Y-413724689D03*
D10*
X140550682Y-416124689D03*
X142247738Y-412027633D03*
X142247738Y-415421745D03*
X142950682Y-413724689D03*
%TD*%
%TO.C,H108*%
X88150682Y-171224689D03*
X88853626Y-169527633D03*
X88853626Y-172921745D03*
X90550682Y-168824689D03*
D11*
X90550682Y-171224689D03*
D10*
X90550682Y-173624689D03*
X92247738Y-169527633D03*
X92247738Y-172921745D03*
X92950682Y-171224689D03*
%TD*%
%TO.C,H137*%
X268150682Y-362891355D03*
X268853626Y-361194299D03*
X268853626Y-364588411D03*
X270550682Y-360491355D03*
D11*
X270550682Y-362891355D03*
D10*
X270550682Y-365291355D03*
X272247738Y-361194299D03*
X272247738Y-364588411D03*
X272950682Y-362891355D03*
%TD*%
%TO.C,H140*%
X318150682Y-307058022D03*
X318853626Y-305360966D03*
X318853626Y-308755078D03*
X320550682Y-304658022D03*
D11*
X320550682Y-307058022D03*
D10*
X320550682Y-309458022D03*
X322247738Y-305360966D03*
X322247738Y-308755078D03*
X322950682Y-307058022D03*
%TD*%
%TO.C,H199*%
X568121872Y-161229689D03*
X568824816Y-159532633D03*
X568824816Y-162926745D03*
X570521872Y-158829689D03*
D11*
X570521872Y-161229689D03*
D10*
X570521872Y-163629689D03*
X572218928Y-159532633D03*
X572218928Y-162926745D03*
X572921872Y-161229689D03*
%TD*%
%TO.C,H212*%
X445621872Y-423729689D03*
X446324816Y-422032633D03*
X446324816Y-425426745D03*
X448021872Y-421329689D03*
D11*
X448021872Y-423729689D03*
D10*
X448021872Y-426129689D03*
X449718928Y-422032633D03*
X449718928Y-425426745D03*
X450421872Y-423729689D03*
%TD*%
%TO.C,H108*%
X88150682Y-307058022D03*
X88853626Y-305360966D03*
X88853626Y-308755078D03*
X90550682Y-304658022D03*
D11*
X90550682Y-307058022D03*
D10*
X90550682Y-309458022D03*
X92247738Y-305360966D03*
X92247738Y-308755078D03*
X92950682Y-307058022D03*
%TD*%
%TO.C,H168*%
X498150682Y-362891355D03*
X498853626Y-361194299D03*
X498853626Y-364588411D03*
X500550682Y-360491355D03*
D11*
X500550682Y-362891355D03*
D10*
X500550682Y-365291355D03*
X502247738Y-361194299D03*
X502247738Y-364588411D03*
X502950682Y-362891355D03*
%TD*%
%TO.C,H191*%
X78121872Y-335896355D03*
X78824816Y-334199299D03*
X78824816Y-337593411D03*
X80521872Y-333496355D03*
D11*
X80521872Y-335896355D03*
D10*
X80521872Y-338296355D03*
X82218928Y-334199299D03*
X82218928Y-337593411D03*
X82921872Y-335896355D03*
%TD*%
%TO.C,H182*%
X508150682Y-251224689D03*
X508853626Y-249527633D03*
X508853626Y-252921745D03*
X510550682Y-248824689D03*
D11*
X510550682Y-251224689D03*
D10*
X510550682Y-253624689D03*
X512247738Y-249527633D03*
X512247738Y-252921745D03*
X512950682Y-251224689D03*
%TD*%
%TO.C,H159*%
X388150682Y-307058022D03*
X388853626Y-305360966D03*
X388853626Y-308755078D03*
X390550682Y-304658022D03*
D11*
X390550682Y-307058022D03*
D10*
X390550682Y-309458022D03*
X392247738Y-305360966D03*
X392247738Y-308755078D03*
X392950682Y-307058022D03*
%TD*%
%TO.C,H173*%
X498150682Y-251224689D03*
X498853626Y-249527633D03*
X498853626Y-252921745D03*
X500550682Y-248824689D03*
D11*
X500550682Y-251224689D03*
D10*
X500550682Y-253624689D03*
X502247738Y-249527633D03*
X502247738Y-252921745D03*
X502950682Y-251224689D03*
%TD*%
%TO.C,H149*%
X328150682Y-307058022D03*
X328853626Y-305360966D03*
X328853626Y-308755078D03*
X330550682Y-304658022D03*
D11*
X330550682Y-307058022D03*
D10*
X330550682Y-309458022D03*
X332247738Y-305360966D03*
X332247738Y-308755078D03*
X332950682Y-307058022D03*
%TD*%
%TO.C,H221*%
X258150682Y-171224689D03*
X258853626Y-169527633D03*
X258853626Y-172921745D03*
X260550682Y-168824689D03*
D11*
X260550682Y-171224689D03*
D10*
X260550682Y-173624689D03*
X262247738Y-169527633D03*
X262247738Y-172921745D03*
X262950682Y-171224689D03*
%TD*%
%TO.C,H125*%
X208150682Y-413724689D03*
X208853626Y-412027633D03*
X208853626Y-415421745D03*
X210550682Y-411324689D03*
D11*
X210550682Y-413724689D03*
D10*
X210550682Y-416124689D03*
X212247738Y-412027633D03*
X212247738Y-415421745D03*
X212950682Y-413724689D03*
%TD*%
%TO.C,H115*%
X148150682Y-413724689D03*
X148853626Y-412027633D03*
X148853626Y-415421745D03*
X150550682Y-411324689D03*
D11*
X150550682Y-413724689D03*
D10*
X150550682Y-416124689D03*
X152247738Y-412027633D03*
X152247738Y-415421745D03*
X152950682Y-413724689D03*
%TD*%
%TO.C,H210*%
X200621872Y-423729689D03*
X201324816Y-422032633D03*
X201324816Y-425426745D03*
X203021872Y-421329689D03*
D11*
X203021872Y-423729689D03*
D10*
X203021872Y-426129689D03*
X204718928Y-422032633D03*
X204718928Y-425426745D03*
X205421872Y-423729689D03*
%TD*%
%TO.C,H134*%
X258150682Y-251224689D03*
X258853626Y-249527633D03*
X258853626Y-252921745D03*
X260550682Y-248824689D03*
D11*
X260550682Y-251224689D03*
D10*
X260550682Y-253624689D03*
X262247738Y-249527633D03*
X262247738Y-252921745D03*
X262950682Y-251224689D03*
%TD*%
%TO.C,H129*%
X208150682Y-307058022D03*
X208853626Y-305360966D03*
X208853626Y-308755078D03*
X210550682Y-304658022D03*
D11*
X210550682Y-307058022D03*
D10*
X210550682Y-309458022D03*
X212247738Y-305360966D03*
X212247738Y-308755078D03*
X212950682Y-307058022D03*
%TD*%
%TO.C,H117*%
X148150682Y-362891355D03*
X148853626Y-361194299D03*
X148853626Y-364588411D03*
X150550682Y-360491355D03*
D11*
X150550682Y-362891355D03*
D10*
X150550682Y-365291355D03*
X152247738Y-361194299D03*
X152247738Y-364588411D03*
X152950682Y-362891355D03*
%TD*%
%TO.C,H167*%
X448150682Y-362891355D03*
X448853626Y-361194299D03*
X448853626Y-364588411D03*
X450550682Y-360491355D03*
D11*
X450550682Y-362891355D03*
D10*
X450550682Y-365291355D03*
X452247738Y-361194299D03*
X452247738Y-364588411D03*
X452950682Y-362891355D03*
%TD*%
%TO.C,H139*%
X268150682Y-307058022D03*
X268853626Y-305360966D03*
X268853626Y-308755078D03*
X270550682Y-304658022D03*
D11*
X270550682Y-307058022D03*
D10*
X270550682Y-309458022D03*
X272247738Y-305360966D03*
X272247738Y-308755078D03*
X272950682Y-307058022D03*
%TD*%
%TO.C,H218*%
X148150682Y-171224689D03*
X148853626Y-169527633D03*
X148853626Y-172921745D03*
X150550682Y-168824689D03*
D11*
X150550682Y-171224689D03*
D10*
X150550682Y-173624689D03*
X152247738Y-169527633D03*
X152247738Y-172921745D03*
X152950682Y-171224689D03*
%TD*%
%TO.C,H148*%
X378150682Y-362891355D03*
X378853626Y-361194299D03*
X378853626Y-364588411D03*
X380550682Y-360491355D03*
D11*
X380550682Y-362891355D03*
D10*
X380550682Y-365291355D03*
X382247738Y-361194299D03*
X382247738Y-364588411D03*
X382950682Y-362891355D03*
%TD*%
%TO.C,H127*%
X208150682Y-362891355D03*
X208853626Y-361194299D03*
X208853626Y-364588411D03*
X210550682Y-360491355D03*
D11*
X210550682Y-362891355D03*
D10*
X210550682Y-365291355D03*
X212247738Y-361194299D03*
X212247738Y-364588411D03*
X212950682Y-362891355D03*
%TD*%
%TO.C,H156*%
X438150682Y-413724689D03*
X438853626Y-412027633D03*
X438853626Y-415421745D03*
X440550682Y-411324689D03*
D11*
X440550682Y-413724689D03*
D10*
X440550682Y-416124689D03*
X442247738Y-412027633D03*
X442247738Y-415421745D03*
X442950682Y-413724689D03*
%TD*%
M02*
