M48
; DRILL file {KiCad 7.0.8} date Wed 15 Nov 2023 12:45:28 PM CET
; FORMAT={-:-/ absolute / metric / decimal}
; #@! TF.CreationDate,2023-11-15T12:45:28+01:00
; #@! TF.GenerationSoftware,Kicad,Pcbnew,7.0.8
; #@! TF.FileFunction,MixedPlating,1,4
FMAT,2
METRIC
; #@! TA.AperFunction,Plated,PTH,ComponentDrill
T1C0.500
; #@! TA.AperFunction,Plated,PTH,ComponentDrill
T2C3.200
%
G90
G05
T1
X78.122Y-161.23
X78.122Y-248.563
X78.122Y-335.896
X78.122Y-423.73
X78.825Y-159.533
X78.825Y-162.927
X78.825Y-246.866
X78.825Y-250.26
X78.825Y-334.199
X78.825Y-337.593
X78.825Y-422.033
X78.825Y-425.427
X80.522Y-158.83
X80.522Y-163.63
X80.522Y-246.163
X80.522Y-250.963
X80.522Y-333.496
X80.522Y-338.296
X80.522Y-421.33
X80.522Y-426.13
X82.219Y-159.533
X82.219Y-162.927
X82.219Y-246.866
X82.219Y-250.26
X82.219Y-334.199
X82.219Y-337.593
X82.219Y-422.033
X82.219Y-425.427
X82.922Y-161.23
X82.922Y-248.563
X82.922Y-335.896
X82.922Y-423.73
X88.151Y-171.225
X88.151Y-251.225
X88.151Y-307.058
X88.151Y-362.891
X88.151Y-413.725
X88.854Y-169.528
X88.854Y-172.922
X88.854Y-249.528
X88.854Y-252.922
X88.854Y-305.361
X88.854Y-308.755
X88.854Y-361.194
X88.854Y-364.588
X88.854Y-412.028
X88.854Y-415.422
X90.551Y-168.825
X90.551Y-173.625
X90.551Y-248.825
X90.551Y-253.625
X90.551Y-304.658
X90.551Y-309.458
X90.551Y-360.491
X90.551Y-365.291
X90.551Y-411.325
X90.551Y-416.125
X92.248Y-169.528
X92.248Y-172.922
X92.248Y-249.528
X92.248Y-252.922
X92.248Y-305.361
X92.248Y-308.755
X92.248Y-361.194
X92.248Y-364.588
X92.248Y-412.028
X92.248Y-415.422
X92.951Y-171.225
X92.951Y-251.225
X92.951Y-307.058
X92.951Y-362.891
X92.951Y-413.725
X138.151Y-171.225
X138.151Y-251.225
X138.151Y-307.058
X138.151Y-362.891
X138.151Y-413.725
X138.854Y-169.528
X138.854Y-172.922
X138.854Y-249.528
X138.854Y-252.922
X138.854Y-305.361
X138.854Y-308.755
X138.854Y-361.194
X138.854Y-364.588
X138.854Y-412.028
X138.854Y-415.422
X140.551Y-168.825
X140.551Y-173.625
X140.551Y-248.825
X140.551Y-253.625
X140.551Y-304.658
X140.551Y-309.458
X140.551Y-360.491
X140.551Y-365.291
X140.551Y-411.325
X140.551Y-416.125
X142.248Y-169.528
X142.248Y-172.922
X142.248Y-249.528
X142.248Y-252.922
X142.248Y-305.361
X142.248Y-308.755
X142.248Y-361.194
X142.248Y-364.588
X142.248Y-412.028
X142.248Y-415.422
X142.951Y-171.225
X142.951Y-251.225
X142.951Y-307.058
X142.951Y-362.891
X142.951Y-413.725
X148.151Y-171.225
X148.151Y-251.225
X148.151Y-307.058
X148.151Y-362.891
X148.151Y-413.725
X148.854Y-169.528
X148.854Y-172.922
X148.854Y-249.528
X148.854Y-252.922
X148.854Y-305.361
X148.854Y-308.755
X148.854Y-361.194
X148.854Y-364.588
X148.854Y-412.028
X148.854Y-415.422
X150.551Y-168.825
X150.551Y-173.625
X150.551Y-248.825
X150.551Y-253.625
X150.551Y-304.658
X150.551Y-309.458
X150.551Y-360.491
X150.551Y-365.291
X150.551Y-411.325
X150.551Y-416.125
X152.248Y-169.528
X152.248Y-172.922
X152.248Y-249.528
X152.248Y-252.922
X152.248Y-305.361
X152.248Y-308.755
X152.248Y-361.194
X152.248Y-364.588
X152.248Y-412.028
X152.248Y-415.422
X152.951Y-171.225
X152.951Y-251.225
X152.951Y-307.058
X152.951Y-362.891
X152.951Y-413.725
X198.151Y-171.225
X198.151Y-251.225
X198.151Y-307.058
X198.151Y-362.891
X198.151Y-413.725
X198.854Y-169.528
X198.854Y-172.922
X198.854Y-249.528
X198.854Y-252.922
X198.854Y-305.361
X198.854Y-308.755
X198.854Y-361.194
X198.854Y-364.588
X198.854Y-412.028
X198.854Y-415.422
X200.551Y-168.825
X200.551Y-173.625
X200.551Y-248.825
X200.551Y-253.625
X200.551Y-304.658
X200.551Y-309.458
X200.551Y-360.491
X200.551Y-365.291
X200.551Y-411.325
X200.551Y-416.125
X200.622Y-161.23
X200.622Y-423.73
X201.325Y-159.533
X201.325Y-162.927
X201.325Y-422.033
X201.325Y-425.427
X202.248Y-169.528
X202.248Y-172.922
X202.248Y-249.528
X202.248Y-252.922
X202.248Y-305.361
X202.248Y-308.755
X202.248Y-361.194
X202.248Y-364.588
X202.248Y-412.028
X202.248Y-415.422
X202.951Y-171.225
X202.951Y-251.225
X202.951Y-307.058
X202.951Y-362.891
X202.951Y-413.725
X203.022Y-158.83
X203.022Y-163.63
X203.022Y-421.33
X203.022Y-426.13
X204.719Y-159.533
X204.719Y-162.927
X204.719Y-422.033
X204.719Y-425.427
X205.422Y-161.23
X205.422Y-423.73
X208.151Y-171.225
X208.151Y-251.225
X208.151Y-307.058
X208.151Y-362.891
X208.151Y-413.725
X208.854Y-169.528
X208.854Y-172.922
X208.854Y-249.528
X208.854Y-252.922
X208.854Y-305.361
X208.854Y-308.755
X208.854Y-361.194
X208.854Y-364.588
X208.854Y-412.028
X208.854Y-415.422
X210.551Y-168.825
X210.551Y-173.625
X210.551Y-248.825
X210.551Y-253.625
X210.551Y-304.658
X210.551Y-309.458
X210.551Y-360.491
X210.551Y-365.291
X210.551Y-411.325
X210.551Y-416.125
X212.248Y-169.528
X212.248Y-172.922
X212.248Y-249.528
X212.248Y-252.922
X212.248Y-305.361
X212.248Y-308.755
X212.248Y-361.194
X212.248Y-364.588
X212.248Y-412.028
X212.248Y-415.422
X212.951Y-171.225
X212.951Y-251.225
X212.951Y-307.058
X212.951Y-362.891
X212.951Y-413.725
X258.151Y-171.225
X258.151Y-251.225
X258.151Y-307.058
X258.151Y-362.891
X258.151Y-413.725
X258.854Y-169.528
X258.854Y-172.922
X258.854Y-249.528
X258.854Y-252.922
X258.854Y-305.361
X258.854Y-308.755
X258.854Y-361.194
X258.854Y-364.588
X258.854Y-412.028
X258.854Y-415.422
X260.551Y-168.825
X260.551Y-173.625
X260.551Y-248.825
X260.551Y-253.625
X260.551Y-304.658
X260.551Y-309.458
X260.551Y-360.491
X260.551Y-365.291
X260.551Y-411.325
X260.551Y-416.125
X262.248Y-169.528
X262.248Y-172.922
X262.248Y-249.528
X262.248Y-252.922
X262.248Y-305.361
X262.248Y-308.755
X262.248Y-361.194
X262.248Y-364.588
X262.248Y-412.028
X262.248Y-415.422
X262.951Y-171.225
X262.951Y-251.225
X262.951Y-307.058
X262.951Y-362.891
X262.951Y-413.725
X268.151Y-171.225
X268.151Y-251.225
X268.151Y-307.058
X268.151Y-362.891
X268.151Y-413.725
X268.854Y-169.528
X268.854Y-172.922
X268.854Y-249.528
X268.854Y-252.922
X268.854Y-305.361
X268.854Y-308.755
X268.854Y-361.194
X268.854Y-364.588
X268.854Y-412.028
X268.854Y-415.422
X270.551Y-168.825
X270.551Y-173.625
X270.551Y-248.825
X270.551Y-253.625
X270.551Y-304.658
X270.551Y-309.458
X270.551Y-360.491
X270.551Y-365.291
X270.551Y-411.325
X270.551Y-416.125
X272.248Y-169.528
X272.248Y-172.922
X272.248Y-249.528
X272.248Y-252.922
X272.248Y-305.361
X272.248Y-308.755
X272.248Y-361.194
X272.248Y-364.588
X272.248Y-412.028
X272.248Y-415.422
X272.951Y-171.225
X272.951Y-251.225
X272.951Y-307.058
X272.951Y-362.891
X272.951Y-413.725
X318.151Y-171.225
X318.151Y-251.225
X318.151Y-307.058
X318.151Y-362.891
X318.151Y-413.725
X318.854Y-169.528
X318.854Y-172.922
X318.854Y-249.528
X318.854Y-252.922
X318.854Y-305.361
X318.854Y-308.755
X318.854Y-361.194
X318.854Y-364.588
X318.854Y-412.028
X318.854Y-415.422
X320.551Y-168.825
X320.551Y-173.625
X320.551Y-248.825
X320.551Y-253.625
X320.551Y-304.658
X320.551Y-309.458
X320.551Y-360.491
X320.551Y-365.291
X320.551Y-411.325
X320.551Y-416.125
X322.248Y-169.528
X322.248Y-172.922
X322.248Y-249.528
X322.248Y-252.922
X322.248Y-305.361
X322.248Y-308.755
X322.248Y-361.194
X322.248Y-364.588
X322.248Y-412.028
X322.248Y-415.422
X322.951Y-171.225
X322.951Y-251.225
X322.951Y-307.058
X322.951Y-362.891
X322.951Y-413.725
X323.122Y-161.23
X323.122Y-423.73
X323.825Y-159.533
X323.825Y-162.927
X323.825Y-422.033
X323.825Y-425.427
X325.522Y-158.83
X325.522Y-163.63
X325.522Y-421.33
X325.522Y-426.13
X327.219Y-159.533
X327.219Y-162.927
X327.219Y-422.033
X327.219Y-425.427
X327.922Y-161.23
X327.922Y-423.73
X328.151Y-171.225
X328.151Y-251.225
X328.151Y-307.058
X328.151Y-362.891
X328.151Y-413.725
X328.854Y-169.528
X328.854Y-172.922
X328.854Y-249.528
X328.854Y-252.922
X328.854Y-305.361
X328.854Y-308.755
X328.854Y-361.194
X328.854Y-364.588
X328.854Y-412.028
X328.854Y-415.422
X330.551Y-168.825
X330.551Y-173.625
X330.551Y-248.825
X330.551Y-253.625
X330.551Y-304.658
X330.551Y-309.458
X330.551Y-360.491
X330.551Y-365.291
X330.551Y-411.325
X330.551Y-416.125
X332.248Y-169.528
X332.248Y-172.922
X332.248Y-249.528
X332.248Y-252.922
X332.248Y-305.361
X332.248Y-308.755
X332.248Y-361.194
X332.248Y-364.588
X332.248Y-412.028
X332.248Y-415.422
X332.951Y-171.225
X332.951Y-251.225
X332.951Y-307.058
X332.951Y-362.891
X332.951Y-413.725
X378.151Y-171.225
X378.151Y-251.225
X378.151Y-307.058
X378.151Y-362.891
X378.151Y-413.725
X378.854Y-169.528
X378.854Y-172.922
X378.854Y-249.528
X378.854Y-252.922
X378.854Y-305.361
X378.854Y-308.755
X378.854Y-361.194
X378.854Y-364.588
X378.854Y-412.028
X378.854Y-415.422
X380.551Y-168.825
X380.551Y-173.625
X380.551Y-248.825
X380.551Y-253.625
X380.551Y-304.658
X380.551Y-309.458
X380.551Y-360.491
X380.551Y-365.291
X380.551Y-411.325
X380.551Y-416.125
X382.248Y-169.528
X382.248Y-172.922
X382.248Y-249.528
X382.248Y-252.922
X382.248Y-305.361
X382.248Y-308.755
X382.248Y-361.194
X382.248Y-364.588
X382.248Y-412.028
X382.248Y-415.422
X382.951Y-171.225
X382.951Y-251.225
X382.951Y-307.058
X382.951Y-362.891
X382.951Y-413.725
X388.151Y-171.225
X388.151Y-251.225
X388.151Y-307.058
X388.151Y-362.891
X388.151Y-413.725
X388.854Y-169.528
X388.854Y-172.922
X388.854Y-249.528
X388.854Y-252.922
X388.854Y-305.361
X388.854Y-308.755
X388.854Y-361.194
X388.854Y-364.588
X388.854Y-412.028
X388.854Y-415.422
X390.551Y-168.825
X390.551Y-173.625
X390.551Y-248.825
X390.551Y-253.625
X390.551Y-304.658
X390.551Y-309.458
X390.551Y-360.491
X390.551Y-365.291
X390.551Y-411.325
X390.551Y-416.125
X392.248Y-169.528
X392.248Y-172.922
X392.248Y-249.528
X392.248Y-252.922
X392.248Y-305.361
X392.248Y-308.755
X392.248Y-361.194
X392.248Y-364.588
X392.248Y-412.028
X392.248Y-415.422
X392.951Y-171.225
X392.951Y-251.225
X392.951Y-307.058
X392.951Y-362.891
X392.951Y-413.725
X438.151Y-171.225
X438.151Y-251.225
X438.151Y-307.058
X438.151Y-362.891
X438.151Y-413.725
X438.854Y-169.528
X438.854Y-172.922
X438.854Y-249.528
X438.854Y-252.922
X438.854Y-305.361
X438.854Y-308.755
X438.854Y-361.194
X438.854Y-364.588
X438.854Y-412.028
X438.854Y-415.422
X440.551Y-168.825
X440.551Y-173.625
X440.551Y-248.825
X440.551Y-253.625
X440.551Y-304.658
X440.551Y-309.458
X440.551Y-360.491
X440.551Y-365.291
X440.551Y-411.325
X440.551Y-416.125
X442.248Y-169.528
X442.248Y-172.922
X442.248Y-249.528
X442.248Y-252.922
X442.248Y-305.361
X442.248Y-308.755
X442.248Y-361.194
X442.248Y-364.588
X442.248Y-412.028
X442.248Y-415.422
X442.951Y-171.225
X442.951Y-251.225
X442.951Y-307.058
X442.951Y-362.891
X442.951Y-413.725
X445.622Y-161.23
X445.622Y-423.73
X446.325Y-159.533
X446.325Y-162.927
X446.325Y-422.033
X446.325Y-425.427
X448.022Y-158.83
X448.022Y-163.63
X448.022Y-421.33
X448.022Y-426.13
X448.151Y-171.225
X448.151Y-251.225
X448.151Y-307.058
X448.151Y-362.891
X448.151Y-413.725
X448.854Y-169.528
X448.854Y-172.922
X448.854Y-249.528
X448.854Y-252.922
X448.854Y-305.361
X448.854Y-308.755
X448.854Y-361.194
X448.854Y-364.588
X448.854Y-412.028
X448.854Y-415.422
X449.719Y-159.533
X449.719Y-162.927
X449.719Y-422.033
X449.719Y-425.427
X450.422Y-161.23
X450.422Y-423.73
X450.551Y-168.825
X450.551Y-173.625
X450.551Y-248.825
X450.551Y-253.625
X450.551Y-304.658
X450.551Y-309.458
X450.551Y-360.491
X450.551Y-365.291
X450.551Y-411.325
X450.551Y-416.125
X452.248Y-169.528
X452.248Y-172.922
X452.248Y-249.528
X452.248Y-252.922
X452.248Y-305.361
X452.248Y-308.755
X452.248Y-361.194
X452.248Y-364.588
X452.248Y-412.028
X452.248Y-415.422
X452.951Y-171.225
X452.951Y-251.225
X452.951Y-307.058
X452.951Y-362.891
X452.951Y-413.725
X498.151Y-171.225
X498.151Y-251.225
X498.151Y-307.058
X498.151Y-362.891
X498.151Y-413.725
X498.854Y-169.528
X498.854Y-172.922
X498.854Y-249.528
X498.854Y-252.922
X498.854Y-305.361
X498.854Y-308.755
X498.854Y-361.194
X498.854Y-364.588
X498.854Y-412.028
X498.854Y-415.422
X500.551Y-168.825
X500.551Y-173.625
X500.551Y-248.825
X500.551Y-253.625
X500.551Y-304.658
X500.551Y-309.458
X500.551Y-360.491
X500.551Y-365.291
X500.551Y-411.325
X500.551Y-416.125
X502.248Y-169.528
X502.248Y-172.922
X502.248Y-249.528
X502.248Y-252.922
X502.248Y-305.361
X502.248Y-308.755
X502.248Y-361.194
X502.248Y-364.588
X502.248Y-412.028
X502.248Y-415.422
X502.951Y-171.225
X502.951Y-251.225
X502.951Y-307.058
X502.951Y-362.891
X502.951Y-413.725
X508.151Y-171.225
X508.151Y-251.225
X508.151Y-307.058
X508.151Y-362.891
X508.151Y-413.725
X508.854Y-169.528
X508.854Y-172.922
X508.854Y-249.528
X508.854Y-252.922
X508.854Y-305.361
X508.854Y-308.755
X508.854Y-361.194
X508.854Y-364.588
X508.854Y-412.028
X508.854Y-415.422
X510.551Y-168.825
X510.551Y-173.625
X510.551Y-248.825
X510.551Y-253.625
X510.551Y-304.658
X510.551Y-309.458
X510.551Y-360.491
X510.551Y-365.291
X510.551Y-411.325
X510.551Y-416.125
X512.248Y-169.528
X512.248Y-172.922
X512.248Y-249.528
X512.248Y-252.922
X512.248Y-305.361
X512.248Y-308.755
X512.248Y-361.194
X512.248Y-364.588
X512.248Y-412.028
X512.248Y-415.422
X512.951Y-171.225
X512.951Y-251.225
X512.951Y-307.058
X512.951Y-362.891
X512.951Y-413.725
X558.151Y-171.225
X558.151Y-251.225
X558.151Y-307.058
X558.151Y-362.891
X558.151Y-413.725
X558.854Y-169.528
X558.854Y-172.922
X558.854Y-249.528
X558.854Y-252.922
X558.854Y-305.361
X558.854Y-308.755
X558.854Y-361.194
X558.854Y-364.588
X558.854Y-412.028
X558.854Y-415.422
X560.551Y-168.825
X560.551Y-173.625
X560.551Y-248.825
X560.551Y-253.625
X560.551Y-304.658
X560.551Y-309.458
X560.551Y-360.491
X560.551Y-365.291
X560.551Y-411.325
X560.551Y-416.125
X562.248Y-169.528
X562.248Y-172.922
X562.248Y-249.528
X562.248Y-252.922
X562.248Y-305.361
X562.248Y-308.755
X562.248Y-361.194
X562.248Y-364.588
X562.248Y-412.028
X562.248Y-415.422
X562.951Y-171.225
X562.951Y-251.225
X562.951Y-307.058
X562.951Y-362.891
X562.951Y-413.725
X568.122Y-161.23
X568.122Y-248.563
X568.122Y-335.896
X568.122Y-423.73
X568.825Y-159.533
X568.825Y-162.927
X568.825Y-246.866
X568.825Y-250.26
X568.825Y-334.199
X568.825Y-337.593
X568.825Y-422.033
X568.825Y-425.427
X570.522Y-158.83
X570.522Y-163.63
X570.522Y-246.163
X570.522Y-250.963
X570.522Y-333.496
X570.522Y-338.296
X570.522Y-421.33
X570.522Y-426.13
X572.219Y-159.533
X572.219Y-162.927
X572.219Y-246.866
X572.219Y-250.26
X572.219Y-334.199
X572.219Y-337.593
X572.219Y-422.033
X572.219Y-425.427
X572.922Y-161.23
X572.922Y-248.563
X572.922Y-335.896
X572.922Y-423.73
T2
X80.522Y-161.23
X80.522Y-248.563
X80.522Y-335.896
X80.522Y-423.73
X90.551Y-171.225
X90.551Y-251.225
X90.551Y-307.058
X90.551Y-362.891
X90.551Y-413.725
X140.551Y-171.225
X140.551Y-251.225
X140.551Y-307.058
X140.551Y-362.891
X140.551Y-413.725
X150.551Y-171.225
X150.551Y-251.225
X150.551Y-307.058
X150.551Y-362.891
X150.551Y-413.725
X200.551Y-171.225
X200.551Y-251.225
X200.551Y-307.058
X200.551Y-362.891
X200.551Y-413.725
X203.022Y-161.23
X203.022Y-423.73
X210.551Y-171.225
X210.551Y-251.225
X210.551Y-307.058
X210.551Y-362.891
X210.551Y-413.725
X260.551Y-171.225
X260.551Y-251.225
X260.551Y-307.058
X260.551Y-362.891
X260.551Y-413.725
X270.551Y-171.225
X270.551Y-251.225
X270.551Y-307.058
X270.551Y-362.891
X270.551Y-413.725
X320.551Y-171.225
X320.551Y-251.225
X320.551Y-307.058
X320.551Y-362.891
X320.551Y-413.725
X325.522Y-161.23
X325.522Y-423.73
X330.551Y-171.225
X330.551Y-251.225
X330.551Y-307.058
X330.551Y-362.891
X330.551Y-413.725
X380.551Y-171.225
X380.551Y-251.225
X380.551Y-307.058
X380.551Y-362.891
X380.551Y-413.725
X390.551Y-171.225
X390.551Y-251.225
X390.551Y-307.058
X390.551Y-362.891
X390.551Y-413.725
X440.551Y-171.225
X440.551Y-251.225
X440.551Y-307.058
X440.551Y-362.891
X440.551Y-413.725
X448.022Y-161.23
X448.022Y-423.73
X450.551Y-171.225
X450.551Y-251.225
X450.551Y-307.058
X450.551Y-362.891
X450.551Y-413.725
X500.551Y-171.225
X500.551Y-251.225
X500.551Y-307.058
X500.551Y-362.891
X500.551Y-413.725
X510.551Y-171.225
X510.551Y-251.225
X510.551Y-307.058
X510.551Y-362.891
X510.551Y-413.725
X560.551Y-171.225
X560.551Y-251.225
X560.551Y-307.058
X560.551Y-362.891
X560.551Y-413.725
X570.522Y-161.23
X570.522Y-248.563
X570.522Y-335.896
X570.522Y-423.73
T0
M30
