M48
; DRILL file {KiCad 7.0.8} date Wed 15 Nov 2023 01:59:45 PM CET
; FORMAT={-:-/ absolute / metric / decimal}
; #@! TF.CreationDate,2023-11-15T13:59:45+01:00
; #@! TF.GenerationSoftware,Kicad,Pcbnew,7.0.8
; #@! TF.FileFunction,MixedPlating,1,4
FMAT,2
METRIC
; #@! TA.AperFunction,Plated,PTH,ComponentDrill
T1C0.500
; #@! TA.AperFunction,Plated,PTH,ComponentDrill
T2C3.200
%
G90
G05
T1
X505.6Y-119.5
X505.6Y-209.45
X506.303Y-117.803
X506.303Y-121.197
X506.303Y-207.753
X506.303Y-211.147
X508.0Y-117.1
X508.0Y-121.9
X508.0Y-207.05
X508.0Y-211.85
X509.697Y-117.803
X509.697Y-121.197
X509.697Y-207.753
X509.697Y-211.147
X510.4Y-119.5
X510.4Y-209.45
X555.6Y-119.5
X555.6Y-209.45
X556.303Y-117.803
X556.303Y-121.197
X556.303Y-207.753
X556.303Y-211.147
X558.0Y-117.1
X558.0Y-121.9
X558.0Y-207.05
X558.0Y-211.85
X559.697Y-117.803
X559.697Y-121.197
X559.697Y-207.753
X559.697Y-211.147
X560.4Y-119.5
X560.4Y-209.45
T2
X508.0Y-119.5
X508.0Y-209.45
X558.0Y-119.5
X558.0Y-209.45
T0
M30
