%TF.GenerationSoftware,KiCad,Pcbnew,7.0.8*%
%TF.CreationDate,2023-11-15T14:15:30+01:00*%
%TF.ProjectId,tarjeta-rev1,7461726a-6574-4612-9d72-6576312e6b69,rev?*%
%TF.SameCoordinates,Original*%
%TF.FileFunction,Copper,L1,Top*%
%TF.FilePolarity,Positive*%
%FSLAX46Y46*%
G04 Gerber Fmt 4.6, Leading zero omitted, Abs format (unit mm)*
G04 Created by KiCad (PCBNEW 7.0.8) date 2023-11-15 14:15:30*
%MOMM*%
%LPD*%
G01*
G04 APERTURE LIST*
G04 Aperture macros list*
%AMRoundRect*
0 Rectangle with rounded corners*
0 $1 Rounding radius*
0 $2 $3 $4 $5 $6 $7 $8 $9 X,Y pos of 4 corners*
0 Add a 4 corners polygon primitive as box body*
4,1,4,$2,$3,$4,$5,$6,$7,$8,$9,$2,$3,0*
0 Add four circle primitives for the rounded corners*
1,1,$1+$1,$2,$3*
1,1,$1+$1,$4,$5*
1,1,$1+$1,$6,$7*
1,1,$1+$1,$8,$9*
0 Add four rect primitives between the rounded corners*
20,1,$1+$1,$2,$3,$4,$5,0*
20,1,$1+$1,$4,$5,$6,$7,0*
20,1,$1+$1,$6,$7,$8,$9,0*
20,1,$1+$1,$8,$9,$2,$3,0*%
%AMRotRect*
0 Rectangle, with rotation*
0 The origin of the aperture is its center*
0 $1 length*
0 $2 width*
0 $3 Rotation angle, in degrees counterclockwise*
0 Add horizontal line*
21,1,$1,$2,0,0,$3*%
G04 Aperture macros list end*
%TA.AperFunction,WasherPad*%
%ADD10C,2.286000*%
%TD*%
%TA.AperFunction,SMDPad,CuDef*%
%ADD11RoundRect,0.062500X-0.212132X-0.300520X0.300520X0.212132X0.212132X0.300520X-0.300520X-0.212132X0*%
%TD*%
%TA.AperFunction,SMDPad,CuDef*%
%ADD12RoundRect,0.062500X0.212132X-0.300520X0.300520X-0.212132X-0.212132X0.300520X-0.300520X0.212132X0*%
%TD*%
%TA.AperFunction,SMDPad,CuDef*%
%ADD13RotRect,2.650000X3.650000X45.000000*%
%TD*%
%TA.AperFunction,ViaPad*%
%ADD14C,0.550000*%
%TD*%
%TA.AperFunction,Conductor*%
%ADD15C,0.300000*%
%TD*%
G04 APERTURE END LIST*
D10*
%TO.P,REF\u002A\u002A,*%
%TO.N,*%
X585900000Y-161100000D03*
X586100000Y-210600000D03*
X665600000Y-161000000D03*
X665600000Y-210500000D03*
D11*
%TO.P,REF\u002A\u002A,1*%
%TO.N,N/C*%
X601030152Y-183982628D03*
%TO.P,REF\u002A\u002A,2*%
X601383705Y-184336182D03*
%TO.P,REF\u002A\u002A,3*%
X601737259Y-184689735D03*
%TO.P,REF\u002A\u002A,4*%
X602090812Y-185043289D03*
%TO.P,REF\u002A\u002A,5*%
X602444365Y-185396842D03*
%TO.P,REF\u002A\u002A,6*%
X602797919Y-185750395D03*
%TO.P,REF\u002A\u002A,7*%
X603151472Y-186103949D03*
%TO.P,REF\u002A\u002A,8*%
X603505026Y-186457502D03*
D12*
%TO.P,REF\u002A\u002A,9*%
X604494975Y-186457502D03*
%TO.P,REF\u002A\u002A,10*%
X604848529Y-186103949D03*
%TO.P,REF\u002A\u002A,11*%
X605202082Y-185750395D03*
%TO.P,REF\u002A\u002A,12*%
X605555635Y-185396842D03*
%TO.P,REF\u002A\u002A,13*%
X605909189Y-185043289D03*
%TO.P,REF\u002A\u002A,14*%
X606262742Y-184689735D03*
D11*
%TO.P,REF\u002A\u002A,15*%
X606262742Y-183699786D03*
%TO.P,REF\u002A\u002A,16*%
X605909189Y-183346232D03*
%TO.P,REF\u002A\u002A,17*%
X605555635Y-182992679D03*
%TO.P,REF\u002A\u002A,18*%
X605202082Y-182639125D03*
%TO.P,REF\u002A\u002A,19*%
X604848529Y-182285572D03*
%TO.P,REF\u002A\u002A,20*%
X604494975Y-181932019D03*
%TO.P,REF\u002A\u002A,21*%
X604141422Y-181578465D03*
%TO.P,REF\u002A\u002A,22*%
X603787868Y-181224912D03*
D12*
%TO.P,REF\u002A\u002A,23*%
X602797919Y-181224912D03*
%TO.P,REF\u002A\u002A,24*%
X602444365Y-181578465D03*
%TO.P,REF\u002A\u002A,25*%
X602090812Y-181932019D03*
%TO.P,REF\u002A\u002A,26*%
X601737259Y-182285572D03*
%TO.P,REF\u002A\u002A,27*%
X601383705Y-182639125D03*
%TO.P,REF\u002A\u002A,28*%
X601030152Y-182992679D03*
D13*
%TO.P,REF\u002A\u002A,29*%
X603646447Y-183841207D03*
%TD*%
D14*
%TO.N,*%
X626953062Y-182899689D03*
X613850000Y-190750000D03*
X605500000Y-174150000D03*
X591393062Y-182899689D03*
X614253062Y-185439689D03*
X619333062Y-193059689D03*
X593933062Y-175279689D03*
X621873062Y-180359689D03*
X596473062Y-187979689D03*
X600150000Y-194700000D03*
X593933062Y-195599689D03*
X593933062Y-185439689D03*
X609173062Y-195599689D03*
X616793062Y-180359689D03*
X614253062Y-195599689D03*
X621873062Y-190519689D03*
X591393062Y-187979689D03*
X626953062Y-175279689D03*
X628550000Y-179050000D03*
X604350000Y-174750000D03*
X614253062Y-182899689D03*
X621873062Y-185439689D03*
X591393062Y-190519689D03*
X614253062Y-180359689D03*
X619333062Y-182899689D03*
X623550000Y-186650000D03*
X604093062Y-195599689D03*
X591393062Y-175279689D03*
X596473062Y-190519689D03*
X591393062Y-185439689D03*
X624413062Y-195599689D03*
X616793062Y-193059689D03*
X598250000Y-195250000D03*
X596473062Y-185439689D03*
X599013062Y-190519689D03*
X606633062Y-193059689D03*
X626953062Y-187979689D03*
X591393062Y-177819689D03*
X619333062Y-195599689D03*
X599013062Y-185439689D03*
X593933062Y-187979689D03*
X621873062Y-195599689D03*
X627100000Y-179450000D03*
X624413062Y-182899689D03*
X593933062Y-177819689D03*
X624413062Y-185439689D03*
X591393062Y-180359689D03*
X599013062Y-187979689D03*
X626953062Y-195599689D03*
X593933062Y-182899689D03*
X624413062Y-180359689D03*
X619333062Y-180359689D03*
X599013062Y-180359689D03*
X591393062Y-195599689D03*
X609173062Y-193059689D03*
X624413062Y-187979689D03*
X593933062Y-190519689D03*
X619333062Y-185439689D03*
X611713062Y-180359689D03*
X596473062Y-175279689D03*
X614600000Y-186800000D03*
X620650000Y-178450000D03*
X593933062Y-180359689D03*
X594550000Y-193450000D03*
X611713062Y-195599689D03*
X626953062Y-190519689D03*
X626953062Y-185439689D03*
X624413062Y-190519689D03*
X621873062Y-193059689D03*
X621873062Y-187979689D03*
X606633062Y-195599689D03*
X619333062Y-190519689D03*
X595400000Y-194100000D03*
X601553062Y-177819689D03*
X621873062Y-177819689D03*
X596473062Y-195599689D03*
X591393062Y-193059689D03*
X619650000Y-188300000D03*
X600050000Y-195800000D03*
X624413062Y-193059689D03*
X616793062Y-185439689D03*
X616793062Y-182899689D03*
X601553062Y-180359689D03*
X616793062Y-195599689D03*
X595250000Y-194700000D03*
X626953062Y-193059689D03*
X626549454Y-179822596D03*
X614253062Y-193059689D03*
X611713062Y-193059689D03*
X618250000Y-182350000D03*
X627800000Y-179200000D03*
X621873062Y-182899689D03*
%TD*%
D15*
%TO.N,*%
X618250000Y-182350000D02*
X618300000Y-182350000D01*
X618350000Y-175150000D02*
X623750000Y-175150000D01*
X609139735Y-184689735D02*
X609800000Y-185350000D01*
X601550000Y-186291207D02*
X601550000Y-186400000D01*
X608550000Y-176350000D02*
X623100000Y-176350000D01*
X595400000Y-194100000D02*
X595450000Y-194100000D01*
X617200000Y-190150000D02*
X619050000Y-188300000D01*
X602700000Y-186555421D02*
X602700000Y-186600000D01*
X600550000Y-187000000D02*
X600550000Y-191200000D01*
X601383705Y-182639125D02*
X600900000Y-182155420D01*
X602100000Y-186448314D02*
X602100000Y-186450000D01*
X603787868Y-179162132D02*
X605000000Y-177950000D01*
X601030152Y-182992679D02*
X596992679Y-182992679D01*
X607800000Y-175150000D02*
X618350000Y-175150000D01*
X595250000Y-194700000D02*
X595300000Y-194650000D01*
X598900000Y-195200000D02*
X598400000Y-195200000D01*
X597200000Y-182250000D02*
X596700000Y-181750000D01*
X602650000Y-192300000D02*
X600250000Y-194700000D01*
X605300000Y-179500000D02*
X605350000Y-179450000D01*
X596050000Y-182050000D02*
X596050000Y-178100000D01*
X628550000Y-179050000D02*
X628600000Y-179100000D01*
X600900000Y-182150000D02*
X597300000Y-182150000D01*
X609341207Y-178500000D02*
X609400000Y-178500000D01*
X600150000Y-194800000D02*
X600250000Y-194700000D01*
X606262742Y-184689735D02*
X609139735Y-184689735D01*
X601100000Y-186000000D02*
X601100000Y-191500000D01*
X598500000Y-194100000D02*
X595400000Y-194100000D01*
X596700000Y-178500000D02*
X600450000Y-174750000D01*
X603151472Y-186103949D02*
X602700000Y-186555421D01*
X606262742Y-183699786D02*
X610250214Y-183699786D01*
X609400000Y-178500000D02*
X620600000Y-178500000D01*
X602700000Y-186600000D02*
X602700000Y-192250000D01*
X598300000Y-195200000D02*
X598350000Y-195200000D01*
X602797919Y-185750395D02*
X602100000Y-186448314D01*
X594600000Y-193500000D02*
X594650000Y-193500000D01*
X607400000Y-190700000D02*
X613850000Y-190750000D01*
X605000000Y-177950000D02*
X607800000Y-175150000D01*
X623500000Y-186600000D02*
X623550000Y-186650000D01*
X600250000Y-191500000D02*
X598250000Y-193500000D01*
X606600000Y-189900000D02*
X607400000Y-190700000D01*
X604507502Y-186457502D02*
X606500000Y-188450000D01*
X600050000Y-195800000D02*
X600000000Y-195800000D01*
X627100000Y-179450000D02*
X627150000Y-179450000D01*
X594700000Y-193500000D02*
X594550000Y-193450000D01*
X610250214Y-183699786D02*
X612600000Y-181350000D01*
X600050000Y-192550000D02*
X598500000Y-194100000D01*
X618250000Y-182300000D02*
X618250000Y-182350000D01*
X600550000Y-185750000D02*
X600550000Y-187000000D01*
X604650000Y-181000000D02*
X604500000Y-180850000D01*
X612600000Y-181350000D02*
X617300000Y-181350000D01*
X603787868Y-181224912D02*
X603787868Y-179162132D01*
X603505026Y-186457502D02*
X603505026Y-192205026D01*
X597300000Y-182150000D02*
X597200000Y-182250000D01*
X600900000Y-182155420D02*
X600900000Y-182150000D01*
X608450000Y-176350000D02*
X608550000Y-176350000D01*
X602090812Y-185043289D02*
X601134101Y-186000000D01*
X611200000Y-186750000D02*
X611800000Y-186750000D01*
X602100000Y-186450000D02*
X602100000Y-192000000D01*
X600150000Y-194700000D02*
X600150000Y-194800000D01*
X602797919Y-181224912D02*
X602797919Y-179202081D01*
X617750000Y-188300000D02*
X619450000Y-186600000D01*
X609350000Y-189200000D02*
X610300000Y-190150000D01*
X601134101Y-186000000D02*
X601100000Y-186000000D01*
X618300000Y-182350000D02*
X618300000Y-182350000D01*
X602700000Y-192250000D02*
X602650000Y-192300000D01*
X594550000Y-193450000D02*
X594600000Y-193500000D01*
X603505026Y-192205026D02*
X603600000Y-192300000D01*
X617300000Y-181350000D02*
X618250000Y-182300000D01*
X600450000Y-174750000D02*
X604350000Y-174750000D01*
X609300000Y-188300000D02*
X616950000Y-188300000D01*
X602444365Y-185396842D02*
X601550000Y-186291207D01*
X605350000Y-179450000D02*
X608450000Y-176350000D01*
X597800000Y-193500000D02*
X594700000Y-193500000D01*
X605202082Y-182639125D02*
X609341207Y-178500000D01*
X608050000Y-175750000D02*
X609650000Y-175750000D01*
X598400000Y-195200000D02*
X598250000Y-195250000D01*
X601550000Y-186400000D02*
X601550000Y-191800000D01*
X600100000Y-195800000D02*
X600050000Y-195800000D01*
X606500000Y-188450000D02*
X606500000Y-189800000D01*
X623450000Y-175750000D02*
X627100000Y-179400000D01*
X627150000Y-179450000D02*
X627150000Y-179450000D01*
X602797919Y-179202081D02*
X607350000Y-174650000D01*
X605226994Y-181200000D02*
X605300000Y-181200000D01*
X604494975Y-186457502D02*
X604507502Y-186457502D01*
X604141422Y-181578465D02*
X604650000Y-181069887D01*
X604350000Y-174750000D02*
X604400000Y-174750000D01*
X610300000Y-190150000D02*
X617200000Y-190150000D01*
X616950000Y-188300000D02*
X617750000Y-188300000D01*
X611800000Y-186750000D02*
X614550000Y-186750000D01*
X626600000Y-179850000D02*
X626650000Y-179850000D01*
X627100000Y-179400000D02*
X627100000Y-179450000D01*
X603600000Y-192300000D02*
X600225000Y-195675000D01*
X596992679Y-182992679D02*
X596050000Y-182050000D01*
X619450000Y-186600000D02*
X623500000Y-186600000D01*
X614550000Y-186750000D02*
X614600000Y-186800000D01*
X627800000Y-179200000D02*
X627850000Y-179250000D01*
X598250000Y-195250000D02*
X598300000Y-195200000D01*
X619050000Y-188300000D02*
X619650000Y-188300000D01*
X620650000Y-178450000D02*
X620700000Y-178400000D01*
X613850000Y-190750000D02*
X613850000Y-190700000D01*
X604500000Y-179300000D02*
X608050000Y-175750000D01*
X601350000Y-192750000D02*
X598900000Y-195200000D01*
X609800000Y-185350000D02*
X611200000Y-186750000D01*
X596700000Y-181750000D02*
X596700000Y-181500000D01*
X605500000Y-174150000D02*
X605500000Y-174200000D01*
X598700000Y-194650000D02*
X595250000Y-194700000D01*
X596050000Y-178100000D02*
X597750000Y-176400000D01*
X607350000Y-174650000D02*
X607400000Y-174600000D01*
X624100000Y-174600000D02*
X628550000Y-179050000D01*
X600250000Y-194700000D02*
X600150000Y-194700000D01*
X597750000Y-176400000D02*
X599950000Y-174200000D01*
X609050000Y-188050000D02*
X609300000Y-188300000D01*
X609650000Y-175750000D02*
X623450000Y-175750000D01*
X620600000Y-178500000D02*
X620650000Y-178450000D01*
X623250000Y-176500000D02*
X626600000Y-179850000D01*
X606500000Y-189800000D02*
X606600000Y-189900000D01*
X596700000Y-181500000D02*
X596700000Y-178500000D01*
X607400000Y-174600000D02*
X623900000Y-174600000D01*
X602100000Y-192000000D02*
X601350000Y-192750000D01*
X606043289Y-185043289D02*
X609050000Y-188050000D01*
X604500000Y-180850000D02*
X604500000Y-179300000D01*
X605909189Y-185043289D02*
X606043289Y-185043289D01*
X604650000Y-181069887D02*
X604650000Y-181000000D01*
X623750000Y-175150000D02*
X627800000Y-179200000D01*
X604494975Y-181932019D02*
X605226994Y-181200000D01*
X601550000Y-191800000D02*
X598700000Y-194650000D01*
X623900000Y-174600000D02*
X624100000Y-174600000D01*
X605300000Y-181200000D02*
X605300000Y-179500000D01*
X599950000Y-174200000D02*
X605500000Y-174150000D01*
X605555635Y-185396842D02*
X605555635Y-185405635D01*
X600550000Y-191200000D02*
X600250000Y-191500000D01*
X623100000Y-176350000D02*
X623250000Y-176500000D01*
X598250000Y-193500000D02*
X597800000Y-193500000D01*
X605555635Y-185405635D02*
X609350000Y-189200000D01*
X600976994Y-185450000D02*
X600850000Y-185450000D01*
X600850000Y-185450000D02*
X600550000Y-185750000D01*
X601100000Y-191500000D02*
X600050000Y-192550000D01*
X601737259Y-184689735D02*
X600976994Y-185450000D01*
%TD*%
M02*
