%TF.GenerationSoftware,KiCad,Pcbnew,7.0.8*%
%TF.CreationDate,2023-11-15T14:15:31+01:00*%
%TF.ProjectId,tarjeta-rev1,7461726a-6574-4612-9d72-6576312e6b69,rev?*%
%TF.SameCoordinates,Original*%
%TF.FileFunction,Legend,Top*%
%TF.FilePolarity,Positive*%
%FSLAX46Y46*%
G04 Gerber Fmt 4.6, Leading zero omitted, Abs format (unit mm)*
G04 Created by KiCad (PCBNEW 7.0.8) date 2023-11-15 14:15:31*
%MOMM*%
%LPD*%
G01*
G04 APERTURE LIST*
%ADD10C,0.100000*%
%ADD11C,0.120000*%
G04 APERTURE END LIST*
D10*
X589641979Y-199988133D02*
X591165789Y-199988133D01*
X590403884Y-200750038D02*
X590403884Y-199226228D01*
X592975312Y-199416704D02*
X592975312Y-200750038D01*
X592499121Y-198654800D02*
X592022931Y-200083371D01*
X592022931Y-200083371D02*
X593261026Y-200083371D01*
X594118169Y-200750038D02*
X594499121Y-200750038D01*
X594499121Y-200750038D02*
X594689598Y-200654800D01*
X594689598Y-200654800D02*
X594784836Y-200559561D01*
X594784836Y-200559561D02*
X594975312Y-200273847D01*
X594975312Y-200273847D02*
X595070550Y-199892895D01*
X595070550Y-199892895D02*
X595070550Y-199130990D01*
X595070550Y-199130990D02*
X594975312Y-198940514D01*
X594975312Y-198940514D02*
X594880074Y-198845276D01*
X594880074Y-198845276D02*
X594689598Y-198750038D01*
X594689598Y-198750038D02*
X594308645Y-198750038D01*
X594308645Y-198750038D02*
X594118169Y-198845276D01*
X594118169Y-198845276D02*
X594022931Y-198940514D01*
X594022931Y-198940514D02*
X593927693Y-199130990D01*
X593927693Y-199130990D02*
X593927693Y-199607180D01*
X593927693Y-199607180D02*
X594022931Y-199797657D01*
X594022931Y-199797657D02*
X594118169Y-199892895D01*
X594118169Y-199892895D02*
X594308645Y-199988133D01*
X594308645Y-199988133D02*
X594689598Y-199988133D01*
X594689598Y-199988133D02*
X594880074Y-199892895D01*
X594880074Y-199892895D02*
X594975312Y-199797657D01*
X594975312Y-199797657D02*
X595070550Y-199607180D01*
X598499122Y-200750038D02*
X597356265Y-200750038D01*
X597927693Y-200750038D02*
X597927693Y-198750038D01*
X597927693Y-198750038D02*
X597737217Y-199035752D01*
X597737217Y-199035752D02*
X597546741Y-199226228D01*
X597546741Y-199226228D02*
X597356265Y-199321466D01*
X599165789Y-198750038D02*
X600499122Y-198750038D01*
X600499122Y-198750038D02*
X599641979Y-200750038D01*
X602118170Y-198750038D02*
X601737217Y-198750038D01*
X601737217Y-198750038D02*
X601546741Y-198845276D01*
X601546741Y-198845276D02*
X601451503Y-198940514D01*
X601451503Y-198940514D02*
X601261027Y-199226228D01*
X601261027Y-199226228D02*
X601165789Y-199607180D01*
X601165789Y-199607180D02*
X601165789Y-200369085D01*
X601165789Y-200369085D02*
X601261027Y-200559561D01*
X601261027Y-200559561D02*
X601356265Y-200654800D01*
X601356265Y-200654800D02*
X601546741Y-200750038D01*
X601546741Y-200750038D02*
X601927694Y-200750038D01*
X601927694Y-200750038D02*
X602118170Y-200654800D01*
X602118170Y-200654800D02*
X602213408Y-200559561D01*
X602213408Y-200559561D02*
X602308646Y-200369085D01*
X602308646Y-200369085D02*
X602308646Y-199892895D01*
X602308646Y-199892895D02*
X602213408Y-199702419D01*
X602213408Y-199702419D02*
X602118170Y-199607180D01*
X602118170Y-199607180D02*
X601927694Y-199511942D01*
X601927694Y-199511942D02*
X601546741Y-199511942D01*
X601546741Y-199511942D02*
X601356265Y-199607180D01*
X601356265Y-199607180D02*
X601261027Y-199702419D01*
X601261027Y-199702419D02*
X601165789Y-199892895D01*
X604022932Y-199416704D02*
X604022932Y-200750038D01*
X603546741Y-198654800D02*
X603070551Y-200083371D01*
X603070551Y-200083371D02*
X604308646Y-200083371D01*
X606403885Y-198750038D02*
X607641980Y-198750038D01*
X607641980Y-198750038D02*
X606975313Y-199511942D01*
X606975313Y-199511942D02*
X607261028Y-199511942D01*
X607261028Y-199511942D02*
X607451504Y-199607180D01*
X607451504Y-199607180D02*
X607546742Y-199702419D01*
X607546742Y-199702419D02*
X607641980Y-199892895D01*
X607641980Y-199892895D02*
X607641980Y-200369085D01*
X607641980Y-200369085D02*
X607546742Y-200559561D01*
X607546742Y-200559561D02*
X607451504Y-200654800D01*
X607451504Y-200654800D02*
X607261028Y-200750038D01*
X607261028Y-200750038D02*
X606689599Y-200750038D01*
X606689599Y-200750038D02*
X606499123Y-200654800D01*
X606499123Y-200654800D02*
X606403885Y-200559561D01*
X609356266Y-198750038D02*
X608975313Y-198750038D01*
X608975313Y-198750038D02*
X608784837Y-198845276D01*
X608784837Y-198845276D02*
X608689599Y-198940514D01*
X608689599Y-198940514D02*
X608499123Y-199226228D01*
X608499123Y-199226228D02*
X608403885Y-199607180D01*
X608403885Y-199607180D02*
X608403885Y-200369085D01*
X608403885Y-200369085D02*
X608499123Y-200559561D01*
X608499123Y-200559561D02*
X608594361Y-200654800D01*
X608594361Y-200654800D02*
X608784837Y-200750038D01*
X608784837Y-200750038D02*
X609165790Y-200750038D01*
X609165790Y-200750038D02*
X609356266Y-200654800D01*
X609356266Y-200654800D02*
X609451504Y-200559561D01*
X609451504Y-200559561D02*
X609546742Y-200369085D01*
X609546742Y-200369085D02*
X609546742Y-199892895D01*
X609546742Y-199892895D02*
X609451504Y-199702419D01*
X609451504Y-199702419D02*
X609356266Y-199607180D01*
X609356266Y-199607180D02*
X609165790Y-199511942D01*
X609165790Y-199511942D02*
X608784837Y-199511942D01*
X608784837Y-199511942D02*
X608594361Y-199607180D01*
X608594361Y-199607180D02*
X608499123Y-199702419D01*
X608499123Y-199702419D02*
X608403885Y-199892895D01*
X610499123Y-200750038D02*
X610880075Y-200750038D01*
X610880075Y-200750038D02*
X611070552Y-200654800D01*
X611070552Y-200654800D02*
X611165790Y-200559561D01*
X611165790Y-200559561D02*
X611356266Y-200273847D01*
X611356266Y-200273847D02*
X611451504Y-199892895D01*
X611451504Y-199892895D02*
X611451504Y-199130990D01*
X611451504Y-199130990D02*
X611356266Y-198940514D01*
X611356266Y-198940514D02*
X611261028Y-198845276D01*
X611261028Y-198845276D02*
X611070552Y-198750038D01*
X611070552Y-198750038D02*
X610689599Y-198750038D01*
X610689599Y-198750038D02*
X610499123Y-198845276D01*
X610499123Y-198845276D02*
X610403885Y-198940514D01*
X610403885Y-198940514D02*
X610308647Y-199130990D01*
X610308647Y-199130990D02*
X610308647Y-199607180D01*
X610308647Y-199607180D02*
X610403885Y-199797657D01*
X610403885Y-199797657D02*
X610499123Y-199892895D01*
X610499123Y-199892895D02*
X610689599Y-199988133D01*
X610689599Y-199988133D02*
X611070552Y-199988133D01*
X611070552Y-199988133D02*
X611261028Y-199892895D01*
X611261028Y-199892895D02*
X611356266Y-199797657D01*
X611356266Y-199797657D02*
X611451504Y-199607180D01*
X614784838Y-198750038D02*
X613832457Y-198750038D01*
X613832457Y-198750038D02*
X613737219Y-199702419D01*
X613737219Y-199702419D02*
X613832457Y-199607180D01*
X613832457Y-199607180D02*
X614022933Y-199511942D01*
X614022933Y-199511942D02*
X614499124Y-199511942D01*
X614499124Y-199511942D02*
X614689600Y-199607180D01*
X614689600Y-199607180D02*
X614784838Y-199702419D01*
X614784838Y-199702419D02*
X614880076Y-199892895D01*
X614880076Y-199892895D02*
X614880076Y-200369085D01*
X614880076Y-200369085D02*
X614784838Y-200559561D01*
X614784838Y-200559561D02*
X614689600Y-200654800D01*
X614689600Y-200654800D02*
X614499124Y-200750038D01*
X614499124Y-200750038D02*
X614022933Y-200750038D01*
X614022933Y-200750038D02*
X613832457Y-200654800D01*
X613832457Y-200654800D02*
X613737219Y-200559561D01*
X616689600Y-198750038D02*
X615737219Y-198750038D01*
X615737219Y-198750038D02*
X615641981Y-199702419D01*
X615641981Y-199702419D02*
X615737219Y-199607180D01*
X615737219Y-199607180D02*
X615927695Y-199511942D01*
X615927695Y-199511942D02*
X616403886Y-199511942D01*
X616403886Y-199511942D02*
X616594362Y-199607180D01*
X616594362Y-199607180D02*
X616689600Y-199702419D01*
X616689600Y-199702419D02*
X616784838Y-199892895D01*
X616784838Y-199892895D02*
X616784838Y-200369085D01*
X616784838Y-200369085D02*
X616689600Y-200559561D01*
X616689600Y-200559561D02*
X616594362Y-200654800D01*
X616594362Y-200654800D02*
X616403886Y-200750038D01*
X616403886Y-200750038D02*
X615927695Y-200750038D01*
X615927695Y-200750038D02*
X615737219Y-200654800D01*
X615737219Y-200654800D02*
X615641981Y-200559561D01*
X619070553Y-198940514D02*
X619165791Y-198845276D01*
X619165791Y-198845276D02*
X619356267Y-198750038D01*
X619356267Y-198750038D02*
X619832458Y-198750038D01*
X619832458Y-198750038D02*
X620022934Y-198845276D01*
X620022934Y-198845276D02*
X620118172Y-198940514D01*
X620118172Y-198940514D02*
X620213410Y-199130990D01*
X620213410Y-199130990D02*
X620213410Y-199321466D01*
X620213410Y-199321466D02*
X620118172Y-199607180D01*
X620118172Y-199607180D02*
X618975315Y-200750038D01*
X618975315Y-200750038D02*
X620213410Y-200750038D01*
X620975315Y-198940514D02*
X621070553Y-198845276D01*
X621070553Y-198845276D02*
X621261029Y-198750038D01*
X621261029Y-198750038D02*
X621737220Y-198750038D01*
X621737220Y-198750038D02*
X621927696Y-198845276D01*
X621927696Y-198845276D02*
X622022934Y-198940514D01*
X622022934Y-198940514D02*
X622118172Y-199130990D01*
X622118172Y-199130990D02*
X622118172Y-199321466D01*
X622118172Y-199321466D02*
X622022934Y-199607180D01*
X622022934Y-199607180D02*
X620880077Y-200750038D01*
X620880077Y-200750038D02*
X622118172Y-200750038D01*
G36*
X590606489Y-167639685D02*
G01*
X589653210Y-167639685D01*
X589711828Y-167411807D01*
X590539078Y-167411807D01*
X590606489Y-167639685D01*
G37*
G36*
X590150732Y-166426287D02*
G01*
X589459036Y-168390000D01*
X589167411Y-168390000D01*
X590138276Y-165763900D01*
X590171981Y-165763900D01*
X591142847Y-168390000D01*
X590838764Y-168390000D01*
X590150732Y-166426287D01*
G37*
G36*
X591502616Y-168390000D02*
G01*
X591502616Y-166467320D01*
X591797906Y-166467320D01*
X591797906Y-166808771D01*
X591817346Y-166779771D01*
X591837565Y-166751756D01*
X591858562Y-166724725D01*
X591880338Y-166698679D01*
X591902892Y-166673617D01*
X591926225Y-166649540D01*
X591950336Y-166626448D01*
X591975226Y-166604340D01*
X592000837Y-166583320D01*
X592027113Y-166563490D01*
X592054052Y-166544852D01*
X592081655Y-166527404D01*
X592109922Y-166511146D01*
X592138854Y-166496079D01*
X592168449Y-166482203D01*
X592198709Y-166469518D01*
X592229437Y-166458012D01*
X592260441Y-166448040D01*
X592291719Y-166439602D01*
X592323272Y-166432698D01*
X592355100Y-166427329D01*
X592387203Y-166423493D01*
X592419580Y-166421192D01*
X592452233Y-166420425D01*
X592482018Y-166421127D01*
X592520789Y-166424247D01*
X592558485Y-166429863D01*
X592595104Y-166437974D01*
X592630647Y-166448582D01*
X592665114Y-166461685D01*
X592698505Y-166477284D01*
X592730819Y-166495379D01*
X592738729Y-166500293D01*
X592769630Y-166521782D01*
X592798951Y-166546317D01*
X592826691Y-166573897D01*
X592846460Y-166596581D01*
X592865340Y-166620978D01*
X592883331Y-166647088D01*
X592900433Y-166674911D01*
X592916647Y-166704447D01*
X592931972Y-166735696D01*
X592941695Y-166757480D01*
X592955314Y-166791589D01*
X592967593Y-166827693D01*
X592978532Y-166865795D01*
X592988132Y-166905892D01*
X592996392Y-166947986D01*
X593001155Y-166977158D01*
X593005322Y-167007217D01*
X593008894Y-167038163D01*
X593011871Y-167069997D01*
X593014253Y-167102718D01*
X593016039Y-167136326D01*
X593017229Y-167170821D01*
X593017825Y-167206204D01*
X593017899Y-167224228D01*
X593017899Y-168390000D01*
X592721877Y-168390000D01*
X592721877Y-167233021D01*
X592721471Y-167195961D01*
X592720254Y-167160344D01*
X592718225Y-167126169D01*
X592715385Y-167093436D01*
X592711734Y-167062147D01*
X592707271Y-167032299D01*
X592700058Y-166994747D01*
X592691403Y-166959759D01*
X592681305Y-166927336D01*
X592675715Y-166912086D01*
X592663636Y-166883097D01*
X592650481Y-166856215D01*
X592632525Y-166825575D01*
X592612886Y-166798227D01*
X592591566Y-166774170D01*
X592568565Y-166753405D01*
X592548953Y-166739162D01*
X592523475Y-166723964D01*
X592496961Y-166711341D01*
X592469408Y-166701295D01*
X592440818Y-166693825D01*
X592411190Y-166688930D01*
X592380525Y-166686612D01*
X592367969Y-166686406D01*
X592337461Y-166687443D01*
X592306846Y-166690556D01*
X592276124Y-166695744D01*
X592245294Y-166703007D01*
X592214357Y-166712345D01*
X592183313Y-166723758D01*
X592170865Y-166728904D01*
X592140311Y-166742832D01*
X592110472Y-166758514D01*
X592081349Y-166775948D01*
X592052941Y-166795136D01*
X592025249Y-166816076D01*
X591998273Y-166838770D01*
X591987683Y-166848339D01*
X591962119Y-166873397D01*
X591938095Y-166900030D01*
X591915608Y-166928238D01*
X591894661Y-166958019D01*
X591879010Y-166982978D01*
X591864344Y-167008944D01*
X591850662Y-167035917D01*
X591838298Y-167063669D01*
X591827581Y-167092337D01*
X591818514Y-167121921D01*
X591811095Y-167152421D01*
X591805325Y-167183837D01*
X591801203Y-167216168D01*
X591798730Y-167249416D01*
X591797906Y-167283579D01*
X591797906Y-168390000D01*
X591502616Y-168390000D01*
G37*
G36*
X594558827Y-168425170D02*
G01*
X594524654Y-168424623D01*
X594491654Y-168422981D01*
X594459825Y-168420244D01*
X594429169Y-168416412D01*
X594399684Y-168411485D01*
X594362195Y-168403214D01*
X594326789Y-168392996D01*
X594293467Y-168380831D01*
X594262229Y-168366720D01*
X594254745Y-168362889D01*
X594226100Y-168346059D01*
X594199149Y-168327076D01*
X594173893Y-168305942D01*
X594150331Y-168282655D01*
X594128464Y-168257215D01*
X594108291Y-168229624D01*
X594089812Y-168199879D01*
X594073028Y-168167983D01*
X594057961Y-168133934D01*
X594044269Y-168097732D01*
X594034900Y-168069169D01*
X594026305Y-168039395D01*
X594018483Y-168008410D01*
X594011433Y-167976214D01*
X594005156Y-167942808D01*
X593999652Y-167908190D01*
X593994921Y-167872363D01*
X593990963Y-167835324D01*
X593987760Y-167796886D01*
X593985021Y-167757134D01*
X593982745Y-167716068D01*
X593980933Y-167673689D01*
X593979585Y-167629995D01*
X593978944Y-167600137D01*
X593978509Y-167569694D01*
X593978280Y-167538668D01*
X593978257Y-167507057D01*
X593978440Y-167474863D01*
X593978830Y-167442085D01*
X593979425Y-167408723D01*
X593980226Y-167374777D01*
X593980704Y-167357585D01*
X594031263Y-165993244D01*
X594347801Y-165955875D01*
X594390300Y-165951479D01*
X594394696Y-165980788D01*
X594377225Y-166006434D01*
X594361998Y-166032079D01*
X594358060Y-166039406D01*
X594347996Y-166067261D01*
X594341026Y-166099447D01*
X594336378Y-166131069D01*
X594335345Y-166139790D01*
X594297243Y-166612400D01*
X594309699Y-166687871D01*
X594280390Y-167377369D01*
X594278996Y-167416555D01*
X594277929Y-167454614D01*
X594277187Y-167491546D01*
X594276772Y-167527349D01*
X594276684Y-167562025D01*
X594276921Y-167595573D01*
X594277485Y-167627993D01*
X594278375Y-167659286D01*
X594279592Y-167689451D01*
X594282028Y-167732584D01*
X594285199Y-167773179D01*
X594289104Y-167811238D01*
X594293743Y-167846759D01*
X594297243Y-167869030D01*
X594303151Y-167900637D01*
X594309883Y-167930338D01*
X594320141Y-167966975D01*
X594331864Y-168000222D01*
X594345054Y-168030081D01*
X594359708Y-168056551D01*
X594380087Y-168084872D01*
X594402756Y-168107899D01*
X594427804Y-168126475D01*
X594455321Y-168141902D01*
X594485306Y-168154181D01*
X594517760Y-168163312D01*
X594552683Y-168169294D01*
X594582398Y-168171812D01*
X594605722Y-168172379D01*
X594640023Y-168171520D01*
X594673316Y-168168944D01*
X594705602Y-168164651D01*
X594736880Y-168158640D01*
X594767151Y-168150912D01*
X594796414Y-168141467D01*
X594824670Y-168130304D01*
X594851919Y-168117424D01*
X594879018Y-168103228D01*
X594906461Y-168088115D01*
X594934247Y-168072087D01*
X594962377Y-168055143D01*
X594990851Y-168037282D01*
X595019668Y-168018506D01*
X595048828Y-167998814D01*
X595078332Y-167978206D01*
X595170655Y-168218541D01*
X595143781Y-168237842D01*
X595116740Y-168256176D01*
X595089531Y-168273545D01*
X595062154Y-168289948D01*
X595034611Y-168305384D01*
X595006899Y-168319855D01*
X594979020Y-168333360D01*
X594950974Y-168345898D01*
X594922761Y-168357471D01*
X594894380Y-168368078D01*
X594875366Y-168374612D01*
X594846811Y-168383648D01*
X594818024Y-168391794D01*
X594789006Y-168399052D01*
X594759755Y-168405421D01*
X594730273Y-168410902D01*
X594700559Y-168415493D01*
X594670613Y-168419196D01*
X594640435Y-168422011D01*
X594610025Y-168423936D01*
X594579384Y-168424973D01*
X594558827Y-168425170D01*
G37*
G36*
X593592358Y-166467320D02*
G01*
X594980879Y-166467320D01*
X594980879Y-166716448D01*
X593592358Y-166716448D01*
X593592358Y-166467320D01*
G37*
G36*
X596483190Y-166420929D02*
G01*
X596515167Y-166422440D01*
X596546662Y-166424959D01*
X596577677Y-166428485D01*
X596608212Y-166433019D01*
X596638265Y-166438560D01*
X596667837Y-166445109D01*
X596696929Y-166452665D01*
X596725540Y-166461229D01*
X596753670Y-166470800D01*
X596781319Y-166481379D01*
X596808487Y-166492965D01*
X596835174Y-166505559D01*
X596861381Y-166519160D01*
X596887106Y-166533769D01*
X596912351Y-166549385D01*
X596937107Y-166565797D01*
X596961181Y-166582976D01*
X596984574Y-166600923D01*
X597007285Y-166619636D01*
X597029316Y-166639116D01*
X597050665Y-166659363D01*
X597071333Y-166680378D01*
X597091320Y-166702159D01*
X597110626Y-166724708D01*
X597129250Y-166748024D01*
X597147194Y-166772106D01*
X597164456Y-166796956D01*
X597181036Y-166822573D01*
X597196936Y-166848957D01*
X597212155Y-166876108D01*
X597226692Y-166904026D01*
X597240533Y-166932508D01*
X597253482Y-166961534D01*
X597265538Y-166991103D01*
X597276700Y-167021217D01*
X597286970Y-167051874D01*
X597296347Y-167083075D01*
X597304830Y-167114820D01*
X597312421Y-167147109D01*
X597319119Y-167179941D01*
X597324923Y-167213318D01*
X597329835Y-167247238D01*
X597333853Y-167281702D01*
X597336979Y-167316710D01*
X597339211Y-167352261D01*
X597340551Y-167388357D01*
X597340997Y-167424996D01*
X597340551Y-167461106D01*
X597339211Y-167496712D01*
X597336979Y-167531814D01*
X597333853Y-167566413D01*
X597329835Y-167600507D01*
X597324923Y-167634098D01*
X597319119Y-167667186D01*
X597312421Y-167699769D01*
X597304830Y-167731849D01*
X597296347Y-167763425D01*
X597286970Y-167794497D01*
X597276700Y-167825066D01*
X597265538Y-167855131D01*
X597253482Y-167884692D01*
X597240533Y-167913749D01*
X597226692Y-167942302D01*
X597212155Y-167970135D01*
X597196936Y-167997211D01*
X597181036Y-168023532D01*
X597164456Y-168049098D01*
X597147194Y-168073907D01*
X597129250Y-168097961D01*
X597110626Y-168121260D01*
X597091320Y-168143803D01*
X597071333Y-168165590D01*
X597050665Y-168186622D01*
X597029316Y-168206898D01*
X597007285Y-168226418D01*
X596984574Y-168245183D01*
X596961181Y-168263192D01*
X596937107Y-168280445D01*
X596912351Y-168296943D01*
X596887106Y-168312471D01*
X596861381Y-168326996D01*
X596835174Y-168340520D01*
X596808487Y-168353043D01*
X596781319Y-168364563D01*
X596753670Y-168375082D01*
X596725540Y-168384598D01*
X596696929Y-168393114D01*
X596667837Y-168400627D01*
X596638265Y-168407138D01*
X596608212Y-168412648D01*
X596577677Y-168417156D01*
X596546662Y-168420662D01*
X596515167Y-168423167D01*
X596483190Y-168424670D01*
X596450732Y-168425170D01*
X596418272Y-168424670D01*
X596386286Y-168423167D01*
X596354776Y-168420662D01*
X596323741Y-168417156D01*
X596293181Y-168412648D01*
X596263096Y-168407138D01*
X596233487Y-168400627D01*
X596204352Y-168393114D01*
X596175693Y-168384598D01*
X596147509Y-168375082D01*
X596119799Y-168364563D01*
X596092565Y-168353043D01*
X596065806Y-168340520D01*
X596039523Y-168326996D01*
X596013714Y-168312471D01*
X595988381Y-168296943D01*
X595963711Y-168280445D01*
X595939711Y-168263192D01*
X595916381Y-168245183D01*
X595893721Y-168226418D01*
X595871731Y-168206898D01*
X595850410Y-168186622D01*
X595829759Y-168165590D01*
X595809778Y-168143803D01*
X595790467Y-168121260D01*
X595771825Y-168097961D01*
X595753853Y-168073907D01*
X595736551Y-168049098D01*
X595719919Y-168023532D01*
X595703956Y-167997211D01*
X595688663Y-167970135D01*
X595674040Y-167942302D01*
X595660287Y-167913749D01*
X595647421Y-167884692D01*
X595635443Y-167855131D01*
X595624352Y-167825066D01*
X595614148Y-167794497D01*
X595604831Y-167763425D01*
X595596402Y-167731849D01*
X595588860Y-167699769D01*
X595582206Y-167667186D01*
X595576438Y-167634098D01*
X595571558Y-167600507D01*
X595567565Y-167566413D01*
X595564460Y-167531814D01*
X595562242Y-167496712D01*
X595560911Y-167461106D01*
X595560467Y-167424996D01*
X595560520Y-167420600D01*
X595880669Y-167420600D01*
X595881320Y-167461365D01*
X595883271Y-167501228D01*
X595886523Y-167540190D01*
X595891076Y-167578251D01*
X595896930Y-167615410D01*
X595904085Y-167651667D01*
X595912541Y-167687022D01*
X595922298Y-167721476D01*
X595933355Y-167755029D01*
X595945713Y-167787679D01*
X595954675Y-167808946D01*
X595969028Y-167839920D01*
X595984333Y-167869645D01*
X596000592Y-167898120D01*
X596017804Y-167925347D01*
X596035969Y-167951323D01*
X596055087Y-167976051D01*
X596075159Y-167999529D01*
X596096183Y-168021758D01*
X596118161Y-168042737D01*
X596141091Y-168062467D01*
X596156908Y-168074926D01*
X596181404Y-168092211D01*
X596206530Y-168107796D01*
X596241014Y-168125931D01*
X596276620Y-168141044D01*
X596313348Y-168153134D01*
X596351198Y-168162201D01*
X596380322Y-168167018D01*
X596410077Y-168170135D01*
X596440463Y-168171552D01*
X596450732Y-168171646D01*
X596481964Y-168170796D01*
X596512462Y-168168246D01*
X596542225Y-168163996D01*
X596571255Y-168158045D01*
X596599550Y-168150394D01*
X596636135Y-168137549D01*
X596671414Y-168121681D01*
X596705389Y-168102790D01*
X596730013Y-168086638D01*
X596746022Y-168074926D01*
X596769326Y-168056029D01*
X596791703Y-168035883D01*
X596813152Y-168014487D01*
X596833674Y-167991842D01*
X596853269Y-167967947D01*
X596871937Y-167942803D01*
X596889677Y-167916410D01*
X596906489Y-167888767D01*
X596922375Y-167859875D01*
X596937333Y-167829734D01*
X596946789Y-167808946D01*
X596960015Y-167776896D01*
X596971940Y-167743945D01*
X596982564Y-167710092D01*
X596991887Y-167675337D01*
X596999909Y-167639681D01*
X597006630Y-167603123D01*
X597012050Y-167565664D01*
X597016170Y-167527303D01*
X597018988Y-167488041D01*
X597020506Y-167447877D01*
X597020795Y-167420600D01*
X597020145Y-167379965D01*
X597018193Y-167340220D01*
X597014941Y-167301363D01*
X597010388Y-167263395D01*
X597004534Y-167226316D01*
X596997379Y-167190125D01*
X596988923Y-167154823D01*
X596979167Y-167120410D01*
X596968109Y-167086885D01*
X596955751Y-167054250D01*
X596946789Y-167032986D01*
X596932450Y-167001907D01*
X596917183Y-166972141D01*
X596900988Y-166943689D01*
X596883866Y-166916551D01*
X596865817Y-166890727D01*
X596846841Y-166866216D01*
X596826937Y-166843019D01*
X596806106Y-166821136D01*
X596784347Y-166800567D01*
X596761661Y-166781311D01*
X596746022Y-166769204D01*
X596721887Y-166752181D01*
X596688565Y-166732088D01*
X596653938Y-166714972D01*
X596618005Y-166700833D01*
X596580768Y-166689670D01*
X596551983Y-166683251D01*
X596522464Y-166678507D01*
X596492212Y-166675438D01*
X596461224Y-166674042D01*
X596450732Y-166673949D01*
X596420136Y-166674786D01*
X596390170Y-166677298D01*
X596360836Y-166681484D01*
X596322706Y-166689670D01*
X596285697Y-166700833D01*
X596249811Y-166714972D01*
X596215046Y-166732088D01*
X596189709Y-166746879D01*
X596165003Y-166763344D01*
X596156908Y-166769204D01*
X596133342Y-166787584D01*
X596110729Y-166807277D01*
X596089069Y-166828284D01*
X596068362Y-166850606D01*
X596048609Y-166874240D01*
X596029808Y-166899189D01*
X596011961Y-166925451D01*
X595995067Y-166953027D01*
X595979126Y-166981917D01*
X595964138Y-167012121D01*
X595954675Y-167032986D01*
X595941449Y-167065030D01*
X595929525Y-167097962D01*
X595918901Y-167131782D01*
X595909578Y-167166492D01*
X595901556Y-167202090D01*
X595894835Y-167238577D01*
X595889414Y-167275952D01*
X595885295Y-167314217D01*
X595882476Y-167353370D01*
X595880959Y-167393411D01*
X595880669Y-167420600D01*
X595560520Y-167420600D01*
X595560911Y-167388357D01*
X595562242Y-167352261D01*
X595564460Y-167316710D01*
X595567565Y-167281702D01*
X595571558Y-167247238D01*
X595576438Y-167213318D01*
X595582206Y-167179941D01*
X595588860Y-167147109D01*
X595596402Y-167114820D01*
X595604831Y-167083075D01*
X595614148Y-167051874D01*
X595624352Y-167021217D01*
X595635443Y-166991103D01*
X595647421Y-166961534D01*
X595660287Y-166932508D01*
X595674040Y-166904026D01*
X595688663Y-166876108D01*
X595703956Y-166848957D01*
X595719919Y-166822573D01*
X595736551Y-166796956D01*
X595753853Y-166772106D01*
X595771825Y-166748024D01*
X595790467Y-166724708D01*
X595809778Y-166702159D01*
X595829759Y-166680378D01*
X595850410Y-166659363D01*
X595871731Y-166639116D01*
X595893721Y-166619636D01*
X595916381Y-166600923D01*
X595939711Y-166582976D01*
X595963711Y-166565797D01*
X595988381Y-166549385D01*
X596013714Y-166533769D01*
X596039523Y-166519160D01*
X596065806Y-166505559D01*
X596092565Y-166492965D01*
X596119799Y-166481379D01*
X596147509Y-166470800D01*
X596175693Y-166461229D01*
X596204352Y-166452665D01*
X596233487Y-166445109D01*
X596263096Y-166438560D01*
X596293181Y-166433019D01*
X596323741Y-166428485D01*
X596354776Y-166424959D01*
X596386286Y-166422440D01*
X596418272Y-166420929D01*
X596450732Y-166420425D01*
X596483190Y-166420929D01*
G37*
G36*
X597798220Y-168390000D02*
G01*
X597798220Y-166467320D01*
X598093510Y-166467320D01*
X598093510Y-166808771D01*
X598112950Y-166779771D01*
X598133169Y-166751756D01*
X598154166Y-166724725D01*
X598175942Y-166698679D01*
X598198496Y-166673617D01*
X598221829Y-166649540D01*
X598245940Y-166626448D01*
X598270830Y-166604340D01*
X598296441Y-166583320D01*
X598322716Y-166563490D01*
X598349655Y-166544852D01*
X598377259Y-166527404D01*
X598405526Y-166511146D01*
X598434457Y-166496079D01*
X598464053Y-166482203D01*
X598494312Y-166469518D01*
X598525041Y-166458012D01*
X598556045Y-166448040D01*
X598587323Y-166439602D01*
X598618876Y-166432698D01*
X598650704Y-166427329D01*
X598682807Y-166423493D01*
X598715184Y-166421192D01*
X598747836Y-166420425D01*
X598777621Y-166421127D01*
X598816393Y-166424247D01*
X598854088Y-166429863D01*
X598890708Y-166437974D01*
X598926251Y-166448582D01*
X598960717Y-166461685D01*
X598994108Y-166477284D01*
X599026423Y-166495379D01*
X599034333Y-166500293D01*
X599065234Y-166521782D01*
X599094554Y-166546317D01*
X599122295Y-166573897D01*
X599142063Y-166596581D01*
X599160943Y-166620978D01*
X599178935Y-166647088D01*
X599196037Y-166674911D01*
X599212251Y-166704447D01*
X599227576Y-166735696D01*
X599237299Y-166757480D01*
X599250917Y-166791589D01*
X599263196Y-166827693D01*
X599274136Y-166865795D01*
X599283736Y-166905892D01*
X599291996Y-166947986D01*
X599296759Y-166977158D01*
X599300926Y-167007217D01*
X599304498Y-167038163D01*
X599307475Y-167069997D01*
X599309856Y-167102718D01*
X599311642Y-167136326D01*
X599312833Y-167170821D01*
X599313428Y-167206204D01*
X599313503Y-167224228D01*
X599313503Y-168390000D01*
X599017480Y-168390000D01*
X599017480Y-167233021D01*
X599017075Y-167195961D01*
X599015857Y-167160344D01*
X599013829Y-167126169D01*
X599010989Y-167093436D01*
X599007337Y-167062147D01*
X599002874Y-167032299D01*
X598995662Y-166994747D01*
X598987006Y-166959759D01*
X598976908Y-166927336D01*
X598971318Y-166912086D01*
X598959240Y-166883097D01*
X598946085Y-166856215D01*
X598928128Y-166825575D01*
X598908490Y-166798227D01*
X598887170Y-166774170D01*
X598864168Y-166753405D01*
X598844556Y-166739162D01*
X598819079Y-166723964D01*
X598792564Y-166711341D01*
X598765012Y-166701295D01*
X598736422Y-166693825D01*
X598706794Y-166688930D01*
X598676129Y-166686612D01*
X598663572Y-166686406D01*
X598633065Y-166687443D01*
X598602450Y-166690556D01*
X598571727Y-166695744D01*
X598540898Y-166703007D01*
X598509961Y-166712345D01*
X598478916Y-166723758D01*
X598466468Y-166728904D01*
X598435914Y-166742832D01*
X598406076Y-166758514D01*
X598376952Y-166775948D01*
X598348545Y-166795136D01*
X598320853Y-166816076D01*
X598293877Y-166838770D01*
X598283286Y-166848339D01*
X598257723Y-166873397D01*
X598233698Y-166900030D01*
X598211212Y-166928238D01*
X598190264Y-166958019D01*
X598174614Y-166982978D01*
X598159947Y-167008944D01*
X598146266Y-167035917D01*
X598133901Y-167063669D01*
X598123185Y-167092337D01*
X598114118Y-167121921D01*
X598106699Y-167152421D01*
X598100928Y-167183837D01*
X598096807Y-167216168D01*
X598094334Y-167249416D01*
X598093510Y-167283579D01*
X598093510Y-168390000D01*
X597798220Y-168390000D01*
G37*
G36*
X600014724Y-168390000D02*
G01*
X600014724Y-168145268D01*
X600508583Y-168145268D01*
X600508583Y-166712051D01*
X600040369Y-166712051D01*
X600040369Y-166467320D01*
X600812665Y-166467320D01*
X600812665Y-168145268D01*
X601264026Y-168145268D01*
X601264026Y-168390000D01*
X600014724Y-168390000D01*
G37*
G36*
X600643405Y-166068715D02*
G01*
X600611033Y-166066500D01*
X600580413Y-166059854D01*
X600551545Y-166048777D01*
X600524428Y-166033270D01*
X600499063Y-166013332D01*
X600490997Y-166005701D01*
X600469582Y-165980920D01*
X600452598Y-165954387D01*
X600440044Y-165926102D01*
X600431921Y-165896066D01*
X600428229Y-165864278D01*
X600427983Y-165853293D01*
X600430121Y-165819453D01*
X600436535Y-165787726D01*
X600447225Y-165758110D01*
X600462192Y-165730607D01*
X600481435Y-165705216D01*
X600488799Y-165697222D01*
X600512988Y-165675558D01*
X600539392Y-165658376D01*
X600568011Y-165645676D01*
X600598846Y-165637459D01*
X600631896Y-165633724D01*
X600643405Y-165633475D01*
X600675828Y-165635793D01*
X600706603Y-165642748D01*
X600735729Y-165654340D01*
X600763206Y-165670569D01*
X600789035Y-165691435D01*
X600797278Y-165699420D01*
X600819689Y-165724699D01*
X600837464Y-165751627D01*
X600850601Y-165780204D01*
X600859102Y-165810429D01*
X600862966Y-165842302D01*
X600863224Y-165853293D01*
X600860905Y-165885665D01*
X600853950Y-165916285D01*
X600842358Y-165945153D01*
X600826129Y-165972270D01*
X600805264Y-165997635D01*
X600797278Y-166005701D01*
X600771999Y-166027116D01*
X600745071Y-166044100D01*
X600716495Y-166056654D01*
X600686270Y-166064777D01*
X600654396Y-166068469D01*
X600643405Y-166068715D01*
G37*
G36*
X602778793Y-166420929D02*
G01*
X602810770Y-166422440D01*
X602842266Y-166424959D01*
X602873281Y-166428485D01*
X602903815Y-166433019D01*
X602933869Y-166438560D01*
X602963441Y-166445109D01*
X602992533Y-166452665D01*
X603021143Y-166461229D01*
X603049273Y-166470800D01*
X603076922Y-166481379D01*
X603104091Y-166492965D01*
X603130778Y-166505559D01*
X603156984Y-166519160D01*
X603182710Y-166533769D01*
X603207955Y-166549385D01*
X603232710Y-166565797D01*
X603256784Y-166582976D01*
X603280177Y-166600923D01*
X603302889Y-166619636D01*
X603324919Y-166639116D01*
X603346269Y-166659363D01*
X603366937Y-166680378D01*
X603386924Y-166702159D01*
X603406229Y-166724708D01*
X603424854Y-166748024D01*
X603442797Y-166772106D01*
X603460059Y-166796956D01*
X603476640Y-166822573D01*
X603492540Y-166848957D01*
X603507758Y-166876108D01*
X603522295Y-166904026D01*
X603536137Y-166932508D01*
X603549086Y-166961534D01*
X603561141Y-166991103D01*
X603572304Y-167021217D01*
X603582574Y-167051874D01*
X603591950Y-167083075D01*
X603600434Y-167114820D01*
X603608025Y-167147109D01*
X603614722Y-167179941D01*
X603620527Y-167213318D01*
X603625438Y-167247238D01*
X603629457Y-167281702D01*
X603632582Y-167316710D01*
X603634815Y-167352261D01*
X603636155Y-167388357D01*
X603636601Y-167424996D01*
X603636155Y-167461106D01*
X603634815Y-167496712D01*
X603632582Y-167531814D01*
X603629457Y-167566413D01*
X603625438Y-167600507D01*
X603620527Y-167634098D01*
X603614722Y-167667186D01*
X603608025Y-167699769D01*
X603600434Y-167731849D01*
X603591950Y-167763425D01*
X603582574Y-167794497D01*
X603572304Y-167825066D01*
X603561141Y-167855131D01*
X603549086Y-167884692D01*
X603536137Y-167913749D01*
X603522295Y-167942302D01*
X603507758Y-167970135D01*
X603492540Y-167997211D01*
X603476640Y-168023532D01*
X603460059Y-168049098D01*
X603442797Y-168073907D01*
X603424854Y-168097961D01*
X603406229Y-168121260D01*
X603386924Y-168143803D01*
X603366937Y-168165590D01*
X603346269Y-168186622D01*
X603324919Y-168206898D01*
X603302889Y-168226418D01*
X603280177Y-168245183D01*
X603256784Y-168263192D01*
X603232710Y-168280445D01*
X603207955Y-168296943D01*
X603182710Y-168312471D01*
X603156984Y-168326996D01*
X603130778Y-168340520D01*
X603104091Y-168353043D01*
X603076922Y-168364563D01*
X603049273Y-168375082D01*
X603021143Y-168384598D01*
X602992533Y-168393114D01*
X602963441Y-168400627D01*
X602933869Y-168407138D01*
X602903815Y-168412648D01*
X602873281Y-168417156D01*
X602842266Y-168420662D01*
X602810770Y-168423167D01*
X602778793Y-168424670D01*
X602746336Y-168425170D01*
X602713875Y-168424670D01*
X602681890Y-168423167D01*
X602650380Y-168420662D01*
X602619345Y-168417156D01*
X602588785Y-168412648D01*
X602558700Y-168407138D01*
X602529090Y-168400627D01*
X602499956Y-168393114D01*
X602471296Y-168384598D01*
X602443112Y-168375082D01*
X602415403Y-168364563D01*
X602388169Y-168353043D01*
X602361410Y-168340520D01*
X602335126Y-168326996D01*
X602309318Y-168312471D01*
X602283984Y-168296943D01*
X602259315Y-168280445D01*
X602235315Y-168263192D01*
X602211985Y-168245183D01*
X602189325Y-168226418D01*
X602167334Y-168206898D01*
X602146014Y-168186622D01*
X602125363Y-168165590D01*
X602105382Y-168143803D01*
X602086070Y-168121260D01*
X602067429Y-168097961D01*
X602049457Y-168073907D01*
X602032155Y-168049098D01*
X602015522Y-168023532D01*
X601999560Y-167997211D01*
X601984267Y-167970135D01*
X601969644Y-167942302D01*
X601955891Y-167913749D01*
X601943025Y-167884692D01*
X601931047Y-167855131D01*
X601919955Y-167825066D01*
X601909752Y-167794497D01*
X601900435Y-167763425D01*
X601892006Y-167731849D01*
X601884464Y-167699769D01*
X601877809Y-167667186D01*
X601872042Y-167634098D01*
X601867162Y-167600507D01*
X601863169Y-167566413D01*
X601860063Y-167531814D01*
X601857845Y-167496712D01*
X601856514Y-167461106D01*
X601856071Y-167424996D01*
X601856124Y-167420600D01*
X602176273Y-167420600D01*
X602176923Y-167461365D01*
X602178875Y-167501228D01*
X602182127Y-167540190D01*
X602186680Y-167578251D01*
X602192534Y-167615410D01*
X602199689Y-167651667D01*
X602208145Y-167687022D01*
X602217901Y-167721476D01*
X602228959Y-167755029D01*
X602241317Y-167787679D01*
X602250279Y-167808946D01*
X602264631Y-167839920D01*
X602279937Y-167869645D01*
X602296196Y-167898120D01*
X602313408Y-167925347D01*
X602331573Y-167951323D01*
X602350691Y-167976051D01*
X602370762Y-167999529D01*
X602391787Y-168021758D01*
X602413764Y-168042737D01*
X602436695Y-168062467D01*
X602452512Y-168074926D01*
X602477007Y-168092211D01*
X602502134Y-168107796D01*
X602536618Y-168125931D01*
X602572224Y-168141044D01*
X602608952Y-168153134D01*
X602646802Y-168162201D01*
X602675926Y-168167018D01*
X602705681Y-168170135D01*
X602736067Y-168171552D01*
X602746336Y-168171646D01*
X602777568Y-168170796D01*
X602808065Y-168168246D01*
X602837829Y-168163996D01*
X602866858Y-168158045D01*
X602895153Y-168150394D01*
X602931738Y-168137549D01*
X602967018Y-168121681D01*
X603000993Y-168102790D01*
X603025617Y-168086638D01*
X603041625Y-168074926D01*
X603064930Y-168056029D01*
X603087307Y-168035883D01*
X603108756Y-168014487D01*
X603129278Y-167991842D01*
X603148873Y-167967947D01*
X603167540Y-167942803D01*
X603185280Y-167916410D01*
X603202093Y-167888767D01*
X603217978Y-167859875D01*
X603232936Y-167829734D01*
X603242393Y-167808946D01*
X603255619Y-167776896D01*
X603267543Y-167743945D01*
X603278167Y-167710092D01*
X603287490Y-167675337D01*
X603295512Y-167639681D01*
X603302234Y-167603123D01*
X603307654Y-167565664D01*
X603311773Y-167527303D01*
X603314592Y-167488041D01*
X603316110Y-167447877D01*
X603316399Y-167420600D01*
X603315748Y-167379965D01*
X603313797Y-167340220D01*
X603310545Y-167301363D01*
X603305992Y-167263395D01*
X603300138Y-167226316D01*
X603292983Y-167190125D01*
X603284527Y-167154823D01*
X603274771Y-167120410D01*
X603263713Y-167086885D01*
X603251355Y-167054250D01*
X603242393Y-167032986D01*
X603228053Y-167001907D01*
X603212786Y-166972141D01*
X603196592Y-166943689D01*
X603179470Y-166916551D01*
X603161421Y-166890727D01*
X603142444Y-166866216D01*
X603122540Y-166843019D01*
X603101709Y-166821136D01*
X603079951Y-166800567D01*
X603057265Y-166781311D01*
X603041625Y-166769204D01*
X603017490Y-166752181D01*
X602984169Y-166732088D01*
X602949541Y-166714972D01*
X602913609Y-166700833D01*
X602876372Y-166689670D01*
X602847587Y-166683251D01*
X602818068Y-166678507D01*
X602787815Y-166675438D01*
X602756828Y-166674042D01*
X602746336Y-166673949D01*
X602715739Y-166674786D01*
X602685774Y-166677298D01*
X602656440Y-166681484D01*
X602618309Y-166689670D01*
X602581301Y-166700833D01*
X602545414Y-166714972D01*
X602510650Y-166732088D01*
X602485313Y-166746879D01*
X602460607Y-166763344D01*
X602452512Y-166769204D01*
X602428946Y-166787584D01*
X602406333Y-166807277D01*
X602384673Y-166828284D01*
X602363966Y-166850606D01*
X602344212Y-166874240D01*
X602325412Y-166899189D01*
X602307565Y-166925451D01*
X602290670Y-166953027D01*
X602274729Y-166981917D01*
X602259741Y-167012121D01*
X602250279Y-167032986D01*
X602237053Y-167065030D01*
X602225128Y-167097962D01*
X602214504Y-167131782D01*
X602205181Y-167166492D01*
X602197159Y-167202090D01*
X602190438Y-167238577D01*
X602185018Y-167275952D01*
X602180898Y-167314217D01*
X602178080Y-167353370D01*
X602176562Y-167393411D01*
X602176273Y-167420600D01*
X601856124Y-167420600D01*
X601856514Y-167388357D01*
X601857845Y-167352261D01*
X601860063Y-167316710D01*
X601863169Y-167281702D01*
X601867162Y-167247238D01*
X601872042Y-167213318D01*
X601877809Y-167179941D01*
X601884464Y-167147109D01*
X601892006Y-167114820D01*
X601900435Y-167083075D01*
X601909752Y-167051874D01*
X601919955Y-167021217D01*
X601931047Y-166991103D01*
X601943025Y-166961534D01*
X601955891Y-166932508D01*
X601969644Y-166904026D01*
X601984267Y-166876108D01*
X601999560Y-166848957D01*
X602015522Y-166822573D01*
X602032155Y-166796956D01*
X602049457Y-166772106D01*
X602067429Y-166748024D01*
X602086070Y-166724708D01*
X602105382Y-166702159D01*
X602125363Y-166680378D01*
X602146014Y-166659363D01*
X602167334Y-166639116D01*
X602189325Y-166619636D01*
X602211985Y-166600923D01*
X602235315Y-166582976D01*
X602259315Y-166565797D01*
X602283984Y-166549385D01*
X602309318Y-166533769D01*
X602335126Y-166519160D01*
X602361410Y-166505559D01*
X602388169Y-166492965D01*
X602415403Y-166481379D01*
X602443112Y-166470800D01*
X602471296Y-166461229D01*
X602499956Y-166452665D01*
X602529090Y-166445109D01*
X602558700Y-166438560D01*
X602588785Y-166433019D01*
X602619345Y-166428485D01*
X602650380Y-166424959D01*
X602681890Y-166422440D01*
X602713875Y-166420929D01*
X602746336Y-166420425D01*
X602778793Y-166420929D01*
G37*
G36*
X607091416Y-168436894D02*
G01*
X607051282Y-168436211D01*
X607011663Y-168434164D01*
X606972560Y-168430750D01*
X606933971Y-168425972D01*
X606895898Y-168419828D01*
X606858340Y-168412319D01*
X606821297Y-168403445D01*
X606784769Y-168393205D01*
X606748757Y-168381600D01*
X606713259Y-168368630D01*
X606689881Y-168359225D01*
X606655508Y-168343908D01*
X606621909Y-168327085D01*
X606589082Y-168308755D01*
X606557028Y-168288917D01*
X606525747Y-168267573D01*
X606495238Y-168244722D01*
X606465503Y-168220364D01*
X606436540Y-168194498D01*
X606408350Y-168167126D01*
X606380933Y-168138247D01*
X606363084Y-168118157D01*
X606337103Y-168086747D01*
X606312191Y-168053792D01*
X606288348Y-168019290D01*
X606265574Y-167983244D01*
X606243869Y-167945651D01*
X606229993Y-167919731D01*
X606216592Y-167893124D01*
X606203666Y-167865830D01*
X606191215Y-167837848D01*
X606179240Y-167809180D01*
X606167740Y-167779826D01*
X606156714Y-167749784D01*
X606146164Y-167719055D01*
X606141067Y-167703433D01*
X606131396Y-167671642D01*
X606122348Y-167639102D01*
X606113925Y-167605811D01*
X606106125Y-167571771D01*
X606098950Y-167536980D01*
X606092398Y-167501440D01*
X606086470Y-167465150D01*
X606081167Y-167428110D01*
X606076487Y-167390320D01*
X606072431Y-167351780D01*
X606068999Y-167312491D01*
X606066191Y-167272451D01*
X606064008Y-167231662D01*
X606062448Y-167190122D01*
X606061512Y-167147833D01*
X606061200Y-167104794D01*
X606061429Y-167066815D01*
X606062116Y-167029449D01*
X606063261Y-166992695D01*
X606064863Y-166956553D01*
X606066924Y-166921025D01*
X606069443Y-166886109D01*
X606072420Y-166851805D01*
X606075854Y-166818114D01*
X606079747Y-166785035D01*
X606084098Y-166752569D01*
X606088906Y-166720715D01*
X606094173Y-166689474D01*
X606099897Y-166658845D01*
X606106079Y-166628829D01*
X606112720Y-166599426D01*
X606119818Y-166570635D01*
X606131313Y-166528420D01*
X606143543Y-166487507D01*
X606156507Y-166447895D01*
X606170205Y-166409583D01*
X606184637Y-166372572D01*
X606199803Y-166336863D01*
X606215703Y-166302454D01*
X606232338Y-166269346D01*
X606249706Y-166237539D01*
X606267809Y-166207032D01*
X606280286Y-166187418D01*
X606299634Y-166158845D01*
X606319484Y-166131381D01*
X606339836Y-166105024D01*
X606360691Y-166079775D01*
X606382048Y-166055634D01*
X606403908Y-166032600D01*
X606426270Y-166010674D01*
X606449134Y-165989856D01*
X606472500Y-165970145D01*
X606496369Y-165951542D01*
X606512561Y-165939755D01*
X606537262Y-165922889D01*
X606562183Y-165906911D01*
X606587322Y-165891822D01*
X606621183Y-165873086D01*
X606655432Y-165855930D01*
X606690070Y-165840354D01*
X606725098Y-165826358D01*
X606760515Y-165813941D01*
X606787334Y-165805666D01*
X606823237Y-165795877D01*
X606859141Y-165787394D01*
X606895045Y-165780215D01*
X606930949Y-165774342D01*
X606966852Y-165769774D01*
X607002756Y-165766511D01*
X607038660Y-165764553D01*
X607074563Y-165763900D01*
X607110046Y-165764453D01*
X607144871Y-165766110D01*
X607179037Y-165768872D01*
X607212545Y-165772739D01*
X607245395Y-165777711D01*
X607277586Y-165783787D01*
X607309119Y-165790968D01*
X607339994Y-165799255D01*
X607370211Y-165808646D01*
X607399769Y-165819141D01*
X607428669Y-165830742D01*
X607456910Y-165843447D01*
X607484493Y-165857257D01*
X607511418Y-165872172D01*
X607537685Y-165888192D01*
X607563293Y-165905317D01*
X607588266Y-165923363D01*
X607612443Y-165942148D01*
X607635825Y-165961671D01*
X607658411Y-165981933D01*
X607680201Y-166002933D01*
X607701195Y-166024672D01*
X607721394Y-166047149D01*
X607740797Y-166070364D01*
X607759404Y-166094318D01*
X607777216Y-166119010D01*
X607794232Y-166144441D01*
X607810452Y-166170611D01*
X607825876Y-166197518D01*
X607840505Y-166225164D01*
X607854338Y-166253549D01*
X607867376Y-166282672D01*
X607614584Y-166401374D01*
X607576482Y-166418227D01*
X607564026Y-166388185D01*
X607570069Y-166358035D01*
X607564093Y-166329070D01*
X607563293Y-166327369D01*
X607549666Y-166299546D01*
X607534410Y-166271067D01*
X607519217Y-166243853D01*
X607517131Y-166240174D01*
X607497290Y-166214214D01*
X607477332Y-166189916D01*
X607457259Y-166167280D01*
X607430314Y-166139682D01*
X607403163Y-166115038D01*
X607375806Y-166093348D01*
X607348242Y-166074612D01*
X607320473Y-166058830D01*
X607299511Y-166048932D01*
X607271496Y-166037426D01*
X607243137Y-166027454D01*
X607214434Y-166019016D01*
X607185389Y-166012112D01*
X607155999Y-166006743D01*
X607126267Y-166002907D01*
X607096190Y-166000606D01*
X607065771Y-165999839D01*
X607035142Y-166000483D01*
X607005080Y-166002415D01*
X606975585Y-166005635D01*
X606937140Y-166011932D01*
X606899702Y-166020519D01*
X606863271Y-166031395D01*
X606827849Y-166044561D01*
X606793433Y-166060017D01*
X606768283Y-166073112D01*
X606735711Y-166092472D01*
X606704306Y-166113916D01*
X606674070Y-166137443D01*
X606645001Y-166163054D01*
X606623966Y-166183630D01*
X606603588Y-166205378D01*
X606583866Y-166228298D01*
X606564802Y-166252390D01*
X606546394Y-166277654D01*
X606540404Y-166286336D01*
X606522956Y-166313111D01*
X606506332Y-166340956D01*
X606490533Y-166369869D01*
X606475558Y-166399852D01*
X606461407Y-166430903D01*
X606448080Y-166463024D01*
X606435578Y-166496213D01*
X606423900Y-166530472D01*
X606413047Y-166565800D01*
X606403018Y-166602196D01*
X606396789Y-166627055D01*
X606388147Y-166665182D01*
X606380355Y-166704274D01*
X606373412Y-166744333D01*
X606367320Y-166785358D01*
X606362078Y-166827349D01*
X606357686Y-166870306D01*
X606354144Y-166914229D01*
X606352255Y-166944048D01*
X606350743Y-166974296D01*
X606349610Y-167004973D01*
X606348854Y-167036080D01*
X606348477Y-167067616D01*
X606348429Y-167083545D01*
X606348650Y-167114142D01*
X606349311Y-167144384D01*
X606350413Y-167174271D01*
X606351956Y-167203804D01*
X606355096Y-167247437D01*
X606359229Y-167290271D01*
X606364353Y-167332307D01*
X606370468Y-167373545D01*
X606377576Y-167413984D01*
X606385675Y-167453624D01*
X606394767Y-167492466D01*
X606404849Y-167530509D01*
X606415933Y-167567676D01*
X606427750Y-167603891D01*
X606440302Y-167639152D01*
X606453587Y-167673460D01*
X606467607Y-167706815D01*
X606482361Y-167739216D01*
X606497849Y-167770665D01*
X606514072Y-167801161D01*
X606531028Y-167830703D01*
X606548719Y-167859292D01*
X606560921Y-167877822D01*
X606579895Y-167904714D01*
X606599449Y-167930433D01*
X606619583Y-167954980D01*
X606640296Y-167978355D01*
X606661589Y-168000558D01*
X606683461Y-168021589D01*
X606705913Y-168041448D01*
X606728944Y-168060134D01*
X606752556Y-168077649D01*
X606784939Y-168099179D01*
X606793196Y-168104235D01*
X606826821Y-168122783D01*
X606861019Y-168138857D01*
X606895789Y-168152458D01*
X606931132Y-168163586D01*
X606967047Y-168172242D01*
X607003534Y-168178424D01*
X607040595Y-168182134D01*
X607078227Y-168183370D01*
X607111039Y-168182440D01*
X607143529Y-168179649D01*
X607175696Y-168174998D01*
X607207542Y-168168487D01*
X607239066Y-168160115D01*
X607270268Y-168149882D01*
X607282658Y-168145268D01*
X607313424Y-168132503D01*
X607343438Y-168118020D01*
X607372700Y-168101820D01*
X607401211Y-168083902D01*
X607428971Y-168064267D01*
X607455980Y-168042915D01*
X607466573Y-168033893D01*
X607492297Y-168010194D01*
X607516805Y-167985350D01*
X607540096Y-167959361D01*
X607562171Y-167932227D01*
X607583030Y-167903949D01*
X607602672Y-167874525D01*
X607610188Y-167862435D01*
X607830006Y-168006050D01*
X607813964Y-168032033D01*
X607797526Y-168057226D01*
X607780693Y-168081630D01*
X607754704Y-168116753D01*
X607727825Y-168150100D01*
X607700058Y-168181668D01*
X607671402Y-168211460D01*
X607641858Y-168239474D01*
X607611424Y-168265710D01*
X607580102Y-168290170D01*
X607547892Y-168312851D01*
X607525924Y-168326985D01*
X607491975Y-168346627D01*
X607456621Y-168364337D01*
X607419864Y-168380115D01*
X607381703Y-168393961D01*
X607342137Y-168405875D01*
X607301168Y-168415857D01*
X607258795Y-168423907D01*
X607229767Y-168428200D01*
X607200114Y-168431635D01*
X607169837Y-168434211D01*
X607138937Y-168435928D01*
X607107412Y-168436787D01*
X607091416Y-168436894D01*
G37*
G36*
X608877076Y-168425170D02*
G01*
X608836544Y-168424587D01*
X608797197Y-168422835D01*
X608759035Y-168419915D01*
X608722058Y-168415828D01*
X608686266Y-168410573D01*
X608651658Y-168404150D01*
X608618236Y-168396560D01*
X608585999Y-168387801D01*
X608554947Y-168377875D01*
X608525080Y-168366781D01*
X608496397Y-168354519D01*
X608468900Y-168341090D01*
X608442588Y-168326493D01*
X608417460Y-168310727D01*
X608393518Y-168293795D01*
X608370760Y-168275694D01*
X608339071Y-168246939D01*
X608310499Y-168216729D01*
X608285044Y-168185064D01*
X608262706Y-168151943D01*
X608243484Y-168117367D01*
X608227380Y-168081335D01*
X608214393Y-168043848D01*
X608204522Y-168004905D01*
X608197769Y-167964507D01*
X608194132Y-167922653D01*
X608193440Y-167893942D01*
X608194631Y-167855589D01*
X608198203Y-167818196D01*
X608204156Y-167781766D01*
X608212491Y-167746297D01*
X608223207Y-167711791D01*
X608236304Y-167678245D01*
X608251783Y-167645662D01*
X608269644Y-167614040D01*
X608289576Y-167583506D01*
X608311272Y-167554185D01*
X608334731Y-167526078D01*
X608359952Y-167499185D01*
X608386937Y-167473505D01*
X608415686Y-167449039D01*
X608446197Y-167425786D01*
X608478471Y-167403747D01*
X608503731Y-167387889D01*
X608529777Y-167372740D01*
X608556608Y-167358300D01*
X608584225Y-167344568D01*
X608612627Y-167331544D01*
X608641815Y-167319228D01*
X608671789Y-167307621D01*
X608702549Y-167296723D01*
X608734094Y-167286532D01*
X608766425Y-167277051D01*
X608788415Y-167271123D01*
X608821850Y-167262742D01*
X608855658Y-167255186D01*
X608889839Y-167248454D01*
X608924394Y-167242547D01*
X608959322Y-167237463D01*
X608994624Y-167233204D01*
X609030300Y-167229770D01*
X609066349Y-167227159D01*
X609102771Y-167225373D01*
X609139567Y-167224412D01*
X609164305Y-167224228D01*
X609195826Y-167224334D01*
X609227557Y-167224649D01*
X609259499Y-167225175D01*
X609291651Y-167225911D01*
X609310118Y-167226427D01*
X609342881Y-167227599D01*
X609376416Y-167229191D01*
X609405774Y-167230892D01*
X609435698Y-167232901D01*
X609466189Y-167235219D01*
X609497196Y-167237649D01*
X609528666Y-167240543D01*
X609560600Y-167243900D01*
X609592997Y-167247721D01*
X609625858Y-167252006D01*
X609636915Y-167253538D01*
X609645708Y-167485812D01*
X609612263Y-167480643D01*
X609578609Y-167476035D01*
X609544744Y-167471988D01*
X609515549Y-167468965D01*
X609491102Y-167466762D01*
X609457192Y-167464017D01*
X609423422Y-167461552D01*
X609389792Y-167459368D01*
X609356303Y-167457465D01*
X609337229Y-167456503D01*
X609304386Y-167454790D01*
X609271893Y-167453498D01*
X609239751Y-167452626D01*
X609207960Y-167452176D01*
X609189951Y-167452107D01*
X609152249Y-167452508D01*
X609115350Y-167453710D01*
X609079251Y-167455713D01*
X609043954Y-167458518D01*
X609009459Y-167462125D01*
X608975765Y-167466533D01*
X608942872Y-167471742D01*
X608910781Y-167477752D01*
X608879789Y-167484381D01*
X608849827Y-167491812D01*
X608820896Y-167500043D01*
X608792995Y-167509077D01*
X608759568Y-167521495D01*
X608727751Y-167535166D01*
X608697543Y-167550089D01*
X608691695Y-167553224D01*
X608663653Y-167569739D01*
X608637685Y-167587685D01*
X608613793Y-167607062D01*
X608591975Y-167627870D01*
X608572233Y-167650110D01*
X608554566Y-167673780D01*
X608548080Y-167683649D01*
X608533515Y-167709449D01*
X608521419Y-167736929D01*
X608511791Y-167766092D01*
X608504632Y-167796936D01*
X608499941Y-167829461D01*
X608497720Y-167863669D01*
X608497522Y-167877822D01*
X608498630Y-167909868D01*
X608501953Y-167940058D01*
X608508630Y-167972937D01*
X608518322Y-168003291D01*
X608529030Y-168027299D01*
X608543936Y-168052714D01*
X608563720Y-168078840D01*
X608586434Y-168101853D01*
X608612080Y-168121751D01*
X608615491Y-168124019D01*
X608644159Y-168140780D01*
X608671197Y-168153493D01*
X608700059Y-168164382D01*
X608730743Y-168173448D01*
X608744452Y-168176775D01*
X608777530Y-168183342D01*
X608807000Y-168187687D01*
X608837500Y-168190847D01*
X608869030Y-168192822D01*
X608901590Y-168193612D01*
X608907117Y-168193628D01*
X608937583Y-168193171D01*
X608967430Y-168191799D01*
X608996659Y-168189513D01*
X609034669Y-168185042D01*
X609071581Y-168178946D01*
X609107393Y-168171224D01*
X609142106Y-168161875D01*
X609175720Y-168150902D01*
X609200209Y-168141605D01*
X609231842Y-168127671D01*
X609262262Y-168112250D01*
X609291468Y-168095340D01*
X609319460Y-168076941D01*
X609346239Y-168057055D01*
X609371805Y-168035679D01*
X609396156Y-168012816D01*
X609419295Y-167988464D01*
X609441311Y-167962647D01*
X609461930Y-167935387D01*
X609481153Y-167906685D01*
X609498979Y-167876540D01*
X609515408Y-167844953D01*
X609530440Y-167811922D01*
X609544076Y-167777450D01*
X609556315Y-167741535D01*
X609567306Y-167704246D01*
X609574587Y-167675422D01*
X609581045Y-167645865D01*
X609586677Y-167615573D01*
X609591486Y-167584548D01*
X609595470Y-167552788D01*
X609598630Y-167520294D01*
X609600966Y-167487065D01*
X609602477Y-167453103D01*
X609603164Y-167418406D01*
X609603210Y-167406678D01*
X609602946Y-167371541D01*
X609602156Y-167337389D01*
X609600840Y-167304222D01*
X609598996Y-167272039D01*
X609596626Y-167240841D01*
X609593730Y-167210627D01*
X609590307Y-167181398D01*
X609584184Y-167139401D01*
X609576877Y-167099619D01*
X609568385Y-167062052D01*
X609558708Y-167026701D01*
X609547846Y-166993565D01*
X609535799Y-166962644D01*
X609522579Y-166933643D01*
X609508201Y-166906264D01*
X609492663Y-166880509D01*
X609475967Y-166856376D01*
X609451901Y-166826723D01*
X609425775Y-166799956D01*
X609397588Y-166776073D01*
X609367340Y-166755076D01*
X609335031Y-166736964D01*
X609300719Y-166721164D01*
X609264094Y-166707472D01*
X609235107Y-166698584D01*
X609204820Y-166690882D01*
X609173232Y-166684365D01*
X609140343Y-166679033D01*
X609106153Y-166674885D01*
X609070662Y-166671923D01*
X609033870Y-166670145D01*
X608995778Y-166669553D01*
X608961030Y-166670377D01*
X608926397Y-166672850D01*
X608891879Y-166676972D01*
X608857475Y-166682742D01*
X608823186Y-166690161D01*
X608789011Y-166699228D01*
X608754950Y-166709945D01*
X608721004Y-166722309D01*
X608687688Y-166736391D01*
X608655150Y-166752260D01*
X608623391Y-166769914D01*
X608592411Y-166789354D01*
X608562208Y-166810580D01*
X608532785Y-166833592D01*
X608504140Y-166858391D01*
X608476273Y-166884975D01*
X608328995Y-166690802D01*
X608354647Y-166665984D01*
X608381047Y-166642365D01*
X608408194Y-166619943D01*
X608436087Y-166598719D01*
X608464728Y-166578692D01*
X608494116Y-166559864D01*
X608524251Y-166542233D01*
X608555133Y-166525801D01*
X608586762Y-166510566D01*
X608619138Y-166496529D01*
X608641137Y-166487836D01*
X608674565Y-166475789D01*
X608708353Y-166464927D01*
X608742503Y-166455250D01*
X608777012Y-166446758D01*
X608811883Y-166439450D01*
X608847114Y-166433328D01*
X608882706Y-166428391D01*
X608918658Y-166424638D01*
X608954971Y-166422071D01*
X608991645Y-166420689D01*
X609016294Y-166420425D01*
X609051712Y-166420837D01*
X609086524Y-166422074D01*
X609120731Y-166424135D01*
X609154333Y-166427020D01*
X609187330Y-166430729D01*
X609219721Y-166435263D01*
X609251506Y-166440621D01*
X609282687Y-166446803D01*
X609313262Y-166453810D01*
X609343231Y-166461641D01*
X609362875Y-166467320D01*
X609391745Y-166476516D01*
X609419830Y-166486794D01*
X609447129Y-166498155D01*
X609482306Y-166514984D01*
X609516086Y-166533738D01*
X609548469Y-166554414D01*
X609579455Y-166577014D01*
X609609045Y-166601538D01*
X609630321Y-166621193D01*
X609657546Y-166649105D01*
X609676913Y-166671572D01*
X609695379Y-166695353D01*
X609712943Y-166720447D01*
X609729605Y-166746856D01*
X609745366Y-166774578D01*
X609760225Y-166803614D01*
X609774183Y-166833963D01*
X609787239Y-166865626D01*
X609799393Y-166898604D01*
X609803244Y-166909888D01*
X609814244Y-166944640D01*
X609824162Y-166981028D01*
X609832997Y-167019052D01*
X609840751Y-167058712D01*
X609847423Y-167100007D01*
X609853013Y-167142938D01*
X609856138Y-167172468D01*
X609858783Y-167202725D01*
X609860947Y-167233708D01*
X609862630Y-167265419D01*
X609863832Y-167297856D01*
X609864553Y-167331021D01*
X609864794Y-167364912D01*
X609864794Y-168390000D01*
X609535799Y-168390000D01*
X609535799Y-168083719D01*
X609521693Y-168109502D01*
X609503032Y-168140056D01*
X609483225Y-168168750D01*
X609462274Y-168195583D01*
X609440177Y-168220556D01*
X609416936Y-168243668D01*
X609402442Y-168256643D01*
X609377902Y-168276940D01*
X609352825Y-168295698D01*
X609327212Y-168312918D01*
X609301062Y-168328599D01*
X609274375Y-168342742D01*
X609247152Y-168355347D01*
X609236113Y-168359958D01*
X609208299Y-168370659D01*
X609180271Y-168380322D01*
X609152028Y-168388948D01*
X609123570Y-168396537D01*
X609094898Y-168403088D01*
X609066011Y-168408601D01*
X609054396Y-168410516D01*
X609020032Y-168415496D01*
X608986183Y-168419446D01*
X608952850Y-168422365D01*
X608920032Y-168424255D01*
X608887729Y-168425113D01*
X608877076Y-168425170D01*
G37*
G36*
X611144870Y-168425170D02*
G01*
X611114912Y-168424874D01*
X611085210Y-168423986D01*
X611055767Y-168422504D01*
X611016909Y-168419608D01*
X610978510Y-168415658D01*
X610940568Y-168410655D01*
X610903084Y-168404598D01*
X610866059Y-168397489D01*
X610838590Y-168391465D01*
X610802400Y-168382512D01*
X610766737Y-168372506D01*
X610731600Y-168361446D01*
X610696990Y-168349333D01*
X610662907Y-168336167D01*
X610629350Y-168321947D01*
X610596320Y-168306675D01*
X610563817Y-168290348D01*
X610532046Y-168272797D01*
X610500848Y-168254216D01*
X610470222Y-168234604D01*
X610440169Y-168213961D01*
X610410688Y-168192289D01*
X610381779Y-168169586D01*
X610353443Y-168145852D01*
X610325680Y-168121088D01*
X610494940Y-167833859D01*
X610519853Y-167795757D01*
X610545498Y-167812609D01*
X610552972Y-167842522D01*
X610560665Y-167871052D01*
X610563817Y-167882219D01*
X610577109Y-167911310D01*
X610593705Y-167935969D01*
X610613225Y-167959931D01*
X610621702Y-167969413D01*
X610644257Y-167990914D01*
X610667956Y-168011454D01*
X610692800Y-168031031D01*
X610718789Y-168049647D01*
X610745923Y-168067301D01*
X610774201Y-168083994D01*
X610803625Y-168099725D01*
X610834193Y-168114494D01*
X610866422Y-168127889D01*
X610900826Y-168139498D01*
X610937405Y-168149321D01*
X610966267Y-168155516D01*
X610996353Y-168160707D01*
X611027662Y-168164893D01*
X611060194Y-168168074D01*
X611093951Y-168170251D01*
X611128931Y-168171423D01*
X611152930Y-168171646D01*
X611191193Y-168171063D01*
X611227943Y-168169311D01*
X611263183Y-168166391D01*
X611296912Y-168162304D01*
X611329129Y-168157049D01*
X611359835Y-168150626D01*
X611389029Y-168143036D01*
X611416713Y-168134277D01*
X611449174Y-168121830D01*
X611479238Y-168107845D01*
X611506905Y-168092321D01*
X611532175Y-168075258D01*
X611555047Y-168056657D01*
X611579330Y-168032306D01*
X611583042Y-168028032D01*
X611603212Y-168001404D01*
X611619209Y-167973180D01*
X611631033Y-167943359D01*
X611638684Y-167911940D01*
X611642161Y-167878924D01*
X611642393Y-167867564D01*
X611640790Y-167836973D01*
X611635155Y-167804747D01*
X611625463Y-167774840D01*
X611616748Y-167756189D01*
X611600184Y-167729508D01*
X611581179Y-167706668D01*
X611558144Y-167684652D01*
X611534682Y-167666064D01*
X611508245Y-167647791D01*
X611482794Y-167632129D01*
X611454767Y-167616467D01*
X611424164Y-167600805D01*
X611396694Y-167587753D01*
X611385205Y-167582533D01*
X611355106Y-167569270D01*
X611322966Y-167556043D01*
X611288788Y-167542852D01*
X611259977Y-167532324D01*
X611229860Y-167521820D01*
X611198439Y-167511338D01*
X611165712Y-167500880D01*
X611157327Y-167498269D01*
X611116725Y-167486273D01*
X611077076Y-167473917D01*
X611038380Y-167461200D01*
X611000637Y-167448123D01*
X610963848Y-167434685D01*
X610928011Y-167420886D01*
X610893128Y-167406726D01*
X610859198Y-167392206D01*
X610826221Y-167377326D01*
X610794197Y-167362084D01*
X610773377Y-167351723D01*
X610743135Y-167335692D01*
X610714232Y-167319197D01*
X610686669Y-167302238D01*
X610660445Y-167284816D01*
X610635561Y-167266930D01*
X610612016Y-167248580D01*
X610582707Y-167223393D01*
X610555780Y-167197381D01*
X610531233Y-167170545D01*
X610519853Y-167156817D01*
X610499073Y-167128481D01*
X610481064Y-167099161D01*
X610465826Y-167068856D01*
X610453358Y-167037566D01*
X610443661Y-167005291D01*
X610436734Y-166972032D01*
X610432578Y-166937789D01*
X610431193Y-166902561D01*
X610432441Y-166866542D01*
X610436185Y-166831761D01*
X610442424Y-166798215D01*
X610451160Y-166765907D01*
X610462391Y-166734834D01*
X610476118Y-166704999D01*
X610492341Y-166676399D01*
X610511060Y-166649036D01*
X610532424Y-166623013D01*
X610556215Y-166598432D01*
X610582433Y-166575294D01*
X610611078Y-166553599D01*
X610642150Y-166533346D01*
X610675649Y-166514535D01*
X610702367Y-166501374D01*
X610730449Y-166489024D01*
X610749930Y-166481242D01*
X610780256Y-166470373D01*
X610811882Y-166460574D01*
X610844810Y-166451843D01*
X610879039Y-166444182D01*
X610914568Y-166437589D01*
X610951399Y-166432066D01*
X610989530Y-166427612D01*
X611028962Y-166424226D01*
X611069695Y-166421910D01*
X611111729Y-166420663D01*
X611140474Y-166420425D01*
X611173790Y-166420723D01*
X611206328Y-166421616D01*
X611238087Y-166423104D01*
X611269068Y-166425188D01*
X611299270Y-166427867D01*
X611328694Y-166431141D01*
X611364378Y-166436072D01*
X611385205Y-166439476D01*
X611419123Y-166445895D01*
X611452181Y-166453243D01*
X611484381Y-166461522D01*
X611515723Y-166470732D01*
X611546205Y-166480871D01*
X611575829Y-166491941D01*
X611587438Y-166496629D01*
X611616143Y-166508790D01*
X611644096Y-166521917D01*
X611671298Y-166536010D01*
X611697748Y-166551068D01*
X611723448Y-166567093D01*
X611748395Y-166584084D01*
X611758164Y-166591151D01*
X611782504Y-166609476D01*
X611806521Y-166628732D01*
X611830217Y-166648918D01*
X611853591Y-166670034D01*
X611876642Y-166692080D01*
X611899372Y-166715056D01*
X611908374Y-166724508D01*
X611735450Y-166935533D01*
X611706140Y-166969239D01*
X611684891Y-166947990D01*
X611679081Y-166918918D01*
X611669344Y-166890688D01*
X611665840Y-166882777D01*
X611650419Y-166856983D01*
X611630798Y-166832181D01*
X611610671Y-166810177D01*
X611605024Y-166804375D01*
X611580271Y-166786057D01*
X611554740Y-166768838D01*
X611528431Y-166752718D01*
X611501343Y-166737697D01*
X611473476Y-166723775D01*
X611444831Y-166710952D01*
X611415408Y-166699228D01*
X611385205Y-166688604D01*
X611354751Y-166679158D01*
X611324572Y-166670973D01*
X611294668Y-166664046D01*
X611265038Y-166658379D01*
X611235683Y-166653971D01*
X611199376Y-166650232D01*
X611163498Y-166648461D01*
X611149267Y-166648304D01*
X611117943Y-166648819D01*
X611087443Y-166650365D01*
X611057767Y-166652941D01*
X611019482Y-166657978D01*
X610982663Y-166664847D01*
X610947308Y-166673549D01*
X610913420Y-166684082D01*
X610880997Y-166696446D01*
X610857641Y-166706922D01*
X610828961Y-166722378D01*
X610804106Y-166739803D01*
X610778414Y-166764354D01*
X610758697Y-166791982D01*
X610744954Y-166822686D01*
X610737187Y-166856467D01*
X610735275Y-166885708D01*
X610738023Y-166917078D01*
X610746266Y-166948173D01*
X610757987Y-166975156D01*
X610773915Y-167001928D01*
X610779239Y-167009539D01*
X610798576Y-167032345D01*
X610823065Y-167055151D01*
X610847408Y-167074156D01*
X610875329Y-167093162D01*
X610906828Y-167112167D01*
X610934603Y-167127371D01*
X610941905Y-167131172D01*
X610973149Y-167146410D01*
X611007530Y-167161717D01*
X611035374Y-167173243D01*
X611064983Y-167184807D01*
X611096356Y-167196410D01*
X611129495Y-167208051D01*
X611164397Y-167219731D01*
X611201064Y-167231450D01*
X611239496Y-167243207D01*
X611279692Y-167255003D01*
X611309365Y-167264445D01*
X611338299Y-167273905D01*
X611366495Y-167283382D01*
X611407404Y-167297629D01*
X611446652Y-167311915D01*
X611484237Y-167326240D01*
X611520162Y-167340603D01*
X611554425Y-167355005D01*
X611587026Y-167369446D01*
X611617966Y-167383925D01*
X611647245Y-167398443D01*
X611665840Y-167408143D01*
X611692472Y-167422781D01*
X611717687Y-167437845D01*
X611749102Y-167458590D01*
X611777999Y-167480091D01*
X611804378Y-167502348D01*
X611828237Y-167525360D01*
X611849578Y-167549128D01*
X611868400Y-167573651D01*
X611876866Y-167586196D01*
X611892150Y-167611888D01*
X611905397Y-167638770D01*
X611916605Y-167666842D01*
X611925776Y-167696106D01*
X611932908Y-167726560D01*
X611938003Y-167758204D01*
X611941060Y-167791040D01*
X611942079Y-167825066D01*
X611941319Y-167854829D01*
X611939039Y-167884219D01*
X611933636Y-167922825D01*
X611925530Y-167960767D01*
X611914722Y-167998044D01*
X611901212Y-168034658D01*
X611889307Y-168061682D01*
X611875882Y-168088333D01*
X611860937Y-168114610D01*
X611855617Y-168123286D01*
X611838607Y-168148756D01*
X611820000Y-168173235D01*
X611799795Y-168196722D01*
X611777994Y-168219217D01*
X611754595Y-168240720D01*
X611729599Y-168261231D01*
X611703006Y-168280751D01*
X611674816Y-168299279D01*
X611645029Y-168316815D01*
X611613645Y-168333359D01*
X611591835Y-168343838D01*
X611557776Y-168358373D01*
X611522094Y-168371478D01*
X611484789Y-168383154D01*
X611445862Y-168393400D01*
X611405311Y-168402216D01*
X611363138Y-168409603D01*
X611334120Y-168413733D01*
X611304382Y-168417228D01*
X611273922Y-168420087D01*
X611242741Y-168422311D01*
X611210839Y-168423900D01*
X611178215Y-168424853D01*
X611144870Y-168425170D01*
G37*
G36*
X613445638Y-168425170D02*
G01*
X613411465Y-168424623D01*
X613378465Y-168422981D01*
X613346636Y-168420244D01*
X613315979Y-168416412D01*
X613286495Y-168411485D01*
X613249006Y-168403214D01*
X613213600Y-168392996D01*
X613180278Y-168380831D01*
X613149040Y-168366720D01*
X613141556Y-168362889D01*
X613112911Y-168346059D01*
X613085960Y-168327076D01*
X613060704Y-168305942D01*
X613037142Y-168282655D01*
X613015274Y-168257215D01*
X612995102Y-168229624D01*
X612976623Y-168199879D01*
X612959839Y-168167983D01*
X612944772Y-168133934D01*
X612931079Y-168097732D01*
X612921711Y-168069169D01*
X612913116Y-168039395D01*
X612905294Y-168008410D01*
X612898244Y-167976214D01*
X612891967Y-167942808D01*
X612886463Y-167908190D01*
X612881732Y-167872363D01*
X612877773Y-167835324D01*
X612874571Y-167796886D01*
X612871831Y-167757134D01*
X612869556Y-167716068D01*
X612867744Y-167673689D01*
X612866396Y-167629995D01*
X612865755Y-167600137D01*
X612865320Y-167569694D01*
X612865091Y-167538668D01*
X612865068Y-167507057D01*
X612865251Y-167474863D01*
X612865640Y-167442085D01*
X612866236Y-167408723D01*
X612867037Y-167374777D01*
X612867515Y-167357585D01*
X612918073Y-165993244D01*
X613234612Y-165955875D01*
X613277110Y-165951479D01*
X613281507Y-165980788D01*
X613264036Y-166006434D01*
X613248809Y-166032079D01*
X613244870Y-166039406D01*
X613234807Y-166067261D01*
X613227837Y-166099447D01*
X613223189Y-166131069D01*
X613222156Y-166139790D01*
X613184054Y-166612400D01*
X613196510Y-166687871D01*
X613167201Y-167377369D01*
X613165807Y-167416555D01*
X613164740Y-167454614D01*
X613163998Y-167491546D01*
X613163583Y-167527349D01*
X613163495Y-167562025D01*
X613163732Y-167595573D01*
X613164296Y-167627993D01*
X613165186Y-167659286D01*
X613166403Y-167689451D01*
X613168839Y-167732584D01*
X613172010Y-167773179D01*
X613175914Y-167811238D01*
X613180553Y-167846759D01*
X613184054Y-167869030D01*
X613189962Y-167900637D01*
X613196693Y-167930338D01*
X613206952Y-167966975D01*
X613218675Y-168000222D01*
X613231864Y-168030081D01*
X613246519Y-168056551D01*
X613266898Y-168084872D01*
X613289567Y-168107899D01*
X613314615Y-168126475D01*
X613342132Y-168141902D01*
X613372117Y-168154181D01*
X613404571Y-168163312D01*
X613439494Y-168169294D01*
X613469209Y-168171812D01*
X613492533Y-168172379D01*
X613526834Y-168171520D01*
X613560127Y-168168944D01*
X613592413Y-168164651D01*
X613623691Y-168158640D01*
X613653962Y-168150912D01*
X613683225Y-168141467D01*
X613711481Y-168130304D01*
X613738729Y-168117424D01*
X613765829Y-168103228D01*
X613793272Y-168088115D01*
X613821058Y-168072087D01*
X613849188Y-168055143D01*
X613877662Y-168037282D01*
X613906478Y-168018506D01*
X613935639Y-167998814D01*
X613965143Y-167978206D01*
X614057466Y-168218541D01*
X614030592Y-168237842D01*
X614003551Y-168256176D01*
X613976342Y-168273545D01*
X613948965Y-168289948D01*
X613921421Y-168305384D01*
X613893710Y-168319855D01*
X613865831Y-168333360D01*
X613837785Y-168345898D01*
X613809572Y-168357471D01*
X613781190Y-168368078D01*
X613762177Y-168374612D01*
X613733622Y-168383648D01*
X613704835Y-168391794D01*
X613675816Y-168399052D01*
X613646566Y-168405421D01*
X613617084Y-168410902D01*
X613587369Y-168415493D01*
X613557423Y-168419196D01*
X613527246Y-168422011D01*
X613496836Y-168423936D01*
X613466194Y-168424973D01*
X613445638Y-168425170D01*
G37*
G36*
X612479169Y-166467320D02*
G01*
X613867690Y-166467320D01*
X613867690Y-166716448D01*
X612479169Y-166716448D01*
X612479169Y-166467320D01*
G37*
G36*
X614615806Y-168390000D02*
G01*
X614615806Y-168145268D01*
X615185868Y-168145268D01*
X615185868Y-165821053D01*
X614641451Y-165821053D01*
X614641451Y-165576322D01*
X615493614Y-165576322D01*
X615493614Y-168145268D01*
X616059281Y-168145268D01*
X616059281Y-168390000D01*
X614615806Y-168390000D01*
G37*
G36*
X617504774Y-166420902D02*
G01*
X617535007Y-166422331D01*
X617564880Y-166424714D01*
X617594393Y-166428050D01*
X617623545Y-166432339D01*
X617661853Y-166439541D01*
X617699519Y-166448436D01*
X617736545Y-166459027D01*
X617772930Y-166471311D01*
X617781926Y-166474647D01*
X617817234Y-166488901D01*
X617851352Y-166504918D01*
X617884279Y-166522698D01*
X617916015Y-166542241D01*
X617946560Y-166563548D01*
X617975915Y-166586617D01*
X618004080Y-166611450D01*
X618031053Y-166638046D01*
X618056733Y-166666279D01*
X618081016Y-166696389D01*
X618098312Y-166720204D01*
X618114822Y-166745075D01*
X618130546Y-166771003D01*
X618145485Y-166797986D01*
X618159638Y-166826026D01*
X618173005Y-166855122D01*
X618185587Y-166885274D01*
X618197383Y-166916482D01*
X618208382Y-166948766D01*
X618218300Y-166982145D01*
X618227135Y-167016618D01*
X618234889Y-167052186D01*
X618241561Y-167088849D01*
X618247151Y-167126607D01*
X618251659Y-167165459D01*
X618255085Y-167205406D01*
X618257429Y-167246449D01*
X618258691Y-167288585D01*
X618258932Y-167317285D01*
X618258449Y-167348680D01*
X618257126Y-167378853D01*
X618256734Y-167385429D01*
X618254530Y-167415783D01*
X618251765Y-167445295D01*
X618250872Y-167453572D01*
X616879204Y-167453572D01*
X616881127Y-167488449D01*
X616883875Y-167522463D01*
X616887447Y-167555614D01*
X616891844Y-167587902D01*
X616897064Y-167619327D01*
X616903109Y-167649889D01*
X616909979Y-167679588D01*
X616917672Y-167708425D01*
X616929213Y-167745530D01*
X616942219Y-167781102D01*
X616956484Y-167814934D01*
X616971803Y-167847185D01*
X616988174Y-167877857D01*
X617005600Y-167906948D01*
X617024078Y-167934460D01*
X617043610Y-167960392D01*
X617064195Y-167984743D01*
X617085833Y-168007515D01*
X617108422Y-168028627D01*
X617131858Y-168048365D01*
X617156141Y-168066729D01*
X617181271Y-168083719D01*
X617207249Y-168099335D01*
X617234074Y-168113578D01*
X617261746Y-168126446D01*
X617290265Y-168137941D01*
X617319608Y-168147901D01*
X617349387Y-168156534D01*
X617379600Y-168163838D01*
X617410249Y-168169815D01*
X617441333Y-168174463D01*
X617472851Y-168177783D01*
X617504805Y-168179775D01*
X617537194Y-168180439D01*
X617568489Y-168179867D01*
X617599176Y-168178149D01*
X617629254Y-168175287D01*
X617658724Y-168171280D01*
X617687586Y-168166128D01*
X617721417Y-168158434D01*
X617726971Y-168156992D01*
X617759858Y-168147323D01*
X617792023Y-168135903D01*
X617823468Y-168122731D01*
X617854191Y-168107807D01*
X617884193Y-168091132D01*
X617894033Y-168085184D01*
X617922893Y-168066225D01*
X617950671Y-168045617D01*
X617977367Y-168023360D01*
X618002981Y-167999455D01*
X618023499Y-167978275D01*
X618035450Y-167965017D01*
X618203977Y-168129148D01*
X618183644Y-168153053D01*
X618162578Y-168176043D01*
X618140779Y-168198116D01*
X618118248Y-168219274D01*
X618094984Y-168239515D01*
X618070987Y-168258841D01*
X618046257Y-168277251D01*
X618020795Y-168294745D01*
X617994669Y-168311037D01*
X617967947Y-168326206D01*
X617940630Y-168340254D01*
X617912718Y-168353180D01*
X617884210Y-168364984D01*
X617855107Y-168375665D01*
X617825408Y-168385225D01*
X617795115Y-168393663D01*
X617764191Y-168401048D01*
X617732604Y-168407448D01*
X617700352Y-168412863D01*
X617667437Y-168417294D01*
X617633857Y-168420740D01*
X617599614Y-168423201D01*
X617564706Y-168424678D01*
X617529134Y-168425170D01*
X617489895Y-168424604D01*
X617451313Y-168422904D01*
X617413388Y-168420070D01*
X617376120Y-168416103D01*
X617339508Y-168411002D01*
X617303554Y-168404769D01*
X617268256Y-168397401D01*
X617233616Y-168388900D01*
X617199632Y-168379266D01*
X617166305Y-168368498D01*
X617144452Y-168360690D01*
X617112454Y-168347928D01*
X617081305Y-168334097D01*
X617051007Y-168319197D01*
X617021559Y-168303228D01*
X616992962Y-168286190D01*
X616965214Y-168268083D01*
X616938316Y-168248907D01*
X616912268Y-168228662D01*
X616887071Y-168207348D01*
X616862723Y-168184964D01*
X616846964Y-168169448D01*
X616824235Y-168145290D01*
X616802485Y-168120075D01*
X616781714Y-168093804D01*
X616761922Y-168066477D01*
X616743108Y-168038094D01*
X616725274Y-168008654D01*
X616708418Y-167978159D01*
X616692541Y-167946607D01*
X616677644Y-167913999D01*
X616663725Y-167880335D01*
X616654989Y-167857306D01*
X616642942Y-167821809D01*
X616632080Y-167785384D01*
X616622403Y-167748032D01*
X616613910Y-167709753D01*
X616606603Y-167670546D01*
X616600481Y-167630412D01*
X616595544Y-167589350D01*
X616591791Y-167547362D01*
X616589224Y-167504446D01*
X616587841Y-167460602D01*
X616587578Y-167430858D01*
X616587850Y-167400664D01*
X616588666Y-167370900D01*
X616590025Y-167341565D01*
X616593084Y-167298368D01*
X616597367Y-167256136D01*
X616602504Y-167217634D01*
X616891660Y-167217634D01*
X617951186Y-167217634D01*
X617950625Y-167185623D01*
X617948942Y-167154436D01*
X617946137Y-167124074D01*
X617942210Y-167094535D01*
X617935723Y-167058772D01*
X617927484Y-167024297D01*
X617917491Y-166991109D01*
X617915282Y-166984626D01*
X617903329Y-166952809D01*
X617889909Y-166922387D01*
X617875021Y-166893361D01*
X617858667Y-166865730D01*
X617840846Y-166839494D01*
X617821559Y-166814653D01*
X617813433Y-166805108D01*
X617792428Y-166782435D01*
X617770170Y-166761588D01*
X617746661Y-166742565D01*
X617721899Y-166725366D01*
X617695885Y-166709992D01*
X617668619Y-166696443D01*
X617657362Y-166691535D01*
X617628607Y-166680347D01*
X617598672Y-166671056D01*
X617567556Y-166663660D01*
X617535259Y-166658161D01*
X617501782Y-166654558D01*
X617467124Y-166652852D01*
X617452930Y-166652700D01*
X617421582Y-166653505D01*
X617390734Y-166655920D01*
X617360388Y-166659945D01*
X617330542Y-166665580D01*
X617301197Y-166672825D01*
X617272353Y-166681680D01*
X617260956Y-166685673D01*
X617232920Y-166696696D01*
X617205600Y-166709615D01*
X617178996Y-166724431D01*
X617153107Y-166741143D01*
X617127934Y-166759751D01*
X617103476Y-166780255D01*
X617093893Y-166788988D01*
X617070863Y-166812039D01*
X617048942Y-166836772D01*
X617028130Y-166863187D01*
X617008428Y-166891283D01*
X616989834Y-166921061D01*
X616972349Y-166952521D01*
X616965666Y-166965575D01*
X616952969Y-166992595D01*
X616941257Y-167020896D01*
X616930529Y-167050480D01*
X616920786Y-167081346D01*
X616912028Y-167113495D01*
X616904254Y-167146926D01*
X616897465Y-167181639D01*
X616891660Y-167217634D01*
X616602504Y-167217634D01*
X616602873Y-167214871D01*
X616609603Y-167174572D01*
X616617556Y-167135238D01*
X616626733Y-167096871D01*
X616637134Y-167059470D01*
X616648758Y-167023034D01*
X616657187Y-166999281D01*
X616670683Y-166964376D01*
X616685068Y-166930553D01*
X616700342Y-166897812D01*
X616716504Y-166866153D01*
X616733555Y-166835576D01*
X616751495Y-166806081D01*
X616770323Y-166777668D01*
X616790040Y-166750336D01*
X616810646Y-166724087D01*
X616832140Y-166698919D01*
X616846964Y-166682742D01*
X616869993Y-166659240D01*
X616893744Y-166636821D01*
X616918216Y-166615483D01*
X616943409Y-166595227D01*
X616969324Y-166576053D01*
X616995960Y-166557961D01*
X617023317Y-166540950D01*
X617051395Y-166525022D01*
X617080195Y-166510176D01*
X617109716Y-166496411D01*
X617129797Y-166487836D01*
X617160464Y-166475789D01*
X617191467Y-166464927D01*
X617222804Y-166455250D01*
X617254475Y-166446758D01*
X617286482Y-166439450D01*
X617318824Y-166433328D01*
X617351500Y-166428391D01*
X617384512Y-166424638D01*
X617417858Y-166422071D01*
X617451539Y-166420689D01*
X617474180Y-166420425D01*
X617504774Y-166420902D01*
G37*
G36*
X619539009Y-168425170D02*
G01*
X619509050Y-168424874D01*
X619479348Y-168423986D01*
X619449905Y-168422504D01*
X619411047Y-168419608D01*
X619372648Y-168415658D01*
X619334706Y-168410655D01*
X619297222Y-168404598D01*
X619260197Y-168397489D01*
X619232728Y-168391465D01*
X619196538Y-168382512D01*
X619160875Y-168372506D01*
X619125738Y-168361446D01*
X619091128Y-168349333D01*
X619057045Y-168336167D01*
X619023488Y-168321947D01*
X618990458Y-168306675D01*
X618957955Y-168290348D01*
X618926184Y-168272797D01*
X618894986Y-168254216D01*
X618864360Y-168234604D01*
X618834307Y-168213961D01*
X618804826Y-168192289D01*
X618775918Y-168169586D01*
X618747582Y-168145852D01*
X618719818Y-168121088D01*
X618889078Y-167833859D01*
X618913991Y-167795757D01*
X618939637Y-167812609D01*
X618947110Y-167842522D01*
X618954803Y-167871052D01*
X618957955Y-167882219D01*
X618971247Y-167911310D01*
X618987843Y-167935969D01*
X619007363Y-167959931D01*
X619015840Y-167969413D01*
X619038395Y-167990914D01*
X619062094Y-168011454D01*
X619086938Y-168031031D01*
X619112927Y-168049647D01*
X619140061Y-168067301D01*
X619168340Y-168083994D01*
X619197763Y-168099725D01*
X619228332Y-168114494D01*
X619260560Y-168127889D01*
X619294964Y-168139498D01*
X619331543Y-168149321D01*
X619360405Y-168155516D01*
X619390491Y-168160707D01*
X619421800Y-168164893D01*
X619454333Y-168168074D01*
X619488089Y-168170251D01*
X619523069Y-168171423D01*
X619547069Y-168171646D01*
X619585331Y-168171063D01*
X619622082Y-168169311D01*
X619657321Y-168166391D01*
X619691050Y-168162304D01*
X619723267Y-168157049D01*
X619753973Y-168150626D01*
X619783167Y-168143036D01*
X619810851Y-168134277D01*
X619843312Y-168121830D01*
X619873376Y-168107845D01*
X619901043Y-168092321D01*
X619926313Y-168075258D01*
X619949186Y-168056657D01*
X619973469Y-168032306D01*
X619977180Y-168028032D01*
X619997350Y-168001404D01*
X620013347Y-167973180D01*
X620025171Y-167943359D01*
X620032822Y-167911940D01*
X620036299Y-167878924D01*
X620036531Y-167867564D01*
X620034928Y-167836973D01*
X620029293Y-167804747D01*
X620019601Y-167774840D01*
X620010886Y-167756189D01*
X619994322Y-167729508D01*
X619975317Y-167706668D01*
X619952282Y-167684652D01*
X619928820Y-167666064D01*
X619902383Y-167647791D01*
X619876932Y-167632129D01*
X619848906Y-167616467D01*
X619818303Y-167600805D01*
X619790832Y-167587753D01*
X619779344Y-167582533D01*
X619749244Y-167569270D01*
X619717105Y-167556043D01*
X619682926Y-167542852D01*
X619654115Y-167532324D01*
X619623999Y-167521820D01*
X619592577Y-167511338D01*
X619559851Y-167500880D01*
X619551465Y-167498269D01*
X619510863Y-167486273D01*
X619471214Y-167473917D01*
X619432518Y-167461200D01*
X619394776Y-167448123D01*
X619357986Y-167434685D01*
X619322150Y-167420886D01*
X619287266Y-167406726D01*
X619253336Y-167392206D01*
X619220359Y-167377326D01*
X619188335Y-167362084D01*
X619167515Y-167351723D01*
X619137273Y-167335692D01*
X619108370Y-167319197D01*
X619080807Y-167302238D01*
X619054583Y-167284816D01*
X619029699Y-167266930D01*
X619006155Y-167248580D01*
X618976845Y-167223393D01*
X618949918Y-167197381D01*
X618925371Y-167170545D01*
X618913991Y-167156817D01*
X618893211Y-167128481D01*
X618875202Y-167099161D01*
X618859964Y-167068856D01*
X618847496Y-167037566D01*
X618837799Y-167005291D01*
X618830872Y-166972032D01*
X618826716Y-166937789D01*
X618825331Y-166902561D01*
X618826579Y-166866542D01*
X618830323Y-166831761D01*
X618836562Y-166798215D01*
X618845298Y-166765907D01*
X618856529Y-166734834D01*
X618870256Y-166704999D01*
X618886479Y-166676399D01*
X618905198Y-166649036D01*
X618926562Y-166623013D01*
X618950353Y-166598432D01*
X618976571Y-166575294D01*
X619005216Y-166553599D01*
X619036288Y-166533346D01*
X619069788Y-166514535D01*
X619096505Y-166501374D01*
X619124588Y-166489024D01*
X619144068Y-166481242D01*
X619174394Y-166470373D01*
X619206021Y-166460574D01*
X619238948Y-166451843D01*
X619273177Y-166444182D01*
X619308706Y-166437589D01*
X619345537Y-166432066D01*
X619383668Y-166427612D01*
X619423100Y-166424226D01*
X619463833Y-166421910D01*
X619505867Y-166420663D01*
X619534612Y-166420425D01*
X619567928Y-166420723D01*
X619600466Y-166421616D01*
X619632225Y-166423104D01*
X619663206Y-166425188D01*
X619693408Y-166427867D01*
X619722832Y-166431141D01*
X619758517Y-166436072D01*
X619779344Y-166439476D01*
X619813261Y-166445895D01*
X619846320Y-166453243D01*
X619878519Y-166461522D01*
X619909861Y-166470732D01*
X619940343Y-166480871D01*
X619969967Y-166491941D01*
X619981577Y-166496629D01*
X620010281Y-166508790D01*
X620038234Y-166521917D01*
X620065436Y-166536010D01*
X620091887Y-166551068D01*
X620117586Y-166567093D01*
X620142534Y-166584084D01*
X620152302Y-166591151D01*
X620176642Y-166609476D01*
X620200660Y-166628732D01*
X620224355Y-166648918D01*
X620247729Y-166670034D01*
X620270780Y-166692080D01*
X620293510Y-166715056D01*
X620302512Y-166724508D01*
X620129588Y-166935533D01*
X620100279Y-166969239D01*
X620079030Y-166947990D01*
X620073219Y-166918918D01*
X620063482Y-166890688D01*
X620059979Y-166882777D01*
X620044557Y-166856983D01*
X620024936Y-166832181D01*
X620004809Y-166810177D01*
X619999162Y-166804375D01*
X619974410Y-166786057D01*
X619948879Y-166768838D01*
X619922569Y-166752718D01*
X619895481Y-166737697D01*
X619867614Y-166723775D01*
X619838969Y-166710952D01*
X619809546Y-166699228D01*
X619779344Y-166688604D01*
X619748890Y-166679158D01*
X619718710Y-166670973D01*
X619688806Y-166664046D01*
X619659176Y-166658379D01*
X619629821Y-166653971D01*
X619593514Y-166650232D01*
X619557636Y-166648461D01*
X619543405Y-166648304D01*
X619512081Y-166648819D01*
X619481581Y-166650365D01*
X619451905Y-166652941D01*
X619413620Y-166657978D01*
X619376801Y-166664847D01*
X619341447Y-166673549D01*
X619307558Y-166684082D01*
X619275135Y-166696446D01*
X619251779Y-166706922D01*
X619223100Y-166722378D01*
X619198244Y-166739803D01*
X619172552Y-166764354D01*
X619152835Y-166791982D01*
X619139093Y-166822686D01*
X619131325Y-166856467D01*
X619129413Y-166885708D01*
X619132161Y-166917078D01*
X619140404Y-166948173D01*
X619152125Y-166975156D01*
X619168053Y-167001928D01*
X619173377Y-167009539D01*
X619192714Y-167032345D01*
X619217203Y-167055151D01*
X619241547Y-167074156D01*
X619269468Y-167093162D01*
X619300966Y-167112167D01*
X619328741Y-167127371D01*
X619336043Y-167131172D01*
X619367287Y-167146410D01*
X619401668Y-167161717D01*
X619429512Y-167173243D01*
X619459121Y-167184807D01*
X619490495Y-167196410D01*
X619523633Y-167208051D01*
X619558535Y-167219731D01*
X619595203Y-167231450D01*
X619633634Y-167243207D01*
X619673831Y-167255003D01*
X619703503Y-167264445D01*
X619732437Y-167273905D01*
X619760633Y-167283382D01*
X619801542Y-167297629D01*
X619840790Y-167311915D01*
X619878376Y-167326240D01*
X619914300Y-167340603D01*
X619948563Y-167355005D01*
X619981164Y-167369446D01*
X620012104Y-167383925D01*
X620041383Y-167398443D01*
X620059979Y-167408143D01*
X620086610Y-167422781D01*
X620111825Y-167437845D01*
X620143241Y-167458590D01*
X620172138Y-167480091D01*
X620198516Y-167502348D01*
X620222375Y-167525360D01*
X620243716Y-167549128D01*
X620262538Y-167573651D01*
X620271004Y-167586196D01*
X620286289Y-167611888D01*
X620299535Y-167638770D01*
X620310743Y-167666842D01*
X620319914Y-167696106D01*
X620327047Y-167726560D01*
X620332141Y-167758204D01*
X620335198Y-167791040D01*
X620336217Y-167825066D01*
X620335457Y-167854829D01*
X620333178Y-167884219D01*
X620327774Y-167922825D01*
X620319668Y-167960767D01*
X620308860Y-167998044D01*
X620295350Y-168034658D01*
X620283445Y-168061682D01*
X620270020Y-168088333D01*
X620255075Y-168114610D01*
X620249755Y-168123286D01*
X620232745Y-168148756D01*
X620214138Y-168173235D01*
X620193933Y-168196722D01*
X620172132Y-168219217D01*
X620148733Y-168240720D01*
X620123737Y-168261231D01*
X620097145Y-168280751D01*
X620068954Y-168299279D01*
X620039167Y-168316815D01*
X620007783Y-168333359D01*
X619985973Y-168343838D01*
X619951914Y-168358373D01*
X619916232Y-168371478D01*
X619878927Y-168383154D01*
X619840000Y-168393400D01*
X619799449Y-168402216D01*
X619757276Y-168409603D01*
X619728259Y-168413733D01*
X619698520Y-168417228D01*
X619668060Y-168420087D01*
X619636879Y-168422311D01*
X619604977Y-168423900D01*
X619572353Y-168424853D01*
X619539009Y-168425170D01*
G37*
X611869925Y-172050038D02*
X611619925Y-170050038D01*
X611619925Y-170050038D02*
X610858020Y-170050038D01*
X610858020Y-170050038D02*
X610679449Y-170145276D01*
X610679449Y-170145276D02*
X610596115Y-170240514D01*
X610596115Y-170240514D02*
X610524687Y-170430990D01*
X610524687Y-170430990D02*
X610560401Y-170716704D01*
X610560401Y-170716704D02*
X610679449Y-170907180D01*
X610679449Y-170907180D02*
X610786591Y-171002419D01*
X610786591Y-171002419D02*
X610988972Y-171097657D01*
X610988972Y-171097657D02*
X611750877Y-171097657D01*
X609869925Y-172050038D02*
X609703258Y-170716704D01*
X609750877Y-171097657D02*
X609631830Y-170907180D01*
X609631830Y-170907180D02*
X609524687Y-170811942D01*
X609524687Y-170811942D02*
X609322306Y-170716704D01*
X609322306Y-170716704D02*
X609131830Y-170716704D01*
X608346116Y-172050038D02*
X608524687Y-171954800D01*
X608524687Y-171954800D02*
X608608020Y-171859561D01*
X608608020Y-171859561D02*
X608679449Y-171669085D01*
X608679449Y-171669085D02*
X608608020Y-171097657D01*
X608608020Y-171097657D02*
X608488973Y-170907180D01*
X608488973Y-170907180D02*
X608381830Y-170811942D01*
X608381830Y-170811942D02*
X608179449Y-170716704D01*
X608179449Y-170716704D02*
X607893735Y-170716704D01*
X607893735Y-170716704D02*
X607715163Y-170811942D01*
X607715163Y-170811942D02*
X607631830Y-170907180D01*
X607631830Y-170907180D02*
X607560401Y-171097657D01*
X607560401Y-171097657D02*
X607631830Y-171669085D01*
X607631830Y-171669085D02*
X607750877Y-171859561D01*
X607750877Y-171859561D02*
X607858020Y-171954800D01*
X607858020Y-171954800D02*
X608060401Y-172050038D01*
X608060401Y-172050038D02*
X608346116Y-172050038D01*
X606822306Y-172050038D02*
X606572306Y-170050038D01*
X606667544Y-170811942D02*
X606465163Y-170716704D01*
X606465163Y-170716704D02*
X606084211Y-170716704D01*
X606084211Y-170716704D02*
X605905639Y-170811942D01*
X605905639Y-170811942D02*
X605822306Y-170907180D01*
X605822306Y-170907180D02*
X605750877Y-171097657D01*
X605750877Y-171097657D02*
X605822306Y-171669085D01*
X605822306Y-171669085D02*
X605941353Y-171859561D01*
X605941353Y-171859561D02*
X606048496Y-171954800D01*
X606048496Y-171954800D02*
X606250877Y-172050038D01*
X606250877Y-172050038D02*
X606631830Y-172050038D01*
X606631830Y-172050038D02*
X606810401Y-171954800D01*
X604727068Y-172050038D02*
X604905639Y-171954800D01*
X604905639Y-171954800D02*
X604977068Y-171764323D01*
X604977068Y-171764323D02*
X604762782Y-170050038D01*
X603191353Y-171954800D02*
X603393734Y-172050038D01*
X603393734Y-172050038D02*
X603774687Y-172050038D01*
X603774687Y-172050038D02*
X603953258Y-171954800D01*
X603953258Y-171954800D02*
X604024687Y-171764323D01*
X604024687Y-171764323D02*
X603929449Y-171002419D01*
X603929449Y-171002419D02*
X603810401Y-170811942D01*
X603810401Y-170811942D02*
X603608020Y-170716704D01*
X603608020Y-170716704D02*
X603227068Y-170716704D01*
X603227068Y-170716704D02*
X603048496Y-170811942D01*
X603048496Y-170811942D02*
X602977068Y-171002419D01*
X602977068Y-171002419D02*
X603000877Y-171192895D01*
X603000877Y-171192895D02*
X603977068Y-171383371D01*
X602250877Y-172050038D02*
X602084210Y-170716704D01*
X602108020Y-170907180D02*
X602000877Y-170811942D01*
X602000877Y-170811942D02*
X601798496Y-170716704D01*
X601798496Y-170716704D02*
X601512782Y-170716704D01*
X601512782Y-170716704D02*
X601334210Y-170811942D01*
X601334210Y-170811942D02*
X601262782Y-171002419D01*
X601262782Y-171002419D02*
X601393734Y-172050038D01*
X601262782Y-171002419D02*
X601143734Y-170811942D01*
X601143734Y-170811942D02*
X600941353Y-170716704D01*
X600941353Y-170716704D02*
X600655639Y-170716704D01*
X600655639Y-170716704D02*
X600477067Y-170811942D01*
X600477067Y-170811942D02*
X600405639Y-171002419D01*
X600405639Y-171002419D02*
X600536591Y-172050038D01*
X598143733Y-171954800D02*
X597869924Y-172050038D01*
X597869924Y-172050038D02*
X597393733Y-172050038D01*
X597393733Y-172050038D02*
X597191352Y-171954800D01*
X597191352Y-171954800D02*
X597084209Y-171859561D01*
X597084209Y-171859561D02*
X596965162Y-171669085D01*
X596965162Y-171669085D02*
X596941352Y-171478609D01*
X596941352Y-171478609D02*
X597012781Y-171288133D01*
X597012781Y-171288133D02*
X597096114Y-171192895D01*
X597096114Y-171192895D02*
X597274686Y-171097657D01*
X597274686Y-171097657D02*
X597643733Y-171002419D01*
X597643733Y-171002419D02*
X597822305Y-170907180D01*
X597822305Y-170907180D02*
X597905638Y-170811942D01*
X597905638Y-170811942D02*
X597977066Y-170621466D01*
X597977066Y-170621466D02*
X597953257Y-170430990D01*
X597953257Y-170430990D02*
X597834209Y-170240514D01*
X597834209Y-170240514D02*
X597727066Y-170145276D01*
X597727066Y-170145276D02*
X597524686Y-170050038D01*
X597524686Y-170050038D02*
X597048495Y-170050038D01*
X597048495Y-170050038D02*
X596774686Y-170145276D01*
X595869924Y-172050038D02*
X596048495Y-171954800D01*
X596048495Y-171954800D02*
X596131828Y-171859561D01*
X596131828Y-171859561D02*
X596203257Y-171669085D01*
X596203257Y-171669085D02*
X596131828Y-171097657D01*
X596131828Y-171097657D02*
X596012781Y-170907180D01*
X596012781Y-170907180D02*
X595905638Y-170811942D01*
X595905638Y-170811942D02*
X595703257Y-170716704D01*
X595703257Y-170716704D02*
X595417543Y-170716704D01*
X595417543Y-170716704D02*
X595238971Y-170811942D01*
X595238971Y-170811942D02*
X595155638Y-170907180D01*
X595155638Y-170907180D02*
X595084209Y-171097657D01*
X595084209Y-171097657D02*
X595155638Y-171669085D01*
X595155638Y-171669085D02*
X595274685Y-171859561D01*
X595274685Y-171859561D02*
X595381828Y-171954800D01*
X595381828Y-171954800D02*
X595584209Y-172050038D01*
X595584209Y-172050038D02*
X595869924Y-172050038D01*
X594060400Y-172050038D02*
X594238971Y-171954800D01*
X594238971Y-171954800D02*
X594310400Y-171764323D01*
X594310400Y-171764323D02*
X594096114Y-170050038D01*
X593322304Y-170716704D02*
X593012781Y-172050038D01*
X593012781Y-172050038D02*
X592369923Y-170716704D01*
X591000875Y-171954800D02*
X591203256Y-172050038D01*
X591203256Y-172050038D02*
X591584209Y-172050038D01*
X591584209Y-172050038D02*
X591762780Y-171954800D01*
X591762780Y-171954800D02*
X591834209Y-171764323D01*
X591834209Y-171764323D02*
X591738971Y-171002419D01*
X591738971Y-171002419D02*
X591619923Y-170811942D01*
X591619923Y-170811942D02*
X591417542Y-170716704D01*
X591417542Y-170716704D02*
X591036590Y-170716704D01*
X591036590Y-170716704D02*
X590858018Y-170811942D01*
X590858018Y-170811942D02*
X590786590Y-171002419D01*
X590786590Y-171002419D02*
X590810399Y-171192895D01*
X590810399Y-171192895D02*
X591786590Y-171383371D01*
X590060399Y-172050038D02*
X589893732Y-170716704D01*
X589941351Y-171097657D02*
X589822304Y-170907180D01*
X589822304Y-170907180D02*
X589715161Y-170811942D01*
X589715161Y-170811942D02*
X589512780Y-170716704D01*
X589512780Y-170716704D02*
X589322304Y-170716704D01*
X590408646Y-202702419D02*
X590694360Y-202797657D01*
X590694360Y-202797657D02*
X590789598Y-202892895D01*
X590789598Y-202892895D02*
X590884836Y-203083371D01*
X590884836Y-203083371D02*
X590884836Y-203369085D01*
X590884836Y-203369085D02*
X590789598Y-203559561D01*
X590789598Y-203559561D02*
X590694360Y-203654800D01*
X590694360Y-203654800D02*
X590503884Y-203750038D01*
X590503884Y-203750038D02*
X589741979Y-203750038D01*
X589741979Y-203750038D02*
X589741979Y-201750038D01*
X589741979Y-201750038D02*
X590408646Y-201750038D01*
X590408646Y-201750038D02*
X590599122Y-201845276D01*
X590599122Y-201845276D02*
X590694360Y-201940514D01*
X590694360Y-201940514D02*
X590789598Y-202130990D01*
X590789598Y-202130990D02*
X590789598Y-202321466D01*
X590789598Y-202321466D02*
X590694360Y-202511942D01*
X590694360Y-202511942D02*
X590599122Y-202607180D01*
X590599122Y-202607180D02*
X590408646Y-202702419D01*
X590408646Y-202702419D02*
X589741979Y-202702419D01*
X592503884Y-203654800D02*
X592313408Y-203750038D01*
X592313408Y-203750038D02*
X591932455Y-203750038D01*
X591932455Y-203750038D02*
X591741979Y-203654800D01*
X591741979Y-203654800D02*
X591646741Y-203464323D01*
X591646741Y-203464323D02*
X591646741Y-202702419D01*
X591646741Y-202702419D02*
X591741979Y-202511942D01*
X591741979Y-202511942D02*
X591932455Y-202416704D01*
X591932455Y-202416704D02*
X592313408Y-202416704D01*
X592313408Y-202416704D02*
X592503884Y-202511942D01*
X592503884Y-202511942D02*
X592599122Y-202702419D01*
X592599122Y-202702419D02*
X592599122Y-202892895D01*
X592599122Y-202892895D02*
X591646741Y-203083371D01*
X593456265Y-203750038D02*
X593456265Y-202416704D01*
X593456265Y-202797657D02*
X593551503Y-202607180D01*
X593551503Y-202607180D02*
X593646741Y-202511942D01*
X593646741Y-202511942D02*
X593837217Y-202416704D01*
X593837217Y-202416704D02*
X594027694Y-202416704D01*
X594980074Y-203750038D02*
X594789598Y-203654800D01*
X594789598Y-203654800D02*
X594694360Y-203464323D01*
X594694360Y-203464323D02*
X594694360Y-201750038D01*
X595741979Y-203750038D02*
X595741979Y-202416704D01*
X595741979Y-201750038D02*
X595646741Y-201845276D01*
X595646741Y-201845276D02*
X595741979Y-201940514D01*
X595741979Y-201940514D02*
X595837217Y-201845276D01*
X595837217Y-201845276D02*
X595741979Y-201750038D01*
X595741979Y-201750038D02*
X595741979Y-201940514D01*
X596694360Y-202416704D02*
X596694360Y-203750038D01*
X596694360Y-202607180D02*
X596789598Y-202511942D01*
X596789598Y-202511942D02*
X596980074Y-202416704D01*
X596980074Y-202416704D02*
X597265789Y-202416704D01*
X597265789Y-202416704D02*
X597456265Y-202511942D01*
X597456265Y-202511942D02*
X597551503Y-202702419D01*
X597551503Y-202702419D02*
X597551503Y-203750038D01*
X598599122Y-203654800D02*
X598599122Y-203750038D01*
X598599122Y-203750038D02*
X598503884Y-203940514D01*
X598503884Y-203940514D02*
X598408646Y-204035752D01*
X602027694Y-201845276D02*
X601837218Y-201750038D01*
X601837218Y-201750038D02*
X601551504Y-201750038D01*
X601551504Y-201750038D02*
X601265789Y-201845276D01*
X601265789Y-201845276D02*
X601075313Y-202035752D01*
X601075313Y-202035752D02*
X600980075Y-202226228D01*
X600980075Y-202226228D02*
X600884837Y-202607180D01*
X600884837Y-202607180D02*
X600884837Y-202892895D01*
X600884837Y-202892895D02*
X600980075Y-203273847D01*
X600980075Y-203273847D02*
X601075313Y-203464323D01*
X601075313Y-203464323D02*
X601265789Y-203654800D01*
X601265789Y-203654800D02*
X601551504Y-203750038D01*
X601551504Y-203750038D02*
X601741980Y-203750038D01*
X601741980Y-203750038D02*
X602027694Y-203654800D01*
X602027694Y-203654800D02*
X602122932Y-203559561D01*
X602122932Y-203559561D02*
X602122932Y-202892895D01*
X602122932Y-202892895D02*
X601741980Y-202892895D01*
X603741980Y-203654800D02*
X603551504Y-203750038D01*
X603551504Y-203750038D02*
X603170551Y-203750038D01*
X603170551Y-203750038D02*
X602980075Y-203654800D01*
X602980075Y-203654800D02*
X602884837Y-203464323D01*
X602884837Y-203464323D02*
X602884837Y-202702419D01*
X602884837Y-202702419D02*
X602980075Y-202511942D01*
X602980075Y-202511942D02*
X603170551Y-202416704D01*
X603170551Y-202416704D02*
X603551504Y-202416704D01*
X603551504Y-202416704D02*
X603741980Y-202511942D01*
X603741980Y-202511942D02*
X603837218Y-202702419D01*
X603837218Y-202702419D02*
X603837218Y-202892895D01*
X603837218Y-202892895D02*
X602884837Y-203083371D01*
X604694361Y-203750038D02*
X604694361Y-202416704D01*
X604694361Y-202797657D02*
X604789599Y-202607180D01*
X604789599Y-202607180D02*
X604884837Y-202511942D01*
X604884837Y-202511942D02*
X605075313Y-202416704D01*
X605075313Y-202416704D02*
X605265790Y-202416704D01*
X605932456Y-203750038D02*
X605932456Y-202416704D01*
X605932456Y-202607180D02*
X606027694Y-202511942D01*
X606027694Y-202511942D02*
X606218170Y-202416704D01*
X606218170Y-202416704D02*
X606503885Y-202416704D01*
X606503885Y-202416704D02*
X606694361Y-202511942D01*
X606694361Y-202511942D02*
X606789599Y-202702419D01*
X606789599Y-202702419D02*
X606789599Y-203750038D01*
X606789599Y-202702419D02*
X606884837Y-202511942D01*
X606884837Y-202511942D02*
X607075313Y-202416704D01*
X607075313Y-202416704D02*
X607361027Y-202416704D01*
X607361027Y-202416704D02*
X607551504Y-202511942D01*
X607551504Y-202511942D02*
X607646742Y-202702419D01*
X607646742Y-202702419D02*
X607646742Y-203750038D01*
X609456266Y-203750038D02*
X609456266Y-202702419D01*
X609456266Y-202702419D02*
X609361028Y-202511942D01*
X609361028Y-202511942D02*
X609170552Y-202416704D01*
X609170552Y-202416704D02*
X608789599Y-202416704D01*
X608789599Y-202416704D02*
X608599123Y-202511942D01*
X609456266Y-203654800D02*
X609265790Y-203750038D01*
X609265790Y-203750038D02*
X608789599Y-203750038D01*
X608789599Y-203750038D02*
X608599123Y-203654800D01*
X608599123Y-203654800D02*
X608503885Y-203464323D01*
X608503885Y-203464323D02*
X608503885Y-203273847D01*
X608503885Y-203273847D02*
X608599123Y-203083371D01*
X608599123Y-203083371D02*
X608789599Y-202988133D01*
X608789599Y-202988133D02*
X609265790Y-202988133D01*
X609265790Y-202988133D02*
X609456266Y-202892895D01*
X610408647Y-202416704D02*
X610408647Y-203750038D01*
X610408647Y-202607180D02*
X610503885Y-202511942D01*
X610503885Y-202511942D02*
X610694361Y-202416704D01*
X610694361Y-202416704D02*
X610980076Y-202416704D01*
X610980076Y-202416704D02*
X611170552Y-202511942D01*
X611170552Y-202511942D02*
X611265790Y-202702419D01*
X611265790Y-202702419D02*
X611265790Y-203750038D01*
X612027695Y-202416704D02*
X612503885Y-203750038D01*
X612980076Y-202416704D02*
X612503885Y-203750038D01*
X612503885Y-203750038D02*
X612313409Y-204226228D01*
X612313409Y-204226228D02*
X612218171Y-204321466D01*
X612218171Y-204321466D02*
X612027695Y-204416704D01*
X629551503Y-202616704D02*
X629932455Y-203950038D01*
X629932455Y-203950038D02*
X630313408Y-202997657D01*
X630313408Y-202997657D02*
X630694360Y-203950038D01*
X630694360Y-203950038D02*
X631075312Y-202616704D01*
X631646741Y-202616704D02*
X632027693Y-203950038D01*
X632027693Y-203950038D02*
X632408646Y-202997657D01*
X632408646Y-202997657D02*
X632789598Y-203950038D01*
X632789598Y-203950038D02*
X633170550Y-202616704D01*
X633741979Y-202616704D02*
X634122931Y-203950038D01*
X634122931Y-203950038D02*
X634503884Y-202997657D01*
X634503884Y-202997657D02*
X634884836Y-203950038D01*
X634884836Y-203950038D02*
X635265788Y-202616704D01*
X636027693Y-203759561D02*
X636122931Y-203854800D01*
X636122931Y-203854800D02*
X636027693Y-203950038D01*
X636027693Y-203950038D02*
X635932455Y-203854800D01*
X635932455Y-203854800D02*
X636027693Y-203759561D01*
X636027693Y-203759561D02*
X636027693Y-203950038D01*
X637837217Y-203950038D02*
X637837217Y-202902419D01*
X637837217Y-202902419D02*
X637741979Y-202711942D01*
X637741979Y-202711942D02*
X637551503Y-202616704D01*
X637551503Y-202616704D02*
X637170550Y-202616704D01*
X637170550Y-202616704D02*
X636980074Y-202711942D01*
X637837217Y-203854800D02*
X637646741Y-203950038D01*
X637646741Y-203950038D02*
X637170550Y-203950038D01*
X637170550Y-203950038D02*
X636980074Y-203854800D01*
X636980074Y-203854800D02*
X636884836Y-203664323D01*
X636884836Y-203664323D02*
X636884836Y-203473847D01*
X636884836Y-203473847D02*
X636980074Y-203283371D01*
X636980074Y-203283371D02*
X637170550Y-203188133D01*
X637170550Y-203188133D02*
X637646741Y-203188133D01*
X637646741Y-203188133D02*
X637837217Y-203092895D01*
X638789598Y-202616704D02*
X638789598Y-203950038D01*
X638789598Y-202807180D02*
X638884836Y-202711942D01*
X638884836Y-202711942D02*
X639075312Y-202616704D01*
X639075312Y-202616704D02*
X639361027Y-202616704D01*
X639361027Y-202616704D02*
X639551503Y-202711942D01*
X639551503Y-202711942D02*
X639646741Y-202902419D01*
X639646741Y-202902419D02*
X639646741Y-203950038D01*
X640313408Y-202616704D02*
X641075312Y-202616704D01*
X640599122Y-201950038D02*
X640599122Y-203664323D01*
X640599122Y-203664323D02*
X640694360Y-203854800D01*
X640694360Y-203854800D02*
X640884836Y-203950038D01*
X640884836Y-203950038D02*
X641075312Y-203950038D01*
X642027693Y-203950038D02*
X641837217Y-203854800D01*
X641837217Y-203854800D02*
X641741979Y-203759561D01*
X641741979Y-203759561D02*
X641646741Y-203569085D01*
X641646741Y-203569085D02*
X641646741Y-202997657D01*
X641646741Y-202997657D02*
X641741979Y-202807180D01*
X641741979Y-202807180D02*
X641837217Y-202711942D01*
X641837217Y-202711942D02*
X642027693Y-202616704D01*
X642027693Y-202616704D02*
X642313408Y-202616704D01*
X642313408Y-202616704D02*
X642503884Y-202711942D01*
X642503884Y-202711942D02*
X642599122Y-202807180D01*
X642599122Y-202807180D02*
X642694360Y-202997657D01*
X642694360Y-202997657D02*
X642694360Y-203569085D01*
X642694360Y-203569085D02*
X642599122Y-203759561D01*
X642599122Y-203759561D02*
X642503884Y-203854800D01*
X642503884Y-203854800D02*
X642313408Y-203950038D01*
X642313408Y-203950038D02*
X642027693Y-203950038D01*
X643551503Y-202616704D02*
X643551503Y-203950038D01*
X643551503Y-202807180D02*
X643646741Y-202711942D01*
X643646741Y-202711942D02*
X643837217Y-202616704D01*
X643837217Y-202616704D02*
X644122932Y-202616704D01*
X644122932Y-202616704D02*
X644313408Y-202711942D01*
X644313408Y-202711942D02*
X644408646Y-202902419D01*
X644408646Y-202902419D02*
X644408646Y-203950038D01*
X645361027Y-203950038D02*
X645361027Y-202616704D01*
X645361027Y-201950038D02*
X645265789Y-202045276D01*
X645265789Y-202045276D02*
X645361027Y-202140514D01*
X645361027Y-202140514D02*
X645456265Y-202045276D01*
X645456265Y-202045276D02*
X645361027Y-201950038D01*
X645361027Y-201950038D02*
X645361027Y-202140514D01*
X646599122Y-203950038D02*
X646408646Y-203854800D01*
X646408646Y-203854800D02*
X646313408Y-203759561D01*
X646313408Y-203759561D02*
X646218170Y-203569085D01*
X646218170Y-203569085D02*
X646218170Y-202997657D01*
X646218170Y-202997657D02*
X646313408Y-202807180D01*
X646313408Y-202807180D02*
X646408646Y-202711942D01*
X646408646Y-202711942D02*
X646599122Y-202616704D01*
X646599122Y-202616704D02*
X646884837Y-202616704D01*
X646884837Y-202616704D02*
X647075313Y-202711942D01*
X647075313Y-202711942D02*
X647170551Y-202807180D01*
X647170551Y-202807180D02*
X647265789Y-202997657D01*
X647265789Y-202997657D02*
X647265789Y-203569085D01*
X647265789Y-203569085D02*
X647170551Y-203759561D01*
X647170551Y-203759561D02*
X647075313Y-203854800D01*
X647075313Y-203854800D02*
X646884837Y-203950038D01*
X646884837Y-203950038D02*
X646599122Y-203950038D01*
X648980075Y-203854800D02*
X648789599Y-203950038D01*
X648789599Y-203950038D02*
X648408646Y-203950038D01*
X648408646Y-203950038D02*
X648218170Y-203854800D01*
X648218170Y-203854800D02*
X648122932Y-203759561D01*
X648122932Y-203759561D02*
X648027694Y-203569085D01*
X648027694Y-203569085D02*
X648027694Y-202997657D01*
X648027694Y-202997657D02*
X648122932Y-202807180D01*
X648122932Y-202807180D02*
X648218170Y-202711942D01*
X648218170Y-202711942D02*
X648408646Y-202616704D01*
X648408646Y-202616704D02*
X648789599Y-202616704D01*
X648789599Y-202616704D02*
X648980075Y-202711942D01*
X650694361Y-203950038D02*
X650694361Y-202902419D01*
X650694361Y-202902419D02*
X650599123Y-202711942D01*
X650599123Y-202711942D02*
X650408647Y-202616704D01*
X650408647Y-202616704D02*
X650027694Y-202616704D01*
X650027694Y-202616704D02*
X649837218Y-202711942D01*
X650694361Y-203854800D02*
X650503885Y-203950038D01*
X650503885Y-203950038D02*
X650027694Y-203950038D01*
X650027694Y-203950038D02*
X649837218Y-203854800D01*
X649837218Y-203854800D02*
X649741980Y-203664323D01*
X649741980Y-203664323D02*
X649741980Y-203473847D01*
X649741980Y-203473847D02*
X649837218Y-203283371D01*
X649837218Y-203283371D02*
X650027694Y-203188133D01*
X650027694Y-203188133D02*
X650503885Y-203188133D01*
X650503885Y-203188133D02*
X650694361Y-203092895D01*
X651551504Y-203854800D02*
X651741980Y-203950038D01*
X651741980Y-203950038D02*
X652122932Y-203950038D01*
X652122932Y-203950038D02*
X652313409Y-203854800D01*
X652313409Y-203854800D02*
X652408647Y-203664323D01*
X652408647Y-203664323D02*
X652408647Y-203569085D01*
X652408647Y-203569085D02*
X652313409Y-203378609D01*
X652313409Y-203378609D02*
X652122932Y-203283371D01*
X652122932Y-203283371D02*
X651837218Y-203283371D01*
X651837218Y-203283371D02*
X651646742Y-203188133D01*
X651646742Y-203188133D02*
X651551504Y-202997657D01*
X651551504Y-202997657D02*
X651551504Y-202902419D01*
X651551504Y-202902419D02*
X651646742Y-202711942D01*
X651646742Y-202711942D02*
X651837218Y-202616704D01*
X651837218Y-202616704D02*
X652122932Y-202616704D01*
X652122932Y-202616704D02*
X652313409Y-202711942D01*
X652980076Y-202616704D02*
X653741980Y-202616704D01*
X653265790Y-201950038D02*
X653265790Y-203664323D01*
X653265790Y-203664323D02*
X653361028Y-203854800D01*
X653361028Y-203854800D02*
X653551504Y-203950038D01*
X653551504Y-203950038D02*
X653741980Y-203950038D01*
X654694361Y-203950038D02*
X654503885Y-203854800D01*
X654503885Y-203854800D02*
X654408647Y-203664323D01*
X654408647Y-203664323D02*
X654408647Y-201950038D01*
X656218171Y-203854800D02*
X656027695Y-203950038D01*
X656027695Y-203950038D02*
X655646742Y-203950038D01*
X655646742Y-203950038D02*
X655456266Y-203854800D01*
X655456266Y-203854800D02*
X655361028Y-203664323D01*
X655361028Y-203664323D02*
X655361028Y-202902419D01*
X655361028Y-202902419D02*
X655456266Y-202711942D01*
X655456266Y-202711942D02*
X655646742Y-202616704D01*
X655646742Y-202616704D02*
X656027695Y-202616704D01*
X656027695Y-202616704D02*
X656218171Y-202711942D01*
X656218171Y-202711942D02*
X656313409Y-202902419D01*
X656313409Y-202902419D02*
X656313409Y-203092895D01*
X656313409Y-203092895D02*
X655361028Y-203283371D01*
X657075314Y-203854800D02*
X657265790Y-203950038D01*
X657265790Y-203950038D02*
X657646742Y-203950038D01*
X657646742Y-203950038D02*
X657837219Y-203854800D01*
X657837219Y-203854800D02*
X657932457Y-203664323D01*
X657932457Y-203664323D02*
X657932457Y-203569085D01*
X657932457Y-203569085D02*
X657837219Y-203378609D01*
X657837219Y-203378609D02*
X657646742Y-203283371D01*
X657646742Y-203283371D02*
X657361028Y-203283371D01*
X657361028Y-203283371D02*
X657170552Y-203188133D01*
X657170552Y-203188133D02*
X657075314Y-202997657D01*
X657075314Y-202997657D02*
X657075314Y-202902419D01*
X657075314Y-202902419D02*
X657170552Y-202711942D01*
X657170552Y-202711942D02*
X657361028Y-202616704D01*
X657361028Y-202616704D02*
X657646742Y-202616704D01*
X657646742Y-202616704D02*
X657837219Y-202711942D01*
X658789600Y-203759561D02*
X658884838Y-203854800D01*
X658884838Y-203854800D02*
X658789600Y-203950038D01*
X658789600Y-203950038D02*
X658694362Y-203854800D01*
X658694362Y-203854800D02*
X658789600Y-203759561D01*
X658789600Y-203759561D02*
X658789600Y-203950038D01*
X659741981Y-202616704D02*
X659741981Y-203950038D01*
X659741981Y-202807180D02*
X659837219Y-202711942D01*
X659837219Y-202711942D02*
X660027695Y-202616704D01*
X660027695Y-202616704D02*
X660313410Y-202616704D01*
X660313410Y-202616704D02*
X660503886Y-202711942D01*
X660503886Y-202711942D02*
X660599124Y-202902419D01*
X660599124Y-202902419D02*
X660599124Y-203950038D01*
X662313410Y-203854800D02*
X662122934Y-203950038D01*
X662122934Y-203950038D02*
X661741981Y-203950038D01*
X661741981Y-203950038D02*
X661551505Y-203854800D01*
X661551505Y-203854800D02*
X661456267Y-203664323D01*
X661456267Y-203664323D02*
X661456267Y-202902419D01*
X661456267Y-202902419D02*
X661551505Y-202711942D01*
X661551505Y-202711942D02*
X661741981Y-202616704D01*
X661741981Y-202616704D02*
X662122934Y-202616704D01*
X662122934Y-202616704D02*
X662313410Y-202711942D01*
X662313410Y-202711942D02*
X662408648Y-202902419D01*
X662408648Y-202902419D02*
X662408648Y-203092895D01*
X662408648Y-203092895D02*
X661456267Y-203283371D01*
X662980077Y-202616704D02*
X663741981Y-202616704D01*
X663265791Y-201950038D02*
X663265791Y-203664323D01*
X663265791Y-203664323D02*
X663361029Y-203854800D01*
X663361029Y-203854800D02*
X663551505Y-203950038D01*
X663551505Y-203950038D02*
X663741981Y-203950038D01*
D11*
%TO.C,REF\u002A\u002A*%
X600644779Y-183151778D02*
X600308903Y-183487654D01*
X602957018Y-180839539D02*
X603292894Y-180503663D01*
X603292894Y-180503663D02*
X603628769Y-180839539D01*
X604000000Y-187178751D02*
X603664125Y-186842875D01*
X604335876Y-186842875D02*
X604000000Y-187178751D01*
X606648115Y-184530636D02*
X606983991Y-184194760D01*
X606983991Y-184194760D02*
X606648115Y-183858885D01*
G36*
X637514315Y-187846604D02*
G01*
X637514315Y-188377429D01*
X636983490Y-188377429D01*
X636452664Y-188377429D01*
X636452664Y-187846604D01*
X636452664Y-187315778D01*
X636983490Y-187315778D01*
X637514315Y-187315778D01*
X637514315Y-187846604D01*
G37*
G36*
X639637617Y-174045141D02*
G01*
X639637617Y-175637617D01*
X638045141Y-175637617D01*
X636452664Y-175637617D01*
X636452664Y-174045141D01*
X636452664Y-172452664D01*
X638045141Y-172452664D01*
X639637617Y-172452664D01*
X639637617Y-174045141D01*
G37*
G36*
X639637617Y-193154859D02*
G01*
X639637617Y-194747335D01*
X638045141Y-194747335D01*
X636452664Y-194747335D01*
X636452664Y-193154859D01*
X636452664Y-191562382D01*
X638045141Y-191562382D01*
X639637617Y-191562382D01*
X639637617Y-193154859D01*
G37*
G36*
X643884221Y-188908255D02*
G01*
X643884221Y-189439080D01*
X643353396Y-189439080D01*
X642822570Y-189439080D01*
X642822570Y-188908255D01*
X642822570Y-188377429D01*
X643353396Y-188377429D01*
X643884221Y-188377429D01*
X643884221Y-188908255D01*
G37*
G36*
X644945872Y-175106792D02*
G01*
X644945872Y-175637617D01*
X644415047Y-175637617D01*
X643884221Y-175637617D01*
X643884221Y-175106792D01*
X643884221Y-174575966D01*
X644415047Y-174575966D01*
X644945872Y-174575966D01*
X644945872Y-175106792D01*
G37*
G36*
X650254127Y-170860188D02*
G01*
X650254127Y-171391013D01*
X649723302Y-171391013D01*
X649192476Y-171391013D01*
X649192476Y-170860188D01*
X649192476Y-170329362D01*
X649723302Y-170329362D01*
X650254127Y-170329362D01*
X650254127Y-170860188D01*
G37*
G36*
X654500731Y-189969906D02*
G01*
X654500731Y-190500731D01*
X653969906Y-190500731D01*
X653439080Y-190500731D01*
X653439080Y-189969906D01*
X653439080Y-189439080D01*
X653969906Y-189439080D01*
X654500731Y-189439080D01*
X654500731Y-189969906D01*
G37*
G36*
X658747335Y-174045141D02*
G01*
X658747335Y-175637617D01*
X657154859Y-175637617D01*
X655562382Y-175637617D01*
X655562382Y-174045141D01*
X655562382Y-172452664D01*
X657154859Y-172452664D01*
X658747335Y-172452664D01*
X658747335Y-174045141D01*
G37*
G36*
X649192476Y-187846604D02*
G01*
X649192476Y-188377429D01*
X648661651Y-188377429D01*
X648130825Y-188377429D01*
X648130825Y-188908255D01*
X648130825Y-189439080D01*
X647600000Y-189439080D01*
X647069174Y-189439080D01*
X647069174Y-188377429D01*
X647069174Y-187315778D01*
X648130825Y-187315778D01*
X649192476Y-187315778D01*
X649192476Y-187846604D01*
G37*
G36*
X640699268Y-186784953D02*
G01*
X640699268Y-187315778D01*
X641760919Y-187315778D01*
X642822570Y-187315778D01*
X642822570Y-187846604D01*
X642822570Y-188377429D01*
X640699268Y-188377429D01*
X638575966Y-188377429D01*
X638575966Y-187846604D01*
X638575966Y-187315778D01*
X639106792Y-187315778D01*
X639637617Y-187315778D01*
X639637617Y-186784953D01*
X639637617Y-186254127D01*
X640168443Y-186254127D01*
X640699268Y-186254127D01*
X640699268Y-186784953D01*
G37*
G36*
X641760919Y-174045141D02*
G01*
X641760919Y-177760919D01*
X638045141Y-177760919D01*
X634329362Y-177760919D01*
X634329362Y-174045141D01*
X634329362Y-171391013D01*
X635391013Y-171391013D01*
X635391013Y-174045141D01*
X635391013Y-176699268D01*
X638045141Y-176699268D01*
X640699268Y-176699268D01*
X640699268Y-174045141D01*
X640699268Y-171391013D01*
X638045141Y-171391013D01*
X635391013Y-171391013D01*
X634329362Y-171391013D01*
X634329362Y-170329362D01*
X638045141Y-170329362D01*
X641760919Y-170329362D01*
X641760919Y-174045141D01*
G37*
G36*
X641760919Y-193154859D02*
G01*
X641760919Y-196870637D01*
X638045141Y-196870637D01*
X634329362Y-196870637D01*
X634329362Y-193154859D01*
X634329362Y-190500731D01*
X635391013Y-190500731D01*
X635391013Y-193154859D01*
X635391013Y-195808986D01*
X638045141Y-195808986D01*
X640699268Y-195808986D01*
X640699268Y-193154859D01*
X640699268Y-190500731D01*
X638045141Y-190500731D01*
X635391013Y-190500731D01*
X634329362Y-190500731D01*
X634329362Y-189439080D01*
X638045141Y-189439080D01*
X641760919Y-189439080D01*
X641760919Y-193154859D01*
G37*
G36*
X660870637Y-174045141D02*
G01*
X660870637Y-177760919D01*
X657154859Y-177760919D01*
X653439080Y-177760919D01*
X653439080Y-174045141D01*
X653439080Y-171391013D01*
X654500731Y-171391013D01*
X654500731Y-174045141D01*
X654500731Y-176699268D01*
X657154859Y-176699268D01*
X659808986Y-176699268D01*
X659808986Y-174045141D01*
X659808986Y-171391013D01*
X657154859Y-171391013D01*
X654500731Y-171391013D01*
X653439080Y-171391013D01*
X653439080Y-170329362D01*
X657154859Y-170329362D01*
X660870637Y-170329362D01*
X660870637Y-174045141D01*
G37*
G36*
X650254127Y-179353396D02*
G01*
X650254127Y-179884221D01*
X650784953Y-179884221D01*
X651315778Y-179884221D01*
X651315778Y-180415047D01*
X651315778Y-180945872D01*
X651846604Y-180945872D01*
X652377429Y-180945872D01*
X652377429Y-181476698D01*
X652377429Y-182007523D01*
X651846604Y-182007523D01*
X651315778Y-182007523D01*
X651315778Y-182538349D01*
X651315778Y-183069174D01*
X650254127Y-183069174D01*
X649192476Y-183069174D01*
X649192476Y-180945872D01*
X649192476Y-178822570D01*
X649723302Y-178822570D01*
X650254127Y-178822570D01*
X650254127Y-179353396D01*
G37*
G36*
X654500731Y-183600000D02*
G01*
X654500731Y-184130825D01*
X653439080Y-184130825D01*
X652377429Y-184130825D01*
X652377429Y-184661651D01*
X652377429Y-185192476D01*
X652908255Y-185192476D01*
X653439080Y-185192476D01*
X653439080Y-185723302D01*
X653439080Y-186254127D01*
X651846604Y-186254127D01*
X650254127Y-186254127D01*
X650254127Y-185192476D01*
X650254127Y-184130825D01*
X650784953Y-184130825D01*
X651315778Y-184130825D01*
X651315778Y-183600000D01*
X651315778Y-183069174D01*
X652908255Y-183069174D01*
X654500731Y-183069174D01*
X654500731Y-183600000D01*
G37*
G36*
X650254127Y-177230094D02*
G01*
X650254127Y-177760919D01*
X649723302Y-177760919D01*
X649192476Y-177760919D01*
X649192476Y-178291745D01*
X649192476Y-178822570D01*
X648661651Y-178822570D01*
X648130825Y-178822570D01*
X648130825Y-179353396D01*
X648130825Y-179884221D01*
X647600000Y-179884221D01*
X647069174Y-179884221D01*
X647069174Y-180415047D01*
X647069174Y-180945872D01*
X647600000Y-180945872D01*
X648130825Y-180945872D01*
X648130825Y-181476698D01*
X648130825Y-182007523D01*
X647069174Y-182007523D01*
X646007523Y-182007523D01*
X646007523Y-182538349D01*
X646007523Y-183069174D01*
X645476698Y-183069174D01*
X644945872Y-183069174D01*
X644945872Y-184661651D01*
X644945872Y-186254127D01*
X646007523Y-186254127D01*
X647069174Y-186254127D01*
X647069174Y-185723302D01*
X647069174Y-185192476D01*
X646538349Y-185192476D01*
X646007523Y-185192476D01*
X646007523Y-184661651D01*
X646007523Y-184130825D01*
X646538349Y-184130825D01*
X647069174Y-184130825D01*
X647069174Y-183600000D01*
X647069174Y-183069174D01*
X647600000Y-183069174D01*
X648130825Y-183069174D01*
X648130825Y-183600000D01*
X648130825Y-184130825D01*
X647600000Y-184130825D01*
X647069174Y-184130825D01*
X647069174Y-184661651D01*
X647069174Y-185192476D01*
X647600000Y-185192476D01*
X648130825Y-185192476D01*
X648130825Y-184661651D01*
X648130825Y-184130825D01*
X648661651Y-184130825D01*
X649192476Y-184130825D01*
X649192476Y-184661651D01*
X649192476Y-185192476D01*
X648661651Y-185192476D01*
X648130825Y-185192476D01*
X648130825Y-185723302D01*
X648130825Y-186254127D01*
X647600000Y-186254127D01*
X647069174Y-186254127D01*
X647069174Y-186784953D01*
X647069174Y-187315778D01*
X646538349Y-187315778D01*
X646007523Y-187315778D01*
X646007523Y-187846604D01*
X646007523Y-188377429D01*
X644945872Y-188377429D01*
X643884221Y-188377429D01*
X643884221Y-187846604D01*
X643884221Y-187315778D01*
X643353396Y-187315778D01*
X642822570Y-187315778D01*
X642822570Y-186784953D01*
X642822570Y-186254127D01*
X643353396Y-186254127D01*
X643884221Y-186254127D01*
X643884221Y-186784953D01*
X643884221Y-187315778D01*
X644415047Y-187315778D01*
X644945872Y-187315778D01*
X644945872Y-186784953D01*
X644945872Y-186254127D01*
X644415047Y-186254127D01*
X643884221Y-186254127D01*
X643884221Y-184130825D01*
X643884221Y-182007523D01*
X644415047Y-182007523D01*
X644945872Y-182007523D01*
X644945872Y-181476698D01*
X644945872Y-180945872D01*
X645476698Y-180945872D01*
X646007523Y-180945872D01*
X646007523Y-180415047D01*
X646007523Y-179884221D01*
X646538349Y-179884221D01*
X647069174Y-179884221D01*
X647069174Y-179353396D01*
X647069174Y-178822570D01*
X647600000Y-178822570D01*
X648130825Y-178822570D01*
X648130825Y-178291745D01*
X648130825Y-177760919D01*
X648661651Y-177760919D01*
X649192476Y-177760919D01*
X649192476Y-177230094D01*
X649192476Y-176699268D01*
X649723302Y-176699268D01*
X650254127Y-176699268D01*
X650254127Y-177230094D01*
G37*
G36*
X642822570Y-185723302D02*
G01*
X642822570Y-186254127D01*
X641760919Y-186254127D01*
X640699268Y-186254127D01*
X640699268Y-185723302D01*
X640699268Y-185192476D01*
X641760919Y-185192476D01*
X642822570Y-185192476D01*
X642822570Y-185723302D01*
G37*
G36*
X643884221Y-170860188D02*
G01*
X643884221Y-171391013D01*
X644415047Y-171391013D01*
X644945872Y-171391013D01*
X644945872Y-170860188D01*
X644945872Y-170329362D01*
X646538349Y-170329362D01*
X648130825Y-170329362D01*
X648130825Y-171391013D01*
X648130825Y-172452664D01*
X649723302Y-172452664D01*
X651315778Y-172452664D01*
X651315778Y-171921839D01*
X651315778Y-171391013D01*
X651846604Y-171391013D01*
X652377429Y-171391013D01*
X652377429Y-175637617D01*
X652377429Y-179884221D01*
X652908255Y-179884221D01*
X653439080Y-179884221D01*
X653439080Y-179353396D01*
X653439080Y-178822570D01*
X653969906Y-178822570D01*
X654500731Y-178822570D01*
X654500731Y-179353396D01*
X654500731Y-179884221D01*
X657154859Y-179884221D01*
X659808986Y-179884221D01*
X659808986Y-179353396D01*
X659808986Y-178822570D01*
X660339812Y-178822570D01*
X660870637Y-178822570D01*
X660870637Y-179353396D01*
X660870637Y-179884221D01*
X660339812Y-179884221D01*
X659808986Y-179884221D01*
X659808986Y-180415047D01*
X659808986Y-180945872D01*
X658747335Y-180945872D01*
X657685684Y-180945872D01*
X657685684Y-181476698D01*
X657685684Y-182007523D01*
X658747335Y-182007523D01*
X659808986Y-182007523D01*
X659808986Y-181476698D01*
X659808986Y-180945872D01*
X660339812Y-180945872D01*
X660870637Y-180945872D01*
X660870637Y-182538349D01*
X660870637Y-184130825D01*
X660339812Y-184130825D01*
X659808986Y-184130825D01*
X659808986Y-184661651D01*
X659808986Y-185192476D01*
X660339812Y-185192476D01*
X660870637Y-185192476D01*
X660870637Y-186254127D01*
X660870637Y-187315778D01*
X660339812Y-187315778D01*
X659808986Y-187315778D01*
X659808986Y-188377429D01*
X659808986Y-189439080D01*
X659278161Y-189439080D01*
X658747335Y-189439080D01*
X658747335Y-188908255D01*
X658747335Y-188377429D01*
X658216510Y-188377429D01*
X657685684Y-188377429D01*
X657685684Y-187315778D01*
X657685684Y-186254127D01*
X658747335Y-186254127D01*
X658747335Y-186784953D01*
X658747335Y-187315778D01*
X659278161Y-187315778D01*
X659808986Y-187315778D01*
X659808986Y-186784953D01*
X659808986Y-186254127D01*
X659278161Y-186254127D01*
X658747335Y-186254127D01*
X657685684Y-186254127D01*
X657154859Y-186254127D01*
X656624033Y-186254127D01*
X656624033Y-187846604D01*
X656624033Y-189439080D01*
X657154859Y-189439080D01*
X657685684Y-189439080D01*
X657685684Y-189969906D01*
X657685684Y-190500731D01*
X657154859Y-190500731D01*
X656624033Y-190500731D01*
X656624033Y-191031557D01*
X656624033Y-191562382D01*
X657154859Y-191562382D01*
X657685684Y-191562382D01*
X657685684Y-192624033D01*
X657685684Y-193685684D01*
X657154859Y-193685684D01*
X656624033Y-193685684D01*
X656624033Y-193154859D01*
X656624033Y-192624033D01*
X656093208Y-192624033D01*
X655562382Y-192624033D01*
X655562382Y-193154859D01*
X655562382Y-193685684D01*
X656093208Y-193685684D01*
X656624033Y-193685684D01*
X656624033Y-194747335D01*
X656624033Y-195808986D01*
X657154859Y-195808986D01*
X657685684Y-195808986D01*
X657685684Y-194747335D01*
X657685684Y-193685684D01*
X658216510Y-193685684D01*
X658747335Y-193685684D01*
X658747335Y-192093208D01*
X658747335Y-190500731D01*
X659278161Y-190500731D01*
X659808986Y-190500731D01*
X659808986Y-189969906D01*
X659808986Y-189439080D01*
X660339812Y-189439080D01*
X660870637Y-189439080D01*
X660870637Y-190500731D01*
X660870637Y-191562382D01*
X660339812Y-191562382D01*
X659808986Y-191562382D01*
X659808986Y-192093208D01*
X659808986Y-192624033D01*
X660339812Y-192624033D01*
X660870637Y-192624033D01*
X660870637Y-194747335D01*
X660870637Y-196870637D01*
X660339812Y-196870637D01*
X659808986Y-196870637D01*
X659808986Y-196339812D01*
X659808986Y-195808986D01*
X658747335Y-195808986D01*
X657685684Y-195808986D01*
X657685684Y-196339812D01*
X657685684Y-196870637D01*
X657154859Y-196870637D01*
X656624033Y-196870637D01*
X656624033Y-196339812D01*
X656624033Y-195808986D01*
X655562382Y-195808986D01*
X654500731Y-195808986D01*
X654500731Y-196339812D01*
X654500731Y-196870637D01*
X653969906Y-196870637D01*
X653439080Y-196870637D01*
X653439080Y-196339812D01*
X653439080Y-195808986D01*
X652908255Y-195808986D01*
X652377429Y-195808986D01*
X652377429Y-196339812D01*
X652377429Y-196870637D01*
X651846604Y-196870637D01*
X651315778Y-196870637D01*
X651315778Y-196339812D01*
X651315778Y-195808986D01*
X651846604Y-195808986D01*
X652377429Y-195808986D01*
X652377429Y-195278161D01*
X652377429Y-194747335D01*
X651846604Y-194747335D01*
X651315778Y-194747335D01*
X651315778Y-194216510D01*
X651315778Y-193685684D01*
X651846604Y-193685684D01*
X652377429Y-193685684D01*
X653439080Y-193685684D01*
X653439080Y-194216510D01*
X653439080Y-194747335D01*
X653969906Y-194747335D01*
X654500731Y-194747335D01*
X654500731Y-194216510D01*
X654500731Y-193685684D01*
X653969906Y-193685684D01*
X653439080Y-193685684D01*
X652377429Y-193685684D01*
X652377429Y-193154859D01*
X652377429Y-192624033D01*
X651315778Y-192624033D01*
X650254127Y-192624033D01*
X650254127Y-193154859D01*
X650254127Y-193685684D01*
X649192476Y-193685684D01*
X648130825Y-193685684D01*
X648130825Y-193154859D01*
X648130825Y-192624033D01*
X648661651Y-192624033D01*
X649192476Y-192624033D01*
X649192476Y-192093208D01*
X649192476Y-191562382D01*
X647069174Y-191562382D01*
X644945872Y-191562382D01*
X644945872Y-192093208D01*
X644945872Y-192624033D01*
X646007523Y-192624033D01*
X647069174Y-192624033D01*
X647069174Y-194216510D01*
X647069174Y-195808986D01*
X647600000Y-195808986D01*
X648130825Y-195808986D01*
X648130825Y-196339812D01*
X648130825Y-196870637D01*
X647069174Y-196870637D01*
X646007523Y-196870637D01*
X646007523Y-195808986D01*
X646007523Y-194747335D01*
X644945872Y-194747335D01*
X643884221Y-194747335D01*
X643884221Y-195808986D01*
X643884221Y-196870637D01*
X643353396Y-196870637D01*
X642822570Y-196870637D01*
X642822570Y-195808986D01*
X642822570Y-194747335D01*
X643353396Y-194747335D01*
X643884221Y-194747335D01*
X643884221Y-194216510D01*
X643884221Y-193685684D01*
X643353396Y-193685684D01*
X642822570Y-193685684D01*
X642822570Y-192624033D01*
X642822570Y-191562382D01*
X643353396Y-191562382D01*
X643884221Y-191562382D01*
X643884221Y-190500731D01*
X643884221Y-189439080D01*
X644415047Y-189439080D01*
X644945872Y-189439080D01*
X644945872Y-189969906D01*
X644945872Y-190500731D01*
X645476698Y-190500731D01*
X646007523Y-190500731D01*
X646007523Y-189969906D01*
X646007523Y-189439080D01*
X646538349Y-189439080D01*
X647069174Y-189439080D01*
X647069174Y-189969906D01*
X647069174Y-190500731D01*
X647600000Y-190500731D01*
X648130825Y-190500731D01*
X648130825Y-189969906D01*
X648130825Y-189439080D01*
X648661651Y-189439080D01*
X649192476Y-189439080D01*
X649192476Y-189969906D01*
X649192476Y-190500731D01*
X650254127Y-190500731D01*
X651315778Y-190500731D01*
X651315778Y-189969906D01*
X651315778Y-189439080D01*
X650254127Y-189439080D01*
X649192476Y-189439080D01*
X649192476Y-188908255D01*
X649192476Y-188377429D01*
X649723302Y-188377429D01*
X650254127Y-188377429D01*
X652377429Y-188377429D01*
X652377429Y-189969906D01*
X652377429Y-191562382D01*
X653969906Y-191562382D01*
X655562382Y-191562382D01*
X655562382Y-189969906D01*
X655562382Y-188377429D01*
X653969906Y-188377429D01*
X652377429Y-188377429D01*
X650254127Y-188377429D01*
X650254127Y-187846604D01*
X650254127Y-187315778D01*
X652377429Y-187315778D01*
X654500731Y-187315778D01*
X654500731Y-186784953D01*
X654500731Y-186254127D01*
X655031557Y-186254127D01*
X655562382Y-186254127D01*
X655562382Y-185192476D01*
X655562382Y-184130825D01*
X656093208Y-184130825D01*
X656624033Y-184130825D01*
X656624033Y-184661651D01*
X656624033Y-185192476D01*
X657685684Y-185192476D01*
X658747335Y-185192476D01*
X658747335Y-184661651D01*
X658747335Y-184130825D01*
X659278161Y-184130825D01*
X659808986Y-184130825D01*
X659808986Y-183600000D01*
X659808986Y-183069174D01*
X658216510Y-183069174D01*
X656624033Y-183069174D01*
X656624033Y-182007523D01*
X656624033Y-180945872D01*
X656093208Y-180945872D01*
X655562382Y-180945872D01*
X655562382Y-182007523D01*
X655562382Y-183069174D01*
X655031557Y-183069174D01*
X654500731Y-183069174D01*
X654500731Y-182538349D01*
X654500731Y-182007523D01*
X653969906Y-182007523D01*
X653439080Y-182007523D01*
X653439080Y-181476698D01*
X653439080Y-180945872D01*
X653969906Y-180945872D01*
X654500731Y-180945872D01*
X654500731Y-180415047D01*
X654500731Y-179884221D01*
X653969906Y-179884221D01*
X653439080Y-179884221D01*
X653439080Y-180415047D01*
X653439080Y-180945872D01*
X652908255Y-180945872D01*
X652377429Y-180945872D01*
X652377429Y-180415047D01*
X652377429Y-179884221D01*
X651846604Y-179884221D01*
X651315778Y-179884221D01*
X651315778Y-179353396D01*
X651315778Y-178822570D01*
X650784953Y-178822570D01*
X650254127Y-178822570D01*
X650254127Y-178291745D01*
X650254127Y-177760919D01*
X650784953Y-177760919D01*
X651315778Y-177760919D01*
X651315778Y-176168443D01*
X651315778Y-174575966D01*
X650784953Y-174575966D01*
X650254127Y-174575966D01*
X650254127Y-175106792D01*
X650254127Y-175637617D01*
X649723302Y-175637617D01*
X649192476Y-175637617D01*
X649192476Y-176168443D01*
X649192476Y-176699268D01*
X648661651Y-176699268D01*
X648130825Y-176699268D01*
X648130825Y-177230094D01*
X648130825Y-177760919D01*
X647600000Y-177760919D01*
X647069174Y-177760919D01*
X647069174Y-177230094D01*
X647069174Y-176699268D01*
X646538349Y-176699268D01*
X646007523Y-176699268D01*
X646007523Y-178291745D01*
X646007523Y-179884221D01*
X645476698Y-179884221D01*
X644945872Y-179884221D01*
X644945872Y-180415047D01*
X644945872Y-180945872D01*
X644415047Y-180945872D01*
X643884221Y-180945872D01*
X643884221Y-181476698D01*
X643884221Y-182007523D01*
X643353396Y-182007523D01*
X642822570Y-182007523D01*
X642822570Y-182538349D01*
X642822570Y-183069174D01*
X642291745Y-183069174D01*
X641760919Y-183069174D01*
X641760919Y-182538349D01*
X641760919Y-182007523D01*
X641230094Y-182007523D01*
X640699268Y-182007523D01*
X640699268Y-181476698D01*
X640699268Y-180945872D01*
X640168443Y-180945872D01*
X639637617Y-180945872D01*
X639637617Y-182007523D01*
X639637617Y-183069174D01*
X639106792Y-183069174D01*
X638575966Y-183069174D01*
X638575966Y-183600000D01*
X638575966Y-184130825D01*
X639106792Y-184130825D01*
X639637617Y-184130825D01*
X639637617Y-183600000D01*
X639637617Y-183069174D01*
X640699268Y-183069174D01*
X641760919Y-183069174D01*
X641760919Y-183600000D01*
X641760919Y-184130825D01*
X641230094Y-184130825D01*
X640699268Y-184130825D01*
X640699268Y-184661651D01*
X640699268Y-185192476D01*
X640168443Y-185192476D01*
X639637617Y-185192476D01*
X639637617Y-185723302D01*
X639637617Y-186254127D01*
X639106792Y-186254127D01*
X638575966Y-186254127D01*
X638575966Y-185192476D01*
X638575966Y-184130825D01*
X636983490Y-184130825D01*
X635391013Y-184130825D01*
X635391013Y-184661651D01*
X635391013Y-185192476D01*
X635921839Y-185192476D01*
X636452664Y-185192476D01*
X636452664Y-185723302D01*
X636452664Y-186254127D01*
X635921839Y-186254127D01*
X635391013Y-186254127D01*
X635391013Y-187315778D01*
X635391013Y-188377429D01*
X634860188Y-188377429D01*
X634329362Y-188377429D01*
X634329362Y-183600000D01*
X634329362Y-183069174D01*
X635391013Y-183069174D01*
X635921839Y-183069174D01*
X636452664Y-183069174D01*
X636452664Y-182538349D01*
X636452664Y-182007523D01*
X636983490Y-182007523D01*
X637514315Y-182007523D01*
X637514315Y-181476698D01*
X637514315Y-180945872D01*
X638575966Y-180945872D01*
X639637617Y-180945872D01*
X639637617Y-180415047D01*
X639637617Y-179884221D01*
X638575966Y-179884221D01*
X637514315Y-179884221D01*
X637514315Y-180415047D01*
X637514315Y-180945872D01*
X636983490Y-180945872D01*
X636452664Y-180945872D01*
X636452664Y-181476698D01*
X636452664Y-182007523D01*
X635921839Y-182007523D01*
X635391013Y-182007523D01*
X635391013Y-182538349D01*
X635391013Y-183069174D01*
X634329362Y-183069174D01*
X634329362Y-178822570D01*
X635391013Y-178822570D01*
X636452664Y-178822570D01*
X636452664Y-179353396D01*
X636452664Y-179884221D01*
X636983490Y-179884221D01*
X637514315Y-179884221D01*
X637514315Y-179353396D01*
X637514315Y-178822570D01*
X638575966Y-178822570D01*
X639637617Y-178822570D01*
X639637617Y-179353396D01*
X639637617Y-179884221D01*
X640168443Y-179884221D01*
X640699268Y-179884221D01*
X640699268Y-179353396D01*
X640699268Y-178822570D01*
X641230094Y-178822570D01*
X641760919Y-178822570D01*
X641760919Y-179353396D01*
X641760919Y-179884221D01*
X641230094Y-179884221D01*
X640699268Y-179884221D01*
X640699268Y-180415047D01*
X640699268Y-180945872D01*
X641760919Y-180945872D01*
X642822570Y-180945872D01*
X642822570Y-180415047D01*
X642822570Y-179884221D01*
X643353396Y-179884221D01*
X643884221Y-179884221D01*
X643884221Y-179353396D01*
X643884221Y-178822570D01*
X643353396Y-178822570D01*
X642822570Y-178822570D01*
X642822570Y-177760919D01*
X642822570Y-176699268D01*
X643353396Y-176699268D01*
X643884221Y-176699268D01*
X643884221Y-177760919D01*
X643884221Y-178822570D01*
X644415047Y-178822570D01*
X644945872Y-178822570D01*
X644945872Y-177230094D01*
X644945872Y-175637617D01*
X646007523Y-175637617D01*
X647069174Y-175637617D01*
X647069174Y-176168443D01*
X647069174Y-176699268D01*
X647600000Y-176699268D01*
X648130825Y-176699268D01*
X648130825Y-176168443D01*
X648130825Y-175637617D01*
X648661651Y-175637617D01*
X649192476Y-175637617D01*
X649192476Y-175106792D01*
X649192476Y-174575966D01*
X648661651Y-174575966D01*
X648130825Y-174575966D01*
X648130825Y-173514315D01*
X649192476Y-173514315D01*
X649192476Y-174045141D01*
X649192476Y-174575966D01*
X649723302Y-174575966D01*
X650254127Y-174575966D01*
X650254127Y-174045141D01*
X650254127Y-173514315D01*
X649723302Y-173514315D01*
X649192476Y-173514315D01*
X648130825Y-173514315D01*
X648130825Y-172452664D01*
X647600000Y-172452664D01*
X647069174Y-172452664D01*
X647069174Y-171921839D01*
X647069174Y-171391013D01*
X646538349Y-171391013D01*
X646007523Y-171391013D01*
X646007523Y-172452664D01*
X646007523Y-173514315D01*
X645476698Y-173514315D01*
X644945872Y-173514315D01*
X644945872Y-172983490D01*
X644945872Y-172452664D01*
X644415047Y-172452664D01*
X643884221Y-172452664D01*
X643884221Y-171921839D01*
X643884221Y-171391013D01*
X643353396Y-171391013D01*
X642822570Y-171391013D01*
X642822570Y-170860188D01*
X642822570Y-170329362D01*
X643353396Y-170329362D01*
X643884221Y-170329362D01*
X643884221Y-170860188D01*
G37*
%TD*%
M02*
