M48
; DRILL file {KiCad 7.0.8} date Wed 15 Nov 2023 02:15:28 PM CET
; FORMAT={-:-/ absolute / metric / decimal}
; #@! TF.CreationDate,2023-11-15T14:15:28+01:00
; #@! TF.GenerationSoftware,Kicad,Pcbnew,7.0.8
; #@! TF.FileFunction,MixedPlating,1,4
FMAT,2
METRIC
; #@! TA.AperFunction,Plated,PTH,ViaDrill
T1C0.250
; #@! TA.AperFunction,NonPlated,NPTH,ComponentDrill
T2C1.700
%
G90
G05
T1
X591.393Y-175.28
X591.393Y-177.82
X591.393Y-180.36
X591.393Y-182.9
X591.393Y-185.44
X591.393Y-187.98
X591.393Y-190.52
X591.393Y-193.06
X591.393Y-195.6
X593.933Y-175.28
X593.933Y-177.82
X593.933Y-180.36
X593.933Y-182.9
X593.933Y-185.44
X593.933Y-187.98
X593.933Y-190.52
X593.933Y-195.6
X594.55Y-193.45
X595.25Y-194.7
X595.4Y-194.1
X596.473Y-175.28
X596.473Y-185.44
X596.473Y-187.98
X596.473Y-190.52
X596.473Y-195.6
X598.25Y-195.25
X599.013Y-180.36
X599.013Y-185.44
X599.013Y-187.98
X599.013Y-190.52
X600.05Y-195.8
X600.15Y-194.7
X601.553Y-177.82
X601.553Y-180.36
X604.093Y-195.6
X604.35Y-174.75
X605.5Y-174.15
X606.633Y-193.06
X606.633Y-195.6
X609.173Y-193.06
X609.173Y-195.6
X611.713Y-180.36
X611.713Y-193.06
X611.713Y-195.6
X613.85Y-190.75
X614.253Y-180.36
X614.253Y-182.9
X614.253Y-185.44
X614.253Y-193.06
X614.253Y-195.6
X614.6Y-186.8
X616.793Y-180.36
X616.793Y-182.9
X616.793Y-185.44
X616.793Y-193.06
X616.793Y-195.6
X618.25Y-182.35
X619.333Y-180.36
X619.333Y-182.9
X619.333Y-185.44
X619.333Y-190.52
X619.333Y-193.06
X619.333Y-195.6
X619.65Y-188.3
X620.65Y-178.45
X621.873Y-177.82
X621.873Y-180.36
X621.873Y-182.9
X621.873Y-185.44
X621.873Y-187.98
X621.873Y-190.52
X621.873Y-193.06
X621.873Y-195.6
X623.55Y-186.65
X624.413Y-180.36
X624.413Y-182.9
X624.413Y-185.44
X624.413Y-187.98
X624.413Y-190.52
X624.413Y-193.06
X624.413Y-195.6
X626.549Y-179.823
X626.953Y-175.28
X626.953Y-182.9
X626.953Y-185.44
X626.953Y-187.98
X626.953Y-190.52
X626.953Y-193.06
X626.953Y-195.6
X627.1Y-179.45
X627.8Y-179.2
X628.55Y-179.05
T2
X585.9Y-161.1
X586.1Y-210.6
X665.6Y-161.0
X665.6Y-210.5
T0
M30
