M48
; DRILL file {KiCad 7.0.8} date Wed 15 Nov 2023 12:31:48 PM CET
; FORMAT={-:-/ absolute / metric / decimal}
; #@! TF.CreationDate,2023-11-15T12:31:48+01:00
; #@! TF.GenerationSoftware,Kicad,Pcbnew,7.0.8
; #@! TF.FileFunction,MixedPlating,1,4
FMAT,2
METRIC
; #@! TA.AperFunction,Plated,PTH,ViaDrill
T1C0.250
; #@! TA.AperFunction,Plated,PTH,ComponentDrill
T2C0.500
; #@! TA.AperFunction,Plated,PTH,ComponentDrill
T3C1.000
; #@! TA.AperFunction,Plated,PTH,ComponentDrill
T4C1.150
; #@! TA.AperFunction,Plated,PTH,ComponentDrill
T5C3.200
%
G90
G05
T1
X119.91Y-549.53
X119.91Y-552.07
X119.91Y-554.61
X119.91Y-557.15
X119.91Y-559.69
X119.91Y-562.23
X119.91Y-564.77
X119.91Y-567.31
X119.91Y-569.85
X119.91Y-572.39
X119.91Y-574.93
X119.91Y-577.47
X119.91Y-580.01
X119.91Y-582.55
X119.91Y-585.09
X119.91Y-587.63
X119.91Y-590.17
X119.91Y-592.71
X119.91Y-595.25
X119.91Y-605.41
X119.91Y-607.95
X119.91Y-610.49
X119.91Y-613.03
X119.91Y-615.57
X119.91Y-618.11
X119.91Y-620.65
X119.91Y-623.19
X119.91Y-625.73
X119.91Y-628.27
X119.91Y-630.81
X119.91Y-633.35
X119.91Y-635.89
X119.91Y-638.43
X119.91Y-640.97
X119.91Y-643.51
X119.91Y-646.05
X119.91Y-648.59
X119.91Y-651.13
X119.91Y-661.29
X119.91Y-663.83
X119.91Y-666.37
X119.91Y-668.91
X119.91Y-671.45
X119.91Y-673.99
X119.91Y-676.53
X119.91Y-679.07
X119.91Y-681.61
X119.91Y-684.15
X119.91Y-686.69
X119.91Y-689.23
X119.91Y-691.77
X119.91Y-694.31
X119.91Y-696.85
X119.91Y-699.39
X119.91Y-701.93
X122.45Y-549.53
X122.45Y-552.07
X122.45Y-554.61
X122.45Y-557.15
X122.45Y-559.69
X122.45Y-562.23
X122.45Y-564.77
X122.45Y-567.31
X122.45Y-569.85
X122.45Y-572.39
X122.45Y-574.93
X122.45Y-577.47
X122.45Y-580.01
X122.45Y-582.55
X122.45Y-585.09
X122.45Y-587.63
X122.45Y-590.17
X122.45Y-592.71
X122.45Y-595.25
X122.45Y-605.41
X122.45Y-607.95
X122.45Y-610.49
X122.45Y-613.03
X122.45Y-615.57
X122.45Y-618.11
X122.45Y-620.65
X122.45Y-623.19
X122.45Y-625.73
X122.45Y-628.27
X122.45Y-630.81
X122.45Y-633.35
X122.45Y-635.89
X122.45Y-638.43
X122.45Y-640.97
X122.45Y-643.51
X122.45Y-646.05
X122.45Y-648.59
X122.45Y-651.13
X122.45Y-661.29
X122.45Y-663.83
X122.45Y-666.37
X122.45Y-668.91
X122.45Y-671.45
X122.45Y-673.99
X122.45Y-676.53
X122.45Y-679.07
X122.45Y-681.61
X122.45Y-684.15
X122.45Y-686.69
X122.45Y-689.23
X122.45Y-691.77
X122.45Y-694.31
X122.45Y-696.85
X122.45Y-699.39
X122.45Y-701.93
X124.99Y-544.45
X124.99Y-546.99
X124.99Y-549.53
X124.99Y-552.07
X124.99Y-554.61
X124.99Y-557.15
X124.99Y-559.69
X124.99Y-562.23
X124.99Y-564.77
X124.99Y-567.31
X124.99Y-569.85
X124.99Y-572.39
X124.99Y-574.93
X124.99Y-577.47
X124.99Y-580.01
X124.99Y-582.55
X124.99Y-585.09
X124.99Y-587.63
X124.99Y-590.17
X124.99Y-592.71
X124.99Y-595.25
X124.99Y-597.79
X124.99Y-600.33
X124.99Y-602.87
X124.99Y-605.41
X124.99Y-607.95
X124.99Y-610.49
X124.99Y-613.03
X124.99Y-615.57
X124.99Y-618.11
X124.99Y-620.65
X124.99Y-623.19
X124.99Y-625.73
X124.99Y-628.27
X124.99Y-630.81
X124.99Y-633.35
X124.99Y-635.89
X124.99Y-638.43
X124.99Y-640.97
X124.99Y-643.51
X124.99Y-646.05
X124.99Y-648.59
X124.99Y-651.13
X124.99Y-653.67
X124.99Y-656.21
X124.99Y-658.75
X124.99Y-661.29
X124.99Y-663.83
X124.99Y-666.37
X124.99Y-668.91
X124.99Y-671.45
X124.99Y-673.99
X124.99Y-676.53
X124.99Y-679.07
X124.99Y-681.61
X124.99Y-684.15
X124.99Y-686.69
X124.99Y-689.23
X124.99Y-691.77
X124.99Y-694.31
X124.99Y-696.85
X124.99Y-699.39
X124.99Y-701.93
X124.99Y-704.47
X124.99Y-707.01
X127.53Y-544.45
X127.53Y-546.99
X127.53Y-549.53
X127.53Y-552.07
X127.53Y-564.77
X127.53Y-567.31
X127.53Y-569.85
X127.53Y-572.39
X127.53Y-574.93
X127.53Y-577.47
X127.53Y-580.01
X127.53Y-582.55
X127.53Y-585.09
X127.53Y-587.63
X127.53Y-590.17
X127.53Y-592.71
X127.53Y-595.25
X127.53Y-597.79
X127.53Y-600.33
X127.53Y-602.87
X127.53Y-605.41
X127.53Y-607.95
X127.53Y-610.49
X127.53Y-613.03
X127.53Y-615.57
X127.53Y-618.11
X127.53Y-620.65
X127.53Y-623.19
X127.53Y-625.73
X127.53Y-628.27
X127.53Y-630.81
X127.53Y-633.35
X127.53Y-635.89
X127.53Y-638.43
X127.53Y-640.97
X127.53Y-643.51
X127.53Y-646.05
X127.53Y-648.59
X127.53Y-651.13
X127.53Y-653.67
X127.53Y-656.21
X127.53Y-658.75
X127.53Y-661.29
X127.53Y-663.83
X127.53Y-666.37
X127.53Y-668.91
X127.53Y-671.45
X127.53Y-673.99
X127.53Y-676.53
X127.53Y-679.07
X127.53Y-681.61
X127.53Y-684.15
X127.53Y-686.69
X127.53Y-689.23
X127.53Y-691.77
X127.53Y-694.31
X127.53Y-696.85
X127.53Y-699.39
X127.53Y-701.93
X127.53Y-704.47
X127.53Y-707.01
X130.07Y-544.45
X130.07Y-546.99
X130.07Y-564.77
X130.07Y-567.31
X130.07Y-569.85
X130.07Y-572.39
X130.07Y-574.93
X130.07Y-577.47
X130.07Y-580.01
X130.07Y-582.55
X130.07Y-585.09
X130.07Y-587.63
X130.07Y-590.17
X130.07Y-592.71
X130.07Y-595.25
X130.07Y-597.79
X130.07Y-600.33
X130.07Y-602.87
X130.07Y-605.41
X130.07Y-607.95
X130.07Y-610.49
X130.07Y-613.03
X130.07Y-615.57
X130.07Y-618.11
X130.07Y-620.65
X130.07Y-623.19
X130.07Y-625.73
X130.07Y-628.27
X130.07Y-630.81
X130.07Y-633.35
X130.07Y-635.89
X130.07Y-638.43
X130.07Y-640.97
X130.07Y-643.51
X130.07Y-646.05
X130.07Y-648.59
X130.07Y-651.13
X130.07Y-653.67
X130.07Y-656.21
X130.07Y-658.75
X130.07Y-661.29
X130.07Y-663.83
X130.07Y-666.37
X130.07Y-668.91
X130.07Y-671.45
X130.07Y-673.99
X130.07Y-676.53
X130.07Y-679.07
X130.07Y-681.61
X130.07Y-684.15
X130.07Y-686.69
X130.07Y-689.23
X130.07Y-691.77
X130.07Y-694.31
X130.07Y-696.85
X130.07Y-699.39
X130.07Y-701.93
X130.07Y-704.47
X130.07Y-707.01
X132.61Y-544.45
X132.61Y-546.99
X132.61Y-564.77
X132.61Y-567.31
X132.61Y-569.85
X132.61Y-572.39
X132.61Y-574.93
X132.61Y-577.47
X132.61Y-580.01
X132.61Y-582.55
X132.61Y-585.09
X132.61Y-587.63
X132.61Y-590.17
X132.61Y-592.71
X132.61Y-595.25
X132.61Y-597.79
X132.61Y-600.33
X132.61Y-602.87
X132.61Y-605.41
X132.61Y-607.95
X132.61Y-610.49
X132.61Y-613.03
X132.61Y-615.57
X132.61Y-618.11
X132.61Y-620.65
X132.61Y-623.19
X132.61Y-625.73
X132.61Y-628.27
X132.61Y-630.81
X132.61Y-633.35
X132.61Y-635.89
X132.61Y-638.43
X132.61Y-640.97
X132.61Y-643.51
X132.61Y-646.05
X132.61Y-648.59
X132.61Y-651.13
X132.61Y-653.67
X132.61Y-656.21
X132.61Y-658.75
X132.61Y-661.29
X132.61Y-663.83
X132.61Y-666.37
X132.61Y-668.91
X132.61Y-671.45
X132.61Y-673.99
X132.61Y-676.53
X132.61Y-679.07
X132.61Y-681.61
X132.61Y-684.15
X132.61Y-686.69
X132.61Y-689.23
X132.61Y-691.77
X132.61Y-694.31
X132.61Y-696.85
X132.61Y-699.39
X132.61Y-701.93
X132.61Y-704.47
X132.61Y-707.01
X135.15Y-544.45
X135.15Y-546.99
X135.15Y-582.55
X135.15Y-595.25
X135.15Y-597.79
X135.15Y-600.33
X135.15Y-602.87
X135.15Y-605.41
X135.15Y-607.95
X135.15Y-610.49
X135.15Y-613.03
X135.15Y-615.57
X135.15Y-618.11
X135.15Y-620.65
X135.15Y-623.19
X135.15Y-625.73
X135.15Y-628.27
X135.15Y-630.81
X135.15Y-633.35
X135.15Y-635.89
X135.15Y-638.43
X135.15Y-640.97
X135.15Y-643.51
X135.15Y-646.05
X135.15Y-648.59
X135.15Y-651.13
X135.15Y-653.67
X135.15Y-656.21
X135.15Y-658.75
X135.15Y-661.29
X135.15Y-663.83
X135.15Y-666.37
X135.15Y-668.91
X135.15Y-671.45
X135.15Y-673.99
X135.15Y-676.53
X135.15Y-679.07
X135.15Y-681.61
X135.15Y-684.15
X135.15Y-686.69
X135.15Y-689.23
X135.15Y-691.77
X135.15Y-694.31
X135.15Y-696.85
X135.15Y-699.39
X135.15Y-701.93
X135.15Y-704.47
X135.15Y-707.01
X136.744Y-588.886
X137.69Y-544.45
X137.69Y-546.99
X137.69Y-590.17
X137.69Y-607.95
X137.69Y-610.49
X137.69Y-613.03
X137.69Y-615.57
X137.69Y-618.11
X137.69Y-620.65
X137.69Y-623.19
X137.69Y-625.73
X137.69Y-628.27
X137.69Y-630.81
X137.69Y-633.35
X137.69Y-635.89
X137.69Y-638.43
X137.69Y-640.97
X137.69Y-643.51
X137.69Y-646.05
X137.69Y-648.59
X137.69Y-651.13
X137.69Y-653.67
X137.69Y-656.21
X137.69Y-658.75
X137.69Y-661.29
X137.69Y-663.83
X137.69Y-666.37
X137.69Y-668.91
X137.69Y-671.45
X137.69Y-673.99
X137.69Y-676.53
X137.69Y-679.07
X137.69Y-681.61
X137.69Y-684.15
X137.69Y-686.69
X137.69Y-689.23
X137.69Y-691.77
X137.69Y-694.31
X137.69Y-696.85
X137.69Y-699.39
X137.69Y-701.93
X137.69Y-704.47
X137.69Y-707.01
X140.23Y-544.45
X140.23Y-546.99
X140.23Y-552.07
X140.23Y-610.49
X140.23Y-613.03
X140.23Y-615.57
X140.23Y-618.11
X140.23Y-620.65
X140.23Y-623.19
X140.23Y-625.73
X140.23Y-628.27
X140.23Y-630.81
X140.23Y-633.35
X140.23Y-635.89
X140.23Y-638.43
X140.23Y-640.97
X140.23Y-643.51
X140.23Y-646.05
X140.23Y-648.59
X140.23Y-651.13
X140.23Y-653.67
X140.23Y-656.21
X140.23Y-658.75
X140.23Y-661.29
X140.23Y-663.83
X140.23Y-666.37
X140.23Y-668.91
X140.23Y-671.45
X140.23Y-673.99
X140.23Y-676.53
X140.23Y-679.07
X140.23Y-681.61
X140.23Y-684.15
X140.23Y-686.69
X140.23Y-689.23
X140.23Y-691.77
X140.23Y-694.31
X140.23Y-696.85
X140.23Y-699.39
X140.23Y-701.93
X140.23Y-704.47
X140.23Y-707.01
X140.424Y-592.848
X142.77Y-544.45
X142.77Y-552.07
X142.77Y-592.71
X142.77Y-613.03
X142.77Y-615.57
X142.77Y-618.11
X142.77Y-620.65
X142.77Y-623.19
X142.77Y-625.73
X142.77Y-628.27
X142.77Y-630.81
X142.77Y-633.35
X142.77Y-635.89
X142.77Y-638.43
X142.77Y-640.97
X142.77Y-643.51
X142.77Y-646.05
X142.77Y-648.59
X142.77Y-651.13
X142.77Y-653.67
X142.77Y-656.21
X142.77Y-658.75
X142.77Y-661.29
X142.77Y-663.83
X142.77Y-666.37
X142.77Y-668.91
X142.77Y-671.45
X142.77Y-673.99
X142.77Y-676.53
X142.77Y-679.07
X142.77Y-681.61
X142.77Y-684.15
X142.77Y-686.69
X142.77Y-689.23
X142.77Y-691.77
X142.77Y-694.31
X142.77Y-696.85
X142.77Y-699.39
X142.77Y-701.93
X142.77Y-704.47
X142.77Y-707.01
X145.31Y-544.45
X145.31Y-552.07
X145.31Y-590.17
X145.31Y-615.57
X145.31Y-618.11
X145.31Y-620.65
X145.31Y-623.19
X145.31Y-625.73
X145.31Y-628.27
X145.31Y-630.81
X145.31Y-633.35
X145.31Y-635.89
X145.31Y-638.43
X145.31Y-640.97
X145.31Y-643.51
X145.31Y-646.05
X145.31Y-648.59
X145.31Y-651.13
X145.31Y-653.67
X145.31Y-656.21
X145.31Y-658.75
X145.31Y-661.29
X145.31Y-663.83
X145.31Y-666.37
X145.31Y-668.91
X145.31Y-671.45
X145.31Y-673.99
X145.31Y-676.53
X145.31Y-679.07
X145.31Y-681.61
X145.31Y-684.15
X145.31Y-686.69
X145.31Y-689.23
X145.31Y-691.77
X145.31Y-694.31
X145.31Y-696.85
X145.31Y-699.39
X145.31Y-701.93
X145.31Y-704.47
X145.31Y-707.01
X146.674Y-592.748
X147.85Y-544.45
X147.85Y-546.99
X147.85Y-552.07
X147.85Y-590.17
X147.85Y-618.11
X147.85Y-620.65
X147.85Y-623.19
X147.85Y-625.73
X147.85Y-628.27
X147.85Y-630.81
X147.85Y-633.35
X147.85Y-635.89
X147.85Y-638.43
X147.85Y-640.97
X147.85Y-643.51
X147.85Y-646.05
X147.85Y-648.59
X147.85Y-651.13
X147.85Y-653.67
X147.85Y-656.21
X147.85Y-658.75
X147.85Y-661.29
X147.85Y-663.83
X147.85Y-666.37
X147.85Y-668.91
X147.85Y-671.45
X147.85Y-673.99
X147.85Y-676.53
X147.85Y-679.07
X147.85Y-681.61
X147.85Y-684.15
X147.85Y-686.69
X147.85Y-689.23
X147.85Y-691.77
X147.85Y-694.31
X147.85Y-696.85
X147.85Y-699.39
X147.85Y-701.93
X147.85Y-704.47
X147.85Y-707.01
X150.39Y-544.45
X150.39Y-546.99
X150.39Y-549.53
X150.39Y-552.07
X150.39Y-592.71
X150.39Y-618.11
X150.39Y-620.65
X150.39Y-623.19
X150.39Y-625.73
X150.39Y-628.27
X150.39Y-630.81
X150.39Y-633.35
X150.39Y-635.89
X150.39Y-638.43
X150.39Y-640.97
X150.39Y-643.51
X150.39Y-646.05
X150.39Y-648.59
X150.39Y-651.13
X150.39Y-653.67
X150.39Y-656.21
X150.39Y-658.75
X150.39Y-661.29
X150.39Y-663.83
X150.39Y-666.37
X150.39Y-668.91
X150.39Y-671.45
X150.39Y-673.99
X150.39Y-676.53
X150.39Y-679.07
X150.39Y-681.61
X150.39Y-684.15
X150.39Y-686.69
X150.39Y-689.23
X150.39Y-691.77
X150.39Y-694.31
X150.39Y-696.85
X150.39Y-699.39
X150.39Y-701.93
X150.39Y-704.47
X150.39Y-707.01
X152.93Y-544.45
X152.93Y-546.99
X152.93Y-549.53
X152.93Y-552.07
X152.93Y-585.09
X152.93Y-587.63
X152.93Y-590.17
X152.93Y-592.71
X152.93Y-618.11
X152.93Y-620.65
X152.93Y-623.19
X152.93Y-625.73
X152.93Y-628.27
X152.93Y-630.81
X152.93Y-633.35
X152.93Y-635.89
X152.93Y-638.43
X152.93Y-640.97
X152.93Y-643.51
X152.93Y-646.05
X152.93Y-648.59
X152.93Y-651.13
X152.93Y-653.67
X152.93Y-656.21
X152.93Y-658.75
X152.93Y-661.29
X152.93Y-663.83
X152.93Y-666.37
X152.93Y-668.91
X152.93Y-671.45
X152.93Y-673.99
X152.93Y-676.53
X152.93Y-679.07
X152.93Y-681.61
X152.93Y-684.15
X152.93Y-686.69
X152.93Y-689.23
X152.93Y-691.77
X152.93Y-694.31
X152.93Y-696.85
X152.93Y-699.39
X152.93Y-701.93
X152.93Y-704.47
X152.93Y-707.01
X155.47Y-544.45
X155.47Y-546.99
X155.47Y-549.53
X155.47Y-552.07
X155.47Y-585.09
X155.47Y-587.63
X155.47Y-590.17
X155.47Y-592.71
X155.47Y-597.79
X155.47Y-618.11
X155.47Y-620.65
X155.47Y-623.19
X155.47Y-625.73
X155.47Y-628.27
X155.47Y-630.81
X155.47Y-633.35
X155.47Y-635.89
X155.47Y-638.43
X155.47Y-640.97
X155.47Y-643.51
X155.47Y-646.05
X155.47Y-648.59
X155.47Y-651.13
X155.47Y-653.67
X155.47Y-656.21
X155.47Y-658.75
X155.47Y-661.29
X155.47Y-663.83
X155.47Y-666.37
X155.47Y-668.91
X155.47Y-671.45
X155.47Y-673.99
X155.47Y-676.53
X155.47Y-679.07
X155.47Y-681.61
X155.47Y-684.15
X155.47Y-686.69
X155.47Y-689.23
X155.47Y-691.77
X155.47Y-694.31
X155.47Y-696.85
X155.47Y-699.39
X155.47Y-701.93
X155.47Y-704.47
X155.47Y-707.01
X158.01Y-544.45
X158.01Y-546.99
X158.01Y-549.53
X158.01Y-552.07
X158.01Y-585.09
X158.01Y-587.63
X158.01Y-590.17
X158.01Y-592.71
X158.01Y-597.79
X158.01Y-600.33
X158.01Y-618.11
X158.01Y-620.65
X158.01Y-623.19
X158.01Y-625.73
X158.01Y-628.27
X158.01Y-630.81
X158.01Y-633.35
X158.01Y-635.89
X158.01Y-638.43
X158.01Y-640.97
X158.01Y-643.51
X158.01Y-646.05
X158.01Y-648.59
X158.01Y-651.13
X158.01Y-653.67
X158.01Y-656.21
X158.01Y-658.75
X158.01Y-661.29
X158.01Y-663.83
X158.01Y-666.37
X158.01Y-668.91
X158.01Y-671.45
X158.01Y-673.99
X158.01Y-676.53
X158.01Y-679.07
X158.01Y-681.61
X158.01Y-684.15
X158.01Y-686.69
X158.01Y-689.23
X158.01Y-691.77
X158.01Y-694.31
X158.01Y-696.85
X158.01Y-699.39
X158.01Y-701.93
X158.01Y-704.47
X158.01Y-707.01
X160.55Y-544.45
X160.55Y-546.99
X160.55Y-549.53
X160.55Y-552.07
X160.55Y-585.09
X160.55Y-587.63
X160.55Y-590.17
X160.55Y-592.71
X160.55Y-597.79
X160.55Y-600.33
X160.55Y-602.87
X160.55Y-620.65
X160.55Y-623.19
X160.55Y-625.73
X160.55Y-628.27
X160.55Y-630.81
X160.55Y-633.35
X160.55Y-635.89
X160.55Y-638.43
X160.55Y-640.97
X160.55Y-643.51
X160.55Y-646.05
X160.55Y-648.59
X160.55Y-651.13
X160.55Y-653.67
X160.55Y-656.21
X160.55Y-658.75
X160.55Y-661.29
X160.55Y-663.83
X160.55Y-666.37
X160.55Y-668.91
X160.55Y-671.45
X160.55Y-673.99
X160.55Y-676.53
X160.55Y-679.07
X160.55Y-681.61
X160.55Y-684.15
X160.55Y-686.69
X160.55Y-689.23
X160.55Y-691.77
X160.55Y-694.31
X160.55Y-696.85
X160.55Y-699.39
X160.55Y-701.93
X160.55Y-704.47
X160.55Y-707.01
X163.09Y-544.45
X163.09Y-546.99
X163.09Y-549.53
X163.09Y-552.07
X163.09Y-567.31
X163.09Y-569.85
X163.09Y-572.39
X163.09Y-574.93
X163.09Y-577.47
X163.09Y-580.01
X163.09Y-585.09
X163.09Y-587.63
X163.09Y-590.17
X163.09Y-592.71
X163.09Y-600.33
X163.09Y-602.87
X163.09Y-605.41
X163.09Y-620.65
X163.09Y-623.19
X163.09Y-625.73
X163.09Y-628.27
X163.09Y-630.81
X163.09Y-633.35
X163.09Y-635.89
X163.09Y-638.43
X163.09Y-640.97
X163.09Y-643.51
X163.09Y-646.05
X163.09Y-648.59
X163.09Y-651.13
X163.09Y-653.67
X163.09Y-656.21
X163.09Y-658.75
X163.09Y-661.29
X163.09Y-663.83
X163.09Y-666.37
X163.09Y-668.91
X163.09Y-671.45
X163.09Y-673.99
X163.09Y-676.53
X163.09Y-679.07
X163.09Y-681.61
X163.09Y-684.15
X163.09Y-686.69
X163.09Y-689.23
X163.09Y-691.77
X163.09Y-694.31
X163.09Y-696.85
X163.09Y-699.39
X163.09Y-701.93
X163.09Y-704.47
X163.09Y-707.01
X165.63Y-544.45
X165.63Y-546.99
X165.63Y-549.53
X165.63Y-552.07
X165.63Y-567.31
X165.63Y-569.85
X165.63Y-572.39
X165.63Y-574.93
X165.63Y-577.47
X165.63Y-580.01
X165.63Y-585.09
X165.63Y-587.63
X165.63Y-590.17
X165.63Y-592.71
X165.63Y-595.25
X165.63Y-602.87
X165.63Y-605.41
X165.63Y-620.65
X165.63Y-623.19
X165.63Y-625.73
X165.63Y-628.27
X165.63Y-630.81
X165.63Y-633.35
X165.63Y-635.89
X165.63Y-638.43
X165.63Y-640.97
X165.63Y-643.51
X165.63Y-646.05
X165.63Y-648.59
X165.63Y-651.13
X165.63Y-653.67
X165.63Y-656.21
X165.63Y-658.75
X165.63Y-661.29
X165.63Y-663.83
X165.63Y-666.37
X165.63Y-668.91
X165.63Y-671.45
X165.63Y-673.99
X165.63Y-676.53
X165.63Y-679.07
X165.63Y-681.61
X165.63Y-684.15
X165.63Y-686.69
X165.63Y-689.23
X165.63Y-691.77
X165.63Y-694.31
X165.63Y-696.85
X165.63Y-699.39
X165.63Y-701.93
X165.63Y-704.47
X165.63Y-707.01
X168.17Y-544.45
X168.17Y-546.99
X168.17Y-549.53
X168.17Y-552.07
X168.17Y-567.31
X168.17Y-569.85
X168.17Y-572.39
X168.17Y-574.93
X168.17Y-577.47
X168.17Y-580.01
X168.17Y-585.09
X168.17Y-587.63
X168.17Y-590.17
X168.17Y-592.71
X168.17Y-595.25
X168.17Y-597.79
X168.17Y-605.41
X168.17Y-620.65
X168.17Y-623.19
X168.17Y-625.73
X168.17Y-628.27
X168.17Y-630.81
X168.17Y-633.35
X168.17Y-635.89
X168.17Y-638.43
X168.17Y-640.97
X168.17Y-643.51
X168.17Y-646.05
X168.17Y-648.59
X168.17Y-651.13
X168.17Y-686.69
X168.17Y-689.23
X168.17Y-691.77
X168.17Y-694.31
X168.17Y-696.85
X168.17Y-699.39
X168.17Y-701.93
X168.17Y-704.47
X168.17Y-707.01
X170.71Y-544.45
X170.71Y-546.99
X170.71Y-549.53
X170.71Y-552.07
X170.71Y-567.31
X170.71Y-569.85
X170.71Y-572.39
X170.71Y-574.93
X170.71Y-577.47
X170.71Y-580.01
X170.71Y-585.09
X170.71Y-587.63
X170.71Y-590.17
X170.71Y-592.71
X170.71Y-595.25
X170.71Y-597.79
X170.71Y-600.33
X170.71Y-686.69
X170.71Y-689.23
X170.71Y-691.77
X170.71Y-694.31
X170.71Y-696.85
X170.71Y-699.39
X170.71Y-701.93
X170.71Y-704.47
X170.71Y-707.01
X173.25Y-544.45
X173.25Y-546.99
X173.25Y-549.53
X173.25Y-552.07
X173.25Y-567.31
X173.25Y-569.85
X173.25Y-572.39
X173.25Y-574.93
X173.25Y-577.47
X173.25Y-580.01
X173.25Y-585.09
X173.25Y-587.63
X173.25Y-590.17
X173.25Y-592.71
X173.25Y-595.25
X173.25Y-597.79
X173.25Y-600.33
X173.25Y-689.23
X173.25Y-691.77
X173.25Y-694.31
X173.25Y-696.85
X173.25Y-699.39
X173.25Y-701.93
X173.25Y-704.47
X173.25Y-707.01
X175.124Y-676.048
X175.574Y-598.748
X175.79Y-544.45
X175.79Y-546.99
X175.79Y-549.53
X175.79Y-552.07
X175.79Y-567.31
X175.79Y-569.85
X175.79Y-572.39
X175.79Y-574.93
X175.79Y-577.47
X175.79Y-580.01
X175.79Y-585.09
X175.79Y-587.63
X175.79Y-590.17
X175.79Y-592.71
X175.79Y-595.25
X175.79Y-630.81
X175.79Y-651.13
X175.79Y-691.77
X175.79Y-694.31
X175.79Y-696.85
X175.79Y-699.39
X175.79Y-701.93
X175.79Y-704.47
X175.79Y-707.01
X177.754Y-676.157
X178.33Y-544.45
X178.33Y-546.99
X178.33Y-549.53
X178.33Y-552.07
X178.33Y-567.31
X178.33Y-569.85
X178.33Y-572.39
X178.33Y-574.93
X178.33Y-577.47
X178.33Y-580.01
X178.33Y-585.09
X178.33Y-587.63
X178.33Y-590.17
X178.33Y-592.71
X178.33Y-605.41
X178.33Y-607.95
X178.33Y-613.03
X178.33Y-615.57
X178.33Y-620.65
X178.33Y-630.81
X178.33Y-656.21
X178.33Y-681.61
X178.33Y-686.69
X178.33Y-691.77
X178.33Y-694.31
X178.33Y-696.85
X178.33Y-699.39
X178.33Y-701.93
X178.33Y-704.47
X178.33Y-707.01
X180.87Y-544.45
X180.87Y-546.99
X180.87Y-549.53
X180.87Y-552.07
X180.87Y-567.31
X180.87Y-569.85
X180.87Y-572.39
X180.87Y-574.93
X180.87Y-577.47
X180.87Y-580.01
X180.87Y-585.09
X180.87Y-587.63
X180.87Y-590.17
X180.87Y-602.87
X180.87Y-605.41
X180.87Y-607.95
X180.87Y-613.03
X180.87Y-615.57
X180.87Y-620.65
X180.87Y-630.81
X180.87Y-643.51
X180.87Y-656.21
X180.87Y-666.37
X180.87Y-686.69
X180.87Y-691.77
X180.87Y-694.31
X180.87Y-696.85
X180.87Y-699.39
X180.87Y-701.93
X180.87Y-704.47
X180.87Y-707.01
X180.874Y-679.498
X183.324Y-654.498
X183.41Y-544.45
X183.41Y-546.99
X183.41Y-549.53
X183.41Y-552.07
X183.41Y-567.31
X183.41Y-569.85
X183.41Y-572.39
X183.41Y-574.93
X183.41Y-577.47
X183.41Y-580.01
X183.41Y-585.09
X183.41Y-587.63
X183.41Y-600.33
X183.41Y-602.87
X183.41Y-605.41
X183.41Y-607.95
X183.41Y-613.03
X183.41Y-615.57
X183.41Y-620.65
X183.41Y-630.81
X183.41Y-643.51
X183.41Y-651.13
X183.41Y-656.21
X183.41Y-666.37
X183.41Y-686.69
X183.41Y-691.77
X183.41Y-694.31
X183.41Y-696.85
X183.41Y-699.39
X183.41Y-701.93
X183.41Y-704.47
X183.41Y-707.01
X185.95Y-544.45
X185.95Y-546.99
X185.95Y-549.53
X185.95Y-552.07
X185.95Y-567.31
X185.95Y-569.85
X185.95Y-572.39
X185.95Y-574.93
X185.95Y-577.47
X185.95Y-580.01
X185.95Y-585.09
X185.95Y-597.79
X185.95Y-600.33
X185.95Y-602.87
X185.95Y-605.41
X185.95Y-607.95
X185.95Y-613.03
X185.95Y-615.57
X185.95Y-620.65
X185.95Y-630.81
X185.95Y-643.51
X185.95Y-656.21
X185.95Y-658.75
X185.95Y-666.37
X185.95Y-671.45
X185.95Y-681.61
X185.95Y-691.77
X185.95Y-694.31
X185.95Y-696.85
X185.95Y-699.39
X185.95Y-701.93
X185.95Y-704.47
X185.95Y-707.01
X188.49Y-544.45
X188.49Y-546.99
X188.49Y-549.53
X188.49Y-552.07
X188.49Y-567.31
X188.49Y-569.85
X188.49Y-572.39
X188.49Y-574.93
X188.49Y-577.47
X188.49Y-580.01
X188.49Y-595.25
X188.49Y-597.79
X188.49Y-600.33
X188.49Y-602.87
X188.49Y-605.41
X188.49Y-607.95
X188.49Y-613.03
X188.49Y-615.57
X188.49Y-620.65
X188.49Y-630.81
X188.49Y-643.51
X188.49Y-651.13
X188.49Y-656.21
X188.49Y-658.75
X188.49Y-666.37
X188.49Y-671.45
X188.49Y-681.61
X188.49Y-691.77
X188.49Y-694.31
X188.49Y-696.85
X188.49Y-699.39
X188.49Y-701.93
X188.49Y-704.47
X188.49Y-707.01
X191.03Y-544.45
X191.03Y-546.99
X191.03Y-549.53
X191.03Y-552.07
X191.03Y-567.31
X191.03Y-569.85
X191.03Y-572.39
X191.03Y-574.93
X191.03Y-577.47
X191.03Y-580.01
X191.03Y-592.71
X191.03Y-595.25
X191.03Y-597.79
X191.03Y-600.33
X191.03Y-602.87
X191.03Y-605.41
X191.03Y-607.95
X191.03Y-613.03
X191.03Y-615.57
X191.03Y-620.65
X191.03Y-630.81
X191.03Y-643.51
X191.03Y-651.13
X191.03Y-658.75
X191.03Y-671.45
X191.03Y-691.77
X191.03Y-694.31
X191.03Y-696.85
X191.03Y-699.39
X191.03Y-701.93
X191.03Y-704.47
X191.03Y-707.01
X191.124Y-655.998
X191.374Y-666.248
X192.174Y-687.748
X193.57Y-544.45
X193.57Y-546.99
X193.57Y-549.53
X193.57Y-552.07
X193.57Y-590.17
X193.57Y-592.71
X193.57Y-595.25
X193.57Y-597.79
X193.57Y-600.33
X193.57Y-602.87
X193.57Y-605.41
X193.57Y-610.49
X193.57Y-613.03
X193.57Y-615.57
X193.57Y-620.65
X193.57Y-630.81
X193.57Y-643.51
X193.57Y-651.13
X193.57Y-658.75
X193.57Y-671.45
X193.57Y-691.77
X193.57Y-694.31
X193.57Y-696.85
X193.57Y-699.39
X193.57Y-701.93
X193.57Y-704.47
X193.57Y-707.01
X196.11Y-544.45
X196.11Y-546.99
X196.11Y-549.53
X196.11Y-552.07
X196.11Y-587.63
X196.11Y-590.17
X196.11Y-630.81
X196.11Y-643.51
X196.11Y-651.13
X196.11Y-658.75
X196.11Y-671.45
X196.11Y-681.61
X196.11Y-691.77
X196.11Y-694.31
X196.11Y-696.85
X196.11Y-699.39
X196.11Y-701.93
X196.11Y-704.47
X196.11Y-707.01
X196.574Y-627.248
X196.574Y-686.248
X198.65Y-544.45
X198.65Y-546.99
X198.65Y-549.53
X198.65Y-552.07
X198.65Y-595.25
X198.65Y-597.79
X198.65Y-600.33
X198.65Y-605.41
X198.65Y-607.95
X198.65Y-610.49
X198.65Y-613.03
X198.65Y-615.57
X198.65Y-620.65
X198.65Y-643.51
X198.65Y-651.13
X198.65Y-658.75
X198.65Y-671.45
X198.65Y-681.61
X198.65Y-691.77
X198.65Y-694.31
X198.65Y-696.85
X198.65Y-699.39
X198.65Y-701.93
X198.65Y-704.47
X198.65Y-707.01
X200.424Y-624.748
X201.19Y-544.45
X201.19Y-546.99
X201.19Y-549.53
X201.19Y-552.07
X201.19Y-643.51
X201.19Y-651.13
X201.19Y-658.75
X201.19Y-671.45
X201.19Y-681.61
X201.19Y-691.77
X201.19Y-694.31
X201.19Y-696.85
X201.19Y-699.39
X201.19Y-701.93
X201.19Y-704.47
X201.19Y-707.01
X203.624Y-622.248
X203.73Y-544.45
X203.73Y-546.99
X203.73Y-549.53
X203.73Y-552.07
X203.73Y-592.71
X203.73Y-630.81
X203.73Y-643.51
X203.73Y-651.13
X203.73Y-658.75
X203.73Y-671.45
X203.73Y-681.61
X203.73Y-691.77
X203.73Y-694.31
X203.73Y-696.85
X203.73Y-699.39
X203.73Y-701.93
X203.73Y-704.47
X203.73Y-707.01
X206.27Y-544.45
X206.27Y-546.99
X206.27Y-549.53
X206.27Y-552.07
X206.27Y-567.31
X206.27Y-569.85
X206.27Y-572.39
X206.27Y-574.93
X206.27Y-577.47
X206.27Y-630.81
X206.27Y-643.51
X206.27Y-651.13
X206.27Y-658.75
X206.27Y-671.45
X206.27Y-681.61
X206.27Y-691.77
X206.27Y-694.31
X206.27Y-696.85
X206.27Y-699.39
X206.27Y-701.93
X206.27Y-704.47
X206.27Y-707.01
X206.624Y-619.198
X208.81Y-544.45
X208.81Y-546.99
X208.81Y-549.53
X208.81Y-552.07
X208.81Y-625.73
X208.81Y-630.81
X208.81Y-643.51
X208.81Y-651.13
X208.81Y-658.75
X208.81Y-671.45
X208.81Y-681.61
X208.81Y-691.77
X208.81Y-694.31
X208.81Y-696.85
X208.81Y-699.39
X208.81Y-701.93
X208.81Y-704.47
X208.81Y-707.01
X209.874Y-617.198
X211.35Y-544.45
X211.35Y-546.99
X211.35Y-549.53
X211.35Y-552.07
X211.35Y-585.09
X211.35Y-587.63
X211.35Y-592.71
X211.35Y-595.25
X211.35Y-597.79
X211.35Y-600.33
X211.35Y-602.87
X211.35Y-605.41
X211.35Y-607.95
X211.35Y-610.49
X211.35Y-613.03
X211.35Y-615.57
X211.35Y-623.19
X211.35Y-625.73
X211.35Y-630.81
X211.35Y-643.51
X211.35Y-651.13
X211.35Y-658.75
X211.35Y-671.45
X211.35Y-681.61
X211.35Y-691.77
X211.35Y-694.31
X211.35Y-696.85
X211.35Y-699.39
X211.35Y-701.93
X211.35Y-704.47
X211.35Y-707.01
X213.89Y-544.45
X213.89Y-546.99
X213.89Y-549.53
X213.89Y-552.07
X213.89Y-585.09
X213.89Y-590.17
X213.89Y-592.71
X213.89Y-595.25
X213.89Y-597.79
X213.89Y-600.33
X213.89Y-602.87
X213.89Y-605.41
X213.89Y-607.95
X213.89Y-610.49
X213.89Y-613.03
X213.89Y-620.65
X213.89Y-623.19
X213.89Y-625.73
X213.89Y-630.81
X213.89Y-643.51
X213.89Y-651.13
X213.89Y-658.75
X213.89Y-671.45
X213.89Y-681.61
X213.89Y-691.77
X213.89Y-694.31
X213.89Y-696.85
X213.89Y-699.39
X213.89Y-701.93
X213.89Y-704.47
X213.89Y-707.01
X216.43Y-544.45
X216.43Y-546.99
X216.43Y-549.53
X216.43Y-552.07
X216.43Y-587.63
X216.43Y-590.17
X216.43Y-592.71
X216.43Y-595.25
X216.43Y-597.79
X216.43Y-600.33
X216.43Y-602.87
X216.43Y-605.41
X216.43Y-607.95
X216.43Y-610.49
X216.43Y-618.11
X216.43Y-620.65
X216.43Y-623.19
X216.43Y-625.73
X216.43Y-630.81
X216.43Y-643.51
X216.43Y-651.13
X216.43Y-658.75
X216.43Y-671.45
X216.43Y-681.61
X216.43Y-691.77
X216.43Y-694.31
X216.43Y-696.85
X216.43Y-699.39
X216.43Y-701.93
X216.43Y-704.47
X216.43Y-707.01
X218.97Y-544.45
X218.97Y-546.99
X218.97Y-549.53
X218.97Y-552.07
X218.97Y-585.09
X218.97Y-587.63
X218.97Y-590.17
X218.97Y-592.71
X218.97Y-595.25
X218.97Y-597.79
X218.97Y-600.33
X218.97Y-602.87
X218.97Y-605.41
X218.97Y-607.95
X218.97Y-615.57
X218.97Y-618.11
X218.97Y-620.65
X218.97Y-623.19
X218.97Y-625.73
X218.97Y-630.81
X218.97Y-651.13
X218.97Y-658.75
X218.97Y-671.45
X218.97Y-681.61
X218.97Y-691.77
X218.97Y-694.31
X218.97Y-696.85
X218.97Y-699.39
X218.97Y-701.93
X218.97Y-704.47
X218.97Y-707.01
X221.51Y-544.45
X221.51Y-546.99
X221.51Y-549.53
X221.51Y-552.07
X221.51Y-585.09
X221.51Y-587.63
X221.51Y-590.17
X221.51Y-592.71
X221.51Y-595.25
X221.51Y-597.79
X221.51Y-600.33
X221.51Y-602.87
X221.51Y-605.41
X221.51Y-613.03
X221.51Y-615.57
X221.51Y-618.11
X221.51Y-620.65
X221.51Y-623.19
X221.51Y-625.73
X221.51Y-630.81
X221.51Y-651.13
X221.51Y-658.75
X221.51Y-671.45
X221.51Y-681.61
X221.51Y-691.77
X221.51Y-694.31
X221.51Y-696.85
X221.51Y-699.39
X221.51Y-701.93
X221.51Y-704.47
X221.51Y-707.01
X224.05Y-544.45
X224.05Y-546.99
X224.05Y-549.53
X224.05Y-552.07
X224.05Y-567.31
X224.05Y-569.85
X224.05Y-572.39
X224.05Y-574.93
X224.05Y-577.47
X224.05Y-585.09
X224.05Y-587.63
X224.05Y-590.17
X224.05Y-592.71
X224.05Y-595.25
X224.05Y-597.79
X224.05Y-600.33
X224.05Y-602.87
X224.05Y-610.49
X224.05Y-613.03
X224.05Y-615.57
X224.05Y-618.11
X224.05Y-620.65
X224.05Y-623.19
X224.05Y-625.73
X224.05Y-630.81
X224.05Y-640.97
X224.05Y-651.13
X224.05Y-658.75
X224.05Y-671.45
X224.05Y-681.61
X224.05Y-691.77
X224.05Y-694.31
X224.05Y-696.85
X224.05Y-699.39
X224.05Y-701.93
X224.05Y-704.47
X224.05Y-707.01
X226.59Y-544.45
X226.59Y-546.99
X226.59Y-549.53
X226.59Y-552.07
X226.59Y-567.31
X226.59Y-569.85
X226.59Y-572.39
X226.59Y-574.93
X226.59Y-577.47
X226.59Y-585.09
X226.59Y-587.63
X226.59Y-590.17
X226.59Y-592.71
X226.59Y-595.25
X226.59Y-597.79
X226.59Y-600.33
X226.59Y-607.95
X226.59Y-610.49
X226.59Y-613.03
X226.59Y-615.57
X226.59Y-618.11
X226.59Y-620.65
X226.59Y-623.19
X226.59Y-625.73
X226.59Y-630.81
X226.59Y-640.97
X226.59Y-643.51
X226.59Y-658.75
X226.59Y-671.45
X226.59Y-681.61
X226.59Y-691.77
X226.59Y-694.31
X226.59Y-696.85
X226.59Y-699.39
X226.59Y-701.93
X226.59Y-704.47
X226.59Y-707.01
X229.13Y-544.45
X229.13Y-546.99
X229.13Y-549.53
X229.13Y-552.07
X229.13Y-567.31
X229.13Y-569.85
X229.13Y-572.39
X229.13Y-574.93
X229.13Y-577.47
X229.13Y-585.09
X229.13Y-587.63
X229.13Y-590.17
X229.13Y-592.71
X229.13Y-595.25
X229.13Y-597.79
X229.13Y-605.41
X229.13Y-607.95
X229.13Y-610.49
X229.13Y-613.03
X229.13Y-615.57
X229.13Y-618.11
X229.13Y-620.65
X229.13Y-623.19
X229.13Y-625.73
X229.13Y-630.81
X229.13Y-640.97
X229.13Y-643.51
X229.13Y-658.75
X229.13Y-671.45
X229.13Y-681.61
X229.13Y-691.77
X229.13Y-694.31
X229.13Y-696.85
X229.13Y-699.39
X229.13Y-701.93
X229.13Y-704.47
X229.13Y-707.01
X231.67Y-544.45
X231.67Y-546.99
X231.67Y-549.53
X231.67Y-552.07
X231.67Y-567.31
X231.67Y-569.85
X231.67Y-572.39
X231.67Y-574.93
X231.67Y-577.47
X231.67Y-585.09
X231.67Y-587.63
X231.67Y-590.17
X231.67Y-592.71
X231.67Y-595.25
X231.67Y-602.87
X231.67Y-605.41
X231.67Y-607.95
X231.67Y-610.49
X231.67Y-613.03
X231.67Y-615.57
X231.67Y-618.11
X231.67Y-620.65
X231.67Y-623.19
X231.67Y-625.73
X231.67Y-630.81
X231.67Y-640.97
X231.67Y-643.51
X231.67Y-658.75
X231.67Y-671.45
X231.67Y-681.61
X231.67Y-691.77
X231.67Y-694.31
X231.67Y-696.85
X231.67Y-699.39
X231.67Y-701.93
X231.67Y-704.47
X231.67Y-707.01
X234.21Y-544.45
X234.21Y-546.99
X234.21Y-549.53
X234.21Y-552.07
X234.21Y-567.31
X234.21Y-569.85
X234.21Y-572.39
X234.21Y-574.93
X234.21Y-577.47
X234.21Y-585.09
X234.21Y-587.63
X234.21Y-590.17
X234.21Y-592.71
X234.21Y-600.33
X234.21Y-602.87
X234.21Y-605.41
X234.21Y-607.95
X234.21Y-610.49
X234.21Y-613.03
X234.21Y-615.57
X234.21Y-618.11
X234.21Y-620.65
X234.21Y-623.19
X234.21Y-625.73
X234.21Y-630.81
X234.21Y-640.97
X234.21Y-643.51
X234.21Y-651.13
X234.21Y-671.45
X234.21Y-681.61
X234.21Y-691.77
X234.21Y-694.31
X234.21Y-696.85
X234.21Y-699.39
X234.21Y-701.93
X234.21Y-704.47
X234.21Y-707.01
X236.75Y-544.45
X236.75Y-546.99
X236.75Y-549.53
X236.75Y-552.07
X236.75Y-567.31
X236.75Y-569.85
X236.75Y-572.39
X236.75Y-574.93
X236.75Y-577.47
X236.75Y-585.09
X236.75Y-587.63
X236.75Y-590.17
X236.75Y-597.79
X236.75Y-600.33
X236.75Y-602.87
X236.75Y-605.41
X236.75Y-607.95
X236.75Y-610.49
X236.75Y-613.03
X236.75Y-615.57
X236.75Y-618.11
X236.75Y-620.65
X236.75Y-623.19
X236.75Y-625.73
X236.75Y-630.81
X236.75Y-640.97
X236.75Y-643.51
X236.75Y-651.13
X236.75Y-671.45
X236.75Y-681.61
X236.75Y-691.77
X236.75Y-694.31
X236.75Y-696.85
X236.75Y-699.39
X236.75Y-701.93
X236.75Y-704.47
X236.75Y-707.01
X239.29Y-544.45
X239.29Y-546.99
X239.29Y-549.53
X239.29Y-552.07
X239.29Y-567.31
X239.29Y-569.85
X239.29Y-572.39
X239.29Y-574.93
X239.29Y-577.47
X239.29Y-585.09
X239.29Y-587.63
X239.29Y-595.25
X239.29Y-597.79
X239.29Y-600.33
X239.29Y-602.87
X239.29Y-605.41
X239.29Y-607.95
X239.29Y-610.49
X239.29Y-613.03
X239.29Y-615.57
X239.29Y-618.11
X239.29Y-620.65
X239.29Y-623.19
X239.29Y-625.73
X239.29Y-630.81
X239.29Y-640.97
X239.29Y-643.51
X239.29Y-651.13
X239.29Y-671.45
X239.29Y-681.61
X239.29Y-691.77
X239.29Y-694.31
X239.29Y-696.85
X239.29Y-699.39
X239.29Y-701.93
X239.29Y-704.47
X239.29Y-707.01
X241.83Y-544.45
X241.83Y-546.99
X241.83Y-549.53
X241.83Y-552.07
X241.83Y-567.31
X241.83Y-569.85
X241.83Y-572.39
X241.83Y-574.93
X241.83Y-577.47
X241.83Y-585.09
X241.83Y-592.71
X241.83Y-595.25
X241.83Y-597.79
X241.83Y-600.33
X241.83Y-602.87
X241.83Y-605.41
X241.83Y-607.95
X241.83Y-610.49
X241.83Y-613.03
X241.83Y-615.57
X241.83Y-618.11
X241.83Y-620.65
X241.83Y-623.19
X241.83Y-625.73
X241.83Y-630.81
X241.83Y-640.97
X241.83Y-643.51
X241.83Y-651.13
X241.83Y-658.75
X241.83Y-671.45
X241.83Y-681.61
X241.83Y-691.77
X241.83Y-694.31
X241.83Y-696.85
X241.83Y-699.39
X241.83Y-701.93
X241.83Y-704.47
X241.83Y-707.01
X244.364Y-580.746
X244.37Y-544.45
X244.37Y-546.99
X244.37Y-549.53
X244.37Y-552.07
X244.37Y-567.31
X244.37Y-569.85
X244.37Y-572.39
X244.37Y-574.93
X244.37Y-577.47
X244.37Y-590.17
X244.37Y-592.71
X244.37Y-595.25
X244.37Y-597.79
X244.37Y-600.33
X244.37Y-602.87
X244.37Y-605.41
X244.37Y-607.95
X244.37Y-610.49
X244.37Y-613.03
X244.37Y-615.57
X244.37Y-618.11
X244.37Y-620.65
X244.37Y-623.19
X244.37Y-625.73
X244.37Y-630.81
X244.37Y-640.97
X244.37Y-643.51
X244.37Y-651.13
X244.37Y-658.75
X244.37Y-671.45
X244.37Y-681.61
X244.37Y-691.77
X244.37Y-694.31
X244.37Y-696.85
X244.37Y-699.39
X244.37Y-701.93
X244.37Y-704.47
X244.37Y-707.01
X246.91Y-544.45
X246.91Y-546.99
X246.91Y-549.53
X246.91Y-552.07
X246.91Y-567.31
X246.91Y-569.85
X246.91Y-572.39
X246.91Y-574.93
X246.91Y-577.47
X246.91Y-585.09
X246.91Y-587.63
X246.91Y-590.17
X246.91Y-592.71
X246.91Y-595.25
X246.91Y-597.79
X246.91Y-600.33
X246.91Y-602.87
X246.91Y-605.41
X246.91Y-607.95
X246.91Y-610.49
X246.91Y-613.03
X246.91Y-615.57
X246.91Y-618.11
X246.91Y-620.65
X246.91Y-623.19
X246.91Y-625.73
X246.91Y-630.81
X246.91Y-640.97
X246.91Y-643.51
X246.91Y-651.13
X246.91Y-658.75
X246.91Y-681.61
X246.91Y-691.77
X246.91Y-694.31
X246.91Y-696.85
X246.91Y-699.39
X246.91Y-701.93
X246.91Y-704.47
X246.91Y-707.01
X249.45Y-544.45
X249.45Y-546.99
X249.45Y-549.53
X249.45Y-552.07
X249.45Y-567.31
X249.45Y-569.85
X249.45Y-572.39
X249.45Y-574.93
X249.45Y-577.47
X249.45Y-585.09
X249.45Y-587.63
X249.45Y-590.17
X249.45Y-592.71
X249.45Y-595.25
X249.45Y-597.79
X249.45Y-600.33
X249.45Y-602.87
X249.45Y-605.41
X249.45Y-607.95
X249.45Y-610.49
X249.45Y-613.03
X249.45Y-615.57
X249.45Y-618.11
X249.45Y-620.65
X249.45Y-623.19
X249.45Y-625.73
X249.45Y-630.81
X249.45Y-640.97
X249.45Y-643.51
X249.45Y-651.13
X249.45Y-658.75
X249.45Y-681.61
X249.45Y-691.77
X249.45Y-694.31
X249.45Y-696.85
X249.45Y-699.39
X249.45Y-701.93
X249.45Y-704.47
X249.45Y-707.01
X251.99Y-544.45
X251.99Y-546.99
X251.99Y-549.53
X251.99Y-552.07
X251.99Y-567.31
X251.99Y-569.85
X251.99Y-572.39
X251.99Y-574.93
X251.99Y-577.47
X251.99Y-585.09
X251.99Y-587.63
X251.99Y-590.17
X251.99Y-592.71
X251.99Y-595.25
X251.99Y-597.79
X251.99Y-600.33
X251.99Y-602.87
X251.99Y-605.41
X251.99Y-607.95
X251.99Y-610.49
X251.99Y-613.03
X251.99Y-615.57
X251.99Y-618.11
X251.99Y-620.65
X251.99Y-623.19
X251.99Y-625.73
X251.99Y-630.81
X251.99Y-640.97
X251.99Y-643.51
X251.99Y-651.13
X251.99Y-658.75
X251.99Y-681.61
X251.99Y-691.77
X251.99Y-694.31
X251.99Y-696.85
X251.99Y-699.39
X251.99Y-701.93
X251.99Y-704.47
X251.99Y-707.01
X254.53Y-544.45
X254.53Y-546.99
X254.53Y-549.53
X254.53Y-552.07
X254.53Y-585.09
X254.53Y-587.63
X254.53Y-590.17
X254.53Y-592.71
X254.53Y-595.25
X254.53Y-597.79
X254.53Y-600.33
X254.53Y-602.87
X254.53Y-605.41
X254.53Y-607.95
X254.53Y-610.49
X254.53Y-613.03
X254.53Y-615.57
X254.53Y-618.11
X254.53Y-620.65
X254.53Y-623.19
X254.53Y-625.73
X254.53Y-630.81
X254.53Y-643.51
X254.53Y-651.13
X254.53Y-658.75
X254.53Y-671.45
X254.53Y-681.61
X254.53Y-691.77
X254.53Y-694.31
X254.53Y-696.85
X254.53Y-699.39
X254.53Y-701.93
X254.53Y-704.47
X254.53Y-707.01
X256.974Y-639.886
X257.07Y-544.45
X257.07Y-546.99
X257.07Y-549.53
X257.07Y-552.07
X257.07Y-590.17
X257.07Y-646.05
X257.07Y-658.75
X257.07Y-671.45
X257.07Y-691.77
X257.07Y-694.31
X257.07Y-696.85
X257.07Y-699.39
X257.07Y-701.93
X257.07Y-704.47
X257.07Y-707.01
X259.61Y-544.45
X259.61Y-546.99
X259.61Y-549.53
X259.61Y-552.07
X259.61Y-592.71
X259.61Y-595.25
X259.61Y-597.79
X259.61Y-600.33
X259.61Y-602.87
X259.61Y-605.41
X259.61Y-607.95
X259.61Y-610.49
X259.61Y-613.03
X259.61Y-615.57
X259.61Y-618.11
X259.61Y-620.65
X259.61Y-623.19
X259.61Y-625.73
X259.61Y-630.81
X259.61Y-643.51
X259.61Y-658.75
X259.61Y-671.45
X259.61Y-691.77
X259.61Y-694.31
X259.61Y-696.85
X259.61Y-699.39
X259.61Y-701.93
X259.61Y-704.47
X259.61Y-707.01
X260.42Y-637.78
X262.15Y-544.45
X262.15Y-546.99
X262.15Y-549.53
X262.15Y-552.07
X262.15Y-590.17
X262.15Y-592.71
X262.15Y-595.25
X262.15Y-597.79
X262.15Y-600.33
X262.15Y-602.87
X262.15Y-605.41
X262.15Y-607.95
X262.15Y-610.49
X262.15Y-613.03
X262.15Y-615.57
X262.15Y-618.11
X262.15Y-620.65
X262.15Y-623.19
X262.15Y-625.73
X262.15Y-630.81
X262.15Y-640.97
X262.15Y-651.13
X262.15Y-658.75
X262.15Y-671.45
X262.15Y-691.77
X262.15Y-694.31
X262.15Y-696.85
X262.15Y-699.39
X262.15Y-701.93
X262.15Y-704.47
X262.15Y-707.01
X263.864Y-634.996
X264.69Y-544.45
X264.69Y-546.99
X264.69Y-549.53
X264.69Y-552.07
X264.69Y-592.71
X264.69Y-638.43
X264.69Y-648.59
X264.69Y-651.13
X264.69Y-658.75
X264.69Y-671.45
X264.69Y-681.61
X264.69Y-691.77
X264.69Y-694.31
X264.69Y-696.85
X264.69Y-699.39
X264.69Y-701.93
X264.69Y-704.47
X264.69Y-707.01
X266.834Y-632.672
X267.23Y-544.45
X267.23Y-546.99
X267.23Y-549.53
X267.23Y-552.07
X267.23Y-567.31
X267.23Y-569.85
X267.23Y-572.39
X267.23Y-574.93
X267.23Y-577.47
X267.23Y-635.89
X267.23Y-646.05
X267.23Y-648.59
X267.23Y-658.75
X267.23Y-671.45
X267.23Y-681.61
X267.23Y-691.77
X267.23Y-694.31
X267.23Y-696.85
X267.23Y-699.39
X267.23Y-701.93
X267.23Y-704.47
X267.23Y-707.01
X267.614Y-688.996
X269.77Y-544.45
X269.77Y-546.99
X269.77Y-549.53
X269.77Y-552.07
X269.77Y-592.71
X269.77Y-633.35
X269.77Y-643.51
X269.77Y-646.05
X269.77Y-653.67
X269.77Y-658.75
X269.77Y-671.45
X269.77Y-681.61
X269.77Y-691.77
X269.77Y-694.31
X269.77Y-696.85
X269.77Y-699.39
X269.77Y-701.93
X269.77Y-704.47
X269.77Y-707.01
X269.864Y-629.746
X272.31Y-544.45
X272.31Y-546.99
X272.31Y-549.53
X272.31Y-552.07
X272.31Y-585.09
X272.31Y-587.63
X272.31Y-590.17
X272.31Y-592.71
X272.31Y-595.25
X272.31Y-597.79
X272.31Y-600.33
X272.31Y-602.87
X272.31Y-605.41
X272.31Y-607.95
X272.31Y-610.49
X272.31Y-613.03
X272.31Y-615.57
X272.31Y-618.11
X272.31Y-620.65
X272.31Y-623.19
X272.31Y-625.73
X272.31Y-630.81
X272.31Y-640.97
X272.31Y-643.51
X272.31Y-651.13
X272.31Y-658.75
X272.31Y-671.45
X272.31Y-681.61
X272.31Y-691.77
X272.31Y-694.31
X272.31Y-696.85
X272.31Y-699.39
X272.31Y-701.93
X272.31Y-704.47
X272.31Y-707.01
X274.85Y-544.45
X274.85Y-546.99
X274.85Y-549.53
X274.85Y-552.07
X274.85Y-585.09
X274.85Y-587.63
X274.85Y-590.17
X274.85Y-592.71
X274.85Y-595.25
X274.85Y-597.79
X274.85Y-600.33
X274.85Y-602.87
X274.85Y-605.41
X274.85Y-607.95
X274.85Y-610.49
X274.85Y-613.03
X274.85Y-615.57
X274.85Y-618.11
X274.85Y-620.65
X274.85Y-623.19
X274.85Y-628.27
X274.85Y-638.43
X274.85Y-640.97
X274.85Y-648.59
X274.85Y-656.21
X274.85Y-658.75
X274.85Y-671.45
X274.85Y-691.77
X274.85Y-694.31
X274.85Y-696.85
X274.85Y-699.39
X274.85Y-701.93
X274.85Y-704.47
X274.85Y-707.01
X277.39Y-549.53
X277.39Y-552.07
X277.39Y-585.09
X277.39Y-587.63
X277.39Y-590.17
X277.39Y-592.71
X277.39Y-595.25
X277.39Y-605.41
X277.39Y-607.95
X277.39Y-610.49
X277.39Y-613.03
X277.39Y-615.57
X277.39Y-618.11
X277.39Y-620.65
X277.39Y-625.73
X277.39Y-635.89
X277.39Y-638.43
X277.39Y-646.05
X277.39Y-671.45
X277.39Y-691.77
X277.39Y-694.31
X277.39Y-696.85
X277.39Y-699.39
X277.39Y-701.93
X279.93Y-549.53
X279.93Y-552.07
X279.93Y-585.09
X279.93Y-587.63
X279.93Y-590.17
X279.93Y-592.71
X279.93Y-595.25
X279.93Y-605.41
X279.93Y-607.95
X279.93Y-610.49
X279.93Y-613.03
X279.93Y-615.57
X279.93Y-618.11
X279.93Y-623.19
X279.93Y-633.35
X279.93Y-635.89
X279.93Y-643.51
X279.93Y-651.13
X279.93Y-671.45
X279.93Y-681.61
X279.93Y-691.77
X279.93Y-694.31
X279.93Y-696.85
X279.93Y-699.39
X279.93Y-701.93
X282.47Y-549.53
X282.47Y-552.07
X282.47Y-567.31
X282.47Y-569.85
X282.47Y-572.39
X282.47Y-574.93
X282.47Y-577.47
X282.47Y-585.09
X282.47Y-587.63
X282.47Y-590.17
X282.47Y-592.71
X282.47Y-595.25
X282.47Y-605.41
X282.47Y-607.95
X282.47Y-610.49
X282.47Y-613.03
X282.47Y-615.57
X282.47Y-620.65
X282.47Y-630.81
X282.47Y-633.35
X282.47Y-640.97
X282.47Y-648.59
X282.47Y-651.13
X282.47Y-671.45
X282.47Y-681.61
X282.47Y-691.77
X282.47Y-694.31
X282.47Y-696.85
X282.47Y-699.39
X282.47Y-701.93
X285.01Y-544.45
X285.01Y-546.99
X285.01Y-549.53
X285.01Y-552.07
X285.01Y-567.31
X285.01Y-569.85
X285.01Y-572.39
X285.01Y-574.93
X285.01Y-577.47
X285.01Y-585.09
X285.01Y-587.63
X285.01Y-590.17
X285.01Y-592.71
X285.01Y-595.25
X285.01Y-597.79
X285.01Y-600.33
X285.01Y-602.87
X285.01Y-605.41
X285.01Y-607.95
X285.01Y-610.49
X285.01Y-613.03
X285.01Y-618.11
X285.01Y-628.27
X285.01Y-630.81
X285.01Y-638.43
X285.01Y-646.05
X285.01Y-648.59
X285.01Y-651.13
X285.01Y-653.67
X285.01Y-656.21
X285.01Y-658.75
X285.01Y-681.61
X285.01Y-691.77
X285.01Y-694.31
X285.01Y-696.85
X285.01Y-699.39
X285.01Y-701.93
X285.01Y-704.47
X285.01Y-707.01
X287.55Y-544.45
X287.55Y-546.99
X287.55Y-549.53
X287.55Y-552.07
X287.55Y-567.31
X287.55Y-569.85
X287.55Y-572.39
X287.55Y-574.93
X287.55Y-577.47
X287.55Y-585.09
X287.55Y-587.63
X287.55Y-590.17
X287.55Y-592.71
X287.55Y-595.25
X287.55Y-597.79
X287.55Y-600.33
X287.55Y-602.87
X287.55Y-605.41
X287.55Y-607.95
X287.55Y-610.49
X287.55Y-615.57
X287.55Y-625.73
X287.55Y-628.27
X287.55Y-635.89
X287.55Y-643.51
X287.55Y-646.05
X287.55Y-648.59
X287.55Y-651.13
X287.55Y-653.67
X287.55Y-656.21
X287.55Y-681.61
X287.55Y-691.77
X287.55Y-694.31
X287.55Y-696.85
X287.55Y-699.39
X287.55Y-701.93
X287.55Y-704.47
X287.55Y-707.01
X290.09Y-544.45
X290.09Y-546.99
X290.09Y-549.53
X290.09Y-552.07
X290.09Y-567.31
X290.09Y-569.85
X290.09Y-572.39
X290.09Y-574.93
X290.09Y-577.47
X290.09Y-585.09
X290.09Y-587.63
X290.09Y-590.17
X290.09Y-592.71
X290.09Y-595.25
X290.09Y-597.79
X290.09Y-600.33
X290.09Y-602.87
X290.09Y-605.41
X290.09Y-607.95
X290.09Y-613.03
X290.09Y-623.19
X290.09Y-625.73
X290.09Y-633.35
X290.09Y-640.97
X290.09Y-643.51
X290.09Y-646.05
X290.09Y-648.59
X290.09Y-651.13
X290.09Y-653.67
X290.09Y-656.21
X290.09Y-661.29
X290.09Y-671.45
X290.09Y-681.61
X290.09Y-691.77
X290.09Y-694.31
X290.09Y-696.85
X290.09Y-699.39
X290.09Y-701.93
X290.09Y-704.47
X290.09Y-707.01
X292.63Y-544.45
X292.63Y-546.99
X292.63Y-549.53
X292.63Y-552.07
X292.63Y-567.31
X292.63Y-569.85
X292.63Y-572.39
X292.63Y-574.93
X292.63Y-577.47
X292.63Y-585.09
X292.63Y-587.63
X292.63Y-590.17
X292.63Y-592.71
X292.63Y-595.25
X292.63Y-597.79
X292.63Y-600.33
X292.63Y-602.87
X292.63Y-605.41
X292.63Y-610.49
X292.63Y-620.65
X292.63Y-623.19
X292.63Y-630.81
X292.63Y-638.43
X292.63Y-640.97
X292.63Y-643.51
X292.63Y-646.05
X292.63Y-648.59
X292.63Y-651.13
X292.63Y-653.67
X292.63Y-656.21
X292.63Y-661.29
X292.63Y-671.45
X292.63Y-681.61
X292.63Y-691.77
X292.63Y-694.31
X292.63Y-696.85
X292.63Y-699.39
X292.63Y-701.93
X292.63Y-704.47
X292.63Y-707.01
X295.17Y-544.45
X295.17Y-546.99
X295.17Y-549.53
X295.17Y-552.07
X295.17Y-567.31
X295.17Y-569.85
X295.17Y-572.39
X295.17Y-574.93
X295.17Y-577.47
X295.17Y-585.09
X295.17Y-587.63
X295.17Y-590.17
X295.17Y-592.71
X295.17Y-595.25
X295.17Y-597.79
X295.17Y-600.33
X295.17Y-602.87
X295.17Y-607.95
X295.17Y-618.11
X295.17Y-620.65
X295.17Y-628.27
X295.17Y-635.89
X295.17Y-638.43
X295.17Y-640.97
X295.17Y-643.51
X295.17Y-646.05
X295.17Y-648.59
X295.17Y-651.13
X295.17Y-653.67
X295.17Y-656.21
X295.17Y-671.45
X295.17Y-681.61
X295.17Y-691.77
X295.17Y-694.31
X295.17Y-696.85
X295.17Y-699.39
X295.17Y-701.93
X295.17Y-704.47
X295.17Y-707.01
X297.71Y-544.45
X297.71Y-546.99
X297.71Y-549.53
X297.71Y-552.07
X297.71Y-567.31
X297.71Y-569.85
X297.71Y-572.39
X297.71Y-574.93
X297.71Y-577.47
X297.71Y-585.09
X297.71Y-587.63
X297.71Y-590.17
X297.71Y-592.71
X297.71Y-595.25
X297.71Y-597.79
X297.71Y-600.33
X297.71Y-605.41
X297.71Y-615.57
X297.71Y-618.11
X297.71Y-625.73
X297.71Y-633.35
X297.71Y-635.89
X297.71Y-638.43
X297.71Y-640.97
X297.71Y-643.51
X297.71Y-646.05
X297.71Y-648.59
X297.71Y-651.13
X297.71Y-653.67
X297.71Y-656.21
X297.71Y-671.45
X297.71Y-681.61
X297.71Y-691.77
X297.71Y-694.31
X297.71Y-696.85
X297.71Y-699.39
X297.71Y-701.93
X297.71Y-704.47
X297.71Y-707.01
X300.25Y-544.45
X300.25Y-546.99
X300.25Y-549.53
X300.25Y-552.07
X300.25Y-567.31
X300.25Y-569.85
X300.25Y-572.39
X300.25Y-574.93
X300.25Y-577.47
X300.25Y-585.09
X300.25Y-587.63
X300.25Y-590.17
X300.25Y-592.71
X300.25Y-595.25
X300.25Y-597.79
X300.25Y-602.87
X300.25Y-613.03
X300.25Y-615.57
X300.25Y-623.19
X300.25Y-630.81
X300.25Y-633.35
X300.25Y-635.89
X300.25Y-638.43
X300.25Y-640.97
X300.25Y-643.51
X300.25Y-646.05
X300.25Y-648.59
X300.25Y-651.13
X300.25Y-653.67
X300.25Y-671.45
X300.25Y-681.61
X300.25Y-691.77
X300.25Y-694.31
X300.25Y-696.85
X300.25Y-699.39
X300.25Y-701.93
X300.25Y-704.47
X300.25Y-707.01
X302.79Y-544.45
X302.79Y-546.99
X302.79Y-549.53
X302.79Y-552.07
X302.79Y-567.31
X302.79Y-569.85
X302.79Y-572.39
X302.79Y-574.93
X302.79Y-577.47
X302.79Y-585.09
X302.79Y-587.63
X302.79Y-590.17
X302.79Y-592.71
X302.79Y-595.25
X302.79Y-600.33
X302.79Y-610.49
X302.79Y-613.03
X302.79Y-620.65
X302.79Y-628.27
X302.79Y-630.81
X302.79Y-633.35
X302.79Y-635.89
X302.79Y-638.43
X302.79Y-640.97
X302.79Y-643.51
X302.79Y-646.05
X302.79Y-648.59
X302.79Y-651.13
X302.79Y-671.45
X302.79Y-681.61
X302.79Y-691.77
X302.79Y-694.31
X302.79Y-696.85
X302.79Y-699.39
X302.79Y-701.93
X302.79Y-704.47
X302.79Y-707.01
X305.33Y-544.45
X305.33Y-546.99
X305.33Y-549.53
X305.33Y-552.07
X305.33Y-567.31
X305.33Y-569.85
X305.33Y-572.39
X305.33Y-574.93
X305.33Y-577.47
X305.33Y-585.09
X305.33Y-587.63
X305.33Y-590.17
X305.33Y-592.71
X305.33Y-597.79
X305.33Y-607.95
X305.33Y-610.49
X305.33Y-618.11
X305.33Y-625.73
X305.33Y-628.27
X305.33Y-630.81
X305.33Y-633.35
X305.33Y-635.89
X305.33Y-638.43
X305.33Y-640.97
X305.33Y-643.51
X305.33Y-646.05
X305.33Y-648.59
X305.33Y-671.45
X305.33Y-681.61
X305.33Y-691.77
X305.33Y-694.31
X305.33Y-696.85
X305.33Y-699.39
X305.33Y-701.93
X305.33Y-704.47
X305.33Y-707.01
X307.87Y-544.45
X307.87Y-546.99
X307.87Y-549.53
X307.87Y-552.07
X307.87Y-567.31
X307.87Y-569.85
X307.87Y-572.39
X307.87Y-574.93
X307.87Y-577.47
X307.87Y-585.09
X307.87Y-587.63
X307.87Y-590.17
X307.87Y-595.25
X307.87Y-605.41
X307.87Y-607.95
X307.87Y-615.57
X307.87Y-623.19
X307.87Y-625.73
X307.87Y-628.27
X307.87Y-630.81
X307.87Y-633.35
X307.87Y-635.89
X307.87Y-638.43
X307.87Y-640.97
X307.87Y-643.51
X307.87Y-646.05
X307.87Y-663.83
X307.87Y-671.45
X307.87Y-681.61
X307.87Y-691.77
X307.87Y-694.31
X307.87Y-696.85
X307.87Y-699.39
X307.87Y-701.93
X307.87Y-704.47
X307.87Y-707.01
X310.41Y-544.45
X310.41Y-546.99
X310.41Y-549.53
X310.41Y-552.07
X310.41Y-567.31
X310.41Y-569.85
X310.41Y-572.39
X310.41Y-574.93
X310.41Y-577.47
X310.41Y-585.09
X310.41Y-587.63
X310.41Y-592.71
X310.41Y-602.87
X310.41Y-605.41
X310.41Y-613.03
X310.41Y-620.65
X310.41Y-623.19
X310.41Y-625.73
X310.41Y-628.27
X310.41Y-630.81
X310.41Y-633.35
X310.41Y-635.89
X310.41Y-638.43
X310.41Y-640.97
X310.41Y-643.51
X310.41Y-661.29
X310.41Y-663.83
X310.41Y-671.45
X310.41Y-681.61
X310.41Y-691.77
X310.41Y-694.31
X310.41Y-696.85
X310.41Y-699.39
X310.41Y-701.93
X310.41Y-704.47
X310.41Y-707.01
X312.95Y-544.45
X312.95Y-546.99
X312.95Y-549.53
X312.95Y-552.07
X312.95Y-585.09
X312.95Y-600.33
X312.95Y-602.87
X312.95Y-610.49
X312.95Y-618.11
X312.95Y-620.65
X312.95Y-623.19
X312.95Y-625.73
X312.95Y-628.27
X312.95Y-630.81
X312.95Y-633.35
X312.95Y-635.89
X312.95Y-638.43
X312.95Y-640.97
X312.95Y-658.75
X312.95Y-661.29
X312.95Y-663.83
X312.95Y-671.45
X312.95Y-681.61
X312.95Y-691.77
X312.95Y-694.31
X312.95Y-696.85
X312.95Y-699.39
X312.95Y-701.93
X312.95Y-704.47
X312.95Y-707.01
X315.49Y-544.45
X315.49Y-546.99
X315.49Y-549.53
X315.49Y-552.07
X315.49Y-587.63
X315.49Y-597.79
X315.49Y-600.33
X315.49Y-607.95
X315.49Y-615.57
X315.49Y-618.11
X315.49Y-620.65
X315.49Y-623.19
X315.49Y-625.73
X315.49Y-628.27
X315.49Y-630.81
X315.49Y-633.35
X315.49Y-635.89
X315.49Y-638.43
X315.49Y-656.21
X315.49Y-658.75
X315.49Y-661.29
X315.49Y-663.83
X315.49Y-671.45
X315.49Y-681.61
X315.49Y-691.77
X315.49Y-694.31
X315.49Y-696.85
X315.49Y-699.39
X315.49Y-701.93
X315.49Y-704.47
X316.824Y-592.748
X318.03Y-544.45
X318.03Y-546.99
X318.03Y-549.53
X318.03Y-552.07
X318.03Y-595.25
X318.03Y-597.79
X318.03Y-605.41
X318.03Y-613.03
X318.03Y-615.57
X318.03Y-618.11
X318.03Y-620.65
X318.03Y-623.19
X318.03Y-625.73
X318.03Y-628.27
X318.03Y-630.81
X318.03Y-633.35
X318.03Y-635.89
X318.03Y-653.67
X318.03Y-656.21
X318.03Y-658.75
X318.03Y-661.29
X318.03Y-663.83
X318.03Y-671.45
X318.03Y-681.61
X318.03Y-691.77
X318.03Y-694.31
X318.03Y-696.85
X318.03Y-699.39
X318.03Y-701.93
X318.03Y-704.47
X320.474Y-592.798
X320.57Y-544.45
X320.57Y-546.99
X320.57Y-549.53
X320.57Y-552.07
X320.57Y-595.25
X320.57Y-602.87
X320.57Y-610.49
X320.57Y-613.03
X320.57Y-615.57
X320.57Y-618.11
X320.57Y-620.65
X320.57Y-623.19
X320.57Y-625.73
X320.57Y-628.27
X320.57Y-630.81
X320.57Y-633.35
X320.57Y-651.13
X320.57Y-653.67
X320.57Y-656.21
X320.57Y-658.75
X320.57Y-661.29
X320.57Y-663.83
X320.57Y-671.45
X320.57Y-681.61
X320.57Y-691.77
X320.57Y-694.31
X320.57Y-696.85
X320.57Y-699.39
X320.57Y-701.93
X320.57Y-704.47
X323.11Y-544.45
X323.11Y-546.99
X323.11Y-549.53
X323.11Y-552.07
X323.11Y-592.71
X323.11Y-600.33
X323.11Y-607.95
X323.11Y-610.49
X323.11Y-613.03
X323.11Y-615.57
X323.11Y-618.11
X323.11Y-620.65
X323.11Y-623.19
X323.11Y-625.73
X323.11Y-628.27
X323.11Y-630.81
X323.11Y-648.59
X323.11Y-651.13
X323.11Y-653.67
X323.11Y-656.21
X323.11Y-658.75
X323.11Y-661.29
X323.11Y-671.45
X323.11Y-681.61
X323.11Y-691.77
X323.11Y-694.31
X323.11Y-696.85
X323.11Y-699.39
X323.11Y-701.93
X323.11Y-704.47
X323.424Y-596.448
X325.65Y-544.45
X325.65Y-546.99
X325.65Y-549.53
X325.65Y-552.07
X325.65Y-595.25
X325.65Y-597.79
X325.65Y-605.41
X325.65Y-607.95
X325.65Y-610.49
X325.65Y-613.03
X325.65Y-615.57
X325.65Y-618.11
X325.65Y-620.65
X325.65Y-623.19
X325.65Y-625.73
X325.65Y-628.27
X325.65Y-646.05
X325.65Y-648.59
X325.65Y-651.13
X325.65Y-653.67
X325.65Y-656.21
X325.65Y-658.75
X325.65Y-666.37
X325.65Y-671.45
X325.65Y-681.61
X325.65Y-691.77
X325.65Y-694.31
X325.65Y-696.85
X325.65Y-699.39
X325.65Y-701.93
X325.65Y-704.47
X326.674Y-592.798
X328.19Y-544.45
X328.19Y-546.99
X328.19Y-549.53
X328.19Y-552.07
X328.19Y-590.17
X328.19Y-595.25
X328.19Y-602.87
X328.19Y-605.41
X328.19Y-607.95
X328.19Y-610.49
X328.19Y-613.03
X328.19Y-615.57
X328.19Y-618.11
X328.19Y-620.65
X328.19Y-623.19
X328.19Y-625.73
X328.19Y-643.51
X328.19Y-646.05
X328.19Y-648.59
X328.19Y-651.13
X328.19Y-653.67
X328.19Y-656.21
X328.19Y-663.83
X328.19Y-666.37
X328.19Y-671.45
X328.19Y-681.61
X328.19Y-691.77
X328.19Y-694.31
X328.19Y-696.85
X328.19Y-699.39
X328.19Y-701.93
X328.19Y-704.47
X329.624Y-597.048
X330.73Y-544.45
X330.73Y-546.99
X330.73Y-549.53
X330.73Y-552.07
X330.73Y-585.09
X330.73Y-592.71
X330.73Y-600.33
X330.73Y-602.87
X330.73Y-605.41
X330.73Y-607.95
X330.73Y-610.49
X330.73Y-613.03
X330.73Y-615.57
X330.73Y-618.11
X330.73Y-620.65
X330.73Y-623.19
X330.73Y-640.97
X330.73Y-643.51
X330.73Y-646.05
X330.73Y-648.59
X330.73Y-651.13
X330.73Y-653.67
X330.73Y-661.29
X330.73Y-663.83
X330.73Y-666.37
X330.73Y-671.45
X330.73Y-681.61
X330.73Y-691.77
X330.73Y-694.31
X330.73Y-696.85
X330.73Y-699.39
X330.73Y-701.93
X330.73Y-704.47
X333.27Y-544.45
X333.27Y-546.99
X333.27Y-549.53
X333.27Y-552.07
X333.27Y-585.09
X333.27Y-587.63
X333.27Y-590.17
X333.27Y-592.71
X333.27Y-595.25
X333.27Y-597.79
X333.27Y-600.33
X333.27Y-602.87
X333.27Y-605.41
X333.27Y-607.95
X333.27Y-610.49
X333.27Y-613.03
X333.27Y-615.57
X333.27Y-618.11
X333.27Y-620.65
X333.27Y-638.43
X333.27Y-640.97
X333.27Y-643.51
X333.27Y-646.05
X333.27Y-648.59
X333.27Y-651.13
X333.27Y-658.75
X333.27Y-661.29
X333.27Y-663.83
X333.27Y-666.37
X333.27Y-671.45
X333.27Y-681.61
X333.27Y-691.77
X333.27Y-694.31
X333.27Y-696.85
X333.27Y-699.39
X333.27Y-701.93
X333.27Y-704.47
X335.81Y-544.45
X335.81Y-546.99
X335.81Y-549.53
X335.81Y-552.07
X335.81Y-585.09
X335.81Y-587.63
X335.81Y-590.17
X335.81Y-592.71
X335.81Y-595.25
X335.81Y-597.79
X335.81Y-600.33
X335.81Y-602.87
X335.81Y-605.41
X335.81Y-607.95
X335.81Y-610.49
X335.81Y-613.03
X335.81Y-615.57
X335.81Y-618.11
X335.81Y-635.89
X335.81Y-638.43
X335.81Y-640.97
X335.81Y-643.51
X335.81Y-646.05
X335.81Y-648.59
X335.81Y-656.21
X335.81Y-658.75
X335.81Y-661.29
X335.81Y-663.83
X335.81Y-666.37
X335.81Y-671.45
X335.81Y-681.61
X335.81Y-691.77
X335.81Y-694.31
X335.81Y-696.85
X335.81Y-699.39
X335.81Y-701.93
X335.81Y-704.47
X338.35Y-544.45
X338.35Y-546.99
X338.35Y-549.53
X338.35Y-552.07
X338.35Y-585.09
X338.35Y-587.63
X338.35Y-590.17
X338.35Y-592.71
X338.35Y-595.25
X338.35Y-597.79
X338.35Y-600.33
X338.35Y-602.87
X338.35Y-605.41
X338.35Y-607.95
X338.35Y-610.49
X338.35Y-613.03
X338.35Y-615.57
X338.35Y-633.35
X338.35Y-635.89
X338.35Y-638.43
X338.35Y-640.97
X338.35Y-643.51
X338.35Y-646.05
X338.35Y-653.67
X338.35Y-656.21
X338.35Y-658.75
X338.35Y-661.29
X338.35Y-663.83
X338.35Y-666.37
X338.35Y-671.45
X338.35Y-691.77
X338.35Y-694.31
X338.35Y-696.85
X338.35Y-699.39
X338.35Y-701.93
X338.35Y-704.47
X340.89Y-544.45
X340.89Y-546.99
X340.89Y-549.53
X340.89Y-552.07
X340.89Y-585.09
X340.89Y-587.63
X340.89Y-590.17
X340.89Y-592.71
X340.89Y-595.25
X340.89Y-597.79
X340.89Y-600.33
X340.89Y-602.87
X340.89Y-605.41
X340.89Y-607.95
X340.89Y-610.49
X340.89Y-613.03
X340.89Y-630.81
X340.89Y-633.35
X340.89Y-635.89
X340.89Y-638.43
X340.89Y-640.97
X340.89Y-643.51
X340.89Y-651.13
X340.89Y-653.67
X340.89Y-656.21
X340.89Y-658.75
X340.89Y-661.29
X340.89Y-663.83
X340.89Y-666.37
X340.89Y-671.45
X340.89Y-691.77
X340.89Y-694.31
X340.89Y-696.85
X340.89Y-699.39
X340.89Y-701.93
X340.89Y-704.47
X343.43Y-544.45
X343.43Y-546.99
X343.43Y-549.53
X343.43Y-552.07
X343.43Y-567.31
X343.43Y-569.85
X343.43Y-572.39
X343.43Y-574.93
X343.43Y-577.47
X343.43Y-585.09
X343.43Y-587.63
X343.43Y-590.17
X343.43Y-592.71
X343.43Y-595.25
X343.43Y-597.79
X343.43Y-600.33
X343.43Y-602.87
X343.43Y-605.41
X343.43Y-607.95
X343.43Y-610.49
X343.43Y-628.27
X343.43Y-630.81
X343.43Y-633.35
X343.43Y-635.89
X343.43Y-638.43
X343.43Y-640.97
X343.43Y-648.59
X343.43Y-651.13
X343.43Y-653.67
X343.43Y-656.21
X343.43Y-658.75
X343.43Y-661.29
X343.43Y-663.83
X343.43Y-666.37
X343.43Y-671.45
X343.43Y-681.61
X343.43Y-691.77
X343.43Y-694.31
X343.43Y-696.85
X343.43Y-699.39
X343.43Y-701.93
X343.43Y-704.47
X345.97Y-544.45
X345.97Y-546.99
X345.97Y-549.53
X345.97Y-552.07
X345.97Y-567.31
X345.97Y-569.85
X345.97Y-572.39
X345.97Y-574.93
X345.97Y-577.47
X345.97Y-585.09
X345.97Y-587.63
X345.97Y-590.17
X345.97Y-592.71
X345.97Y-595.25
X345.97Y-597.79
X345.97Y-600.33
X345.97Y-602.87
X345.97Y-605.41
X345.97Y-607.95
X345.97Y-625.73
X345.97Y-628.27
X345.97Y-630.81
X345.97Y-633.35
X345.97Y-635.89
X345.97Y-638.43
X345.97Y-646.05
X345.97Y-648.59
X345.97Y-651.13
X345.97Y-653.67
X345.97Y-656.21
X345.97Y-658.75
X345.97Y-661.29
X345.97Y-663.83
X345.97Y-666.37
X345.97Y-671.45
X345.97Y-681.61
X345.97Y-691.77
X345.97Y-694.31
X345.97Y-696.85
X345.97Y-699.39
X345.97Y-701.93
X345.97Y-704.47
X348.51Y-544.45
X348.51Y-546.99
X348.51Y-549.53
X348.51Y-552.07
X348.51Y-567.31
X348.51Y-569.85
X348.51Y-572.39
X348.51Y-574.93
X348.51Y-577.47
X348.51Y-585.09
X348.51Y-587.63
X348.51Y-590.17
X348.51Y-592.71
X348.51Y-595.25
X348.51Y-597.79
X348.51Y-600.33
X348.51Y-602.87
X348.51Y-605.41
X348.51Y-623.19
X348.51Y-625.73
X348.51Y-628.27
X348.51Y-630.81
X348.51Y-633.35
X348.51Y-635.89
X348.51Y-643.51
X348.51Y-646.05
X348.51Y-648.59
X348.51Y-651.13
X348.51Y-653.67
X348.51Y-656.21
X348.51Y-658.75
X348.51Y-661.29
X348.51Y-663.83
X348.51Y-666.37
X348.51Y-681.61
X348.51Y-691.77
X348.51Y-694.31
X348.51Y-696.85
X348.51Y-699.39
X348.51Y-701.93
X348.51Y-704.47
X351.05Y-544.45
X351.05Y-546.99
X351.05Y-549.53
X351.05Y-552.07
X351.05Y-567.31
X351.05Y-569.85
X351.05Y-572.39
X351.05Y-574.93
X351.05Y-577.47
X351.05Y-585.09
X351.05Y-587.63
X351.05Y-590.17
X351.05Y-592.71
X351.05Y-595.25
X351.05Y-597.79
X351.05Y-600.33
X351.05Y-602.87
X351.05Y-620.65
X351.05Y-623.19
X351.05Y-625.73
X351.05Y-628.27
X351.05Y-630.81
X351.05Y-633.35
X351.05Y-640.97
X351.05Y-643.51
X351.05Y-646.05
X351.05Y-648.59
X351.05Y-651.13
X351.05Y-653.67
X351.05Y-656.21
X351.05Y-658.75
X351.05Y-661.29
X351.05Y-663.83
X351.05Y-666.37
X351.05Y-681.61
X351.05Y-691.77
X351.05Y-694.31
X351.05Y-696.85
X351.05Y-699.39
X351.05Y-701.93
X351.05Y-704.47
X353.59Y-544.45
X353.59Y-546.99
X353.59Y-549.53
X353.59Y-552.07
X353.59Y-567.31
X353.59Y-569.85
X353.59Y-572.39
X353.59Y-574.93
X353.59Y-577.47
X353.59Y-585.09
X353.59Y-587.63
X353.59Y-590.17
X353.59Y-592.71
X353.59Y-595.25
X353.59Y-597.79
X353.59Y-600.33
X353.59Y-618.11
X353.59Y-620.65
X353.59Y-623.19
X353.59Y-625.73
X353.59Y-628.27
X353.59Y-630.81
X353.59Y-638.43
X353.59Y-640.97
X353.59Y-643.51
X353.59Y-646.05
X353.59Y-648.59
X353.59Y-651.13
X353.59Y-653.67
X353.59Y-656.21
X353.59Y-658.75
X353.59Y-661.29
X353.59Y-663.83
X353.59Y-671.45
X353.59Y-681.61
X353.59Y-691.77
X353.59Y-694.31
X353.59Y-696.85
X353.59Y-699.39
X353.59Y-701.93
X353.59Y-704.47
X356.13Y-544.45
X356.13Y-546.99
X356.13Y-549.53
X356.13Y-567.31
X356.13Y-569.85
X356.13Y-572.39
X356.13Y-574.93
X356.13Y-577.47
X356.13Y-585.09
X356.13Y-587.63
X356.13Y-590.17
X356.13Y-592.71
X356.13Y-595.25
X356.13Y-597.79
X356.13Y-615.57
X356.13Y-618.11
X356.13Y-620.65
X356.13Y-623.19
X356.13Y-625.73
X356.13Y-628.27
X356.13Y-635.89
X356.13Y-638.43
X356.13Y-640.97
X356.13Y-643.51
X356.13Y-646.05
X356.13Y-648.59
X356.13Y-651.13
X356.13Y-653.67
X356.13Y-656.21
X356.13Y-658.75
X356.13Y-661.29
X356.13Y-671.45
X356.13Y-681.61
X356.13Y-691.77
X356.13Y-694.31
X356.13Y-696.85
X356.13Y-699.39
X356.13Y-701.93
X356.13Y-704.47
X358.67Y-544.45
X358.67Y-546.99
X358.67Y-549.53
X358.67Y-567.31
X358.67Y-569.85
X358.67Y-572.39
X358.67Y-574.93
X358.67Y-577.47
X358.67Y-585.09
X358.67Y-587.63
X358.67Y-590.17
X358.67Y-592.71
X358.67Y-595.25
X358.67Y-613.03
X358.67Y-615.57
X358.67Y-618.11
X358.67Y-620.65
X358.67Y-623.19
X358.67Y-625.73
X358.67Y-633.35
X358.67Y-635.89
X358.67Y-638.43
X358.67Y-640.97
X358.67Y-643.51
X358.67Y-646.05
X358.67Y-648.59
X358.67Y-651.13
X358.67Y-653.67
X358.67Y-656.21
X358.67Y-658.75
X358.67Y-668.91
X358.67Y-671.45
X358.67Y-681.61
X358.67Y-691.77
X358.67Y-694.31
X358.67Y-696.85
X358.67Y-699.39
X358.67Y-701.93
X358.67Y-704.47
X361.21Y-544.45
X361.21Y-546.99
X361.21Y-549.53
X361.21Y-567.31
X361.21Y-569.85
X361.21Y-572.39
X361.21Y-574.93
X361.21Y-577.47
X361.21Y-585.09
X361.21Y-587.63
X361.21Y-590.17
X361.21Y-592.71
X361.21Y-610.49
X361.21Y-613.03
X361.21Y-615.57
X361.21Y-618.11
X361.21Y-620.65
X361.21Y-623.19
X361.21Y-630.81
X361.21Y-633.35
X361.21Y-635.89
X361.21Y-638.43
X361.21Y-640.97
X361.21Y-643.51
X361.21Y-646.05
X361.21Y-648.59
X361.21Y-651.13
X361.21Y-653.67
X361.21Y-656.21
X361.21Y-666.37
X361.21Y-668.91
X361.21Y-671.45
X361.21Y-681.61
X361.21Y-691.77
X361.21Y-694.31
X361.21Y-696.85
X361.21Y-699.39
X361.21Y-701.93
X361.21Y-704.47
X363.75Y-544.45
X363.75Y-546.99
X363.75Y-549.53
X363.75Y-567.31
X363.75Y-569.85
X363.75Y-572.39
X363.75Y-574.93
X363.75Y-577.47
X363.75Y-585.09
X363.75Y-587.63
X363.75Y-590.17
X363.75Y-607.95
X363.75Y-610.49
X363.75Y-613.03
X363.75Y-615.57
X363.75Y-618.11
X363.75Y-620.65
X363.75Y-628.27
X363.75Y-630.81
X363.75Y-633.35
X363.75Y-635.89
X363.75Y-638.43
X363.75Y-640.97
X363.75Y-643.51
X363.75Y-646.05
X363.75Y-648.59
X363.75Y-651.13
X363.75Y-653.67
X363.75Y-663.83
X363.75Y-666.37
X363.75Y-668.91
X363.75Y-671.45
X363.75Y-681.61
X363.75Y-691.77
X363.75Y-694.31
X363.75Y-696.85
X363.75Y-699.39
X363.75Y-701.93
X363.75Y-704.47
X366.29Y-544.45
X366.29Y-546.99
X366.29Y-549.53
X366.29Y-567.31
X366.29Y-569.85
X366.29Y-572.39
X366.29Y-574.93
X366.29Y-577.47
X366.29Y-585.09
X366.29Y-587.63
X366.29Y-605.41
X366.29Y-607.95
X366.29Y-610.49
X366.29Y-613.03
X366.29Y-615.57
X366.29Y-618.11
X366.29Y-625.73
X366.29Y-628.27
X366.29Y-630.81
X366.29Y-633.35
X366.29Y-635.89
X366.29Y-638.43
X366.29Y-640.97
X366.29Y-643.51
X366.29Y-646.05
X366.29Y-648.59
X366.29Y-651.13
X366.29Y-661.29
X366.29Y-663.83
X366.29Y-666.37
X366.29Y-668.91
X366.29Y-681.61
X366.29Y-691.77
X366.29Y-694.31
X366.29Y-696.85
X366.29Y-699.39
X366.29Y-701.93
X366.29Y-704.47
X368.83Y-544.45
X368.83Y-546.99
X368.83Y-549.53
X368.83Y-567.31
X368.83Y-569.85
X368.83Y-572.39
X368.83Y-574.93
X368.83Y-577.47
X368.83Y-585.09
X368.83Y-602.87
X368.83Y-605.41
X368.83Y-607.95
X368.83Y-610.49
X368.83Y-613.03
X368.83Y-615.57
X368.83Y-623.19
X368.83Y-625.73
X368.83Y-628.27
X368.83Y-630.81
X368.83Y-633.35
X368.83Y-635.89
X368.83Y-638.43
X368.83Y-640.97
X368.83Y-643.51
X368.83Y-646.05
X368.83Y-648.59
X368.83Y-658.75
X368.83Y-661.29
X368.83Y-663.83
X368.83Y-666.37
X368.83Y-681.61
X368.83Y-691.77
X368.83Y-694.31
X368.83Y-696.85
X368.83Y-699.39
X368.83Y-701.93
X368.83Y-704.47
X371.37Y-544.45
X371.37Y-546.99
X371.37Y-549.53
X371.37Y-567.31
X371.37Y-569.85
X371.37Y-572.39
X371.37Y-574.93
X371.37Y-577.47
X371.37Y-600.33
X371.37Y-602.87
X371.37Y-605.41
X371.37Y-607.95
X371.37Y-610.49
X371.37Y-613.03
X371.37Y-620.65
X371.37Y-623.19
X371.37Y-625.73
X371.37Y-628.27
X371.37Y-630.81
X371.37Y-633.35
X371.37Y-635.89
X371.37Y-638.43
X371.37Y-640.97
X371.37Y-643.51
X371.37Y-646.05
X371.37Y-656.21
X371.37Y-658.75
X371.37Y-661.29
X371.37Y-663.83
X371.37Y-679.07
X371.37Y-681.61
X371.37Y-691.77
X371.37Y-694.31
X371.37Y-696.85
X371.37Y-699.39
X371.37Y-701.93
X371.37Y-704.47
X373.91Y-544.45
X373.91Y-546.99
X373.91Y-549.53
X373.91Y-587.63
X373.91Y-597.79
X373.91Y-600.33
X373.91Y-602.87
X373.91Y-605.41
X373.91Y-607.95
X373.91Y-610.49
X373.91Y-618.11
X373.91Y-620.65
X373.91Y-623.19
X373.91Y-625.73
X373.91Y-628.27
X373.91Y-630.81
X373.91Y-633.35
X373.91Y-635.89
X373.91Y-638.43
X373.91Y-640.97
X373.91Y-643.51
X373.91Y-653.67
X373.91Y-656.21
X373.91Y-658.75
X373.91Y-661.29
X373.91Y-676.53
X373.91Y-679.07
X373.91Y-681.61
X373.91Y-691.77
X373.91Y-694.31
X373.91Y-696.85
X373.91Y-699.39
X373.91Y-701.93
X373.91Y-704.47
X376.45Y-544.45
X376.45Y-546.99
X376.45Y-549.53
X376.45Y-585.09
X376.45Y-595.25
X376.45Y-597.79
X376.45Y-600.33
X376.45Y-602.87
X376.45Y-605.41
X376.45Y-607.95
X376.45Y-615.57
X376.45Y-618.11
X376.45Y-620.65
X376.45Y-623.19
X376.45Y-625.73
X376.45Y-628.27
X376.45Y-630.81
X376.45Y-633.35
X376.45Y-635.89
X376.45Y-638.43
X376.45Y-640.97
X376.45Y-651.13
X376.45Y-653.67
X376.45Y-656.21
X376.45Y-658.75
X376.45Y-673.99
X376.45Y-676.53
X376.45Y-679.07
X376.45Y-681.61
X376.45Y-691.77
X376.45Y-694.31
X376.45Y-696.85
X376.45Y-699.39
X376.45Y-701.93
X376.45Y-704.47
X376.674Y-592.798
X378.99Y-544.45
X378.99Y-546.99
X378.99Y-549.53
X378.99Y-595.25
X378.99Y-597.79
X378.99Y-600.33
X378.99Y-602.87
X378.99Y-605.41
X378.99Y-613.03
X378.99Y-615.57
X378.99Y-618.11
X378.99Y-620.65
X378.99Y-623.19
X378.99Y-625.73
X378.99Y-628.27
X378.99Y-630.81
X378.99Y-633.35
X378.99Y-635.89
X378.99Y-638.43
X378.99Y-648.59
X378.99Y-651.13
X378.99Y-653.67
X378.99Y-656.21
X378.99Y-671.45
X378.99Y-673.99
X378.99Y-676.53
X378.99Y-679.07
X378.99Y-681.61
X378.99Y-691.77
X378.99Y-694.31
X378.99Y-696.85
X378.99Y-699.39
X378.99Y-701.93
X378.99Y-704.47
X380.324Y-592.698
X381.53Y-544.45
X381.53Y-546.99
X381.53Y-549.53
X381.53Y-595.25
X381.53Y-600.33
X381.53Y-602.87
X381.53Y-610.49
X381.53Y-613.03
X381.53Y-615.57
X381.53Y-618.11
X381.53Y-620.65
X381.53Y-623.19
X381.53Y-625.73
X381.53Y-628.27
X381.53Y-630.81
X381.53Y-633.35
X381.53Y-635.89
X381.53Y-646.05
X381.53Y-648.59
X381.53Y-651.13
X381.53Y-653.67
X381.53Y-668.91
X381.53Y-671.45
X381.53Y-673.99
X381.53Y-676.53
X381.53Y-679.07
X381.53Y-681.61
X381.53Y-691.77
X381.53Y-694.31
X381.53Y-696.85
X381.53Y-699.39
X381.53Y-701.93
X381.53Y-704.47
X383.074Y-596.948
X384.07Y-544.45
X384.07Y-546.99
X384.07Y-549.53
X384.07Y-600.33
X384.07Y-607.95
X384.07Y-610.49
X384.07Y-613.03
X384.07Y-615.57
X384.07Y-618.11
X384.07Y-620.65
X384.07Y-623.19
X384.07Y-625.73
X384.07Y-628.27
X384.07Y-630.81
X384.07Y-633.35
X384.07Y-643.51
X384.07Y-646.05
X384.07Y-648.59
X384.07Y-651.13
X384.07Y-666.37
X384.07Y-668.91
X384.07Y-671.45
X384.07Y-673.99
X384.07Y-676.53
X384.07Y-679.07
X384.07Y-681.61
X384.07Y-691.77
X384.07Y-694.31
X384.07Y-696.85
X384.07Y-699.39
X384.07Y-701.93
X384.07Y-704.47
X386.574Y-592.798
X386.61Y-544.45
X386.61Y-546.99
X386.61Y-549.53
X386.61Y-567.31
X386.61Y-569.85
X386.61Y-572.39
X386.61Y-574.93
X386.61Y-577.47
X386.61Y-605.41
X386.61Y-607.95
X386.61Y-610.49
X386.61Y-613.03
X386.61Y-615.57
X386.61Y-618.11
X386.61Y-620.65
X386.61Y-623.19
X386.61Y-625.73
X386.61Y-628.27
X386.61Y-630.81
X386.61Y-640.97
X386.61Y-643.51
X386.61Y-646.05
X386.61Y-648.59
X386.61Y-663.83
X386.61Y-666.37
X386.61Y-668.91
X386.61Y-671.45
X386.61Y-673.99
X386.61Y-676.53
X386.61Y-679.07
X386.61Y-681.61
X386.61Y-691.77
X386.61Y-694.31
X386.61Y-696.85
X386.61Y-699.39
X386.61Y-701.93
X386.61Y-704.47
X389.15Y-544.45
X389.15Y-546.99
X389.15Y-549.53
X389.15Y-592.71
X389.15Y-602.87
X389.15Y-605.41
X389.15Y-607.95
X389.15Y-610.49
X389.15Y-613.03
X389.15Y-615.57
X389.15Y-618.11
X389.15Y-620.65
X389.15Y-623.19
X389.15Y-625.73
X389.15Y-628.27
X389.15Y-638.43
X389.15Y-640.97
X389.15Y-643.51
X389.15Y-646.05
X389.15Y-661.29
X389.15Y-663.83
X389.15Y-666.37
X389.15Y-668.91
X389.15Y-671.45
X389.15Y-673.99
X389.15Y-676.53
X389.15Y-679.07
X389.15Y-681.61
X389.15Y-691.77
X389.15Y-694.31
X389.15Y-696.85
X389.15Y-699.39
X389.15Y-701.93
X389.15Y-704.47
X389.574Y-596.998
X391.69Y-544.45
X391.69Y-546.99
X391.69Y-549.53
X391.69Y-585.09
X391.69Y-587.63
X391.69Y-590.17
X391.69Y-592.71
X391.69Y-595.25
X391.69Y-597.79
X391.69Y-600.33
X391.69Y-602.87
X391.69Y-605.41
X391.69Y-607.95
X391.69Y-610.49
X391.69Y-613.03
X391.69Y-615.57
X391.69Y-618.11
X391.69Y-620.65
X391.69Y-623.19
X391.69Y-625.73
X391.69Y-635.89
X391.69Y-638.43
X391.69Y-640.97
X391.69Y-643.51
X391.69Y-658.75
X391.69Y-661.29
X391.69Y-663.83
X391.69Y-666.37
X391.69Y-668.91
X391.69Y-671.45
X391.69Y-673.99
X391.69Y-676.53
X391.69Y-679.07
X391.69Y-681.61
X391.69Y-691.77
X391.69Y-694.31
X391.69Y-696.85
X391.69Y-699.39
X391.69Y-701.93
X391.69Y-704.47
X394.23Y-544.45
X394.23Y-546.99
X394.23Y-549.53
X394.23Y-585.09
X394.23Y-587.63
X394.23Y-590.17
X394.23Y-592.71
X394.23Y-595.25
X394.23Y-597.79
X394.23Y-600.33
X394.23Y-602.87
X394.23Y-605.41
X394.23Y-607.95
X394.23Y-610.49
X394.23Y-613.03
X394.23Y-615.57
X394.23Y-618.11
X394.23Y-620.65
X394.23Y-623.19
X394.23Y-633.35
X394.23Y-635.89
X394.23Y-638.43
X394.23Y-640.97
X394.23Y-656.21
X394.23Y-658.75
X394.23Y-661.29
X394.23Y-663.83
X394.23Y-666.37
X394.23Y-668.91
X394.23Y-671.45
X394.23Y-673.99
X394.23Y-676.53
X394.23Y-679.07
X394.23Y-681.61
X394.23Y-691.77
X394.23Y-694.31
X394.23Y-696.85
X394.23Y-699.39
X394.23Y-701.93
X394.23Y-704.47
X396.77Y-544.45
X396.77Y-546.99
X396.77Y-549.53
X396.77Y-585.09
X396.77Y-587.63
X396.77Y-590.17
X396.77Y-592.71
X396.77Y-595.25
X396.77Y-597.79
X396.77Y-600.33
X396.77Y-602.87
X396.77Y-605.41
X396.77Y-607.95
X396.77Y-610.49
X396.77Y-613.03
X396.77Y-615.57
X396.77Y-618.11
X396.77Y-620.65
X396.77Y-630.81
X396.77Y-633.35
X396.77Y-635.89
X396.77Y-638.43
X396.77Y-653.67
X396.77Y-656.21
X396.77Y-658.75
X396.77Y-661.29
X396.77Y-663.83
X396.77Y-666.37
X396.77Y-668.91
X396.77Y-671.45
X396.77Y-673.99
X396.77Y-676.53
X396.77Y-679.07
X396.77Y-681.61
X396.77Y-691.77
X396.77Y-694.31
X396.77Y-696.85
X396.77Y-699.39
X396.77Y-701.93
X396.77Y-704.47
X399.31Y-544.45
X399.31Y-546.99
X399.31Y-549.53
X399.31Y-585.09
X399.31Y-587.63
X399.31Y-590.17
X399.31Y-592.71
X399.31Y-595.25
X399.31Y-597.79
X399.31Y-600.33
X399.31Y-602.87
X399.31Y-605.41
X399.31Y-607.95
X399.31Y-610.49
X399.31Y-613.03
X399.31Y-615.57
X399.31Y-618.11
X399.31Y-628.27
X399.31Y-630.81
X399.31Y-633.35
X399.31Y-635.89
X399.31Y-651.13
X399.31Y-653.67
X399.31Y-656.21
X399.31Y-658.75
X399.31Y-661.29
X399.31Y-663.83
X399.31Y-666.37
X399.31Y-668.91
X399.31Y-671.45
X399.31Y-673.99
X399.31Y-676.53
X399.31Y-679.07
X399.31Y-681.61
X399.31Y-691.77
X399.31Y-694.31
X399.31Y-696.85
X399.31Y-699.39
X399.31Y-701.93
X399.31Y-704.47
X401.85Y-544.45
X401.85Y-546.99
X401.85Y-549.53
X401.85Y-567.31
X401.85Y-569.85
X401.85Y-572.39
X401.85Y-574.93
X401.85Y-577.47
X401.85Y-585.09
X401.85Y-587.63
X401.85Y-590.17
X401.85Y-592.71
X401.85Y-595.25
X401.85Y-597.79
X401.85Y-600.33
X401.85Y-602.87
X401.85Y-605.41
X401.85Y-607.95
X401.85Y-610.49
X401.85Y-613.03
X401.85Y-615.57
X401.85Y-625.73
X401.85Y-628.27
X401.85Y-630.81
X401.85Y-633.35
X401.85Y-648.59
X401.85Y-651.13
X401.85Y-653.67
X401.85Y-656.21
X401.85Y-658.75
X401.85Y-661.29
X401.85Y-663.83
X401.85Y-666.37
X401.85Y-668.91
X401.85Y-671.45
X401.85Y-673.99
X401.85Y-676.53
X401.85Y-679.07
X401.85Y-681.61
X401.85Y-691.77
X401.85Y-694.31
X401.85Y-696.85
X401.85Y-699.39
X401.85Y-701.93
X401.85Y-704.47
X404.39Y-544.45
X404.39Y-546.99
X404.39Y-549.53
X404.39Y-567.31
X404.39Y-569.85
X404.39Y-572.39
X404.39Y-574.93
X404.39Y-577.47
X404.39Y-585.09
X404.39Y-587.63
X404.39Y-590.17
X404.39Y-592.71
X404.39Y-595.25
X404.39Y-597.79
X404.39Y-600.33
X404.39Y-602.87
X404.39Y-605.41
X404.39Y-607.95
X404.39Y-610.49
X404.39Y-613.03
X404.39Y-623.19
X404.39Y-625.73
X404.39Y-628.27
X404.39Y-630.81
X404.39Y-646.05
X404.39Y-648.59
X404.39Y-651.13
X404.39Y-653.67
X404.39Y-656.21
X404.39Y-658.75
X404.39Y-661.29
X404.39Y-663.83
X404.39Y-666.37
X404.39Y-668.91
X404.39Y-671.45
X404.39Y-673.99
X404.39Y-676.53
X404.39Y-679.07
X404.39Y-681.61
X404.39Y-691.77
X404.39Y-694.31
X404.39Y-696.85
X404.39Y-699.39
X404.39Y-701.93
X404.39Y-704.47
X406.93Y-544.45
X406.93Y-546.99
X406.93Y-549.53
X406.93Y-567.31
X406.93Y-569.85
X406.93Y-572.39
X406.93Y-574.93
X406.93Y-577.47
X406.93Y-585.09
X406.93Y-587.63
X406.93Y-590.17
X406.93Y-592.71
X406.93Y-595.25
X406.93Y-597.79
X406.93Y-600.33
X406.93Y-602.87
X406.93Y-605.41
X406.93Y-607.95
X406.93Y-610.49
X406.93Y-620.65
X406.93Y-623.19
X406.93Y-625.73
X406.93Y-628.27
X406.93Y-643.51
X406.93Y-646.05
X406.93Y-648.59
X406.93Y-651.13
X406.93Y-653.67
X406.93Y-656.21
X406.93Y-658.75
X406.93Y-661.29
X406.93Y-663.83
X406.93Y-666.37
X406.93Y-668.91
X406.93Y-671.45
X406.93Y-673.99
X406.93Y-676.53
X406.93Y-679.07
X406.93Y-681.61
X406.93Y-691.77
X406.93Y-694.31
X406.93Y-696.85
X406.93Y-699.39
X406.93Y-701.93
X406.93Y-704.47
X409.47Y-544.45
X409.47Y-546.99
X409.47Y-549.53
X409.47Y-567.31
X409.47Y-569.85
X409.47Y-572.39
X409.47Y-574.93
X409.47Y-577.47
X409.47Y-585.09
X409.47Y-587.63
X409.47Y-590.17
X409.47Y-592.71
X409.47Y-595.25
X409.47Y-597.79
X409.47Y-600.33
X409.47Y-602.87
X409.47Y-605.41
X409.47Y-607.95
X409.47Y-618.11
X409.47Y-620.65
X409.47Y-623.19
X409.47Y-625.73
X409.47Y-640.97
X409.47Y-643.51
X409.47Y-646.05
X409.47Y-648.59
X409.47Y-651.13
X409.47Y-653.67
X409.47Y-656.21
X409.47Y-658.75
X409.47Y-661.29
X409.47Y-663.83
X409.47Y-666.37
X409.47Y-668.91
X409.47Y-671.45
X409.47Y-673.99
X409.47Y-676.53
X409.47Y-679.07
X409.47Y-681.61
X409.47Y-691.77
X409.47Y-694.31
X409.47Y-696.85
X409.47Y-699.39
X409.47Y-701.93
X409.47Y-704.47
X412.01Y-544.45
X412.01Y-546.99
X412.01Y-549.53
X412.01Y-567.31
X412.01Y-569.85
X412.01Y-572.39
X412.01Y-574.93
X412.01Y-577.47
X412.01Y-585.09
X412.01Y-587.63
X412.01Y-590.17
X412.01Y-592.71
X412.01Y-595.25
X412.01Y-597.79
X412.01Y-600.33
X412.01Y-602.87
X412.01Y-605.41
X412.01Y-615.57
X412.01Y-618.11
X412.01Y-620.65
X412.01Y-623.19
X412.01Y-638.43
X412.01Y-640.97
X412.01Y-643.51
X412.01Y-646.05
X412.01Y-648.59
X412.01Y-651.13
X412.01Y-653.67
X412.01Y-656.21
X412.01Y-658.75
X412.01Y-661.29
X412.01Y-663.83
X412.01Y-666.37
X412.01Y-668.91
X412.01Y-671.45
X412.01Y-673.99
X412.01Y-676.53
X412.01Y-679.07
X412.01Y-681.61
X412.01Y-691.77
X412.01Y-694.31
X412.01Y-696.85
X412.01Y-699.39
X412.01Y-701.93
X412.01Y-704.47
X414.55Y-544.45
X414.55Y-546.99
X414.55Y-549.53
X414.55Y-567.31
X414.55Y-569.85
X414.55Y-572.39
X414.55Y-574.93
X414.55Y-577.47
X414.55Y-585.09
X414.55Y-587.63
X414.55Y-590.17
X414.55Y-592.71
X414.55Y-595.25
X414.55Y-597.79
X414.55Y-600.33
X414.55Y-602.87
X414.55Y-613.03
X414.55Y-615.57
X414.55Y-618.11
X414.55Y-620.65
X414.55Y-635.89
X414.55Y-638.43
X414.55Y-640.97
X414.55Y-643.51
X414.55Y-646.05
X414.55Y-648.59
X414.55Y-651.13
X414.55Y-653.67
X414.55Y-656.21
X414.55Y-658.75
X414.55Y-661.29
X414.55Y-663.83
X414.55Y-666.37
X414.55Y-668.91
X414.55Y-671.45
X414.55Y-673.99
X414.55Y-676.53
X414.55Y-679.07
X414.55Y-681.61
X414.55Y-691.77
X414.55Y-694.31
X414.55Y-696.85
X414.55Y-699.39
X414.55Y-701.93
X414.55Y-704.47
X417.09Y-544.45
X417.09Y-546.99
X417.09Y-549.53
X417.09Y-567.31
X417.09Y-569.85
X417.09Y-572.39
X417.09Y-574.93
X417.09Y-577.47
X417.09Y-585.09
X417.09Y-587.63
X417.09Y-590.17
X417.09Y-592.71
X417.09Y-595.25
X417.09Y-597.79
X417.09Y-600.33
X417.09Y-610.49
X417.09Y-613.03
X417.09Y-615.57
X417.09Y-618.11
X417.09Y-633.35
X417.09Y-635.89
X417.09Y-638.43
X417.09Y-640.97
X417.09Y-643.51
X417.09Y-646.05
X417.09Y-648.59
X417.09Y-651.13
X417.09Y-653.67
X417.09Y-656.21
X417.09Y-658.75
X417.09Y-661.29
X417.09Y-663.83
X417.09Y-666.37
X417.09Y-668.91
X417.09Y-671.45
X417.09Y-673.99
X417.09Y-676.53
X417.09Y-679.07
X417.09Y-681.61
X417.09Y-691.77
X417.09Y-694.31
X417.09Y-696.85
X417.09Y-699.39
X417.09Y-701.93
X417.09Y-704.47
X419.63Y-544.45
X419.63Y-546.99
X419.63Y-549.53
X419.63Y-567.31
X419.63Y-569.85
X419.63Y-572.39
X419.63Y-574.93
X419.63Y-577.47
X419.63Y-585.09
X419.63Y-587.63
X419.63Y-590.17
X419.63Y-592.71
X419.63Y-595.25
X419.63Y-597.79
X419.63Y-607.95
X419.63Y-610.49
X419.63Y-613.03
X419.63Y-615.57
X419.63Y-630.81
X419.63Y-633.35
X419.63Y-635.89
X419.63Y-638.43
X419.63Y-640.97
X419.63Y-643.51
X419.63Y-646.05
X419.63Y-648.59
X419.63Y-651.13
X419.63Y-653.67
X419.63Y-656.21
X419.63Y-658.75
X419.63Y-661.29
X419.63Y-663.83
X419.63Y-666.37
X419.63Y-668.91
X419.63Y-671.45
X419.63Y-673.99
X419.63Y-676.53
X419.63Y-679.07
X419.63Y-681.61
X419.63Y-691.77
X419.63Y-694.31
X419.63Y-696.85
X419.63Y-699.39
X419.63Y-701.93
X419.63Y-704.47
X422.17Y-544.45
X422.17Y-546.99
X422.17Y-549.53
X422.17Y-567.31
X422.17Y-569.85
X422.17Y-572.39
X422.17Y-574.93
X422.17Y-577.47
X422.17Y-585.09
X422.17Y-587.63
X422.17Y-590.17
X422.17Y-592.71
X422.17Y-595.25
X422.17Y-605.41
X422.17Y-607.95
X422.17Y-610.49
X422.17Y-613.03
X422.17Y-628.27
X422.17Y-630.81
X422.17Y-633.35
X422.17Y-635.89
X422.17Y-638.43
X422.17Y-640.97
X422.17Y-643.51
X422.17Y-646.05
X422.17Y-648.59
X422.17Y-651.13
X422.17Y-653.67
X422.17Y-656.21
X422.17Y-658.75
X422.17Y-661.29
X422.17Y-663.83
X422.17Y-666.37
X422.17Y-668.91
X422.17Y-671.45
X422.17Y-673.99
X422.17Y-676.53
X422.17Y-679.07
X422.17Y-691.77
X422.17Y-694.31
X422.17Y-696.85
X422.17Y-699.39
X422.17Y-701.93
X422.17Y-704.47
X424.71Y-544.45
X424.71Y-546.99
X424.71Y-549.53
X424.71Y-567.31
X424.71Y-569.85
X424.71Y-572.39
X424.71Y-574.93
X424.71Y-577.47
X424.71Y-585.09
X424.71Y-587.63
X424.71Y-590.17
X424.71Y-592.71
X424.71Y-602.87
X424.71Y-605.41
X424.71Y-607.95
X424.71Y-610.49
X424.71Y-625.73
X424.71Y-628.27
X424.71Y-630.81
X424.71Y-633.35
X424.71Y-635.89
X424.71Y-638.43
X424.71Y-640.97
X424.71Y-643.51
X424.71Y-646.05
X424.71Y-648.59
X424.71Y-651.13
X424.71Y-653.67
X424.71Y-656.21
X424.71Y-658.75
X424.71Y-661.29
X424.71Y-663.83
X424.71Y-666.37
X424.71Y-668.91
X424.71Y-671.45
X424.71Y-673.99
X424.71Y-676.53
X424.71Y-684.15
X424.71Y-691.77
X424.71Y-694.31
X424.71Y-696.85
X424.71Y-699.39
X424.71Y-701.93
X424.71Y-704.47
X427.25Y-544.45
X427.25Y-546.99
X427.25Y-549.53
X427.25Y-567.31
X427.25Y-569.85
X427.25Y-572.39
X427.25Y-574.93
X427.25Y-577.47
X427.25Y-585.09
X427.25Y-587.63
X427.25Y-590.17
X427.25Y-600.33
X427.25Y-602.87
X427.25Y-605.41
X427.25Y-607.95
X427.25Y-623.19
X427.25Y-625.73
X427.25Y-628.27
X427.25Y-630.81
X427.25Y-633.35
X427.25Y-635.89
X427.25Y-638.43
X427.25Y-640.97
X427.25Y-643.51
X427.25Y-646.05
X427.25Y-648.59
X427.25Y-651.13
X427.25Y-653.67
X427.25Y-656.21
X427.25Y-658.75
X427.25Y-661.29
X427.25Y-663.83
X427.25Y-666.37
X427.25Y-668.91
X427.25Y-671.45
X427.25Y-673.99
X427.25Y-681.61
X427.25Y-684.15
X427.25Y-691.77
X427.25Y-694.31
X427.25Y-696.85
X427.25Y-699.39
X427.25Y-701.93
X427.25Y-704.47
X429.79Y-544.45
X429.79Y-546.99
X429.79Y-549.53
X429.79Y-567.31
X429.79Y-569.85
X429.79Y-572.39
X429.79Y-574.93
X429.79Y-577.47
X429.79Y-585.09
X429.79Y-587.63
X429.79Y-597.79
X429.79Y-600.33
X429.79Y-602.87
X429.79Y-605.41
X429.79Y-620.65
X429.79Y-623.19
X429.79Y-625.73
X429.79Y-628.27
X429.79Y-630.81
X429.79Y-633.35
X429.79Y-635.89
X429.79Y-638.43
X429.79Y-640.97
X429.79Y-643.51
X429.79Y-646.05
X429.79Y-648.59
X429.79Y-651.13
X429.79Y-653.67
X429.79Y-656.21
X429.79Y-658.75
X429.79Y-661.29
X429.79Y-663.83
X429.79Y-666.37
X429.79Y-668.91
X429.79Y-671.45
X429.79Y-679.07
X429.79Y-681.61
X429.79Y-684.15
X429.79Y-691.77
X429.79Y-694.31
X429.79Y-696.85
X429.79Y-699.39
X429.79Y-701.93
X429.79Y-704.47
X432.33Y-544.45
X432.33Y-546.99
X432.33Y-549.53
X432.33Y-567.31
X432.33Y-569.85
X432.33Y-572.39
X432.33Y-574.93
X432.33Y-577.47
X432.33Y-585.09
X432.33Y-618.11
X432.33Y-620.65
X432.33Y-623.19
X432.33Y-625.73
X432.33Y-628.27
X432.33Y-630.81
X432.33Y-633.35
X432.33Y-635.89
X432.33Y-638.43
X432.33Y-640.97
X432.33Y-643.51
X432.33Y-646.05
X432.33Y-648.59
X432.33Y-651.13
X432.33Y-653.67
X432.33Y-656.21
X432.33Y-658.75
X432.33Y-661.29
X432.33Y-663.83
X432.33Y-666.37
X432.33Y-668.91
X432.33Y-676.53
X432.33Y-679.07
X432.33Y-681.61
X432.33Y-684.15
X432.33Y-691.77
X432.33Y-694.31
X432.33Y-696.85
X432.33Y-699.39
X432.33Y-701.93
X432.33Y-704.47
X434.87Y-544.45
X434.87Y-546.99
X434.87Y-549.53
X434.87Y-615.57
X434.87Y-618.11
X434.87Y-620.65
X434.87Y-623.19
X434.87Y-625.73
X434.87Y-628.27
X434.87Y-630.81
X434.87Y-633.35
X434.87Y-635.89
X434.87Y-638.43
X434.87Y-640.97
X434.87Y-643.51
X434.87Y-646.05
X434.87Y-648.59
X434.87Y-651.13
X434.87Y-653.67
X434.87Y-656.21
X434.87Y-658.75
X434.87Y-661.29
X434.87Y-663.83
X434.87Y-666.37
X434.87Y-673.99
X434.87Y-676.53
X434.87Y-679.07
X434.87Y-681.61
X434.87Y-684.15
X434.87Y-691.77
X434.87Y-694.31
X434.87Y-696.85
X434.87Y-699.39
X434.87Y-701.93
X434.87Y-704.47
X436.724Y-592.698
X437.41Y-549.53
X437.41Y-595.25
X437.41Y-605.41
X437.41Y-613.03
X437.41Y-615.57
X437.41Y-618.11
X437.41Y-620.65
X437.41Y-623.19
X437.41Y-625.73
X437.41Y-628.27
X437.41Y-630.81
X437.41Y-633.35
X437.41Y-635.89
X437.41Y-638.43
X437.41Y-640.97
X437.41Y-643.51
X437.41Y-646.05
X437.41Y-648.59
X437.41Y-651.13
X437.41Y-661.29
X437.41Y-663.83
X437.41Y-671.45
X437.41Y-673.99
X437.41Y-676.53
X437.41Y-679.07
X437.41Y-681.61
X437.41Y-684.15
X437.41Y-691.77
X437.41Y-694.31
X437.41Y-696.85
X437.41Y-699.39
X437.41Y-701.93
X439.95Y-549.53
X439.95Y-595.25
X439.95Y-610.49
X439.95Y-613.03
X439.95Y-615.57
X439.95Y-618.11
X439.95Y-620.65
X439.95Y-623.19
X439.95Y-625.73
X439.95Y-628.27
X439.95Y-630.81
X439.95Y-633.35
X439.95Y-635.89
X439.95Y-638.43
X439.95Y-640.97
X439.95Y-643.51
X439.95Y-646.05
X439.95Y-648.59
X439.95Y-651.13
X439.95Y-661.29
X439.95Y-668.91
X439.95Y-671.45
X439.95Y-673.99
X439.95Y-676.53
X439.95Y-679.07
X439.95Y-681.61
X439.95Y-684.15
X439.95Y-691.77
X439.95Y-694.31
X439.95Y-696.85
X439.95Y-699.39
X439.95Y-701.93
X440.574Y-592.648
X442.49Y-549.53
X442.49Y-607.95
X442.49Y-610.49
X442.49Y-613.03
X442.49Y-615.57
X442.49Y-618.11
X442.49Y-620.65
X442.49Y-623.19
X442.49Y-625.73
X442.49Y-628.27
X442.49Y-630.81
X442.49Y-633.35
X442.49Y-635.89
X442.49Y-638.43
X442.49Y-640.97
X442.49Y-643.51
X442.49Y-646.05
X442.49Y-648.59
X442.49Y-651.13
X442.49Y-666.37
X442.49Y-668.91
X442.49Y-671.45
X442.49Y-673.99
X442.49Y-676.53
X442.49Y-679.07
X442.49Y-681.61
X442.49Y-684.15
X442.49Y-691.77
X442.49Y-694.31
X442.49Y-696.85
X442.49Y-699.39
X442.49Y-701.93
X443.874Y-596.498
X445.03Y-544.45
X445.03Y-546.99
X445.03Y-549.53
X445.03Y-592.71
X445.03Y-605.41
X445.03Y-607.95
X445.03Y-610.49
X445.03Y-613.03
X445.03Y-615.57
X445.03Y-618.11
X445.03Y-620.65
X445.03Y-623.19
X445.03Y-625.73
X445.03Y-628.27
X445.03Y-630.81
X445.03Y-633.35
X445.03Y-635.89
X445.03Y-638.43
X445.03Y-640.97
X445.03Y-643.51
X445.03Y-646.05
X445.03Y-648.59
X445.03Y-651.13
X445.03Y-653.67
X445.03Y-656.21
X445.03Y-663.83
X445.03Y-666.37
X445.03Y-668.91
X445.03Y-671.45
X445.03Y-673.99
X445.03Y-676.53
X445.03Y-679.07
X445.03Y-681.61
X445.03Y-684.15
X445.03Y-691.77
X445.03Y-694.31
X445.03Y-696.85
X445.03Y-699.39
X445.03Y-701.93
X445.03Y-704.47
X447.57Y-544.45
X447.57Y-546.99
X447.57Y-549.53
X447.57Y-590.17
X447.57Y-592.71
X447.57Y-595.25
X447.57Y-602.87
X447.57Y-605.41
X447.57Y-607.95
X447.57Y-610.49
X447.57Y-613.03
X447.57Y-615.57
X447.57Y-618.11
X447.57Y-620.65
X447.57Y-623.19
X447.57Y-625.73
X447.57Y-628.27
X447.57Y-630.81
X447.57Y-633.35
X447.57Y-635.89
X447.57Y-638.43
X447.57Y-640.97
X447.57Y-643.51
X447.57Y-646.05
X447.57Y-648.59
X447.57Y-651.13
X447.57Y-653.67
X447.57Y-661.29
X447.57Y-663.83
X447.57Y-666.37
X447.57Y-668.91
X447.57Y-671.45
X447.57Y-673.99
X447.57Y-676.53
X447.57Y-679.07
X447.57Y-681.61
X447.57Y-684.15
X447.57Y-691.77
X447.57Y-694.31
X447.57Y-696.85
X447.57Y-699.39
X447.57Y-701.93
X447.57Y-704.47
X449.874Y-597.498
X450.11Y-544.45
X450.11Y-546.99
X450.11Y-549.53
X450.11Y-592.71
X450.11Y-600.33
X450.11Y-602.87
X450.11Y-605.41
X450.11Y-607.95
X450.11Y-610.49
X450.11Y-613.03
X450.11Y-615.57
X450.11Y-618.11
X450.11Y-620.65
X450.11Y-623.19
X450.11Y-625.73
X450.11Y-628.27
X450.11Y-630.81
X450.11Y-633.35
X450.11Y-635.89
X450.11Y-638.43
X450.11Y-640.97
X450.11Y-643.51
X450.11Y-646.05
X450.11Y-648.59
X450.11Y-651.13
X450.11Y-658.75
X450.11Y-661.29
X450.11Y-663.83
X450.11Y-666.37
X450.11Y-668.91
X450.11Y-671.45
X450.11Y-673.99
X450.11Y-676.53
X450.11Y-679.07
X450.11Y-681.61
X450.11Y-684.15
X450.11Y-691.77
X450.11Y-694.31
X450.11Y-696.85
X450.11Y-699.39
X450.11Y-701.93
X450.11Y-704.47
X452.65Y-544.45
X452.65Y-546.99
X452.65Y-549.53
X452.65Y-585.09
X452.65Y-587.63
X452.65Y-590.17
X452.65Y-592.71
X452.65Y-595.25
X452.65Y-597.79
X452.65Y-600.33
X452.65Y-602.87
X452.65Y-605.41
X452.65Y-607.95
X452.65Y-610.49
X452.65Y-613.03
X452.65Y-615.57
X452.65Y-618.11
X452.65Y-620.65
X452.65Y-623.19
X452.65Y-625.73
X452.65Y-628.27
X452.65Y-630.81
X452.65Y-633.35
X452.65Y-635.89
X452.65Y-638.43
X452.65Y-640.97
X452.65Y-643.51
X452.65Y-646.05
X452.65Y-648.59
X452.65Y-656.21
X452.65Y-658.75
X452.65Y-661.29
X452.65Y-663.83
X452.65Y-666.37
X452.65Y-668.91
X452.65Y-671.45
X452.65Y-673.99
X452.65Y-676.53
X452.65Y-679.07
X452.65Y-681.61
X452.65Y-684.15
X452.65Y-691.77
X452.65Y-694.31
X452.65Y-696.85
X452.65Y-699.39
X452.65Y-701.93
X452.65Y-704.47
X455.19Y-544.45
X455.19Y-546.99
X455.19Y-549.53
X455.19Y-585.09
X455.19Y-587.63
X455.19Y-590.17
X455.19Y-592.71
X455.19Y-595.25
X455.19Y-597.79
X455.19Y-600.33
X455.19Y-602.87
X455.19Y-605.41
X455.19Y-607.95
X455.19Y-610.49
X455.19Y-613.03
X455.19Y-615.57
X455.19Y-618.11
X455.19Y-620.65
X455.19Y-623.19
X455.19Y-625.73
X455.19Y-628.27
X455.19Y-630.81
X455.19Y-633.35
X455.19Y-635.89
X455.19Y-638.43
X455.19Y-640.97
X455.19Y-643.51
X455.19Y-646.05
X455.19Y-653.67
X455.19Y-656.21
X455.19Y-658.75
X455.19Y-661.29
X455.19Y-663.83
X455.19Y-666.37
X455.19Y-668.91
X455.19Y-671.45
X455.19Y-673.99
X455.19Y-676.53
X455.19Y-679.07
X455.19Y-681.61
X455.19Y-684.15
X455.19Y-691.77
X455.19Y-694.31
X455.19Y-696.85
X455.19Y-699.39
X455.19Y-701.93
X455.19Y-704.47
X457.73Y-544.45
X457.73Y-546.99
X457.73Y-549.53
X457.73Y-585.09
X457.73Y-587.63
X457.73Y-590.17
X457.73Y-592.71
X457.73Y-595.25
X457.73Y-597.79
X457.73Y-600.33
X457.73Y-602.87
X457.73Y-605.41
X457.73Y-607.95
X457.73Y-610.49
X457.73Y-613.03
X457.73Y-615.57
X457.73Y-618.11
X457.73Y-620.65
X457.73Y-623.19
X457.73Y-625.73
X457.73Y-628.27
X457.73Y-630.81
X457.73Y-633.35
X457.73Y-635.89
X457.73Y-638.43
X457.73Y-640.97
X457.73Y-643.51
X457.73Y-651.13
X457.73Y-653.67
X457.73Y-656.21
X457.73Y-658.75
X457.73Y-661.29
X457.73Y-663.83
X457.73Y-666.37
X457.73Y-668.91
X457.73Y-671.45
X457.73Y-673.99
X457.73Y-676.53
X457.73Y-679.07
X457.73Y-681.61
X457.73Y-684.15
X457.73Y-691.77
X457.73Y-694.31
X457.73Y-696.85
X457.73Y-699.39
X457.73Y-701.93
X457.73Y-704.47
X460.27Y-544.45
X460.27Y-546.99
X460.27Y-549.53
X460.27Y-585.09
X460.27Y-587.63
X460.27Y-590.17
X460.27Y-592.71
X460.27Y-595.25
X460.27Y-597.79
X460.27Y-600.33
X460.27Y-602.87
X460.27Y-605.41
X460.27Y-607.95
X460.27Y-610.49
X460.27Y-613.03
X460.27Y-615.57
X460.27Y-618.11
X460.27Y-620.65
X460.27Y-623.19
X460.27Y-625.73
X460.27Y-628.27
X460.27Y-630.81
X460.27Y-633.35
X460.27Y-635.89
X460.27Y-638.43
X460.27Y-640.97
X460.27Y-648.59
X460.27Y-651.13
X460.27Y-653.67
X460.27Y-656.21
X460.27Y-658.75
X460.27Y-661.29
X460.27Y-663.83
X460.27Y-666.37
X460.27Y-668.91
X460.27Y-671.45
X460.27Y-673.99
X460.27Y-676.53
X460.27Y-679.07
X460.27Y-681.61
X460.27Y-684.15
X460.27Y-691.77
X460.27Y-694.31
X460.27Y-696.85
X460.27Y-699.39
X460.27Y-701.93
X460.27Y-704.47
X462.81Y-544.45
X462.81Y-546.99
X462.81Y-549.53
X462.81Y-567.31
X462.81Y-569.85
X462.81Y-572.39
X462.81Y-574.93
X462.81Y-577.47
X462.81Y-585.09
X462.81Y-587.63
X462.81Y-590.17
X462.81Y-592.71
X462.81Y-595.25
X462.81Y-597.79
X462.81Y-600.33
X462.81Y-602.87
X462.81Y-605.41
X462.81Y-607.95
X462.81Y-610.49
X462.81Y-613.03
X462.81Y-615.57
X462.81Y-618.11
X462.81Y-620.65
X462.81Y-623.19
X462.81Y-625.73
X462.81Y-628.27
X462.81Y-630.81
X462.81Y-633.35
X462.81Y-635.89
X462.81Y-638.43
X462.81Y-646.05
X462.81Y-648.59
X462.81Y-651.13
X462.81Y-653.67
X462.81Y-656.21
X462.81Y-658.75
X462.81Y-661.29
X462.81Y-663.83
X462.81Y-666.37
X462.81Y-668.91
X462.81Y-671.45
X462.81Y-673.99
X462.81Y-676.53
X462.81Y-679.07
X462.81Y-681.61
X462.81Y-684.15
X462.81Y-691.77
X462.81Y-694.31
X462.81Y-696.85
X462.81Y-699.39
X462.81Y-701.93
X462.81Y-704.47
X465.35Y-544.45
X465.35Y-546.99
X465.35Y-549.53
X465.35Y-567.31
X465.35Y-569.85
X465.35Y-572.39
X465.35Y-574.93
X465.35Y-577.47
X465.35Y-585.09
X465.35Y-587.63
X465.35Y-590.17
X465.35Y-592.71
X465.35Y-595.25
X465.35Y-597.79
X465.35Y-600.33
X465.35Y-602.87
X465.35Y-605.41
X465.35Y-607.95
X465.35Y-610.49
X465.35Y-613.03
X465.35Y-615.57
X465.35Y-618.11
X465.35Y-620.65
X465.35Y-623.19
X465.35Y-625.73
X465.35Y-628.27
X465.35Y-630.81
X465.35Y-633.35
X465.35Y-635.89
X465.35Y-643.51
X465.35Y-646.05
X465.35Y-648.59
X465.35Y-651.13
X465.35Y-653.67
X465.35Y-656.21
X465.35Y-658.75
X465.35Y-661.29
X465.35Y-663.83
X465.35Y-666.37
X465.35Y-668.91
X465.35Y-671.45
X465.35Y-673.99
X465.35Y-676.53
X465.35Y-679.07
X465.35Y-681.61
X465.35Y-691.77
X465.35Y-694.31
X465.35Y-696.85
X465.35Y-699.39
X465.35Y-701.93
X465.35Y-704.47
X467.89Y-544.45
X467.89Y-546.99
X467.89Y-549.53
X467.89Y-567.31
X467.89Y-569.85
X467.89Y-572.39
X467.89Y-574.93
X467.89Y-577.47
X467.89Y-585.09
X467.89Y-587.63
X467.89Y-590.17
X467.89Y-592.71
X467.89Y-595.25
X467.89Y-597.79
X467.89Y-600.33
X467.89Y-602.87
X467.89Y-605.41
X467.89Y-607.95
X467.89Y-610.49
X467.89Y-613.03
X467.89Y-615.57
X467.89Y-618.11
X467.89Y-620.65
X467.89Y-623.19
X467.89Y-625.73
X467.89Y-628.27
X467.89Y-630.81
X467.89Y-633.35
X467.89Y-640.97
X467.89Y-643.51
X467.89Y-646.05
X467.89Y-648.59
X467.89Y-651.13
X467.89Y-653.67
X467.89Y-656.21
X467.89Y-658.75
X467.89Y-661.29
X467.89Y-663.83
X467.89Y-666.37
X467.89Y-668.91
X467.89Y-671.45
X467.89Y-673.99
X467.89Y-676.53
X467.89Y-679.07
X467.89Y-691.77
X467.89Y-694.31
X467.89Y-696.85
X467.89Y-699.39
X467.89Y-701.93
X467.89Y-704.47
X470.43Y-544.45
X470.43Y-546.99
X470.43Y-549.53
X470.43Y-567.31
X470.43Y-569.85
X470.43Y-572.39
X470.43Y-574.93
X470.43Y-577.47
X470.43Y-585.09
X470.43Y-587.63
X470.43Y-590.17
X470.43Y-592.71
X470.43Y-595.25
X470.43Y-597.79
X470.43Y-600.33
X470.43Y-602.87
X470.43Y-605.41
X470.43Y-607.95
X470.43Y-610.49
X470.43Y-613.03
X470.43Y-615.57
X470.43Y-618.11
X470.43Y-620.65
X470.43Y-623.19
X470.43Y-625.73
X470.43Y-628.27
X470.43Y-630.81
X470.43Y-638.43
X470.43Y-640.97
X470.43Y-643.51
X470.43Y-646.05
X470.43Y-648.59
X470.43Y-651.13
X470.43Y-653.67
X470.43Y-656.21
X470.43Y-658.75
X470.43Y-661.29
X470.43Y-663.83
X470.43Y-666.37
X470.43Y-668.91
X470.43Y-671.45
X470.43Y-673.99
X470.43Y-676.53
X470.43Y-686.69
X470.43Y-691.77
X470.43Y-694.31
X470.43Y-696.85
X470.43Y-699.39
X470.43Y-701.93
X470.43Y-704.47
X472.97Y-544.45
X472.97Y-546.99
X472.97Y-549.53
X472.97Y-567.31
X472.97Y-569.85
X472.97Y-572.39
X472.97Y-574.93
X472.97Y-577.47
X472.97Y-585.09
X472.97Y-587.63
X472.97Y-590.17
X472.97Y-592.71
X472.97Y-595.25
X472.97Y-597.79
X472.97Y-600.33
X472.97Y-602.87
X472.97Y-605.41
X472.97Y-607.95
X472.97Y-610.49
X472.97Y-613.03
X472.97Y-615.57
X472.97Y-618.11
X472.97Y-620.65
X472.97Y-623.19
X472.97Y-625.73
X472.97Y-628.27
X472.97Y-635.89
X472.97Y-638.43
X472.97Y-640.97
X472.97Y-643.51
X472.97Y-646.05
X472.97Y-648.59
X472.97Y-651.13
X472.97Y-653.67
X472.97Y-656.21
X472.97Y-658.75
X472.97Y-661.29
X472.97Y-663.83
X472.97Y-666.37
X472.97Y-668.91
X472.97Y-671.45
X472.97Y-673.99
X472.97Y-684.15
X472.97Y-691.77
X472.97Y-694.31
X472.97Y-696.85
X472.97Y-699.39
X472.97Y-701.93
X472.97Y-704.47
X475.51Y-544.45
X475.51Y-546.99
X475.51Y-549.53
X475.51Y-567.31
X475.51Y-569.85
X475.51Y-572.39
X475.51Y-574.93
X475.51Y-577.47
X475.51Y-585.09
X475.51Y-587.63
X475.51Y-590.17
X475.51Y-592.71
X475.51Y-595.25
X475.51Y-597.79
X475.51Y-600.33
X475.51Y-602.87
X475.51Y-605.41
X475.51Y-607.95
X475.51Y-610.49
X475.51Y-613.03
X475.51Y-615.57
X475.51Y-618.11
X475.51Y-620.65
X475.51Y-623.19
X475.51Y-625.73
X475.51Y-633.35
X475.51Y-635.89
X475.51Y-638.43
X475.51Y-640.97
X475.51Y-643.51
X475.51Y-646.05
X475.51Y-648.59
X475.51Y-651.13
X475.51Y-653.67
X475.51Y-656.21
X475.51Y-658.75
X475.51Y-661.29
X475.51Y-663.83
X475.51Y-666.37
X475.51Y-668.91
X475.51Y-671.45
X475.51Y-681.61
X475.51Y-691.77
X475.51Y-694.31
X475.51Y-696.85
X475.51Y-699.39
X475.51Y-701.93
X475.51Y-704.47
X478.05Y-544.45
X478.05Y-546.99
X478.05Y-549.53
X478.05Y-567.31
X478.05Y-569.85
X478.05Y-572.39
X478.05Y-574.93
X478.05Y-577.47
X478.05Y-585.09
X478.05Y-587.63
X478.05Y-590.17
X478.05Y-592.71
X478.05Y-595.25
X478.05Y-597.79
X478.05Y-600.33
X478.05Y-602.87
X478.05Y-605.41
X478.05Y-607.95
X478.05Y-610.49
X478.05Y-613.03
X478.05Y-615.57
X478.05Y-618.11
X478.05Y-620.65
X478.05Y-623.19
X478.05Y-630.81
X478.05Y-633.35
X478.05Y-635.89
X478.05Y-638.43
X478.05Y-640.97
X478.05Y-643.51
X478.05Y-646.05
X478.05Y-648.59
X478.05Y-651.13
X478.05Y-653.67
X478.05Y-656.21
X478.05Y-658.75
X478.05Y-661.29
X478.05Y-663.83
X478.05Y-666.37
X478.05Y-668.91
X478.05Y-679.07
X478.05Y-686.69
X478.05Y-691.77
X478.05Y-694.31
X478.05Y-696.85
X478.05Y-699.39
X478.05Y-701.93
X478.05Y-704.47
X480.59Y-544.45
X480.59Y-546.99
X480.59Y-549.53
X480.59Y-567.31
X480.59Y-569.85
X480.59Y-572.39
X480.59Y-574.93
X480.59Y-577.47
X480.59Y-585.09
X480.59Y-587.63
X480.59Y-590.17
X480.59Y-592.71
X480.59Y-595.25
X480.59Y-597.79
X480.59Y-600.33
X480.59Y-602.87
X480.59Y-605.41
X480.59Y-607.95
X480.59Y-610.49
X480.59Y-613.03
X480.59Y-615.57
X480.59Y-618.11
X480.59Y-620.65
X480.59Y-628.27
X480.59Y-630.81
X480.59Y-633.35
X480.59Y-635.89
X480.59Y-638.43
X480.59Y-640.97
X480.59Y-643.51
X480.59Y-646.05
X480.59Y-648.59
X480.59Y-651.13
X480.59Y-653.67
X480.59Y-656.21
X480.59Y-658.75
X480.59Y-661.29
X480.59Y-663.83
X480.59Y-666.37
X480.59Y-676.53
X480.59Y-684.15
X480.59Y-691.77
X480.59Y-694.31
X480.59Y-696.85
X480.59Y-699.39
X480.59Y-701.93
X480.59Y-704.47
X483.13Y-544.45
X483.13Y-546.99
X483.13Y-549.53
X483.13Y-567.31
X483.13Y-569.85
X483.13Y-572.39
X483.13Y-574.93
X483.13Y-577.47
X483.13Y-585.09
X483.13Y-587.63
X483.13Y-590.17
X483.13Y-592.71
X483.13Y-595.25
X483.13Y-597.79
X483.13Y-600.33
X483.13Y-602.87
X483.13Y-605.41
X483.13Y-607.95
X483.13Y-610.49
X483.13Y-613.03
X483.13Y-615.57
X483.13Y-618.11
X483.13Y-625.73
X483.13Y-628.27
X483.13Y-630.81
X483.13Y-633.35
X483.13Y-635.89
X483.13Y-638.43
X483.13Y-640.97
X483.13Y-643.51
X483.13Y-646.05
X483.13Y-648.59
X483.13Y-651.13
X483.13Y-653.67
X483.13Y-656.21
X483.13Y-658.75
X483.13Y-661.29
X483.13Y-663.83
X483.13Y-673.99
X483.13Y-681.61
X483.13Y-689.23
X483.13Y-691.77
X483.13Y-694.31
X483.13Y-696.85
X483.13Y-699.39
X483.13Y-701.93
X483.13Y-704.47
X485.67Y-544.45
X485.67Y-546.99
X485.67Y-549.53
X485.67Y-567.31
X485.67Y-569.85
X485.67Y-572.39
X485.67Y-574.93
X485.67Y-577.47
X485.67Y-585.09
X485.67Y-587.63
X485.67Y-590.17
X485.67Y-592.71
X485.67Y-595.25
X485.67Y-597.79
X485.67Y-600.33
X485.67Y-602.87
X485.67Y-605.41
X485.67Y-607.95
X485.67Y-610.49
X485.67Y-613.03
X485.67Y-615.57
X485.67Y-623.19
X485.67Y-625.73
X485.67Y-628.27
X485.67Y-630.81
X485.67Y-633.35
X485.67Y-635.89
X485.67Y-638.43
X485.67Y-640.97
X485.67Y-643.51
X485.67Y-646.05
X485.67Y-648.59
X485.67Y-651.13
X485.67Y-653.67
X485.67Y-656.21
X485.67Y-658.75
X485.67Y-661.29
X485.67Y-671.45
X485.67Y-679.07
X485.67Y-686.69
X485.67Y-689.23
X485.67Y-691.77
X485.67Y-694.31
X485.67Y-696.85
X485.67Y-699.39
X485.67Y-701.93
X485.67Y-704.47
X488.21Y-544.45
X488.21Y-546.99
X488.21Y-549.53
X488.21Y-567.31
X488.21Y-569.85
X488.21Y-572.39
X488.21Y-574.93
X488.21Y-577.47
X488.21Y-587.63
X488.21Y-590.17
X488.21Y-592.71
X488.21Y-595.25
X488.21Y-597.79
X488.21Y-600.33
X488.21Y-602.87
X488.21Y-605.41
X488.21Y-607.95
X488.21Y-610.49
X488.21Y-613.03
X488.21Y-620.65
X488.21Y-623.19
X488.21Y-625.73
X488.21Y-628.27
X488.21Y-630.81
X488.21Y-633.35
X488.21Y-635.89
X488.21Y-638.43
X488.21Y-640.97
X488.21Y-643.51
X488.21Y-646.05
X488.21Y-648.59
X488.21Y-651.13
X488.21Y-653.67
X488.21Y-656.21
X488.21Y-658.75
X488.21Y-668.91
X488.21Y-676.53
X488.21Y-684.15
X488.21Y-686.69
X488.21Y-689.23
X488.21Y-691.77
X488.21Y-694.31
X488.21Y-696.85
X488.21Y-699.39
X488.21Y-701.93
X488.21Y-704.47
X490.75Y-544.45
X490.75Y-546.99
X490.75Y-549.53
X490.75Y-567.31
X490.75Y-569.85
X490.75Y-572.39
X490.75Y-574.93
X490.75Y-577.47
X490.75Y-590.17
X490.75Y-592.71
X490.75Y-595.25
X490.75Y-597.79
X490.75Y-600.33
X490.75Y-602.87
X490.75Y-605.41
X490.75Y-607.95
X490.75Y-610.49
X490.75Y-618.11
X490.75Y-620.65
X490.75Y-623.19
X490.75Y-625.73
X490.75Y-628.27
X490.75Y-630.81
X490.75Y-633.35
X490.75Y-635.89
X490.75Y-638.43
X490.75Y-640.97
X490.75Y-643.51
X490.75Y-646.05
X490.75Y-648.59
X490.75Y-651.13
X490.75Y-653.67
X490.75Y-656.21
X490.75Y-666.37
X490.75Y-673.99
X490.75Y-681.61
X490.75Y-684.15
X490.75Y-686.69
X490.75Y-689.23
X490.75Y-691.77
X490.75Y-694.31
X490.75Y-696.85
X490.75Y-699.39
X490.75Y-701.93
X490.75Y-704.47
X493.29Y-544.45
X493.29Y-546.99
X493.29Y-549.53
X493.29Y-592.71
X493.29Y-595.25
X493.29Y-597.79
X493.29Y-600.33
X493.29Y-602.87
X493.29Y-605.41
X493.29Y-607.95
X493.29Y-615.57
X493.29Y-618.11
X493.29Y-620.65
X493.29Y-623.19
X493.29Y-625.73
X493.29Y-628.27
X493.29Y-630.81
X493.29Y-633.35
X493.29Y-635.89
X493.29Y-638.43
X493.29Y-640.97
X493.29Y-643.51
X493.29Y-646.05
X493.29Y-648.59
X493.29Y-651.13
X493.29Y-653.67
X493.29Y-663.83
X493.29Y-671.45
X493.29Y-679.07
X493.29Y-681.61
X493.29Y-684.15
X493.29Y-686.69
X493.29Y-689.23
X493.29Y-691.77
X493.29Y-694.31
X493.29Y-696.85
X493.29Y-699.39
X493.29Y-701.93
X493.29Y-704.47
X495.83Y-544.45
X495.83Y-546.99
X495.83Y-549.53
X495.83Y-585.09
X495.83Y-595.25
X495.83Y-597.79
X495.83Y-600.33
X495.83Y-602.87
X495.83Y-605.41
X495.83Y-613.03
X495.83Y-615.57
X495.83Y-618.11
X495.83Y-620.65
X495.83Y-623.19
X495.83Y-625.73
X495.83Y-628.27
X495.83Y-630.81
X495.83Y-633.35
X495.83Y-635.89
X495.83Y-638.43
X495.83Y-640.97
X495.83Y-643.51
X495.83Y-646.05
X495.83Y-648.59
X495.83Y-651.13
X495.83Y-661.29
X495.83Y-668.91
X495.83Y-676.53
X495.83Y-679.07
X495.83Y-681.61
X495.83Y-684.15
X495.83Y-686.69
X495.83Y-689.23
X495.83Y-691.77
X495.83Y-694.31
X495.83Y-696.85
X495.83Y-699.39
X495.83Y-701.93
X495.83Y-704.47
X496.874Y-592.798
X498.37Y-544.45
X498.37Y-546.99
X498.37Y-549.53
X498.37Y-595.25
X498.37Y-597.79
X498.37Y-600.33
X498.37Y-602.87
X498.37Y-610.49
X498.37Y-613.03
X498.37Y-615.57
X498.37Y-618.11
X498.37Y-620.65
X498.37Y-623.19
X498.37Y-625.73
X498.37Y-628.27
X498.37Y-630.81
X498.37Y-633.35
X498.37Y-635.89
X498.37Y-638.43
X498.37Y-640.97
X498.37Y-643.51
X498.37Y-646.05
X498.37Y-648.59
X498.37Y-658.75
X498.37Y-666.37
X498.37Y-673.99
X498.37Y-676.53
X498.37Y-679.07
X498.37Y-681.61
X498.37Y-684.15
X498.37Y-686.69
X498.37Y-689.23
X498.37Y-691.77
X498.37Y-694.31
X498.37Y-696.85
X498.37Y-699.39
X498.37Y-701.93
X498.37Y-704.47
X500.524Y-592.798
X500.91Y-544.45
X500.91Y-546.99
X500.91Y-549.53
X500.91Y-595.25
X500.91Y-597.79
X500.91Y-600.33
X500.91Y-607.95
X500.91Y-610.49
X500.91Y-613.03
X500.91Y-615.57
X500.91Y-618.11
X500.91Y-620.65
X500.91Y-623.19
X500.91Y-625.73
X500.91Y-628.27
X500.91Y-630.81
X500.91Y-633.35
X500.91Y-635.89
X500.91Y-638.43
X500.91Y-640.97
X500.91Y-643.51
X500.91Y-646.05
X500.91Y-656.21
X500.91Y-663.83
X500.91Y-671.45
X500.91Y-673.99
X500.91Y-676.53
X500.91Y-679.07
X500.91Y-681.61
X500.91Y-684.15
X500.91Y-686.69
X500.91Y-689.23
X500.91Y-691.77
X500.91Y-694.31
X500.91Y-696.85
X500.91Y-699.39
X500.91Y-701.93
X500.91Y-704.47
X503.124Y-596.498
X503.45Y-544.45
X503.45Y-546.99
X503.45Y-549.53
X503.45Y-605.41
X503.45Y-607.95
X503.45Y-610.49
X503.45Y-613.03
X503.45Y-615.57
X503.45Y-618.11
X503.45Y-620.65
X503.45Y-623.19
X503.45Y-625.73
X503.45Y-628.27
X503.45Y-630.81
X503.45Y-633.35
X503.45Y-635.89
X503.45Y-638.43
X503.45Y-640.97
X503.45Y-643.51
X503.45Y-653.67
X503.45Y-661.29
X503.45Y-668.91
X503.45Y-671.45
X503.45Y-673.99
X503.45Y-676.53
X503.45Y-679.07
X503.45Y-681.61
X503.45Y-684.15
X503.45Y-686.69
X503.45Y-689.23
X503.45Y-691.77
X503.45Y-694.31
X503.45Y-696.85
X503.45Y-699.39
X503.45Y-701.93
X503.45Y-704.47
X505.99Y-544.45
X505.99Y-546.99
X505.99Y-549.53
X505.99Y-602.87
X505.99Y-605.41
X505.99Y-607.95
X505.99Y-610.49
X505.99Y-613.03
X505.99Y-615.57
X505.99Y-618.11
X505.99Y-620.65
X505.99Y-623.19
X505.99Y-625.73
X505.99Y-628.27
X505.99Y-630.81
X505.99Y-633.35
X505.99Y-635.89
X505.99Y-638.43
X505.99Y-640.97
X505.99Y-651.13
X505.99Y-658.75
X505.99Y-666.37
X505.99Y-668.91
X505.99Y-671.45
X505.99Y-673.99
X505.99Y-676.53
X505.99Y-679.07
X505.99Y-681.61
X505.99Y-684.15
X505.99Y-686.69
X505.99Y-689.23
X505.99Y-691.77
X505.99Y-694.31
X505.99Y-696.85
X505.99Y-699.39
X505.99Y-701.93
X505.99Y-704.47
X506.774Y-592.848
X508.53Y-544.45
X508.53Y-546.99
X508.53Y-549.53
X508.53Y-600.33
X508.53Y-602.87
X508.53Y-605.41
X508.53Y-607.95
X508.53Y-610.49
X508.53Y-613.03
X508.53Y-615.57
X508.53Y-618.11
X508.53Y-620.65
X508.53Y-623.19
X508.53Y-625.73
X508.53Y-628.27
X508.53Y-630.81
X508.53Y-633.35
X508.53Y-635.89
X508.53Y-638.43
X508.53Y-648.59
X508.53Y-656.21
X508.53Y-663.83
X508.53Y-666.37
X508.53Y-668.91
X508.53Y-671.45
X508.53Y-673.99
X508.53Y-676.53
X508.53Y-679.07
X508.53Y-681.61
X508.53Y-684.15
X508.53Y-686.69
X508.53Y-689.23
X508.53Y-691.77
X508.53Y-694.31
X508.53Y-696.85
X508.53Y-699.39
X508.53Y-701.93
X508.53Y-704.47
X509.924Y-596.748
X511.07Y-544.45
X511.07Y-546.99
X511.07Y-549.53
X511.07Y-600.33
X511.07Y-602.87
X511.07Y-605.41
X511.07Y-607.95
X511.07Y-610.49
X511.07Y-613.03
X511.07Y-615.57
X511.07Y-618.11
X511.07Y-620.65
X511.07Y-623.19
X511.07Y-625.73
X511.07Y-628.27
X511.07Y-630.81
X511.07Y-633.35
X511.07Y-635.89
X511.07Y-646.05
X511.07Y-653.67
X511.07Y-661.29
X511.07Y-663.83
X511.07Y-666.37
X511.07Y-668.91
X511.07Y-671.45
X511.07Y-673.99
X511.07Y-676.53
X511.07Y-679.07
X511.07Y-681.61
X511.07Y-684.15
X511.07Y-686.69
X511.07Y-689.23
X511.07Y-691.77
X511.07Y-694.31
X511.07Y-696.85
X511.07Y-699.39
X511.07Y-701.93
X511.07Y-704.47
X513.61Y-544.45
X513.61Y-546.99
X513.61Y-549.53
X513.61Y-590.17
X513.61Y-592.71
X513.61Y-595.25
X513.61Y-597.79
X513.61Y-600.33
X513.61Y-602.87
X513.61Y-605.41
X513.61Y-607.95
X513.61Y-610.49
X513.61Y-613.03
X513.61Y-615.57
X513.61Y-618.11
X513.61Y-620.65
X513.61Y-623.19
X513.61Y-625.73
X513.61Y-628.27
X513.61Y-630.81
X513.61Y-633.35
X513.61Y-643.51
X513.61Y-651.13
X513.61Y-658.75
X513.61Y-661.29
X513.61Y-663.83
X513.61Y-666.37
X513.61Y-668.91
X513.61Y-671.45
X513.61Y-673.99
X513.61Y-676.53
X513.61Y-679.07
X513.61Y-681.61
X513.61Y-684.15
X513.61Y-686.69
X513.61Y-689.23
X513.61Y-691.77
X513.61Y-694.31
X513.61Y-696.85
X513.61Y-699.39
X513.61Y-701.93
X513.61Y-704.47
X516.15Y-544.45
X516.15Y-546.99
X516.15Y-549.53
X516.15Y-585.09
X516.15Y-592.71
X516.15Y-595.25
X516.15Y-597.79
X516.15Y-600.33
X516.15Y-602.87
X516.15Y-605.41
X516.15Y-607.95
X516.15Y-610.49
X516.15Y-613.03
X516.15Y-615.57
X516.15Y-618.11
X516.15Y-620.65
X516.15Y-623.19
X516.15Y-625.73
X516.15Y-628.27
X516.15Y-630.81
X516.15Y-640.97
X516.15Y-648.59
X516.15Y-656.21
X516.15Y-658.75
X516.15Y-661.29
X516.15Y-663.83
X516.15Y-666.37
X516.15Y-668.91
X516.15Y-671.45
X516.15Y-673.99
X516.15Y-676.53
X516.15Y-679.07
X516.15Y-681.61
X516.15Y-684.15
X516.15Y-686.69
X516.15Y-689.23
X516.15Y-691.77
X516.15Y-694.31
X516.15Y-696.85
X516.15Y-699.39
X516.15Y-701.93
X516.15Y-704.47
X518.69Y-544.45
X518.69Y-546.99
X518.69Y-549.53
X518.69Y-585.09
X518.69Y-587.63
X518.69Y-595.25
X518.69Y-597.79
X518.69Y-600.33
X518.69Y-602.87
X518.69Y-605.41
X518.69Y-607.95
X518.69Y-610.49
X518.69Y-613.03
X518.69Y-615.57
X518.69Y-618.11
X518.69Y-620.65
X518.69Y-623.19
X518.69Y-625.73
X518.69Y-628.27
X518.69Y-638.43
X518.69Y-646.05
X518.69Y-653.67
X518.69Y-656.21
X518.69Y-658.75
X518.69Y-661.29
X518.69Y-663.83
X518.69Y-666.37
X518.69Y-668.91
X518.69Y-671.45
X518.69Y-673.99
X518.69Y-676.53
X518.69Y-679.07
X518.69Y-681.61
X518.69Y-684.15
X518.69Y-686.69
X518.69Y-689.23
X518.69Y-691.77
X518.69Y-694.31
X518.69Y-696.85
X518.69Y-699.39
X518.69Y-701.93
X518.69Y-704.47
X521.23Y-544.45
X521.23Y-546.99
X521.23Y-549.53
X521.23Y-585.09
X521.23Y-587.63
X521.23Y-590.17
X521.23Y-595.25
X521.23Y-597.79
X521.23Y-600.33
X521.23Y-602.87
X521.23Y-605.41
X521.23Y-607.95
X521.23Y-610.49
X521.23Y-613.03
X521.23Y-615.57
X521.23Y-618.11
X521.23Y-620.65
X521.23Y-623.19
X521.23Y-625.73
X521.23Y-635.89
X521.23Y-643.51
X521.23Y-651.13
X521.23Y-653.67
X521.23Y-656.21
X521.23Y-658.75
X521.23Y-661.29
X521.23Y-663.83
X521.23Y-666.37
X521.23Y-668.91
X521.23Y-671.45
X521.23Y-673.99
X521.23Y-676.53
X521.23Y-679.07
X521.23Y-681.61
X521.23Y-684.15
X521.23Y-686.69
X521.23Y-689.23
X521.23Y-691.77
X521.23Y-694.31
X521.23Y-696.85
X521.23Y-699.39
X521.23Y-701.93
X521.23Y-704.47
X523.77Y-544.45
X523.77Y-546.99
X523.77Y-549.53
X523.77Y-567.31
X523.77Y-569.85
X523.77Y-572.39
X523.77Y-574.93
X523.77Y-577.47
X523.77Y-580.01
X523.77Y-585.09
X523.77Y-587.63
X523.77Y-590.17
X523.77Y-595.25
X523.77Y-597.79
X523.77Y-600.33
X523.77Y-602.87
X523.77Y-605.41
X523.77Y-607.95
X523.77Y-610.49
X523.77Y-613.03
X523.77Y-615.57
X523.77Y-618.11
X523.77Y-620.65
X523.77Y-623.19
X523.77Y-633.35
X523.77Y-640.97
X523.77Y-648.59
X523.77Y-651.13
X523.77Y-653.67
X523.77Y-656.21
X523.77Y-658.75
X523.77Y-661.29
X523.77Y-663.83
X523.77Y-666.37
X523.77Y-668.91
X523.77Y-671.45
X523.77Y-673.99
X523.77Y-676.53
X523.77Y-679.07
X523.77Y-681.61
X523.77Y-684.15
X523.77Y-686.69
X523.77Y-689.23
X523.77Y-691.77
X523.77Y-694.31
X523.77Y-696.85
X523.77Y-699.39
X523.77Y-701.93
X523.77Y-704.47
X526.31Y-544.45
X526.31Y-546.99
X526.31Y-549.53
X526.31Y-567.31
X526.31Y-569.85
X526.31Y-572.39
X526.31Y-574.93
X526.31Y-577.47
X526.31Y-580.01
X526.31Y-585.09
X526.31Y-587.63
X526.31Y-590.17
X526.31Y-595.25
X526.31Y-597.79
X526.31Y-600.33
X526.31Y-602.87
X526.31Y-605.41
X526.31Y-607.95
X526.31Y-610.49
X526.31Y-613.03
X526.31Y-615.57
X526.31Y-618.11
X526.31Y-620.65
X526.31Y-630.81
X526.31Y-638.43
X526.31Y-646.05
X526.31Y-648.59
X526.31Y-651.13
X526.31Y-653.67
X526.31Y-656.21
X526.31Y-658.75
X526.31Y-661.29
X526.31Y-663.83
X526.31Y-666.37
X526.31Y-668.91
X526.31Y-671.45
X526.31Y-673.99
X526.31Y-676.53
X526.31Y-679.07
X526.31Y-681.61
X526.31Y-684.15
X526.31Y-686.69
X526.31Y-689.23
X526.31Y-691.77
X526.31Y-694.31
X526.31Y-696.85
X526.31Y-699.39
X526.31Y-701.93
X526.31Y-704.47
X528.85Y-544.45
X528.85Y-546.99
X528.85Y-549.53
X528.85Y-567.31
X528.85Y-569.85
X528.85Y-572.39
X528.85Y-574.93
X528.85Y-577.47
X528.85Y-580.01
X528.85Y-585.09
X528.85Y-587.63
X528.85Y-590.17
X528.85Y-595.25
X528.85Y-597.79
X528.85Y-600.33
X528.85Y-602.87
X528.85Y-605.41
X528.85Y-607.95
X528.85Y-610.49
X528.85Y-613.03
X528.85Y-615.57
X528.85Y-618.11
X528.85Y-628.27
X528.85Y-635.89
X528.85Y-643.51
X528.85Y-646.05
X528.85Y-648.59
X528.85Y-651.13
X528.85Y-653.67
X528.85Y-656.21
X528.85Y-658.75
X528.85Y-661.29
X528.85Y-663.83
X528.85Y-666.37
X528.85Y-668.91
X528.85Y-671.45
X528.85Y-673.99
X528.85Y-676.53
X528.85Y-679.07
X528.85Y-681.61
X528.85Y-684.15
X528.85Y-686.69
X528.85Y-689.23
X528.85Y-691.77
X528.85Y-694.31
X528.85Y-696.85
X528.85Y-699.39
X528.85Y-701.93
X528.85Y-704.47
X531.39Y-544.45
X531.39Y-546.99
X531.39Y-549.53
X531.39Y-567.31
X531.39Y-569.85
X531.39Y-572.39
X531.39Y-574.93
X531.39Y-577.47
X531.39Y-580.01
X531.39Y-585.09
X531.39Y-587.63
X531.39Y-590.17
X531.39Y-595.25
X531.39Y-597.79
X531.39Y-600.33
X531.39Y-602.87
X531.39Y-605.41
X531.39Y-607.95
X531.39Y-610.49
X531.39Y-613.03
X531.39Y-615.57
X531.39Y-625.73
X531.39Y-633.35
X531.39Y-640.97
X531.39Y-643.51
X531.39Y-646.05
X531.39Y-648.59
X531.39Y-651.13
X531.39Y-653.67
X531.39Y-656.21
X531.39Y-658.75
X531.39Y-661.29
X531.39Y-663.83
X531.39Y-666.37
X531.39Y-668.91
X531.39Y-671.45
X531.39Y-673.99
X531.39Y-676.53
X531.39Y-679.07
X531.39Y-681.61
X531.39Y-684.15
X531.39Y-686.69
X531.39Y-689.23
X531.39Y-691.77
X531.39Y-694.31
X531.39Y-696.85
X531.39Y-699.39
X531.39Y-701.93
X531.39Y-704.47
X533.93Y-544.45
X533.93Y-546.99
X533.93Y-549.53
X533.93Y-567.31
X533.93Y-569.85
X533.93Y-572.39
X533.93Y-574.93
X533.93Y-577.47
X533.93Y-580.01
X533.93Y-585.09
X533.93Y-587.63
X533.93Y-590.17
X533.93Y-595.25
X533.93Y-597.79
X533.93Y-600.33
X533.93Y-602.87
X533.93Y-605.41
X533.93Y-607.95
X533.93Y-610.49
X533.93Y-613.03
X533.93Y-623.19
X533.93Y-630.81
X533.93Y-638.43
X533.93Y-640.97
X533.93Y-643.51
X533.93Y-646.05
X533.93Y-648.59
X533.93Y-651.13
X533.93Y-653.67
X533.93Y-656.21
X533.93Y-658.75
X533.93Y-661.29
X533.93Y-663.83
X533.93Y-666.37
X533.93Y-668.91
X533.93Y-671.45
X533.93Y-673.99
X533.93Y-676.53
X533.93Y-679.07
X533.93Y-681.61
X533.93Y-684.15
X533.93Y-686.69
X533.93Y-689.23
X533.93Y-691.77
X533.93Y-694.31
X533.93Y-696.85
X533.93Y-699.39
X533.93Y-701.93
X533.93Y-704.47
X536.47Y-544.45
X536.47Y-546.99
X536.47Y-549.53
X536.47Y-567.31
X536.47Y-569.85
X536.47Y-572.39
X536.47Y-574.93
X536.47Y-577.47
X536.47Y-580.01
X536.47Y-585.09
X536.47Y-587.63
X536.47Y-590.17
X536.47Y-595.25
X536.47Y-597.79
X536.47Y-600.33
X536.47Y-602.87
X536.47Y-605.41
X536.47Y-607.95
X536.47Y-610.49
X536.47Y-620.65
X536.47Y-628.27
X536.47Y-635.89
X536.47Y-638.43
X536.47Y-640.97
X536.47Y-643.51
X536.47Y-646.05
X536.47Y-648.59
X536.47Y-651.13
X536.47Y-653.67
X536.47Y-656.21
X536.47Y-658.75
X536.47Y-661.29
X536.47Y-663.83
X536.47Y-666.37
X536.47Y-668.91
X536.47Y-671.45
X536.47Y-673.99
X536.47Y-676.53
X536.47Y-679.07
X536.47Y-681.61
X536.47Y-684.15
X536.47Y-686.69
X536.47Y-689.23
X536.47Y-691.77
X536.47Y-694.31
X536.47Y-696.85
X536.47Y-699.39
X536.47Y-701.93
X536.47Y-704.47
X539.01Y-544.45
X539.01Y-546.99
X539.01Y-549.53
X539.01Y-567.31
X539.01Y-569.85
X539.01Y-572.39
X539.01Y-574.93
X539.01Y-577.47
X539.01Y-580.01
X539.01Y-585.09
X539.01Y-587.63
X539.01Y-590.17
X539.01Y-595.25
X539.01Y-597.79
X539.01Y-600.33
X539.01Y-602.87
X539.01Y-605.41
X539.01Y-607.95
X539.01Y-618.11
X539.01Y-625.73
X539.01Y-633.35
X539.01Y-635.89
X539.01Y-638.43
X539.01Y-640.97
X539.01Y-643.51
X539.01Y-646.05
X539.01Y-648.59
X539.01Y-651.13
X539.01Y-653.67
X539.01Y-656.21
X539.01Y-658.75
X539.01Y-661.29
X539.01Y-663.83
X539.01Y-666.37
X539.01Y-668.91
X539.01Y-671.45
X539.01Y-673.99
X539.01Y-676.53
X539.01Y-679.07
X539.01Y-681.61
X539.01Y-684.15
X539.01Y-686.69
X539.01Y-689.23
X539.01Y-691.77
X539.01Y-694.31
X539.01Y-696.85
X539.01Y-699.39
X539.01Y-701.93
X539.01Y-704.47
X541.55Y-544.45
X541.55Y-546.99
X541.55Y-549.53
X541.55Y-567.31
X541.55Y-569.85
X541.55Y-572.39
X541.55Y-574.93
X541.55Y-577.47
X541.55Y-580.01
X541.55Y-585.09
X541.55Y-587.63
X541.55Y-590.17
X541.55Y-595.25
X541.55Y-597.79
X541.55Y-600.33
X541.55Y-602.87
X541.55Y-605.41
X541.55Y-615.57
X541.55Y-623.19
X541.55Y-630.81
X541.55Y-633.35
X541.55Y-635.89
X541.55Y-638.43
X541.55Y-640.97
X541.55Y-643.51
X541.55Y-646.05
X541.55Y-648.59
X541.55Y-651.13
X541.55Y-653.67
X541.55Y-656.21
X541.55Y-658.75
X541.55Y-661.29
X541.55Y-663.83
X541.55Y-666.37
X541.55Y-668.91
X541.55Y-671.45
X541.55Y-673.99
X541.55Y-676.53
X541.55Y-679.07
X541.55Y-681.61
X541.55Y-684.15
X541.55Y-686.69
X541.55Y-689.23
X541.55Y-691.77
X541.55Y-694.31
X541.55Y-696.85
X541.55Y-699.39
X541.55Y-701.93
X541.55Y-704.47
X544.09Y-544.45
X544.09Y-546.99
X544.09Y-549.53
X544.09Y-567.31
X544.09Y-569.85
X544.09Y-572.39
X544.09Y-574.93
X544.09Y-577.47
X544.09Y-580.01
X544.09Y-585.09
X544.09Y-587.63
X544.09Y-590.17
X544.09Y-595.25
X544.09Y-597.79
X544.09Y-600.33
X544.09Y-602.87
X544.09Y-613.03
X544.09Y-620.65
X544.09Y-628.27
X544.09Y-630.81
X544.09Y-633.35
X544.09Y-635.89
X544.09Y-638.43
X544.09Y-640.97
X544.09Y-643.51
X544.09Y-646.05
X544.09Y-648.59
X544.09Y-651.13
X544.09Y-653.67
X544.09Y-656.21
X544.09Y-658.75
X544.09Y-661.29
X544.09Y-663.83
X544.09Y-666.37
X544.09Y-668.91
X544.09Y-671.45
X544.09Y-673.99
X544.09Y-676.53
X544.09Y-679.07
X544.09Y-681.61
X544.09Y-684.15
X544.09Y-686.69
X544.09Y-689.23
X544.09Y-691.77
X544.09Y-694.31
X544.09Y-696.85
X544.09Y-699.39
X544.09Y-701.93
X544.09Y-704.47
X546.63Y-544.45
X546.63Y-546.99
X546.63Y-549.53
X546.63Y-567.31
X546.63Y-569.85
X546.63Y-572.39
X546.63Y-574.93
X546.63Y-577.47
X546.63Y-580.01
X546.63Y-585.09
X546.63Y-587.63
X546.63Y-590.17
X546.63Y-595.25
X546.63Y-597.79
X546.63Y-600.33
X546.63Y-610.49
X546.63Y-618.11
X546.63Y-625.73
X546.63Y-628.27
X546.63Y-630.81
X546.63Y-633.35
X546.63Y-635.89
X546.63Y-638.43
X546.63Y-640.97
X546.63Y-643.51
X546.63Y-646.05
X546.63Y-648.59
X546.63Y-651.13
X546.63Y-653.67
X546.63Y-656.21
X546.63Y-658.75
X546.63Y-661.29
X546.63Y-663.83
X546.63Y-666.37
X546.63Y-668.91
X546.63Y-671.45
X546.63Y-673.99
X546.63Y-676.53
X546.63Y-679.07
X546.63Y-681.61
X546.63Y-684.15
X546.63Y-686.69
X546.63Y-689.23
X546.63Y-691.77
X546.63Y-694.31
X546.63Y-696.85
X546.63Y-699.39
X546.63Y-701.93
X546.63Y-704.47
X549.17Y-544.45
X549.17Y-546.99
X549.17Y-549.53
X549.17Y-567.31
X549.17Y-569.85
X549.17Y-572.39
X549.17Y-574.93
X549.17Y-577.47
X549.17Y-580.01
X549.17Y-585.09
X549.17Y-587.63
X549.17Y-590.17
X549.17Y-595.25
X549.17Y-597.79
X549.17Y-607.95
X549.17Y-615.57
X549.17Y-623.19
X549.17Y-625.73
X549.17Y-628.27
X549.17Y-630.81
X549.17Y-633.35
X549.17Y-635.89
X549.17Y-638.43
X549.17Y-640.97
X549.17Y-643.51
X549.17Y-646.05
X549.17Y-648.59
X549.17Y-651.13
X549.17Y-653.67
X549.17Y-656.21
X549.17Y-658.75
X549.17Y-661.29
X549.17Y-663.83
X549.17Y-666.37
X549.17Y-668.91
X549.17Y-671.45
X549.17Y-673.99
X549.17Y-676.53
X549.17Y-679.07
X549.17Y-681.61
X549.17Y-684.15
X549.17Y-686.69
X549.17Y-689.23
X549.17Y-691.77
X549.17Y-694.31
X549.17Y-696.85
X549.17Y-699.39
X549.17Y-701.93
X549.17Y-704.47
X551.71Y-544.45
X551.71Y-546.99
X551.71Y-549.53
X551.71Y-567.31
X551.71Y-569.85
X551.71Y-572.39
X551.71Y-574.93
X551.71Y-577.47
X551.71Y-580.01
X551.71Y-585.09
X551.71Y-587.63
X551.71Y-590.17
X551.71Y-595.25
X551.71Y-605.41
X551.71Y-613.03
X551.71Y-620.65
X551.71Y-623.19
X551.71Y-625.73
X551.71Y-628.27
X551.71Y-630.81
X551.71Y-633.35
X551.71Y-635.89
X551.71Y-638.43
X551.71Y-640.97
X551.71Y-643.51
X551.71Y-646.05
X551.71Y-648.59
X551.71Y-651.13
X551.71Y-653.67
X551.71Y-656.21
X551.71Y-658.75
X551.71Y-661.29
X551.71Y-663.83
X551.71Y-666.37
X551.71Y-668.91
X551.71Y-671.45
X551.71Y-673.99
X551.71Y-676.53
X551.71Y-679.07
X551.71Y-681.61
X551.71Y-684.15
X551.71Y-686.69
X551.71Y-689.23
X551.71Y-691.77
X551.71Y-694.31
X551.71Y-696.85
X551.71Y-699.39
X551.71Y-701.93
X551.71Y-704.47
X554.25Y-544.45
X554.25Y-546.99
X554.25Y-549.53
X554.25Y-585.09
X554.25Y-587.63
X554.25Y-590.17
X554.25Y-602.87
X554.25Y-610.49
X554.25Y-618.11
X554.25Y-620.65
X554.25Y-623.19
X554.25Y-625.73
X554.25Y-628.27
X554.25Y-630.81
X554.25Y-633.35
X554.25Y-635.89
X554.25Y-638.43
X554.25Y-640.97
X554.25Y-643.51
X554.25Y-646.05
X554.25Y-648.59
X554.25Y-651.13
X554.25Y-653.67
X554.25Y-656.21
X554.25Y-658.75
X554.25Y-661.29
X554.25Y-663.83
X554.25Y-666.37
X554.25Y-668.91
X554.25Y-671.45
X554.25Y-673.99
X554.25Y-676.53
X554.25Y-679.07
X554.25Y-681.61
X554.25Y-684.15
X554.25Y-686.69
X554.25Y-689.23
X554.25Y-691.77
X554.25Y-694.31
X554.25Y-696.85
X554.25Y-699.39
X554.25Y-701.93
X554.25Y-704.47
X556.624Y-593.548
X556.79Y-544.45
X556.79Y-546.99
X556.79Y-549.53
X556.79Y-600.33
X556.79Y-607.95
X556.79Y-615.57
X556.79Y-618.11
X556.79Y-620.65
X556.79Y-623.19
X556.79Y-625.73
X556.79Y-628.27
X556.79Y-630.81
X556.79Y-633.35
X556.79Y-635.89
X556.79Y-638.43
X556.79Y-640.97
X556.79Y-643.51
X556.79Y-646.05
X556.79Y-648.59
X556.79Y-651.13
X556.79Y-653.67
X556.79Y-656.21
X556.79Y-658.75
X556.79Y-661.29
X556.79Y-663.83
X556.79Y-666.37
X556.79Y-668.91
X556.79Y-671.45
X556.79Y-673.99
X556.79Y-676.53
X556.79Y-679.07
X556.79Y-681.61
X556.79Y-684.15
X556.79Y-686.69
X556.79Y-689.23
X556.79Y-691.77
X556.79Y-694.31
X556.79Y-696.85
X556.79Y-699.39
X556.79Y-701.93
X556.79Y-704.47
X559.33Y-544.45
X559.33Y-546.99
X559.33Y-549.53
X559.33Y-590.17
X559.33Y-597.79
X559.33Y-605.41
X559.33Y-613.03
X559.33Y-615.57
X559.33Y-618.11
X559.33Y-620.65
X559.33Y-623.19
X559.33Y-625.73
X559.33Y-628.27
X559.33Y-630.81
X559.33Y-633.35
X559.33Y-635.89
X559.33Y-638.43
X559.33Y-640.97
X559.33Y-643.51
X559.33Y-646.05
X559.33Y-648.59
X559.33Y-651.13
X559.33Y-653.67
X559.33Y-656.21
X559.33Y-658.75
X559.33Y-661.29
X559.33Y-663.83
X559.33Y-666.37
X559.33Y-668.91
X559.33Y-671.45
X559.33Y-673.99
X559.33Y-676.53
X559.33Y-679.07
X559.33Y-681.61
X559.33Y-684.15
X559.33Y-686.69
X559.33Y-689.23
X559.33Y-691.77
X559.33Y-694.31
X559.33Y-696.85
X559.33Y-699.39
X559.33Y-701.93
X559.33Y-704.47
X560.424Y-593.598
X561.87Y-544.45
X561.87Y-546.99
X561.87Y-549.53
X561.87Y-590.17
X561.87Y-595.25
X561.87Y-602.87
X561.87Y-610.49
X561.87Y-613.03
X561.87Y-615.57
X561.87Y-618.11
X561.87Y-620.65
X561.87Y-623.19
X561.87Y-625.73
X561.87Y-628.27
X561.87Y-630.81
X561.87Y-633.35
X561.87Y-635.89
X561.87Y-638.43
X561.87Y-640.97
X561.87Y-643.51
X561.87Y-646.05
X561.87Y-648.59
X561.87Y-651.13
X561.87Y-653.67
X561.87Y-656.21
X561.87Y-658.75
X561.87Y-661.29
X561.87Y-663.83
X561.87Y-666.37
X561.87Y-668.91
X561.87Y-671.45
X561.87Y-673.99
X561.87Y-676.53
X561.87Y-679.07
X561.87Y-681.61
X561.87Y-684.15
X561.87Y-686.69
X561.87Y-689.23
X561.87Y-691.77
X561.87Y-694.31
X561.87Y-696.85
X561.87Y-699.39
X561.87Y-701.93
X561.87Y-704.47
X563.474Y-597.998
X564.41Y-544.45
X564.41Y-546.99
X564.41Y-549.53
X564.41Y-600.33
X564.41Y-607.95
X564.41Y-610.49
X564.41Y-613.03
X564.41Y-615.57
X564.41Y-618.11
X564.41Y-620.65
X564.41Y-623.19
X564.41Y-625.73
X564.41Y-628.27
X564.41Y-630.81
X564.41Y-633.35
X564.41Y-635.89
X564.41Y-638.43
X564.41Y-640.97
X564.41Y-643.51
X564.41Y-646.05
X564.41Y-648.59
X564.41Y-651.13
X564.41Y-653.67
X564.41Y-656.21
X564.41Y-658.75
X564.41Y-661.29
X564.41Y-663.83
X564.41Y-666.37
X564.41Y-668.91
X564.41Y-671.45
X564.41Y-673.99
X564.41Y-676.53
X564.41Y-679.07
X564.41Y-681.61
X564.41Y-684.15
X564.41Y-686.69
X564.41Y-689.23
X564.41Y-691.77
X564.41Y-694.31
X564.41Y-696.85
X564.41Y-699.39
X564.41Y-701.93
X564.41Y-704.47
X566.674Y-593.598
X566.95Y-544.45
X566.95Y-546.99
X566.95Y-549.53
X566.95Y-567.31
X566.95Y-569.85
X566.95Y-572.39
X566.95Y-574.93
X566.95Y-577.47
X566.95Y-580.01
X566.95Y-595.25
X566.95Y-597.79
X566.95Y-605.41
X566.95Y-607.95
X566.95Y-610.49
X566.95Y-613.03
X566.95Y-615.57
X566.95Y-618.11
X566.95Y-620.65
X566.95Y-623.19
X566.95Y-625.73
X566.95Y-628.27
X566.95Y-630.81
X566.95Y-633.35
X566.95Y-635.89
X566.95Y-638.43
X566.95Y-640.97
X566.95Y-643.51
X566.95Y-646.05
X566.95Y-648.59
X566.95Y-651.13
X566.95Y-653.67
X566.95Y-656.21
X566.95Y-658.75
X566.95Y-661.29
X566.95Y-663.83
X566.95Y-666.37
X566.95Y-668.91
X566.95Y-671.45
X566.95Y-673.99
X566.95Y-676.53
X566.95Y-679.07
X566.95Y-681.61
X566.95Y-684.15
X566.95Y-686.69
X566.95Y-689.23
X566.95Y-691.77
X566.95Y-694.31
X566.95Y-696.85
X566.95Y-699.39
X566.95Y-701.93
X566.95Y-704.47
X569.49Y-544.45
X569.49Y-546.99
X569.49Y-549.53
X569.49Y-602.87
X569.49Y-605.41
X569.49Y-607.95
X569.49Y-610.49
X569.49Y-613.03
X569.49Y-615.57
X569.49Y-618.11
X569.49Y-620.65
X569.49Y-623.19
X569.49Y-625.73
X569.49Y-628.27
X569.49Y-630.81
X569.49Y-633.35
X569.49Y-635.89
X569.49Y-638.43
X569.49Y-640.97
X569.49Y-643.51
X569.49Y-646.05
X569.49Y-648.59
X569.49Y-651.13
X569.49Y-653.67
X569.49Y-656.21
X569.49Y-658.75
X569.49Y-661.29
X569.49Y-663.83
X569.49Y-666.37
X569.49Y-668.91
X569.49Y-671.45
X569.49Y-673.99
X569.49Y-676.53
X569.49Y-679.07
X569.49Y-681.61
X569.49Y-684.15
X569.49Y-686.69
X569.49Y-689.23
X569.49Y-691.77
X569.49Y-694.31
X569.49Y-696.85
X569.49Y-699.39
X569.49Y-701.93
X569.49Y-704.47
X569.874Y-597.548
X572.03Y-544.45
X572.03Y-546.99
X572.03Y-549.53
X572.03Y-582.55
X572.03Y-600.33
X572.03Y-602.87
X572.03Y-605.41
X572.03Y-607.95
X572.03Y-610.49
X572.03Y-613.03
X572.03Y-615.57
X572.03Y-618.11
X572.03Y-620.65
X572.03Y-623.19
X572.03Y-625.73
X572.03Y-628.27
X572.03Y-630.81
X572.03Y-633.35
X572.03Y-635.89
X572.03Y-638.43
X572.03Y-640.97
X572.03Y-643.51
X572.03Y-646.05
X572.03Y-648.59
X572.03Y-651.13
X572.03Y-653.67
X572.03Y-656.21
X572.03Y-658.75
X572.03Y-661.29
X572.03Y-663.83
X572.03Y-666.37
X572.03Y-668.91
X572.03Y-671.45
X572.03Y-673.99
X572.03Y-676.53
X572.03Y-679.07
X572.03Y-681.61
X572.03Y-684.15
X572.03Y-686.69
X572.03Y-689.23
X572.03Y-691.77
X572.03Y-694.31
X572.03Y-696.85
X572.03Y-699.39
X572.03Y-701.93
X572.03Y-704.47
X574.57Y-544.45
X574.57Y-546.99
X574.57Y-549.53
X574.57Y-582.55
X574.57Y-585.09
X574.57Y-587.63
X574.57Y-590.17
X574.57Y-592.71
X574.57Y-595.25
X574.57Y-597.79
X574.57Y-600.33
X574.57Y-602.87
X574.57Y-605.41
X574.57Y-607.95
X574.57Y-610.49
X574.57Y-613.03
X574.57Y-615.57
X574.57Y-618.11
X574.57Y-620.65
X574.57Y-623.19
X574.57Y-625.73
X574.57Y-628.27
X574.57Y-630.81
X574.57Y-633.35
X574.57Y-635.89
X574.57Y-638.43
X574.57Y-640.97
X574.57Y-643.51
X574.57Y-646.05
X574.57Y-648.59
X574.57Y-651.13
X574.57Y-653.67
X574.57Y-656.21
X574.57Y-658.75
X574.57Y-661.29
X574.57Y-663.83
X574.57Y-666.37
X574.57Y-668.91
X574.57Y-671.45
X574.57Y-673.99
X574.57Y-676.53
X574.57Y-679.07
X574.57Y-681.61
X574.57Y-684.15
X574.57Y-686.69
X574.57Y-689.23
X574.57Y-691.77
X574.57Y-694.31
X574.57Y-696.85
X574.57Y-699.39
X574.57Y-701.93
X574.57Y-704.47
X577.11Y-544.45
X577.11Y-546.99
X577.11Y-549.53
X577.11Y-582.55
X577.11Y-585.09
X577.11Y-587.63
X577.11Y-590.17
X577.11Y-592.71
X577.11Y-595.25
X577.11Y-597.79
X577.11Y-600.33
X577.11Y-602.87
X577.11Y-605.41
X577.11Y-607.95
X577.11Y-610.49
X577.11Y-613.03
X577.11Y-615.57
X577.11Y-618.11
X577.11Y-620.65
X577.11Y-623.19
X577.11Y-625.73
X577.11Y-628.27
X577.11Y-630.81
X577.11Y-633.35
X577.11Y-635.89
X577.11Y-638.43
X577.11Y-640.97
X577.11Y-643.51
X577.11Y-646.05
X577.11Y-648.59
X577.11Y-651.13
X577.11Y-653.67
X577.11Y-656.21
X577.11Y-658.75
X577.11Y-661.29
X577.11Y-663.83
X577.11Y-666.37
X577.11Y-668.91
X577.11Y-671.45
X577.11Y-673.99
X577.11Y-676.53
X577.11Y-679.07
X577.11Y-681.61
X577.11Y-684.15
X577.11Y-686.69
X577.11Y-689.23
X577.11Y-691.77
X577.11Y-694.31
X577.11Y-696.85
X577.11Y-699.39
X577.11Y-701.93
X577.11Y-704.47
X579.65Y-544.45
X579.65Y-546.99
X579.65Y-549.53
X579.65Y-582.55
X579.65Y-585.09
X579.65Y-587.63
X579.65Y-590.17
X579.65Y-592.71
X579.65Y-595.25
X579.65Y-597.79
X579.65Y-600.33
X579.65Y-602.87
X579.65Y-605.41
X579.65Y-607.95
X579.65Y-610.49
X579.65Y-613.03
X579.65Y-615.57
X579.65Y-618.11
X579.65Y-620.65
X579.65Y-623.19
X579.65Y-625.73
X579.65Y-628.27
X579.65Y-630.81
X579.65Y-633.35
X579.65Y-635.89
X579.65Y-638.43
X579.65Y-640.97
X579.65Y-643.51
X579.65Y-646.05
X579.65Y-648.59
X579.65Y-651.13
X579.65Y-653.67
X579.65Y-656.21
X579.65Y-658.75
X579.65Y-661.29
X579.65Y-663.83
X579.65Y-666.37
X579.65Y-668.91
X579.65Y-671.45
X579.65Y-673.99
X579.65Y-676.53
X579.65Y-679.07
X579.65Y-681.61
X579.65Y-684.15
X579.65Y-686.69
X579.65Y-689.23
X579.65Y-691.77
X579.65Y-694.31
X579.65Y-696.85
X579.65Y-699.39
X579.65Y-701.93
X579.65Y-704.47
X582.19Y-544.45
X582.19Y-546.99
X582.19Y-549.53
X582.19Y-580.01
X582.19Y-582.55
X582.19Y-585.09
X582.19Y-587.63
X582.19Y-590.17
X582.19Y-592.71
X582.19Y-595.25
X582.19Y-597.79
X582.19Y-600.33
X582.19Y-602.87
X582.19Y-605.41
X582.19Y-607.95
X582.19Y-610.49
X582.19Y-613.03
X582.19Y-615.57
X582.19Y-618.11
X582.19Y-620.65
X582.19Y-623.19
X582.19Y-625.73
X582.19Y-628.27
X582.19Y-630.81
X582.19Y-633.35
X582.19Y-635.89
X582.19Y-638.43
X582.19Y-640.97
X582.19Y-643.51
X582.19Y-646.05
X582.19Y-648.59
X582.19Y-651.13
X582.19Y-653.67
X582.19Y-656.21
X582.19Y-658.75
X582.19Y-661.29
X582.19Y-663.83
X582.19Y-666.37
X582.19Y-668.91
X582.19Y-671.45
X582.19Y-673.99
X582.19Y-676.53
X582.19Y-679.07
X582.19Y-681.61
X582.19Y-684.15
X582.19Y-686.69
X582.19Y-689.23
X582.19Y-691.77
X582.19Y-694.31
X582.19Y-696.85
X582.19Y-699.39
X582.19Y-701.93
X582.19Y-704.47
X584.73Y-544.45
X584.73Y-546.99
X584.73Y-549.53
X584.73Y-567.31
X584.73Y-569.85
X584.73Y-572.39
X584.73Y-574.93
X584.73Y-577.47
X584.73Y-580.01
X584.73Y-582.55
X584.73Y-585.09
X584.73Y-587.63
X584.73Y-590.17
X584.73Y-592.71
X584.73Y-595.25
X584.73Y-597.79
X584.73Y-600.33
X584.73Y-602.87
X584.73Y-605.41
X584.73Y-607.95
X584.73Y-610.49
X584.73Y-613.03
X584.73Y-615.57
X584.73Y-618.11
X584.73Y-620.65
X584.73Y-623.19
X584.73Y-625.73
X584.73Y-628.27
X584.73Y-630.81
X584.73Y-633.35
X584.73Y-635.89
X584.73Y-638.43
X584.73Y-640.97
X584.73Y-643.51
X584.73Y-646.05
X584.73Y-648.59
X584.73Y-651.13
X584.73Y-653.67
X584.73Y-656.21
X584.73Y-658.75
X584.73Y-661.29
X584.73Y-663.83
X584.73Y-666.37
X584.73Y-668.91
X584.73Y-671.45
X584.73Y-673.99
X584.73Y-676.53
X584.73Y-679.07
X584.73Y-681.61
X584.73Y-684.15
X584.73Y-686.69
X584.73Y-689.23
X584.73Y-691.77
X584.73Y-694.31
X584.73Y-696.85
X584.73Y-699.39
X584.73Y-701.93
X584.73Y-704.47
X587.27Y-549.53
X587.27Y-567.31
X587.27Y-569.85
X587.27Y-572.39
X587.27Y-574.93
X587.27Y-577.47
X587.27Y-580.01
X587.27Y-582.55
X587.27Y-585.09
X587.27Y-587.63
X587.27Y-590.17
X587.27Y-592.71
X587.27Y-595.25
X587.27Y-597.79
X587.27Y-605.41
X587.27Y-607.95
X587.27Y-610.49
X587.27Y-613.03
X587.27Y-615.57
X587.27Y-618.11
X587.27Y-620.65
X587.27Y-623.19
X587.27Y-625.73
X587.27Y-628.27
X587.27Y-630.81
X587.27Y-633.35
X587.27Y-635.89
X587.27Y-638.43
X587.27Y-640.97
X587.27Y-643.51
X587.27Y-646.05
X587.27Y-648.59
X587.27Y-651.13
X587.27Y-653.67
X587.27Y-661.29
X587.27Y-663.83
X587.27Y-666.37
X587.27Y-668.91
X587.27Y-671.45
X587.27Y-673.99
X587.27Y-676.53
X587.27Y-679.07
X587.27Y-681.61
X587.27Y-684.15
X587.27Y-686.69
X587.27Y-689.23
X587.27Y-691.77
X587.27Y-694.31
X587.27Y-696.85
X587.27Y-699.39
X587.27Y-701.93
X587.27Y-704.47
T2
X118.227Y-544.878
X118.227Y-600.711
X118.227Y-656.545
X118.227Y-707.378
X118.93Y-543.181
X118.93Y-546.575
X118.93Y-599.014
X118.93Y-602.409
X118.93Y-654.848
X118.93Y-658.242
X118.93Y-705.681
X118.93Y-709.075
X120.627Y-542.478
X120.627Y-547.278
X120.627Y-598.311
X120.627Y-603.111
X120.627Y-654.145
X120.627Y-658.945
X120.627Y-704.978
X120.627Y-709.778
X122.324Y-543.181
X122.324Y-546.575
X122.324Y-599.014
X122.324Y-602.409
X122.324Y-654.848
X122.324Y-658.242
X122.324Y-705.681
X122.324Y-709.075
X123.027Y-544.878
X123.027Y-600.711
X123.027Y-656.545
X123.027Y-707.378
X278.227Y-544.878
X278.227Y-600.711
X278.227Y-656.545
X278.227Y-707.378
X278.93Y-543.181
X278.93Y-546.575
X278.93Y-599.014
X278.93Y-602.409
X278.93Y-654.848
X278.93Y-658.242
X278.93Y-705.681
X278.93Y-709.075
X280.627Y-542.478
X280.627Y-547.278
X280.627Y-598.311
X280.627Y-603.111
X280.627Y-654.145
X280.627Y-658.945
X280.627Y-704.978
X280.627Y-709.778
X282.324Y-543.181
X282.324Y-546.575
X282.324Y-599.014
X282.324Y-602.409
X282.324Y-654.848
X282.324Y-658.242
X282.324Y-705.681
X282.324Y-709.075
X283.027Y-544.878
X283.027Y-600.711
X283.027Y-656.545
X283.027Y-707.378
X438.227Y-544.878
X438.227Y-600.711
X438.227Y-656.545
X438.227Y-707.378
X438.93Y-543.181
X438.93Y-546.575
X438.93Y-599.014
X438.93Y-602.409
X438.93Y-654.848
X438.93Y-658.242
X438.93Y-705.681
X438.93Y-709.075
X440.627Y-542.478
X440.627Y-547.278
X440.627Y-598.311
X440.627Y-603.111
X440.627Y-654.145
X440.627Y-658.945
X440.627Y-704.978
X440.627Y-709.778
X442.324Y-543.181
X442.324Y-546.575
X442.324Y-599.014
X442.324Y-602.409
X442.324Y-654.848
X442.324Y-658.242
X442.324Y-705.681
X442.324Y-709.075
X443.027Y-544.878
X443.027Y-600.711
X443.027Y-656.545
X443.027Y-707.378
X588.227Y-544.878
X588.227Y-600.711
X588.227Y-656.545
X588.227Y-707.378
X588.93Y-543.181
X588.93Y-546.575
X588.93Y-599.014
X588.93Y-602.409
X588.93Y-654.848
X588.93Y-658.242
X588.93Y-705.681
X588.93Y-709.075
X590.627Y-542.478
X590.627Y-547.278
X590.627Y-598.311
X590.627Y-603.111
X590.627Y-654.145
X590.627Y-658.945
X590.627Y-704.978
X590.627Y-709.778
X592.324Y-543.181
X592.324Y-546.575
X592.324Y-599.014
X592.324Y-602.409
X592.324Y-654.848
X592.324Y-658.242
X592.324Y-705.681
X592.324Y-709.075
X593.027Y-544.878
X593.027Y-600.711
X593.027Y-656.545
X593.027Y-707.378
T3
X138.714Y-584.678
X138.714Y-587.218
X141.254Y-584.678
X141.254Y-587.218
X143.714Y-548.518
X143.794Y-584.678
X143.794Y-587.218
X146.254Y-548.518
X146.334Y-584.678
X146.334Y-587.218
X148.874Y-584.678
X148.874Y-587.218
X170.334Y-604.508
X170.334Y-607.048
X170.334Y-609.588
X170.334Y-612.128
X170.334Y-614.668
X170.334Y-617.208
X170.334Y-619.748
X170.334Y-622.288
X170.334Y-624.828
X170.334Y-627.368
X170.334Y-629.908
X170.334Y-632.448
X170.334Y-634.988
X170.334Y-637.528
X170.334Y-640.068
X170.334Y-642.608
X170.334Y-645.148
X170.334Y-647.688
X170.334Y-650.228
X170.334Y-652.768
X170.334Y-655.308
X170.334Y-657.848
X170.334Y-660.388
X170.334Y-662.928
X170.334Y-665.468
X170.334Y-668.008
X170.334Y-670.548
X170.334Y-673.088
X170.334Y-675.628
X170.334Y-678.168
X170.334Y-680.708
X170.334Y-683.248
X172.874Y-604.508
X172.874Y-607.048
X172.874Y-609.588
X172.874Y-612.128
X172.874Y-614.668
X172.874Y-617.208
X172.874Y-619.748
X172.874Y-622.288
X172.874Y-624.828
X172.874Y-627.368
X172.874Y-629.908
X172.874Y-632.448
X172.874Y-634.988
X172.874Y-637.528
X172.874Y-640.068
X172.874Y-642.608
X172.874Y-645.148
X172.874Y-647.688
X172.874Y-650.228
X172.874Y-652.768
X172.874Y-655.308
X172.874Y-657.848
X172.874Y-660.388
X172.874Y-662.928
X172.874Y-665.468
X172.874Y-668.008
X172.874Y-670.548
X172.874Y-673.088
X172.874Y-675.628
X172.874Y-678.168
X172.874Y-680.708
X172.874Y-683.248
X198.674Y-584.678
X198.674Y-587.218
X201.214Y-584.678
X201.214Y-587.218
X203.754Y-584.678
X203.754Y-587.218
X206.294Y-584.678
X206.294Y-587.218
X208.834Y-584.678
X208.834Y-587.218
X258.734Y-584.878
X258.734Y-587.418
X261.274Y-584.878
X261.274Y-587.418
X263.814Y-584.878
X263.814Y-587.418
X266.354Y-584.878
X266.354Y-587.418
X268.894Y-584.878
X268.894Y-587.418
X318.514Y-584.778
X318.514Y-587.318
X321.054Y-584.778
X321.054Y-587.318
X323.594Y-584.778
X323.594Y-587.318
X326.134Y-584.778
X326.134Y-587.318
X328.674Y-584.778
X328.674Y-587.318
X378.654Y-584.778
X378.654Y-587.318
X381.194Y-584.778
X381.194Y-587.318
X383.734Y-584.778
X383.734Y-587.318
X386.274Y-584.778
X386.274Y-587.318
X388.814Y-584.778
X388.814Y-587.318
X439.104Y-584.668
X439.104Y-587.208
X441.644Y-584.668
X441.644Y-587.208
X444.184Y-584.668
X444.184Y-587.208
X446.724Y-584.668
X446.724Y-587.208
X449.264Y-584.668
X449.264Y-587.208
X498.304Y-584.768
X498.304Y-587.308
X500.844Y-584.768
X500.844Y-587.308
X503.384Y-584.768
X503.384Y-587.308
X505.924Y-584.768
X505.924Y-587.308
X508.464Y-584.768
X508.464Y-587.308
X558.374Y-584.878
X558.374Y-587.418
X560.914Y-584.878
X560.914Y-587.418
X563.454Y-584.878
X563.454Y-587.418
X565.994Y-584.878
X565.994Y-587.418
X568.534Y-584.878
X568.534Y-587.418
T4
X130.844Y-550.528
X130.844Y-555.528
X130.844Y-560.528
X135.844Y-550.528
X135.844Y-555.528
X135.844Y-560.528
X137.404Y-570.945
X137.404Y-575.945
X142.404Y-570.945
X142.404Y-575.945
X151.454Y-571.045
X151.454Y-576.045
X156.454Y-571.045
X156.454Y-576.045
X196.354Y-571.045
X196.354Y-576.045
X201.354Y-571.045
X201.354Y-576.045
X211.454Y-570.945
X211.454Y-575.945
X216.454Y-570.945
X216.454Y-575.945
X256.354Y-570.845
X256.354Y-575.845
X261.354Y-570.845
X261.354Y-575.845
X271.504Y-570.945
X271.504Y-575.945
X276.504Y-570.945
X276.504Y-575.945
X316.504Y-570.945
X316.504Y-575.945
X321.504Y-570.945
X321.504Y-575.945
X331.604Y-570.845
X331.604Y-575.845
X336.604Y-570.845
X336.604Y-575.845
X376.354Y-570.745
X376.354Y-575.745
X381.354Y-570.745
X381.354Y-575.745
X391.704Y-570.745
X391.704Y-575.745
X396.704Y-570.745
X396.704Y-575.745
X436.504Y-570.745
X436.504Y-575.745
X441.504Y-570.745
X441.504Y-575.745
X451.904Y-570.745
X451.904Y-575.745
X456.904Y-570.745
X456.904Y-575.745
X496.604Y-570.745
X496.604Y-575.745
X501.604Y-570.745
X501.604Y-575.745
X511.554Y-570.745
X511.554Y-575.745
X516.554Y-570.745
X516.554Y-575.745
X556.304Y-570.645
X556.304Y-575.645
X561.304Y-570.645
X561.304Y-575.645
X572.204Y-570.645
X572.204Y-575.645
X577.204Y-570.645
X577.204Y-575.645
T5
X120.627Y-544.878
X120.627Y-600.711
X120.627Y-656.545
X120.627Y-707.378
X280.627Y-544.878
X280.627Y-600.711
X280.627Y-656.545
X280.627Y-707.378
X440.627Y-544.878
X440.627Y-600.711
X440.627Y-656.545
X440.627Y-707.378
X590.627Y-544.878
X590.627Y-600.711
X590.627Y-656.545
X590.627Y-707.378
T0
M30
