%TF.GenerationSoftware,KiCad,Pcbnew,7.0.8*%
%TF.CreationDate,2023-11-15T12:31:59+01:00*%
%TF.ProjectId,secondary-board-rev1,7365636f-6e64-4617-9279-2d626f617264,rev?*%
%TF.SameCoordinates,Original*%
%TF.FileFunction,Legend,Top*%
%TF.FilePolarity,Positive*%
%FSLAX46Y46*%
G04 Gerber Fmt 4.6, Leading zero omitted, Abs format (unit mm)*
G04 Created by KiCad (PCBNEW 7.0.8) date 2023-11-15 12:31:59*
%MOMM*%
%LPD*%
G01*
G04 APERTURE LIST*
%ADD10C,0.150000*%
%ADD11C,0.120000*%
G04 APERTURE END LIST*
D10*
X439849694Y-564079620D02*
X439849694Y-564793905D01*
X439849694Y-564793905D02*
X439802075Y-564936762D01*
X439802075Y-564936762D02*
X439706837Y-565032001D01*
X439706837Y-565032001D02*
X439563980Y-565079620D01*
X439563980Y-565079620D02*
X439468742Y-565079620D01*
X440468742Y-564508191D02*
X440373504Y-564460572D01*
X440373504Y-564460572D02*
X440325885Y-564412953D01*
X440325885Y-564412953D02*
X440278266Y-564317715D01*
X440278266Y-564317715D02*
X440278266Y-564270096D01*
X440278266Y-564270096D02*
X440325885Y-564174858D01*
X440325885Y-564174858D02*
X440373504Y-564127239D01*
X440373504Y-564127239D02*
X440468742Y-564079620D01*
X440468742Y-564079620D02*
X440659218Y-564079620D01*
X440659218Y-564079620D02*
X440754456Y-564127239D01*
X440754456Y-564127239D02*
X440802075Y-564174858D01*
X440802075Y-564174858D02*
X440849694Y-564270096D01*
X440849694Y-564270096D02*
X440849694Y-564317715D01*
X440849694Y-564317715D02*
X440802075Y-564412953D01*
X440802075Y-564412953D02*
X440754456Y-564460572D01*
X440754456Y-564460572D02*
X440659218Y-564508191D01*
X440659218Y-564508191D02*
X440468742Y-564508191D01*
X440468742Y-564508191D02*
X440373504Y-564555810D01*
X440373504Y-564555810D02*
X440325885Y-564603429D01*
X440325885Y-564603429D02*
X440278266Y-564698667D01*
X440278266Y-564698667D02*
X440278266Y-564889143D01*
X440278266Y-564889143D02*
X440325885Y-564984381D01*
X440325885Y-564984381D02*
X440373504Y-565032001D01*
X440373504Y-565032001D02*
X440468742Y-565079620D01*
X440468742Y-565079620D02*
X440659218Y-565079620D01*
X440659218Y-565079620D02*
X440754456Y-565032001D01*
X440754456Y-565032001D02*
X440802075Y-564984381D01*
X440802075Y-564984381D02*
X440849694Y-564889143D01*
X440849694Y-564889143D02*
X440849694Y-564698667D01*
X440849694Y-564698667D02*
X440802075Y-564603429D01*
X440802075Y-564603429D02*
X440754456Y-564555810D01*
X440754456Y-564555810D02*
X440659218Y-564508191D01*
X322028813Y-594488628D02*
X321028813Y-594488628D01*
X321028813Y-594488628D02*
X321028813Y-594250533D01*
X321028813Y-594250533D02*
X321076432Y-594107676D01*
X321076432Y-594107676D02*
X321171670Y-594012438D01*
X321171670Y-594012438D02*
X321266908Y-593964819D01*
X321266908Y-593964819D02*
X321457384Y-593917200D01*
X321457384Y-593917200D02*
X321600241Y-593917200D01*
X321600241Y-593917200D02*
X321790717Y-593964819D01*
X321790717Y-593964819D02*
X321885955Y-594012438D01*
X321885955Y-594012438D02*
X321981194Y-594107676D01*
X321981194Y-594107676D02*
X322028813Y-594250533D01*
X322028813Y-594250533D02*
X322028813Y-594488628D01*
X322028813Y-592964819D02*
X322028813Y-593536247D01*
X322028813Y-593250533D02*
X321028813Y-593250533D01*
X321028813Y-593250533D02*
X321171670Y-593345771D01*
X321171670Y-593345771D02*
X321266908Y-593441009D01*
X321266908Y-593441009D02*
X321314527Y-593536247D01*
X321124051Y-592583866D02*
X321076432Y-592536247D01*
X321076432Y-592536247D02*
X321028813Y-592441009D01*
X321028813Y-592441009D02*
X321028813Y-592202914D01*
X321028813Y-592202914D02*
X321076432Y-592107676D01*
X321076432Y-592107676D02*
X321124051Y-592060057D01*
X321124051Y-592060057D02*
X321219289Y-592012438D01*
X321219289Y-592012438D02*
X321314527Y-592012438D01*
X321314527Y-592012438D02*
X321457384Y-592060057D01*
X321457384Y-592060057D02*
X322028813Y-592631485D01*
X322028813Y-592631485D02*
X322028813Y-592012438D01*
X321457384Y-591441009D02*
X321409765Y-591536247D01*
X321409765Y-591536247D02*
X321362146Y-591583866D01*
X321362146Y-591583866D02*
X321266908Y-591631485D01*
X321266908Y-591631485D02*
X321219289Y-591631485D01*
X321219289Y-591631485D02*
X321124051Y-591583866D01*
X321124051Y-591583866D02*
X321076432Y-591536247D01*
X321076432Y-591536247D02*
X321028813Y-591441009D01*
X321028813Y-591441009D02*
X321028813Y-591250533D01*
X321028813Y-591250533D02*
X321076432Y-591155295D01*
X321076432Y-591155295D02*
X321124051Y-591107676D01*
X321124051Y-591107676D02*
X321219289Y-591060057D01*
X321219289Y-591060057D02*
X321266908Y-591060057D01*
X321266908Y-591060057D02*
X321362146Y-591107676D01*
X321362146Y-591107676D02*
X321409765Y-591155295D01*
X321409765Y-591155295D02*
X321457384Y-591250533D01*
X321457384Y-591250533D02*
X321457384Y-591441009D01*
X321457384Y-591441009D02*
X321505003Y-591536247D01*
X321505003Y-591536247D02*
X321552622Y-591583866D01*
X321552622Y-591583866D02*
X321647860Y-591631485D01*
X321647860Y-591631485D02*
X321838336Y-591631485D01*
X321838336Y-591631485D02*
X321933574Y-591583866D01*
X321933574Y-591583866D02*
X321981194Y-591536247D01*
X321981194Y-591536247D02*
X322028813Y-591441009D01*
X322028813Y-591441009D02*
X322028813Y-591250533D01*
X322028813Y-591250533D02*
X321981194Y-591155295D01*
X321981194Y-591155295D02*
X321933574Y-591107676D01*
X321933574Y-591107676D02*
X321838336Y-591060057D01*
X321838336Y-591060057D02*
X321647860Y-591060057D01*
X321647860Y-591060057D02*
X321552622Y-591107676D01*
X321552622Y-591107676D02*
X321505003Y-591155295D01*
X321505003Y-591155295D02*
X321457384Y-591250533D01*
X442378813Y-594288628D02*
X441378813Y-594288628D01*
X441378813Y-594288628D02*
X441378813Y-594050533D01*
X441378813Y-594050533D02*
X441426432Y-593907676D01*
X441426432Y-593907676D02*
X441521670Y-593812438D01*
X441521670Y-593812438D02*
X441616908Y-593764819D01*
X441616908Y-593764819D02*
X441807384Y-593717200D01*
X441807384Y-593717200D02*
X441950241Y-593717200D01*
X441950241Y-593717200D02*
X442140717Y-593764819D01*
X442140717Y-593764819D02*
X442235955Y-593812438D01*
X442235955Y-593812438D02*
X442331194Y-593907676D01*
X442331194Y-593907676D02*
X442378813Y-594050533D01*
X442378813Y-594050533D02*
X442378813Y-594288628D01*
X442378813Y-592764819D02*
X442378813Y-593336247D01*
X442378813Y-593050533D02*
X441378813Y-593050533D01*
X441378813Y-593050533D02*
X441521670Y-593145771D01*
X441521670Y-593145771D02*
X441616908Y-593241009D01*
X441616908Y-593241009D02*
X441664527Y-593336247D01*
X441378813Y-592431485D02*
X441378813Y-591812438D01*
X441378813Y-591812438D02*
X441759765Y-592145771D01*
X441759765Y-592145771D02*
X441759765Y-592002914D01*
X441759765Y-592002914D02*
X441807384Y-591907676D01*
X441807384Y-591907676D02*
X441855003Y-591860057D01*
X441855003Y-591860057D02*
X441950241Y-591812438D01*
X441950241Y-591812438D02*
X442188336Y-591812438D01*
X442188336Y-591812438D02*
X442283574Y-591860057D01*
X442283574Y-591860057D02*
X442331194Y-591907676D01*
X442331194Y-591907676D02*
X442378813Y-592002914D01*
X442378813Y-592002914D02*
X442378813Y-592288628D01*
X442378813Y-592288628D02*
X442331194Y-592383866D01*
X442331194Y-592383866D02*
X442283574Y-592431485D01*
X441378813Y-591193390D02*
X441378813Y-591098152D01*
X441378813Y-591098152D02*
X441426432Y-591002914D01*
X441426432Y-591002914D02*
X441474051Y-590955295D01*
X441474051Y-590955295D02*
X441569289Y-590907676D01*
X441569289Y-590907676D02*
X441759765Y-590860057D01*
X441759765Y-590860057D02*
X441997860Y-590860057D01*
X441997860Y-590860057D02*
X442188336Y-590907676D01*
X442188336Y-590907676D02*
X442283574Y-590955295D01*
X442283574Y-590955295D02*
X442331194Y-591002914D01*
X442331194Y-591002914D02*
X442378813Y-591098152D01*
X442378813Y-591098152D02*
X442378813Y-591193390D01*
X442378813Y-591193390D02*
X442331194Y-591288628D01*
X442331194Y-591288628D02*
X442283574Y-591336247D01*
X442283574Y-591336247D02*
X442188336Y-591383866D01*
X442188336Y-591383866D02*
X441997860Y-591431485D01*
X441997860Y-591431485D02*
X441759765Y-591431485D01*
X441759765Y-591431485D02*
X441569289Y-591383866D01*
X441569289Y-591383866D02*
X441474051Y-591336247D01*
X441474051Y-591336247D02*
X441426432Y-591288628D01*
X441426432Y-591288628D02*
X441378813Y-591193390D01*
X199223504Y-564379620D02*
X199223504Y-565093905D01*
X199223504Y-565093905D02*
X199175885Y-565236762D01*
X199175885Y-565236762D02*
X199080647Y-565332001D01*
X199080647Y-565332001D02*
X198937790Y-565379620D01*
X198937790Y-565379620D02*
X198842552Y-565379620D01*
X200223504Y-565379620D02*
X199652076Y-565379620D01*
X199937790Y-565379620D02*
X199937790Y-564379620D01*
X199937790Y-564379620D02*
X199842552Y-564522477D01*
X199842552Y-564522477D02*
X199747314Y-564617715D01*
X199747314Y-564617715D02*
X199652076Y-564665334D01*
X201128266Y-564379620D02*
X200652076Y-564379620D01*
X200652076Y-564379620D02*
X200604457Y-564855810D01*
X200604457Y-564855810D02*
X200652076Y-564808191D01*
X200652076Y-564808191D02*
X200747314Y-564760572D01*
X200747314Y-564760572D02*
X200985409Y-564760572D01*
X200985409Y-564760572D02*
X201080647Y-564808191D01*
X201080647Y-564808191D02*
X201128266Y-564855810D01*
X201128266Y-564855810D02*
X201175885Y-564951048D01*
X201175885Y-564951048D02*
X201175885Y-565189143D01*
X201175885Y-565189143D02*
X201128266Y-565284381D01*
X201128266Y-565284381D02*
X201080647Y-565332001D01*
X201080647Y-565332001D02*
X200985409Y-565379620D01*
X200985409Y-565379620D02*
X200747314Y-565379620D01*
X200747314Y-565379620D02*
X200652076Y-565332001D01*
X200652076Y-565332001D02*
X200604457Y-565284381D01*
X448478813Y-594308610D02*
X447478813Y-594308610D01*
X447478813Y-594308610D02*
X447478813Y-594070515D01*
X447478813Y-594070515D02*
X447526432Y-593927658D01*
X447526432Y-593927658D02*
X447621670Y-593832420D01*
X447621670Y-593832420D02*
X447716908Y-593784801D01*
X447716908Y-593784801D02*
X447907384Y-593737182D01*
X447907384Y-593737182D02*
X448050241Y-593737182D01*
X448050241Y-593737182D02*
X448240717Y-593784801D01*
X448240717Y-593784801D02*
X448335955Y-593832420D01*
X448335955Y-593832420D02*
X448431194Y-593927658D01*
X448431194Y-593927658D02*
X448478813Y-594070515D01*
X448478813Y-594070515D02*
X448478813Y-594308610D01*
X448478813Y-592784801D02*
X448478813Y-593356229D01*
X448478813Y-593070515D02*
X447478813Y-593070515D01*
X447478813Y-593070515D02*
X447621670Y-593165753D01*
X447621670Y-593165753D02*
X447716908Y-593260991D01*
X447716908Y-593260991D02*
X447764527Y-593356229D01*
X447574051Y-592403848D02*
X447526432Y-592356229D01*
X447526432Y-592356229D02*
X447478813Y-592260991D01*
X447478813Y-592260991D02*
X447478813Y-592022896D01*
X447478813Y-592022896D02*
X447526432Y-591927658D01*
X447526432Y-591927658D02*
X447574051Y-591880039D01*
X447574051Y-591880039D02*
X447669289Y-591832420D01*
X447669289Y-591832420D02*
X447764527Y-591832420D01*
X447764527Y-591832420D02*
X447907384Y-591880039D01*
X447907384Y-591880039D02*
X448478813Y-592451467D01*
X448478813Y-592451467D02*
X448478813Y-591832420D01*
X448478813Y-591356229D02*
X448478813Y-591165753D01*
X448478813Y-591165753D02*
X448431194Y-591070515D01*
X448431194Y-591070515D02*
X448383574Y-591022896D01*
X448383574Y-591022896D02*
X448240717Y-590927658D01*
X448240717Y-590927658D02*
X448050241Y-590880039D01*
X448050241Y-590880039D02*
X447669289Y-590880039D01*
X447669289Y-590880039D02*
X447574051Y-590927658D01*
X447574051Y-590927658D02*
X447526432Y-590975277D01*
X447526432Y-590975277D02*
X447478813Y-591070515D01*
X447478813Y-591070515D02*
X447478813Y-591260991D01*
X447478813Y-591260991D02*
X447526432Y-591356229D01*
X447526432Y-591356229D02*
X447574051Y-591403848D01*
X447574051Y-591403848D02*
X447669289Y-591451467D01*
X447669289Y-591451467D02*
X447907384Y-591451467D01*
X447907384Y-591451467D02*
X448002622Y-591403848D01*
X448002622Y-591403848D02*
X448050241Y-591356229D01*
X448050241Y-591356229D02*
X448097860Y-591260991D01*
X448097860Y-591260991D02*
X448097860Y-591070515D01*
X448097860Y-591070515D02*
X448050241Y-590975277D01*
X448050241Y-590975277D02*
X448002622Y-590927658D01*
X448002622Y-590927658D02*
X447907384Y-590880039D01*
X262328813Y-594438628D02*
X261328813Y-594438628D01*
X261328813Y-594438628D02*
X261328813Y-594200533D01*
X261328813Y-594200533D02*
X261376432Y-594057676D01*
X261376432Y-594057676D02*
X261471670Y-593962438D01*
X261471670Y-593962438D02*
X261566908Y-593914819D01*
X261566908Y-593914819D02*
X261757384Y-593867200D01*
X261757384Y-593867200D02*
X261900241Y-593867200D01*
X261900241Y-593867200D02*
X262090717Y-593914819D01*
X262090717Y-593914819D02*
X262185955Y-593962438D01*
X262185955Y-593962438D02*
X262281194Y-594057676D01*
X262281194Y-594057676D02*
X262328813Y-594200533D01*
X262328813Y-594200533D02*
X262328813Y-594438628D01*
X262328813Y-592914819D02*
X262328813Y-593486247D01*
X262328813Y-593200533D02*
X261328813Y-593200533D01*
X261328813Y-593200533D02*
X261471670Y-593295771D01*
X261471670Y-593295771D02*
X261566908Y-593391009D01*
X261566908Y-593391009D02*
X261614527Y-593486247D01*
X262328813Y-591962438D02*
X262328813Y-592533866D01*
X262328813Y-592248152D02*
X261328813Y-592248152D01*
X261328813Y-592248152D02*
X261471670Y-592343390D01*
X261471670Y-592343390D02*
X261566908Y-592438628D01*
X261566908Y-592438628D02*
X261614527Y-592533866D01*
X261757384Y-591391009D02*
X261709765Y-591486247D01*
X261709765Y-591486247D02*
X261662146Y-591533866D01*
X261662146Y-591533866D02*
X261566908Y-591581485D01*
X261566908Y-591581485D02*
X261519289Y-591581485D01*
X261519289Y-591581485D02*
X261424051Y-591533866D01*
X261424051Y-591533866D02*
X261376432Y-591486247D01*
X261376432Y-591486247D02*
X261328813Y-591391009D01*
X261328813Y-591391009D02*
X261328813Y-591200533D01*
X261328813Y-591200533D02*
X261376432Y-591105295D01*
X261376432Y-591105295D02*
X261424051Y-591057676D01*
X261424051Y-591057676D02*
X261519289Y-591010057D01*
X261519289Y-591010057D02*
X261566908Y-591010057D01*
X261566908Y-591010057D02*
X261662146Y-591057676D01*
X261662146Y-591057676D02*
X261709765Y-591105295D01*
X261709765Y-591105295D02*
X261757384Y-591200533D01*
X261757384Y-591200533D02*
X261757384Y-591391009D01*
X261757384Y-591391009D02*
X261805003Y-591486247D01*
X261805003Y-591486247D02*
X261852622Y-591533866D01*
X261852622Y-591533866D02*
X261947860Y-591581485D01*
X261947860Y-591581485D02*
X262138336Y-591581485D01*
X262138336Y-591581485D02*
X262233574Y-591533866D01*
X262233574Y-591533866D02*
X262281194Y-591486247D01*
X262281194Y-591486247D02*
X262328813Y-591391009D01*
X262328813Y-591391009D02*
X262328813Y-591200533D01*
X262328813Y-591200533D02*
X262281194Y-591105295D01*
X262281194Y-591105295D02*
X262233574Y-591057676D01*
X262233574Y-591057676D02*
X262138336Y-591010057D01*
X262138336Y-591010057D02*
X261947860Y-591010057D01*
X261947860Y-591010057D02*
X261852622Y-591057676D01*
X261852622Y-591057676D02*
X261805003Y-591105295D01*
X261805003Y-591105295D02*
X261757384Y-591200533D01*
X152127847Y-587233849D02*
X152842132Y-587233849D01*
X152842132Y-587233849D02*
X152984989Y-587281468D01*
X152984989Y-587281468D02*
X153080228Y-587376706D01*
X153080228Y-587376706D02*
X153127847Y-587519563D01*
X153127847Y-587519563D02*
X153127847Y-587614801D01*
X153127847Y-586233849D02*
X153127847Y-586805277D01*
X153127847Y-586519563D02*
X152127847Y-586519563D01*
X152127847Y-586519563D02*
X152270704Y-586614801D01*
X152270704Y-586614801D02*
X152365942Y-586710039D01*
X152365942Y-586710039D02*
X152413561Y-586805277D01*
X152127847Y-585614801D02*
X152127847Y-585519563D01*
X152127847Y-585519563D02*
X152175466Y-585424325D01*
X152175466Y-585424325D02*
X152223085Y-585376706D01*
X152223085Y-585376706D02*
X152318323Y-585329087D01*
X152318323Y-585329087D02*
X152508799Y-585281468D01*
X152508799Y-585281468D02*
X152746894Y-585281468D01*
X152746894Y-585281468D02*
X152937370Y-585329087D01*
X152937370Y-585329087D02*
X153032608Y-585376706D01*
X153032608Y-585376706D02*
X153080228Y-585424325D01*
X153080228Y-585424325D02*
X153127847Y-585519563D01*
X153127847Y-585519563D02*
X153127847Y-585614801D01*
X153127847Y-585614801D02*
X153080228Y-585710039D01*
X153080228Y-585710039D02*
X153032608Y-585757658D01*
X153032608Y-585757658D02*
X152937370Y-585805277D01*
X152937370Y-585805277D02*
X152746894Y-585852896D01*
X152746894Y-585852896D02*
X152508799Y-585852896D01*
X152508799Y-585852896D02*
X152318323Y-585805277D01*
X152318323Y-585805277D02*
X152223085Y-585757658D01*
X152223085Y-585757658D02*
X152175466Y-585710039D01*
X152175466Y-585710039D02*
X152127847Y-585614801D01*
X153127847Y-584805277D02*
X153127847Y-584614801D01*
X153127847Y-584614801D02*
X153080228Y-584519563D01*
X153080228Y-584519563D02*
X153032608Y-584471944D01*
X153032608Y-584471944D02*
X152889751Y-584376706D01*
X152889751Y-584376706D02*
X152699275Y-584329087D01*
X152699275Y-584329087D02*
X152318323Y-584329087D01*
X152318323Y-584329087D02*
X152223085Y-584376706D01*
X152223085Y-584376706D02*
X152175466Y-584424325D01*
X152175466Y-584424325D02*
X152127847Y-584519563D01*
X152127847Y-584519563D02*
X152127847Y-584710039D01*
X152127847Y-584710039D02*
X152175466Y-584805277D01*
X152175466Y-584805277D02*
X152223085Y-584852896D01*
X152223085Y-584852896D02*
X152318323Y-584900515D01*
X152318323Y-584900515D02*
X152556418Y-584900515D01*
X152556418Y-584900515D02*
X152651656Y-584852896D01*
X152651656Y-584852896D02*
X152699275Y-584805277D01*
X152699275Y-584805277D02*
X152746894Y-584710039D01*
X152746894Y-584710039D02*
X152746894Y-584519563D01*
X152746894Y-584519563D02*
X152699275Y-584424325D01*
X152699275Y-584424325D02*
X152651656Y-584376706D01*
X152651656Y-584376706D02*
X152556418Y-584329087D01*
X455249694Y-564079620D02*
X455249694Y-564793905D01*
X455249694Y-564793905D02*
X455202075Y-564936762D01*
X455202075Y-564936762D02*
X455106837Y-565032001D01*
X455106837Y-565032001D02*
X454963980Y-565079620D01*
X454963980Y-565079620D02*
X454868742Y-565079620D01*
X455630647Y-564079620D02*
X456297313Y-564079620D01*
X456297313Y-564079620D02*
X455868742Y-565079620D01*
X140749694Y-564279620D02*
X140749694Y-564993905D01*
X140749694Y-564993905D02*
X140702075Y-565136762D01*
X140702075Y-565136762D02*
X140606837Y-565232001D01*
X140606837Y-565232001D02*
X140463980Y-565279620D01*
X140463980Y-565279620D02*
X140368742Y-565279620D01*
X141178266Y-564374858D02*
X141225885Y-564327239D01*
X141225885Y-564327239D02*
X141321123Y-564279620D01*
X141321123Y-564279620D02*
X141559218Y-564279620D01*
X141559218Y-564279620D02*
X141654456Y-564327239D01*
X141654456Y-564327239D02*
X141702075Y-564374858D01*
X141702075Y-564374858D02*
X141749694Y-564470096D01*
X141749694Y-564470096D02*
X141749694Y-564565334D01*
X141749694Y-564565334D02*
X141702075Y-564708191D01*
X141702075Y-564708191D02*
X141130647Y-565279620D01*
X141130647Y-565279620D02*
X141749694Y-565279620D01*
X503157847Y-594508610D02*
X502157847Y-594508610D01*
X502157847Y-594508610D02*
X502157847Y-594270515D01*
X502157847Y-594270515D02*
X502205466Y-594127658D01*
X502205466Y-594127658D02*
X502300704Y-594032420D01*
X502300704Y-594032420D02*
X502395942Y-593984801D01*
X502395942Y-593984801D02*
X502586418Y-593937182D01*
X502586418Y-593937182D02*
X502729275Y-593937182D01*
X502729275Y-593937182D02*
X502919751Y-593984801D01*
X502919751Y-593984801D02*
X503014989Y-594032420D01*
X503014989Y-594032420D02*
X503110228Y-594127658D01*
X503110228Y-594127658D02*
X503157847Y-594270515D01*
X503157847Y-594270515D02*
X503157847Y-594508610D01*
X503157847Y-592984801D02*
X503157847Y-593556229D01*
X503157847Y-593270515D02*
X502157847Y-593270515D01*
X502157847Y-593270515D02*
X502300704Y-593365753D01*
X502300704Y-593365753D02*
X502395942Y-593460991D01*
X502395942Y-593460991D02*
X502443561Y-593556229D01*
X502157847Y-592651467D02*
X502157847Y-592032420D01*
X502157847Y-592032420D02*
X502538799Y-592365753D01*
X502538799Y-592365753D02*
X502538799Y-592222896D01*
X502538799Y-592222896D02*
X502586418Y-592127658D01*
X502586418Y-592127658D02*
X502634037Y-592080039D01*
X502634037Y-592080039D02*
X502729275Y-592032420D01*
X502729275Y-592032420D02*
X502967370Y-592032420D01*
X502967370Y-592032420D02*
X503062608Y-592080039D01*
X503062608Y-592080039D02*
X503110228Y-592127658D01*
X503110228Y-592127658D02*
X503157847Y-592222896D01*
X503157847Y-592222896D02*
X503157847Y-592508610D01*
X503157847Y-592508610D02*
X503110228Y-592603848D01*
X503110228Y-592603848D02*
X503062608Y-592651467D01*
X502253085Y-591651467D02*
X502205466Y-591603848D01*
X502205466Y-591603848D02*
X502157847Y-591508610D01*
X502157847Y-591508610D02*
X502157847Y-591270515D01*
X502157847Y-591270515D02*
X502205466Y-591175277D01*
X502205466Y-591175277D02*
X502253085Y-591127658D01*
X502253085Y-591127658D02*
X502348323Y-591080039D01*
X502348323Y-591080039D02*
X502443561Y-591080039D01*
X502443561Y-591080039D02*
X502586418Y-591127658D01*
X502586418Y-591127658D02*
X503157847Y-591699086D01*
X503157847Y-591699086D02*
X503157847Y-591080039D01*
X569357847Y-595308610D02*
X568357847Y-595308610D01*
X568357847Y-595308610D02*
X568357847Y-595070515D01*
X568357847Y-595070515D02*
X568405466Y-594927658D01*
X568405466Y-594927658D02*
X568500704Y-594832420D01*
X568500704Y-594832420D02*
X568595942Y-594784801D01*
X568595942Y-594784801D02*
X568786418Y-594737182D01*
X568786418Y-594737182D02*
X568929275Y-594737182D01*
X568929275Y-594737182D02*
X569119751Y-594784801D01*
X569119751Y-594784801D02*
X569214989Y-594832420D01*
X569214989Y-594832420D02*
X569310228Y-594927658D01*
X569310228Y-594927658D02*
X569357847Y-595070515D01*
X569357847Y-595070515D02*
X569357847Y-595308610D01*
X569357847Y-593784801D02*
X569357847Y-594356229D01*
X569357847Y-594070515D02*
X568357847Y-594070515D01*
X568357847Y-594070515D02*
X568500704Y-594165753D01*
X568500704Y-594165753D02*
X568595942Y-594260991D01*
X568595942Y-594260991D02*
X568643561Y-594356229D01*
X568357847Y-593451467D02*
X568357847Y-592832420D01*
X568357847Y-592832420D02*
X568738799Y-593165753D01*
X568738799Y-593165753D02*
X568738799Y-593022896D01*
X568738799Y-593022896D02*
X568786418Y-592927658D01*
X568786418Y-592927658D02*
X568834037Y-592880039D01*
X568834037Y-592880039D02*
X568929275Y-592832420D01*
X568929275Y-592832420D02*
X569167370Y-592832420D01*
X569167370Y-592832420D02*
X569262608Y-592880039D01*
X569262608Y-592880039D02*
X569310228Y-592927658D01*
X569310228Y-592927658D02*
X569357847Y-593022896D01*
X569357847Y-593022896D02*
X569357847Y-593308610D01*
X569357847Y-593308610D02*
X569310228Y-593403848D01*
X569310228Y-593403848D02*
X569262608Y-593451467D01*
X568691180Y-591975277D02*
X569357847Y-591975277D01*
X568310228Y-592213372D02*
X569024513Y-592451467D01*
X569024513Y-592451467D02*
X569024513Y-591832420D01*
X259223504Y-564179620D02*
X259223504Y-564893905D01*
X259223504Y-564893905D02*
X259175885Y-565036762D01*
X259175885Y-565036762D02*
X259080647Y-565132001D01*
X259080647Y-565132001D02*
X258937790Y-565179620D01*
X258937790Y-565179620D02*
X258842552Y-565179620D01*
X260223504Y-565179620D02*
X259652076Y-565179620D01*
X259937790Y-565179620D02*
X259937790Y-564179620D01*
X259937790Y-564179620D02*
X259842552Y-564322477D01*
X259842552Y-564322477D02*
X259747314Y-564417715D01*
X259747314Y-564417715D02*
X259652076Y-564465334D01*
X260556838Y-564179620D02*
X261223504Y-564179620D01*
X261223504Y-564179620D02*
X260794933Y-565179620D01*
X575549694Y-563979620D02*
X575549694Y-564693905D01*
X575549694Y-564693905D02*
X575502075Y-564836762D01*
X575502075Y-564836762D02*
X575406837Y-564932001D01*
X575406837Y-564932001D02*
X575263980Y-564979620D01*
X575263980Y-564979620D02*
X575168742Y-564979620D01*
X575930647Y-563979620D02*
X576549694Y-563979620D01*
X576549694Y-563979620D02*
X576216361Y-564360572D01*
X576216361Y-564360572D02*
X576359218Y-564360572D01*
X576359218Y-564360572D02*
X576454456Y-564408191D01*
X576454456Y-564408191D02*
X576502075Y-564455810D01*
X576502075Y-564455810D02*
X576549694Y-564551048D01*
X576549694Y-564551048D02*
X576549694Y-564789143D01*
X576549694Y-564789143D02*
X576502075Y-564884381D01*
X576502075Y-564884381D02*
X576454456Y-564932001D01*
X576454456Y-564932001D02*
X576359218Y-564979620D01*
X576359218Y-564979620D02*
X576073504Y-564979620D01*
X576073504Y-564979620D02*
X575978266Y-564932001D01*
X575978266Y-564932001D02*
X575930647Y-564884381D01*
X571787847Y-587433849D02*
X572502132Y-587433849D01*
X572502132Y-587433849D02*
X572644989Y-587481468D01*
X572644989Y-587481468D02*
X572740228Y-587576706D01*
X572740228Y-587576706D02*
X572787847Y-587719563D01*
X572787847Y-587719563D02*
X572787847Y-587814801D01*
X572787847Y-586433849D02*
X572787847Y-587005277D01*
X572787847Y-586719563D02*
X571787847Y-586719563D01*
X571787847Y-586719563D02*
X571930704Y-586814801D01*
X571930704Y-586814801D02*
X572025942Y-586910039D01*
X572025942Y-586910039D02*
X572073561Y-587005277D01*
X572787847Y-585481468D02*
X572787847Y-586052896D01*
X572787847Y-585767182D02*
X571787847Y-585767182D01*
X571787847Y-585767182D02*
X571930704Y-585862420D01*
X571930704Y-585862420D02*
X572025942Y-585957658D01*
X572025942Y-585957658D02*
X572073561Y-586052896D01*
X571787847Y-584624325D02*
X571787847Y-584814801D01*
X571787847Y-584814801D02*
X571835466Y-584910039D01*
X571835466Y-584910039D02*
X571883085Y-584957658D01*
X571883085Y-584957658D02*
X572025942Y-585052896D01*
X572025942Y-585052896D02*
X572216418Y-585100515D01*
X572216418Y-585100515D02*
X572597370Y-585100515D01*
X572597370Y-585100515D02*
X572692608Y-585052896D01*
X572692608Y-585052896D02*
X572740228Y-585005277D01*
X572740228Y-585005277D02*
X572787847Y-584910039D01*
X572787847Y-584910039D02*
X572787847Y-584719563D01*
X572787847Y-584719563D02*
X572740228Y-584624325D01*
X572740228Y-584624325D02*
X572692608Y-584576706D01*
X572692608Y-584576706D02*
X572597370Y-584529087D01*
X572597370Y-584529087D02*
X572359275Y-584529087D01*
X572359275Y-584529087D02*
X572264037Y-584576706D01*
X572264037Y-584576706D02*
X572216418Y-584624325D01*
X572216418Y-584624325D02*
X572168799Y-584719563D01*
X572168799Y-584719563D02*
X572168799Y-584910039D01*
X572168799Y-584910039D02*
X572216418Y-585005277D01*
X572216418Y-585005277D02*
X572264037Y-585052896D01*
X572264037Y-585052896D02*
X572359275Y-585100515D01*
X379223504Y-564079620D02*
X379223504Y-564793905D01*
X379223504Y-564793905D02*
X379175885Y-564936762D01*
X379175885Y-564936762D02*
X379080647Y-565032001D01*
X379080647Y-565032001D02*
X378937790Y-565079620D01*
X378937790Y-565079620D02*
X378842552Y-565079620D01*
X380223504Y-565079620D02*
X379652076Y-565079620D01*
X379937790Y-565079620D02*
X379937790Y-564079620D01*
X379937790Y-564079620D02*
X379842552Y-564222477D01*
X379842552Y-564222477D02*
X379747314Y-564317715D01*
X379747314Y-564317715D02*
X379652076Y-564365334D01*
X381175885Y-565079620D02*
X380604457Y-565079620D01*
X380890171Y-565079620D02*
X380890171Y-564079620D01*
X380890171Y-564079620D02*
X380794933Y-564222477D01*
X380794933Y-564222477D02*
X380699695Y-564317715D01*
X380699695Y-564317715D02*
X380604457Y-564365334D01*
X382028813Y-594388628D02*
X381028813Y-594388628D01*
X381028813Y-594388628D02*
X381028813Y-594150533D01*
X381028813Y-594150533D02*
X381076432Y-594007676D01*
X381076432Y-594007676D02*
X381171670Y-593912438D01*
X381171670Y-593912438D02*
X381266908Y-593864819D01*
X381266908Y-593864819D02*
X381457384Y-593817200D01*
X381457384Y-593817200D02*
X381600241Y-593817200D01*
X381600241Y-593817200D02*
X381790717Y-593864819D01*
X381790717Y-593864819D02*
X381885955Y-593912438D01*
X381885955Y-593912438D02*
X381981194Y-594007676D01*
X381981194Y-594007676D02*
X382028813Y-594150533D01*
X382028813Y-594150533D02*
X382028813Y-594388628D01*
X382028813Y-592864819D02*
X382028813Y-593436247D01*
X382028813Y-593150533D02*
X381028813Y-593150533D01*
X381028813Y-593150533D02*
X381171670Y-593245771D01*
X381171670Y-593245771D02*
X381266908Y-593341009D01*
X381266908Y-593341009D02*
X381314527Y-593436247D01*
X381124051Y-592483866D02*
X381076432Y-592436247D01*
X381076432Y-592436247D02*
X381028813Y-592341009D01*
X381028813Y-592341009D02*
X381028813Y-592102914D01*
X381028813Y-592102914D02*
X381076432Y-592007676D01*
X381076432Y-592007676D02*
X381124051Y-591960057D01*
X381124051Y-591960057D02*
X381219289Y-591912438D01*
X381219289Y-591912438D02*
X381314527Y-591912438D01*
X381314527Y-591912438D02*
X381457384Y-591960057D01*
X381457384Y-591960057D02*
X382028813Y-592531485D01*
X382028813Y-592531485D02*
X382028813Y-591912438D01*
X381124051Y-591531485D02*
X381076432Y-591483866D01*
X381076432Y-591483866D02*
X381028813Y-591388628D01*
X381028813Y-591388628D02*
X381028813Y-591150533D01*
X381028813Y-591150533D02*
X381076432Y-591055295D01*
X381076432Y-591055295D02*
X381124051Y-591007676D01*
X381124051Y-591007676D02*
X381219289Y-590960057D01*
X381219289Y-590960057D02*
X381314527Y-590960057D01*
X381314527Y-590960057D02*
X381457384Y-591007676D01*
X381457384Y-591007676D02*
X382028813Y-591579104D01*
X382028813Y-591579104D02*
X382028813Y-590960057D01*
X202028813Y-594638628D02*
X201028813Y-594638628D01*
X201028813Y-594638628D02*
X201028813Y-594400533D01*
X201028813Y-594400533D02*
X201076432Y-594257676D01*
X201076432Y-594257676D02*
X201171670Y-594162438D01*
X201171670Y-594162438D02*
X201266908Y-594114819D01*
X201266908Y-594114819D02*
X201457384Y-594067200D01*
X201457384Y-594067200D02*
X201600241Y-594067200D01*
X201600241Y-594067200D02*
X201790717Y-594114819D01*
X201790717Y-594114819D02*
X201885955Y-594162438D01*
X201885955Y-594162438D02*
X201981194Y-594257676D01*
X201981194Y-594257676D02*
X202028813Y-594400533D01*
X202028813Y-594400533D02*
X202028813Y-594638628D01*
X202028813Y-593114819D02*
X202028813Y-593686247D01*
X202028813Y-593400533D02*
X201028813Y-593400533D01*
X201028813Y-593400533D02*
X201171670Y-593495771D01*
X201171670Y-593495771D02*
X201266908Y-593591009D01*
X201266908Y-593591009D02*
X201314527Y-593686247D01*
X201028813Y-592781485D02*
X201028813Y-592162438D01*
X201028813Y-592162438D02*
X201409765Y-592495771D01*
X201409765Y-592495771D02*
X201409765Y-592352914D01*
X201409765Y-592352914D02*
X201457384Y-592257676D01*
X201457384Y-592257676D02*
X201505003Y-592210057D01*
X201505003Y-592210057D02*
X201600241Y-592162438D01*
X201600241Y-592162438D02*
X201838336Y-592162438D01*
X201838336Y-592162438D02*
X201933574Y-592210057D01*
X201933574Y-592210057D02*
X201981194Y-592257676D01*
X201981194Y-592257676D02*
X202028813Y-592352914D01*
X202028813Y-592352914D02*
X202028813Y-592638628D01*
X202028813Y-592638628D02*
X201981194Y-592733866D01*
X201981194Y-592733866D02*
X201933574Y-592781485D01*
X201028813Y-591829104D02*
X201028813Y-591210057D01*
X201028813Y-591210057D02*
X201409765Y-591543390D01*
X201409765Y-591543390D02*
X201409765Y-591400533D01*
X201409765Y-591400533D02*
X201457384Y-591305295D01*
X201457384Y-591305295D02*
X201505003Y-591257676D01*
X201505003Y-591257676D02*
X201600241Y-591210057D01*
X201600241Y-591210057D02*
X201838336Y-591210057D01*
X201838336Y-591210057D02*
X201933574Y-591257676D01*
X201933574Y-591257676D02*
X201981194Y-591305295D01*
X201981194Y-591305295D02*
X202028813Y-591400533D01*
X202028813Y-591400533D02*
X202028813Y-591686247D01*
X202028813Y-591686247D02*
X201981194Y-591781485D01*
X201981194Y-591781485D02*
X201933574Y-591829104D01*
X452517847Y-587223849D02*
X453232132Y-587223849D01*
X453232132Y-587223849D02*
X453374989Y-587271468D01*
X453374989Y-587271468D02*
X453470228Y-587366706D01*
X453470228Y-587366706D02*
X453517847Y-587509563D01*
X453517847Y-587509563D02*
X453517847Y-587604801D01*
X453517847Y-586223849D02*
X453517847Y-586795277D01*
X453517847Y-586509563D02*
X452517847Y-586509563D01*
X452517847Y-586509563D02*
X452660704Y-586604801D01*
X452660704Y-586604801D02*
X452755942Y-586700039D01*
X452755942Y-586700039D02*
X452803561Y-586795277D01*
X453517847Y-585271468D02*
X453517847Y-585842896D01*
X453517847Y-585557182D02*
X452517847Y-585557182D01*
X452517847Y-585557182D02*
X452660704Y-585652420D01*
X452660704Y-585652420D02*
X452755942Y-585747658D01*
X452755942Y-585747658D02*
X452803561Y-585842896D01*
X452851180Y-584414325D02*
X453517847Y-584414325D01*
X452470228Y-584652420D02*
X453184513Y-584890515D01*
X453184513Y-584890515D02*
X453184513Y-584271468D01*
X148378813Y-594588628D02*
X147378813Y-594588628D01*
X147378813Y-594588628D02*
X147378813Y-594350533D01*
X147378813Y-594350533D02*
X147426432Y-594207676D01*
X147426432Y-594207676D02*
X147521670Y-594112438D01*
X147521670Y-594112438D02*
X147616908Y-594064819D01*
X147616908Y-594064819D02*
X147807384Y-594017200D01*
X147807384Y-594017200D02*
X147950241Y-594017200D01*
X147950241Y-594017200D02*
X148140717Y-594064819D01*
X148140717Y-594064819D02*
X148235955Y-594112438D01*
X148235955Y-594112438D02*
X148331194Y-594207676D01*
X148331194Y-594207676D02*
X148378813Y-594350533D01*
X148378813Y-594350533D02*
X148378813Y-594588628D01*
X148378813Y-593064819D02*
X148378813Y-593636247D01*
X148378813Y-593350533D02*
X147378813Y-593350533D01*
X147378813Y-593350533D02*
X147521670Y-593445771D01*
X147521670Y-593445771D02*
X147616908Y-593541009D01*
X147616908Y-593541009D02*
X147664527Y-593636247D01*
X147474051Y-592683866D02*
X147426432Y-592636247D01*
X147426432Y-592636247D02*
X147378813Y-592541009D01*
X147378813Y-592541009D02*
X147378813Y-592302914D01*
X147378813Y-592302914D02*
X147426432Y-592207676D01*
X147426432Y-592207676D02*
X147474051Y-592160057D01*
X147474051Y-592160057D02*
X147569289Y-592112438D01*
X147569289Y-592112438D02*
X147664527Y-592112438D01*
X147664527Y-592112438D02*
X147807384Y-592160057D01*
X147807384Y-592160057D02*
X148378813Y-592731485D01*
X148378813Y-592731485D02*
X148378813Y-592112438D01*
X147378813Y-591779104D02*
X147378813Y-591160057D01*
X147378813Y-591160057D02*
X147759765Y-591493390D01*
X147759765Y-591493390D02*
X147759765Y-591350533D01*
X147759765Y-591350533D02*
X147807384Y-591255295D01*
X147807384Y-591255295D02*
X147855003Y-591207676D01*
X147855003Y-591207676D02*
X147950241Y-591160057D01*
X147950241Y-591160057D02*
X148188336Y-591160057D01*
X148188336Y-591160057D02*
X148283574Y-591207676D01*
X148283574Y-591207676D02*
X148331194Y-591255295D01*
X148331194Y-591255295D02*
X148378813Y-591350533D01*
X148378813Y-591350533D02*
X148378813Y-591636247D01*
X148378813Y-591636247D02*
X148331194Y-591731485D01*
X148331194Y-591731485D02*
X148283574Y-591779104D01*
X395049694Y-564079620D02*
X395049694Y-564793905D01*
X395049694Y-564793905D02*
X395002075Y-564936762D01*
X395002075Y-564936762D02*
X394906837Y-565032001D01*
X394906837Y-565032001D02*
X394763980Y-565079620D01*
X394763980Y-565079620D02*
X394668742Y-565079620D01*
X395573504Y-565079620D02*
X395763980Y-565079620D01*
X395763980Y-565079620D02*
X395859218Y-565032001D01*
X395859218Y-565032001D02*
X395906837Y-564984381D01*
X395906837Y-564984381D02*
X396002075Y-564841524D01*
X396002075Y-564841524D02*
X396049694Y-564651048D01*
X396049694Y-564651048D02*
X396049694Y-564270096D01*
X396049694Y-564270096D02*
X396002075Y-564174858D01*
X396002075Y-564174858D02*
X395954456Y-564127239D01*
X395954456Y-564127239D02*
X395859218Y-564079620D01*
X395859218Y-564079620D02*
X395668742Y-564079620D01*
X395668742Y-564079620D02*
X395573504Y-564127239D01*
X395573504Y-564127239D02*
X395525885Y-564174858D01*
X395525885Y-564174858D02*
X395478266Y-564270096D01*
X395478266Y-564270096D02*
X395478266Y-564508191D01*
X395478266Y-564508191D02*
X395525885Y-564603429D01*
X395525885Y-564603429D02*
X395573504Y-564651048D01*
X395573504Y-564651048D02*
X395668742Y-564698667D01*
X395668742Y-564698667D02*
X395859218Y-564698667D01*
X395859218Y-564698667D02*
X395954456Y-564651048D01*
X395954456Y-564651048D02*
X396002075Y-564603429D01*
X396002075Y-564603429D02*
X396049694Y-564508191D01*
X331927847Y-587333849D02*
X332642132Y-587333849D01*
X332642132Y-587333849D02*
X332784989Y-587381468D01*
X332784989Y-587381468D02*
X332880228Y-587476706D01*
X332880228Y-587476706D02*
X332927847Y-587619563D01*
X332927847Y-587619563D02*
X332927847Y-587714801D01*
X332927847Y-586333849D02*
X332927847Y-586905277D01*
X332927847Y-586619563D02*
X331927847Y-586619563D01*
X331927847Y-586619563D02*
X332070704Y-586714801D01*
X332070704Y-586714801D02*
X332165942Y-586810039D01*
X332165942Y-586810039D02*
X332213561Y-586905277D01*
X332927847Y-585381468D02*
X332927847Y-585952896D01*
X332927847Y-585667182D02*
X331927847Y-585667182D01*
X331927847Y-585667182D02*
X332070704Y-585762420D01*
X332070704Y-585762420D02*
X332165942Y-585857658D01*
X332165942Y-585857658D02*
X332213561Y-585952896D01*
X332023085Y-585000515D02*
X331975466Y-584952896D01*
X331975466Y-584952896D02*
X331927847Y-584857658D01*
X331927847Y-584857658D02*
X331927847Y-584619563D01*
X331927847Y-584619563D02*
X331975466Y-584524325D01*
X331975466Y-584524325D02*
X332023085Y-584476706D01*
X332023085Y-584476706D02*
X332118323Y-584429087D01*
X332118323Y-584429087D02*
X332213561Y-584429087D01*
X332213561Y-584429087D02*
X332356418Y-584476706D01*
X332356418Y-584476706D02*
X332927847Y-585048134D01*
X332927847Y-585048134D02*
X332927847Y-584429087D01*
X319373504Y-564279620D02*
X319373504Y-564993905D01*
X319373504Y-564993905D02*
X319325885Y-565136762D01*
X319325885Y-565136762D02*
X319230647Y-565232001D01*
X319230647Y-565232001D02*
X319087790Y-565279620D01*
X319087790Y-565279620D02*
X318992552Y-565279620D01*
X320373504Y-565279620D02*
X319802076Y-565279620D01*
X320087790Y-565279620D02*
X320087790Y-564279620D01*
X320087790Y-564279620D02*
X319992552Y-564422477D01*
X319992552Y-564422477D02*
X319897314Y-564517715D01*
X319897314Y-564517715D02*
X319802076Y-564565334D01*
X320706838Y-564279620D02*
X321325885Y-564279620D01*
X321325885Y-564279620D02*
X320992552Y-564660572D01*
X320992552Y-564660572D02*
X321135409Y-564660572D01*
X321135409Y-564660572D02*
X321230647Y-564708191D01*
X321230647Y-564708191D02*
X321278266Y-564755810D01*
X321278266Y-564755810D02*
X321325885Y-564851048D01*
X321325885Y-564851048D02*
X321325885Y-565089143D01*
X321325885Y-565089143D02*
X321278266Y-565184381D01*
X321278266Y-565184381D02*
X321230647Y-565232001D01*
X321230647Y-565232001D02*
X321135409Y-565279620D01*
X321135409Y-565279620D02*
X320849695Y-565279620D01*
X320849695Y-565279620D02*
X320754457Y-565232001D01*
X320754457Y-565232001D02*
X320706838Y-565184381D01*
X208228813Y-594588628D02*
X207228813Y-594588628D01*
X207228813Y-594588628D02*
X207228813Y-594350533D01*
X207228813Y-594350533D02*
X207276432Y-594207676D01*
X207276432Y-594207676D02*
X207371670Y-594112438D01*
X207371670Y-594112438D02*
X207466908Y-594064819D01*
X207466908Y-594064819D02*
X207657384Y-594017200D01*
X207657384Y-594017200D02*
X207800241Y-594017200D01*
X207800241Y-594017200D02*
X207990717Y-594064819D01*
X207990717Y-594064819D02*
X208085955Y-594112438D01*
X208085955Y-594112438D02*
X208181194Y-594207676D01*
X208181194Y-594207676D02*
X208228813Y-594350533D01*
X208228813Y-594350533D02*
X208228813Y-594588628D01*
X208228813Y-593064819D02*
X208228813Y-593636247D01*
X208228813Y-593350533D02*
X207228813Y-593350533D01*
X207228813Y-593350533D02*
X207371670Y-593445771D01*
X207371670Y-593445771D02*
X207466908Y-593541009D01*
X207466908Y-593541009D02*
X207514527Y-593636247D01*
X207228813Y-592731485D02*
X207228813Y-592112438D01*
X207228813Y-592112438D02*
X207609765Y-592445771D01*
X207609765Y-592445771D02*
X207609765Y-592302914D01*
X207609765Y-592302914D02*
X207657384Y-592207676D01*
X207657384Y-592207676D02*
X207705003Y-592160057D01*
X207705003Y-592160057D02*
X207800241Y-592112438D01*
X207800241Y-592112438D02*
X208038336Y-592112438D01*
X208038336Y-592112438D02*
X208133574Y-592160057D01*
X208133574Y-592160057D02*
X208181194Y-592207676D01*
X208181194Y-592207676D02*
X208228813Y-592302914D01*
X208228813Y-592302914D02*
X208228813Y-592588628D01*
X208228813Y-592588628D02*
X208181194Y-592683866D01*
X208181194Y-592683866D02*
X208133574Y-592731485D01*
X208228813Y-591160057D02*
X208228813Y-591731485D01*
X208228813Y-591445771D02*
X207228813Y-591445771D01*
X207228813Y-591445771D02*
X207371670Y-591541009D01*
X207371670Y-591541009D02*
X207466908Y-591636247D01*
X207466908Y-591636247D02*
X207514527Y-591731485D01*
X328278813Y-594538628D02*
X327278813Y-594538628D01*
X327278813Y-594538628D02*
X327278813Y-594300533D01*
X327278813Y-594300533D02*
X327326432Y-594157676D01*
X327326432Y-594157676D02*
X327421670Y-594062438D01*
X327421670Y-594062438D02*
X327516908Y-594014819D01*
X327516908Y-594014819D02*
X327707384Y-593967200D01*
X327707384Y-593967200D02*
X327850241Y-593967200D01*
X327850241Y-593967200D02*
X328040717Y-594014819D01*
X328040717Y-594014819D02*
X328135955Y-594062438D01*
X328135955Y-594062438D02*
X328231194Y-594157676D01*
X328231194Y-594157676D02*
X328278813Y-594300533D01*
X328278813Y-594300533D02*
X328278813Y-594538628D01*
X328278813Y-593014819D02*
X328278813Y-593586247D01*
X328278813Y-593300533D02*
X327278813Y-593300533D01*
X327278813Y-593300533D02*
X327421670Y-593395771D01*
X327421670Y-593395771D02*
X327516908Y-593491009D01*
X327516908Y-593491009D02*
X327564527Y-593586247D01*
X327374051Y-592633866D02*
X327326432Y-592586247D01*
X327326432Y-592586247D02*
X327278813Y-592491009D01*
X327278813Y-592491009D02*
X327278813Y-592252914D01*
X327278813Y-592252914D02*
X327326432Y-592157676D01*
X327326432Y-592157676D02*
X327374051Y-592110057D01*
X327374051Y-592110057D02*
X327469289Y-592062438D01*
X327469289Y-592062438D02*
X327564527Y-592062438D01*
X327564527Y-592062438D02*
X327707384Y-592110057D01*
X327707384Y-592110057D02*
X328278813Y-592681485D01*
X328278813Y-592681485D02*
X328278813Y-592062438D01*
X327278813Y-591729104D02*
X327278813Y-591062438D01*
X327278813Y-591062438D02*
X328278813Y-591491009D01*
X509357847Y-594508610D02*
X508357847Y-594508610D01*
X508357847Y-594508610D02*
X508357847Y-594270515D01*
X508357847Y-594270515D02*
X508405466Y-594127658D01*
X508405466Y-594127658D02*
X508500704Y-594032420D01*
X508500704Y-594032420D02*
X508595942Y-593984801D01*
X508595942Y-593984801D02*
X508786418Y-593937182D01*
X508786418Y-593937182D02*
X508929275Y-593937182D01*
X508929275Y-593937182D02*
X509119751Y-593984801D01*
X509119751Y-593984801D02*
X509214989Y-594032420D01*
X509214989Y-594032420D02*
X509310228Y-594127658D01*
X509310228Y-594127658D02*
X509357847Y-594270515D01*
X509357847Y-594270515D02*
X509357847Y-594508610D01*
X509357847Y-592984801D02*
X509357847Y-593556229D01*
X509357847Y-593270515D02*
X508357847Y-593270515D01*
X508357847Y-593270515D02*
X508500704Y-593365753D01*
X508500704Y-593365753D02*
X508595942Y-593460991D01*
X508595942Y-593460991D02*
X508643561Y-593556229D01*
X509357847Y-592032420D02*
X509357847Y-592603848D01*
X509357847Y-592318134D02*
X508357847Y-592318134D01*
X508357847Y-592318134D02*
X508500704Y-592413372D01*
X508500704Y-592413372D02*
X508595942Y-592508610D01*
X508595942Y-592508610D02*
X508643561Y-592603848D01*
X508357847Y-591699086D02*
X508357847Y-591032420D01*
X508357847Y-591032420D02*
X509357847Y-591460991D01*
X334473504Y-564179620D02*
X334473504Y-564893905D01*
X334473504Y-564893905D02*
X334425885Y-565036762D01*
X334425885Y-565036762D02*
X334330647Y-565132001D01*
X334330647Y-565132001D02*
X334187790Y-565179620D01*
X334187790Y-565179620D02*
X334092552Y-565179620D01*
X335473504Y-565179620D02*
X334902076Y-565179620D01*
X335187790Y-565179620D02*
X335187790Y-564179620D01*
X335187790Y-564179620D02*
X335092552Y-564322477D01*
X335092552Y-564322477D02*
X334997314Y-564417715D01*
X334997314Y-564417715D02*
X334902076Y-564465334D01*
X335854457Y-564274858D02*
X335902076Y-564227239D01*
X335902076Y-564227239D02*
X335997314Y-564179620D01*
X335997314Y-564179620D02*
X336235409Y-564179620D01*
X336235409Y-564179620D02*
X336330647Y-564227239D01*
X336330647Y-564227239D02*
X336378266Y-564274858D01*
X336378266Y-564274858D02*
X336425885Y-564370096D01*
X336425885Y-564370096D02*
X336425885Y-564465334D01*
X336425885Y-564465334D02*
X336378266Y-564608191D01*
X336378266Y-564608191D02*
X335806838Y-565179620D01*
X335806838Y-565179620D02*
X336425885Y-565179620D01*
X274373504Y-564279620D02*
X274373504Y-564993905D01*
X274373504Y-564993905D02*
X274325885Y-565136762D01*
X274325885Y-565136762D02*
X274230647Y-565232001D01*
X274230647Y-565232001D02*
X274087790Y-565279620D01*
X274087790Y-565279620D02*
X273992552Y-565279620D01*
X275373504Y-565279620D02*
X274802076Y-565279620D01*
X275087790Y-565279620D02*
X275087790Y-564279620D01*
X275087790Y-564279620D02*
X274992552Y-564422477D01*
X274992552Y-564422477D02*
X274897314Y-564517715D01*
X274897314Y-564517715D02*
X274802076Y-564565334D01*
X275992552Y-564279620D02*
X276087790Y-564279620D01*
X276087790Y-564279620D02*
X276183028Y-564327239D01*
X276183028Y-564327239D02*
X276230647Y-564374858D01*
X276230647Y-564374858D02*
X276278266Y-564470096D01*
X276278266Y-564470096D02*
X276325885Y-564660572D01*
X276325885Y-564660572D02*
X276325885Y-564898667D01*
X276325885Y-564898667D02*
X276278266Y-565089143D01*
X276278266Y-565089143D02*
X276230647Y-565184381D01*
X276230647Y-565184381D02*
X276183028Y-565232001D01*
X276183028Y-565232001D02*
X276087790Y-565279620D01*
X276087790Y-565279620D02*
X275992552Y-565279620D01*
X275992552Y-565279620D02*
X275897314Y-565232001D01*
X275897314Y-565232001D02*
X275849695Y-565184381D01*
X275849695Y-565184381D02*
X275802076Y-565089143D01*
X275802076Y-565089143D02*
X275754457Y-564898667D01*
X275754457Y-564898667D02*
X275754457Y-564660572D01*
X275754457Y-564660572D02*
X275802076Y-564470096D01*
X275802076Y-564470096D02*
X275849695Y-564374858D01*
X275849695Y-564374858D02*
X275897314Y-564327239D01*
X275897314Y-564327239D02*
X275992552Y-564279620D01*
X563057847Y-595308610D02*
X562057847Y-595308610D01*
X562057847Y-595308610D02*
X562057847Y-595070515D01*
X562057847Y-595070515D02*
X562105466Y-594927658D01*
X562105466Y-594927658D02*
X562200704Y-594832420D01*
X562200704Y-594832420D02*
X562295942Y-594784801D01*
X562295942Y-594784801D02*
X562486418Y-594737182D01*
X562486418Y-594737182D02*
X562629275Y-594737182D01*
X562629275Y-594737182D02*
X562819751Y-594784801D01*
X562819751Y-594784801D02*
X562914989Y-594832420D01*
X562914989Y-594832420D02*
X563010228Y-594927658D01*
X563010228Y-594927658D02*
X563057847Y-595070515D01*
X563057847Y-595070515D02*
X563057847Y-595308610D01*
X563057847Y-593784801D02*
X563057847Y-594356229D01*
X563057847Y-594070515D02*
X562057847Y-594070515D01*
X562057847Y-594070515D02*
X562200704Y-594165753D01*
X562200704Y-594165753D02*
X562295942Y-594260991D01*
X562295942Y-594260991D02*
X562343561Y-594356229D01*
X563057847Y-592832420D02*
X563057847Y-593403848D01*
X563057847Y-593118134D02*
X562057847Y-593118134D01*
X562057847Y-593118134D02*
X562200704Y-593213372D01*
X562200704Y-593213372D02*
X562295942Y-593308610D01*
X562295942Y-593308610D02*
X562343561Y-593403848D01*
X563057847Y-592356229D02*
X563057847Y-592165753D01*
X563057847Y-592165753D02*
X563010228Y-592070515D01*
X563010228Y-592070515D02*
X562962608Y-592022896D01*
X562962608Y-592022896D02*
X562819751Y-591927658D01*
X562819751Y-591927658D02*
X562629275Y-591880039D01*
X562629275Y-591880039D02*
X562248323Y-591880039D01*
X562248323Y-591880039D02*
X562153085Y-591927658D01*
X562153085Y-591927658D02*
X562105466Y-591975277D01*
X562105466Y-591975277D02*
X562057847Y-592070515D01*
X562057847Y-592070515D02*
X562057847Y-592260991D01*
X562057847Y-592260991D02*
X562105466Y-592356229D01*
X562105466Y-592356229D02*
X562153085Y-592403848D01*
X562153085Y-592403848D02*
X562248323Y-592451467D01*
X562248323Y-592451467D02*
X562486418Y-592451467D01*
X562486418Y-592451467D02*
X562581656Y-592403848D01*
X562581656Y-592403848D02*
X562629275Y-592356229D01*
X562629275Y-592356229D02*
X562676894Y-592260991D01*
X562676894Y-592260991D02*
X562676894Y-592070515D01*
X562676894Y-592070515D02*
X562629275Y-591975277D01*
X562629275Y-591975277D02*
X562581656Y-591927658D01*
X562581656Y-591927658D02*
X562486418Y-591880039D01*
X268328813Y-594488628D02*
X267328813Y-594488628D01*
X267328813Y-594488628D02*
X267328813Y-594250533D01*
X267328813Y-594250533D02*
X267376432Y-594107676D01*
X267376432Y-594107676D02*
X267471670Y-594012438D01*
X267471670Y-594012438D02*
X267566908Y-593964819D01*
X267566908Y-593964819D02*
X267757384Y-593917200D01*
X267757384Y-593917200D02*
X267900241Y-593917200D01*
X267900241Y-593917200D02*
X268090717Y-593964819D01*
X268090717Y-593964819D02*
X268185955Y-594012438D01*
X268185955Y-594012438D02*
X268281194Y-594107676D01*
X268281194Y-594107676D02*
X268328813Y-594250533D01*
X268328813Y-594250533D02*
X268328813Y-594488628D01*
X268328813Y-592964819D02*
X268328813Y-593536247D01*
X268328813Y-593250533D02*
X267328813Y-593250533D01*
X267328813Y-593250533D02*
X267471670Y-593345771D01*
X267471670Y-593345771D02*
X267566908Y-593441009D01*
X267566908Y-593441009D02*
X267614527Y-593536247D01*
X267424051Y-592583866D02*
X267376432Y-592536247D01*
X267376432Y-592536247D02*
X267328813Y-592441009D01*
X267328813Y-592441009D02*
X267328813Y-592202914D01*
X267328813Y-592202914D02*
X267376432Y-592107676D01*
X267376432Y-592107676D02*
X267424051Y-592060057D01*
X267424051Y-592060057D02*
X267519289Y-592012438D01*
X267519289Y-592012438D02*
X267614527Y-592012438D01*
X267614527Y-592012438D02*
X267757384Y-592060057D01*
X267757384Y-592060057D02*
X268328813Y-592631485D01*
X268328813Y-592631485D02*
X268328813Y-592012438D01*
X267328813Y-591393390D02*
X267328813Y-591298152D01*
X267328813Y-591298152D02*
X267376432Y-591202914D01*
X267376432Y-591202914D02*
X267424051Y-591155295D01*
X267424051Y-591155295D02*
X267519289Y-591107676D01*
X267519289Y-591107676D02*
X267709765Y-591060057D01*
X267709765Y-591060057D02*
X267947860Y-591060057D01*
X267947860Y-591060057D02*
X268138336Y-591107676D01*
X268138336Y-591107676D02*
X268233574Y-591155295D01*
X268233574Y-591155295D02*
X268281194Y-591202914D01*
X268281194Y-591202914D02*
X268328813Y-591298152D01*
X268328813Y-591298152D02*
X268328813Y-591393390D01*
X268328813Y-591393390D02*
X268281194Y-591488628D01*
X268281194Y-591488628D02*
X268233574Y-591536247D01*
X268233574Y-591536247D02*
X268138336Y-591583866D01*
X268138336Y-591583866D02*
X267947860Y-591631485D01*
X267947860Y-591631485D02*
X267709765Y-591631485D01*
X267709765Y-591631485D02*
X267519289Y-591583866D01*
X267519289Y-591583866D02*
X267424051Y-591536247D01*
X267424051Y-591536247D02*
X267376432Y-591488628D01*
X267376432Y-591488628D02*
X267328813Y-591393390D01*
X271028813Y-587583867D02*
X271743098Y-587583867D01*
X271743098Y-587583867D02*
X271885955Y-587631486D01*
X271885955Y-587631486D02*
X271981194Y-587726724D01*
X271981194Y-587726724D02*
X272028813Y-587869581D01*
X272028813Y-587869581D02*
X272028813Y-587964819D01*
X272028813Y-586583867D02*
X272028813Y-587155295D01*
X272028813Y-586869581D02*
X271028813Y-586869581D01*
X271028813Y-586869581D02*
X271171670Y-586964819D01*
X271171670Y-586964819D02*
X271266908Y-587060057D01*
X271266908Y-587060057D02*
X271314527Y-587155295D01*
X272028813Y-585631486D02*
X272028813Y-586202914D01*
X272028813Y-585917200D02*
X271028813Y-585917200D01*
X271028813Y-585917200D02*
X271171670Y-586012438D01*
X271171670Y-586012438D02*
X271266908Y-586107676D01*
X271266908Y-586107676D02*
X271314527Y-586202914D01*
X272028813Y-584679105D02*
X272028813Y-585250533D01*
X272028813Y-584964819D02*
X271028813Y-584964819D01*
X271028813Y-584964819D02*
X271171670Y-585060057D01*
X271171670Y-585060057D02*
X271266908Y-585155295D01*
X271266908Y-585155295D02*
X271314527Y-585250533D01*
X559649694Y-563979620D02*
X559649694Y-564693905D01*
X559649694Y-564693905D02*
X559602075Y-564836762D01*
X559602075Y-564836762D02*
X559506837Y-564932001D01*
X559506837Y-564932001D02*
X559363980Y-564979620D01*
X559363980Y-564979620D02*
X559268742Y-564979620D01*
X560554456Y-564312953D02*
X560554456Y-564979620D01*
X560316361Y-563932001D02*
X560078266Y-564646286D01*
X560078266Y-564646286D02*
X560697313Y-564646286D01*
X142078813Y-594438628D02*
X141078813Y-594438628D01*
X141078813Y-594438628D02*
X141078813Y-594200533D01*
X141078813Y-594200533D02*
X141126432Y-594057676D01*
X141126432Y-594057676D02*
X141221670Y-593962438D01*
X141221670Y-593962438D02*
X141316908Y-593914819D01*
X141316908Y-593914819D02*
X141507384Y-593867200D01*
X141507384Y-593867200D02*
X141650241Y-593867200D01*
X141650241Y-593867200D02*
X141840717Y-593914819D01*
X141840717Y-593914819D02*
X141935955Y-593962438D01*
X141935955Y-593962438D02*
X142031194Y-594057676D01*
X142031194Y-594057676D02*
X142078813Y-594200533D01*
X142078813Y-594200533D02*
X142078813Y-594438628D01*
X142078813Y-592914819D02*
X142078813Y-593486247D01*
X142078813Y-593200533D02*
X141078813Y-593200533D01*
X141078813Y-593200533D02*
X141221670Y-593295771D01*
X141221670Y-593295771D02*
X141316908Y-593391009D01*
X141316908Y-593391009D02*
X141364527Y-593486247D01*
X141174051Y-592533866D02*
X141126432Y-592486247D01*
X141126432Y-592486247D02*
X141078813Y-592391009D01*
X141078813Y-592391009D02*
X141078813Y-592152914D01*
X141078813Y-592152914D02*
X141126432Y-592057676D01*
X141126432Y-592057676D02*
X141174051Y-592010057D01*
X141174051Y-592010057D02*
X141269289Y-591962438D01*
X141269289Y-591962438D02*
X141364527Y-591962438D01*
X141364527Y-591962438D02*
X141507384Y-592010057D01*
X141507384Y-592010057D02*
X142078813Y-592581485D01*
X142078813Y-592581485D02*
X142078813Y-591962438D01*
X141412146Y-591105295D02*
X142078813Y-591105295D01*
X141031194Y-591343390D02*
X141745479Y-591581485D01*
X141745479Y-591581485D02*
X141745479Y-590962438D01*
X125207847Y-556663849D02*
X125922132Y-556663849D01*
X125922132Y-556663849D02*
X126064989Y-556711468D01*
X126064989Y-556711468D02*
X126160228Y-556806706D01*
X126160228Y-556806706D02*
X126207847Y-556949563D01*
X126207847Y-556949563D02*
X126207847Y-557044801D01*
X125303085Y-556235277D02*
X125255466Y-556187658D01*
X125255466Y-556187658D02*
X125207847Y-556092420D01*
X125207847Y-556092420D02*
X125207847Y-555854325D01*
X125207847Y-555854325D02*
X125255466Y-555759087D01*
X125255466Y-555759087D02*
X125303085Y-555711468D01*
X125303085Y-555711468D02*
X125398323Y-555663849D01*
X125398323Y-555663849D02*
X125493561Y-555663849D01*
X125493561Y-555663849D02*
X125636418Y-555711468D01*
X125636418Y-555711468D02*
X126207847Y-556282896D01*
X126207847Y-556282896D02*
X126207847Y-555663849D01*
X125207847Y-555044801D02*
X125207847Y-554949563D01*
X125207847Y-554949563D02*
X125255466Y-554854325D01*
X125255466Y-554854325D02*
X125303085Y-554806706D01*
X125303085Y-554806706D02*
X125398323Y-554759087D01*
X125398323Y-554759087D02*
X125588799Y-554711468D01*
X125588799Y-554711468D02*
X125826894Y-554711468D01*
X125826894Y-554711468D02*
X126017370Y-554759087D01*
X126017370Y-554759087D02*
X126112608Y-554806706D01*
X126112608Y-554806706D02*
X126160228Y-554854325D01*
X126160228Y-554854325D02*
X126207847Y-554949563D01*
X126207847Y-554949563D02*
X126207847Y-555044801D01*
X126207847Y-555044801D02*
X126160228Y-555140039D01*
X126160228Y-555140039D02*
X126112608Y-555187658D01*
X126112608Y-555187658D02*
X126017370Y-555235277D01*
X126017370Y-555235277D02*
X125826894Y-555282896D01*
X125826894Y-555282896D02*
X125588799Y-555282896D01*
X125588799Y-555282896D02*
X125398323Y-555235277D01*
X125398323Y-555235277D02*
X125303085Y-555187658D01*
X125303085Y-555187658D02*
X125255466Y-555140039D01*
X125255466Y-555140039D02*
X125207847Y-555044801D01*
X125207847Y-554378134D02*
X125207847Y-553759087D01*
X125207847Y-553759087D02*
X125588799Y-554092420D01*
X125588799Y-554092420D02*
X125588799Y-553949563D01*
X125588799Y-553949563D02*
X125636418Y-553854325D01*
X125636418Y-553854325D02*
X125684037Y-553806706D01*
X125684037Y-553806706D02*
X125779275Y-553759087D01*
X125779275Y-553759087D02*
X126017370Y-553759087D01*
X126017370Y-553759087D02*
X126112608Y-553806706D01*
X126112608Y-553806706D02*
X126160228Y-553854325D01*
X126160228Y-553854325D02*
X126207847Y-553949563D01*
X126207847Y-553949563D02*
X126207847Y-554235277D01*
X126207847Y-554235277D02*
X126160228Y-554330515D01*
X126160228Y-554330515D02*
X126112608Y-554378134D01*
X511717847Y-587323849D02*
X512432132Y-587323849D01*
X512432132Y-587323849D02*
X512574989Y-587371468D01*
X512574989Y-587371468D02*
X512670228Y-587466706D01*
X512670228Y-587466706D02*
X512717847Y-587609563D01*
X512717847Y-587609563D02*
X512717847Y-587704801D01*
X512717847Y-586323849D02*
X512717847Y-586895277D01*
X512717847Y-586609563D02*
X511717847Y-586609563D01*
X511717847Y-586609563D02*
X511860704Y-586704801D01*
X511860704Y-586704801D02*
X511955942Y-586800039D01*
X511955942Y-586800039D02*
X512003561Y-586895277D01*
X512717847Y-585371468D02*
X512717847Y-585942896D01*
X512717847Y-585657182D02*
X511717847Y-585657182D01*
X511717847Y-585657182D02*
X511860704Y-585752420D01*
X511860704Y-585752420D02*
X511955942Y-585847658D01*
X511955942Y-585847658D02*
X512003561Y-585942896D01*
X511717847Y-584466706D02*
X511717847Y-584942896D01*
X511717847Y-584942896D02*
X512194037Y-584990515D01*
X512194037Y-584990515D02*
X512146418Y-584942896D01*
X512146418Y-584942896D02*
X512098799Y-584847658D01*
X512098799Y-584847658D02*
X512098799Y-584609563D01*
X512098799Y-584609563D02*
X512146418Y-584514325D01*
X512146418Y-584514325D02*
X512194037Y-584466706D01*
X512194037Y-584466706D02*
X512289275Y-584419087D01*
X512289275Y-584419087D02*
X512527370Y-584419087D01*
X512527370Y-584419087D02*
X512622608Y-584466706D01*
X512622608Y-584466706D02*
X512670228Y-584514325D01*
X512670228Y-584514325D02*
X512717847Y-584609563D01*
X512717847Y-584609563D02*
X512717847Y-584847658D01*
X512717847Y-584847658D02*
X512670228Y-584942896D01*
X512670228Y-584942896D02*
X512622608Y-584990515D01*
X171347313Y-601632954D02*
X171347313Y-602347239D01*
X171347313Y-602347239D02*
X171299694Y-602490096D01*
X171299694Y-602490096D02*
X171204456Y-602585335D01*
X171204456Y-602585335D02*
X171061599Y-602632954D01*
X171061599Y-602632954D02*
X170966361Y-602632954D01*
X172347313Y-602632954D02*
X171775885Y-602632954D01*
X172061599Y-602632954D02*
X172061599Y-601632954D01*
X172061599Y-601632954D02*
X171966361Y-601775811D01*
X171966361Y-601775811D02*
X171871123Y-601871049D01*
X171871123Y-601871049D02*
X171775885Y-601918668D01*
X173299694Y-602632954D02*
X172728266Y-602632954D01*
X173013980Y-602632954D02*
X173013980Y-601632954D01*
X173013980Y-601632954D02*
X172918742Y-601775811D01*
X172918742Y-601775811D02*
X172823504Y-601871049D01*
X172823504Y-601871049D02*
X172728266Y-601918668D01*
X173871123Y-602061525D02*
X173775885Y-602013906D01*
X173775885Y-602013906D02*
X173728266Y-601966287D01*
X173728266Y-601966287D02*
X173680647Y-601871049D01*
X173680647Y-601871049D02*
X173680647Y-601823430D01*
X173680647Y-601823430D02*
X173728266Y-601728192D01*
X173728266Y-601728192D02*
X173775885Y-601680573D01*
X173775885Y-601680573D02*
X173871123Y-601632954D01*
X173871123Y-601632954D02*
X174061599Y-601632954D01*
X174061599Y-601632954D02*
X174156837Y-601680573D01*
X174156837Y-601680573D02*
X174204456Y-601728192D01*
X174204456Y-601728192D02*
X174252075Y-601823430D01*
X174252075Y-601823430D02*
X174252075Y-601871049D01*
X174252075Y-601871049D02*
X174204456Y-601966287D01*
X174204456Y-601966287D02*
X174156837Y-602013906D01*
X174156837Y-602013906D02*
X174061599Y-602061525D01*
X174061599Y-602061525D02*
X173871123Y-602061525D01*
X173871123Y-602061525D02*
X173775885Y-602109144D01*
X173775885Y-602109144D02*
X173728266Y-602156763D01*
X173728266Y-602156763D02*
X173680647Y-602252001D01*
X173680647Y-602252001D02*
X173680647Y-602442477D01*
X173680647Y-602442477D02*
X173728266Y-602537715D01*
X173728266Y-602537715D02*
X173775885Y-602585335D01*
X173775885Y-602585335D02*
X173871123Y-602632954D01*
X173871123Y-602632954D02*
X174061599Y-602632954D01*
X174061599Y-602632954D02*
X174156837Y-602585335D01*
X174156837Y-602585335D02*
X174204456Y-602537715D01*
X174204456Y-602537715D02*
X174252075Y-602442477D01*
X174252075Y-602442477D02*
X174252075Y-602252001D01*
X174252075Y-602252001D02*
X174204456Y-602156763D01*
X174204456Y-602156763D02*
X174156837Y-602109144D01*
X174156837Y-602109144D02*
X174061599Y-602061525D01*
X141867847Y-550303849D02*
X142582132Y-550303849D01*
X142582132Y-550303849D02*
X142724989Y-550351468D01*
X142724989Y-550351468D02*
X142820228Y-550446706D01*
X142820228Y-550446706D02*
X142867847Y-550589563D01*
X142867847Y-550589563D02*
X142867847Y-550684801D01*
X142867847Y-549827658D02*
X141867847Y-549827658D01*
X141867847Y-549827658D02*
X141867847Y-549446706D01*
X141867847Y-549446706D02*
X141915466Y-549351468D01*
X141915466Y-549351468D02*
X141963085Y-549303849D01*
X141963085Y-549303849D02*
X142058323Y-549256230D01*
X142058323Y-549256230D02*
X142201180Y-549256230D01*
X142201180Y-549256230D02*
X142296418Y-549303849D01*
X142296418Y-549303849D02*
X142344037Y-549351468D01*
X142344037Y-549351468D02*
X142391656Y-549446706D01*
X142391656Y-549446706D02*
X142391656Y-549827658D01*
X141963085Y-548875277D02*
X141915466Y-548827658D01*
X141915466Y-548827658D02*
X141867847Y-548732420D01*
X141867847Y-548732420D02*
X141867847Y-548494325D01*
X141867847Y-548494325D02*
X141915466Y-548399087D01*
X141915466Y-548399087D02*
X141963085Y-548351468D01*
X141963085Y-548351468D02*
X142058323Y-548303849D01*
X142058323Y-548303849D02*
X142153561Y-548303849D01*
X142153561Y-548303849D02*
X142296418Y-548351468D01*
X142296418Y-548351468D02*
X142867847Y-548922896D01*
X142867847Y-548922896D02*
X142867847Y-548303849D01*
X141867847Y-547684801D02*
X141867847Y-547589563D01*
X141867847Y-547589563D02*
X141915466Y-547494325D01*
X141915466Y-547494325D02*
X141963085Y-547446706D01*
X141963085Y-547446706D02*
X142058323Y-547399087D01*
X142058323Y-547399087D02*
X142248799Y-547351468D01*
X142248799Y-547351468D02*
X142486894Y-547351468D01*
X142486894Y-547351468D02*
X142677370Y-547399087D01*
X142677370Y-547399087D02*
X142772608Y-547446706D01*
X142772608Y-547446706D02*
X142820228Y-547494325D01*
X142820228Y-547494325D02*
X142867847Y-547589563D01*
X142867847Y-547589563D02*
X142867847Y-547684801D01*
X142867847Y-547684801D02*
X142820228Y-547780039D01*
X142820228Y-547780039D02*
X142772608Y-547827658D01*
X142772608Y-547827658D02*
X142677370Y-547875277D01*
X142677370Y-547875277D02*
X142486894Y-547922896D01*
X142486894Y-547922896D02*
X142248799Y-547922896D01*
X142248799Y-547922896D02*
X142058323Y-547875277D01*
X142058323Y-547875277D02*
X141963085Y-547827658D01*
X141963085Y-547827658D02*
X141915466Y-547780039D01*
X141915466Y-547780039D02*
X141867847Y-547684801D01*
X141963085Y-546970515D02*
X141915466Y-546922896D01*
X141915466Y-546922896D02*
X141867847Y-546827658D01*
X141867847Y-546827658D02*
X141867847Y-546589563D01*
X141867847Y-546589563D02*
X141915466Y-546494325D01*
X141915466Y-546494325D02*
X141963085Y-546446706D01*
X141963085Y-546446706D02*
X142058323Y-546399087D01*
X142058323Y-546399087D02*
X142153561Y-546399087D01*
X142153561Y-546399087D02*
X142296418Y-546446706D01*
X142296418Y-546446706D02*
X142867847Y-547018134D01*
X142867847Y-547018134D02*
X142867847Y-546399087D01*
X514899694Y-564079620D02*
X514899694Y-564793905D01*
X514899694Y-564793905D02*
X514852075Y-564936762D01*
X514852075Y-564936762D02*
X514756837Y-565032001D01*
X514756837Y-565032001D02*
X514613980Y-565079620D01*
X514613980Y-565079620D02*
X514518742Y-565079620D01*
X515852075Y-564079620D02*
X515375885Y-564079620D01*
X515375885Y-564079620D02*
X515328266Y-564555810D01*
X515328266Y-564555810D02*
X515375885Y-564508191D01*
X515375885Y-564508191D02*
X515471123Y-564460572D01*
X515471123Y-564460572D02*
X515709218Y-564460572D01*
X515709218Y-564460572D02*
X515804456Y-564508191D01*
X515804456Y-564508191D02*
X515852075Y-564555810D01*
X515852075Y-564555810D02*
X515899694Y-564651048D01*
X515899694Y-564651048D02*
X515899694Y-564889143D01*
X515899694Y-564889143D02*
X515852075Y-564984381D01*
X515852075Y-564984381D02*
X515804456Y-565032001D01*
X515804456Y-565032001D02*
X515709218Y-565079620D01*
X515709218Y-565079620D02*
X515471123Y-565079620D01*
X515471123Y-565079620D02*
X515375885Y-565032001D01*
X515375885Y-565032001D02*
X515328266Y-564984381D01*
X212087847Y-587233849D02*
X212802132Y-587233849D01*
X212802132Y-587233849D02*
X212944989Y-587281468D01*
X212944989Y-587281468D02*
X213040228Y-587376706D01*
X213040228Y-587376706D02*
X213087847Y-587519563D01*
X213087847Y-587519563D02*
X213087847Y-587614801D01*
X213087847Y-586233849D02*
X213087847Y-586805277D01*
X213087847Y-586519563D02*
X212087847Y-586519563D01*
X212087847Y-586519563D02*
X212230704Y-586614801D01*
X212230704Y-586614801D02*
X212325942Y-586710039D01*
X212325942Y-586710039D02*
X212373561Y-586805277D01*
X213087847Y-585281468D02*
X213087847Y-585852896D01*
X213087847Y-585567182D02*
X212087847Y-585567182D01*
X212087847Y-585567182D02*
X212230704Y-585662420D01*
X212230704Y-585662420D02*
X212325942Y-585757658D01*
X212325942Y-585757658D02*
X212373561Y-585852896D01*
X212087847Y-584662420D02*
X212087847Y-584567182D01*
X212087847Y-584567182D02*
X212135466Y-584471944D01*
X212135466Y-584471944D02*
X212183085Y-584424325D01*
X212183085Y-584424325D02*
X212278323Y-584376706D01*
X212278323Y-584376706D02*
X212468799Y-584329087D01*
X212468799Y-584329087D02*
X212706894Y-584329087D01*
X212706894Y-584329087D02*
X212897370Y-584376706D01*
X212897370Y-584376706D02*
X212992608Y-584424325D01*
X212992608Y-584424325D02*
X213040228Y-584471944D01*
X213040228Y-584471944D02*
X213087847Y-584567182D01*
X213087847Y-584567182D02*
X213087847Y-584662420D01*
X213087847Y-584662420D02*
X213040228Y-584757658D01*
X213040228Y-584757658D02*
X212992608Y-584805277D01*
X212992608Y-584805277D02*
X212897370Y-584852896D01*
X212897370Y-584852896D02*
X212706894Y-584900515D01*
X212706894Y-584900515D02*
X212468799Y-584900515D01*
X212468799Y-584900515D02*
X212278323Y-584852896D01*
X212278323Y-584852896D02*
X212183085Y-584805277D01*
X212183085Y-584805277D02*
X212135466Y-584757658D01*
X212135466Y-584757658D02*
X212087847Y-584662420D01*
X214323504Y-564279620D02*
X214323504Y-564993905D01*
X214323504Y-564993905D02*
X214275885Y-565136762D01*
X214275885Y-565136762D02*
X214180647Y-565232001D01*
X214180647Y-565232001D02*
X214037790Y-565279620D01*
X214037790Y-565279620D02*
X213942552Y-565279620D01*
X215323504Y-565279620D02*
X214752076Y-565279620D01*
X215037790Y-565279620D02*
X215037790Y-564279620D01*
X215037790Y-564279620D02*
X214942552Y-564422477D01*
X214942552Y-564422477D02*
X214847314Y-564517715D01*
X214847314Y-564517715D02*
X214752076Y-564565334D01*
X216180647Y-564279620D02*
X215990171Y-564279620D01*
X215990171Y-564279620D02*
X215894933Y-564327239D01*
X215894933Y-564327239D02*
X215847314Y-564374858D01*
X215847314Y-564374858D02*
X215752076Y-564517715D01*
X215752076Y-564517715D02*
X215704457Y-564708191D01*
X215704457Y-564708191D02*
X215704457Y-565089143D01*
X215704457Y-565089143D02*
X215752076Y-565184381D01*
X215752076Y-565184381D02*
X215799695Y-565232001D01*
X215799695Y-565232001D02*
X215894933Y-565279620D01*
X215894933Y-565279620D02*
X216085409Y-565279620D01*
X216085409Y-565279620D02*
X216180647Y-565232001D01*
X216180647Y-565232001D02*
X216228266Y-565184381D01*
X216228266Y-565184381D02*
X216275885Y-565089143D01*
X216275885Y-565089143D02*
X216275885Y-564851048D01*
X216275885Y-564851048D02*
X216228266Y-564755810D01*
X216228266Y-564755810D02*
X216180647Y-564708191D01*
X216180647Y-564708191D02*
X216085409Y-564660572D01*
X216085409Y-564660572D02*
X215894933Y-564660572D01*
X215894933Y-564660572D02*
X215799695Y-564708191D01*
X215799695Y-564708191D02*
X215752076Y-564755810D01*
X215752076Y-564755810D02*
X215704457Y-564851048D01*
X388178813Y-594338628D02*
X387178813Y-594338628D01*
X387178813Y-594338628D02*
X387178813Y-594100533D01*
X387178813Y-594100533D02*
X387226432Y-593957676D01*
X387226432Y-593957676D02*
X387321670Y-593862438D01*
X387321670Y-593862438D02*
X387416908Y-593814819D01*
X387416908Y-593814819D02*
X387607384Y-593767200D01*
X387607384Y-593767200D02*
X387750241Y-593767200D01*
X387750241Y-593767200D02*
X387940717Y-593814819D01*
X387940717Y-593814819D02*
X388035955Y-593862438D01*
X388035955Y-593862438D02*
X388131194Y-593957676D01*
X388131194Y-593957676D02*
X388178813Y-594100533D01*
X388178813Y-594100533D02*
X388178813Y-594338628D01*
X388178813Y-592814819D02*
X388178813Y-593386247D01*
X388178813Y-593100533D02*
X387178813Y-593100533D01*
X387178813Y-593100533D02*
X387321670Y-593195771D01*
X387321670Y-593195771D02*
X387416908Y-593291009D01*
X387416908Y-593291009D02*
X387464527Y-593386247D01*
X387274051Y-592433866D02*
X387226432Y-592386247D01*
X387226432Y-592386247D02*
X387178813Y-592291009D01*
X387178813Y-592291009D02*
X387178813Y-592052914D01*
X387178813Y-592052914D02*
X387226432Y-591957676D01*
X387226432Y-591957676D02*
X387274051Y-591910057D01*
X387274051Y-591910057D02*
X387369289Y-591862438D01*
X387369289Y-591862438D02*
X387464527Y-591862438D01*
X387464527Y-591862438D02*
X387607384Y-591910057D01*
X387607384Y-591910057D02*
X388178813Y-592481485D01*
X388178813Y-592481485D02*
X388178813Y-591862438D01*
X388178813Y-590910057D02*
X388178813Y-591481485D01*
X388178813Y-591195771D02*
X387178813Y-591195771D01*
X387178813Y-591195771D02*
X387321670Y-591291009D01*
X387321670Y-591291009D02*
X387416908Y-591386247D01*
X387416908Y-591386247D02*
X387464527Y-591481485D01*
X154323504Y-564379620D02*
X154323504Y-565093905D01*
X154323504Y-565093905D02*
X154275885Y-565236762D01*
X154275885Y-565236762D02*
X154180647Y-565332001D01*
X154180647Y-565332001D02*
X154037790Y-565379620D01*
X154037790Y-565379620D02*
X153942552Y-565379620D01*
X155323504Y-565379620D02*
X154752076Y-565379620D01*
X155037790Y-565379620D02*
X155037790Y-564379620D01*
X155037790Y-564379620D02*
X154942552Y-564522477D01*
X154942552Y-564522477D02*
X154847314Y-564617715D01*
X154847314Y-564617715D02*
X154752076Y-564665334D01*
X156180647Y-564712953D02*
X156180647Y-565379620D01*
X155942552Y-564332001D02*
X155704457Y-565046286D01*
X155704457Y-565046286D02*
X156323504Y-565046286D01*
X499949694Y-564079620D02*
X499949694Y-564793905D01*
X499949694Y-564793905D02*
X499902075Y-564936762D01*
X499902075Y-564936762D02*
X499806837Y-565032001D01*
X499806837Y-565032001D02*
X499663980Y-565079620D01*
X499663980Y-565079620D02*
X499568742Y-565079620D01*
X500854456Y-564079620D02*
X500663980Y-564079620D01*
X500663980Y-564079620D02*
X500568742Y-564127239D01*
X500568742Y-564127239D02*
X500521123Y-564174858D01*
X500521123Y-564174858D02*
X500425885Y-564317715D01*
X500425885Y-564317715D02*
X500378266Y-564508191D01*
X500378266Y-564508191D02*
X500378266Y-564889143D01*
X500378266Y-564889143D02*
X500425885Y-564984381D01*
X500425885Y-564984381D02*
X500473504Y-565032001D01*
X500473504Y-565032001D02*
X500568742Y-565079620D01*
X500568742Y-565079620D02*
X500759218Y-565079620D01*
X500759218Y-565079620D02*
X500854456Y-565032001D01*
X500854456Y-565032001D02*
X500902075Y-564984381D01*
X500902075Y-564984381D02*
X500949694Y-564889143D01*
X500949694Y-564889143D02*
X500949694Y-564651048D01*
X500949694Y-564651048D02*
X500902075Y-564555810D01*
X500902075Y-564555810D02*
X500854456Y-564508191D01*
X500854456Y-564508191D02*
X500759218Y-564460572D01*
X500759218Y-564460572D02*
X500568742Y-564460572D01*
X500568742Y-564460572D02*
X500473504Y-564508191D01*
X500473504Y-564508191D02*
X500425885Y-564555810D01*
X500425885Y-564555810D02*
X500378266Y-564651048D01*
X392067847Y-587333849D02*
X392782132Y-587333849D01*
X392782132Y-587333849D02*
X392924989Y-587381468D01*
X392924989Y-587381468D02*
X393020228Y-587476706D01*
X393020228Y-587476706D02*
X393067847Y-587619563D01*
X393067847Y-587619563D02*
X393067847Y-587714801D01*
X393067847Y-586333849D02*
X393067847Y-586905277D01*
X393067847Y-586619563D02*
X392067847Y-586619563D01*
X392067847Y-586619563D02*
X392210704Y-586714801D01*
X392210704Y-586714801D02*
X392305942Y-586810039D01*
X392305942Y-586810039D02*
X392353561Y-586905277D01*
X393067847Y-585381468D02*
X393067847Y-585952896D01*
X393067847Y-585667182D02*
X392067847Y-585667182D01*
X392067847Y-585667182D02*
X392210704Y-585762420D01*
X392210704Y-585762420D02*
X392305942Y-585857658D01*
X392305942Y-585857658D02*
X392353561Y-585952896D01*
X392067847Y-585048134D02*
X392067847Y-584429087D01*
X392067847Y-584429087D02*
X392448799Y-584762420D01*
X392448799Y-584762420D02*
X392448799Y-584619563D01*
X392448799Y-584619563D02*
X392496418Y-584524325D01*
X392496418Y-584524325D02*
X392544037Y-584476706D01*
X392544037Y-584476706D02*
X392639275Y-584429087D01*
X392639275Y-584429087D02*
X392877370Y-584429087D01*
X392877370Y-584429087D02*
X392972608Y-584476706D01*
X392972608Y-584476706D02*
X393020228Y-584524325D01*
X393020228Y-584524325D02*
X393067847Y-584619563D01*
X393067847Y-584619563D02*
X393067847Y-584905277D01*
X393067847Y-584905277D02*
X393020228Y-585000515D01*
X393020228Y-585000515D02*
X392972608Y-585048134D01*
D11*
%TO.C,J8*%
X432643710Y-578864801D02*
X432643710Y-580104801D01*
X432643710Y-580104801D02*
X433643710Y-580104801D01*
X432883710Y-565624801D02*
X432883710Y-579864801D01*
X432883710Y-565624801D02*
X445424710Y-565624801D01*
X432883710Y-570244801D02*
X435273710Y-570244801D01*
X432883710Y-573044801D02*
X445424710Y-573044801D01*
X432883710Y-578744801D02*
X445424710Y-578744801D01*
X432883710Y-579864801D02*
X445424710Y-579864801D01*
X434503710Y-565744801D02*
X434503710Y-579744801D01*
X434503710Y-565744801D02*
X439503710Y-565744801D01*
X434503710Y-579744801D02*
X439503710Y-579744801D01*
X435003710Y-573444801D02*
X435003710Y-574444801D01*
X435003710Y-573444801D02*
X439003710Y-573444801D01*
X435003710Y-574444801D02*
X435273710Y-574444801D01*
X435003710Y-575144801D02*
X435003710Y-578444801D01*
X435003710Y-575144801D02*
X435273710Y-575144801D01*
X435003710Y-578444801D02*
X439003710Y-578444801D01*
X436503710Y-566094801D02*
X436503710Y-568593801D01*
X436503710Y-566094801D02*
X437503710Y-566094801D01*
X436503710Y-568593801D02*
X437503710Y-568593801D01*
X437503710Y-566094801D02*
X437503710Y-568593801D01*
X437733710Y-570244801D02*
X440273710Y-570244801D01*
X437733710Y-574444801D02*
X439003710Y-574444801D01*
X437733710Y-575144801D02*
X439003710Y-575144801D01*
X439003710Y-573444801D02*
X439003710Y-574444801D01*
X439003710Y-575144801D02*
X439003710Y-578444801D01*
X439503710Y-565744801D02*
X439503710Y-579744801D01*
X439503710Y-565744801D02*
X439503710Y-579744801D01*
X439503710Y-565744801D02*
X444503710Y-565744801D01*
X439503710Y-579744801D02*
X444503710Y-579744801D01*
X440003710Y-573444801D02*
X440003710Y-574444801D01*
X440003710Y-573444801D02*
X444003710Y-573444801D01*
X440003710Y-574444801D02*
X440273710Y-574444801D01*
X440003710Y-575144801D02*
X440003710Y-578444801D01*
X440003710Y-575144801D02*
X440273710Y-575144801D01*
X440003710Y-578444801D02*
X444003710Y-578444801D01*
X441503710Y-566094801D02*
X441503710Y-568593801D01*
X441503710Y-566094801D02*
X442503710Y-566094801D01*
X441503710Y-568593801D02*
X442503710Y-568593801D01*
X442503710Y-566094801D02*
X442503710Y-568593801D01*
X442733710Y-570244801D02*
X445424710Y-570244801D01*
X442733710Y-574444801D02*
X444003710Y-574444801D01*
X442733710Y-575144801D02*
X444003710Y-575144801D01*
X444003710Y-573444801D02*
X444003710Y-574444801D01*
X444003710Y-575144801D02*
X444003710Y-578444801D01*
X444503710Y-565744801D02*
X444503710Y-579744801D01*
X445424710Y-565624801D02*
X445424710Y-579864801D01*
%TO.C,D128*%
X322573710Y-595078135D02*
X324573710Y-595078135D01*
X322573710Y-595078135D02*
X322573710Y-591068135D01*
X324573710Y-595078135D02*
X324573710Y-591068135D01*
%TO.C,D130*%
X442873710Y-594978135D02*
X444873710Y-594978135D01*
X442873710Y-594978135D02*
X442873710Y-590968135D01*
X444873710Y-594978135D02*
X444873710Y-590968135D01*
%TO.C,J15*%
X192493710Y-579164801D02*
X192493710Y-580404801D01*
X192493710Y-580404801D02*
X193493710Y-580404801D01*
X192733710Y-565924801D02*
X192733710Y-580164801D01*
X192733710Y-565924801D02*
X205274710Y-565924801D01*
X192733710Y-570544801D02*
X195123710Y-570544801D01*
X192733710Y-573344801D02*
X205274710Y-573344801D01*
X192733710Y-579044801D02*
X205274710Y-579044801D01*
X192733710Y-580164801D02*
X205274710Y-580164801D01*
X194353710Y-566044801D02*
X194353710Y-580044801D01*
X194353710Y-566044801D02*
X199353710Y-566044801D01*
X194353710Y-580044801D02*
X199353710Y-580044801D01*
X194853710Y-573744801D02*
X194853710Y-574744801D01*
X194853710Y-573744801D02*
X198853710Y-573744801D01*
X194853710Y-574744801D02*
X195123710Y-574744801D01*
X194853710Y-575444801D02*
X194853710Y-578744801D01*
X194853710Y-575444801D02*
X195123710Y-575444801D01*
X194853710Y-578744801D02*
X198853710Y-578744801D01*
X196353710Y-566394801D02*
X196353710Y-568893801D01*
X196353710Y-566394801D02*
X197353710Y-566394801D01*
X196353710Y-568893801D02*
X197353710Y-568893801D01*
X197353710Y-566394801D02*
X197353710Y-568893801D01*
X197583710Y-570544801D02*
X200123710Y-570544801D01*
X197583710Y-574744801D02*
X198853710Y-574744801D01*
X197583710Y-575444801D02*
X198853710Y-575444801D01*
X198853710Y-573744801D02*
X198853710Y-574744801D01*
X198853710Y-575444801D02*
X198853710Y-578744801D01*
X199353710Y-566044801D02*
X199353710Y-580044801D01*
X199353710Y-566044801D02*
X199353710Y-580044801D01*
X199353710Y-566044801D02*
X204353710Y-566044801D01*
X199353710Y-580044801D02*
X204353710Y-580044801D01*
X199853710Y-573744801D02*
X199853710Y-574744801D01*
X199853710Y-573744801D02*
X203853710Y-573744801D01*
X199853710Y-574744801D02*
X200123710Y-574744801D01*
X199853710Y-575444801D02*
X199853710Y-578744801D01*
X199853710Y-575444801D02*
X200123710Y-575444801D01*
X199853710Y-578744801D02*
X203853710Y-578744801D01*
X201353710Y-566394801D02*
X201353710Y-568893801D01*
X201353710Y-566394801D02*
X202353710Y-566394801D01*
X201353710Y-568893801D02*
X202353710Y-568893801D01*
X202353710Y-566394801D02*
X202353710Y-568893801D01*
X202583710Y-570544801D02*
X205274710Y-570544801D01*
X202583710Y-574744801D02*
X203853710Y-574744801D01*
X202583710Y-575444801D02*
X203853710Y-575444801D01*
X203853710Y-573744801D02*
X203853710Y-574744801D01*
X203853710Y-575444801D02*
X203853710Y-578744801D01*
X204353710Y-566044801D02*
X204353710Y-580044801D01*
X205274710Y-565924801D02*
X205274710Y-580164801D01*
%TO.C,D129*%
X449073710Y-594978135D02*
X451073710Y-594978135D01*
X449073710Y-594978135D02*
X449073710Y-590968135D01*
X451073710Y-594978135D02*
X451073710Y-590968135D01*
%TO.C,D118*%
X262773710Y-595078135D02*
X264773710Y-595078135D01*
X262773710Y-595078135D02*
X262773710Y-591068135D01*
X264773710Y-595078135D02*
X264773710Y-591068135D01*
%TO.C,J109*%
X150203710Y-583348135D02*
X137383710Y-583348135D01*
X150203710Y-583348135D02*
X150203710Y-585948135D01*
X137383710Y-583348135D02*
X137383710Y-588548135D01*
X150203710Y-585948135D02*
X147603710Y-585948135D01*
X147603710Y-585948135D02*
X147603710Y-588548135D01*
X150203710Y-587218135D02*
X150203710Y-588548135D01*
X150203710Y-588548135D02*
X148873710Y-588548135D01*
X147603710Y-588548135D02*
X137383710Y-588548135D01*
%TO.C,J7*%
X448043710Y-578864801D02*
X448043710Y-580104801D01*
X448043710Y-580104801D02*
X449043710Y-580104801D01*
X448283710Y-565624801D02*
X448283710Y-579864801D01*
X448283710Y-565624801D02*
X460824710Y-565624801D01*
X448283710Y-570244801D02*
X450673710Y-570244801D01*
X448283710Y-573044801D02*
X460824710Y-573044801D01*
X448283710Y-578744801D02*
X460824710Y-578744801D01*
X448283710Y-579864801D02*
X460824710Y-579864801D01*
X449903710Y-565744801D02*
X449903710Y-579744801D01*
X449903710Y-565744801D02*
X454903710Y-565744801D01*
X449903710Y-579744801D02*
X454903710Y-579744801D01*
X450403710Y-573444801D02*
X450403710Y-574444801D01*
X450403710Y-573444801D02*
X454403710Y-573444801D01*
X450403710Y-574444801D02*
X450673710Y-574444801D01*
X450403710Y-575144801D02*
X450403710Y-578444801D01*
X450403710Y-575144801D02*
X450673710Y-575144801D01*
X450403710Y-578444801D02*
X454403710Y-578444801D01*
X451903710Y-566094801D02*
X451903710Y-568593801D01*
X451903710Y-566094801D02*
X452903710Y-566094801D01*
X451903710Y-568593801D02*
X452903710Y-568593801D01*
X452903710Y-566094801D02*
X452903710Y-568593801D01*
X453133710Y-570244801D02*
X455673710Y-570244801D01*
X453133710Y-574444801D02*
X454403710Y-574444801D01*
X453133710Y-575144801D02*
X454403710Y-575144801D01*
X454403710Y-573444801D02*
X454403710Y-574444801D01*
X454403710Y-575144801D02*
X454403710Y-578444801D01*
X454903710Y-565744801D02*
X454903710Y-579744801D01*
X454903710Y-565744801D02*
X454903710Y-579744801D01*
X454903710Y-565744801D02*
X459903710Y-565744801D01*
X454903710Y-579744801D02*
X459903710Y-579744801D01*
X455403710Y-573444801D02*
X455403710Y-574444801D01*
X455403710Y-573444801D02*
X459403710Y-573444801D01*
X455403710Y-574444801D02*
X455673710Y-574444801D01*
X455403710Y-575144801D02*
X455403710Y-578444801D01*
X455403710Y-575144801D02*
X455673710Y-575144801D01*
X455403710Y-578444801D02*
X459403710Y-578444801D01*
X456903710Y-566094801D02*
X456903710Y-568593801D01*
X456903710Y-566094801D02*
X457903710Y-566094801D01*
X456903710Y-568593801D02*
X457903710Y-568593801D01*
X457903710Y-566094801D02*
X457903710Y-568593801D01*
X458133710Y-570244801D02*
X460824710Y-570244801D01*
X458133710Y-574444801D02*
X459403710Y-574444801D01*
X458133710Y-575144801D02*
X459403710Y-575144801D01*
X459403710Y-573444801D02*
X459403710Y-574444801D01*
X459403710Y-575144801D02*
X459403710Y-578444801D01*
X459903710Y-565744801D02*
X459903710Y-579744801D01*
X460824710Y-565624801D02*
X460824710Y-579864801D01*
%TO.C,J2*%
X133543710Y-579064801D02*
X133543710Y-580304801D01*
X133543710Y-580304801D02*
X134543710Y-580304801D01*
X133783710Y-565824801D02*
X133783710Y-580064801D01*
X133783710Y-565824801D02*
X146324710Y-565824801D01*
X133783710Y-570444801D02*
X136173710Y-570444801D01*
X133783710Y-573244801D02*
X146324710Y-573244801D01*
X133783710Y-578944801D02*
X146324710Y-578944801D01*
X133783710Y-580064801D02*
X146324710Y-580064801D01*
X135403710Y-565944801D02*
X135403710Y-579944801D01*
X135403710Y-565944801D02*
X140403710Y-565944801D01*
X135403710Y-579944801D02*
X140403710Y-579944801D01*
X135903710Y-573644801D02*
X135903710Y-574644801D01*
X135903710Y-573644801D02*
X139903710Y-573644801D01*
X135903710Y-574644801D02*
X136173710Y-574644801D01*
X135903710Y-575344801D02*
X135903710Y-578644801D01*
X135903710Y-575344801D02*
X136173710Y-575344801D01*
X135903710Y-578644801D02*
X139903710Y-578644801D01*
X137403710Y-566294801D02*
X137403710Y-568793801D01*
X137403710Y-566294801D02*
X138403710Y-566294801D01*
X137403710Y-568793801D02*
X138403710Y-568793801D01*
X138403710Y-566294801D02*
X138403710Y-568793801D01*
X138633710Y-570444801D02*
X141173710Y-570444801D01*
X138633710Y-574644801D02*
X139903710Y-574644801D01*
X138633710Y-575344801D02*
X139903710Y-575344801D01*
X139903710Y-573644801D02*
X139903710Y-574644801D01*
X139903710Y-575344801D02*
X139903710Y-578644801D01*
X140403710Y-565944801D02*
X140403710Y-579944801D01*
X140403710Y-565944801D02*
X140403710Y-579944801D01*
X140403710Y-565944801D02*
X145403710Y-565944801D01*
X140403710Y-579944801D02*
X145403710Y-579944801D01*
X140903710Y-573644801D02*
X140903710Y-574644801D01*
X140903710Y-573644801D02*
X144903710Y-573644801D01*
X140903710Y-574644801D02*
X141173710Y-574644801D01*
X140903710Y-575344801D02*
X140903710Y-578644801D01*
X140903710Y-575344801D02*
X141173710Y-575344801D01*
X140903710Y-578644801D02*
X144903710Y-578644801D01*
X142403710Y-566294801D02*
X142403710Y-568793801D01*
X142403710Y-566294801D02*
X143403710Y-566294801D01*
X142403710Y-568793801D02*
X143403710Y-568793801D01*
X143403710Y-566294801D02*
X143403710Y-568793801D01*
X143633710Y-570444801D02*
X146324710Y-570444801D01*
X143633710Y-574644801D02*
X144903710Y-574644801D01*
X143633710Y-575344801D02*
X144903710Y-575344801D01*
X144903710Y-573644801D02*
X144903710Y-574644801D01*
X144903710Y-575344801D02*
X144903710Y-578644801D01*
X145403710Y-565944801D02*
X145403710Y-579944801D01*
X146324710Y-565824801D02*
X146324710Y-580064801D01*
%TO.C,D132*%
X502673710Y-595178135D02*
X504673710Y-595178135D01*
X502673710Y-595178135D02*
X502673710Y-591168135D01*
X504673710Y-595178135D02*
X504673710Y-591168135D01*
%TO.C,D134*%
X568873710Y-595978135D02*
X570873710Y-595978135D01*
X568873710Y-595978135D02*
X568873710Y-591968135D01*
X570873710Y-595978135D02*
X570873710Y-591968135D01*
%TO.C,J17*%
X252493710Y-578964801D02*
X252493710Y-580204801D01*
X252493710Y-580204801D02*
X253493710Y-580204801D01*
X252733710Y-565724801D02*
X252733710Y-579964801D01*
X252733710Y-565724801D02*
X265274710Y-565724801D01*
X252733710Y-570344801D02*
X255123710Y-570344801D01*
X252733710Y-573144801D02*
X265274710Y-573144801D01*
X252733710Y-578844801D02*
X265274710Y-578844801D01*
X252733710Y-579964801D02*
X265274710Y-579964801D01*
X254353710Y-565844801D02*
X254353710Y-579844801D01*
X254353710Y-565844801D02*
X259353710Y-565844801D01*
X254353710Y-579844801D02*
X259353710Y-579844801D01*
X254853710Y-573544801D02*
X254853710Y-574544801D01*
X254853710Y-573544801D02*
X258853710Y-573544801D01*
X254853710Y-574544801D02*
X255123710Y-574544801D01*
X254853710Y-575244801D02*
X254853710Y-578544801D01*
X254853710Y-575244801D02*
X255123710Y-575244801D01*
X254853710Y-578544801D02*
X258853710Y-578544801D01*
X256353710Y-566194801D02*
X256353710Y-568693801D01*
X256353710Y-566194801D02*
X257353710Y-566194801D01*
X256353710Y-568693801D02*
X257353710Y-568693801D01*
X257353710Y-566194801D02*
X257353710Y-568693801D01*
X257583710Y-570344801D02*
X260123710Y-570344801D01*
X257583710Y-574544801D02*
X258853710Y-574544801D01*
X257583710Y-575244801D02*
X258853710Y-575244801D01*
X258853710Y-573544801D02*
X258853710Y-574544801D01*
X258853710Y-575244801D02*
X258853710Y-578544801D01*
X259353710Y-565844801D02*
X259353710Y-579844801D01*
X259353710Y-565844801D02*
X259353710Y-579844801D01*
X259353710Y-565844801D02*
X264353710Y-565844801D01*
X259353710Y-579844801D02*
X264353710Y-579844801D01*
X259853710Y-573544801D02*
X259853710Y-574544801D01*
X259853710Y-573544801D02*
X263853710Y-573544801D01*
X259853710Y-574544801D02*
X260123710Y-574544801D01*
X259853710Y-575244801D02*
X259853710Y-578544801D01*
X259853710Y-575244801D02*
X260123710Y-575244801D01*
X259853710Y-578544801D02*
X263853710Y-578544801D01*
X261353710Y-566194801D02*
X261353710Y-568693801D01*
X261353710Y-566194801D02*
X262353710Y-566194801D01*
X261353710Y-568693801D02*
X262353710Y-568693801D01*
X262353710Y-566194801D02*
X262353710Y-568693801D01*
X262583710Y-570344801D02*
X265274710Y-570344801D01*
X262583710Y-574544801D02*
X263853710Y-574544801D01*
X262583710Y-575244801D02*
X263853710Y-575244801D01*
X263853710Y-573544801D02*
X263853710Y-574544801D01*
X263853710Y-575244801D02*
X263853710Y-578544801D01*
X264353710Y-565844801D02*
X264353710Y-579844801D01*
X265274710Y-565724801D02*
X265274710Y-579964801D01*
%TO.C,J3*%
X568343710Y-578764801D02*
X568343710Y-580004801D01*
X568343710Y-580004801D02*
X569343710Y-580004801D01*
X568583710Y-565524801D02*
X568583710Y-579764801D01*
X568583710Y-565524801D02*
X581124710Y-565524801D01*
X568583710Y-570144801D02*
X570973710Y-570144801D01*
X568583710Y-572944801D02*
X581124710Y-572944801D01*
X568583710Y-578644801D02*
X581124710Y-578644801D01*
X568583710Y-579764801D02*
X581124710Y-579764801D01*
X570203710Y-565644801D02*
X570203710Y-579644801D01*
X570203710Y-565644801D02*
X575203710Y-565644801D01*
X570203710Y-579644801D02*
X575203710Y-579644801D01*
X570703710Y-573344801D02*
X570703710Y-574344801D01*
X570703710Y-573344801D02*
X574703710Y-573344801D01*
X570703710Y-574344801D02*
X570973710Y-574344801D01*
X570703710Y-575044801D02*
X570703710Y-578344801D01*
X570703710Y-575044801D02*
X570973710Y-575044801D01*
X570703710Y-578344801D02*
X574703710Y-578344801D01*
X572203710Y-565994801D02*
X572203710Y-568493801D01*
X572203710Y-565994801D02*
X573203710Y-565994801D01*
X572203710Y-568493801D02*
X573203710Y-568493801D01*
X573203710Y-565994801D02*
X573203710Y-568493801D01*
X573433710Y-570144801D02*
X575973710Y-570144801D01*
X573433710Y-574344801D02*
X574703710Y-574344801D01*
X573433710Y-575044801D02*
X574703710Y-575044801D01*
X574703710Y-573344801D02*
X574703710Y-574344801D01*
X574703710Y-575044801D02*
X574703710Y-578344801D01*
X575203710Y-565644801D02*
X575203710Y-579644801D01*
X575203710Y-565644801D02*
X575203710Y-579644801D01*
X575203710Y-565644801D02*
X580203710Y-565644801D01*
X575203710Y-579644801D02*
X580203710Y-579644801D01*
X575703710Y-573344801D02*
X575703710Y-574344801D01*
X575703710Y-573344801D02*
X579703710Y-573344801D01*
X575703710Y-574344801D02*
X575973710Y-574344801D01*
X575703710Y-575044801D02*
X575703710Y-578344801D01*
X575703710Y-575044801D02*
X575973710Y-575044801D01*
X575703710Y-578344801D02*
X579703710Y-578344801D01*
X577203710Y-565994801D02*
X577203710Y-568493801D01*
X577203710Y-565994801D02*
X578203710Y-565994801D01*
X577203710Y-568493801D02*
X578203710Y-568493801D01*
X578203710Y-565994801D02*
X578203710Y-568493801D01*
X578433710Y-570144801D02*
X581124710Y-570144801D01*
X578433710Y-574344801D02*
X579703710Y-574344801D01*
X578433710Y-575044801D02*
X579703710Y-575044801D01*
X579703710Y-573344801D02*
X579703710Y-574344801D01*
X579703710Y-575044801D02*
X579703710Y-578344801D01*
X580203710Y-565644801D02*
X580203710Y-579644801D01*
X581124710Y-565524801D02*
X581124710Y-579764801D01*
%TO.C,J116*%
X569863710Y-583548135D02*
X557043710Y-583548135D01*
X569863710Y-583548135D02*
X569863710Y-586148135D01*
X557043710Y-583548135D02*
X557043710Y-588748135D01*
X569863710Y-586148135D02*
X567263710Y-586148135D01*
X567263710Y-586148135D02*
X567263710Y-588748135D01*
X569863710Y-587418135D02*
X569863710Y-588748135D01*
X569863710Y-588748135D02*
X568533710Y-588748135D01*
X567263710Y-588748135D02*
X557043710Y-588748135D01*
%TO.C,J11*%
X372493710Y-578864801D02*
X372493710Y-580104801D01*
X372493710Y-580104801D02*
X373493710Y-580104801D01*
X372733710Y-565624801D02*
X372733710Y-579864801D01*
X372733710Y-565624801D02*
X385274710Y-565624801D01*
X372733710Y-570244801D02*
X375123710Y-570244801D01*
X372733710Y-573044801D02*
X385274710Y-573044801D01*
X372733710Y-578744801D02*
X385274710Y-578744801D01*
X372733710Y-579864801D02*
X385274710Y-579864801D01*
X374353710Y-565744801D02*
X374353710Y-579744801D01*
X374353710Y-565744801D02*
X379353710Y-565744801D01*
X374353710Y-579744801D02*
X379353710Y-579744801D01*
X374853710Y-573444801D02*
X374853710Y-574444801D01*
X374853710Y-573444801D02*
X378853710Y-573444801D01*
X374853710Y-574444801D02*
X375123710Y-574444801D01*
X374853710Y-575144801D02*
X374853710Y-578444801D01*
X374853710Y-575144801D02*
X375123710Y-575144801D01*
X374853710Y-578444801D02*
X378853710Y-578444801D01*
X376353710Y-566094801D02*
X376353710Y-568593801D01*
X376353710Y-566094801D02*
X377353710Y-566094801D01*
X376353710Y-568593801D02*
X377353710Y-568593801D01*
X377353710Y-566094801D02*
X377353710Y-568593801D01*
X377583710Y-570244801D02*
X380123710Y-570244801D01*
X377583710Y-574444801D02*
X378853710Y-574444801D01*
X377583710Y-575144801D02*
X378853710Y-575144801D01*
X378853710Y-573444801D02*
X378853710Y-574444801D01*
X378853710Y-575144801D02*
X378853710Y-578444801D01*
X379353710Y-565744801D02*
X379353710Y-579744801D01*
X379353710Y-565744801D02*
X379353710Y-579744801D01*
X379353710Y-565744801D02*
X384353710Y-565744801D01*
X379353710Y-579744801D02*
X384353710Y-579744801D01*
X379853710Y-573444801D02*
X379853710Y-574444801D01*
X379853710Y-573444801D02*
X383853710Y-573444801D01*
X379853710Y-574444801D02*
X380123710Y-574444801D01*
X379853710Y-575144801D02*
X379853710Y-578444801D01*
X379853710Y-575144801D02*
X380123710Y-575144801D01*
X379853710Y-578444801D02*
X383853710Y-578444801D01*
X381353710Y-566094801D02*
X381353710Y-568593801D01*
X381353710Y-566094801D02*
X382353710Y-566094801D01*
X381353710Y-568593801D02*
X382353710Y-568593801D01*
X382353710Y-566094801D02*
X382353710Y-568593801D01*
X382583710Y-570244801D02*
X385274710Y-570244801D01*
X382583710Y-574444801D02*
X383853710Y-574444801D01*
X382583710Y-575144801D02*
X383853710Y-575144801D01*
X383853710Y-573444801D02*
X383853710Y-574444801D01*
X383853710Y-575144801D02*
X383853710Y-578444801D01*
X384353710Y-565744801D02*
X384353710Y-579744801D01*
X385274710Y-565624801D02*
X385274710Y-579864801D01*
%TO.C,D122*%
X382473710Y-595078135D02*
X384473710Y-595078135D01*
X382473710Y-595078135D02*
X382473710Y-591068135D01*
X384473710Y-595078135D02*
X384473710Y-591068135D01*
%TO.C,D133*%
X202573710Y-595178135D02*
X204573710Y-595178135D01*
X202573710Y-595178135D02*
X202573710Y-591168135D01*
X204573710Y-595178135D02*
X204573710Y-591168135D01*
%TO.C,J114*%
X450593710Y-583338135D02*
X437773710Y-583338135D01*
X450593710Y-583338135D02*
X450593710Y-585938135D01*
X437773710Y-583338135D02*
X437773710Y-588538135D01*
X450593710Y-585938135D02*
X447993710Y-585938135D01*
X447993710Y-585938135D02*
X447993710Y-588538135D01*
X450593710Y-587208135D02*
X450593710Y-588538135D01*
X450593710Y-588538135D02*
X449263710Y-588538135D01*
X447993710Y-588538135D02*
X437773710Y-588538135D01*
%TO.C,D123*%
X148873710Y-595178135D02*
X150873710Y-595178135D01*
X148873710Y-595178135D02*
X148873710Y-591168135D01*
X150873710Y-595178135D02*
X150873710Y-591168135D01*
%TO.C,J9*%
X387843710Y-578864801D02*
X387843710Y-580104801D01*
X387843710Y-580104801D02*
X388843710Y-580104801D01*
X388083710Y-565624801D02*
X388083710Y-579864801D01*
X388083710Y-565624801D02*
X400624710Y-565624801D01*
X388083710Y-570244801D02*
X390473710Y-570244801D01*
X388083710Y-573044801D02*
X400624710Y-573044801D01*
X388083710Y-578744801D02*
X400624710Y-578744801D01*
X388083710Y-579864801D02*
X400624710Y-579864801D01*
X389703710Y-565744801D02*
X389703710Y-579744801D01*
X389703710Y-565744801D02*
X394703710Y-565744801D01*
X389703710Y-579744801D02*
X394703710Y-579744801D01*
X390203710Y-573444801D02*
X390203710Y-574444801D01*
X390203710Y-573444801D02*
X394203710Y-573444801D01*
X390203710Y-574444801D02*
X390473710Y-574444801D01*
X390203710Y-575144801D02*
X390203710Y-578444801D01*
X390203710Y-575144801D02*
X390473710Y-575144801D01*
X390203710Y-578444801D02*
X394203710Y-578444801D01*
X391703710Y-566094801D02*
X391703710Y-568593801D01*
X391703710Y-566094801D02*
X392703710Y-566094801D01*
X391703710Y-568593801D02*
X392703710Y-568593801D01*
X392703710Y-566094801D02*
X392703710Y-568593801D01*
X392933710Y-570244801D02*
X395473710Y-570244801D01*
X392933710Y-574444801D02*
X394203710Y-574444801D01*
X392933710Y-575144801D02*
X394203710Y-575144801D01*
X394203710Y-573444801D02*
X394203710Y-574444801D01*
X394203710Y-575144801D02*
X394203710Y-578444801D01*
X394703710Y-565744801D02*
X394703710Y-579744801D01*
X394703710Y-565744801D02*
X394703710Y-579744801D01*
X394703710Y-565744801D02*
X399703710Y-565744801D01*
X394703710Y-579744801D02*
X399703710Y-579744801D01*
X395203710Y-573444801D02*
X395203710Y-574444801D01*
X395203710Y-573444801D02*
X399203710Y-573444801D01*
X395203710Y-574444801D02*
X395473710Y-574444801D01*
X395203710Y-575144801D02*
X395203710Y-578444801D01*
X395203710Y-575144801D02*
X395473710Y-575144801D01*
X395203710Y-578444801D02*
X399203710Y-578444801D01*
X396703710Y-566094801D02*
X396703710Y-568593801D01*
X396703710Y-566094801D02*
X397703710Y-566094801D01*
X396703710Y-568593801D02*
X397703710Y-568593801D01*
X397703710Y-566094801D02*
X397703710Y-568593801D01*
X397933710Y-570244801D02*
X400624710Y-570244801D01*
X397933710Y-574444801D02*
X399203710Y-574444801D01*
X397933710Y-575144801D02*
X399203710Y-575144801D01*
X399203710Y-573444801D02*
X399203710Y-574444801D01*
X399203710Y-575144801D02*
X399203710Y-578444801D01*
X399703710Y-565744801D02*
X399703710Y-579744801D01*
X400624710Y-565624801D02*
X400624710Y-579864801D01*
%TO.C,J112*%
X330003710Y-583448135D02*
X317183710Y-583448135D01*
X330003710Y-583448135D02*
X330003710Y-586048135D01*
X317183710Y-583448135D02*
X317183710Y-588648135D01*
X330003710Y-586048135D02*
X327403710Y-586048135D01*
X327403710Y-586048135D02*
X327403710Y-588648135D01*
X330003710Y-587318135D02*
X330003710Y-588648135D01*
X330003710Y-588648135D02*
X328673710Y-588648135D01*
X327403710Y-588648135D02*
X317183710Y-588648135D01*
%TO.C,J13*%
X312643710Y-579064801D02*
X312643710Y-580304801D01*
X312643710Y-580304801D02*
X313643710Y-580304801D01*
X312883710Y-565824801D02*
X312883710Y-580064801D01*
X312883710Y-565824801D02*
X325424710Y-565824801D01*
X312883710Y-570444801D02*
X315273710Y-570444801D01*
X312883710Y-573244801D02*
X325424710Y-573244801D01*
X312883710Y-578944801D02*
X325424710Y-578944801D01*
X312883710Y-580064801D02*
X325424710Y-580064801D01*
X314503710Y-565944801D02*
X314503710Y-579944801D01*
X314503710Y-565944801D02*
X319503710Y-565944801D01*
X314503710Y-579944801D02*
X319503710Y-579944801D01*
X315003710Y-573644801D02*
X315003710Y-574644801D01*
X315003710Y-573644801D02*
X319003710Y-573644801D01*
X315003710Y-574644801D02*
X315273710Y-574644801D01*
X315003710Y-575344801D02*
X315003710Y-578644801D01*
X315003710Y-575344801D02*
X315273710Y-575344801D01*
X315003710Y-578644801D02*
X319003710Y-578644801D01*
X316503710Y-566294801D02*
X316503710Y-568793801D01*
X316503710Y-566294801D02*
X317503710Y-566294801D01*
X316503710Y-568793801D02*
X317503710Y-568793801D01*
X317503710Y-566294801D02*
X317503710Y-568793801D01*
X317733710Y-570444801D02*
X320273710Y-570444801D01*
X317733710Y-574644801D02*
X319003710Y-574644801D01*
X317733710Y-575344801D02*
X319003710Y-575344801D01*
X319003710Y-573644801D02*
X319003710Y-574644801D01*
X319003710Y-575344801D02*
X319003710Y-578644801D01*
X319503710Y-565944801D02*
X319503710Y-579944801D01*
X319503710Y-565944801D02*
X319503710Y-579944801D01*
X319503710Y-565944801D02*
X324503710Y-565944801D01*
X319503710Y-579944801D02*
X324503710Y-579944801D01*
X320003710Y-573644801D02*
X320003710Y-574644801D01*
X320003710Y-573644801D02*
X324003710Y-573644801D01*
X320003710Y-574644801D02*
X320273710Y-574644801D01*
X320003710Y-575344801D02*
X320003710Y-578644801D01*
X320003710Y-575344801D02*
X320273710Y-575344801D01*
X320003710Y-578644801D02*
X324003710Y-578644801D01*
X321503710Y-566294801D02*
X321503710Y-568793801D01*
X321503710Y-566294801D02*
X322503710Y-566294801D01*
X321503710Y-568793801D02*
X322503710Y-568793801D01*
X322503710Y-566294801D02*
X322503710Y-568793801D01*
X322733710Y-570444801D02*
X325424710Y-570444801D01*
X322733710Y-574644801D02*
X324003710Y-574644801D01*
X322733710Y-575344801D02*
X324003710Y-575344801D01*
X324003710Y-573644801D02*
X324003710Y-574644801D01*
X324003710Y-575344801D02*
X324003710Y-578644801D01*
X324503710Y-565944801D02*
X324503710Y-579944801D01*
X325424710Y-565824801D02*
X325424710Y-580064801D01*
%TO.C,D131*%
X208773710Y-595178135D02*
X210773710Y-595178135D01*
X208773710Y-595178135D02*
X208773710Y-591168135D01*
X210773710Y-595178135D02*
X210773710Y-591168135D01*
%TO.C,D127*%
X328773710Y-595078135D02*
X330773710Y-595078135D01*
X328773710Y-595078135D02*
X328773710Y-591068135D01*
X330773710Y-595078135D02*
X330773710Y-591068135D01*
%TO.C,D117*%
X508873710Y-595178135D02*
X510873710Y-595178135D01*
X508873710Y-595178135D02*
X508873710Y-591168135D01*
X510873710Y-595178135D02*
X510873710Y-591168135D01*
%TO.C,J12*%
X327743710Y-578964801D02*
X327743710Y-580204801D01*
X327743710Y-580204801D02*
X328743710Y-580204801D01*
X327983710Y-565724801D02*
X327983710Y-579964801D01*
X327983710Y-565724801D02*
X340524710Y-565724801D01*
X327983710Y-570344801D02*
X330373710Y-570344801D01*
X327983710Y-573144801D02*
X340524710Y-573144801D01*
X327983710Y-578844801D02*
X340524710Y-578844801D01*
X327983710Y-579964801D02*
X340524710Y-579964801D01*
X329603710Y-565844801D02*
X329603710Y-579844801D01*
X329603710Y-565844801D02*
X334603710Y-565844801D01*
X329603710Y-579844801D02*
X334603710Y-579844801D01*
X330103710Y-573544801D02*
X330103710Y-574544801D01*
X330103710Y-573544801D02*
X334103710Y-573544801D01*
X330103710Y-574544801D02*
X330373710Y-574544801D01*
X330103710Y-575244801D02*
X330103710Y-578544801D01*
X330103710Y-575244801D02*
X330373710Y-575244801D01*
X330103710Y-578544801D02*
X334103710Y-578544801D01*
X331603710Y-566194801D02*
X331603710Y-568693801D01*
X331603710Y-566194801D02*
X332603710Y-566194801D01*
X331603710Y-568693801D02*
X332603710Y-568693801D01*
X332603710Y-566194801D02*
X332603710Y-568693801D01*
X332833710Y-570344801D02*
X335373710Y-570344801D01*
X332833710Y-574544801D02*
X334103710Y-574544801D01*
X332833710Y-575244801D02*
X334103710Y-575244801D01*
X334103710Y-573544801D02*
X334103710Y-574544801D01*
X334103710Y-575244801D02*
X334103710Y-578544801D01*
X334603710Y-565844801D02*
X334603710Y-579844801D01*
X334603710Y-565844801D02*
X334603710Y-579844801D01*
X334603710Y-565844801D02*
X339603710Y-565844801D01*
X334603710Y-579844801D02*
X339603710Y-579844801D01*
X335103710Y-573544801D02*
X335103710Y-574544801D01*
X335103710Y-573544801D02*
X339103710Y-573544801D01*
X335103710Y-574544801D02*
X335373710Y-574544801D01*
X335103710Y-575244801D02*
X335103710Y-578544801D01*
X335103710Y-575244801D02*
X335373710Y-575244801D01*
X335103710Y-578544801D02*
X339103710Y-578544801D01*
X336603710Y-566194801D02*
X336603710Y-568693801D01*
X336603710Y-566194801D02*
X337603710Y-566194801D01*
X336603710Y-568693801D02*
X337603710Y-568693801D01*
X337603710Y-566194801D02*
X337603710Y-568693801D01*
X337833710Y-570344801D02*
X340524710Y-570344801D01*
X337833710Y-574544801D02*
X339103710Y-574544801D01*
X337833710Y-575244801D02*
X339103710Y-575244801D01*
X339103710Y-573544801D02*
X339103710Y-574544801D01*
X339103710Y-575244801D02*
X339103710Y-578544801D01*
X339603710Y-565844801D02*
X339603710Y-579844801D01*
X340524710Y-565724801D02*
X340524710Y-579964801D01*
%TO.C,J10*%
X267643710Y-579064801D02*
X267643710Y-580304801D01*
X267643710Y-580304801D02*
X268643710Y-580304801D01*
X267883710Y-565824801D02*
X267883710Y-580064801D01*
X267883710Y-565824801D02*
X280424710Y-565824801D01*
X267883710Y-570444801D02*
X270273710Y-570444801D01*
X267883710Y-573244801D02*
X280424710Y-573244801D01*
X267883710Y-578944801D02*
X280424710Y-578944801D01*
X267883710Y-580064801D02*
X280424710Y-580064801D01*
X269503710Y-565944801D02*
X269503710Y-579944801D01*
X269503710Y-565944801D02*
X274503710Y-565944801D01*
X269503710Y-579944801D02*
X274503710Y-579944801D01*
X270003710Y-573644801D02*
X270003710Y-574644801D01*
X270003710Y-573644801D02*
X274003710Y-573644801D01*
X270003710Y-574644801D02*
X270273710Y-574644801D01*
X270003710Y-575344801D02*
X270003710Y-578644801D01*
X270003710Y-575344801D02*
X270273710Y-575344801D01*
X270003710Y-578644801D02*
X274003710Y-578644801D01*
X271503710Y-566294801D02*
X271503710Y-568793801D01*
X271503710Y-566294801D02*
X272503710Y-566294801D01*
X271503710Y-568793801D02*
X272503710Y-568793801D01*
X272503710Y-566294801D02*
X272503710Y-568793801D01*
X272733710Y-570444801D02*
X275273710Y-570444801D01*
X272733710Y-574644801D02*
X274003710Y-574644801D01*
X272733710Y-575344801D02*
X274003710Y-575344801D01*
X274003710Y-573644801D02*
X274003710Y-574644801D01*
X274003710Y-575344801D02*
X274003710Y-578644801D01*
X274503710Y-565944801D02*
X274503710Y-579944801D01*
X274503710Y-565944801D02*
X274503710Y-579944801D01*
X274503710Y-565944801D02*
X279503710Y-565944801D01*
X274503710Y-579944801D02*
X279503710Y-579944801D01*
X275003710Y-573644801D02*
X275003710Y-574644801D01*
X275003710Y-573644801D02*
X279003710Y-573644801D01*
X275003710Y-574644801D02*
X275273710Y-574644801D01*
X275003710Y-575344801D02*
X275003710Y-578644801D01*
X275003710Y-575344801D02*
X275273710Y-575344801D01*
X275003710Y-578644801D02*
X279003710Y-578644801D01*
X276503710Y-566294801D02*
X276503710Y-568793801D01*
X276503710Y-566294801D02*
X277503710Y-566294801D01*
X276503710Y-568793801D02*
X277503710Y-568793801D01*
X277503710Y-566294801D02*
X277503710Y-568793801D01*
X277733710Y-570444801D02*
X280424710Y-570444801D01*
X277733710Y-574644801D02*
X279003710Y-574644801D01*
X277733710Y-575344801D02*
X279003710Y-575344801D01*
X279003710Y-573644801D02*
X279003710Y-574644801D01*
X279003710Y-575344801D02*
X279003710Y-578644801D01*
X279503710Y-565944801D02*
X279503710Y-579944801D01*
X280424710Y-565824801D02*
X280424710Y-580064801D01*
%TO.C,D119*%
X562573710Y-595978135D02*
X564573710Y-595978135D01*
X562573710Y-595978135D02*
X562573710Y-591968135D01*
X564573710Y-595978135D02*
X564573710Y-591968135D01*
%TO.C,D120*%
X268973710Y-595078135D02*
X270973710Y-595078135D01*
X268973710Y-595078135D02*
X268973710Y-591068135D01*
X270973710Y-595078135D02*
X270973710Y-591068135D01*
%TO.C,J111*%
X270223710Y-583548135D02*
X257403710Y-583548135D01*
X270223710Y-583548135D02*
X270223710Y-586148135D01*
X257403710Y-583548135D02*
X257403710Y-588748135D01*
X270223710Y-586148135D02*
X267623710Y-586148135D01*
X267623710Y-586148135D02*
X267623710Y-588748135D01*
X270223710Y-587418135D02*
X270223710Y-588748135D01*
X270223710Y-588748135D02*
X268893710Y-588748135D01*
X267623710Y-588748135D02*
X257403710Y-588748135D01*
%TO.C,J4*%
X552443710Y-578764801D02*
X552443710Y-580004801D01*
X552443710Y-580004801D02*
X553443710Y-580004801D01*
X552683710Y-565524801D02*
X552683710Y-579764801D01*
X552683710Y-565524801D02*
X565224710Y-565524801D01*
X552683710Y-570144801D02*
X555073710Y-570144801D01*
X552683710Y-572944801D02*
X565224710Y-572944801D01*
X552683710Y-578644801D02*
X565224710Y-578644801D01*
X552683710Y-579764801D02*
X565224710Y-579764801D01*
X554303710Y-565644801D02*
X554303710Y-579644801D01*
X554303710Y-565644801D02*
X559303710Y-565644801D01*
X554303710Y-579644801D02*
X559303710Y-579644801D01*
X554803710Y-573344801D02*
X554803710Y-574344801D01*
X554803710Y-573344801D02*
X558803710Y-573344801D01*
X554803710Y-574344801D02*
X555073710Y-574344801D01*
X554803710Y-575044801D02*
X554803710Y-578344801D01*
X554803710Y-575044801D02*
X555073710Y-575044801D01*
X554803710Y-578344801D02*
X558803710Y-578344801D01*
X556303710Y-565994801D02*
X556303710Y-568493801D01*
X556303710Y-565994801D02*
X557303710Y-565994801D01*
X556303710Y-568493801D02*
X557303710Y-568493801D01*
X557303710Y-565994801D02*
X557303710Y-568493801D01*
X557533710Y-570144801D02*
X560073710Y-570144801D01*
X557533710Y-574344801D02*
X558803710Y-574344801D01*
X557533710Y-575044801D02*
X558803710Y-575044801D01*
X558803710Y-573344801D02*
X558803710Y-574344801D01*
X558803710Y-575044801D02*
X558803710Y-578344801D01*
X559303710Y-565644801D02*
X559303710Y-579644801D01*
X559303710Y-565644801D02*
X559303710Y-579644801D01*
X559303710Y-565644801D02*
X564303710Y-565644801D01*
X559303710Y-579644801D02*
X564303710Y-579644801D01*
X559803710Y-573344801D02*
X559803710Y-574344801D01*
X559803710Y-573344801D02*
X563803710Y-573344801D01*
X559803710Y-574344801D02*
X560073710Y-574344801D01*
X559803710Y-575044801D02*
X559803710Y-578344801D01*
X559803710Y-575044801D02*
X560073710Y-575044801D01*
X559803710Y-578344801D02*
X563803710Y-578344801D01*
X561303710Y-565994801D02*
X561303710Y-568493801D01*
X561303710Y-565994801D02*
X562303710Y-565994801D01*
X561303710Y-568493801D02*
X562303710Y-568493801D01*
X562303710Y-565994801D02*
X562303710Y-568493801D01*
X562533710Y-570144801D02*
X565224710Y-570144801D01*
X562533710Y-574344801D02*
X563803710Y-574344801D01*
X562533710Y-575044801D02*
X563803710Y-575044801D01*
X563803710Y-573344801D02*
X563803710Y-574344801D01*
X563803710Y-575044801D02*
X563803710Y-578344801D01*
X564303710Y-565644801D02*
X564303710Y-579644801D01*
X565224710Y-565524801D02*
X565224710Y-579764801D01*
%TO.C,D124*%
X142573710Y-595078135D02*
X144573710Y-595078135D01*
X142573710Y-595078135D02*
X142573710Y-591068135D01*
X144573710Y-595078135D02*
X144573710Y-591068135D01*
%TO.C,J203*%
X138963710Y-564388135D02*
X140203710Y-564388135D01*
X140203710Y-564388135D02*
X140203710Y-563388135D01*
X125723710Y-564148135D02*
X139963710Y-564148135D01*
X125723710Y-564148135D02*
X125723710Y-546608135D01*
X130343710Y-564148135D02*
X130343710Y-561758135D01*
X133143710Y-564148135D02*
X133143710Y-546608135D01*
X138843710Y-564148135D02*
X138843710Y-546608135D01*
X139963710Y-564148135D02*
X139963710Y-546608135D01*
X125843710Y-562528135D02*
X139843710Y-562528135D01*
X125843710Y-562528135D02*
X125843710Y-557528135D01*
X139843710Y-562528135D02*
X139843710Y-557528135D01*
X133543710Y-562028135D02*
X134543710Y-562028135D01*
X133543710Y-562028135D02*
X133543710Y-558028135D01*
X134543710Y-562028135D02*
X134543710Y-561758135D01*
X135243710Y-562028135D02*
X138543710Y-562028135D01*
X135243710Y-562028135D02*
X135243710Y-561758135D01*
X138543710Y-562028135D02*
X138543710Y-558028135D01*
X126193710Y-560528135D02*
X128692710Y-560528135D01*
X126193710Y-560528135D02*
X126193710Y-559528135D01*
X128692710Y-560528135D02*
X128692710Y-559528135D01*
X126193710Y-559528135D02*
X128692710Y-559528135D01*
X130343710Y-559298135D02*
X130343710Y-556758135D01*
X134543710Y-559298135D02*
X134543710Y-558028135D01*
X135243710Y-559298135D02*
X135243710Y-558028135D01*
X133543710Y-558028135D02*
X134543710Y-558028135D01*
X135243710Y-558028135D02*
X138543710Y-558028135D01*
X125843710Y-557528135D02*
X139843710Y-557528135D01*
X125843710Y-557528135D02*
X139843710Y-557528135D01*
X125843710Y-557528135D02*
X125843710Y-552528135D01*
X139843710Y-557528135D02*
X139843710Y-552528135D01*
X133543710Y-557028135D02*
X134543710Y-557028135D01*
X133543710Y-557028135D02*
X133543710Y-553028135D01*
X134543710Y-557028135D02*
X134543710Y-556758135D01*
X135243710Y-557028135D02*
X138543710Y-557028135D01*
X135243710Y-557028135D02*
X135243710Y-556758135D01*
X138543710Y-557028135D02*
X138543710Y-553028135D01*
X126193710Y-555528135D02*
X128692710Y-555528135D01*
X126193710Y-555528135D02*
X126193710Y-554528135D01*
X128692710Y-555528135D02*
X128692710Y-554528135D01*
X126193710Y-554528135D02*
X128692710Y-554528135D01*
X130343710Y-554298135D02*
X130343710Y-551758135D01*
X134543710Y-554298135D02*
X134543710Y-553028135D01*
X135243710Y-554298135D02*
X135243710Y-553028135D01*
X133543710Y-553028135D02*
X134543710Y-553028135D01*
X135243710Y-553028135D02*
X138543710Y-553028135D01*
X125843710Y-552528135D02*
X139843710Y-552528135D01*
X125843710Y-552528135D02*
X139843710Y-552528135D01*
X125843710Y-552528135D02*
X125843710Y-547528135D01*
X139843710Y-552528135D02*
X139843710Y-547528135D01*
X133543710Y-552028135D02*
X134543710Y-552028135D01*
X133543710Y-552028135D02*
X133543710Y-548028135D01*
X134543710Y-552028135D02*
X134543710Y-551758135D01*
X135243710Y-552028135D02*
X138543710Y-552028135D01*
X135243710Y-552028135D02*
X135243710Y-551758135D01*
X138543710Y-552028135D02*
X138543710Y-548028135D01*
X126193710Y-550528135D02*
X128692710Y-550528135D01*
X126193710Y-550528135D02*
X126193710Y-549528135D01*
X128692710Y-550528135D02*
X128692710Y-549528135D01*
X126193710Y-549528135D02*
X128692710Y-549528135D01*
X130343710Y-549298135D02*
X130343710Y-546608135D01*
X134543710Y-549298135D02*
X134543710Y-548028135D01*
X135243710Y-549298135D02*
X135243710Y-548028135D01*
X133543710Y-548028135D02*
X134543710Y-548028135D01*
X135243710Y-548028135D02*
X138543710Y-548028135D01*
X125843710Y-547528135D02*
X139843710Y-547528135D01*
X125723710Y-546608135D02*
X139963710Y-546608135D01*
%TO.C,J115*%
X509793710Y-583438135D02*
X496973710Y-583438135D01*
X509793710Y-583438135D02*
X509793710Y-586038135D01*
X496973710Y-583438135D02*
X496973710Y-588638135D01*
X509793710Y-586038135D02*
X507193710Y-586038135D01*
X507193710Y-586038135D02*
X507193710Y-588638135D01*
X509793710Y-587308135D02*
X509793710Y-588638135D01*
X509793710Y-588638135D02*
X508463710Y-588638135D01*
X507193710Y-588638135D02*
X496973710Y-588638135D01*
%TO.C,J118*%
X169003710Y-603178135D02*
X170333710Y-603178135D01*
X169003710Y-604508135D02*
X169003710Y-603178135D01*
X169003710Y-605778135D02*
X169003710Y-684578135D01*
X169003710Y-605778135D02*
X171603710Y-605778135D01*
X169003710Y-684578135D02*
X174203710Y-684578135D01*
X171603710Y-603178135D02*
X174203710Y-603178135D01*
X171603710Y-605778135D02*
X171603710Y-603178135D01*
X174203710Y-603178135D02*
X174203710Y-684578135D01*
%TO.C,JP202*%
X142383710Y-549848135D02*
X142383710Y-548518135D01*
X143713710Y-549848135D02*
X142383710Y-549848135D01*
X144983710Y-549848135D02*
X147583710Y-549848135D01*
X144983710Y-549848135D02*
X144983710Y-547188135D01*
X147583710Y-549848135D02*
X147583710Y-547188135D01*
X144983710Y-547188135D02*
X147583710Y-547188135D01*
%TO.C,J5*%
X507693710Y-578864801D02*
X507693710Y-580104801D01*
X507693710Y-580104801D02*
X508693710Y-580104801D01*
X507933710Y-565624801D02*
X507933710Y-579864801D01*
X507933710Y-565624801D02*
X520474710Y-565624801D01*
X507933710Y-570244801D02*
X510323710Y-570244801D01*
X507933710Y-573044801D02*
X520474710Y-573044801D01*
X507933710Y-578744801D02*
X520474710Y-578744801D01*
X507933710Y-579864801D02*
X520474710Y-579864801D01*
X509553710Y-565744801D02*
X509553710Y-579744801D01*
X509553710Y-565744801D02*
X514553710Y-565744801D01*
X509553710Y-579744801D02*
X514553710Y-579744801D01*
X510053710Y-573444801D02*
X510053710Y-574444801D01*
X510053710Y-573444801D02*
X514053710Y-573444801D01*
X510053710Y-574444801D02*
X510323710Y-574444801D01*
X510053710Y-575144801D02*
X510053710Y-578444801D01*
X510053710Y-575144801D02*
X510323710Y-575144801D01*
X510053710Y-578444801D02*
X514053710Y-578444801D01*
X511553710Y-566094801D02*
X511553710Y-568593801D01*
X511553710Y-566094801D02*
X512553710Y-566094801D01*
X511553710Y-568593801D02*
X512553710Y-568593801D01*
X512553710Y-566094801D02*
X512553710Y-568593801D01*
X512783710Y-570244801D02*
X515323710Y-570244801D01*
X512783710Y-574444801D02*
X514053710Y-574444801D01*
X512783710Y-575144801D02*
X514053710Y-575144801D01*
X514053710Y-573444801D02*
X514053710Y-574444801D01*
X514053710Y-575144801D02*
X514053710Y-578444801D01*
X514553710Y-565744801D02*
X514553710Y-579744801D01*
X514553710Y-565744801D02*
X514553710Y-579744801D01*
X514553710Y-565744801D02*
X519553710Y-565744801D01*
X514553710Y-579744801D02*
X519553710Y-579744801D01*
X515053710Y-573444801D02*
X515053710Y-574444801D01*
X515053710Y-573444801D02*
X519053710Y-573444801D01*
X515053710Y-574444801D02*
X515323710Y-574444801D01*
X515053710Y-575144801D02*
X515053710Y-578444801D01*
X515053710Y-575144801D02*
X515323710Y-575144801D01*
X515053710Y-578444801D02*
X519053710Y-578444801D01*
X516553710Y-566094801D02*
X516553710Y-568593801D01*
X516553710Y-566094801D02*
X517553710Y-566094801D01*
X516553710Y-568593801D02*
X517553710Y-568593801D01*
X517553710Y-566094801D02*
X517553710Y-568593801D01*
X517783710Y-570244801D02*
X520474710Y-570244801D01*
X517783710Y-574444801D02*
X519053710Y-574444801D01*
X517783710Y-575144801D02*
X519053710Y-575144801D01*
X519053710Y-573444801D02*
X519053710Y-574444801D01*
X519053710Y-575144801D02*
X519053710Y-578444801D01*
X519553710Y-565744801D02*
X519553710Y-579744801D01*
X520474710Y-565624801D02*
X520474710Y-579864801D01*
%TO.C,J110*%
X210163710Y-583348135D02*
X197343710Y-583348135D01*
X210163710Y-583348135D02*
X210163710Y-585948135D01*
X197343710Y-583348135D02*
X197343710Y-588548135D01*
X210163710Y-585948135D02*
X207563710Y-585948135D01*
X207563710Y-585948135D02*
X207563710Y-588548135D01*
X210163710Y-587218135D02*
X210163710Y-588548135D01*
X210163710Y-588548135D02*
X208833710Y-588548135D01*
X207563710Y-588548135D02*
X197343710Y-588548135D01*
%TO.C,J16*%
X207593710Y-579064801D02*
X207593710Y-580304801D01*
X207593710Y-580304801D02*
X208593710Y-580304801D01*
X207833710Y-565824801D02*
X207833710Y-580064801D01*
X207833710Y-565824801D02*
X220374710Y-565824801D01*
X207833710Y-570444801D02*
X210223710Y-570444801D01*
X207833710Y-573244801D02*
X220374710Y-573244801D01*
X207833710Y-578944801D02*
X220374710Y-578944801D01*
X207833710Y-580064801D02*
X220374710Y-580064801D01*
X209453710Y-565944801D02*
X209453710Y-579944801D01*
X209453710Y-565944801D02*
X214453710Y-565944801D01*
X209453710Y-579944801D02*
X214453710Y-579944801D01*
X209953710Y-573644801D02*
X209953710Y-574644801D01*
X209953710Y-573644801D02*
X213953710Y-573644801D01*
X209953710Y-574644801D02*
X210223710Y-574644801D01*
X209953710Y-575344801D02*
X209953710Y-578644801D01*
X209953710Y-575344801D02*
X210223710Y-575344801D01*
X209953710Y-578644801D02*
X213953710Y-578644801D01*
X211453710Y-566294801D02*
X211453710Y-568793801D01*
X211453710Y-566294801D02*
X212453710Y-566294801D01*
X211453710Y-568793801D02*
X212453710Y-568793801D01*
X212453710Y-566294801D02*
X212453710Y-568793801D01*
X212683710Y-570444801D02*
X215223710Y-570444801D01*
X212683710Y-574644801D02*
X213953710Y-574644801D01*
X212683710Y-575344801D02*
X213953710Y-575344801D01*
X213953710Y-573644801D02*
X213953710Y-574644801D01*
X213953710Y-575344801D02*
X213953710Y-578644801D01*
X214453710Y-565944801D02*
X214453710Y-579944801D01*
X214453710Y-565944801D02*
X214453710Y-579944801D01*
X214453710Y-565944801D02*
X219453710Y-565944801D01*
X214453710Y-579944801D02*
X219453710Y-579944801D01*
X214953710Y-573644801D02*
X214953710Y-574644801D01*
X214953710Y-573644801D02*
X218953710Y-573644801D01*
X214953710Y-574644801D02*
X215223710Y-574644801D01*
X214953710Y-575344801D02*
X214953710Y-578644801D01*
X214953710Y-575344801D02*
X215223710Y-575344801D01*
X214953710Y-578644801D02*
X218953710Y-578644801D01*
X216453710Y-566294801D02*
X216453710Y-568793801D01*
X216453710Y-566294801D02*
X217453710Y-566294801D01*
X216453710Y-568793801D02*
X217453710Y-568793801D01*
X217453710Y-566294801D02*
X217453710Y-568793801D01*
X217683710Y-570444801D02*
X220374710Y-570444801D01*
X217683710Y-574644801D02*
X218953710Y-574644801D01*
X217683710Y-575344801D02*
X218953710Y-575344801D01*
X218953710Y-573644801D02*
X218953710Y-574644801D01*
X218953710Y-575344801D02*
X218953710Y-578644801D01*
X219453710Y-565944801D02*
X219453710Y-579944801D01*
X220374710Y-565824801D02*
X220374710Y-580064801D01*
%TO.C,D121*%
X388673710Y-595078135D02*
X390673710Y-595078135D01*
X388673710Y-595078135D02*
X388673710Y-591068135D01*
X390673710Y-595078135D02*
X390673710Y-591068135D01*
%TO.C,J14*%
X147593710Y-579164801D02*
X147593710Y-580404801D01*
X147593710Y-580404801D02*
X148593710Y-580404801D01*
X147833710Y-565924801D02*
X147833710Y-580164801D01*
X147833710Y-565924801D02*
X160374710Y-565924801D01*
X147833710Y-570544801D02*
X150223710Y-570544801D01*
X147833710Y-573344801D02*
X160374710Y-573344801D01*
X147833710Y-579044801D02*
X160374710Y-579044801D01*
X147833710Y-580164801D02*
X160374710Y-580164801D01*
X149453710Y-566044801D02*
X149453710Y-580044801D01*
X149453710Y-566044801D02*
X154453710Y-566044801D01*
X149453710Y-580044801D02*
X154453710Y-580044801D01*
X149953710Y-573744801D02*
X149953710Y-574744801D01*
X149953710Y-573744801D02*
X153953710Y-573744801D01*
X149953710Y-574744801D02*
X150223710Y-574744801D01*
X149953710Y-575444801D02*
X149953710Y-578744801D01*
X149953710Y-575444801D02*
X150223710Y-575444801D01*
X149953710Y-578744801D02*
X153953710Y-578744801D01*
X151453710Y-566394801D02*
X151453710Y-568893801D01*
X151453710Y-566394801D02*
X152453710Y-566394801D01*
X151453710Y-568893801D02*
X152453710Y-568893801D01*
X152453710Y-566394801D02*
X152453710Y-568893801D01*
X152683710Y-570544801D02*
X155223710Y-570544801D01*
X152683710Y-574744801D02*
X153953710Y-574744801D01*
X152683710Y-575444801D02*
X153953710Y-575444801D01*
X153953710Y-573744801D02*
X153953710Y-574744801D01*
X153953710Y-575444801D02*
X153953710Y-578744801D01*
X154453710Y-566044801D02*
X154453710Y-580044801D01*
X154453710Y-566044801D02*
X154453710Y-580044801D01*
X154453710Y-566044801D02*
X159453710Y-566044801D01*
X154453710Y-580044801D02*
X159453710Y-580044801D01*
X154953710Y-573744801D02*
X154953710Y-574744801D01*
X154953710Y-573744801D02*
X158953710Y-573744801D01*
X154953710Y-574744801D02*
X155223710Y-574744801D01*
X154953710Y-575444801D02*
X154953710Y-578744801D01*
X154953710Y-575444801D02*
X155223710Y-575444801D01*
X154953710Y-578744801D02*
X158953710Y-578744801D01*
X156453710Y-566394801D02*
X156453710Y-568893801D01*
X156453710Y-566394801D02*
X157453710Y-566394801D01*
X156453710Y-568893801D02*
X157453710Y-568893801D01*
X157453710Y-566394801D02*
X157453710Y-568893801D01*
X157683710Y-570544801D02*
X160374710Y-570544801D01*
X157683710Y-574744801D02*
X158953710Y-574744801D01*
X157683710Y-575444801D02*
X158953710Y-575444801D01*
X158953710Y-573744801D02*
X158953710Y-574744801D01*
X158953710Y-575444801D02*
X158953710Y-578744801D01*
X159453710Y-566044801D02*
X159453710Y-580044801D01*
X160374710Y-565924801D02*
X160374710Y-580164801D01*
%TO.C,J6*%
X492743710Y-578864801D02*
X492743710Y-580104801D01*
X492743710Y-580104801D02*
X493743710Y-580104801D01*
X492983710Y-565624801D02*
X492983710Y-579864801D01*
X492983710Y-565624801D02*
X505524710Y-565624801D01*
X492983710Y-570244801D02*
X495373710Y-570244801D01*
X492983710Y-573044801D02*
X505524710Y-573044801D01*
X492983710Y-578744801D02*
X505524710Y-578744801D01*
X492983710Y-579864801D02*
X505524710Y-579864801D01*
X494603710Y-565744801D02*
X494603710Y-579744801D01*
X494603710Y-565744801D02*
X499603710Y-565744801D01*
X494603710Y-579744801D02*
X499603710Y-579744801D01*
X495103710Y-573444801D02*
X495103710Y-574444801D01*
X495103710Y-573444801D02*
X499103710Y-573444801D01*
X495103710Y-574444801D02*
X495373710Y-574444801D01*
X495103710Y-575144801D02*
X495103710Y-578444801D01*
X495103710Y-575144801D02*
X495373710Y-575144801D01*
X495103710Y-578444801D02*
X499103710Y-578444801D01*
X496603710Y-566094801D02*
X496603710Y-568593801D01*
X496603710Y-566094801D02*
X497603710Y-566094801D01*
X496603710Y-568593801D02*
X497603710Y-568593801D01*
X497603710Y-566094801D02*
X497603710Y-568593801D01*
X497833710Y-570244801D02*
X500373710Y-570244801D01*
X497833710Y-574444801D02*
X499103710Y-574444801D01*
X497833710Y-575144801D02*
X499103710Y-575144801D01*
X499103710Y-573444801D02*
X499103710Y-574444801D01*
X499103710Y-575144801D02*
X499103710Y-578444801D01*
X499603710Y-565744801D02*
X499603710Y-579744801D01*
X499603710Y-565744801D02*
X499603710Y-579744801D01*
X499603710Y-565744801D02*
X504603710Y-565744801D01*
X499603710Y-579744801D02*
X504603710Y-579744801D01*
X500103710Y-573444801D02*
X500103710Y-574444801D01*
X500103710Y-573444801D02*
X504103710Y-573444801D01*
X500103710Y-574444801D02*
X500373710Y-574444801D01*
X500103710Y-575144801D02*
X500103710Y-578444801D01*
X500103710Y-575144801D02*
X500373710Y-575144801D01*
X500103710Y-578444801D02*
X504103710Y-578444801D01*
X501603710Y-566094801D02*
X501603710Y-568593801D01*
X501603710Y-566094801D02*
X502603710Y-566094801D01*
X501603710Y-568593801D02*
X502603710Y-568593801D01*
X502603710Y-566094801D02*
X502603710Y-568593801D01*
X502833710Y-570244801D02*
X505524710Y-570244801D01*
X502833710Y-574444801D02*
X504103710Y-574444801D01*
X502833710Y-575144801D02*
X504103710Y-575144801D01*
X504103710Y-573444801D02*
X504103710Y-574444801D01*
X504103710Y-575144801D02*
X504103710Y-578444801D01*
X504603710Y-565744801D02*
X504603710Y-579744801D01*
X505524710Y-565624801D02*
X505524710Y-579864801D01*
%TO.C,J113*%
X390143710Y-583448135D02*
X377323710Y-583448135D01*
X390143710Y-583448135D02*
X390143710Y-586048135D01*
X377323710Y-583448135D02*
X377323710Y-588648135D01*
X390143710Y-586048135D02*
X387543710Y-586048135D01*
X387543710Y-586048135D02*
X387543710Y-588648135D01*
X390143710Y-587318135D02*
X390143710Y-588648135D01*
X390143710Y-588648135D02*
X388813710Y-588648135D01*
X387543710Y-588648135D02*
X377323710Y-588648135D01*
%TD*%
M02*
