%TF.GenerationSoftware,KiCad,Pcbnew,7.0.8*%
%TF.CreationDate,2023-11-15T12:31:59+01:00*%
%TF.ProjectId,secondary-board-rev1,7365636f-6e64-4617-9279-2d626f617264,rev?*%
%TF.SameCoordinates,Original*%
%TF.FileFunction,Soldermask,Bot*%
%TF.FilePolarity,Negative*%
%FSLAX46Y46*%
G04 Gerber Fmt 4.6, Leading zero omitted, Abs format (unit mm)*
G04 Created by KiCad (PCBNEW 7.0.8) date 2023-11-15 12:31:59*
%MOMM*%
%LPD*%
G01*
G04 APERTURE LIST*
%ADD10R,1.500000X3.000000*%
%ADD11O,1.500000X3.000000*%
%ADD12C,0.800000*%
%ADD13C,6.400000*%
%ADD14R,1.700000X1.700000*%
%ADD15O,1.700000X1.700000*%
%ADD16R,3.000000X1.500000*%
%ADD17O,3.000000X1.500000*%
G04 APERTURE END LIST*
D10*
%TO.C,J8*%
X436503710Y-570744801D03*
X436503710Y-575744801D03*
D11*
X441503710Y-570744801D03*
X441503710Y-575744801D03*
%TD*%
D12*
%TO.C,H108*%
X438226938Y-656544801D03*
X438929882Y-654847745D03*
X438929882Y-658241857D03*
X440626938Y-654144801D03*
D13*
X440626938Y-656544801D03*
D12*
X440626938Y-658944801D03*
X442323994Y-654847745D03*
X442323994Y-658241857D03*
X443026938Y-656544801D03*
%TD*%
%TO.C,H108*%
X278226938Y-544878135D03*
X278929882Y-543181079D03*
X278929882Y-546575191D03*
X280626938Y-542478135D03*
D13*
X280626938Y-544878135D03*
D12*
X280626938Y-547278135D03*
X282323994Y-543181079D03*
X282323994Y-546575191D03*
X283026938Y-544878135D03*
%TD*%
D10*
%TO.C,J15*%
X196353710Y-571044801D03*
X196353710Y-576044801D03*
D11*
X201353710Y-571044801D03*
X201353710Y-576044801D03*
%TD*%
D14*
%TO.C,J109*%
X148873710Y-587218135D03*
D15*
X148873710Y-584678135D03*
X146333710Y-587218135D03*
X146333710Y-584678135D03*
X143793710Y-587218135D03*
X143793710Y-584678135D03*
X141253710Y-587218135D03*
X141253710Y-584678135D03*
X138713710Y-587218135D03*
X138713710Y-584678135D03*
%TD*%
D10*
%TO.C,J7*%
X451903710Y-570744801D03*
X451903710Y-575744801D03*
D11*
X456903710Y-570744801D03*
X456903710Y-575744801D03*
%TD*%
D10*
%TO.C,J2*%
X137403710Y-570944801D03*
X137403710Y-575944801D03*
D11*
X142403710Y-570944801D03*
X142403710Y-575944801D03*
%TD*%
D12*
%TO.C,H108*%
X438226938Y-707378135D03*
X438929882Y-705681079D03*
X438929882Y-709075191D03*
X440626938Y-704978135D03*
D13*
X440626938Y-707378135D03*
D12*
X440626938Y-709778135D03*
X442323994Y-705681079D03*
X442323994Y-709075191D03*
X443026938Y-707378135D03*
%TD*%
%TO.C,H108*%
X278226938Y-707378135D03*
X278929882Y-705681079D03*
X278929882Y-709075191D03*
X280626938Y-704978135D03*
D13*
X280626938Y-707378135D03*
D12*
X280626938Y-709778135D03*
X282323994Y-705681079D03*
X282323994Y-709075191D03*
X283026938Y-707378135D03*
%TD*%
%TO.C,H108*%
X588226938Y-707378135D03*
X588929882Y-705681079D03*
X588929882Y-709075191D03*
X590626938Y-704978135D03*
D13*
X590626938Y-707378135D03*
D12*
X590626938Y-709778135D03*
X592323994Y-705681079D03*
X592323994Y-709075191D03*
X593026938Y-707378135D03*
%TD*%
%TO.C,H108*%
X118226938Y-544878135D03*
X118929882Y-543181079D03*
X118929882Y-546575191D03*
X120626938Y-542478135D03*
D13*
X120626938Y-544878135D03*
D12*
X120626938Y-547278135D03*
X122323994Y-543181079D03*
X122323994Y-546575191D03*
X123026938Y-544878135D03*
%TD*%
D10*
%TO.C,J17*%
X256353710Y-570844801D03*
X256353710Y-575844801D03*
D11*
X261353710Y-570844801D03*
X261353710Y-575844801D03*
%TD*%
D10*
%TO.C,J3*%
X572203710Y-570644801D03*
X572203710Y-575644801D03*
D11*
X577203710Y-570644801D03*
X577203710Y-575644801D03*
%TD*%
D14*
%TO.C,J116*%
X568533710Y-587418135D03*
D15*
X568533710Y-584878135D03*
X565993710Y-587418135D03*
X565993710Y-584878135D03*
X563453710Y-587418135D03*
X563453710Y-584878135D03*
X560913710Y-587418135D03*
X560913710Y-584878135D03*
X558373710Y-587418135D03*
X558373710Y-584878135D03*
%TD*%
D12*
%TO.C,H108*%
X118226938Y-600711468D03*
X118929882Y-599014412D03*
X118929882Y-602408524D03*
X120626938Y-598311468D03*
D13*
X120626938Y-600711468D03*
D12*
X120626938Y-603111468D03*
X122323994Y-599014412D03*
X122323994Y-602408524D03*
X123026938Y-600711468D03*
%TD*%
D10*
%TO.C,J11*%
X376353710Y-570744801D03*
X376353710Y-575744801D03*
D11*
X381353710Y-570744801D03*
X381353710Y-575744801D03*
%TD*%
D14*
%TO.C,J114*%
X449263710Y-587208135D03*
D15*
X449263710Y-584668135D03*
X446723710Y-587208135D03*
X446723710Y-584668135D03*
X444183710Y-587208135D03*
X444183710Y-584668135D03*
X441643710Y-587208135D03*
X441643710Y-584668135D03*
X439103710Y-587208135D03*
X439103710Y-584668135D03*
%TD*%
D10*
%TO.C,J9*%
X391703710Y-570744801D03*
X391703710Y-575744801D03*
D11*
X396703710Y-570744801D03*
X396703710Y-575744801D03*
%TD*%
D14*
%TO.C,J112*%
X328673710Y-587318135D03*
D15*
X328673710Y-584778135D03*
X326133710Y-587318135D03*
X326133710Y-584778135D03*
X323593710Y-587318135D03*
X323593710Y-584778135D03*
X321053710Y-587318135D03*
X321053710Y-584778135D03*
X318513710Y-587318135D03*
X318513710Y-584778135D03*
%TD*%
D12*
%TO.C,H108*%
X438226938Y-544878135D03*
X438929882Y-543181079D03*
X438929882Y-546575191D03*
X440626938Y-542478135D03*
D13*
X440626938Y-544878135D03*
D12*
X440626938Y-547278135D03*
X442323994Y-543181079D03*
X442323994Y-546575191D03*
X443026938Y-544878135D03*
%TD*%
D10*
%TO.C,J13*%
X316503710Y-570944801D03*
X316503710Y-575944801D03*
D11*
X321503710Y-570944801D03*
X321503710Y-575944801D03*
%TD*%
D12*
%TO.C,H108*%
X278226938Y-656544801D03*
X278929882Y-654847745D03*
X278929882Y-658241857D03*
X280626938Y-654144801D03*
D13*
X280626938Y-656544801D03*
D12*
X280626938Y-658944801D03*
X282323994Y-654847745D03*
X282323994Y-658241857D03*
X283026938Y-656544801D03*
%TD*%
%TO.C,H108*%
X118226938Y-656544801D03*
X118929882Y-654847745D03*
X118929882Y-658241857D03*
X120626938Y-654144801D03*
D13*
X120626938Y-656544801D03*
D12*
X120626938Y-658944801D03*
X122323994Y-654847745D03*
X122323994Y-658241857D03*
X123026938Y-656544801D03*
%TD*%
D10*
%TO.C,J12*%
X331603710Y-570844801D03*
X331603710Y-575844801D03*
D11*
X336603710Y-570844801D03*
X336603710Y-575844801D03*
%TD*%
D12*
%TO.C,H108*%
X278226938Y-600711468D03*
X278929882Y-599014412D03*
X278929882Y-602408524D03*
X280626938Y-598311468D03*
D13*
X280626938Y-600711468D03*
D12*
X280626938Y-603111468D03*
X282323994Y-599014412D03*
X282323994Y-602408524D03*
X283026938Y-600711468D03*
%TD*%
%TO.C,H108*%
X438226938Y-600711468D03*
X438929882Y-599014412D03*
X438929882Y-602408524D03*
X440626938Y-598311468D03*
D13*
X440626938Y-600711468D03*
D12*
X440626938Y-603111468D03*
X442323994Y-599014412D03*
X442323994Y-602408524D03*
X443026938Y-600711468D03*
%TD*%
D10*
%TO.C,J10*%
X271503710Y-570944801D03*
X271503710Y-575944801D03*
D11*
X276503710Y-570944801D03*
X276503710Y-575944801D03*
%TD*%
D12*
%TO.C,H108*%
X118226938Y-707378135D03*
X118929882Y-705681079D03*
X118929882Y-709075191D03*
X120626938Y-704978135D03*
D13*
X120626938Y-707378135D03*
D12*
X120626938Y-709778135D03*
X122323994Y-705681079D03*
X122323994Y-709075191D03*
X123026938Y-707378135D03*
%TD*%
D14*
%TO.C,J111*%
X268893710Y-587418135D03*
D15*
X268893710Y-584878135D03*
X266353710Y-587418135D03*
X266353710Y-584878135D03*
X263813710Y-587418135D03*
X263813710Y-584878135D03*
X261273710Y-587418135D03*
X261273710Y-584878135D03*
X258733710Y-587418135D03*
X258733710Y-584878135D03*
%TD*%
D10*
%TO.C,J4*%
X556303710Y-570644801D03*
X556303710Y-575644801D03*
D11*
X561303710Y-570644801D03*
X561303710Y-575644801D03*
%TD*%
D16*
%TO.C,J203*%
X130843710Y-560528135D03*
X135843710Y-560528135D03*
D17*
X130843710Y-555528135D03*
X135843710Y-555528135D03*
X130843710Y-550528135D03*
X135843710Y-550528135D03*
%TD*%
D14*
%TO.C,J115*%
X508463710Y-587308135D03*
D15*
X508463710Y-584768135D03*
X505923710Y-587308135D03*
X505923710Y-584768135D03*
X503383710Y-587308135D03*
X503383710Y-584768135D03*
X500843710Y-587308135D03*
X500843710Y-584768135D03*
X498303710Y-587308135D03*
X498303710Y-584768135D03*
%TD*%
D14*
%TO.C,J118*%
X170333710Y-604508135D03*
D15*
X172873710Y-604508135D03*
X170333710Y-607048135D03*
X172873710Y-607048135D03*
X170333710Y-609588135D03*
X172873710Y-609588135D03*
X170333710Y-612128135D03*
X172873710Y-612128135D03*
X170333710Y-614668135D03*
X172873710Y-614668135D03*
X170333710Y-617208135D03*
X172873710Y-617208135D03*
X170333710Y-619748135D03*
X172873710Y-619748135D03*
X170333710Y-622288135D03*
X172873710Y-622288135D03*
X170333710Y-624828135D03*
X172873710Y-624828135D03*
X170333710Y-627368135D03*
X172873710Y-627368135D03*
X170333710Y-629908135D03*
X172873710Y-629908135D03*
X170333710Y-632448135D03*
X172873710Y-632448135D03*
X170333710Y-634988135D03*
X172873710Y-634988135D03*
X170333710Y-637528135D03*
X172873710Y-637528135D03*
X170333710Y-640068135D03*
X172873710Y-640068135D03*
X170333710Y-642608135D03*
X172873710Y-642608135D03*
X170333710Y-645148135D03*
X172873710Y-645148135D03*
X170333710Y-647688135D03*
X172873710Y-647688135D03*
X170333710Y-650228135D03*
X172873710Y-650228135D03*
X170333710Y-652768135D03*
X172873710Y-652768135D03*
X170333710Y-655308135D03*
X172873710Y-655308135D03*
X170333710Y-657848135D03*
X172873710Y-657848135D03*
X170333710Y-660388135D03*
X172873710Y-660388135D03*
X170333710Y-662928135D03*
X172873710Y-662928135D03*
X170333710Y-665468135D03*
X172873710Y-665468135D03*
X170333710Y-668008135D03*
X172873710Y-668008135D03*
X170333710Y-670548135D03*
X172873710Y-670548135D03*
X170333710Y-673088135D03*
X172873710Y-673088135D03*
X170333710Y-675628135D03*
X172873710Y-675628135D03*
X170333710Y-678168135D03*
X172873710Y-678168135D03*
X170333710Y-680708135D03*
X172873710Y-680708135D03*
X170333710Y-683248135D03*
X172873710Y-683248135D03*
%TD*%
D14*
%TO.C,JP202*%
X143713710Y-548518135D03*
D15*
X146253710Y-548518135D03*
%TD*%
D10*
%TO.C,J5*%
X511553710Y-570744801D03*
X511553710Y-575744801D03*
D11*
X516553710Y-570744801D03*
X516553710Y-575744801D03*
%TD*%
D12*
%TO.C,H108*%
X588226938Y-600711468D03*
X588929882Y-599014412D03*
X588929882Y-602408524D03*
X590626938Y-598311468D03*
D13*
X590626938Y-600711468D03*
D12*
X590626938Y-603111468D03*
X592323994Y-599014412D03*
X592323994Y-602408524D03*
X593026938Y-600711468D03*
%TD*%
D14*
%TO.C,J110*%
X208833710Y-587218135D03*
D15*
X208833710Y-584678135D03*
X206293710Y-587218135D03*
X206293710Y-584678135D03*
X203753710Y-587218135D03*
X203753710Y-584678135D03*
X201213710Y-587218135D03*
X201213710Y-584678135D03*
X198673710Y-587218135D03*
X198673710Y-584678135D03*
%TD*%
D12*
%TO.C,H108*%
X588226938Y-544878135D03*
X588929882Y-543181079D03*
X588929882Y-546575191D03*
X590626938Y-542478135D03*
D13*
X590626938Y-544878135D03*
D12*
X590626938Y-547278135D03*
X592323994Y-543181079D03*
X592323994Y-546575191D03*
X593026938Y-544878135D03*
%TD*%
D10*
%TO.C,J16*%
X211453710Y-570944801D03*
X211453710Y-575944801D03*
D11*
X216453710Y-570944801D03*
X216453710Y-575944801D03*
%TD*%
D12*
%TO.C,H108*%
X588226938Y-656544801D03*
X588929882Y-654847745D03*
X588929882Y-658241857D03*
X590626938Y-654144801D03*
D13*
X590626938Y-656544801D03*
D12*
X590626938Y-658944801D03*
X592323994Y-654847745D03*
X592323994Y-658241857D03*
X593026938Y-656544801D03*
%TD*%
D10*
%TO.C,J14*%
X151453710Y-571044801D03*
X151453710Y-576044801D03*
D11*
X156453710Y-571044801D03*
X156453710Y-576044801D03*
%TD*%
D10*
%TO.C,J6*%
X496603710Y-570744801D03*
X496603710Y-575744801D03*
D11*
X501603710Y-570744801D03*
X501603710Y-575744801D03*
%TD*%
D14*
%TO.C,J113*%
X388813710Y-587318135D03*
D15*
X388813710Y-584778135D03*
X386273710Y-587318135D03*
X386273710Y-584778135D03*
X383733710Y-587318135D03*
X383733710Y-584778135D03*
X381193710Y-587318135D03*
X381193710Y-584778135D03*
X378653710Y-587318135D03*
X378653710Y-584778135D03*
%TD*%
M02*
