%TF.GenerationSoftware,KiCad,Pcbnew,7.0.8*%
%TF.CreationDate,2023-11-15T14:02:00+01:00*%
%TF.ProjectId,ac-panel-rev1,61632d70-616e-4656-9c2d-726576312e6b,rev?*%
%TF.SameCoordinates,Original*%
%TF.FileFunction,Copper,L4,Bot*%
%TF.FilePolarity,Positive*%
%FSLAX46Y46*%
G04 Gerber Fmt 4.6, Leading zero omitted, Abs format (unit mm)*
G04 Created by KiCad (PCBNEW 7.0.8) date 2023-11-15 14:02:00*
%MOMM*%
%LPD*%
G01*
G04 APERTURE LIST*
%TA.AperFunction,ComponentPad*%
%ADD10C,0.800000*%
%TD*%
%TA.AperFunction,ComponentPad*%
%ADD11C,6.400000*%
%TD*%
G04 APERTURE END LIST*
D10*
%TO.P,H108,1*%
%TO.N,N/C*%
X564000000Y-586050000D03*
X564702944Y-584352944D03*
X564702944Y-587747056D03*
X566400000Y-583650000D03*
D11*
X566400000Y-586050000D03*
D10*
X566400000Y-588450000D03*
X568097056Y-584352944D03*
X568097056Y-587747056D03*
X568800000Y-586050000D03*
%TD*%
%TO.P,H108,1*%
%TO.N,N/C*%
X579950000Y-602050000D03*
X580652944Y-600352944D03*
X580652944Y-603747056D03*
X582350000Y-599650000D03*
D11*
X582350000Y-602050000D03*
D10*
X582350000Y-604450000D03*
X584047056Y-600352944D03*
X584047056Y-603747056D03*
X584750000Y-602050000D03*
%TD*%
%TO.P,H108,1*%
%TO.N,N/C*%
X526000000Y-548050000D03*
X526702944Y-546352944D03*
X526702944Y-549747056D03*
X528400000Y-545650000D03*
D11*
X528400000Y-548050000D03*
D10*
X528400000Y-550450000D03*
X530097056Y-546352944D03*
X530097056Y-549747056D03*
X530800000Y-548050000D03*
%TD*%
%TO.P,H108,1*%
%TO.N,N/C*%
X564000000Y-548050000D03*
X564702944Y-546352944D03*
X564702944Y-549747056D03*
X566400000Y-545650000D03*
D11*
X566400000Y-548050000D03*
D10*
X566400000Y-550450000D03*
X568097056Y-546352944D03*
X568097056Y-549747056D03*
X568800000Y-548050000D03*
%TD*%
%TO.P,H108,1*%
%TO.N,N/C*%
X526000000Y-586050000D03*
X526702944Y-584352944D03*
X526702944Y-587747056D03*
X528400000Y-583650000D03*
D11*
X528400000Y-586050000D03*
D10*
X528400000Y-588450000D03*
X530097056Y-584352944D03*
X530097056Y-587747056D03*
X530800000Y-586050000D03*
%TD*%
%TO.P,H108,1*%
%TO.N,N/C*%
X509950000Y-602050000D03*
X510652944Y-600352944D03*
X510652944Y-603747056D03*
X512350000Y-599650000D03*
D11*
X512350000Y-602050000D03*
D10*
X512350000Y-604450000D03*
X514047056Y-600352944D03*
X514047056Y-603747056D03*
X514750000Y-602050000D03*
%TD*%
%TO.P,H108,1*%
%TO.N,N/C*%
X579950000Y-472050000D03*
X580652944Y-470352944D03*
X580652944Y-473747056D03*
X582350000Y-469650000D03*
D11*
X582350000Y-472050000D03*
D10*
X582350000Y-474450000D03*
X584047056Y-470352944D03*
X584047056Y-473747056D03*
X584750000Y-472050000D03*
%TD*%
%TO.P,H108,1*%
%TO.N,N/C*%
X509902944Y-471997056D03*
X510605888Y-470300000D03*
X510605888Y-473694112D03*
X512302944Y-469597056D03*
D11*
X512302944Y-471997056D03*
D10*
X512302944Y-474397056D03*
X514000000Y-470300000D03*
X514000000Y-473694112D03*
X514702944Y-471997056D03*
%TD*%
%TO.P,H108,1*%
%TO.N,N/C*%
X579950000Y-537050000D03*
X580652944Y-535352944D03*
X580652944Y-538747056D03*
X582350000Y-534650000D03*
D11*
X582350000Y-537050000D03*
D10*
X582350000Y-539450000D03*
X584047056Y-535352944D03*
X584047056Y-538747056D03*
X584750000Y-537050000D03*
%TD*%
%TO.P,H108,1*%
%TO.N,N/C*%
X570500000Y-507050000D03*
X571202944Y-505352944D03*
X571202944Y-508747056D03*
X572900000Y-504650000D03*
D11*
X572900000Y-507050000D03*
D10*
X572900000Y-509450000D03*
X574597056Y-505352944D03*
X574597056Y-508747056D03*
X575300000Y-507050000D03*
%TD*%
%TO.P,H108,1*%
%TO.N,N/C*%
X509950000Y-537050000D03*
X510652944Y-535352944D03*
X510652944Y-538747056D03*
X512350000Y-534650000D03*
D11*
X512350000Y-537050000D03*
D10*
X512350000Y-539450000D03*
X514047056Y-535352944D03*
X514047056Y-538747056D03*
X514750000Y-537050000D03*
%TD*%
%TO.P,H108,1*%
%TO.N,N/C*%
X519500000Y-507050000D03*
X520202944Y-505352944D03*
X520202944Y-508747056D03*
X521900000Y-504650000D03*
D11*
X521900000Y-507050000D03*
D10*
X521900000Y-509450000D03*
X523597056Y-505352944D03*
X523597056Y-508747056D03*
X524300000Y-507050000D03*
%TD*%
M02*
