M48
; DRILL file {KiCad 7.0.8} date Wed 15 Nov 2023 02:01:55 PM CET
; FORMAT={-:-/ absolute / metric / decimal}
; #@! TF.CreationDate,2023-11-15T14:01:55+01:00
; #@! TF.GenerationSoftware,Kicad,Pcbnew,7.0.8
; #@! TF.FileFunction,MixedPlating,1,4
FMAT,2
METRIC
; #@! TA.AperFunction,Plated,PTH,ComponentDrill
T1C0.500
; #@! TA.AperFunction,Plated,PTH,ComponentDrill
T2C3.200
%
G90
G05
T1
X509.903Y-471.997
X509.95Y-537.05
X509.95Y-602.05
X510.606Y-470.3
X510.606Y-473.694
X510.653Y-535.353
X510.653Y-538.747
X510.653Y-600.353
X510.653Y-603.747
X512.303Y-469.597
X512.303Y-474.397
X512.35Y-534.65
X512.35Y-539.45
X512.35Y-599.65
X512.35Y-604.45
X514.0Y-470.3
X514.0Y-473.694
X514.047Y-535.353
X514.047Y-538.747
X514.047Y-600.353
X514.047Y-603.747
X514.703Y-471.997
X514.75Y-537.05
X514.75Y-602.05
X519.5Y-507.05
X520.203Y-505.353
X520.203Y-508.747
X521.9Y-504.65
X521.9Y-509.45
X523.597Y-505.353
X523.597Y-508.747
X524.3Y-507.05
X526.0Y-548.05
X526.0Y-586.05
X526.703Y-546.353
X526.703Y-549.747
X526.703Y-584.353
X526.703Y-587.747
X528.4Y-545.65
X528.4Y-550.45
X528.4Y-583.65
X528.4Y-588.45
X530.097Y-546.353
X530.097Y-549.747
X530.097Y-584.353
X530.097Y-587.747
X530.8Y-548.05
X530.8Y-586.05
X564.0Y-548.05
X564.0Y-586.05
X564.703Y-546.353
X564.703Y-549.747
X564.703Y-584.353
X564.703Y-587.747
X566.4Y-545.65
X566.4Y-550.45
X566.4Y-583.65
X566.4Y-588.45
X568.097Y-546.353
X568.097Y-549.747
X568.097Y-584.353
X568.097Y-587.747
X568.8Y-548.05
X568.8Y-586.05
X570.5Y-507.05
X571.203Y-505.353
X571.203Y-508.747
X572.9Y-504.65
X572.9Y-509.45
X574.597Y-505.353
X574.597Y-508.747
X575.3Y-507.05
X579.95Y-472.05
X579.95Y-537.05
X579.95Y-602.05
X580.653Y-470.353
X580.653Y-473.747
X580.653Y-535.353
X580.653Y-538.747
X580.653Y-600.353
X580.653Y-603.747
X582.35Y-469.65
X582.35Y-474.45
X582.35Y-534.65
X582.35Y-539.45
X582.35Y-599.65
X582.35Y-604.45
X584.047Y-470.353
X584.047Y-473.747
X584.047Y-535.353
X584.047Y-538.747
X584.047Y-600.353
X584.047Y-603.747
X584.75Y-472.05
X584.75Y-537.05
X584.75Y-602.05
T2
X512.303Y-471.997
X512.35Y-537.05
X512.35Y-602.05
X521.9Y-507.05
X528.4Y-548.05
X528.4Y-586.05
X566.4Y-548.05
X566.4Y-586.05
X572.9Y-507.05
X582.35Y-472.05
X582.35Y-537.05
X582.35Y-602.05
T0
M30
