M48
; DRILL file {KiCad 7.0.8} date Thu 16 Nov 2023 11:59:41 AM CET
; FORMAT={-:-/ absolute / metric / decimal}
; #@! TF.CreationDate,2023-11-16T11:59:41+01:00
; #@! TF.GenerationSoftware,Kicad,Pcbnew,7.0.8
; #@! TF.FileFunction,MixedPlating,1,4
FMAT,2
METRIC
; #@! TA.AperFunction,Plated,PTH,ViaDrill
T1C0.250
; #@! TA.AperFunction,Plated,PTH,ViaDrill
T2C0.300
; #@! TA.AperFunction,Plated,PTH,ViaDrill
T3C0.400
; #@! TA.AperFunction,Plated,PTH,ComponentDrill
T4C0.500
; #@! TA.AperFunction,Plated,PTH,ComponentDrill
T5C1.000
; #@! TA.AperFunction,Plated,PTH,ComponentDrill
T6C1.150
; #@! TA.AperFunction,Plated,PTH,ComponentDrill
T7C3.200
%
G90
G05
T1
X90.613Y-648.91
X90.613Y-651.45
X90.613Y-653.99
X90.613Y-656.53
X90.613Y-659.07
X90.613Y-661.61
X90.613Y-664.15
X90.613Y-666.69
X90.613Y-669.23
X90.613Y-671.77
X90.613Y-674.31
X90.613Y-676.85
X90.613Y-679.39
X90.613Y-681.93
X90.613Y-684.47
X90.613Y-687.01
X90.613Y-689.55
X90.613Y-692.09
X90.613Y-694.63
X90.613Y-704.79
X90.613Y-707.33
X90.613Y-709.87
X90.613Y-712.41
X90.613Y-714.95
X90.613Y-717.49
X90.613Y-720.03
X90.613Y-722.57
X90.613Y-725.11
X90.613Y-727.65
X90.613Y-730.19
X90.613Y-732.73
X90.613Y-735.27
X90.613Y-737.81
X90.613Y-740.35
X90.613Y-742.89
X90.613Y-745.43
X90.613Y-747.97
X90.613Y-750.51
X90.613Y-763.21
X90.613Y-765.75
X90.613Y-768.29
X90.613Y-770.83
X90.613Y-773.37
X90.613Y-775.91
X90.613Y-778.45
X90.613Y-780.99
X90.613Y-783.53
X90.613Y-786.07
X90.613Y-788.61
X90.613Y-791.15
X90.613Y-793.69
X90.613Y-796.23
X90.613Y-798.77
X90.613Y-801.31
X93.153Y-648.91
X93.153Y-651.45
X93.153Y-653.99
X93.153Y-656.53
X93.153Y-659.07
X93.153Y-661.61
X93.153Y-664.15
X93.153Y-666.69
X93.153Y-669.23
X93.153Y-671.77
X93.153Y-674.31
X93.153Y-676.85
X93.153Y-679.39
X93.153Y-681.93
X93.153Y-684.47
X93.153Y-687.01
X93.153Y-689.55
X93.153Y-692.09
X93.153Y-694.63
X93.153Y-704.79
X93.153Y-707.33
X93.153Y-709.87
X93.153Y-712.41
X93.153Y-714.95
X93.153Y-717.49
X93.153Y-720.03
X93.153Y-722.57
X93.153Y-725.11
X93.153Y-727.65
X93.153Y-730.19
X93.153Y-732.73
X93.153Y-735.27
X93.153Y-737.81
X93.153Y-740.35
X93.153Y-742.89
X93.153Y-745.43
X93.153Y-747.97
X93.153Y-763.21
X93.153Y-765.75
X93.153Y-768.29
X93.153Y-770.83
X93.153Y-773.37
X93.153Y-775.91
X93.153Y-778.45
X93.153Y-780.99
X93.153Y-783.53
X93.153Y-786.07
X93.153Y-788.61
X93.153Y-791.15
X93.153Y-793.69
X93.153Y-796.23
X93.153Y-798.77
X93.153Y-801.31
X95.693Y-643.83
X95.693Y-646.37
X95.693Y-648.91
X95.693Y-651.45
X95.693Y-653.99
X95.693Y-656.53
X95.693Y-659.07
X95.693Y-661.61
X95.693Y-664.15
X95.693Y-666.69
X95.693Y-669.23
X95.693Y-671.77
X95.693Y-674.31
X95.693Y-676.85
X95.693Y-679.39
X95.693Y-681.93
X95.693Y-684.47
X95.693Y-687.01
X95.693Y-689.55
X95.693Y-692.09
X95.693Y-694.63
X95.693Y-697.17
X95.693Y-699.71
X95.693Y-702.25
X95.693Y-704.79
X95.693Y-707.33
X95.693Y-709.87
X95.693Y-712.41
X95.693Y-714.95
X95.693Y-717.49
X95.693Y-720.03
X95.693Y-722.57
X95.693Y-725.11
X95.693Y-727.65
X95.693Y-730.19
X95.693Y-732.73
X95.693Y-735.27
X95.693Y-737.81
X95.693Y-740.35
X95.693Y-742.89
X95.693Y-745.43
X95.693Y-747.97
X95.693Y-753.05
X95.693Y-763.21
X95.693Y-765.75
X95.693Y-768.29
X95.693Y-770.83
X95.693Y-773.37
X95.693Y-775.91
X95.693Y-778.45
X95.693Y-780.99
X95.693Y-783.53
X95.693Y-786.07
X95.693Y-788.61
X95.693Y-791.15
X95.693Y-793.69
X95.693Y-796.23
X95.693Y-798.77
X95.693Y-801.31
X95.693Y-803.85
X95.693Y-806.39
X98.233Y-643.83
X98.233Y-646.37
X98.233Y-648.91
X98.233Y-664.15
X98.233Y-666.69
X98.233Y-669.23
X98.233Y-671.77
X98.233Y-674.31
X98.233Y-676.85
X98.233Y-679.39
X98.233Y-681.93
X98.233Y-684.47
X98.233Y-687.01
X98.233Y-689.55
X98.233Y-692.09
X98.233Y-694.63
X98.233Y-697.17
X98.233Y-699.71
X98.233Y-702.25
X98.233Y-704.79
X98.233Y-707.33
X98.233Y-709.87
X98.233Y-712.41
X98.233Y-714.95
X98.233Y-717.49
X98.233Y-720.03
X98.233Y-722.57
X98.233Y-725.11
X98.233Y-727.65
X98.233Y-730.19
X98.233Y-732.73
X98.233Y-735.27
X98.233Y-737.81
X98.233Y-740.35
X98.233Y-742.89
X98.233Y-745.43
X98.233Y-747.97
X98.233Y-750.51
X98.233Y-753.05
X98.233Y-755.59
X98.233Y-758.13
X98.233Y-760.67
X98.233Y-763.21
X98.233Y-765.75
X98.233Y-768.29
X98.233Y-770.83
X98.233Y-773.37
X98.233Y-775.91
X98.233Y-778.45
X98.233Y-780.99
X98.233Y-783.53
X98.233Y-786.07
X98.233Y-788.61
X98.233Y-791.15
X98.233Y-793.69
X98.233Y-796.23
X98.233Y-798.77
X98.233Y-801.31
X98.233Y-803.85
X98.233Y-806.39
X100.773Y-643.83
X100.773Y-646.37
X100.773Y-664.15
X100.773Y-666.69
X100.773Y-669.23
X100.773Y-671.77
X100.773Y-674.31
X100.773Y-676.85
X100.773Y-679.39
X100.773Y-681.93
X100.773Y-684.47
X100.773Y-687.01
X100.773Y-689.55
X100.773Y-692.09
X100.773Y-694.63
X100.773Y-697.17
X100.773Y-699.71
X100.773Y-702.25
X100.773Y-704.79
X100.773Y-707.33
X100.773Y-709.87
X100.773Y-712.41
X100.773Y-714.95
X100.773Y-717.49
X100.773Y-720.03
X100.773Y-722.57
X100.773Y-725.11
X100.773Y-727.65
X100.773Y-730.19
X100.773Y-732.73
X100.773Y-735.27
X100.773Y-737.81
X100.773Y-740.35
X100.773Y-742.89
X100.773Y-745.43
X100.773Y-747.97
X100.773Y-750.51
X100.773Y-753.05
X100.773Y-755.59
X100.773Y-758.13
X100.773Y-760.67
X100.773Y-763.21
X100.773Y-765.75
X100.773Y-768.29
X100.773Y-770.83
X100.773Y-773.37
X100.773Y-775.91
X100.773Y-778.45
X100.773Y-780.99
X100.773Y-783.53
X100.773Y-786.07
X100.773Y-788.61
X100.773Y-791.15
X100.773Y-793.69
X100.773Y-796.23
X100.773Y-798.77
X100.773Y-801.31
X100.773Y-803.85
X100.773Y-806.39
X103.313Y-643.83
X103.313Y-646.37
X103.313Y-664.15
X103.313Y-666.69
X103.313Y-669.23
X103.313Y-671.77
X103.313Y-674.31
X103.313Y-676.85
X103.313Y-679.39
X103.313Y-681.93
X103.313Y-684.47
X103.313Y-687.01
X103.313Y-689.55
X103.313Y-692.09
X103.313Y-694.63
X103.313Y-697.17
X103.313Y-699.71
X103.313Y-702.25
X103.313Y-704.79
X103.313Y-707.33
X103.313Y-709.87
X103.313Y-712.41
X103.313Y-714.95
X103.313Y-717.49
X103.313Y-720.03
X103.313Y-722.57
X103.313Y-725.11
X103.313Y-727.65
X103.313Y-730.19
X103.313Y-732.73
X103.313Y-735.27
X103.313Y-737.81
X103.313Y-740.35
X103.313Y-742.89
X103.313Y-745.43
X103.313Y-747.97
X103.313Y-750.51
X103.313Y-753.05
X103.313Y-755.59
X103.313Y-758.13
X103.313Y-760.67
X103.313Y-763.21
X103.313Y-765.75
X103.313Y-768.29
X103.313Y-770.83
X103.313Y-773.37
X103.313Y-775.91
X103.313Y-778.45
X103.313Y-780.99
X103.313Y-783.53
X103.313Y-786.07
X103.313Y-788.61
X103.313Y-791.15
X103.313Y-793.69
X103.313Y-796.23
X103.313Y-798.77
X103.313Y-801.31
X103.313Y-803.85
X103.313Y-806.39
X105.853Y-643.83
X105.853Y-646.37
X105.853Y-681.93
X105.853Y-694.63
X105.853Y-697.17
X105.853Y-699.71
X105.853Y-702.25
X105.853Y-704.79
X105.853Y-707.33
X105.853Y-709.87
X105.853Y-712.41
X105.853Y-714.95
X105.853Y-717.49
X105.853Y-720.03
X105.853Y-722.57
X105.853Y-725.11
X105.853Y-727.65
X105.853Y-730.19
X105.853Y-732.73
X105.853Y-735.27
X105.853Y-737.81
X105.853Y-740.35
X105.853Y-742.89
X105.853Y-745.43
X105.853Y-747.97
X105.853Y-750.51
X105.853Y-753.05
X105.853Y-755.59
X105.853Y-758.13
X105.853Y-760.67
X105.853Y-763.21
X105.853Y-765.75
X105.853Y-768.29
X105.853Y-770.83
X105.853Y-773.37
X105.853Y-775.91
X105.853Y-778.45
X105.853Y-780.99
X105.853Y-783.53
X105.853Y-786.07
X105.853Y-788.61
X105.853Y-791.15
X105.853Y-793.69
X105.853Y-796.23
X105.853Y-798.77
X105.853Y-801.31
X105.853Y-803.85
X105.853Y-806.39
X108.393Y-643.83
X108.393Y-646.37
X108.393Y-697.17
X108.393Y-699.71
X108.393Y-702.25
X108.393Y-704.79
X108.393Y-707.33
X108.393Y-709.87
X108.393Y-712.41
X108.393Y-714.95
X108.393Y-730.19
X108.393Y-732.73
X108.393Y-735.27
X108.393Y-737.81
X108.393Y-740.35
X108.393Y-742.89
X108.393Y-745.43
X108.393Y-747.97
X108.393Y-750.51
X108.393Y-753.05
X108.393Y-755.59
X108.393Y-758.13
X108.393Y-760.67
X108.393Y-763.21
X108.393Y-765.75
X108.393Y-768.29
X108.393Y-770.83
X108.393Y-773.37
X108.393Y-775.91
X108.393Y-778.45
X108.393Y-780.99
X108.393Y-783.53
X108.393Y-786.07
X108.393Y-788.61
X108.393Y-791.15
X108.393Y-793.69
X108.393Y-796.23
X108.393Y-798.77
X108.393Y-801.31
X108.393Y-803.85
X108.393Y-806.39
X110.933Y-643.83
X110.933Y-646.37
X110.933Y-699.71
X110.933Y-702.25
X110.933Y-704.79
X110.933Y-707.33
X110.933Y-709.87
X110.933Y-712.41
X110.933Y-714.95
X110.933Y-730.19
X110.933Y-732.73
X110.933Y-735.27
X110.933Y-737.81
X110.933Y-740.35
X110.933Y-742.89
X110.933Y-745.43
X110.933Y-747.97
X110.933Y-750.51
X110.933Y-753.05
X110.933Y-755.59
X110.933Y-758.13
X110.933Y-760.67
X110.933Y-763.21
X110.933Y-765.75
X110.933Y-768.29
X110.933Y-770.83
X110.933Y-773.37
X110.933Y-775.91
X110.933Y-778.45
X110.933Y-780.99
X110.933Y-783.53
X110.933Y-786.07
X110.933Y-788.61
X110.933Y-791.15
X110.933Y-793.69
X110.933Y-796.23
X110.933Y-798.77
X110.933Y-801.31
X110.933Y-803.85
X110.933Y-806.39
X113.473Y-643.83
X113.473Y-702.25
X113.473Y-704.79
X113.473Y-707.33
X113.473Y-709.87
X113.473Y-712.41
X113.473Y-714.95
X113.473Y-717.49
X113.473Y-730.19
X113.473Y-732.73
X113.473Y-735.27
X113.473Y-737.81
X113.473Y-740.35
X113.473Y-742.89
X113.473Y-745.43
X113.473Y-747.97
X113.473Y-750.51
X113.473Y-753.05
X113.473Y-755.59
X113.473Y-758.13
X113.473Y-760.67
X113.473Y-763.21
X113.473Y-765.75
X113.473Y-768.29
X113.473Y-770.83
X113.473Y-773.37
X113.473Y-775.91
X113.473Y-778.45
X113.473Y-780.99
X113.473Y-783.53
X113.473Y-786.07
X113.473Y-788.61
X113.473Y-791.15
X113.473Y-793.69
X113.473Y-796.23
X113.473Y-798.77
X113.473Y-801.31
X113.473Y-803.85
X113.473Y-806.39
X116.013Y-643.83
X116.013Y-648.91
X116.013Y-689.55
X116.013Y-704.79
X116.013Y-707.33
X116.013Y-709.87
X116.013Y-712.41
X116.013Y-714.95
X116.013Y-717.49
X116.013Y-730.19
X116.013Y-732.73
X116.013Y-735.27
X116.013Y-737.81
X116.013Y-740.35
X116.013Y-742.89
X116.013Y-745.43
X116.013Y-747.97
X116.013Y-750.51
X116.013Y-753.05
X116.013Y-755.59
X116.013Y-758.13
X116.013Y-760.67
X116.013Y-763.21
X116.013Y-765.75
X116.013Y-768.29
X116.013Y-770.83
X116.013Y-773.37
X116.013Y-775.91
X116.013Y-778.45
X116.013Y-780.99
X116.013Y-783.53
X116.013Y-786.07
X116.013Y-788.61
X116.013Y-791.15
X116.013Y-793.69
X116.013Y-796.23
X116.013Y-798.77
X116.013Y-801.31
X116.013Y-803.85
X116.013Y-806.39
X118.553Y-643.83
X118.553Y-646.37
X118.553Y-648.91
X118.553Y-666.69
X118.553Y-669.23
X118.553Y-671.77
X118.553Y-674.31
X118.553Y-676.85
X118.553Y-679.39
X118.553Y-689.55
X118.553Y-707.33
X118.553Y-709.87
X118.553Y-712.41
X118.553Y-714.95
X118.553Y-717.49
X118.553Y-720.03
X118.553Y-722.57
X118.553Y-725.11
X118.553Y-727.65
X118.553Y-730.19
X118.553Y-732.73
X118.553Y-735.27
X118.553Y-737.81
X118.553Y-740.35
X118.553Y-742.89
X118.553Y-745.43
X118.553Y-747.97
X118.553Y-750.51
X118.553Y-753.05
X118.553Y-755.59
X118.553Y-758.13
X118.553Y-760.67
X118.553Y-763.21
X118.553Y-765.75
X118.553Y-768.29
X118.553Y-770.83
X118.553Y-773.37
X118.553Y-775.91
X118.553Y-778.45
X118.553Y-780.99
X118.553Y-783.53
X118.553Y-786.07
X118.553Y-788.61
X118.553Y-791.15
X118.553Y-793.69
X118.553Y-796.23
X118.553Y-798.77
X118.553Y-801.31
X118.553Y-803.85
X118.553Y-806.39
X121.093Y-643.83
X121.093Y-646.37
X121.093Y-648.91
X121.093Y-709.87
X121.093Y-714.95
X121.093Y-717.49
X121.093Y-720.03
X121.093Y-722.57
X121.093Y-725.11
X121.093Y-727.65
X121.093Y-730.19
X121.093Y-732.73
X121.093Y-735.27
X121.093Y-737.81
X121.093Y-740.35
X121.093Y-742.89
X121.093Y-745.43
X121.093Y-747.97
X121.093Y-750.51
X121.093Y-753.05
X121.093Y-755.59
X121.093Y-758.13
X121.093Y-763.21
X121.093Y-765.75
X121.093Y-768.29
X121.093Y-770.83
X121.093Y-773.37
X121.093Y-775.91
X121.093Y-778.45
X121.093Y-780.99
X121.093Y-783.53
X121.093Y-786.07
X121.093Y-788.61
X121.093Y-791.15
X121.093Y-793.69
X121.093Y-796.23
X121.093Y-798.77
X121.093Y-801.31
X121.093Y-803.85
X121.093Y-806.39
X123.633Y-643.83
X123.633Y-646.37
X123.633Y-648.91
X123.633Y-684.47
X123.633Y-687.01
X123.633Y-689.55
X123.633Y-714.95
X123.633Y-717.49
X123.633Y-720.03
X123.633Y-722.57
X123.633Y-725.11
X123.633Y-727.65
X123.633Y-730.19
X123.633Y-732.73
X123.633Y-735.27
X123.633Y-737.81
X123.633Y-740.35
X123.633Y-742.89
X123.633Y-745.43
X123.633Y-747.97
X123.633Y-750.51
X123.633Y-753.05
X123.633Y-755.59
X123.633Y-765.75
X123.633Y-768.29
X123.633Y-770.83
X123.633Y-773.37
X123.633Y-775.91
X123.633Y-778.45
X123.633Y-780.99
X123.633Y-783.53
X123.633Y-786.07
X123.633Y-788.61
X123.633Y-791.15
X123.633Y-793.69
X123.633Y-796.23
X123.633Y-798.77
X123.633Y-801.31
X123.633Y-803.85
X123.633Y-806.39
X126.173Y-643.83
X126.173Y-646.37
X126.173Y-648.91
X126.173Y-684.47
X126.173Y-687.01
X126.173Y-689.55
X126.173Y-697.17
X126.173Y-714.95
X126.173Y-717.49
X126.173Y-720.03
X126.173Y-722.57
X126.173Y-725.11
X126.173Y-727.65
X126.173Y-730.19
X126.173Y-732.73
X126.173Y-735.27
X126.173Y-737.81
X126.173Y-740.35
X126.173Y-742.89
X126.173Y-745.43
X126.173Y-747.97
X126.173Y-750.51
X126.173Y-753.05
X126.173Y-755.59
X126.173Y-765.75
X126.173Y-768.29
X126.173Y-770.83
X126.173Y-773.37
X126.173Y-775.91
X126.173Y-778.45
X126.173Y-780.99
X126.173Y-783.53
X126.173Y-786.07
X126.173Y-788.61
X126.173Y-791.15
X126.173Y-793.69
X126.173Y-796.23
X126.173Y-798.77
X126.173Y-801.31
X126.173Y-803.85
X126.173Y-806.39
X128.713Y-643.83
X128.713Y-646.37
X128.713Y-648.91
X128.713Y-684.47
X128.713Y-687.01
X128.713Y-689.55
X128.713Y-697.17
X128.713Y-699.71
X128.713Y-717.49
X128.713Y-720.03
X128.713Y-722.57
X128.713Y-725.11
X128.713Y-727.65
X128.713Y-730.19
X128.713Y-732.73
X128.713Y-735.27
X128.713Y-737.81
X128.713Y-740.35
X128.713Y-742.89
X128.713Y-745.43
X128.713Y-747.97
X128.713Y-750.51
X128.713Y-753.05
X128.713Y-755.59
X128.713Y-765.75
X128.713Y-768.29
X128.713Y-770.83
X128.713Y-773.37
X128.713Y-775.91
X128.713Y-778.45
X128.713Y-780.99
X128.713Y-783.53
X128.713Y-786.07
X128.713Y-788.61
X128.713Y-791.15
X128.713Y-793.69
X128.713Y-796.23
X128.713Y-798.77
X128.713Y-801.31
X128.713Y-803.85
X128.713Y-806.39
X131.253Y-643.83
X131.253Y-646.37
X131.253Y-648.91
X131.253Y-684.47
X131.253Y-687.01
X131.253Y-689.55
X131.253Y-697.17
X131.253Y-699.71
X131.253Y-702.25
X131.253Y-720.03
X131.253Y-722.57
X131.253Y-725.11
X131.253Y-727.65
X131.253Y-730.19
X131.253Y-732.73
X131.253Y-735.27
X131.253Y-737.81
X131.253Y-740.35
X131.253Y-742.89
X131.253Y-745.43
X131.253Y-747.97
X131.253Y-750.51
X131.253Y-753.05
X131.253Y-755.59
X131.253Y-760.67
X131.253Y-763.21
X131.253Y-765.75
X131.253Y-768.29
X131.253Y-770.83
X131.253Y-773.37
X131.253Y-775.91
X131.253Y-778.45
X131.253Y-780.99
X131.253Y-783.53
X131.253Y-786.07
X131.253Y-788.61
X131.253Y-791.15
X131.253Y-793.69
X131.253Y-796.23
X131.253Y-798.77
X131.253Y-801.31
X131.253Y-803.85
X131.253Y-806.39
X133.793Y-643.83
X133.793Y-646.37
X133.793Y-648.91
X133.793Y-666.69
X133.793Y-669.23
X133.793Y-671.77
X133.793Y-674.31
X133.793Y-676.85
X133.793Y-679.39
X133.793Y-684.47
X133.793Y-687.01
X133.793Y-689.55
X133.793Y-697.17
X133.793Y-699.71
X133.793Y-702.25
X133.793Y-704.79
X133.793Y-722.57
X133.793Y-725.11
X133.793Y-727.65
X133.793Y-730.19
X133.793Y-732.73
X133.793Y-735.27
X133.793Y-737.81
X133.793Y-740.35
X133.793Y-742.89
X133.793Y-745.43
X133.793Y-747.97
X133.793Y-750.51
X133.793Y-753.05
X133.793Y-755.59
X133.793Y-758.13
X133.793Y-760.67
X133.793Y-763.21
X133.793Y-765.75
X133.793Y-768.29
X133.793Y-770.83
X133.793Y-773.37
X133.793Y-775.91
X133.793Y-778.45
X133.793Y-780.99
X133.793Y-783.53
X133.793Y-786.07
X133.793Y-788.61
X133.793Y-791.15
X133.793Y-793.69
X133.793Y-796.23
X133.793Y-798.77
X133.793Y-801.31
X133.793Y-803.85
X133.793Y-806.39
X136.333Y-643.83
X136.333Y-646.37
X136.333Y-648.91
X136.333Y-666.69
X136.333Y-669.23
X136.333Y-671.77
X136.333Y-674.31
X136.333Y-676.85
X136.333Y-679.39
X136.333Y-684.47
X136.333Y-687.01
X136.333Y-689.55
X136.333Y-697.17
X136.333Y-699.71
X136.333Y-702.25
X136.333Y-704.79
X136.333Y-707.33
X136.333Y-725.11
X136.333Y-727.65
X136.333Y-730.19
X136.333Y-732.73
X136.333Y-735.27
X136.333Y-737.81
X136.333Y-740.35
X136.333Y-742.89
X136.333Y-745.43
X136.333Y-747.97
X136.333Y-750.51
X136.333Y-753.05
X136.333Y-755.59
X136.333Y-758.13
X136.333Y-760.67
X136.333Y-763.21
X136.333Y-765.75
X136.333Y-768.29
X136.333Y-770.83
X136.333Y-773.37
X136.333Y-775.91
X136.333Y-778.45
X136.333Y-780.99
X136.333Y-783.53
X136.333Y-786.07
X136.333Y-788.61
X136.333Y-791.15
X136.333Y-793.69
X136.333Y-796.23
X136.333Y-798.77
X136.333Y-801.31
X136.333Y-803.85
X136.333Y-806.39
X138.873Y-643.83
X138.873Y-646.37
X138.873Y-648.91
X138.873Y-666.69
X138.873Y-669.23
X138.873Y-671.77
X138.873Y-674.31
X138.873Y-676.85
X138.873Y-679.39
X138.873Y-684.47
X138.873Y-687.01
X138.873Y-689.55
X138.873Y-697.17
X138.873Y-699.71
X138.873Y-702.25
X138.873Y-704.79
X138.873Y-707.33
X138.873Y-709.87
X138.873Y-727.65
X138.873Y-730.19
X138.873Y-732.73
X138.873Y-735.27
X138.873Y-737.81
X138.873Y-740.35
X138.873Y-742.89
X138.873Y-745.43
X138.873Y-747.97
X138.873Y-750.51
X138.873Y-753.05
X138.873Y-755.59
X138.873Y-758.13
X138.873Y-760.67
X138.873Y-763.21
X138.873Y-765.75
X138.873Y-768.29
X138.873Y-770.83
X138.873Y-773.37
X138.873Y-775.91
X138.873Y-778.45
X138.873Y-780.99
X138.873Y-783.53
X138.873Y-786.07
X138.873Y-788.61
X138.873Y-791.15
X138.873Y-793.69
X138.873Y-796.23
X138.873Y-798.77
X138.873Y-801.31
X138.873Y-803.85
X138.873Y-806.39
X141.413Y-643.83
X141.413Y-646.37
X141.413Y-648.91
X141.413Y-666.69
X141.413Y-669.23
X141.413Y-671.77
X141.413Y-674.31
X141.413Y-676.85
X141.413Y-679.39
X141.413Y-684.47
X141.413Y-687.01
X141.413Y-689.55
X141.413Y-697.17
X141.413Y-699.71
X141.413Y-702.25
X141.413Y-704.79
X141.413Y-707.33
X141.413Y-709.87
X141.413Y-712.41
X141.413Y-722.57
X141.413Y-730.19
X141.413Y-732.73
X141.413Y-735.27
X141.413Y-737.81
X141.413Y-740.35
X141.413Y-742.89
X141.413Y-745.43
X141.413Y-747.97
X141.413Y-750.51
X141.413Y-753.05
X141.413Y-755.59
X141.413Y-758.13
X141.413Y-760.67
X141.413Y-763.21
X141.413Y-765.75
X141.413Y-768.29
X141.413Y-770.83
X141.413Y-773.37
X141.413Y-775.91
X141.413Y-778.45
X141.413Y-780.99
X141.413Y-783.53
X141.413Y-786.07
X141.413Y-788.61
X141.413Y-791.15
X141.413Y-793.69
X141.413Y-796.23
X141.413Y-798.77
X141.413Y-801.31
X141.413Y-803.85
X141.413Y-806.39
X143.953Y-643.83
X143.953Y-646.37
X143.953Y-648.91
X143.953Y-666.69
X143.953Y-669.23
X143.953Y-671.77
X143.953Y-674.31
X143.953Y-676.85
X143.953Y-679.39
X143.953Y-684.47
X143.953Y-687.01
X143.953Y-689.55
X143.953Y-697.17
X143.953Y-699.71
X143.953Y-702.25
X143.953Y-704.79
X143.953Y-707.33
X143.953Y-709.87
X143.953Y-712.41
X143.953Y-714.95
X143.953Y-722.57
X143.953Y-725.11
X143.953Y-732.73
X143.953Y-735.27
X143.953Y-737.81
X143.953Y-740.35
X143.953Y-742.89
X143.953Y-745.43
X143.953Y-747.97
X143.953Y-750.51
X143.953Y-753.05
X143.953Y-755.59
X143.953Y-758.13
X143.953Y-760.67
X143.953Y-763.21
X143.953Y-765.75
X143.953Y-768.29
X143.953Y-770.83
X143.953Y-773.37
X143.953Y-775.91
X143.953Y-778.45
X143.953Y-780.99
X143.953Y-783.53
X143.953Y-786.07
X143.953Y-788.61
X143.953Y-791.15
X143.953Y-793.69
X143.953Y-796.23
X143.953Y-798.77
X143.953Y-801.31
X143.953Y-803.85
X143.953Y-806.39
X146.493Y-643.83
X146.493Y-646.37
X146.493Y-648.91
X146.493Y-666.69
X146.493Y-669.23
X146.493Y-671.77
X146.493Y-674.31
X146.493Y-676.85
X146.493Y-679.39
X146.493Y-684.47
X146.493Y-687.01
X146.493Y-689.55
X146.493Y-697.17
X146.493Y-699.71
X146.493Y-702.25
X146.493Y-704.79
X146.493Y-707.33
X146.493Y-709.87
X146.493Y-712.41
X146.493Y-714.95
X146.493Y-722.57
X146.493Y-725.11
X146.493Y-727.65
X146.493Y-735.27
X146.493Y-737.81
X146.493Y-740.35
X146.493Y-742.89
X146.493Y-745.43
X146.493Y-747.97
X146.493Y-750.51
X146.493Y-753.05
X146.493Y-755.59
X146.493Y-758.13
X146.493Y-760.67
X146.493Y-763.21
X146.493Y-765.75
X146.493Y-768.29
X146.493Y-770.83
X146.493Y-773.37
X146.493Y-775.91
X146.493Y-778.45
X146.493Y-780.99
X146.493Y-783.53
X146.493Y-786.07
X146.493Y-788.61
X146.493Y-791.15
X146.493Y-793.69
X146.493Y-796.23
X146.493Y-798.77
X146.493Y-801.31
X146.493Y-803.85
X146.493Y-806.39
X149.033Y-643.83
X149.033Y-646.37
X149.033Y-648.91
X149.033Y-666.69
X149.033Y-669.23
X149.033Y-671.77
X149.033Y-674.31
X149.033Y-676.85
X149.033Y-679.39
X149.033Y-684.47
X149.033Y-687.01
X149.033Y-689.55
X149.033Y-697.17
X149.033Y-699.71
X149.033Y-702.25
X149.033Y-704.79
X149.033Y-707.33
X149.033Y-709.87
X149.033Y-712.41
X149.033Y-714.95
X149.033Y-722.57
X149.033Y-725.11
X149.033Y-727.65
X149.033Y-730.19
X149.033Y-737.81
X149.033Y-740.35
X149.033Y-742.89
X149.033Y-745.43
X149.033Y-747.97
X149.033Y-750.51
X149.033Y-753.05
X149.033Y-755.59
X149.033Y-758.13
X149.033Y-760.67
X149.033Y-763.21
X149.033Y-765.75
X149.033Y-768.29
X149.033Y-770.83
X149.033Y-773.37
X149.033Y-775.91
X149.033Y-778.45
X149.033Y-780.99
X149.033Y-783.53
X149.033Y-786.07
X149.033Y-788.61
X149.033Y-791.15
X149.033Y-793.69
X149.033Y-796.23
X149.033Y-798.77
X149.033Y-801.31
X149.033Y-803.85
X149.033Y-806.39
X151.573Y-643.83
X151.573Y-646.37
X151.573Y-648.91
X151.573Y-666.69
X151.573Y-669.23
X151.573Y-671.77
X151.573Y-674.31
X151.573Y-676.85
X151.573Y-679.39
X151.573Y-684.47
X151.573Y-687.01
X151.573Y-689.55
X151.573Y-697.17
X151.573Y-699.71
X151.573Y-702.25
X151.573Y-704.79
X151.573Y-707.33
X151.573Y-709.87
X151.573Y-712.41
X151.573Y-714.95
X151.573Y-722.57
X151.573Y-725.11
X151.573Y-727.65
X151.573Y-730.19
X151.573Y-732.73
X151.573Y-740.35
X151.573Y-742.89
X151.573Y-745.43
X151.573Y-747.97
X151.573Y-750.51
X151.573Y-753.05
X151.573Y-755.59
X151.573Y-758.13
X151.573Y-760.67
X151.573Y-763.21
X151.573Y-765.75
X151.573Y-768.29
X151.573Y-770.83
X151.573Y-773.37
X151.573Y-775.91
X151.573Y-778.45
X151.573Y-780.99
X151.573Y-783.53
X151.573Y-786.07
X151.573Y-788.61
X151.573Y-791.15
X151.573Y-793.69
X151.573Y-796.23
X151.573Y-798.77
X151.573Y-801.31
X151.573Y-803.85
X151.573Y-806.39
X154.113Y-643.83
X154.113Y-646.37
X154.113Y-648.91
X154.113Y-666.69
X154.113Y-669.23
X154.113Y-671.77
X154.113Y-674.31
X154.113Y-676.85
X154.113Y-679.39
X154.113Y-684.47
X154.113Y-687.01
X154.113Y-689.55
X154.113Y-697.17
X154.113Y-699.71
X154.113Y-702.25
X154.113Y-704.79
X154.113Y-707.33
X154.113Y-709.87
X154.113Y-712.41
X154.113Y-714.95
X154.113Y-722.57
X154.113Y-725.11
X154.113Y-727.65
X154.113Y-730.19
X154.113Y-732.73
X154.113Y-735.27
X154.113Y-742.89
X154.113Y-745.43
X154.113Y-747.97
X154.113Y-750.51
X154.113Y-753.05
X154.113Y-755.59
X154.113Y-758.13
X154.113Y-760.67
X154.113Y-763.21
X154.113Y-765.75
X154.113Y-768.29
X154.113Y-770.83
X154.113Y-773.37
X154.113Y-775.91
X154.113Y-778.45
X154.113Y-780.99
X154.113Y-783.53
X154.113Y-786.07
X154.113Y-788.61
X154.113Y-791.15
X154.113Y-793.69
X154.113Y-796.23
X154.113Y-798.77
X154.113Y-801.31
X154.113Y-803.85
X154.113Y-806.39
X156.653Y-643.83
X156.653Y-646.37
X156.653Y-648.91
X156.653Y-666.69
X156.653Y-669.23
X156.653Y-671.77
X156.653Y-674.31
X156.653Y-676.85
X156.653Y-679.39
X156.653Y-684.47
X156.653Y-687.01
X156.653Y-689.55
X156.653Y-697.17
X156.653Y-699.71
X156.653Y-702.25
X156.653Y-704.79
X156.653Y-707.33
X156.653Y-709.87
X156.653Y-712.41
X156.653Y-714.95
X156.653Y-722.57
X156.653Y-725.11
X156.653Y-727.65
X156.653Y-730.19
X156.653Y-732.73
X156.653Y-735.27
X156.653Y-742.89
X156.653Y-745.43
X156.653Y-747.97
X156.653Y-750.51
X156.653Y-753.05
X156.653Y-755.59
X156.653Y-758.13
X156.653Y-760.67
X156.653Y-763.21
X156.653Y-765.75
X156.653Y-768.29
X156.653Y-770.83
X156.653Y-773.37
X156.653Y-775.91
X156.653Y-778.45
X156.653Y-780.99
X156.653Y-783.53
X156.653Y-786.07
X156.653Y-788.61
X156.653Y-791.15
X156.653Y-793.69
X156.653Y-796.23
X156.653Y-798.77
X156.653Y-801.31
X156.653Y-803.85
X156.653Y-806.39
X159.193Y-643.83
X159.193Y-646.37
X159.193Y-648.91
X159.193Y-666.69
X159.193Y-669.23
X159.193Y-671.77
X159.193Y-674.31
X159.193Y-676.85
X159.193Y-679.39
X159.193Y-684.47
X159.193Y-687.01
X159.193Y-689.55
X159.193Y-697.17
X159.193Y-699.71
X159.193Y-702.25
X159.193Y-704.79
X159.193Y-707.33
X159.193Y-709.87
X159.193Y-712.41
X159.193Y-714.95
X159.193Y-722.57
X159.193Y-725.11
X159.193Y-727.65
X159.193Y-730.19
X159.193Y-732.73
X159.193Y-735.27
X159.193Y-742.89
X159.193Y-745.43
X159.193Y-747.97
X159.193Y-750.51
X159.193Y-753.05
X159.193Y-755.59
X159.193Y-758.13
X159.193Y-760.67
X159.193Y-763.21
X159.193Y-765.75
X159.193Y-768.29
X159.193Y-770.83
X159.193Y-773.37
X159.193Y-775.91
X159.193Y-778.45
X159.193Y-780.99
X159.193Y-783.53
X159.193Y-786.07
X159.193Y-788.61
X159.193Y-791.15
X159.193Y-793.69
X159.193Y-796.23
X159.193Y-798.77
X159.193Y-801.31
X159.193Y-803.85
X159.193Y-806.39
X161.733Y-643.83
X161.733Y-646.37
X161.733Y-648.91
X161.733Y-666.69
X161.733Y-669.23
X161.733Y-671.77
X161.733Y-674.31
X161.733Y-676.85
X161.733Y-679.39
X161.733Y-684.47
X161.733Y-687.01
X161.733Y-689.55
X161.733Y-697.17
X161.733Y-699.71
X161.733Y-702.25
X161.733Y-704.79
X161.733Y-707.33
X161.733Y-709.87
X161.733Y-712.41
X161.733Y-714.95
X161.733Y-722.57
X161.733Y-725.11
X161.733Y-727.65
X161.733Y-730.19
X161.733Y-732.73
X161.733Y-735.27
X161.733Y-742.89
X161.733Y-745.43
X161.733Y-747.97
X161.733Y-750.51
X161.733Y-753.05
X161.733Y-755.59
X161.733Y-758.13
X161.733Y-760.67
X161.733Y-763.21
X161.733Y-765.75
X161.733Y-768.29
X161.733Y-770.83
X161.733Y-773.37
X161.733Y-775.91
X161.733Y-778.45
X161.733Y-780.99
X161.733Y-783.53
X161.733Y-786.07
X161.733Y-788.61
X161.733Y-791.15
X161.733Y-793.69
X161.733Y-796.23
X161.733Y-798.77
X161.733Y-801.31
X161.733Y-803.85
X161.733Y-806.39
X164.273Y-643.83
X164.273Y-646.37
X164.273Y-648.91
X164.273Y-684.47
X164.273Y-687.01
X164.273Y-689.55
X164.273Y-697.17
X164.273Y-699.71
X164.273Y-702.25
X164.273Y-704.79
X164.273Y-707.33
X164.273Y-709.87
X164.273Y-712.41
X164.273Y-714.95
X164.273Y-722.57
X164.273Y-725.11
X164.273Y-727.65
X164.273Y-730.19
X164.273Y-732.73
X164.273Y-735.27
X164.273Y-742.89
X164.273Y-745.43
X164.273Y-747.97
X164.273Y-750.51
X164.273Y-753.05
X164.273Y-755.59
X164.273Y-758.13
X164.273Y-760.67
X164.273Y-763.21
X164.273Y-765.75
X164.273Y-768.29
X164.273Y-770.83
X164.273Y-773.37
X164.273Y-775.91
X164.273Y-778.45
X164.273Y-780.99
X164.273Y-783.53
X164.273Y-786.07
X164.273Y-788.61
X164.273Y-791.15
X164.273Y-793.69
X164.273Y-796.23
X164.273Y-798.77
X164.273Y-801.31
X164.273Y-803.85
X164.273Y-806.39
X166.813Y-643.83
X166.813Y-646.37
X166.813Y-648.91
X166.813Y-684.47
X166.813Y-687.01
X166.813Y-689.55
X166.813Y-697.17
X166.813Y-699.71
X166.813Y-702.25
X166.813Y-704.79
X166.813Y-707.33
X166.813Y-709.87
X166.813Y-712.41
X166.813Y-714.95
X166.813Y-722.57
X166.813Y-725.11
X166.813Y-727.65
X166.813Y-730.19
X166.813Y-732.73
X166.813Y-735.27
X166.813Y-742.89
X166.813Y-745.43
X166.813Y-747.97
X166.813Y-750.51
X166.813Y-753.05
X166.813Y-755.59
X166.813Y-758.13
X166.813Y-760.67
X166.813Y-763.21
X166.813Y-765.75
X166.813Y-768.29
X166.813Y-770.83
X166.813Y-773.37
X166.813Y-775.91
X166.813Y-778.45
X166.813Y-780.99
X166.813Y-783.53
X166.813Y-786.07
X166.813Y-788.61
X166.813Y-791.15
X166.813Y-793.69
X166.813Y-796.23
X166.813Y-798.77
X166.813Y-801.31
X166.813Y-803.85
X166.813Y-806.39
X169.353Y-643.83
X169.353Y-646.37
X169.353Y-648.91
X169.353Y-689.55
X169.353Y-697.17
X169.353Y-699.71
X169.353Y-702.25
X169.353Y-704.79
X169.353Y-707.33
X169.353Y-709.87
X169.353Y-712.41
X169.353Y-714.95
X169.353Y-722.57
X169.353Y-725.11
X169.353Y-727.65
X169.353Y-730.19
X169.353Y-732.73
X169.353Y-735.27
X169.353Y-742.89
X169.353Y-745.43
X169.353Y-747.97
X169.353Y-750.51
X169.353Y-753.05
X169.353Y-755.59
X169.353Y-758.13
X169.353Y-760.67
X169.353Y-763.21
X169.353Y-765.75
X169.353Y-768.29
X169.353Y-770.83
X169.353Y-773.37
X169.353Y-775.91
X169.353Y-778.45
X169.353Y-780.99
X169.353Y-783.53
X169.353Y-786.07
X169.353Y-788.61
X169.353Y-791.15
X169.353Y-793.69
X169.353Y-796.23
X169.353Y-798.77
X169.353Y-801.31
X169.353Y-803.85
X169.353Y-806.39
X171.893Y-643.83
X171.893Y-646.37
X171.893Y-648.91
X171.893Y-699.71
X171.893Y-702.25
X171.893Y-704.79
X171.893Y-707.33
X171.893Y-709.87
X171.893Y-712.41
X171.893Y-714.95
X171.893Y-722.57
X171.893Y-725.11
X171.893Y-727.65
X171.893Y-730.19
X171.893Y-732.73
X171.893Y-735.27
X171.893Y-742.89
X171.893Y-745.43
X171.893Y-747.97
X171.893Y-750.51
X171.893Y-753.05
X171.893Y-755.59
X171.893Y-758.13
X171.893Y-760.67
X171.893Y-763.21
X171.893Y-765.75
X171.893Y-768.29
X171.893Y-770.83
X171.893Y-773.37
X171.893Y-775.91
X171.893Y-778.45
X171.893Y-780.99
X171.893Y-783.53
X171.893Y-786.07
X171.893Y-788.61
X171.893Y-791.15
X171.893Y-793.69
X171.893Y-796.23
X171.893Y-798.77
X171.893Y-801.31
X171.893Y-803.85
X171.893Y-806.39
X174.433Y-643.83
X174.433Y-646.37
X174.433Y-648.91
X174.433Y-702.25
X174.433Y-704.79
X174.433Y-707.33
X174.433Y-709.87
X174.433Y-712.41
X174.433Y-714.95
X174.433Y-722.57
X174.433Y-725.11
X174.433Y-727.65
X174.433Y-730.19
X174.433Y-732.73
X174.433Y-735.27
X174.433Y-742.89
X174.433Y-745.43
X174.433Y-747.97
X174.433Y-750.51
X174.433Y-753.05
X174.433Y-755.59
X174.433Y-758.13
X174.433Y-760.67
X174.433Y-763.21
X174.433Y-765.75
X174.433Y-768.29
X174.433Y-770.83
X174.433Y-773.37
X174.433Y-775.91
X174.433Y-778.45
X174.433Y-780.99
X174.433Y-783.53
X174.433Y-786.07
X174.433Y-788.61
X174.433Y-791.15
X174.433Y-793.69
X174.433Y-796.23
X174.433Y-798.77
X174.433Y-801.31
X174.433Y-803.85
X174.433Y-806.39
X176.973Y-643.83
X176.973Y-646.37
X176.973Y-648.91
X176.973Y-689.55
X176.973Y-704.79
X176.973Y-707.33
X176.973Y-709.87
X176.973Y-712.41
X176.973Y-714.95
X176.973Y-722.57
X176.973Y-725.11
X176.973Y-727.65
X176.973Y-730.19
X176.973Y-732.73
X176.973Y-735.27
X176.973Y-742.89
X176.973Y-745.43
X176.973Y-747.97
X176.973Y-750.51
X176.973Y-753.05
X176.973Y-755.59
X176.973Y-763.21
X176.973Y-765.75
X176.973Y-768.29
X176.973Y-770.83
X176.973Y-773.37
X176.973Y-775.91
X176.973Y-778.45
X176.973Y-780.99
X176.973Y-783.53
X176.973Y-786.07
X176.973Y-788.61
X176.973Y-791.15
X176.973Y-793.69
X176.973Y-796.23
X176.973Y-798.77
X176.973Y-801.31
X176.973Y-803.85
X176.973Y-806.39
X179.513Y-643.83
X179.513Y-646.37
X179.513Y-648.91
X179.513Y-689.55
X179.513Y-707.33
X179.513Y-709.87
X179.513Y-712.41
X179.513Y-714.95
X179.513Y-722.57
X179.513Y-725.11
X179.513Y-727.65
X179.513Y-730.19
X179.513Y-732.73
X179.513Y-735.27
X179.513Y-742.89
X179.513Y-745.43
X179.513Y-747.97
X179.513Y-750.51
X179.513Y-753.05
X179.513Y-755.59
X179.513Y-765.75
X179.513Y-768.29
X179.513Y-770.83
X179.513Y-773.37
X179.513Y-775.91
X179.513Y-778.45
X179.513Y-780.99
X179.513Y-783.53
X179.513Y-786.07
X179.513Y-788.61
X179.513Y-791.15
X179.513Y-793.69
X179.513Y-796.23
X179.513Y-798.77
X179.513Y-801.31
X179.513Y-803.85
X179.513Y-806.39
X182.053Y-643.83
X182.053Y-646.37
X182.053Y-648.91
X182.053Y-709.87
X182.053Y-712.41
X182.053Y-714.95
X182.053Y-722.57
X182.053Y-725.11
X182.053Y-727.65
X182.053Y-730.19
X182.053Y-732.73
X182.053Y-735.27
X182.053Y-742.89
X182.053Y-745.43
X182.053Y-747.97
X182.053Y-750.51
X182.053Y-753.05
X182.053Y-755.59
X182.053Y-765.75
X182.053Y-768.29
X182.053Y-770.83
X182.053Y-773.37
X182.053Y-775.91
X182.053Y-778.45
X182.053Y-780.99
X182.053Y-783.53
X182.053Y-786.07
X182.053Y-788.61
X182.053Y-791.15
X182.053Y-793.69
X182.053Y-796.23
X182.053Y-798.77
X182.053Y-801.31
X182.053Y-803.85
X182.053Y-806.39
X184.593Y-643.83
X184.593Y-646.37
X184.593Y-648.91
X184.593Y-684.47
X184.593Y-687.01
X184.593Y-689.55
X184.593Y-697.17
X184.593Y-712.41
X184.593Y-714.95
X184.593Y-722.57
X184.593Y-725.11
X184.593Y-727.65
X184.593Y-730.19
X184.593Y-732.73
X184.593Y-735.27
X184.593Y-742.89
X184.593Y-745.43
X184.593Y-747.97
X184.593Y-750.51
X184.593Y-753.05
X184.593Y-755.59
X184.593Y-765.75
X184.593Y-768.29
X184.593Y-770.83
X184.593Y-773.37
X184.593Y-775.91
X184.593Y-778.45
X184.593Y-780.99
X184.593Y-783.53
X184.593Y-786.07
X184.593Y-788.61
X184.593Y-791.15
X184.593Y-793.69
X184.593Y-796.23
X184.593Y-798.77
X184.593Y-801.31
X184.593Y-803.85
X184.593Y-806.39
X187.133Y-643.83
X187.133Y-646.37
X187.133Y-648.91
X187.133Y-684.47
X187.133Y-687.01
X187.133Y-689.55
X187.133Y-697.17
X187.133Y-699.71
X187.133Y-714.95
X187.133Y-722.57
X187.133Y-725.11
X187.133Y-727.65
X187.133Y-730.19
X187.133Y-732.73
X187.133Y-735.27
X187.133Y-742.89
X187.133Y-745.43
X187.133Y-747.97
X187.133Y-750.51
X187.133Y-753.05
X187.133Y-755.59
X187.133Y-758.13
X187.133Y-760.67
X187.133Y-763.21
X187.133Y-765.75
X187.133Y-768.29
X187.133Y-770.83
X187.133Y-773.37
X187.133Y-775.91
X187.133Y-778.45
X187.133Y-780.99
X187.133Y-783.53
X187.133Y-786.07
X187.133Y-788.61
X187.133Y-791.15
X187.133Y-793.69
X187.133Y-796.23
X187.133Y-798.77
X187.133Y-801.31
X187.133Y-803.85
X187.133Y-806.39
X189.673Y-643.83
X189.673Y-646.37
X189.673Y-648.91
X189.673Y-684.47
X189.673Y-687.01
X189.673Y-689.55
X189.673Y-697.17
X189.673Y-699.71
X189.673Y-702.25
X189.673Y-722.57
X189.673Y-725.11
X189.673Y-727.65
X189.673Y-730.19
X189.673Y-732.73
X189.673Y-735.27
X189.673Y-742.89
X189.673Y-745.43
X189.673Y-747.97
X189.673Y-750.51
X189.673Y-753.05
X189.673Y-755.59
X189.673Y-758.13
X189.673Y-760.67
X189.673Y-763.21
X189.673Y-765.75
X189.673Y-768.29
X189.673Y-770.83
X189.673Y-773.37
X189.673Y-775.91
X189.673Y-778.45
X189.673Y-780.99
X189.673Y-783.53
X189.673Y-786.07
X189.673Y-788.61
X189.673Y-791.15
X189.673Y-793.69
X189.673Y-796.23
X189.673Y-798.77
X189.673Y-801.31
X189.673Y-803.85
X189.673Y-806.39
X192.213Y-643.83
X192.213Y-646.37
X192.213Y-648.91
X192.213Y-684.47
X192.213Y-687.01
X192.213Y-689.55
X192.213Y-697.17
X192.213Y-699.71
X192.213Y-702.25
X192.213Y-704.79
X192.213Y-722.57
X192.213Y-725.11
X192.213Y-727.65
X192.213Y-730.19
X192.213Y-732.73
X192.213Y-735.27
X192.213Y-742.89
X192.213Y-745.43
X192.213Y-747.97
X192.213Y-750.51
X192.213Y-753.05
X192.213Y-755.59
X192.213Y-758.13
X192.213Y-760.67
X192.213Y-763.21
X192.213Y-765.75
X192.213Y-768.29
X192.213Y-770.83
X192.213Y-773.37
X192.213Y-775.91
X192.213Y-778.45
X192.213Y-780.99
X192.213Y-783.53
X192.213Y-786.07
X192.213Y-788.61
X192.213Y-791.15
X192.213Y-793.69
X192.213Y-796.23
X192.213Y-798.77
X192.213Y-801.31
X192.213Y-803.85
X192.213Y-806.39
X194.753Y-643.83
X194.753Y-646.37
X194.753Y-648.91
X194.753Y-666.69
X194.753Y-669.23
X194.753Y-671.77
X194.753Y-674.31
X194.753Y-676.85
X194.753Y-679.39
X194.753Y-684.47
X194.753Y-687.01
X194.753Y-689.55
X194.753Y-697.17
X194.753Y-699.71
X194.753Y-702.25
X194.753Y-704.79
X194.753Y-707.33
X194.753Y-722.57
X194.753Y-725.11
X194.753Y-727.65
X194.753Y-730.19
X194.753Y-732.73
X194.753Y-735.27
X194.753Y-742.89
X194.753Y-745.43
X194.753Y-747.97
X194.753Y-750.51
X194.753Y-753.05
X194.753Y-755.59
X194.753Y-758.13
X194.753Y-760.67
X194.753Y-763.21
X194.753Y-765.75
X194.753Y-768.29
X194.753Y-770.83
X194.753Y-773.37
X194.753Y-775.91
X194.753Y-778.45
X194.753Y-780.99
X194.753Y-783.53
X194.753Y-786.07
X194.753Y-788.61
X194.753Y-791.15
X194.753Y-793.69
X194.753Y-796.23
X194.753Y-798.77
X194.753Y-801.31
X194.753Y-803.85
X194.753Y-806.39
X197.293Y-643.83
X197.293Y-646.37
X197.293Y-648.91
X197.293Y-666.69
X197.293Y-669.23
X197.293Y-671.77
X197.293Y-674.31
X197.293Y-676.85
X197.293Y-679.39
X197.293Y-684.47
X197.293Y-687.01
X197.293Y-689.55
X197.293Y-697.17
X197.293Y-699.71
X197.293Y-702.25
X197.293Y-704.79
X197.293Y-707.33
X197.293Y-709.87
X197.293Y-722.57
X197.293Y-725.11
X197.293Y-727.65
X197.293Y-730.19
X197.293Y-732.73
X197.293Y-735.27
X197.293Y-742.89
X197.293Y-745.43
X197.293Y-747.97
X197.293Y-750.51
X197.293Y-753.05
X197.293Y-755.59
X197.293Y-758.13
X197.293Y-760.67
X197.293Y-763.21
X197.293Y-765.75
X197.293Y-768.29
X197.293Y-770.83
X197.293Y-773.37
X197.293Y-775.91
X197.293Y-778.45
X197.293Y-780.99
X197.293Y-783.53
X197.293Y-786.07
X197.293Y-788.61
X197.293Y-791.15
X197.293Y-793.69
X197.293Y-796.23
X197.293Y-798.77
X197.293Y-801.31
X197.293Y-803.85
X197.293Y-806.39
X199.833Y-643.83
X199.833Y-646.37
X199.833Y-648.91
X199.833Y-666.69
X199.833Y-669.23
X199.833Y-671.77
X199.833Y-674.31
X199.833Y-676.85
X199.833Y-679.39
X199.833Y-684.47
X199.833Y-687.01
X199.833Y-689.55
X199.833Y-697.17
X199.833Y-699.71
X199.833Y-702.25
X199.833Y-704.79
X199.833Y-707.33
X199.833Y-709.87
X199.833Y-712.41
X199.833Y-722.57
X199.833Y-725.11
X199.833Y-727.65
X199.833Y-730.19
X199.833Y-732.73
X199.833Y-735.27
X199.833Y-742.89
X199.833Y-745.43
X199.833Y-747.97
X199.833Y-750.51
X199.833Y-753.05
X199.833Y-755.59
X199.833Y-758.13
X199.833Y-760.67
X199.833Y-763.21
X199.833Y-765.75
X199.833Y-768.29
X199.833Y-770.83
X199.833Y-773.37
X199.833Y-775.91
X199.833Y-778.45
X199.833Y-780.99
X199.833Y-783.53
X199.833Y-786.07
X199.833Y-788.61
X199.833Y-791.15
X199.833Y-798.77
X199.833Y-801.31
X199.833Y-803.85
X199.833Y-806.39
X202.373Y-643.83
X202.373Y-646.37
X202.373Y-648.91
X202.373Y-666.69
X202.373Y-669.23
X202.373Y-671.77
X202.373Y-674.31
X202.373Y-676.85
X202.373Y-679.39
X202.373Y-684.47
X202.373Y-687.01
X202.373Y-689.55
X202.373Y-697.17
X202.373Y-699.71
X202.373Y-702.25
X202.373Y-704.79
X202.373Y-707.33
X202.373Y-709.87
X202.373Y-712.41
X202.373Y-722.57
X202.373Y-725.11
X202.373Y-727.65
X202.373Y-730.19
X202.373Y-732.73
X202.373Y-735.27
X202.373Y-742.89
X202.373Y-745.43
X202.373Y-747.97
X202.373Y-750.51
X202.373Y-753.05
X202.373Y-755.59
X202.373Y-758.13
X202.373Y-760.67
X202.373Y-763.21
X202.373Y-765.75
X202.373Y-768.29
X202.373Y-770.83
X202.373Y-773.37
X202.373Y-775.91
X202.373Y-778.45
X202.373Y-780.99
X202.373Y-783.53
X202.373Y-786.07
X202.373Y-788.61
X202.373Y-801.31
X202.373Y-803.85
X202.373Y-806.39
X204.913Y-643.83
X204.913Y-646.37
X204.913Y-648.91
X204.913Y-666.69
X204.913Y-669.23
X204.913Y-671.77
X204.913Y-674.31
X204.913Y-676.85
X204.913Y-679.39
X204.913Y-684.47
X204.913Y-687.01
X204.913Y-689.55
X204.913Y-697.17
X204.913Y-699.71
X204.913Y-702.25
X204.913Y-704.79
X204.913Y-707.33
X204.913Y-709.87
X204.913Y-712.41
X204.913Y-722.57
X204.913Y-725.11
X204.913Y-727.65
X204.913Y-730.19
X204.913Y-732.73
X204.913Y-735.27
X204.913Y-742.89
X204.913Y-745.43
X204.913Y-747.97
X204.913Y-750.51
X204.913Y-753.05
X204.913Y-755.59
X204.913Y-758.13
X204.913Y-760.67
X204.913Y-763.21
X204.913Y-765.75
X204.913Y-768.29
X204.913Y-770.83
X204.913Y-773.37
X204.913Y-775.91
X204.913Y-778.45
X204.913Y-780.99
X204.913Y-783.53
X204.913Y-786.07
X204.913Y-788.61
X204.913Y-791.15
X204.913Y-801.31
X204.913Y-803.85
X204.913Y-806.39
X207.453Y-643.83
X207.453Y-646.37
X207.453Y-648.91
X207.453Y-666.69
X207.453Y-669.23
X207.453Y-671.77
X207.453Y-674.31
X207.453Y-676.85
X207.453Y-679.39
X207.453Y-684.47
X207.453Y-687.01
X207.453Y-689.55
X207.453Y-697.17
X207.453Y-699.71
X207.453Y-702.25
X207.453Y-704.79
X207.453Y-707.33
X207.453Y-709.87
X207.453Y-712.41
X207.453Y-722.57
X207.453Y-725.11
X207.453Y-727.65
X207.453Y-730.19
X207.453Y-732.73
X207.453Y-735.27
X207.453Y-742.89
X207.453Y-745.43
X207.453Y-747.97
X207.453Y-750.51
X207.453Y-753.05
X207.453Y-755.59
X207.453Y-758.13
X207.453Y-760.67
X207.453Y-763.21
X207.453Y-765.75
X207.453Y-768.29
X207.453Y-770.83
X207.453Y-773.37
X207.453Y-775.91
X207.453Y-778.45
X207.453Y-780.99
X207.453Y-783.53
X207.453Y-786.07
X207.453Y-788.61
X207.453Y-791.15
X207.453Y-793.69
X207.453Y-796.23
X207.453Y-798.77
X207.453Y-801.31
X207.453Y-803.85
X207.453Y-806.39
X209.993Y-643.83
X209.993Y-646.37
X209.993Y-648.91
X209.993Y-666.69
X209.993Y-669.23
X209.993Y-671.77
X209.993Y-674.31
X209.993Y-676.85
X209.993Y-679.39
X209.993Y-684.47
X209.993Y-687.01
X209.993Y-689.55
X209.993Y-697.17
X209.993Y-699.71
X209.993Y-702.25
X209.993Y-704.79
X209.993Y-707.33
X209.993Y-709.87
X209.993Y-712.41
X209.993Y-722.57
X209.993Y-725.11
X209.993Y-727.65
X209.993Y-730.19
X209.993Y-732.73
X209.993Y-735.27
X209.993Y-742.89
X209.993Y-745.43
X209.993Y-747.97
X209.993Y-750.51
X209.993Y-753.05
X209.993Y-755.59
X209.993Y-758.13
X209.993Y-760.67
X209.993Y-763.21
X209.993Y-765.75
X209.993Y-768.29
X209.993Y-770.83
X209.993Y-773.37
X209.993Y-775.91
X209.993Y-778.45
X209.993Y-780.99
X209.993Y-783.53
X209.993Y-786.07
X209.993Y-788.61
X209.993Y-791.15
X209.993Y-793.69
X209.993Y-796.23
X209.993Y-798.77
X209.993Y-801.31
X209.993Y-803.85
X209.993Y-806.39
X212.533Y-643.83
X212.533Y-646.37
X212.533Y-648.91
X212.533Y-666.69
X212.533Y-669.23
X212.533Y-671.77
X212.533Y-674.31
X212.533Y-676.85
X212.533Y-679.39
X212.533Y-684.47
X212.533Y-687.01
X212.533Y-689.55
X212.533Y-697.17
X212.533Y-699.71
X212.533Y-702.25
X212.533Y-704.79
X212.533Y-707.33
X212.533Y-709.87
X212.533Y-712.41
X212.533Y-722.57
X212.533Y-725.11
X212.533Y-727.65
X212.533Y-730.19
X212.533Y-732.73
X212.533Y-735.27
X212.533Y-742.89
X212.533Y-745.43
X212.533Y-747.97
X212.533Y-750.51
X212.533Y-753.05
X212.533Y-755.59
X212.533Y-758.13
X212.533Y-760.67
X212.533Y-763.21
X212.533Y-765.75
X212.533Y-768.29
X212.533Y-770.83
X212.533Y-773.37
X212.533Y-775.91
X212.533Y-778.45
X212.533Y-780.99
X212.533Y-783.53
X212.533Y-786.07
X212.533Y-788.61
X212.533Y-791.15
X212.533Y-793.69
X212.533Y-796.23
X212.533Y-798.77
X212.533Y-801.31
X212.533Y-803.85
X212.533Y-806.39
X215.073Y-643.83
X215.073Y-646.37
X215.073Y-648.91
X215.073Y-666.69
X215.073Y-669.23
X215.073Y-671.77
X215.073Y-674.31
X215.073Y-676.85
X215.073Y-679.39
X215.073Y-684.47
X215.073Y-687.01
X215.073Y-689.55
X215.073Y-697.17
X215.073Y-699.71
X215.073Y-702.25
X215.073Y-704.79
X215.073Y-707.33
X215.073Y-709.87
X215.073Y-712.41
X215.073Y-722.57
X215.073Y-725.11
X215.073Y-727.65
X215.073Y-730.19
X215.073Y-732.73
X215.073Y-735.27
X215.073Y-742.89
X215.073Y-745.43
X215.073Y-747.97
X215.073Y-750.51
X215.073Y-753.05
X215.073Y-755.59
X215.073Y-758.13
X215.073Y-760.67
X215.073Y-763.21
X215.073Y-765.75
X215.073Y-768.29
X215.073Y-770.83
X215.073Y-773.37
X215.073Y-775.91
X215.073Y-778.45
X215.073Y-780.99
X215.073Y-783.53
X215.073Y-786.07
X215.073Y-788.61
X215.073Y-791.15
X215.073Y-793.69
X215.073Y-796.23
X215.073Y-798.77
X215.073Y-801.31
X215.073Y-803.85
X215.073Y-806.39
X217.613Y-643.83
X217.613Y-646.37
X217.613Y-648.91
X217.613Y-666.69
X217.613Y-669.23
X217.613Y-671.77
X217.613Y-674.31
X217.613Y-676.85
X217.613Y-679.39
X217.613Y-684.47
X217.613Y-687.01
X217.613Y-689.55
X217.613Y-697.17
X217.613Y-699.71
X217.613Y-702.25
X217.613Y-704.79
X217.613Y-707.33
X217.613Y-709.87
X217.613Y-712.41
X217.613Y-722.57
X217.613Y-725.11
X217.613Y-727.65
X217.613Y-730.19
X217.613Y-732.73
X217.613Y-735.27
X217.613Y-742.89
X217.613Y-745.43
X217.613Y-747.97
X217.613Y-750.51
X217.613Y-753.05
X217.613Y-755.59
X217.613Y-758.13
X217.613Y-760.67
X217.613Y-763.21
X217.613Y-765.75
X217.613Y-768.29
X217.613Y-770.83
X217.613Y-773.37
X217.613Y-775.91
X217.613Y-778.45
X217.613Y-780.99
X217.613Y-783.53
X217.613Y-786.07
X217.613Y-788.61
X217.613Y-791.15
X217.613Y-793.69
X217.613Y-796.23
X217.613Y-798.77
X217.613Y-801.31
X217.613Y-803.85
X217.613Y-806.39
X220.153Y-643.83
X220.153Y-646.37
X220.153Y-648.91
X220.153Y-666.69
X220.153Y-669.23
X220.153Y-671.77
X220.153Y-674.31
X220.153Y-676.85
X220.153Y-679.39
X220.153Y-684.47
X220.153Y-687.01
X220.153Y-689.55
X220.153Y-697.17
X220.153Y-699.71
X220.153Y-702.25
X220.153Y-704.79
X220.153Y-707.33
X220.153Y-709.87
X220.153Y-712.41
X220.153Y-722.57
X220.153Y-725.11
X220.153Y-727.65
X220.153Y-730.19
X220.153Y-732.73
X220.153Y-735.27
X220.153Y-742.89
X220.153Y-745.43
X220.153Y-747.97
X220.153Y-750.51
X220.153Y-753.05
X220.153Y-755.59
X220.153Y-758.13
X220.153Y-760.67
X220.153Y-763.21
X220.153Y-765.75
X220.153Y-768.29
X220.153Y-770.83
X220.153Y-773.37
X220.153Y-775.91
X220.153Y-778.45
X220.153Y-780.99
X220.153Y-783.53
X220.153Y-786.07
X220.153Y-788.61
X220.153Y-791.15
X220.153Y-793.69
X220.153Y-796.23
X220.153Y-798.77
X220.153Y-801.31
X220.153Y-803.85
X220.153Y-806.39
X222.693Y-643.83
X222.693Y-646.37
X222.693Y-648.91
X222.693Y-666.69
X222.693Y-669.23
X222.693Y-671.77
X222.693Y-674.31
X222.693Y-676.85
X222.693Y-679.39
X222.693Y-684.47
X222.693Y-687.01
X222.693Y-689.55
X222.693Y-697.17
X222.693Y-699.71
X222.693Y-702.25
X222.693Y-704.79
X222.693Y-707.33
X222.693Y-709.87
X222.693Y-712.41
X222.693Y-722.57
X222.693Y-725.11
X222.693Y-727.65
X222.693Y-730.19
X222.693Y-732.73
X222.693Y-735.27
X222.693Y-742.89
X222.693Y-745.43
X222.693Y-747.97
X222.693Y-750.51
X222.693Y-753.05
X222.693Y-755.59
X222.693Y-758.13
X222.693Y-760.67
X222.693Y-763.21
X222.693Y-765.75
X222.693Y-768.29
X222.693Y-770.83
X222.693Y-773.37
X222.693Y-775.91
X222.693Y-778.45
X222.693Y-780.99
X222.693Y-783.53
X222.693Y-786.07
X222.693Y-788.61
X222.693Y-791.15
X222.693Y-793.69
X222.693Y-796.23
X222.693Y-798.77
X222.693Y-801.31
X222.693Y-803.85
X222.693Y-806.39
X225.233Y-643.83
X225.233Y-646.37
X225.233Y-648.91
X225.233Y-684.47
X225.233Y-687.01
X225.233Y-689.55
X225.233Y-697.17
X225.233Y-699.71
X225.233Y-702.25
X225.233Y-704.79
X225.233Y-707.33
X225.233Y-709.87
X225.233Y-712.41
X225.233Y-722.57
X225.233Y-725.11
X225.233Y-727.65
X225.233Y-730.19
X225.233Y-732.73
X225.233Y-735.27
X225.233Y-742.89
X225.233Y-745.43
X225.233Y-747.97
X225.233Y-750.51
X225.233Y-753.05
X225.233Y-755.59
X225.233Y-758.13
X225.233Y-760.67
X225.233Y-763.21
X225.233Y-765.75
X225.233Y-768.29
X225.233Y-770.83
X225.233Y-773.37
X225.233Y-775.91
X225.233Y-778.45
X225.233Y-780.99
X225.233Y-783.53
X225.233Y-786.07
X225.233Y-788.61
X225.233Y-791.15
X225.233Y-793.69
X225.233Y-796.23
X225.233Y-798.77
X225.233Y-801.31
X225.233Y-803.85
X225.233Y-806.39
X227.773Y-643.83
X227.773Y-646.37
X227.773Y-648.91
X227.773Y-684.47
X227.773Y-697.17
X227.773Y-699.71
X227.773Y-702.25
X227.773Y-704.79
X227.773Y-707.33
X227.773Y-709.87
X227.773Y-712.41
X227.773Y-722.57
X227.773Y-725.11
X227.773Y-727.65
X227.773Y-730.19
X227.773Y-732.73
X227.773Y-735.27
X227.773Y-742.89
X227.773Y-745.43
X227.773Y-747.97
X227.773Y-750.51
X227.773Y-753.05
X227.773Y-755.59
X227.773Y-758.13
X227.773Y-760.67
X227.773Y-763.21
X227.773Y-765.75
X227.773Y-768.29
X227.773Y-770.83
X227.773Y-773.37
X227.773Y-775.91
X227.773Y-778.45
X227.773Y-780.99
X227.773Y-783.53
X227.773Y-786.07
X227.773Y-788.61
X227.773Y-791.15
X227.773Y-793.69
X227.773Y-796.23
X227.773Y-798.77
X227.773Y-801.31
X227.773Y-803.85
X227.773Y-806.39
X230.313Y-643.83
X230.313Y-646.37
X230.313Y-648.91
X230.313Y-689.55
X230.313Y-697.17
X230.313Y-699.71
X230.313Y-702.25
X230.313Y-704.79
X230.313Y-707.33
X230.313Y-709.87
X230.313Y-712.41
X230.313Y-722.57
X230.313Y-725.11
X230.313Y-727.65
X230.313Y-730.19
X230.313Y-732.73
X230.313Y-735.27
X230.313Y-745.43
X230.313Y-747.97
X230.313Y-750.51
X230.313Y-753.05
X230.313Y-755.59
X230.313Y-758.13
X230.313Y-760.67
X230.313Y-763.21
X230.313Y-765.75
X230.313Y-768.29
X230.313Y-770.83
X230.313Y-773.37
X230.313Y-775.91
X230.313Y-778.45
X230.313Y-780.99
X230.313Y-783.53
X230.313Y-786.07
X230.313Y-788.61
X230.313Y-791.15
X230.313Y-793.69
X230.313Y-796.23
X230.313Y-798.77
X230.313Y-801.31
X230.313Y-803.85
X230.313Y-806.39
X232.853Y-643.83
X232.853Y-646.37
X232.853Y-648.91
X232.853Y-689.55
X232.853Y-699.71
X232.853Y-702.25
X232.853Y-704.79
X232.853Y-707.33
X232.853Y-709.87
X232.853Y-712.41
X232.853Y-722.57
X232.853Y-725.11
X232.853Y-727.65
X232.853Y-730.19
X232.853Y-732.73
X232.853Y-735.27
X232.853Y-740.35
X232.853Y-747.97
X232.853Y-750.51
X232.853Y-753.05
X232.853Y-755.59
X232.853Y-758.13
X232.853Y-760.67
X232.853Y-763.21
X232.853Y-765.75
X232.853Y-768.29
X232.853Y-770.83
X232.853Y-773.37
X232.853Y-775.91
X232.853Y-778.45
X232.853Y-780.99
X232.853Y-783.53
X232.853Y-786.07
X232.853Y-788.61
X232.853Y-791.15
X232.853Y-793.69
X232.853Y-796.23
X232.853Y-798.77
X232.853Y-801.31
X232.853Y-803.85
X232.853Y-806.39
X235.393Y-643.83
X235.393Y-646.37
X235.393Y-648.91
X235.393Y-702.25
X235.393Y-704.79
X235.393Y-707.33
X235.393Y-709.87
X235.393Y-712.41
X235.393Y-722.57
X235.393Y-725.11
X235.393Y-727.65
X235.393Y-730.19
X235.393Y-732.73
X235.393Y-735.27
X235.393Y-740.35
X235.393Y-742.89
X235.393Y-750.51
X235.393Y-753.05
X235.393Y-755.59
X235.393Y-758.13
X235.393Y-760.67
X235.393Y-763.21
X235.393Y-765.75
X235.393Y-768.29
X235.393Y-770.83
X235.393Y-773.37
X235.393Y-775.91
X235.393Y-778.45
X235.393Y-780.99
X235.393Y-783.53
X235.393Y-786.07
X235.393Y-788.61
X235.393Y-791.15
X235.393Y-793.69
X235.393Y-796.23
X235.393Y-798.77
X235.393Y-801.31
X235.393Y-803.85
X235.393Y-806.39
X237.933Y-643.83
X237.933Y-646.37
X237.933Y-648.91
X237.933Y-666.69
X237.933Y-669.23
X237.933Y-671.77
X237.933Y-674.31
X237.933Y-676.85
X237.933Y-679.39
X237.933Y-704.79
X237.933Y-707.33
X237.933Y-709.87
X237.933Y-712.41
X237.933Y-722.57
X237.933Y-725.11
X237.933Y-727.65
X237.933Y-730.19
X237.933Y-732.73
X237.933Y-735.27
X237.933Y-740.35
X237.933Y-742.89
X237.933Y-745.43
X237.933Y-753.05
X237.933Y-755.59
X237.933Y-758.13
X237.933Y-760.67
X237.933Y-763.21
X237.933Y-765.75
X237.933Y-768.29
X237.933Y-770.83
X237.933Y-773.37
X237.933Y-775.91
X237.933Y-778.45
X237.933Y-780.99
X237.933Y-783.53
X237.933Y-786.07
X237.933Y-788.61
X237.933Y-791.15
X237.933Y-793.69
X237.933Y-796.23
X237.933Y-798.77
X237.933Y-801.31
X237.933Y-803.85
X237.933Y-806.39
X240.473Y-643.83
X240.473Y-646.37
X240.473Y-648.91
X240.473Y-697.17
X240.473Y-707.33
X240.473Y-709.87
X240.473Y-712.41
X240.473Y-722.57
X240.473Y-725.11
X240.473Y-727.65
X240.473Y-730.19
X240.473Y-732.73
X240.473Y-735.27
X240.473Y-740.35
X240.473Y-742.89
X240.473Y-745.43
X240.473Y-747.97
X240.473Y-755.59
X240.473Y-758.13
X240.473Y-760.67
X240.473Y-763.21
X240.473Y-765.75
X240.473Y-768.29
X240.473Y-770.83
X240.473Y-773.37
X240.473Y-775.91
X240.473Y-778.45
X240.473Y-780.99
X240.473Y-783.53
X240.473Y-786.07
X240.473Y-788.61
X240.473Y-791.15
X240.473Y-793.69
X240.473Y-796.23
X240.473Y-798.77
X240.473Y-801.31
X240.473Y-803.85
X240.473Y-806.39
X243.013Y-643.83
X243.013Y-646.37
X243.013Y-648.91
X243.013Y-684.47
X243.013Y-687.01
X243.013Y-697.17
X243.013Y-699.71
X243.013Y-707.33
X243.013Y-709.87
X243.013Y-712.41
X243.013Y-722.57
X243.013Y-725.11
X243.013Y-727.65
X243.013Y-730.19
X243.013Y-732.73
X243.013Y-735.27
X243.013Y-740.35
X243.013Y-742.89
X243.013Y-745.43
X243.013Y-747.97
X243.013Y-750.51
X243.013Y-758.13
X243.013Y-760.67
X243.013Y-763.21
X243.013Y-765.75
X243.013Y-768.29
X243.013Y-770.83
X243.013Y-773.37
X243.013Y-775.91
X243.013Y-778.45
X243.013Y-780.99
X243.013Y-783.53
X243.013Y-786.07
X243.013Y-788.61
X243.013Y-791.15
X243.013Y-793.69
X243.013Y-796.23
X243.013Y-798.77
X243.013Y-801.31
X243.013Y-803.85
X243.013Y-806.39
X245.553Y-643.83
X245.553Y-646.37
X245.553Y-648.91
X245.553Y-684.47
X245.553Y-697.17
X245.553Y-699.71
X245.553Y-702.25
X245.553Y-707.33
X245.553Y-709.87
X245.553Y-712.41
X245.553Y-722.57
X245.553Y-725.11
X245.553Y-727.65
X245.553Y-730.19
X245.553Y-732.73
X245.553Y-735.27
X245.553Y-740.35
X245.553Y-742.89
X245.553Y-745.43
X245.553Y-747.97
X245.553Y-750.51
X245.553Y-753.05
X245.553Y-760.67
X245.553Y-763.21
X245.553Y-765.75
X245.553Y-768.29
X245.553Y-770.83
X245.553Y-773.37
X245.553Y-775.91
X245.553Y-778.45
X245.553Y-780.99
X245.553Y-783.53
X245.553Y-786.07
X245.553Y-788.61
X245.553Y-791.15
X245.553Y-793.69
X245.553Y-796.23
X245.553Y-798.77
X245.553Y-801.31
X245.553Y-803.85
X245.553Y-806.39
X248.093Y-648.91
X248.093Y-689.55
X248.093Y-707.33
X248.093Y-709.87
X248.093Y-712.41
X248.093Y-722.57
X248.093Y-725.11
X248.093Y-727.65
X248.093Y-730.19
X248.093Y-732.73
X248.093Y-735.27
X248.093Y-740.35
X248.093Y-742.89
X248.093Y-745.43
X248.093Y-747.97
X248.093Y-750.51
X248.093Y-763.21
X248.093Y-765.75
X248.093Y-768.29
X248.093Y-770.83
X248.093Y-773.37
X248.093Y-775.91
X248.093Y-778.45
X248.093Y-780.99
X248.093Y-783.53
X248.093Y-786.07
X248.093Y-788.61
X248.093Y-791.15
X248.093Y-793.69
X248.093Y-796.23
X248.093Y-798.77
X248.093Y-801.31
X250.633Y-648.91
X250.633Y-687.01
X250.633Y-689.55
X250.633Y-707.33
X250.633Y-709.87
X250.633Y-712.41
X250.633Y-722.57
X250.633Y-725.11
X250.633Y-727.65
X250.633Y-730.19
X250.633Y-732.73
X250.633Y-735.27
X250.633Y-740.35
X250.633Y-742.89
X250.633Y-745.43
X250.633Y-747.97
X250.633Y-750.51
X250.633Y-765.75
X250.633Y-768.29
X250.633Y-770.83
X250.633Y-773.37
X250.633Y-775.91
X250.633Y-778.45
X250.633Y-780.99
X250.633Y-783.53
X250.633Y-786.07
X250.633Y-788.61
X250.633Y-791.15
X250.633Y-793.69
X250.633Y-796.23
X250.633Y-798.77
X250.633Y-801.31
X253.173Y-648.91
X253.173Y-666.69
X253.173Y-669.23
X253.173Y-671.77
X253.173Y-674.31
X253.173Y-676.85
X253.173Y-679.39
X253.173Y-684.47
X253.173Y-687.01
X253.173Y-689.55
X253.173Y-707.33
X253.173Y-709.87
X253.173Y-712.41
X253.173Y-722.57
X253.173Y-725.11
X253.173Y-727.65
X253.173Y-730.19
X253.173Y-732.73
X253.173Y-735.27
X253.173Y-740.35
X253.173Y-742.89
X253.173Y-745.43
X253.173Y-747.97
X253.173Y-750.51
X253.173Y-760.67
X253.173Y-768.29
X253.173Y-770.83
X253.173Y-773.37
X253.173Y-775.91
X253.173Y-778.45
X253.173Y-780.99
X253.173Y-783.53
X253.173Y-786.07
X253.173Y-788.61
X253.173Y-791.15
X253.173Y-793.69
X253.173Y-796.23
X253.173Y-798.77
X253.173Y-801.31
X255.713Y-643.83
X255.713Y-646.37
X255.713Y-648.91
X255.713Y-666.69
X255.713Y-669.23
X255.713Y-671.77
X255.713Y-674.31
X255.713Y-676.85
X255.713Y-679.39
X255.713Y-684.47
X255.713Y-687.01
X255.713Y-689.55
X255.713Y-694.63
X255.713Y-702.25
X255.713Y-707.33
X255.713Y-709.87
X255.713Y-712.41
X255.713Y-722.57
X255.713Y-725.11
X255.713Y-727.65
X255.713Y-730.19
X255.713Y-732.73
X255.713Y-735.27
X255.713Y-740.35
X255.713Y-742.89
X255.713Y-745.43
X255.713Y-747.97
X255.713Y-750.51
X255.713Y-753.05
X255.713Y-755.59
X255.713Y-758.13
X255.713Y-760.67
X255.713Y-763.21
X255.713Y-770.83
X255.713Y-773.37
X255.713Y-775.91
X255.713Y-778.45
X255.713Y-780.99
X255.713Y-783.53
X255.713Y-786.07
X255.713Y-788.61
X255.713Y-791.15
X255.713Y-793.69
X255.713Y-796.23
X255.713Y-798.77
X255.713Y-801.31
X255.713Y-803.85
X255.713Y-806.39
X258.253Y-643.83
X258.253Y-646.37
X258.253Y-648.91
X258.253Y-666.69
X258.253Y-669.23
X258.253Y-671.77
X258.253Y-674.31
X258.253Y-676.85
X258.253Y-679.39
X258.253Y-684.47
X258.253Y-687.01
X258.253Y-689.55
X258.253Y-694.63
X258.253Y-697.17
X258.253Y-702.25
X258.253Y-707.33
X258.253Y-709.87
X258.253Y-712.41
X258.253Y-722.57
X258.253Y-725.11
X258.253Y-727.65
X258.253Y-730.19
X258.253Y-732.73
X258.253Y-735.27
X258.253Y-740.35
X258.253Y-742.89
X258.253Y-745.43
X258.253Y-747.97
X258.253Y-750.51
X258.253Y-753.05
X258.253Y-755.59
X258.253Y-758.13
X258.253Y-760.67
X258.253Y-763.21
X258.253Y-765.75
X258.253Y-773.37
X258.253Y-775.91
X258.253Y-778.45
X258.253Y-780.99
X258.253Y-783.53
X258.253Y-786.07
X258.253Y-788.61
X258.253Y-791.15
X258.253Y-793.69
X258.253Y-796.23
X258.253Y-798.77
X258.253Y-801.31
X258.253Y-803.85
X258.253Y-806.39
X260.793Y-643.83
X260.793Y-646.37
X260.793Y-648.91
X260.793Y-666.69
X260.793Y-669.23
X260.793Y-671.77
X260.793Y-674.31
X260.793Y-676.85
X260.793Y-679.39
X260.793Y-684.47
X260.793Y-687.01
X260.793Y-689.55
X260.793Y-694.63
X260.793Y-697.17
X260.793Y-702.25
X260.793Y-707.33
X260.793Y-709.87
X260.793Y-712.41
X260.793Y-722.57
X260.793Y-725.11
X260.793Y-745.43
X260.793Y-747.97
X260.793Y-750.51
X260.793Y-753.05
X260.793Y-755.59
X260.793Y-758.13
X260.793Y-760.67
X260.793Y-763.21
X260.793Y-765.75
X260.793Y-768.29
X260.793Y-775.91
X260.793Y-778.45
X260.793Y-780.99
X260.793Y-783.53
X260.793Y-786.07
X260.793Y-788.61
X260.793Y-791.15
X260.793Y-793.69
X260.793Y-796.23
X260.793Y-798.77
X260.793Y-801.31
X260.793Y-803.85
X260.793Y-806.39
X263.333Y-643.83
X263.333Y-646.37
X263.333Y-648.91
X263.333Y-666.69
X263.333Y-669.23
X263.333Y-671.77
X263.333Y-674.31
X263.333Y-676.85
X263.333Y-679.39
X263.333Y-684.47
X263.333Y-687.01
X263.333Y-689.55
X263.333Y-694.63
X263.333Y-697.17
X263.333Y-702.25
X263.333Y-707.33
X263.333Y-709.87
X263.333Y-712.41
X263.333Y-722.57
X263.333Y-745.43
X263.333Y-747.97
X263.333Y-750.51
X263.333Y-753.05
X263.333Y-755.59
X263.333Y-758.13
X263.333Y-760.67
X263.333Y-763.21
X263.333Y-765.75
X263.333Y-768.29
X263.333Y-770.83
X263.333Y-778.45
X263.333Y-780.99
X263.333Y-783.53
X263.333Y-786.07
X263.333Y-788.61
X263.333Y-791.15
X263.333Y-793.69
X263.333Y-796.23
X263.333Y-798.77
X263.333Y-801.31
X263.333Y-803.85
X263.333Y-806.39
X263.411Y-734.798
X264.911Y-729.298
X265.161Y-740.798
X265.873Y-643.83
X265.873Y-646.37
X265.873Y-648.91
X265.873Y-666.69
X265.873Y-669.23
X265.873Y-671.77
X265.873Y-674.31
X265.873Y-676.85
X265.873Y-679.39
X265.873Y-684.47
X265.873Y-687.01
X265.873Y-689.55
X265.873Y-694.63
X265.873Y-697.17
X265.873Y-702.25
X265.873Y-745.43
X265.873Y-747.97
X265.873Y-750.51
X265.873Y-753.05
X265.873Y-755.59
X265.873Y-758.13
X265.873Y-760.67
X265.873Y-768.29
X265.873Y-770.83
X265.873Y-780.99
X265.873Y-783.53
X265.873Y-786.07
X265.873Y-788.61
X265.873Y-791.15
X265.873Y-793.69
X265.873Y-796.23
X265.873Y-798.77
X265.873Y-801.31
X265.873Y-803.85
X265.873Y-806.39
X268.413Y-643.83
X268.413Y-646.37
X268.413Y-648.91
X268.413Y-666.69
X268.413Y-669.23
X268.413Y-671.77
X268.413Y-674.31
X268.413Y-676.85
X268.413Y-679.39
X268.413Y-684.47
X268.413Y-687.01
X268.413Y-689.55
X268.413Y-694.63
X268.413Y-697.17
X268.413Y-702.25
X268.413Y-745.43
X268.413Y-747.97
X268.413Y-750.51
X268.413Y-753.05
X268.413Y-755.59
X268.413Y-758.13
X268.413Y-763.21
X268.413Y-768.29
X268.413Y-770.83
X268.413Y-786.07
X268.413Y-798.77
X268.413Y-801.31
X268.413Y-803.85
X268.413Y-806.39
X270.953Y-643.83
X270.953Y-646.37
X270.953Y-648.91
X270.953Y-666.69
X270.953Y-669.23
X270.953Y-671.77
X270.953Y-674.31
X270.953Y-676.85
X270.953Y-679.39
X270.953Y-684.47
X270.953Y-687.01
X270.953Y-689.55
X270.953Y-694.63
X270.953Y-697.17
X270.953Y-702.25
X270.953Y-745.43
X270.953Y-747.97
X270.953Y-753.05
X270.953Y-755.59
X270.953Y-758.13
X270.953Y-760.67
X270.953Y-763.21
X270.953Y-786.07
X270.953Y-798.77
X270.953Y-801.31
X270.953Y-803.85
X270.953Y-806.39
X273.493Y-643.83
X273.493Y-646.37
X273.493Y-648.91
X273.493Y-666.69
X273.493Y-669.23
X273.493Y-671.77
X273.493Y-674.31
X273.493Y-676.85
X273.493Y-679.39
X273.493Y-684.47
X273.493Y-687.01
X273.493Y-689.55
X273.493Y-694.63
X273.493Y-697.17
X273.493Y-702.25
X273.493Y-727.65
X273.493Y-730.19
X273.493Y-732.73
X273.493Y-745.43
X273.493Y-747.97
X273.493Y-778.45
X273.493Y-798.77
X273.493Y-801.31
X273.493Y-803.85
X273.493Y-806.39
X273.611Y-710.823
X276.033Y-643.83
X276.033Y-646.37
X276.033Y-648.91
X276.033Y-666.69
X276.033Y-669.23
X276.033Y-671.77
X276.033Y-674.31
X276.033Y-676.85
X276.033Y-679.39
X276.033Y-684.47
X276.033Y-687.01
X276.033Y-689.55
X276.033Y-694.63
X276.033Y-697.17
X276.033Y-702.25
X276.033Y-707.33
X276.033Y-727.65
X276.033Y-730.19
X276.033Y-732.73
X276.033Y-745.43
X276.033Y-747.97
X276.033Y-750.51
X276.033Y-753.05
X276.033Y-755.59
X276.033Y-758.13
X276.033Y-760.67
X276.033Y-778.45
X276.033Y-798.77
X276.033Y-801.31
X276.033Y-803.85
X276.033Y-806.39
X277.661Y-709.024
X277.661Y-710.748
X278.573Y-643.83
X278.573Y-646.37
X278.573Y-648.91
X278.573Y-666.69
X278.573Y-669.23
X278.573Y-671.77
X278.573Y-674.31
X278.573Y-676.85
X278.573Y-679.39
X278.573Y-684.47
X278.573Y-687.01
X278.573Y-689.55
X278.573Y-694.63
X278.573Y-697.17
X278.573Y-702.25
X278.573Y-707.33
X278.573Y-727.65
X278.573Y-730.19
X278.573Y-732.73
X278.573Y-745.43
X278.573Y-747.97
X278.573Y-750.51
X278.573Y-763.21
X278.573Y-765.75
X278.573Y-798.77
X278.573Y-801.31
X278.573Y-803.85
X278.573Y-806.39
X281.113Y-643.83
X281.113Y-646.37
X281.113Y-648.91
X281.113Y-666.69
X281.113Y-669.23
X281.113Y-671.77
X281.113Y-674.31
X281.113Y-676.85
X281.113Y-679.39
X281.113Y-684.47
X281.113Y-687.01
X281.113Y-689.55
X281.113Y-694.63
X281.113Y-697.17
X281.113Y-702.25
X281.113Y-707.33
X281.113Y-732.73
X281.113Y-745.43
X281.113Y-747.97
X281.113Y-750.51
X281.113Y-753.05
X281.113Y-755.59
X281.113Y-758.13
X281.113Y-760.67
X281.113Y-763.21
X281.113Y-765.75
X281.113Y-798.77
X281.113Y-801.31
X281.113Y-803.85
X281.113Y-806.39
X283.653Y-643.83
X283.653Y-646.37
X283.653Y-648.91
X283.653Y-684.47
X283.653Y-687.01
X283.653Y-689.55
X283.653Y-694.63
X283.653Y-697.17
X283.653Y-702.25
X283.653Y-707.33
X283.653Y-730.19
X283.653Y-768.29
X283.653Y-775.91
X283.653Y-778.45
X283.653Y-788.61
X283.653Y-798.77
X283.653Y-801.31
X283.653Y-803.85
X283.653Y-806.39
X286.161Y-728.798
X286.193Y-643.83
X286.193Y-646.37
X286.193Y-648.91
X286.193Y-684.47
X286.193Y-687.01
X286.193Y-694.63
X286.193Y-697.17
X286.193Y-702.25
X286.193Y-707.33
X286.193Y-745.43
X286.193Y-747.97
X286.193Y-750.51
X286.193Y-753.05
X286.193Y-755.59
X286.193Y-763.21
X286.193Y-775.91
X286.193Y-778.45
X286.193Y-798.77
X286.193Y-801.31
X286.193Y-803.85
X286.193Y-806.39
X286.661Y-733.798
X286.661Y-741.244
X287.921Y-691.548
X288.101Y-724.997
X288.733Y-643.83
X288.733Y-646.37
X288.733Y-648.91
X288.733Y-694.63
X288.733Y-697.17
X288.733Y-702.25
X288.733Y-707.33
X288.733Y-745.43
X288.733Y-747.97
X288.733Y-750.51
X288.733Y-753.05
X288.733Y-755.59
X288.733Y-775.91
X288.733Y-778.45
X288.733Y-783.53
X288.733Y-786.07
X288.733Y-788.61
X288.733Y-791.15
X288.733Y-793.69
X288.733Y-796.23
X288.733Y-798.77
X288.733Y-801.31
X288.733Y-803.85
X288.733Y-806.39
X288.836Y-763.073
X290.111Y-734.348
X291.273Y-643.83
X291.273Y-646.37
X291.273Y-648.91
X291.273Y-697.17
X291.273Y-702.25
X291.273Y-745.43
X291.273Y-747.97
X291.273Y-750.51
X291.273Y-753.05
X291.273Y-773.37
X291.273Y-775.91
X291.273Y-778.45
X291.273Y-793.69
X291.273Y-798.77
X291.273Y-801.31
X291.273Y-803.85
X291.273Y-806.39
X291.561Y-795.973
X291.621Y-691.548
X293.813Y-643.83
X293.813Y-646.37
X293.813Y-648.91
X293.813Y-745.43
X293.813Y-747.97
X293.813Y-750.51
X293.813Y-753.05
X293.813Y-773.37
X293.813Y-775.91
X293.813Y-778.45
X293.813Y-788.61
X293.813Y-791.15
X293.813Y-793.69
X293.813Y-796.23
X293.813Y-798.77
X293.813Y-801.31
X293.813Y-803.85
X293.813Y-806.39
X296.353Y-643.83
X296.353Y-646.37
X296.353Y-648.91
X296.353Y-745.43
X296.353Y-747.97
X296.353Y-750.51
X296.353Y-753.05
X296.353Y-758.13
X296.353Y-770.83
X296.353Y-773.37
X296.353Y-775.91
X296.353Y-798.77
X296.353Y-801.31
X296.353Y-803.85
X296.353Y-806.39
X297.821Y-691.548
X298.893Y-643.83
X298.893Y-646.37
X298.893Y-648.91
X298.893Y-745.43
X298.893Y-747.97
X298.893Y-750.51
X298.893Y-760.67
X298.893Y-791.15
X298.893Y-803.85
X298.893Y-806.39
X299.636Y-795.673
X301.433Y-643.83
X301.433Y-646.37
X301.433Y-648.91
X301.433Y-745.43
X301.433Y-747.97
X301.433Y-750.51
X301.433Y-760.67
X301.433Y-765.75
X301.433Y-791.15
X301.433Y-803.85
X301.433Y-806.39
X303.973Y-643.83
X303.973Y-646.37
X303.973Y-648.91
X303.973Y-684.47
X303.973Y-687.01
X303.973Y-727.65
X303.973Y-745.43
X303.973Y-747.97
X303.973Y-750.51
X303.973Y-791.15
X303.973Y-806.39
X306.513Y-643.83
X306.513Y-646.37
X306.513Y-648.91
X306.513Y-694.63
X306.513Y-697.17
X306.513Y-727.65
X306.513Y-745.43
X306.513Y-747.97
X306.513Y-750.51
X306.513Y-765.75
X306.513Y-806.39
X309.053Y-643.83
X309.053Y-646.37
X309.053Y-648.91
X309.053Y-692.09
X309.053Y-694.63
X309.053Y-697.17
X309.053Y-747.97
X309.053Y-750.51
X309.053Y-765.75
X309.053Y-796.23
X309.053Y-806.39
X311.593Y-643.83
X311.593Y-646.37
X311.593Y-648.91
X311.593Y-692.09
X311.593Y-694.63
X311.593Y-697.17
X311.593Y-758.13
X311.593Y-793.69
X311.593Y-796.23
X311.593Y-806.39
X314.133Y-643.83
X314.133Y-646.37
X314.133Y-648.91
X314.133Y-666.69
X314.133Y-669.23
X314.133Y-671.77
X314.133Y-674.31
X314.133Y-676.85
X314.133Y-679.39
X314.133Y-684.47
X314.133Y-692.09
X314.133Y-694.63
X314.133Y-697.17
X314.133Y-758.13
X314.133Y-806.39
X316.673Y-643.83
X316.673Y-646.37
X316.673Y-648.91
X316.673Y-666.69
X316.673Y-669.23
X316.673Y-671.77
X316.673Y-674.31
X316.673Y-676.85
X316.673Y-679.39
X316.673Y-684.47
X316.673Y-692.09
X316.673Y-694.63
X316.673Y-697.17
X316.673Y-806.39
X319.213Y-643.83
X319.213Y-646.37
X319.213Y-648.91
X319.213Y-666.69
X319.213Y-669.23
X319.213Y-671.77
X319.213Y-674.31
X319.213Y-676.85
X319.213Y-679.39
X319.213Y-684.47
X319.213Y-692.09
X319.213Y-694.63
X319.213Y-697.17
X319.213Y-801.31
X319.213Y-803.85
X319.213Y-806.39
X319.661Y-715.548
X321.753Y-643.83
X321.753Y-646.37
X321.753Y-648.91
X321.753Y-666.69
X321.753Y-669.23
X321.753Y-671.77
X321.753Y-674.31
X321.753Y-676.85
X321.753Y-679.39
X321.753Y-684.47
X321.753Y-692.09
X321.753Y-694.63
X321.753Y-697.17
X321.753Y-778.45
X321.753Y-801.31
X321.753Y-803.85
X321.753Y-806.39
X322.086Y-776.773
X322.161Y-714.298
X323.122Y-748.598
X324.293Y-643.83
X324.293Y-646.37
X324.293Y-648.91
X324.293Y-666.69
X324.293Y-669.23
X324.293Y-671.77
X324.293Y-674.31
X324.293Y-676.85
X324.293Y-679.39
X324.293Y-684.47
X324.293Y-692.09
X324.293Y-694.63
X324.293Y-697.17
X324.293Y-714.95
X324.293Y-801.31
X324.293Y-803.85
X324.293Y-806.39
X324.586Y-776.798
X324.886Y-734.874
X325.111Y-750.048
X325.323Y-745.961
X325.708Y-749.095
X326.833Y-643.83
X326.833Y-646.37
X326.833Y-648.91
X326.833Y-666.69
X326.833Y-669.23
X326.833Y-671.77
X326.833Y-674.31
X326.833Y-676.85
X326.833Y-679.39
X326.833Y-684.47
X326.833Y-692.09
X326.833Y-694.63
X326.833Y-697.17
X326.833Y-714.95
X326.833Y-778.45
X326.833Y-801.31
X326.833Y-803.85
X326.833Y-806.39
X327.741Y-752.849
X327.811Y-780.648
X329.286Y-746.048
X329.373Y-643.83
X329.373Y-646.37
X329.373Y-648.91
X329.373Y-666.69
X329.373Y-669.23
X329.373Y-671.77
X329.373Y-674.31
X329.373Y-676.85
X329.373Y-679.39
X329.373Y-684.47
X329.373Y-692.09
X329.373Y-694.63
X329.373Y-697.17
X329.373Y-714.95
X329.373Y-801.31
X329.373Y-803.85
X329.373Y-806.39
X330.086Y-779.673
X331.36Y-757.875
X331.486Y-733.399
X331.861Y-773.048
X331.913Y-643.83
X331.913Y-646.37
X331.913Y-648.91
X331.913Y-666.69
X331.913Y-669.23
X331.913Y-671.77
X331.913Y-674.31
X331.913Y-676.85
X331.913Y-679.39
X331.913Y-684.47
X331.913Y-692.09
X331.913Y-694.63
X331.913Y-697.17
X331.913Y-714.95
X331.913Y-801.31
X331.913Y-803.85
X331.913Y-806.39
X333.411Y-747.298
X334.453Y-643.83
X334.453Y-646.37
X334.453Y-648.91
X334.453Y-666.69
X334.453Y-669.23
X334.453Y-671.77
X334.453Y-674.31
X334.453Y-676.85
X334.453Y-679.39
X334.453Y-684.47
X334.453Y-692.09
X334.453Y-694.63
X334.453Y-697.17
X334.453Y-714.95
X334.453Y-801.31
X334.453Y-803.85
X334.453Y-806.39
X335.125Y-757.673
X335.311Y-725.723
X336.993Y-643.83
X336.993Y-646.37
X336.993Y-648.91
X336.993Y-666.69
X336.993Y-669.23
X336.993Y-671.77
X336.993Y-674.31
X336.993Y-676.85
X336.993Y-679.39
X336.993Y-684.47
X336.993Y-692.09
X336.993Y-694.63
X336.993Y-697.17
X336.993Y-801.31
X336.993Y-803.85
X336.993Y-806.39
X339.533Y-643.83
X339.533Y-646.37
X339.533Y-648.91
X339.533Y-666.69
X339.533Y-669.23
X339.533Y-671.77
X339.533Y-674.31
X339.533Y-676.85
X339.533Y-679.39
X339.533Y-684.47
X339.533Y-692.09
X339.533Y-694.63
X339.533Y-697.17
X339.533Y-775.91
X339.533Y-793.69
X339.533Y-801.31
X339.533Y-803.85
X339.533Y-806.39
X339.536Y-797.348
X339.661Y-769.273
X340.786Y-791.798
X342.073Y-643.83
X342.073Y-646.37
X342.073Y-648.91
X342.073Y-666.69
X342.073Y-669.23
X342.073Y-671.77
X342.073Y-674.31
X342.073Y-676.85
X342.073Y-679.39
X342.073Y-684.47
X342.073Y-692.09
X342.073Y-694.63
X342.073Y-697.17
X342.073Y-773.37
X342.073Y-801.31
X342.073Y-803.85
X342.073Y-806.39
X343.161Y-794.548
X344.613Y-643.83
X344.613Y-646.37
X344.613Y-648.91
X344.613Y-684.47
X344.613Y-687.01
X344.613Y-692.09
X344.613Y-694.63
X344.613Y-697.17
X344.613Y-770.83
X344.613Y-773.37
X344.613Y-775.91
X344.613Y-788.61
X344.613Y-791.15
X344.613Y-793.69
X344.613Y-801.31
X344.613Y-803.85
X344.613Y-806.39
X347.153Y-643.83
X347.153Y-646.37
X347.153Y-648.91
X347.153Y-684.47
X347.153Y-694.63
X347.153Y-742.89
X347.153Y-745.43
X347.153Y-770.83
X347.153Y-773.37
X347.153Y-775.91
X347.153Y-788.61
X347.153Y-791.15
X347.153Y-793.69
X347.153Y-796.23
X347.153Y-798.77
X347.153Y-801.31
X347.153Y-803.85
X347.153Y-806.39
X349.693Y-643.83
X349.693Y-646.37
X349.693Y-648.91
X349.693Y-770.83
X349.693Y-773.37
X349.693Y-775.91
X349.693Y-786.07
X349.693Y-788.61
X349.693Y-791.15
X349.693Y-793.69
X349.693Y-796.23
X349.693Y-798.77
X349.693Y-801.31
X349.693Y-803.85
X349.693Y-806.39
X352.233Y-643.83
X352.233Y-646.37
X352.233Y-648.91
X352.233Y-697.17
X352.233Y-750.51
X352.233Y-770.83
X352.233Y-773.37
X352.233Y-775.91
X352.233Y-786.07
X352.233Y-788.61
X352.233Y-791.15
X352.233Y-793.69
X352.233Y-796.23
X352.233Y-798.77
X352.233Y-801.31
X352.233Y-803.85
X352.233Y-806.39
X353.011Y-756.273
X354.773Y-643.83
X354.773Y-646.37
X354.773Y-648.91
X354.773Y-697.17
X354.773Y-770.83
X354.773Y-773.37
X354.773Y-775.91
X354.773Y-786.07
X354.773Y-788.61
X354.773Y-791.15
X354.773Y-793.69
X354.773Y-796.23
X354.773Y-798.77
X354.773Y-801.31
X354.773Y-803.85
X354.773Y-806.39
X356.911Y-728.798
X357.313Y-643.83
X357.313Y-646.37
X357.313Y-648.91
X357.313Y-666.69
X357.313Y-669.23
X357.313Y-671.77
X357.313Y-674.31
X357.313Y-676.85
X357.313Y-679.39
X357.313Y-770.83
X357.313Y-773.37
X357.313Y-775.91
X357.313Y-786.07
X357.313Y-788.61
X357.313Y-791.15
X357.313Y-793.69
X357.313Y-796.23
X357.313Y-798.77
X357.313Y-801.31
X357.313Y-803.85
X357.313Y-806.39
X358.695Y-734.629
X358.791Y-751.679
X359.713Y-733.746
X359.853Y-643.83
X359.853Y-646.37
X359.853Y-648.91
X359.853Y-697.17
X359.853Y-770.83
X359.853Y-773.37
X359.853Y-775.91
X359.853Y-786.07
X359.853Y-788.61
X359.853Y-791.15
X359.853Y-793.69
X359.853Y-796.23
X359.853Y-798.77
X359.853Y-801.31
X359.853Y-803.85
X359.853Y-806.39
X361.661Y-747.624
X362.393Y-643.83
X362.393Y-646.37
X362.393Y-648.91
X362.393Y-687.01
X362.393Y-697.17
X362.393Y-702.25
X362.393Y-773.37
X362.393Y-775.91
X362.393Y-786.07
X362.393Y-788.61
X362.393Y-791.15
X362.393Y-793.69
X362.393Y-796.23
X362.393Y-798.77
X362.393Y-801.31
X362.393Y-803.85
X362.393Y-806.39
X363.911Y-728.798
X364.712Y-740.331
X364.933Y-643.83
X364.933Y-646.37
X364.933Y-648.91
X364.933Y-684.47
X364.933Y-687.01
X364.933Y-697.17
X364.933Y-765.75
X364.933Y-775.91
X364.933Y-786.07
X364.933Y-788.61
X364.933Y-791.15
X364.933Y-793.69
X364.933Y-796.23
X364.933Y-798.77
X364.933Y-801.31
X364.933Y-803.85
X364.933Y-806.39
X366.11Y-749.949
X367.473Y-643.83
X367.473Y-646.37
X367.473Y-648.91
X367.473Y-684.47
X367.473Y-687.01
X367.473Y-692.09
X367.473Y-697.17
X367.473Y-702.25
X367.473Y-760.67
X367.473Y-765.75
X367.473Y-768.29
X367.473Y-786.07
X367.473Y-788.61
X367.473Y-791.15
X367.473Y-793.69
X367.473Y-796.23
X367.473Y-798.77
X367.473Y-801.31
X367.473Y-803.85
X368.061Y-729.048
X369.186Y-721.198
X370.013Y-643.83
X370.013Y-646.37
X370.013Y-648.91
X370.013Y-684.47
X370.013Y-687.01
X370.013Y-692.09
X370.013Y-697.17
X370.013Y-702.25
X370.013Y-758.13
X370.013Y-760.67
X370.013Y-765.75
X370.013Y-768.29
X370.013Y-770.83
X370.013Y-786.07
X370.013Y-788.61
X370.013Y-791.15
X370.013Y-793.69
X370.013Y-796.23
X370.013Y-798.77
X370.013Y-801.31
X370.013Y-803.85
X370.305Y-714.77
X371.661Y-710.874
X372.553Y-643.83
X372.553Y-646.37
X372.553Y-648.91
X372.553Y-666.69
X372.553Y-669.23
X372.553Y-671.77
X372.553Y-674.31
X372.553Y-676.85
X372.553Y-679.39
X372.553Y-684.47
X372.553Y-687.01
X372.553Y-692.09
X372.553Y-758.13
X372.553Y-760.67
X372.553Y-765.75
X372.553Y-768.29
X372.553Y-770.83
X372.553Y-773.37
X372.553Y-786.07
X372.553Y-788.61
X372.553Y-791.15
X372.553Y-793.69
X372.553Y-796.23
X372.553Y-798.77
X372.553Y-801.31
X372.553Y-803.85
X375.093Y-643.83
X375.093Y-646.37
X375.093Y-648.91
X375.093Y-666.69
X375.093Y-669.23
X375.093Y-671.77
X375.093Y-674.31
X375.093Y-676.85
X375.093Y-679.39
X375.093Y-684.47
X375.093Y-687.01
X375.093Y-692.09
X375.093Y-697.17
X375.093Y-699.71
X375.093Y-758.13
X375.093Y-760.67
X375.093Y-765.75
X375.093Y-770.83
X375.093Y-773.37
X375.093Y-786.07
X375.093Y-788.61
X375.093Y-791.15
X375.093Y-793.69
X375.093Y-796.23
X375.093Y-798.77
X375.093Y-801.31
X375.093Y-803.85
X375.661Y-710.798
X375.861Y-725.223
X376.296Y-739.849
X377.461Y-733.798
X377.633Y-643.83
X377.633Y-646.37
X377.633Y-648.91
X377.633Y-666.69
X377.633Y-669.23
X377.633Y-671.77
X377.633Y-674.31
X377.633Y-676.85
X377.633Y-679.39
X377.633Y-684.47
X377.633Y-687.01
X377.633Y-692.09
X377.633Y-697.17
X377.633Y-699.71
X377.633Y-702.25
X377.633Y-758.13
X377.633Y-760.67
X377.633Y-765.75
X377.633Y-770.83
X377.633Y-773.37
X377.633Y-786.07
X377.633Y-788.61
X377.633Y-791.15
X377.633Y-793.69
X377.633Y-796.23
X377.633Y-798.77
X377.633Y-801.31
X377.633Y-803.85
X378.459Y-744.818
X380.173Y-643.83
X380.173Y-646.37
X380.173Y-648.91
X380.173Y-666.69
X380.173Y-669.23
X380.173Y-671.77
X380.173Y-674.31
X380.173Y-676.85
X380.173Y-679.39
X380.173Y-684.47
X380.173Y-687.01
X380.173Y-692.09
X380.173Y-697.17
X380.173Y-699.71
X380.173Y-702.25
X380.173Y-720.03
X380.173Y-725.11
X380.173Y-758.13
X380.173Y-760.67
X380.173Y-765.75
X380.173Y-770.83
X380.173Y-773.37
X380.173Y-786.07
X380.173Y-788.61
X380.173Y-791.15
X380.173Y-793.69
X380.173Y-796.23
X380.173Y-798.77
X380.173Y-801.31
X380.173Y-803.85
X382.661Y-747.329
X382.661Y-750.548
X382.713Y-643.83
X382.713Y-646.37
X382.713Y-648.91
X382.713Y-666.69
X382.713Y-669.23
X382.713Y-671.77
X382.713Y-674.31
X382.713Y-676.85
X382.713Y-679.39
X382.713Y-684.47
X382.713Y-687.01
X382.713Y-692.09
X382.713Y-697.17
X382.713Y-699.71
X382.713Y-702.25
X382.713Y-758.13
X382.713Y-760.67
X382.713Y-765.75
X382.713Y-770.83
X382.713Y-773.37
X382.713Y-786.07
X382.713Y-788.61
X382.713Y-791.15
X382.713Y-793.69
X382.713Y-796.23
X382.713Y-798.77
X382.713Y-801.31
X382.713Y-803.85
X385.253Y-643.83
X385.253Y-646.37
X385.253Y-648.91
X385.253Y-666.69
X385.253Y-669.23
X385.253Y-671.77
X385.253Y-674.31
X385.253Y-676.85
X385.253Y-679.39
X385.253Y-684.47
X385.253Y-687.01
X385.253Y-692.09
X385.253Y-697.17
X385.253Y-699.71
X385.253Y-702.25
X385.253Y-745.43
X385.253Y-747.97
X385.253Y-750.51
X385.253Y-758.13
X385.253Y-760.67
X385.253Y-765.75
X385.253Y-770.83
X385.253Y-773.37
X385.253Y-786.07
X385.253Y-788.61
X385.253Y-791.15
X385.253Y-793.69
X385.253Y-796.23
X385.253Y-798.77
X385.253Y-801.31
X385.253Y-803.85
X387.793Y-643.83
X387.793Y-646.37
X387.793Y-648.91
X387.793Y-666.69
X387.793Y-669.23
X387.793Y-671.77
X387.793Y-674.31
X387.793Y-676.85
X387.793Y-679.39
X387.793Y-684.47
X387.793Y-687.01
X387.793Y-692.09
X387.793Y-697.17
X387.793Y-699.71
X387.793Y-702.25
X387.793Y-758.13
X387.793Y-760.67
X387.793Y-765.75
X387.793Y-770.83
X387.793Y-773.37
X387.793Y-786.07
X387.793Y-788.61
X387.793Y-791.15
X387.793Y-793.69
X387.793Y-796.23
X387.793Y-798.77
X387.793Y-801.31
X387.793Y-803.85
X390.333Y-643.83
X390.333Y-646.37
X390.333Y-648.91
X390.333Y-666.69
X390.333Y-669.23
X390.333Y-671.77
X390.333Y-674.31
X390.333Y-676.85
X390.333Y-679.39
X390.333Y-684.47
X390.333Y-687.01
X390.333Y-692.09
X390.333Y-697.17
X390.333Y-699.71
X390.333Y-720.03
X390.333Y-745.43
X390.333Y-747.97
X390.333Y-750.51
X390.333Y-760.67
X390.333Y-765.75
X390.333Y-770.83
X390.333Y-773.37
X390.333Y-786.07
X390.333Y-788.61
X390.333Y-791.15
X390.333Y-793.69
X390.333Y-796.23
X390.333Y-798.77
X390.333Y-801.31
X390.333Y-803.85
X392.011Y-728.948
X392.873Y-643.83
X392.873Y-646.37
X392.873Y-648.91
X392.873Y-666.69
X392.873Y-669.23
X392.873Y-671.77
X392.873Y-674.31
X392.873Y-676.85
X392.873Y-679.39
X392.873Y-684.47
X392.873Y-687.01
X392.873Y-692.09
X392.873Y-697.17
X392.873Y-745.43
X392.873Y-747.97
X392.873Y-750.51
X392.873Y-753.05
X392.873Y-760.67
X392.873Y-765.75
X392.873Y-770.83
X392.873Y-773.37
X392.873Y-786.07
X392.873Y-788.61
X392.873Y-791.15
X392.873Y-793.69
X392.873Y-796.23
X392.873Y-798.77
X392.873Y-801.31
X392.873Y-803.85
X393.636Y-721.098
X395.413Y-643.83
X395.413Y-646.37
X395.413Y-648.91
X395.413Y-666.69
X395.413Y-669.23
X395.413Y-671.77
X395.413Y-674.31
X395.413Y-676.85
X395.413Y-679.39
X395.413Y-684.47
X395.413Y-687.01
X395.413Y-692.09
X395.413Y-697.17
X395.413Y-745.43
X395.413Y-747.97
X395.413Y-750.51
X395.413Y-753.05
X395.413Y-755.59
X395.413Y-760.67
X395.413Y-765.75
X395.413Y-770.83
X395.413Y-773.37
X395.413Y-786.07
X395.413Y-788.61
X395.413Y-791.15
X395.413Y-793.69
X395.413Y-796.23
X395.413Y-798.77
X395.413Y-801.31
X395.413Y-803.85
X397.953Y-643.83
X397.953Y-646.37
X397.953Y-648.91
X397.953Y-666.69
X397.953Y-669.23
X397.953Y-671.77
X397.953Y-674.31
X397.953Y-676.85
X397.953Y-679.39
X397.953Y-684.47
X397.953Y-687.01
X397.953Y-692.09
X397.953Y-714.95
X397.953Y-720.03
X397.953Y-745.43
X397.953Y-747.97
X397.953Y-750.51
X397.953Y-753.05
X397.953Y-755.59
X397.953Y-760.67
X397.953Y-765.75
X397.953Y-770.83
X397.953Y-773.37
X397.953Y-786.07
X397.953Y-788.61
X397.953Y-791.15
X397.953Y-793.69
X397.953Y-796.23
X397.953Y-798.77
X397.953Y-801.31
X397.953Y-803.85
X400.493Y-643.83
X400.493Y-646.37
X400.493Y-648.91
X400.493Y-666.69
X400.493Y-669.23
X400.493Y-671.77
X400.493Y-674.31
X400.493Y-676.85
X400.493Y-679.39
X400.493Y-684.47
X400.493Y-687.01
X400.493Y-692.09
X400.493Y-714.95
X400.493Y-720.03
X400.493Y-745.43
X400.493Y-747.97
X400.493Y-750.51
X400.493Y-753.05
X400.493Y-755.59
X400.493Y-760.67
X400.493Y-765.75
X400.493Y-770.83
X400.493Y-773.37
X400.493Y-786.07
X400.493Y-788.61
X400.493Y-791.15
X400.493Y-793.69
X400.493Y-796.23
X400.493Y-798.77
X400.493Y-801.31
X400.493Y-803.85
X403.033Y-643.83
X403.033Y-646.37
X403.033Y-648.91
X403.033Y-666.69
X403.033Y-669.23
X403.033Y-671.77
X403.033Y-674.31
X403.033Y-676.85
X403.033Y-679.39
X403.033Y-684.47
X403.033Y-687.01
X403.033Y-750.51
X403.033Y-753.05
X403.033Y-755.59
X403.033Y-760.67
X403.033Y-765.75
X403.033Y-770.83
X403.033Y-773.37
X403.033Y-786.07
X403.033Y-788.61
X403.033Y-791.15
X403.033Y-793.69
X403.033Y-796.23
X403.033Y-798.77
X403.033Y-801.31
X403.033Y-803.85
X405.573Y-643.83
X405.573Y-646.37
X405.573Y-648.91
X405.573Y-684.47
X405.573Y-687.01
X405.573Y-704.79
X405.573Y-707.33
X405.573Y-714.95
X405.573Y-720.03
X405.573Y-750.51
X405.573Y-753.05
X405.573Y-755.59
X405.573Y-760.67
X405.573Y-765.75
X405.573Y-770.83
X405.573Y-773.37
X405.573Y-786.07
X405.573Y-788.61
X405.573Y-791.15
X405.573Y-793.69
X405.573Y-796.23
X405.573Y-798.77
X405.573Y-801.31
X405.573Y-803.85
X408.113Y-648.91
X408.113Y-707.33
X408.113Y-709.87
X408.113Y-720.03
X408.113Y-750.51
X408.113Y-760.67
X408.113Y-765.75
X408.113Y-768.29
X408.113Y-770.83
X408.113Y-773.37
X408.113Y-786.07
X408.113Y-788.61
X408.113Y-791.15
X408.113Y-793.69
X408.113Y-796.23
X408.113Y-798.77
X408.113Y-801.31
X410.653Y-648.91
X410.653Y-709.87
X410.653Y-712.41
X410.653Y-720.03
X410.653Y-745.43
X410.653Y-765.75
X410.653Y-768.29
X410.653Y-770.83
X410.653Y-773.37
X410.653Y-786.07
X410.653Y-788.61
X410.653Y-791.15
X410.653Y-793.69
X410.653Y-796.23
X410.653Y-798.77
X410.653Y-801.31
X413.193Y-648.91
X413.193Y-692.09
X413.193Y-704.79
X413.193Y-712.41
X413.193Y-714.95
X413.193Y-745.43
X413.193Y-763.21
X413.193Y-765.75
X413.193Y-768.29
X413.193Y-770.83
X413.193Y-773.37
X413.193Y-786.07
X413.193Y-788.61
X413.193Y-791.15
X413.193Y-793.69
X413.193Y-796.23
X413.193Y-798.77
X413.193Y-801.31
X415.733Y-643.83
X415.733Y-646.37
X415.733Y-648.91
X415.733Y-702.25
X415.733Y-704.79
X415.733Y-707.33
X415.733Y-714.95
X415.733Y-750.51
X415.733Y-760.67
X415.733Y-763.21
X415.733Y-765.75
X415.733Y-768.29
X415.733Y-770.83
X415.733Y-773.37
X415.733Y-786.07
X415.733Y-788.61
X415.733Y-791.15
X415.733Y-793.69
X415.733Y-796.23
X415.733Y-798.77
X415.733Y-801.31
X415.733Y-803.85
X418.273Y-643.83
X418.273Y-646.37
X418.273Y-648.91
X418.273Y-666.69
X418.273Y-669.23
X418.273Y-671.77
X418.273Y-674.31
X418.273Y-676.85
X418.273Y-679.39
X418.273Y-699.71
X418.273Y-702.25
X418.273Y-704.79
X418.273Y-707.33
X418.273Y-709.87
X418.273Y-720.03
X418.273Y-760.67
X418.273Y-763.21
X418.273Y-765.75
X418.273Y-768.29
X418.273Y-770.83
X418.273Y-773.37
X418.273Y-786.07
X418.273Y-788.61
X418.273Y-791.15
X418.273Y-793.69
X418.273Y-796.23
X418.273Y-798.77
X418.273Y-801.31
X418.273Y-803.85
X420.813Y-643.83
X420.813Y-646.37
X420.813Y-648.91
X420.813Y-702.25
X420.813Y-704.79
X420.813Y-707.33
X420.813Y-709.87
X420.813Y-712.41
X420.813Y-720.03
X420.813Y-753.05
X420.813Y-760.67
X420.813Y-763.21
X420.813Y-765.75
X420.813Y-768.29
X420.813Y-770.83
X420.813Y-773.37
X420.813Y-786.07
X420.813Y-788.61
X420.813Y-791.15
X420.813Y-793.69
X420.813Y-796.23
X420.813Y-798.77
X420.813Y-801.31
X420.813Y-803.85
X423.353Y-643.83
X423.353Y-646.37
X423.353Y-648.91
X423.353Y-684.47
X423.353Y-687.01
X423.353Y-692.09
X423.353Y-702.25
X423.353Y-704.79
X423.353Y-707.33
X423.353Y-709.87
X423.353Y-712.41
X423.353Y-714.95
X423.353Y-763.21
X423.353Y-765.75
X423.353Y-768.29
X423.353Y-770.83
X423.353Y-773.37
X423.353Y-786.07
X423.353Y-788.61
X423.353Y-791.15
X423.353Y-793.69
X423.353Y-796.23
X423.353Y-798.77
X423.353Y-801.31
X423.353Y-803.85
X425.893Y-643.83
X425.893Y-646.37
X425.893Y-648.91
X425.893Y-684.47
X425.893Y-687.01
X425.893Y-692.09
X425.893Y-702.25
X425.893Y-704.79
X425.893Y-707.33
X425.893Y-709.87
X425.893Y-712.41
X425.893Y-714.95
X425.893Y-765.75
X425.893Y-768.29
X425.893Y-770.83
X425.893Y-773.37
X425.893Y-786.07
X425.893Y-788.61
X425.893Y-791.15
X425.893Y-793.69
X425.893Y-796.23
X425.893Y-798.77
X425.893Y-801.31
X425.893Y-803.85
X428.433Y-643.83
X428.433Y-646.37
X428.433Y-648.91
X428.433Y-684.47
X428.433Y-687.01
X428.433Y-692.09
X428.433Y-702.25
X428.433Y-704.79
X428.433Y-707.33
X428.433Y-709.87
X428.433Y-712.41
X428.433Y-720.03
X428.433Y-758.13
X428.433Y-768.29
X428.433Y-770.83
X428.433Y-773.37
X428.433Y-786.07
X428.433Y-788.61
X428.433Y-791.15
X428.433Y-793.69
X428.433Y-796.23
X428.433Y-798.77
X428.433Y-801.31
X428.433Y-803.85
X430.901Y-727.175
X430.973Y-643.83
X430.973Y-646.37
X430.973Y-648.91
X430.973Y-684.47
X430.973Y-687.01
X430.973Y-692.09
X430.973Y-702.25
X430.973Y-704.79
X430.973Y-707.33
X430.973Y-709.87
X430.973Y-712.41
X430.973Y-720.03
X430.973Y-740.35
X430.973Y-750.51
X430.973Y-753.05
X430.973Y-758.13
X430.973Y-760.67
X430.973Y-786.07
X430.973Y-788.61
X430.973Y-791.15
X430.973Y-793.69
X430.973Y-796.23
X430.973Y-798.77
X430.973Y-801.31
X430.973Y-803.85
X431.962Y-729.849
X432.501Y-725.875
X433.513Y-643.83
X433.513Y-646.37
X433.513Y-648.91
X433.513Y-666.69
X433.513Y-669.23
X433.513Y-671.77
X433.513Y-674.31
X433.513Y-676.85
X433.513Y-679.39
X433.513Y-684.47
X433.513Y-687.01
X433.513Y-692.09
X433.513Y-720.03
X433.513Y-753.05
X433.513Y-758.13
X433.513Y-760.67
X433.513Y-768.29
X433.513Y-770.83
X433.513Y-773.37
X433.513Y-786.07
X433.513Y-788.61
X433.513Y-791.15
X433.513Y-793.69
X433.513Y-796.23
X433.513Y-798.77
X433.513Y-801.31
X433.513Y-803.85
X433.761Y-729.849
X436.053Y-643.83
X436.053Y-646.37
X436.053Y-648.91
X436.053Y-666.69
X436.053Y-669.23
X436.053Y-671.77
X436.053Y-674.31
X436.053Y-676.85
X436.053Y-679.39
X436.053Y-684.47
X436.053Y-687.01
X436.053Y-692.09
X436.053Y-702.25
X436.053Y-707.33
X436.053Y-709.87
X436.053Y-712.41
X436.053Y-714.95
X436.053Y-753.05
X436.053Y-758.13
X436.053Y-760.67
X436.053Y-765.75
X436.053Y-768.29
X436.053Y-770.83
X436.053Y-773.37
X436.053Y-786.07
X436.053Y-788.61
X436.053Y-791.15
X436.053Y-793.69
X436.053Y-796.23
X436.053Y-798.77
X436.053Y-801.31
X436.053Y-803.85
X436.401Y-723.575
X437.601Y-745.775
X438.593Y-643.83
X438.593Y-646.37
X438.593Y-648.91
X438.593Y-666.69
X438.593Y-669.23
X438.593Y-671.77
X438.593Y-674.31
X438.593Y-676.85
X438.593Y-679.39
X438.593Y-684.47
X438.593Y-687.01
X438.593Y-692.09
X438.593Y-697.17
X438.593Y-702.25
X438.593Y-704.79
X438.593Y-707.33
X438.593Y-709.87
X438.593Y-712.41
X438.593Y-714.95
X438.593Y-765.75
X438.593Y-768.29
X438.593Y-770.83
X438.593Y-773.37
X438.593Y-786.07
X438.593Y-788.61
X438.593Y-791.15
X438.593Y-793.69
X438.593Y-796.23
X438.593Y-798.77
X438.593Y-801.31
X438.593Y-803.85
X440.201Y-720.275
X440.201Y-726.375
X441.101Y-721.475
X441.133Y-643.83
X441.133Y-646.37
X441.133Y-648.91
X441.133Y-666.69
X441.133Y-669.23
X441.133Y-671.77
X441.133Y-674.31
X441.133Y-676.85
X441.133Y-679.39
X441.133Y-684.47
X441.133Y-687.01
X441.133Y-697.17
X441.133Y-753.05
X441.133Y-760.67
X441.133Y-765.75
X441.133Y-768.29
X441.133Y-770.83
X441.133Y-773.37
X441.133Y-786.07
X441.133Y-788.61
X441.133Y-791.15
X441.133Y-793.69
X441.133Y-796.23
X441.133Y-798.77
X441.133Y-801.31
X441.133Y-803.85
X442.901Y-736.075
X443.673Y-643.83
X443.673Y-646.37
X443.673Y-648.91
X443.673Y-666.69
X443.673Y-669.23
X443.673Y-671.77
X443.673Y-674.31
X443.673Y-676.85
X443.673Y-679.39
X443.673Y-684.47
X443.673Y-687.01
X443.673Y-697.17
X443.673Y-702.25
X443.673Y-704.79
X443.673Y-707.33
X443.673Y-709.87
X443.673Y-712.41
X443.673Y-714.95
X443.673Y-740.35
X443.673Y-753.05
X443.673Y-760.67
X443.673Y-765.75
X443.673Y-768.29
X443.673Y-770.83
X443.673Y-773.37
X443.673Y-786.07
X443.673Y-788.61
X443.673Y-791.15
X443.673Y-793.69
X443.673Y-796.23
X443.673Y-798.77
X443.673Y-801.31
X443.673Y-803.85
X445.701Y-720.575
X446.213Y-643.83
X446.213Y-646.37
X446.213Y-648.91
X446.213Y-666.69
X446.213Y-669.23
X446.213Y-671.77
X446.213Y-674.31
X446.213Y-676.85
X446.213Y-679.39
X446.213Y-684.47
X446.213Y-687.01
X446.213Y-697.17
X446.213Y-702.25
X446.213Y-704.79
X446.213Y-707.33
X446.213Y-709.87
X446.213Y-712.41
X446.213Y-714.95
X446.213Y-760.67
X446.213Y-765.75
X446.213Y-768.29
X446.213Y-770.83
X446.213Y-773.37
X446.213Y-786.07
X446.213Y-788.61
X446.213Y-791.15
X446.213Y-793.69
X446.213Y-796.23
X446.213Y-798.77
X446.213Y-801.31
X446.213Y-803.85
X447.525Y-745.267
X448.753Y-643.83
X448.753Y-646.37
X448.753Y-648.91
X448.753Y-666.69
X448.753Y-669.23
X448.753Y-671.77
X448.753Y-674.31
X448.753Y-676.85
X448.753Y-679.39
X448.753Y-684.47
X448.753Y-687.01
X448.753Y-697.17
X448.753Y-702.25
X448.753Y-704.79
X448.753Y-707.33
X448.753Y-709.87
X448.753Y-712.41
X448.753Y-740.35
X448.753Y-753.05
X448.753Y-760.67
X448.753Y-765.75
X448.753Y-768.29
X448.753Y-770.83
X448.753Y-773.37
X448.753Y-786.07
X448.753Y-788.61
X448.753Y-791.15
X448.753Y-793.69
X448.753Y-796.23
X448.753Y-798.77
X448.753Y-801.31
X448.753Y-803.85
X450.401Y-726.975
X451.293Y-643.83
X451.293Y-646.37
X451.293Y-648.91
X451.293Y-666.69
X451.293Y-669.23
X451.293Y-671.77
X451.293Y-674.31
X451.293Y-676.85
X451.293Y-679.39
X451.293Y-684.47
X451.293Y-687.01
X451.293Y-697.17
X451.293Y-702.25
X451.293Y-704.79
X451.293Y-707.33
X451.293Y-709.87
X451.293Y-712.41
X451.293Y-725.11
X451.293Y-740.35
X451.293Y-753.05
X451.293Y-758.13
X451.293Y-765.75
X451.293Y-768.29
X451.293Y-770.83
X451.293Y-773.37
X451.293Y-786.07
X451.293Y-788.61
X451.293Y-791.15
X451.293Y-793.69
X451.293Y-796.23
X451.293Y-798.77
X451.293Y-801.31
X451.293Y-803.85
X451.61Y-730.298
X453.833Y-643.83
X453.833Y-646.37
X453.833Y-648.91
X453.833Y-666.69
X453.833Y-669.23
X453.833Y-671.77
X453.833Y-674.31
X453.833Y-676.85
X453.833Y-679.39
X453.833Y-684.47
X453.833Y-687.01
X453.833Y-697.17
X453.833Y-702.25
X453.833Y-704.79
X453.833Y-707.33
X453.833Y-709.87
X453.833Y-712.41
X453.833Y-722.57
X453.833Y-725.11
X453.833Y-727.65
X453.833Y-730.19
X453.833Y-740.35
X453.833Y-753.05
X453.833Y-758.13
X453.833Y-765.75
X453.833Y-768.29
X453.833Y-770.83
X453.833Y-773.37
X453.833Y-786.07
X453.833Y-788.61
X453.833Y-791.15
X453.833Y-793.69
X453.833Y-796.23
X453.833Y-798.77
X453.833Y-801.31
X453.833Y-803.85
X456.373Y-643.83
X456.373Y-646.37
X456.373Y-648.91
X456.373Y-666.69
X456.373Y-669.23
X456.373Y-671.77
X456.373Y-674.31
X456.373Y-676.85
X456.373Y-679.39
X456.373Y-684.47
X456.373Y-687.01
X456.373Y-697.17
X456.373Y-702.25
X456.373Y-704.79
X456.373Y-707.33
X456.373Y-709.87
X456.373Y-720.03
X456.373Y-722.57
X456.373Y-725.11
X456.373Y-727.65
X456.373Y-730.19
X456.373Y-740.35
X456.373Y-753.05
X456.373Y-758.13
X456.373Y-765.75
X456.373Y-768.29
X456.373Y-770.83
X456.373Y-773.37
X456.373Y-786.07
X456.373Y-788.61
X456.373Y-791.15
X456.373Y-793.69
X456.373Y-796.23
X456.373Y-798.77
X456.373Y-801.31
X456.373Y-803.85
X458.913Y-643.83
X458.913Y-646.37
X458.913Y-648.91
X458.913Y-666.69
X458.913Y-669.23
X458.913Y-671.77
X458.913Y-674.31
X458.913Y-676.85
X458.913Y-679.39
X458.913Y-684.47
X458.913Y-687.01
X458.913Y-697.17
X458.913Y-702.25
X458.913Y-704.79
X458.913Y-707.33
X458.913Y-720.03
X458.913Y-725.11
X458.913Y-727.65
X458.913Y-730.19
X458.913Y-735.27
X458.913Y-758.13
X458.913Y-765.75
X458.913Y-768.29
X458.913Y-770.83
X458.913Y-773.37
X458.913Y-786.07
X458.913Y-788.61
X458.913Y-791.15
X458.913Y-793.69
X458.913Y-796.23
X458.913Y-798.77
X458.913Y-801.31
X458.913Y-803.85
X461.453Y-643.83
X461.453Y-646.37
X461.453Y-648.91
X461.453Y-666.69
X461.453Y-669.23
X461.453Y-671.77
X461.453Y-674.31
X461.453Y-676.85
X461.453Y-679.39
X461.453Y-684.47
X461.453Y-687.01
X461.453Y-697.17
X461.453Y-702.25
X461.453Y-704.79
X461.453Y-720.03
X461.453Y-725.11
X461.453Y-727.65
X461.453Y-730.19
X461.453Y-735.27
X461.453Y-737.81
X461.453Y-758.13
X461.453Y-765.75
X461.453Y-768.29
X461.453Y-770.83
X461.453Y-773.37
X461.453Y-786.07
X461.453Y-788.61
X461.453Y-791.15
X461.453Y-793.69
X461.453Y-796.23
X461.453Y-798.77
X461.453Y-801.31
X461.453Y-803.85
X463.993Y-643.83
X463.993Y-646.37
X463.993Y-648.91
X463.993Y-684.47
X463.993Y-687.01
X463.993Y-697.17
X463.993Y-702.25
X463.993Y-714.95
X463.993Y-720.03
X463.993Y-725.11
X463.993Y-727.65
X463.993Y-730.19
X463.993Y-758.13
X463.993Y-765.75
X463.993Y-768.29
X463.993Y-770.83
X463.993Y-773.37
X463.993Y-786.07
X463.993Y-788.61
X463.993Y-791.15
X463.993Y-793.69
X463.993Y-796.23
X463.993Y-798.77
X463.993Y-801.31
X463.993Y-803.85
X466.533Y-643.83
X466.533Y-646.37
X466.533Y-648.91
X466.533Y-684.47
X466.533Y-712.41
X466.533Y-714.95
X466.533Y-720.03
X466.533Y-725.11
X466.533Y-727.65
X466.533Y-730.19
X466.533Y-758.13
X466.533Y-765.75
X466.533Y-768.29
X466.533Y-770.83
X466.533Y-773.37
X466.533Y-786.07
X466.533Y-788.61
X466.533Y-791.15
X466.533Y-793.69
X466.533Y-796.23
X466.533Y-798.77
X466.533Y-801.31
X466.533Y-803.85
X469.073Y-643.83
X469.073Y-646.37
X469.073Y-648.91
X469.073Y-694.63
X469.073Y-709.87
X469.073Y-712.41
X469.073Y-714.95
X469.073Y-717.49
X469.073Y-720.03
X469.073Y-722.57
X469.073Y-725.11
X469.073Y-727.65
X469.073Y-730.19
X469.073Y-753.05
X469.073Y-758.13
X469.073Y-765.75
X469.073Y-768.29
X469.073Y-770.83
X469.073Y-773.37
X469.073Y-786.07
X469.073Y-788.61
X469.073Y-791.15
X469.073Y-793.69
X469.073Y-796.23
X469.073Y-798.77
X469.073Y-801.31
X469.073Y-803.85
X471.613Y-643.83
X471.613Y-646.37
X471.613Y-648.91
X471.613Y-704.79
X471.613Y-707.33
X471.613Y-709.87
X471.613Y-712.41
X471.613Y-714.95
X471.613Y-717.49
X471.613Y-720.03
X471.613Y-722.57
X471.613Y-725.11
X471.613Y-727.65
X471.613Y-730.19
X471.613Y-735.27
X471.613Y-737.81
X471.613Y-753.05
X471.613Y-758.13
X471.613Y-765.75
X471.613Y-768.29
X471.613Y-770.83
X471.613Y-773.37
X471.613Y-786.07
X471.613Y-788.61
X471.613Y-791.15
X471.613Y-793.69
X471.613Y-796.23
X471.613Y-798.77
X471.613Y-801.31
X471.613Y-803.85
X474.153Y-643.83
X474.153Y-646.37
X474.153Y-648.91
X474.153Y-707.33
X474.153Y-709.87
X474.153Y-712.41
X474.153Y-714.95
X474.153Y-717.49
X474.153Y-720.03
X474.153Y-722.57
X474.153Y-725.11
X474.153Y-727.65
X474.153Y-730.19
X474.153Y-735.27
X474.153Y-737.81
X474.153Y-753.05
X474.153Y-758.13
X474.153Y-765.75
X474.153Y-768.29
X474.153Y-770.83
X474.153Y-773.37
X474.153Y-786.07
X474.153Y-788.61
X474.153Y-791.15
X474.153Y-793.69
X474.153Y-796.23
X474.153Y-798.77
X474.153Y-801.31
X474.153Y-803.85
X476.693Y-643.83
X476.693Y-646.37
X476.693Y-648.91
X476.693Y-702.25
X476.693Y-709.87
X476.693Y-712.41
X476.693Y-714.95
X476.693Y-717.49
X476.693Y-720.03
X476.693Y-722.57
X476.693Y-725.11
X476.693Y-727.65
X476.693Y-730.19
X476.693Y-735.27
X476.693Y-737.81
X476.693Y-753.05
X476.693Y-758.13
X476.693Y-765.75
X476.693Y-768.29
X476.693Y-770.83
X476.693Y-773.37
X476.693Y-786.07
X476.693Y-788.61
X476.693Y-791.15
X476.693Y-793.69
X476.693Y-796.23
X476.693Y-798.77
X476.693Y-801.31
X476.693Y-803.85
X479.233Y-643.83
X479.233Y-646.37
X479.233Y-648.91
X479.233Y-697.17
X479.233Y-704.79
X479.233Y-712.41
X479.233Y-714.95
X479.233Y-717.49
X479.233Y-720.03
X479.233Y-722.57
X479.233Y-725.11
X479.233Y-727.65
X479.233Y-730.19
X479.233Y-735.27
X479.233Y-737.81
X479.233Y-753.05
X479.233Y-758.13
X479.233Y-765.75
X479.233Y-768.29
X479.233Y-770.83
X479.233Y-773.37
X479.233Y-786.07
X479.233Y-788.61
X479.233Y-791.15
X479.233Y-793.69
X479.233Y-796.23
X479.233Y-798.77
X479.233Y-801.31
X479.233Y-803.85
X481.773Y-643.83
X481.773Y-646.37
X481.773Y-648.91
X481.773Y-684.47
X481.773Y-707.33
X481.773Y-714.95
X481.773Y-717.49
X481.773Y-720.03
X481.773Y-722.57
X481.773Y-725.11
X481.773Y-727.65
X481.773Y-730.19
X481.773Y-735.27
X481.773Y-737.81
X481.773Y-753.05
X481.773Y-758.13
X481.773Y-765.75
X481.773Y-768.29
X481.773Y-770.83
X481.773Y-773.37
X481.773Y-786.07
X481.773Y-788.61
X481.773Y-791.15
X481.773Y-793.69
X481.773Y-796.23
X481.773Y-798.77
X481.773Y-801.31
X481.773Y-803.85
X484.313Y-643.83
X484.313Y-646.37
X484.313Y-648.91
X484.313Y-684.47
X484.313Y-687.01
X484.313Y-689.55
X484.313Y-697.17
X484.313Y-709.87
X484.313Y-717.49
X484.313Y-720.03
X484.313Y-722.57
X484.313Y-725.11
X484.313Y-727.65
X484.313Y-730.19
X484.313Y-735.27
X484.313Y-737.81
X484.313Y-753.05
X484.313Y-758.13
X484.313Y-765.75
X484.313Y-768.29
X484.313Y-770.83
X484.313Y-773.37
X484.313Y-786.07
X484.313Y-788.61
X484.313Y-791.15
X484.313Y-793.69
X484.313Y-796.23
X484.313Y-798.77
X484.313Y-801.31
X484.313Y-803.85
X486.853Y-643.83
X486.853Y-646.37
X486.853Y-648.91
X486.853Y-684.47
X486.853Y-687.01
X486.853Y-689.55
X486.853Y-697.17
X486.853Y-699.71
X486.853Y-712.41
X486.853Y-720.03
X486.853Y-722.57
X486.853Y-725.11
X486.853Y-727.65
X486.853Y-730.19
X486.853Y-735.27
X486.853Y-737.81
X486.853Y-753.05
X486.853Y-758.13
X486.853Y-765.75
X486.853Y-768.29
X486.853Y-770.83
X486.853Y-773.37
X486.853Y-786.07
X486.853Y-788.61
X486.853Y-791.15
X486.853Y-793.69
X486.853Y-796.23
X486.853Y-798.77
X486.853Y-801.31
X486.853Y-803.85
X489.393Y-643.83
X489.393Y-646.37
X489.393Y-648.91
X489.393Y-684.47
X489.393Y-687.01
X489.393Y-689.55
X489.393Y-697.17
X489.393Y-699.71
X489.393Y-702.25
X489.393Y-704.79
X489.393Y-714.95
X489.393Y-722.57
X489.393Y-725.11
X489.393Y-727.65
X489.393Y-735.27
X489.393Y-737.81
X489.393Y-753.05
X489.393Y-758.13
X489.393Y-765.75
X489.393Y-768.29
X489.393Y-770.83
X489.393Y-773.37
X489.393Y-786.07
X489.393Y-788.61
X489.393Y-791.15
X489.393Y-793.69
X489.393Y-796.23
X489.393Y-798.77
X489.393Y-801.31
X489.393Y-803.85
X491.933Y-643.83
X491.933Y-646.37
X491.933Y-648.91
X491.933Y-684.47
X491.933Y-687.01
X491.933Y-689.55
X491.933Y-697.17
X491.933Y-699.71
X491.933Y-702.25
X491.933Y-717.49
X491.933Y-725.11
X491.933Y-732.73
X491.933Y-735.27
X491.933Y-737.81
X491.933Y-753.05
X491.933Y-758.13
X491.933Y-765.75
X491.933Y-768.29
X491.933Y-770.83
X491.933Y-773.37
X491.933Y-786.07
X491.933Y-788.61
X491.933Y-791.15
X491.933Y-793.69
X491.933Y-796.23
X491.933Y-798.77
X491.933Y-801.31
X491.933Y-803.85
X494.473Y-643.83
X494.473Y-646.37
X494.473Y-648.91
X494.473Y-666.69
X494.473Y-669.23
X494.473Y-671.77
X494.473Y-674.31
X494.473Y-676.85
X494.473Y-679.39
X494.473Y-684.47
X494.473Y-687.01
X494.473Y-689.55
X494.473Y-697.17
X494.473Y-699.71
X494.473Y-702.25
X494.473Y-704.79
X494.473Y-707.33
X494.473Y-709.87
X494.473Y-720.03
X494.473Y-730.19
X494.473Y-732.73
X494.473Y-735.27
X494.473Y-753.05
X494.473Y-758.13
X494.473Y-765.75
X494.473Y-768.29
X494.473Y-770.83
X494.473Y-773.37
X494.473Y-786.07
X494.473Y-788.61
X494.473Y-791.15
X494.473Y-793.69
X494.473Y-796.23
X494.473Y-798.77
X494.473Y-801.31
X494.473Y-803.85
X497.013Y-643.83
X497.013Y-646.37
X497.013Y-648.91
X497.013Y-666.69
X497.013Y-669.23
X497.013Y-671.77
X497.013Y-674.31
X497.013Y-676.85
X497.013Y-679.39
X497.013Y-684.47
X497.013Y-687.01
X497.013Y-689.55
X497.013Y-697.17
X497.013Y-699.71
X497.013Y-702.25
X497.013Y-704.79
X497.013Y-707.33
X497.013Y-709.87
X497.013Y-714.95
X497.013Y-730.19
X497.013Y-732.73
X497.013Y-753.05
X497.013Y-758.13
X497.013Y-765.75
X497.013Y-768.29
X497.013Y-770.83
X497.013Y-773.37
X497.013Y-786.07
X497.013Y-788.61
X497.013Y-791.15
X497.013Y-793.69
X497.013Y-796.23
X497.013Y-798.77
X497.013Y-801.31
X497.013Y-803.85
X499.553Y-643.83
X499.553Y-646.37
X499.553Y-648.91
X499.553Y-666.69
X499.553Y-669.23
X499.553Y-671.77
X499.553Y-674.31
X499.553Y-676.85
X499.553Y-679.39
X499.553Y-684.47
X499.553Y-687.01
X499.553Y-689.55
X499.553Y-697.17
X499.553Y-699.71
X499.553Y-702.25
X499.553Y-704.79
X499.553Y-707.33
X499.553Y-709.87
X499.553Y-714.95
X499.553Y-717.49
X499.553Y-725.11
X499.553Y-737.81
X499.553Y-753.05
X499.553Y-758.13
X499.553Y-765.75
X499.553Y-768.29
X499.553Y-770.83
X499.553Y-773.37
X499.553Y-786.07
X499.553Y-788.61
X499.553Y-791.15
X499.553Y-793.69
X499.553Y-796.23
X499.553Y-798.77
X499.553Y-801.31
X499.553Y-803.85
X502.093Y-643.83
X502.093Y-646.37
X502.093Y-648.91
X502.093Y-666.69
X502.093Y-669.23
X502.093Y-671.77
X502.093Y-674.31
X502.093Y-676.85
X502.093Y-679.39
X502.093Y-684.47
X502.093Y-687.01
X502.093Y-689.55
X502.093Y-697.17
X502.093Y-699.71
X502.093Y-702.25
X502.093Y-704.79
X502.093Y-707.33
X502.093Y-709.87
X502.093Y-714.95
X502.093Y-727.65
X502.093Y-735.27
X502.093Y-740.35
X502.093Y-753.05
X502.093Y-758.13
X502.093Y-765.75
X502.093Y-768.29
X502.093Y-770.83
X502.093Y-773.37
X502.093Y-786.07
X502.093Y-788.61
X502.093Y-791.15
X502.093Y-793.69
X502.093Y-796.23
X502.093Y-798.77
X502.093Y-801.31
X502.093Y-803.85
X504.633Y-643.83
X504.633Y-646.37
X504.633Y-648.91
X504.633Y-666.69
X504.633Y-669.23
X504.633Y-671.77
X504.633Y-674.31
X504.633Y-676.85
X504.633Y-679.39
X504.633Y-684.47
X504.633Y-687.01
X504.633Y-689.55
X504.633Y-697.17
X504.633Y-699.71
X504.633Y-702.25
X504.633Y-704.79
X504.633Y-707.33
X504.633Y-709.87
X504.633Y-720.03
X504.633Y-722.57
X504.633Y-737.81
X504.633Y-753.05
X504.633Y-758.13
X504.633Y-765.75
X504.633Y-768.29
X504.633Y-770.83
X504.633Y-773.37
X504.633Y-786.07
X504.633Y-788.61
X504.633Y-791.15
X504.633Y-793.69
X504.633Y-796.23
X504.633Y-798.77
X504.633Y-801.31
X504.633Y-803.85
X507.173Y-643.83
X507.173Y-646.37
X507.173Y-648.91
X507.173Y-666.69
X507.173Y-669.23
X507.173Y-671.77
X507.173Y-674.31
X507.173Y-676.85
X507.173Y-679.39
X507.173Y-684.47
X507.173Y-687.01
X507.173Y-689.55
X507.173Y-697.17
X507.173Y-699.71
X507.173Y-702.25
X507.173Y-704.79
X507.173Y-707.33
X507.173Y-709.87
X507.173Y-717.49
X507.173Y-720.03
X507.173Y-722.57
X507.173Y-730.19
X507.173Y-740.35
X507.173Y-753.05
X507.173Y-758.13
X507.173Y-765.75
X507.173Y-768.29
X507.173Y-770.83
X507.173Y-773.37
X507.173Y-786.07
X507.173Y-788.61
X507.173Y-791.15
X507.173Y-793.69
X507.173Y-796.23
X507.173Y-798.77
X507.173Y-801.31
X507.173Y-803.85
X509.713Y-643.83
X509.713Y-646.37
X509.713Y-648.91
X509.713Y-666.69
X509.713Y-669.23
X509.713Y-671.77
X509.713Y-674.31
X509.713Y-676.85
X509.713Y-679.39
X509.713Y-684.47
X509.713Y-687.01
X509.713Y-689.55
X509.713Y-697.17
X509.713Y-699.71
X509.713Y-702.25
X509.713Y-704.79
X509.713Y-707.33
X509.713Y-714.95
X509.713Y-717.49
X509.713Y-720.03
X509.713Y-727.65
X509.713Y-732.73
X509.713Y-753.05
X509.713Y-758.13
X509.713Y-765.75
X509.713Y-768.29
X509.713Y-770.83
X509.713Y-773.37
X509.713Y-786.07
X509.713Y-788.61
X509.713Y-791.15
X509.713Y-793.69
X509.713Y-796.23
X509.713Y-798.77
X509.713Y-801.31
X509.713Y-803.85
X512.253Y-643.83
X512.253Y-646.37
X512.253Y-648.91
X512.253Y-666.69
X512.253Y-669.23
X512.253Y-671.77
X512.253Y-674.31
X512.253Y-676.85
X512.253Y-679.39
X512.253Y-684.47
X512.253Y-687.01
X512.253Y-689.55
X512.253Y-697.17
X512.253Y-699.71
X512.253Y-702.25
X512.253Y-704.79
X512.253Y-714.95
X512.253Y-717.49
X512.253Y-730.19
X512.253Y-735.27
X512.253Y-737.81
X512.253Y-753.05
X512.253Y-758.13
X512.253Y-765.75
X512.253Y-768.29
X512.253Y-770.83
X512.253Y-773.37
X512.253Y-786.07
X512.253Y-788.61
X512.253Y-791.15
X512.253Y-793.69
X512.253Y-796.23
X512.253Y-798.77
X512.253Y-801.31
X512.253Y-803.85
X514.793Y-643.83
X514.793Y-646.37
X514.793Y-648.91
X514.793Y-666.69
X514.793Y-669.23
X514.793Y-671.77
X514.793Y-674.31
X514.793Y-676.85
X514.793Y-679.39
X514.793Y-684.47
X514.793Y-687.01
X514.793Y-689.55
X514.793Y-697.17
X514.793Y-699.71
X514.793Y-702.25
X514.793Y-709.87
X514.793Y-714.95
X514.793Y-722.57
X514.793Y-727.65
X514.793Y-732.73
X514.793Y-735.27
X514.793Y-753.05
X514.793Y-758.13
X514.793Y-765.75
X514.793Y-768.29
X514.793Y-770.83
X514.793Y-773.37
X514.793Y-786.07
X514.793Y-788.61
X514.793Y-791.15
X514.793Y-793.69
X514.793Y-796.23
X514.793Y-798.77
X514.793Y-801.31
X514.793Y-803.85
X517.333Y-643.83
X517.333Y-646.37
X517.333Y-648.91
X517.333Y-666.69
X517.333Y-669.23
X517.333Y-671.77
X517.333Y-674.31
X517.333Y-676.85
X517.333Y-679.39
X517.333Y-684.47
X517.333Y-687.01
X517.333Y-689.55
X517.333Y-697.17
X517.333Y-699.71
X517.333Y-707.33
X517.333Y-709.87
X517.333Y-720.03
X517.333Y-765.75
X517.333Y-768.29
X517.333Y-770.83
X517.333Y-786.07
X517.333Y-788.61
X517.333Y-791.15
X517.333Y-793.69
X517.333Y-796.23
X517.333Y-798.77
X517.333Y-801.31
X517.333Y-803.85
X519.873Y-643.83
X519.873Y-646.37
X519.873Y-648.91
X519.873Y-666.69
X519.873Y-669.23
X519.873Y-671.77
X519.873Y-674.31
X519.873Y-676.85
X519.873Y-679.39
X519.873Y-684.47
X519.873Y-687.01
X519.873Y-689.55
X519.873Y-786.07
X519.873Y-788.61
X519.873Y-791.15
X519.873Y-793.69
X519.873Y-796.23
X519.873Y-798.77
X519.873Y-801.31
X519.873Y-803.85
X522.413Y-643.83
X522.413Y-646.37
X522.413Y-648.91
X522.413Y-666.69
X522.413Y-669.23
X522.413Y-671.77
X522.413Y-674.31
X522.413Y-676.85
X522.413Y-679.39
X522.413Y-684.47
X522.413Y-687.01
X522.413Y-689.55
X522.413Y-786.07
X522.413Y-788.61
X522.413Y-791.15
X522.413Y-793.69
X522.413Y-796.23
X522.413Y-798.77
X522.413Y-801.31
X522.413Y-803.85
X524.953Y-643.83
X524.953Y-646.37
X524.953Y-648.91
X524.953Y-684.47
X524.953Y-687.01
X524.953Y-689.55
X524.953Y-786.07
X524.953Y-788.61
X524.953Y-791.15
X524.953Y-793.69
X524.953Y-796.23
X524.953Y-798.77
X524.953Y-801.31
X524.953Y-803.85
X527.493Y-643.83
X527.493Y-646.37
X527.493Y-648.91
X527.493Y-684.47
X527.493Y-709.87
X527.493Y-712.41
X527.493Y-714.95
X527.493Y-717.49
X527.493Y-720.03
X527.493Y-770.83
X527.493Y-773.37
X527.493Y-775.91
X527.493Y-778.45
X527.493Y-780.99
X527.493Y-783.53
X527.493Y-786.07
X527.493Y-788.61
X527.493Y-791.15
X527.493Y-793.69
X527.493Y-796.23
X527.493Y-798.77
X527.493Y-801.31
X527.493Y-803.85
X530.033Y-643.83
X530.033Y-646.37
X530.033Y-648.91
X530.033Y-689.55
X530.033Y-702.25
X530.033Y-704.79
X530.033Y-707.33
X530.033Y-709.87
X530.033Y-712.41
X530.033Y-714.95
X530.033Y-717.49
X530.033Y-720.03
X530.033Y-722.57
X530.033Y-725.11
X530.033Y-727.65
X530.033Y-730.19
X530.033Y-732.73
X530.033Y-735.27
X530.033Y-737.81
X530.033Y-740.35
X530.033Y-742.89
X530.033Y-745.43
X530.033Y-747.97
X530.033Y-750.51
X530.033Y-753.05
X530.033Y-755.59
X530.033Y-758.13
X530.033Y-760.67
X530.033Y-763.21
X530.033Y-765.75
X530.033Y-768.29
X530.033Y-770.83
X530.033Y-773.37
X530.033Y-775.91
X530.033Y-778.45
X530.033Y-780.99
X530.033Y-783.53
X530.033Y-786.07
X530.033Y-788.61
X530.033Y-791.15
X530.033Y-793.69
X530.033Y-796.23
X530.033Y-798.77
X530.033Y-801.31
X530.033Y-803.85
X532.573Y-643.83
X532.573Y-646.37
X532.573Y-648.91
X532.573Y-689.55
X532.573Y-699.71
X532.573Y-702.25
X532.573Y-704.79
X532.573Y-707.33
X532.573Y-709.87
X532.573Y-712.41
X532.573Y-714.95
X532.573Y-717.49
X532.573Y-720.03
X532.573Y-722.57
X532.573Y-725.11
X532.573Y-727.65
X532.573Y-730.19
X532.573Y-732.73
X532.573Y-735.27
X532.573Y-737.81
X532.573Y-740.35
X532.573Y-742.89
X532.573Y-745.43
X532.573Y-747.97
X532.573Y-750.51
X532.573Y-753.05
X532.573Y-755.59
X532.573Y-758.13
X532.573Y-760.67
X532.573Y-763.21
X532.573Y-765.75
X532.573Y-768.29
X532.573Y-770.83
X532.573Y-773.37
X532.573Y-775.91
X532.573Y-778.45
X532.573Y-780.99
X532.573Y-783.53
X532.573Y-786.07
X532.573Y-788.61
X532.573Y-791.15
X532.573Y-793.69
X532.573Y-796.23
X532.573Y-798.77
X532.573Y-801.31
X532.573Y-803.85
X535.113Y-643.83
X535.113Y-646.37
X535.113Y-648.91
X535.113Y-699.71
X535.113Y-702.25
X535.113Y-704.79
X535.113Y-707.33
X535.113Y-709.87
X535.113Y-712.41
X535.113Y-714.95
X535.113Y-717.49
X535.113Y-720.03
X535.113Y-722.57
X535.113Y-725.11
X535.113Y-727.65
X535.113Y-730.19
X535.113Y-732.73
X535.113Y-735.27
X535.113Y-737.81
X535.113Y-740.35
X535.113Y-742.89
X535.113Y-745.43
X535.113Y-747.97
X535.113Y-750.51
X535.113Y-753.05
X535.113Y-755.59
X535.113Y-758.13
X535.113Y-760.67
X535.113Y-763.21
X535.113Y-765.75
X535.113Y-768.29
X535.113Y-770.83
X535.113Y-773.37
X535.113Y-775.91
X535.113Y-778.45
X535.113Y-780.99
X535.113Y-783.53
X535.113Y-786.07
X535.113Y-788.61
X535.113Y-791.15
X535.113Y-793.69
X535.113Y-796.23
X535.113Y-798.77
X535.113Y-801.31
X535.113Y-803.85
X537.653Y-643.83
X537.653Y-646.37
X537.653Y-648.91
X537.653Y-666.69
X537.653Y-669.23
X537.653Y-671.77
X537.653Y-674.31
X537.653Y-676.85
X537.653Y-679.39
X537.653Y-694.63
X537.653Y-697.17
X537.653Y-699.71
X537.653Y-702.25
X537.653Y-704.79
X537.653Y-707.33
X537.653Y-709.87
X537.653Y-712.41
X537.653Y-714.95
X537.653Y-717.49
X537.653Y-720.03
X537.653Y-722.57
X537.653Y-725.11
X537.653Y-727.65
X537.653Y-730.19
X537.653Y-732.73
X537.653Y-735.27
X537.653Y-737.81
X537.653Y-740.35
X537.653Y-742.89
X537.653Y-745.43
X537.653Y-747.97
X537.653Y-750.51
X537.653Y-753.05
X537.653Y-755.59
X537.653Y-758.13
X537.653Y-760.67
X537.653Y-763.21
X537.653Y-765.75
X537.653Y-768.29
X537.653Y-770.83
X537.653Y-773.37
X537.653Y-775.91
X537.653Y-778.45
X537.653Y-780.99
X537.653Y-783.53
X537.653Y-786.07
X537.653Y-788.61
X537.653Y-791.15
X537.653Y-793.69
X537.653Y-796.23
X537.653Y-798.77
X537.653Y-801.31
X537.653Y-803.85
X540.193Y-643.83
X540.193Y-646.37
X540.193Y-648.91
X540.193Y-694.63
X540.193Y-697.17
X540.193Y-699.71
X540.193Y-702.25
X540.193Y-704.79
X540.193Y-707.33
X540.193Y-709.87
X540.193Y-712.41
X540.193Y-714.95
X540.193Y-717.49
X540.193Y-720.03
X540.193Y-722.57
X540.193Y-725.11
X540.193Y-727.65
X540.193Y-730.19
X540.193Y-732.73
X540.193Y-735.27
X540.193Y-737.81
X540.193Y-740.35
X540.193Y-742.89
X540.193Y-745.43
X540.193Y-747.97
X540.193Y-750.51
X540.193Y-753.05
X540.193Y-755.59
X540.193Y-758.13
X540.193Y-760.67
X540.193Y-763.21
X540.193Y-765.75
X540.193Y-768.29
X540.193Y-770.83
X540.193Y-773.37
X540.193Y-775.91
X540.193Y-778.45
X540.193Y-780.99
X540.193Y-783.53
X540.193Y-786.07
X540.193Y-788.61
X540.193Y-791.15
X540.193Y-793.69
X540.193Y-796.23
X540.193Y-798.77
X540.193Y-801.31
X540.193Y-803.85
X542.733Y-643.83
X542.733Y-646.37
X542.733Y-648.91
X542.733Y-681.93
X542.733Y-684.47
X542.733Y-687.01
X542.733Y-689.55
X542.733Y-692.09
X542.733Y-694.63
X542.733Y-697.17
X542.733Y-699.71
X542.733Y-702.25
X542.733Y-704.79
X542.733Y-707.33
X542.733Y-709.87
X542.733Y-712.41
X542.733Y-714.95
X542.733Y-717.49
X542.733Y-720.03
X542.733Y-722.57
X542.733Y-725.11
X542.733Y-727.65
X542.733Y-730.19
X542.733Y-732.73
X542.733Y-735.27
X542.733Y-737.81
X542.733Y-740.35
X542.733Y-742.89
X542.733Y-745.43
X542.733Y-747.97
X542.733Y-750.51
X542.733Y-753.05
X542.733Y-755.59
X542.733Y-758.13
X542.733Y-760.67
X542.733Y-763.21
X542.733Y-765.75
X542.733Y-768.29
X542.733Y-770.83
X542.733Y-773.37
X542.733Y-775.91
X542.733Y-778.45
X542.733Y-780.99
X542.733Y-783.53
X542.733Y-786.07
X542.733Y-788.61
X542.733Y-791.15
X542.733Y-793.69
X542.733Y-796.23
X542.733Y-798.77
X542.733Y-801.31
X542.733Y-803.85
X545.273Y-643.83
X545.273Y-646.37
X545.273Y-648.91
X545.273Y-681.93
X545.273Y-684.47
X545.273Y-687.01
X545.273Y-689.55
X545.273Y-692.09
X545.273Y-694.63
X545.273Y-697.17
X545.273Y-699.71
X545.273Y-702.25
X545.273Y-704.79
X545.273Y-707.33
X545.273Y-709.87
X545.273Y-712.41
X545.273Y-714.95
X545.273Y-717.49
X545.273Y-720.03
X545.273Y-722.57
X545.273Y-725.11
X545.273Y-727.65
X545.273Y-730.19
X545.273Y-732.73
X545.273Y-735.27
X545.273Y-737.81
X545.273Y-740.35
X545.273Y-742.89
X545.273Y-745.43
X545.273Y-747.97
X545.273Y-750.51
X545.273Y-753.05
X545.273Y-755.59
X545.273Y-758.13
X545.273Y-760.67
X545.273Y-763.21
X545.273Y-765.75
X545.273Y-768.29
X545.273Y-770.83
X545.273Y-773.37
X545.273Y-775.91
X545.273Y-778.45
X545.273Y-780.99
X545.273Y-783.53
X545.273Y-786.07
X545.273Y-788.61
X545.273Y-791.15
X545.273Y-793.69
X545.273Y-796.23
X545.273Y-798.77
X545.273Y-801.31
X545.273Y-803.85
X547.813Y-643.83
X547.813Y-646.37
X547.813Y-648.91
X547.813Y-681.93
X547.813Y-684.47
X547.813Y-687.01
X547.813Y-689.55
X547.813Y-692.09
X547.813Y-694.63
X547.813Y-697.17
X547.813Y-699.71
X547.813Y-702.25
X547.813Y-704.79
X547.813Y-707.33
X547.813Y-709.87
X547.813Y-712.41
X547.813Y-714.95
X547.813Y-717.49
X547.813Y-720.03
X547.813Y-722.57
X547.813Y-725.11
X547.813Y-727.65
X547.813Y-730.19
X547.813Y-732.73
X547.813Y-735.27
X547.813Y-737.81
X547.813Y-740.35
X547.813Y-742.89
X547.813Y-745.43
X547.813Y-747.97
X547.813Y-750.51
X547.813Y-753.05
X547.813Y-755.59
X547.813Y-758.13
X547.813Y-760.67
X547.813Y-763.21
X547.813Y-765.75
X547.813Y-768.29
X547.813Y-770.83
X547.813Y-773.37
X547.813Y-775.91
X547.813Y-778.45
X547.813Y-780.99
X547.813Y-783.53
X547.813Y-786.07
X547.813Y-788.61
X547.813Y-791.15
X547.813Y-793.69
X547.813Y-796.23
X547.813Y-798.77
X547.813Y-801.31
X547.813Y-803.85
X550.353Y-643.83
X550.353Y-646.37
X550.353Y-648.91
X550.353Y-681.93
X550.353Y-684.47
X550.353Y-687.01
X550.353Y-689.55
X550.353Y-692.09
X550.353Y-694.63
X550.353Y-697.17
X550.353Y-699.71
X550.353Y-702.25
X550.353Y-704.79
X550.353Y-707.33
X550.353Y-709.87
X550.353Y-712.41
X550.353Y-714.95
X550.353Y-717.49
X550.353Y-720.03
X550.353Y-722.57
X550.353Y-725.11
X550.353Y-727.65
X550.353Y-730.19
X550.353Y-732.73
X550.353Y-735.27
X550.353Y-737.81
X550.353Y-740.35
X550.353Y-742.89
X550.353Y-745.43
X550.353Y-747.97
X550.353Y-750.51
X550.353Y-753.05
X550.353Y-755.59
X550.353Y-758.13
X550.353Y-760.67
X550.353Y-763.21
X550.353Y-765.75
X550.353Y-768.29
X550.353Y-770.83
X550.353Y-773.37
X550.353Y-775.91
X550.353Y-778.45
X550.353Y-780.99
X550.353Y-783.53
X550.353Y-786.07
X550.353Y-788.61
X550.353Y-791.15
X550.353Y-793.69
X550.353Y-796.23
X550.353Y-798.77
X550.353Y-801.31
X550.353Y-803.85
X552.893Y-643.83
X552.893Y-646.37
X552.893Y-648.91
X552.893Y-679.39
X552.893Y-681.93
X552.893Y-684.47
X552.893Y-687.01
X552.893Y-689.55
X552.893Y-692.09
X552.893Y-694.63
X552.893Y-697.17
X552.893Y-699.71
X552.893Y-702.25
X552.893Y-704.79
X552.893Y-707.33
X552.893Y-709.87
X552.893Y-712.41
X552.893Y-714.95
X552.893Y-717.49
X552.893Y-720.03
X552.893Y-722.57
X552.893Y-725.11
X552.893Y-727.65
X552.893Y-730.19
X552.893Y-732.73
X552.893Y-735.27
X552.893Y-737.81
X552.893Y-740.35
X552.893Y-742.89
X552.893Y-745.43
X552.893Y-747.97
X552.893Y-750.51
X552.893Y-753.05
X552.893Y-755.59
X552.893Y-758.13
X552.893Y-760.67
X552.893Y-763.21
X552.893Y-765.75
X552.893Y-768.29
X552.893Y-770.83
X552.893Y-773.37
X552.893Y-775.91
X552.893Y-778.45
X552.893Y-780.99
X552.893Y-783.53
X552.893Y-786.07
X552.893Y-788.61
X552.893Y-791.15
X552.893Y-793.69
X552.893Y-796.23
X552.893Y-798.77
X552.893Y-801.31
X552.893Y-803.85
X555.433Y-643.83
X555.433Y-646.37
X555.433Y-648.91
X555.433Y-666.69
X555.433Y-669.23
X555.433Y-671.77
X555.433Y-674.31
X555.433Y-676.85
X555.433Y-679.39
X555.433Y-681.93
X555.433Y-684.47
X555.433Y-687.01
X555.433Y-689.55
X555.433Y-692.09
X555.433Y-694.63
X555.433Y-697.17
X555.433Y-699.71
X555.433Y-702.25
X555.433Y-704.79
X555.433Y-707.33
X555.433Y-709.87
X555.433Y-712.41
X555.433Y-714.95
X555.433Y-717.49
X555.433Y-720.03
X555.433Y-722.57
X555.433Y-725.11
X555.433Y-727.65
X555.433Y-730.19
X555.433Y-732.73
X555.433Y-735.27
X555.433Y-737.81
X555.433Y-740.35
X555.433Y-742.89
X555.433Y-745.43
X555.433Y-747.97
X555.433Y-750.51
X555.433Y-753.05
X555.433Y-755.59
X555.433Y-758.13
X555.433Y-760.67
X555.433Y-763.21
X555.433Y-765.75
X555.433Y-768.29
X555.433Y-770.83
X555.433Y-773.37
X555.433Y-775.91
X555.433Y-778.45
X555.433Y-780.99
X555.433Y-783.53
X555.433Y-786.07
X555.433Y-788.61
X555.433Y-791.15
X555.433Y-793.69
X555.433Y-796.23
X555.433Y-798.77
X555.433Y-801.31
X555.433Y-803.85
X557.973Y-648.91
X557.973Y-666.69
X557.973Y-669.23
X557.973Y-671.77
X557.973Y-674.31
X557.973Y-676.85
X557.973Y-679.39
X557.973Y-681.93
X557.973Y-684.47
X557.973Y-687.01
X557.973Y-689.55
X557.973Y-692.09
X557.973Y-694.63
X557.973Y-704.79
X557.973Y-707.33
X557.973Y-709.87
X557.973Y-712.41
X557.973Y-714.95
X557.973Y-717.49
X557.973Y-720.03
X557.973Y-722.57
X557.973Y-725.11
X557.973Y-727.65
X557.973Y-730.19
X557.973Y-732.73
X557.973Y-735.27
X557.973Y-737.81
X557.973Y-740.35
X557.973Y-742.89
X557.973Y-745.43
X557.973Y-747.97
X557.973Y-750.51
X557.973Y-760.67
X557.973Y-763.21
X557.973Y-765.75
X557.973Y-768.29
X557.973Y-770.83
X557.973Y-773.37
X557.973Y-775.91
X557.973Y-778.45
X557.973Y-780.99
X557.973Y-783.53
X557.973Y-786.07
X557.973Y-788.61
X557.973Y-791.15
X557.973Y-793.69
X557.973Y-796.23
X557.973Y-798.77
X557.973Y-801.31
X560.513Y-648.91
X560.513Y-666.69
X560.513Y-669.23
X560.513Y-671.77
X560.513Y-674.31
X560.513Y-676.85
X560.513Y-679.39
X560.513Y-681.93
X560.513Y-684.47
X560.513Y-687.01
X560.513Y-689.55
X560.513Y-692.09
X560.513Y-694.63
X560.513Y-704.79
X560.513Y-707.33
X560.513Y-709.87
X560.513Y-712.41
X560.513Y-714.95
X560.513Y-717.49
X560.513Y-720.03
X560.513Y-722.57
X560.513Y-725.11
X560.513Y-727.65
X560.513Y-730.19
X560.513Y-732.73
X560.513Y-735.27
X560.513Y-737.81
X560.513Y-740.35
X560.513Y-742.89
X560.513Y-745.43
X560.513Y-747.97
X560.513Y-750.51
X560.513Y-760.67
X560.513Y-763.21
X560.513Y-765.75
X560.513Y-768.29
X560.513Y-770.83
X560.513Y-773.37
X560.513Y-775.91
X560.513Y-778.45
X560.513Y-780.99
X560.513Y-783.53
X560.513Y-786.07
X560.513Y-788.61
X560.513Y-791.15
X560.513Y-793.69
X560.513Y-796.23
X560.513Y-798.77
X560.513Y-801.31
T2
X117.421Y-691.548
X168.271Y-691.548
X172.021Y-691.548
X178.421Y-691.548
X227.921Y-691.373
X231.721Y-691.373
X237.921Y-691.373
X261.161Y-743.798
X265.661Y-723.298
X265.736Y-734.723
X265.911Y-714.524
X267.001Y-772.775
X267.411Y-710.548
X267.411Y-730.048
X267.701Y-761.575
X268.911Y-725.548
X268.911Y-741.798
X271.061Y-734.398
X271.101Y-778.175
X272.301Y-770.775
X272.486Y-751.548
X272.911Y-709.798
X273.536Y-734.398
X275.501Y-768.675
X276.201Y-769.475
X279.701Y-767.975
X283.083Y-726.47
X283.901Y-772.875
X284.911Y-692.548
X287.001Y-761.075
X287.601Y-764.875
X288.333Y-729.376
X291.661Y-768.548
X291.801Y-770.475
X293.161Y-704.548
X294.161Y-730.548
X295.661Y-761.798
X295.801Y-781.493
X296.466Y-793.244
X298.401Y-777.475
X299.161Y-704.548
X299.411Y-713.048
X299.661Y-707.798
X300.661Y-725.798
X301.582Y-729.774
X302.501Y-777.775
X302.765Y-768.139
X302.786Y-734.698
X305.386Y-734.698
X306.601Y-795.775
X307.161Y-685.298
X308.493Y-687.274
X308.661Y-713.798
X308.804Y-761.404
X311.261Y-734.098
X311.411Y-728.798
X311.411Y-754.798
X311.911Y-742.717
X312.101Y-745.575
X312.161Y-688.048
X312.411Y-749.048
X312.711Y-725.398
X312.901Y-765.675
X313.101Y-760.375
X313.137Y-738.024
X313.661Y-729.774
X313.911Y-747.298
X313.911Y-755.798
X314.001Y-734.054
X314.701Y-801.575
X314.911Y-700.548
X314.911Y-714.548
X314.911Y-720.572
X314.911Y-739.572
X315.387Y-759.798
X315.911Y-754.024
X315.986Y-797.06
X316.161Y-746.798
X317.161Y-751.548
X317.161Y-760.048
X317.661Y-743.491
X317.801Y-766.875
X318.452Y-752.57
X318.661Y-733.096
X319.661Y-767.298
X319.911Y-753.548
X320.161Y-706.097
X320.367Y-752.254
X320.411Y-761.798
X320.501Y-769.875
X320.661Y-733.096
X320.911Y-766.048
X320.976Y-762.572
X321.411Y-702.548
X321.993Y-746.94
X322.106Y-752.774
X322.501Y-788.275
X322.862Y-737.25
X323.736Y-733.873
X324.012Y-736.447
X324.447Y-746.512
X324.661Y-759.274
X324.911Y-766.048
X325.911Y-760.048
X326.411Y-755.048
X327.161Y-747.798
X327.936Y-743.491
X328.001Y-760.475
X328.401Y-758.505
X328.401Y-789.675
X328.801Y-792.675
X328.801Y-799.175
X329.311Y-756.298
X329.411Y-752.548
X329.501Y-747.575
X329.601Y-765.279
X329.896Y-734.798
X330.161Y-749.298
X330.661Y-776.548
X330.911Y-729.298
X332.461Y-734.073
X332.911Y-761.798
X334.161Y-751.774
X334.961Y-775.948
X335.317Y-755.047
X335.411Y-742.717
X335.611Y-734.173
X335.907Y-751.747
X336.001Y-759.975
X336.411Y-725.798
X336.911Y-724.298
X337.161Y-752.774
X337.661Y-756.298
X337.686Y-715.423
X337.911Y-752.048
X337.911Y-767.048
X337.951Y-747.008
X338.661Y-760.048
X338.901Y-761.048
X338.911Y-742.717
X339.411Y-722.548
X339.661Y-728.048
X339.661Y-729.298
X340.411Y-754.322
X340.935Y-747.798
X341.911Y-726.298
X342.161Y-743.298
X342.161Y-751.048
X342.311Y-716.398
X342.411Y-714.798
X343.661Y-727.274
X344.116Y-748.342
X344.161Y-738.024
X344.161Y-739.572
X345.161Y-735.048
X345.161Y-752.298
X346.001Y-727.279
X346.161Y-747.548
X347.201Y-763.775
X347.411Y-692.548
X347.411Y-714.798
X347.661Y-697.451
X347.661Y-726.548
X348.161Y-729.548
X348.392Y-749.955
X348.458Y-714.751
X348.801Y-758.475
X349.161Y-745.548
X349.161Y-748.226
X349.161Y-762.572
X349.501Y-742.975
X349.969Y-753.707
X350.911Y-720.798
X350.988Y-758.72
X351.586Y-735.223
X351.601Y-748.675
X352.201Y-742.975
X352.411Y-729.548
X352.411Y-759.048
X352.661Y-691.048
X353.301Y-754.675
X353.411Y-725.822
X353.411Y-783.548
X353.711Y-743.048
X354.161Y-748.548
X354.411Y-735.048
X355.161Y-764.548
X355.411Y-694.548
X355.411Y-743.048
X356.31Y-736.447
X356.661Y-694.798
X356.661Y-758.048
X356.801Y-743.304
X357.109Y-734.497
X357.661Y-767.048
X357.901Y-742.875
X357.911Y-752.048
X358.661Y-709.798
X359.161Y-746.774
X359.29Y-768.619
X359.411Y-701.798
X359.661Y-694.298
X359.761Y-753.923
X360.411Y-747.548
X360.911Y-725.822
X361.561Y-733.948
X361.661Y-743.048
X362.661Y-752.048
X362.911Y-707.548
X363.661Y-693.048
X363.911Y-747.548
X364.186Y-750.223
X365.161Y-699.0
X366.661Y-725.048
X367.307Y-756.222
X367.435Y-736.048
X367.601Y-715.13
X368.18Y-748.275
X368.411Y-740.548
X368.661Y-743.048
X369.411Y-776.798
X369.755Y-745.548
X369.911Y-738.048
X370.701Y-747.092
X371.411Y-735.322
X371.661Y-698.298
X372.886Y-699.774
X373.411Y-717.024
X374.161Y-768.798
X374.386Y-733.774
X375.101Y-752.975
X377.181Y-728.822
X377.661Y-743.298
X377.661Y-749.048
X378.411Y-719.798
X379.401Y-748.975
X379.911Y-717.798
X381.911Y-743.048
X384.161Y-712.798
X384.435Y-726.548
X385.961Y-729.0
X386.111Y-733.398
X386.161Y-711.548
X386.661Y-709.798
X386.762Y-708.149
X387.386Y-714.673
X387.661Y-738.298
X387.661Y-756.298
X390.936Y-728.822
X391.536Y-754.674
X392.411Y-716.048
X392.661Y-729.774
X392.911Y-718.798
X395.137Y-699.774
X396.661Y-724.798
X399.061Y-733.774
X399.661Y-712.798
X400.208Y-738.251
X401.411Y-740.548
X403.161Y-742.798
X403.661Y-747.548
X405.661Y-746.548
X406.619Y-700.59
X407.697Y-691.771
X408.911Y-712.798
X410.961Y-760.956
X411.297Y-691.871
X414.96Y-739.777
X416.161Y-696.548
X417.497Y-691.871
X421.161Y-756.548
X423.161Y-757.048
X427.161Y-723.322
X429.381Y-743.799
X430.161Y-733.774
X430.736Y-777.534
X434.411Y-745.548
X434.661Y-696.298
X435.036Y-750.323
X435.161Y-733.548
X437.501Y-720.075
X438.411Y-699.048
X438.636Y-759.123
X439.013Y-733.975
X440.001Y-728.048
X448.161Y-720.048
X449.901Y-733.975
X453.283Y-714.171
X453.661Y-719.798
X457.161Y-718.048
X467.521Y-691.548
X468.661Y-697.298
X471.209Y-691.584
X471.911Y-693.548
X473.57Y-693.957
X478.041Y-691.668
X479.411Y-690.798
X480.661Y-699.048
X481.121Y-693.198
X481.911Y-697.048
X491.411Y-706.048
X513.161Y-743.548
X515.911Y-746.048
X516.661Y-751.548
X517.161Y-726.048
X517.161Y-742.048
X518.161Y-762.048
X518.601Y-736.775
X519.161Y-723.548
X519.312Y-756.247
X519.411Y-705.144
X519.661Y-743.048
X525.911Y-740.298
X526.113Y-724.001
X526.203Y-766.272
X526.212Y-705.918
X527.661Y-725.548
X527.661Y-754.548
X527.685Y-738.548
X534.161Y-695.798
X537.721Y-691.548
T3
X92.201Y-760.675
X94.701Y-750.675
X94.701Y-755.675
X94.701Y-758.175
X94.701Y-760.675
X109.701Y-718.175
X109.701Y-720.675
X112.201Y-720.675
X114.701Y-720.675
X114.701Y-723.175
X114.701Y-725.675
X114.701Y-728.175
X122.201Y-713.175
X122.201Y-713.175
X122.201Y-760.675
X129.701Y-758.175
X177.201Y-758.175
X177.201Y-760.675
X184.701Y-758.175
X270.86Y-706.322
X271.424Y-715.423
X294.411Y-706.373
X295.961Y-715.423
X318.465Y-715.426
X318.961Y-706.473
X326.532Y-748.631
X328.437Y-750.278
X343.556Y-714.778
X344.861Y-706.173
X346.236Y-714.974
X369.186Y-706.348
X395.657Y-715.848
X396.486Y-706.348
X399.131Y-726.048
X429.561Y-716.198
X429.601Y-726.875
X433.536Y-726.748
X433.801Y-725.375
X435.136Y-726.623
X444.686Y-727.282
T4
X88.301Y-643.708
X88.301Y-699.541
X88.301Y-755.375
X88.301Y-806.208
X89.004Y-642.011
X89.004Y-645.405
X89.004Y-697.844
X89.004Y-701.238
X89.004Y-753.678
X89.004Y-757.072
X89.004Y-804.511
X89.004Y-807.905
X90.701Y-641.308
X90.701Y-646.108
X90.701Y-697.141
X90.701Y-701.941
X90.701Y-752.975
X90.701Y-757.775
X90.701Y-803.808
X90.701Y-808.608
X92.398Y-642.011
X92.398Y-645.405
X92.398Y-697.844
X92.398Y-701.238
X92.398Y-753.678
X92.398Y-757.072
X92.398Y-804.511
X92.398Y-807.905
X93.101Y-643.708
X93.101Y-699.541
X93.101Y-755.375
X93.101Y-806.208
X107.771Y-725.298
X108.474Y-723.601
X108.474Y-726.995
X110.171Y-722.898
X110.171Y-727.698
X111.868Y-723.601
X111.868Y-726.995
X112.571Y-725.298
X123.718Y-761.376
X124.421Y-759.679
X124.421Y-763.073
X126.118Y-758.976
X126.118Y-763.776
X127.815Y-759.679
X127.815Y-763.073
X128.518Y-761.376
X178.671Y-761.298
X179.374Y-759.601
X179.374Y-762.995
X181.071Y-758.898
X181.071Y-763.698
X182.768Y-759.601
X182.768Y-762.995
X183.471Y-761.298
X200.271Y-795.198
X200.974Y-793.501
X200.974Y-796.895
X202.671Y-792.798
X202.671Y-797.598
X204.368Y-793.501
X204.368Y-796.895
X205.071Y-795.198
X248.301Y-643.708
X248.301Y-699.541
X248.301Y-755.375
X248.301Y-806.208
X249.004Y-642.011
X249.004Y-645.405
X249.004Y-697.844
X249.004Y-701.238
X249.004Y-753.678
X249.004Y-757.072
X249.004Y-804.511
X249.004Y-807.905
X250.701Y-641.308
X250.701Y-646.108
X250.701Y-697.141
X250.701Y-701.941
X250.701Y-752.975
X250.701Y-757.775
X250.701Y-803.808
X250.701Y-808.608
X252.398Y-642.011
X252.398Y-645.405
X252.398Y-697.844
X252.398Y-701.238
X252.398Y-753.678
X252.398Y-757.072
X252.398Y-804.511
X252.398Y-807.905
X253.101Y-643.708
X253.101Y-699.541
X253.101Y-755.375
X253.101Y-806.208
X408.301Y-643.708
X408.301Y-699.541
X408.301Y-755.375
X408.301Y-806.208
X409.004Y-642.011
X409.004Y-645.405
X409.004Y-697.844
X409.004Y-701.238
X409.004Y-753.678
X409.004Y-757.072
X409.004Y-804.511
X409.004Y-807.905
X410.701Y-641.308
X410.701Y-646.108
X410.701Y-697.141
X410.701Y-701.941
X410.701Y-752.975
X410.701Y-757.775
X410.701Y-803.808
X410.701Y-808.608
X412.398Y-642.011
X412.398Y-645.405
X412.398Y-697.844
X412.398Y-701.238
X412.398Y-753.678
X412.398Y-757.072
X412.398Y-804.511
X412.398Y-807.905
X413.101Y-643.708
X413.101Y-699.541
X413.101Y-755.375
X413.101Y-806.208
X463.384Y-736.522
X464.087Y-734.825
X464.087Y-738.219
X465.784Y-734.122
X465.784Y-738.922
X467.481Y-734.825
X467.481Y-738.219
X468.184Y-736.522
X558.301Y-643.708
X558.301Y-699.541
X558.301Y-755.375
X558.301Y-806.208
X559.004Y-642.011
X559.004Y-645.405
X559.004Y-697.844
X559.004Y-701.238
X559.004Y-753.678
X559.004Y-757.072
X559.004Y-804.511
X559.004Y-807.905
X560.701Y-641.308
X560.701Y-646.108
X560.701Y-697.141
X560.701Y-701.941
X560.701Y-752.975
X560.701Y-757.775
X560.701Y-803.808
X560.701Y-808.608
X562.398Y-642.011
X562.398Y-645.405
X562.398Y-697.844
X562.398Y-701.238
X562.398Y-753.678
X562.398Y-757.072
X562.398Y-804.511
X562.398Y-807.905
X563.101Y-643.708
X563.101Y-699.541
X563.101Y-755.375
X563.101Y-806.208
T5
X109.461Y-683.108
X109.461Y-685.648
X112.001Y-683.108
X112.001Y-685.648
X113.776Y-646.808
X114.541Y-683.108
X114.541Y-685.648
X116.316Y-646.808
X117.081Y-683.108
X117.081Y-685.648
X119.621Y-683.108
X119.621Y-685.648
X170.461Y-683.108
X170.461Y-685.648
X173.001Y-683.108
X173.001Y-685.648
X175.541Y-683.108
X175.541Y-685.648
X178.081Y-683.108
X178.081Y-685.648
X180.621Y-683.108
X180.621Y-685.648
X229.461Y-683.208
X229.461Y-685.748
X232.001Y-683.208
X232.001Y-685.748
X234.541Y-683.208
X234.541Y-685.748
X237.081Y-683.208
X237.081Y-685.748
X239.621Y-683.208
X239.621Y-685.748
X289.621Y-683.248
X289.621Y-685.788
X292.161Y-683.248
X292.161Y-685.788
X294.701Y-683.248
X294.701Y-685.788
X297.241Y-683.248
X297.241Y-685.788
X299.281Y-800.575
X299.781Y-683.248
X299.781Y-685.788
X301.821Y-800.575
X304.361Y-800.575
X306.901Y-800.575
X309.441Y-800.575
X311.981Y-800.575
X331.911Y-782.223
X341.661Y-775.298
X349.561Y-683.548
X349.561Y-686.088
X352.101Y-683.548
X352.101Y-686.088
X354.641Y-683.548
X354.641Y-686.088
X357.181Y-683.548
X357.181Y-686.088
X359.721Y-683.548
X359.721Y-686.088
X409.661Y-683.448
X409.661Y-685.988
X412.201Y-683.448
X412.201Y-685.988
X414.741Y-683.448
X414.741Y-685.988
X417.281Y-683.448
X417.281Y-685.988
X419.821Y-683.448
X419.821Y-685.988
X446.831Y-730.298
X469.261Y-683.608
X469.261Y-686.148
X471.801Y-683.608
X471.801Y-686.148
X474.341Y-683.608
X474.341Y-686.148
X476.881Y-683.608
X476.881Y-686.148
X479.421Y-683.608
X479.421Y-686.148
X521.381Y-703.378
X521.381Y-705.918
X521.381Y-708.458
X521.381Y-710.998
X521.381Y-713.538
X521.381Y-716.078
X521.381Y-718.618
X521.381Y-721.158
X521.381Y-723.698
X521.381Y-726.238
X521.381Y-728.778
X521.381Y-731.318
X521.381Y-733.858
X521.381Y-736.398
X521.381Y-738.938
X521.381Y-741.478
X521.381Y-744.018
X521.381Y-746.558
X521.381Y-749.098
X521.381Y-751.638
X521.381Y-754.178
X521.381Y-756.718
X521.381Y-759.258
X521.381Y-761.798
X521.381Y-764.338
X521.381Y-766.878
X521.381Y-769.418
X521.381Y-771.958
X521.381Y-774.498
X521.381Y-777.038
X521.381Y-779.578
X521.381Y-782.118
X523.921Y-703.378
X523.921Y-705.918
X523.921Y-708.458
X523.921Y-710.998
X523.921Y-713.538
X523.921Y-716.078
X523.921Y-718.618
X523.921Y-721.158
X523.921Y-723.698
X523.921Y-726.238
X523.921Y-728.778
X523.921Y-731.318
X523.921Y-733.858
X523.921Y-736.398
X523.921Y-738.938
X523.921Y-741.478
X523.921Y-744.018
X523.921Y-746.558
X523.921Y-749.098
X523.921Y-751.638
X523.921Y-754.178
X523.921Y-756.718
X523.921Y-759.258
X523.921Y-761.798
X523.921Y-764.338
X523.921Y-766.878
X523.921Y-769.418
X523.921Y-771.958
X523.921Y-774.498
X523.921Y-777.038
X523.921Y-779.578
X523.921Y-782.118
X529.541Y-683.608
X529.541Y-686.148
X532.081Y-683.608
X532.081Y-686.148
X534.621Y-683.608
X534.621Y-686.148
X537.161Y-683.608
X537.161Y-686.148
X539.701Y-683.608
X539.701Y-686.148
T6
X101.891Y-649.358
X101.891Y-654.358
X101.891Y-659.358
X106.891Y-649.358
X106.891Y-654.358
X106.891Y-659.358
X108.261Y-669.798
X108.261Y-674.798
X113.261Y-669.798
X113.261Y-674.798
X123.411Y-669.798
X123.411Y-674.798
X128.411Y-669.798
X128.411Y-674.798
X168.261Y-669.798
X168.261Y-674.798
X173.261Y-669.798
X173.261Y-674.798
X183.411Y-669.798
X183.411Y-674.798
X188.411Y-669.798
X188.411Y-674.798
X228.261Y-669.798
X228.261Y-674.798
X233.261Y-669.798
X233.261Y-674.798
X243.411Y-669.798
X243.411Y-674.798
X248.411Y-669.798
X248.411Y-674.798
X268.736Y-783.598
X268.736Y-788.598
X273.226Y-754.501
X273.226Y-759.501
X273.736Y-783.598
X273.736Y-788.598
X278.226Y-754.501
X278.226Y-759.501
X286.086Y-784.448
X286.086Y-789.448
X288.261Y-669.798
X288.261Y-674.798
X291.086Y-784.448
X291.086Y-789.448
X293.261Y-669.798
X293.261Y-674.798
X301.236Y-753.011
X301.236Y-758.011
X301.236Y-763.011
X303.411Y-669.798
X303.411Y-674.798
X306.236Y-753.011
X306.236Y-758.011
X306.236Y-763.011
X308.411Y-669.798
X308.411Y-674.798
X348.261Y-669.798
X348.261Y-674.798
X353.261Y-669.798
X353.261Y-674.798
X363.411Y-669.798
X363.411Y-674.798
X368.411Y-669.798
X368.411Y-674.798
X400.631Y-763.436
X400.631Y-768.436
X405.631Y-763.436
X405.631Y-768.436
X408.261Y-669.798
X408.261Y-674.798
X413.261Y-669.798
X413.261Y-674.798
X419.681Y-740.368
X419.681Y-745.368
X419.681Y-750.368
X423.411Y-669.798
X423.411Y-674.798
X424.681Y-740.368
X424.681Y-745.368
X424.681Y-750.368
X428.411Y-669.798
X428.411Y-674.798
X460.581Y-747.136
X460.581Y-752.136
X460.731Y-717.398
X460.731Y-722.398
X465.581Y-747.136
X465.581Y-752.136
X465.731Y-717.398
X465.731Y-722.398
X468.261Y-669.798
X468.261Y-674.798
X473.261Y-669.798
X473.261Y-674.798
X483.411Y-669.798
X483.411Y-674.798
X488.411Y-669.798
X488.411Y-674.798
X528.261Y-669.798
X528.261Y-674.798
X533.261Y-669.798
X533.261Y-674.798
X543.411Y-669.798
X543.411Y-674.798
X548.411Y-669.798
X548.411Y-674.798
T7
X90.701Y-643.708
X90.701Y-699.541
X90.701Y-755.375
X90.701Y-806.208
X110.171Y-725.298
X126.118Y-761.376
X181.071Y-761.298
X202.671Y-795.198
X250.701Y-643.708
X250.701Y-699.541
X250.701Y-755.375
X250.701Y-806.208
X410.701Y-643.708
X410.701Y-699.541
X410.701Y-755.375
X410.701Y-806.208
X465.784Y-736.522
X560.701Y-643.708
X560.701Y-699.541
X560.701Y-755.375
X560.701Y-806.208
T0
M30
