%TF.GenerationSoftware,KiCad,Pcbnew,7.0.8*%
%TF.CreationDate,2023-11-16T11:59:51+01:00*%
%TF.ProjectId,main-board-rev1,6d61696e-2d62-46f6-9172-642d72657631,rev?*%
%TF.SameCoordinates,Original*%
%TF.FileFunction,Soldermask,Top*%
%TF.FilePolarity,Negative*%
%FSLAX46Y46*%
G04 Gerber Fmt 4.6, Leading zero omitted, Abs format (unit mm)*
G04 Created by KiCad (PCBNEW 7.0.8) date 2023-11-16 11:59:51*
%MOMM*%
%LPD*%
G01*
G04 APERTURE LIST*
G04 Aperture macros list*
%AMRoundRect*
0 Rectangle with rounded corners*
0 $1 Rounding radius*
0 $2 $3 $4 $5 $6 $7 $8 $9 X,Y pos of 4 corners*
0 Add a 4 corners polygon primitive as box body*
4,1,4,$2,$3,$4,$5,$6,$7,$8,$9,$2,$3,0*
0 Add four circle primitives for the rounded corners*
1,1,$1+$1,$2,$3*
1,1,$1+$1,$4,$5*
1,1,$1+$1,$6,$7*
1,1,$1+$1,$8,$9*
0 Add four rect primitives between the rounded corners*
20,1,$1+$1,$2,$3,$4,$5,0*
20,1,$1+$1,$4,$5,$6,$7,0*
20,1,$1+$1,$6,$7,$8,$9,0*
20,1,$1+$1,$8,$9,$2,$3,0*%
G04 Aperture macros list end*
%ADD10RoundRect,0.150000X0.150000X-0.825000X0.150000X0.825000X-0.150000X0.825000X-0.150000X-0.825000X0*%
%ADD11RoundRect,0.150000X-0.150000X0.825000X-0.150000X-0.825000X0.150000X-0.825000X0.150000X0.825000X0*%
%ADD12C,0.800000*%
%ADD13C,6.400000*%
%ADD14RoundRect,0.140000X0.140000X0.170000X-0.140000X0.170000X-0.140000X-0.170000X0.140000X-0.170000X0*%
%ADD15RoundRect,0.225000X0.375000X-0.225000X0.375000X0.225000X-0.375000X0.225000X-0.375000X-0.225000X0*%
%ADD16RoundRect,0.250000X-0.625000X0.312500X-0.625000X-0.312500X0.625000X-0.312500X0.625000X0.312500X0*%
%ADD17R,1.700000X1.700000*%
%ADD18O,1.700000X1.700000*%
%ADD19RoundRect,0.225000X0.225000X0.375000X-0.225000X0.375000X-0.225000X-0.375000X0.225000X-0.375000X0*%
%ADD20R,1.500000X3.000000*%
%ADD21O,1.500000X3.000000*%
%ADD22RoundRect,0.250001X-0.462499X-0.624999X0.462499X-0.624999X0.462499X0.624999X-0.462499X0.624999X0*%
%ADD23RoundRect,0.250000X0.475000X-0.250000X0.475000X0.250000X-0.475000X0.250000X-0.475000X-0.250000X0*%
%ADD24RoundRect,0.250000X2.050000X0.300000X-2.050000X0.300000X-2.050000X-0.300000X2.050000X-0.300000X0*%
%ADD25RoundRect,0.250002X4.449998X5.149998X-4.449998X5.149998X-4.449998X-5.149998X4.449998X-5.149998X0*%
%ADD26R,3.000000X1.500000*%
%ADD27O,3.000000X1.500000*%
%ADD28RoundRect,0.250000X-0.650000X0.412500X-0.650000X-0.412500X0.650000X-0.412500X0.650000X0.412500X0*%
%ADD29RoundRect,0.250000X1.050000X0.550000X-1.050000X0.550000X-1.050000X-0.550000X1.050000X-0.550000X0*%
%ADD30RoundRect,0.250000X-0.412500X-0.650000X0.412500X-0.650000X0.412500X0.650000X-0.412500X0.650000X0*%
%ADD31RoundRect,0.250000X0.412500X0.650000X-0.412500X0.650000X-0.412500X-0.650000X0.412500X-0.650000X0*%
%ADD32RoundRect,0.250000X0.312500X0.625000X-0.312500X0.625000X-0.312500X-0.625000X0.312500X-0.625000X0*%
%ADD33RoundRect,0.250000X-0.250000X-0.475000X0.250000X-0.475000X0.250000X0.475000X-0.250000X0.475000X0*%
%ADD34RoundRect,0.140000X-0.170000X0.140000X-0.170000X-0.140000X0.170000X-0.140000X0.170000X0.140000X0*%
%ADD35RoundRect,0.140000X-0.140000X-0.170000X0.140000X-0.170000X0.140000X0.170000X-0.140000X0.170000X0*%
%ADD36RoundRect,0.150000X-0.150000X0.650000X-0.150000X-0.650000X0.150000X-0.650000X0.150000X0.650000X0*%
%ADD37R,3.400000X1.300000*%
%ADD38RoundRect,0.140000X0.170000X-0.140000X0.170000X0.140000X-0.170000X0.140000X-0.170000X-0.140000X0*%
%ADD39RoundRect,0.250001X0.624999X-0.462499X0.624999X0.462499X-0.624999X0.462499X-0.624999X-0.462499X0*%
%ADD40RoundRect,0.250000X0.625000X-0.312500X0.625000X0.312500X-0.625000X0.312500X-0.625000X-0.312500X0*%
%ADD41R,1.300000X3.400000*%
%ADD42RoundRect,0.250000X-1.950000X-0.700000X1.950000X-0.700000X1.950000X0.700000X-1.950000X0.700000X0*%
%ADD43RoundRect,0.250000X0.750000X-0.400000X0.750000X0.400000X-0.750000X0.400000X-0.750000X-0.400000X0*%
%ADD44RoundRect,0.250000X0.750000X-0.750000X0.750000X0.750000X-0.750000X0.750000X-0.750000X-0.750000X0*%
%ADD45RoundRect,0.250000X-0.312500X-0.625000X0.312500X-0.625000X0.312500X0.625000X-0.312500X0.625000X0*%
%ADD46RoundRect,0.250000X0.400000X0.750000X-0.400000X0.750000X-0.400000X-0.750000X0.400000X-0.750000X0*%
%ADD47RoundRect,0.250000X0.750000X0.750000X-0.750000X0.750000X-0.750000X-0.750000X0.750000X-0.750000X0*%
%ADD48RoundRect,0.150000X0.825000X0.150000X-0.825000X0.150000X-0.825000X-0.150000X0.825000X-0.150000X0*%
%ADD49C,2.000000*%
%ADD50RoundRect,0.225000X-0.225000X-0.375000X0.225000X-0.375000X0.225000X0.375000X-0.225000X0.375000X0*%
%ADD51RoundRect,0.250001X-0.624999X0.462499X-0.624999X-0.462499X0.624999X-0.462499X0.624999X0.462499X0*%
%ADD52RoundRect,0.250000X0.550000X-1.050000X0.550000X1.050000X-0.550000X1.050000X-0.550000X-1.050000X0*%
%ADD53RoundRect,0.225000X-0.375000X0.225000X-0.375000X-0.225000X0.375000X-0.225000X0.375000X0.225000X0*%
%ADD54RoundRect,0.150000X-0.825000X-0.150000X0.825000X-0.150000X0.825000X0.150000X-0.825000X0.150000X0*%
%ADD55R,0.250000X0.600000*%
%ADD56R,4.000000X3.200000*%
%ADD57RoundRect,0.250000X0.250000X0.475000X-0.250000X0.475000X-0.250000X-0.475000X0.250000X-0.475000X0*%
%ADD58RoundRect,0.250000X-0.300000X-0.300000X0.300000X-0.300000X0.300000X0.300000X-0.300000X0.300000X0*%
%ADD59RoundRect,0.250000X-0.475000X0.250000X-0.475000X-0.250000X0.475000X-0.250000X0.475000X0.250000X0*%
%ADD60RoundRect,0.150000X0.150000X-0.650000X0.150000X0.650000X-0.150000X0.650000X-0.150000X-0.650000X0*%
%ADD61RoundRect,0.150000X0.200000X-0.150000X0.200000X0.150000X-0.200000X0.150000X-0.200000X-0.150000X0*%
%ADD62RoundRect,0.250000X-0.550000X1.500000X-0.550000X-1.500000X0.550000X-1.500000X0.550000X1.500000X0*%
G04 APERTURE END LIST*
D10*
%TO.C,U409*%
X315060682Y-712998023D03*
X316330682Y-712998023D03*
X317600682Y-712998023D03*
X318870682Y-712998023D03*
X320140682Y-712998023D03*
X321410682Y-712998023D03*
X322680682Y-712998023D03*
X322680682Y-708048023D03*
X321410682Y-708048023D03*
X320140682Y-708048023D03*
X318870682Y-708048023D03*
X317600682Y-708048023D03*
X316330682Y-708048023D03*
X315060682Y-708048023D03*
%TD*%
D11*
%TO.C,U402*%
X361680682Y-745198023D03*
X360410682Y-745198023D03*
X359140682Y-745198023D03*
X357870682Y-745198023D03*
X356600682Y-745198023D03*
X355330682Y-745198023D03*
X354060682Y-745198023D03*
X354060682Y-750148023D03*
X355330682Y-750148023D03*
X356600682Y-750148023D03*
X357870682Y-750148023D03*
X359140682Y-750148023D03*
X360410682Y-750148023D03*
X361680682Y-750148023D03*
%TD*%
D12*
%TO.C,H108*%
X88300682Y-643708023D03*
X89003626Y-642010967D03*
X89003626Y-645405079D03*
X90700682Y-641308023D03*
D13*
X90700682Y-643708023D03*
D12*
X90700682Y-646108023D03*
X92397738Y-642010967D03*
X92397738Y-645405079D03*
X93100682Y-643708023D03*
%TD*%
D10*
%TO.C,U419*%
X391240682Y-713098023D03*
X392510682Y-713098023D03*
X393780682Y-713098023D03*
X395050682Y-713098023D03*
X396320682Y-713098023D03*
X397590682Y-713098023D03*
X398860682Y-713098023D03*
X398860682Y-708148023D03*
X397590682Y-708148023D03*
X396320682Y-708148023D03*
X395050682Y-708148023D03*
X393780682Y-708148023D03*
X392510682Y-708148023D03*
X391240682Y-708148023D03*
%TD*%
D14*
%TO.C,C403*%
X319670682Y-714748023D03*
X318710682Y-714748023D03*
%TD*%
D15*
%TO.C,D101*%
X114320682Y-693198023D03*
X114320682Y-689898023D03*
%TD*%
D12*
%TO.C,H108*%
X408300682Y-643708023D03*
X409003626Y-642010967D03*
X409003626Y-645405079D03*
X410700682Y-641308023D03*
D13*
X410700682Y-643708023D03*
D12*
X410700682Y-646108023D03*
X412397738Y-642010967D03*
X412397738Y-645405079D03*
X413100682Y-643708023D03*
%TD*%
D16*
%TO.C,R304*%
X408180682Y-738185523D03*
X408180682Y-741110523D03*
%TD*%
D15*
%TO.C,D110*%
X181520682Y-693198023D03*
X181520682Y-689898023D03*
%TD*%
D10*
%TO.C,U413*%
X284610682Y-732298023D03*
X285880682Y-732298023D03*
X287150682Y-732298023D03*
X288420682Y-732298023D03*
X289690682Y-732298023D03*
X290960682Y-732298023D03*
X292230682Y-732298023D03*
X292230682Y-727348023D03*
X290960682Y-727348023D03*
X289690682Y-727348023D03*
X288420682Y-727348023D03*
X287150682Y-727348023D03*
X285880682Y-727348023D03*
X284610682Y-727348023D03*
%TD*%
D17*
%TO.C,J105*%
X359720682Y-686088023D03*
D18*
X359720682Y-683548023D03*
X357180682Y-686088023D03*
X357180682Y-683548023D03*
X354640682Y-686088023D03*
X354640682Y-683548023D03*
X352100682Y-686088023D03*
X352100682Y-683548023D03*
X349560682Y-686088023D03*
X349560682Y-683548023D03*
%TD*%
D19*
%TO.C,D125*%
X437080682Y-733548023D03*
X433780682Y-733548023D03*
%TD*%
D15*
%TO.C,D109*%
X120520682Y-693198023D03*
X120520682Y-689898023D03*
%TD*%
D20*
%TO.C,J503*%
X363410682Y-669798023D03*
X363410682Y-674798023D03*
D21*
X368410682Y-669798023D03*
X368410682Y-674798023D03*
%TD*%
D12*
%TO.C,H108*%
X248300682Y-643708023D03*
X249003626Y-642010967D03*
X249003626Y-645405079D03*
X250700682Y-641308023D03*
D13*
X250700682Y-643708023D03*
D12*
X250700682Y-646108023D03*
X252397738Y-642010967D03*
X252397738Y-645405079D03*
X253100682Y-643708023D03*
%TD*%
D22*
%TO.C,D204*%
X311798182Y-764223023D03*
X314773182Y-764223023D03*
%TD*%
D23*
%TO.C,C205*%
X343160682Y-797748023D03*
X343160682Y-795848023D03*
%TD*%
D24*
%TO.C,U202*%
X317510682Y-775838023D03*
D25*
X308360682Y-773298023D03*
D24*
X317510682Y-770758023D03*
%TD*%
D26*
%TO.C,J120*%
X460580682Y-752135523D03*
X465580682Y-752135523D03*
D27*
X460580682Y-747135523D03*
X465580682Y-747135523D03*
%TD*%
D15*
%TO.C,D107*%
X474620682Y-693198023D03*
X474620682Y-689898023D03*
%TD*%
D14*
%TO.C,C410*%
X289160682Y-734174689D03*
X288200682Y-734174689D03*
%TD*%
D28*
%TO.C,C209*%
X321485682Y-772173023D03*
X321485682Y-775298023D03*
%TD*%
D17*
%TO.C,J104*%
X299780682Y-685788023D03*
D18*
X299780682Y-683248023D03*
X297240682Y-685788023D03*
X297240682Y-683248023D03*
X294700682Y-685788023D03*
X294700682Y-683248023D03*
X292160682Y-685788023D03*
X292160682Y-683248023D03*
X289620682Y-685788023D03*
X289620682Y-683248023D03*
%TD*%
D24*
%TO.C,Q201*%
X310810682Y-787263023D03*
X310810682Y-784723023D03*
D25*
X301660682Y-784723023D03*
D24*
X310810682Y-782183023D03*
%TD*%
D11*
%TO.C,U405*%
X320980682Y-744898023D03*
X319710682Y-744898023D03*
X318440682Y-744898023D03*
X317170682Y-744898023D03*
X315900682Y-744898023D03*
X314630682Y-744898023D03*
X313360682Y-744898023D03*
X313360682Y-749848023D03*
X314630682Y-749848023D03*
X315900682Y-749848023D03*
X317170682Y-749848023D03*
X318440682Y-749848023D03*
X319710682Y-749848023D03*
X320980682Y-749848023D03*
%TD*%
D26*
%TO.C,J202*%
X101890682Y-659358023D03*
X106890682Y-659358023D03*
D27*
X101890682Y-654358023D03*
X106890682Y-654358023D03*
X101890682Y-649358023D03*
X106890682Y-649358023D03*
%TD*%
D12*
%TO.C,H108*%
X408300682Y-699541356D03*
X409003626Y-697844300D03*
X409003626Y-701238412D03*
X410700682Y-697141356D03*
D13*
X410700682Y-699541356D03*
D12*
X410700682Y-701941356D03*
X412397738Y-697844300D03*
X412397738Y-701238412D03*
X413100682Y-699541356D03*
%TD*%
D29*
%TO.C,C303*%
X291735682Y-759510523D03*
X288135682Y-759510523D03*
%TD*%
D30*
%TO.C,C207*%
X336410682Y-791798023D03*
X339535682Y-791798023D03*
%TD*%
D31*
%TO.C,C202*%
X316798182Y-780048023D03*
X313673182Y-780048023D03*
%TD*%
D17*
%TO.C,J1*%
X311980682Y-800574689D03*
D18*
X309440682Y-800574689D03*
X306900682Y-800574689D03*
X304360682Y-800574689D03*
X301820682Y-800574689D03*
X299280682Y-800574689D03*
%TD*%
D15*
%TO.C,D105*%
X354720682Y-693198023D03*
X354720682Y-689898023D03*
%TD*%
%TO.C,D102*%
X175220682Y-693198023D03*
X175220682Y-689898023D03*
%TD*%
D30*
%TO.C,C206*%
X336410682Y-795798023D03*
X339535682Y-795798023D03*
%TD*%
D20*
%TO.C,J503*%
X423410682Y-669798023D03*
X423410682Y-674798023D03*
D21*
X428410682Y-669798023D03*
X428410682Y-674798023D03*
%TD*%
D20*
%TO.C,J504*%
X528260682Y-669798023D03*
X528260682Y-674798023D03*
D21*
X533260682Y-669798023D03*
X533260682Y-674798023D03*
%TD*%
D32*
%TO.C,R201*%
X290235682Y-795948023D03*
X287310682Y-795948023D03*
%TD*%
D12*
%TO.C,H108*%
X248300682Y-806208023D03*
X249003626Y-804510967D03*
X249003626Y-807905079D03*
X250700682Y-803808023D03*
D13*
X250700682Y-806208023D03*
D12*
X250700682Y-808608023D03*
X252397738Y-804510967D03*
X252397738Y-807905079D03*
X253100682Y-806208023D03*
%TD*%
D20*
%TO.C,J503*%
X543410682Y-669798023D03*
X543410682Y-674798023D03*
D21*
X548410682Y-669798023D03*
X548410682Y-674798023D03*
%TD*%
D12*
%TO.C,H108*%
X408300682Y-755374689D03*
X409003626Y-753677633D03*
X409003626Y-757071745D03*
X410700682Y-752974689D03*
D13*
X410700682Y-755374689D03*
D12*
X410700682Y-757774689D03*
X412397738Y-753677633D03*
X412397738Y-757071745D03*
X413100682Y-755374689D03*
%TD*%
D15*
%TO.C,D126*%
X446180682Y-724948023D03*
X446180682Y-721648023D03*
%TD*%
%TO.C,D112*%
X300920682Y-693198023D03*
X300920682Y-689898023D03*
%TD*%
D33*
%TO.C,C306*%
X416520682Y-755578023D03*
X418420682Y-755578023D03*
%TD*%
D32*
%TO.C,R103*%
X441630682Y-719098023D03*
X438705682Y-719098023D03*
%TD*%
D14*
%TO.C,C419*%
X395520682Y-714948023D03*
X394560682Y-714948023D03*
%TD*%
D20*
%TO.C,SW201*%
X286085682Y-784448023D03*
X286085682Y-789448023D03*
D21*
X291085682Y-784448023D03*
X291085682Y-789448023D03*
%TD*%
D34*
%TO.C,C201*%
X328160682Y-785150523D03*
X328160682Y-786110523D03*
%TD*%
D14*
%TO.C,C415*%
X270320682Y-714748023D03*
X269360682Y-714748023D03*
%TD*%
D31*
%TO.C,C204*%
X316748182Y-766548023D03*
X313623182Y-766548023D03*
%TD*%
D15*
%TO.C,D103*%
X234720682Y-693198023D03*
X234720682Y-689898023D03*
%TD*%
D17*
%TO.C,J117*%
X521380682Y-703378023D03*
D18*
X523920682Y-703378023D03*
X521380682Y-705918023D03*
X523920682Y-705918023D03*
X521380682Y-708458023D03*
X523920682Y-708458023D03*
X521380682Y-710998023D03*
X523920682Y-710998023D03*
X521380682Y-713538023D03*
X523920682Y-713538023D03*
X521380682Y-716078023D03*
X523920682Y-716078023D03*
X521380682Y-718618023D03*
X523920682Y-718618023D03*
X521380682Y-721158023D03*
X523920682Y-721158023D03*
X521380682Y-723698023D03*
X523920682Y-723698023D03*
X521380682Y-726238023D03*
X523920682Y-726238023D03*
X521380682Y-728778023D03*
X523920682Y-728778023D03*
X521380682Y-731318023D03*
X523920682Y-731318023D03*
X521380682Y-733858023D03*
X523920682Y-733858023D03*
X521380682Y-736398023D03*
X523920682Y-736398023D03*
X521380682Y-738938023D03*
X523920682Y-738938023D03*
X521380682Y-741478023D03*
X523920682Y-741478023D03*
X521380682Y-744018023D03*
X523920682Y-744018023D03*
X521380682Y-746558023D03*
X523920682Y-746558023D03*
X521380682Y-749098023D03*
X523920682Y-749098023D03*
X521380682Y-751638023D03*
X523920682Y-751638023D03*
X521380682Y-754178023D03*
X523920682Y-754178023D03*
X521380682Y-756718023D03*
X523920682Y-756718023D03*
X521380682Y-759258023D03*
X523920682Y-759258023D03*
X521380682Y-761798023D03*
X523920682Y-761798023D03*
X521380682Y-764338023D03*
X523920682Y-764338023D03*
X521380682Y-766878023D03*
X523920682Y-766878023D03*
X521380682Y-769418023D03*
X523920682Y-769418023D03*
X521380682Y-771958023D03*
X523920682Y-771958023D03*
X521380682Y-774498023D03*
X523920682Y-774498023D03*
X521380682Y-777038023D03*
X523920682Y-777038023D03*
X521380682Y-779578023D03*
X523920682Y-779578023D03*
X521380682Y-782118023D03*
X523920682Y-782118023D03*
%TD*%
D30*
%TO.C,C304*%
X289973182Y-763010523D03*
X293098182Y-763010523D03*
%TD*%
D20*
%TO.C,SW302*%
X273225682Y-754500523D03*
X273225682Y-759500523D03*
D21*
X278225682Y-754500523D03*
X278225682Y-759500523D03*
%TD*%
D35*
%TO.C,C416*%
X333300682Y-734148023D03*
X334260682Y-734148023D03*
%TD*%
D16*
%TO.C,R106*%
X434430682Y-728123023D03*
X434430682Y-731048023D03*
%TD*%
D20*
%TO.C,J503*%
X483410682Y-669798023D03*
X483410682Y-674798023D03*
D21*
X488410682Y-669798023D03*
X488410682Y-674798023D03*
%TD*%
D10*
%TO.C,U407*%
X373850682Y-751123023D03*
X375120682Y-751123023D03*
X376390682Y-751123023D03*
X377660682Y-751123023D03*
X378930682Y-751123023D03*
X380200682Y-751123023D03*
X381470682Y-751123023D03*
X381470682Y-746173023D03*
X380200682Y-746173023D03*
X378930682Y-746173023D03*
X377660682Y-746173023D03*
X376390682Y-746173023D03*
X375120682Y-746173023D03*
X373850682Y-746173023D03*
%TD*%
D36*
%TO.C,U404*%
X327430682Y-758048023D03*
X326160682Y-758048023D03*
X324890682Y-758048023D03*
X323620682Y-758048023D03*
X322350682Y-758048023D03*
X321080682Y-758048023D03*
X319810682Y-758048023D03*
X318540682Y-758048023D03*
X318540682Y-764548023D03*
X319810682Y-764548023D03*
X321080682Y-764548023D03*
X322350682Y-764548023D03*
X323620682Y-764548023D03*
X324890682Y-764548023D03*
X326160682Y-764548023D03*
X327430682Y-764548023D03*
%TD*%
D14*
%TO.C,C404*%
X376490682Y-733848023D03*
X375530682Y-733848023D03*
%TD*%
D34*
%TO.C,C405*%
X393260682Y-728038023D03*
X393260682Y-728998023D03*
%TD*%
D37*
%TO.C,L201*%
X315985682Y-789760523D03*
X315985682Y-791860523D03*
%TD*%
D15*
%TO.C,D135*%
X435000682Y-723174689D03*
X435000682Y-719874689D03*
%TD*%
D12*
%TO.C,H108*%
X408300682Y-806208023D03*
X409003626Y-804510967D03*
X409003626Y-807905079D03*
X410700682Y-803808023D03*
D13*
X410700682Y-806208023D03*
D12*
X410700682Y-808608023D03*
X412397738Y-804510967D03*
X412397738Y-807905079D03*
X413100682Y-806208023D03*
%TD*%
D28*
%TO.C,C210*%
X324985682Y-772173023D03*
X324985682Y-775298023D03*
%TD*%
D15*
%TO.C,D104*%
X294720682Y-693198023D03*
X294720682Y-689898023D03*
%TD*%
D38*
%TO.C,C402*%
X335160682Y-759778023D03*
X335160682Y-758818023D03*
%TD*%
D15*
%TO.C,D115*%
X481120682Y-693198023D03*
X481120682Y-689898023D03*
%TD*%
D12*
%TO.C,H108*%
X558300682Y-806208023D03*
X559003626Y-804510967D03*
X559003626Y-807905079D03*
X560700682Y-803808023D03*
D13*
X560700682Y-806208023D03*
D12*
X560700682Y-808608023D03*
X562397738Y-804510967D03*
X562397738Y-807905079D03*
X563100682Y-806208023D03*
%TD*%
D35*
%TO.C,C409*%
X344330682Y-714748023D03*
X345290682Y-714748023D03*
%TD*%
D17*
%TO.C,J103*%
X239620682Y-685748023D03*
D18*
X239620682Y-683208023D03*
X237080682Y-685748023D03*
X237080682Y-683208023D03*
X234540682Y-685748023D03*
X234540682Y-683208023D03*
X232000682Y-685748023D03*
X232000682Y-683208023D03*
X229460682Y-685748023D03*
X229460682Y-683208023D03*
%TD*%
D20*
%TO.C,J504*%
X288260682Y-669798023D03*
X288260682Y-674798023D03*
D21*
X293260682Y-669798023D03*
X293260682Y-674798023D03*
%TD*%
D39*
%TO.C,D301*%
X286000000Y-769137500D03*
X286000000Y-766162500D03*
%TD*%
D12*
%TO.C,H407*%
X107770682Y-725298023D03*
X108473626Y-723600967D03*
X108473626Y-726995079D03*
X110170682Y-722898023D03*
D13*
X110170682Y-725298023D03*
D12*
X110170682Y-727698023D03*
X111867738Y-723600967D03*
X111867738Y-726995079D03*
X112570682Y-725298023D03*
%TD*%
D17*
%TO.C,J102*%
X180620682Y-685648023D03*
D18*
X180620682Y-683108023D03*
X178080682Y-685648023D03*
X178080682Y-683108023D03*
X175540682Y-685648023D03*
X175540682Y-683108023D03*
X173000682Y-685648023D03*
X173000682Y-683108023D03*
X170460682Y-685648023D03*
X170460682Y-683108023D03*
%TD*%
D12*
%TO.C,H108*%
X88300682Y-699541356D03*
X89003626Y-697844300D03*
X89003626Y-701238412D03*
X90700682Y-697141356D03*
D13*
X90700682Y-699541356D03*
D12*
X90700682Y-701941356D03*
X92397738Y-697844300D03*
X92397738Y-701238412D03*
X93100682Y-699541356D03*
%TD*%
D14*
%TO.C,C412*%
X295070682Y-714848023D03*
X294110682Y-714848023D03*
%TD*%
D32*
%TO.C,R101*%
X448963182Y-726974689D03*
X446038182Y-726974689D03*
%TD*%
D20*
%TO.C,J503*%
X123410682Y-669798023D03*
X123410682Y-674798023D03*
D21*
X128410682Y-669798023D03*
X128410682Y-674798023D03*
%TD*%
D15*
%TO.C,D113*%
X360920682Y-693198023D03*
X360920682Y-689898023D03*
%TD*%
D12*
%TO.C,H108*%
X248300682Y-755374689D03*
X249003626Y-753677633D03*
X249003626Y-757071745D03*
X250700682Y-752974689D03*
D13*
X250700682Y-755374689D03*
D12*
X250700682Y-757774689D03*
X252397738Y-753677633D03*
X252397738Y-757071745D03*
X253100682Y-755374689D03*
%TD*%
D40*
%TO.C,R107*%
X444580682Y-735985523D03*
X444580682Y-733060523D03*
%TD*%
D38*
%TO.C,C1*%
X436300682Y-727234689D03*
X436300682Y-726274689D03*
%TD*%
D41*
%TO.C,L203*%
X322185682Y-769173023D03*
X324285682Y-769173023D03*
%TD*%
D42*
%TO.C,C211*%
X328985682Y-771548023D03*
X337685682Y-771548023D03*
%TD*%
D43*
%TO.C,RV102*%
X448980682Y-718548023D03*
D44*
X452980682Y-717398023D03*
D43*
X448980682Y-716248023D03*
%TD*%
%TO.C,RV103*%
X448880682Y-748235523D03*
D44*
X452880682Y-747085523D03*
D43*
X448880682Y-745935523D03*
%TD*%
D12*
%TO.C,H405*%
X200270682Y-795198023D03*
X200973626Y-793500967D03*
X200973626Y-796895079D03*
X202670682Y-792798023D03*
D13*
X202670682Y-795198023D03*
D12*
X202670682Y-797598023D03*
X204367738Y-793500967D03*
X204367738Y-796895079D03*
X205070682Y-795198023D03*
%TD*%
D45*
%TO.C,R306*%
X273773182Y-766698023D03*
X276698182Y-766698023D03*
%TD*%
D38*
%TO.C,C414*%
X322260682Y-748958023D03*
X322260682Y-747998023D03*
%TD*%
D46*
%TO.C,RV101*%
X434030682Y-716185523D03*
D47*
X432880682Y-712185523D03*
D46*
X431730682Y-716185523D03*
%TD*%
D12*
%TO.C,H108*%
X88300682Y-806208023D03*
X89003626Y-804510967D03*
X89003626Y-807905079D03*
X90700682Y-803808023D03*
D13*
X90700682Y-806208023D03*
D12*
X90700682Y-808608023D03*
X92397738Y-804510967D03*
X92397738Y-807905079D03*
X93100682Y-806208023D03*
%TD*%
D10*
%TO.C,U414*%
X290540682Y-713048023D03*
X291810682Y-713048023D03*
X293080682Y-713048023D03*
X294350682Y-713048023D03*
X295620682Y-713048023D03*
X296890682Y-713048023D03*
X298160682Y-713048023D03*
X298160682Y-708098023D03*
X296890682Y-708098023D03*
X295620682Y-708098023D03*
X294350682Y-708098023D03*
X293080682Y-708098023D03*
X291810682Y-708098023D03*
X290540682Y-708098023D03*
%TD*%
D17*
%TO.C,J107*%
X479420682Y-686148023D03*
D18*
X479420682Y-683608023D03*
X476880682Y-686148023D03*
X476880682Y-683608023D03*
X474340682Y-686148023D03*
X474340682Y-683608023D03*
X471800682Y-686148023D03*
X471800682Y-683608023D03*
X469260682Y-686148023D03*
X469260682Y-683608023D03*
%TD*%
D33*
%TO.C,C301*%
X292785682Y-770510523D03*
X294685682Y-770510523D03*
%TD*%
D48*
%TO.C,U2*%
X443050682Y-730594689D03*
X443050682Y-729324689D03*
X443050682Y-728054689D03*
X443050682Y-726784689D03*
X443050682Y-725514689D03*
X443050682Y-724244689D03*
X443050682Y-722974689D03*
X438100682Y-722974689D03*
X438100682Y-724244689D03*
X438100682Y-725514689D03*
X438100682Y-726784689D03*
X438100682Y-728054689D03*
X438100682Y-729324689D03*
X438100682Y-730594689D03*
%TD*%
D35*
%TO.C,C413*%
X263900682Y-734098023D03*
X264860682Y-734098023D03*
%TD*%
D10*
%TO.C,U418*%
X351810682Y-732248023D03*
X353080682Y-732248023D03*
X354350682Y-732248023D03*
X355620682Y-732248023D03*
X356890682Y-732248023D03*
X358160682Y-732248023D03*
X359430682Y-732248023D03*
X359430682Y-727298023D03*
X358160682Y-727298023D03*
X356890682Y-727298023D03*
X355620682Y-727298023D03*
X354350682Y-727298023D03*
X353080682Y-727298023D03*
X351810682Y-727298023D03*
%TD*%
D49*
%TO.C,TP401*%
X446830682Y-730298023D03*
%TD*%
D50*
%TO.C,D401*%
X370625682Y-776900523D03*
X373925682Y-776900523D03*
%TD*%
D32*
%TO.C,R105*%
X431643182Y-732398023D03*
X428718182Y-732398023D03*
%TD*%
D20*
%TO.C,J504*%
X408260682Y-669798023D03*
X408260682Y-674798023D03*
D21*
X413260682Y-669798023D03*
X413260682Y-674798023D03*
%TD*%
D32*
%TO.C,R401*%
X324818182Y-755063023D03*
X321893182Y-755063023D03*
%TD*%
D16*
%TO.C,R205*%
X326410682Y-789585523D03*
X326410682Y-792510523D03*
%TD*%
D51*
%TO.C,D205*%
X326160682Y-794560523D03*
X326160682Y-797535523D03*
%TD*%
D10*
%TO.C,U417*%
X330890682Y-732398023D03*
X332160682Y-732398023D03*
X333430682Y-732398023D03*
X334700682Y-732398023D03*
X335970682Y-732398023D03*
X337240682Y-732398023D03*
X338510682Y-732398023D03*
X338510682Y-727448023D03*
X337240682Y-727448023D03*
X335970682Y-727448023D03*
X334700682Y-727448023D03*
X333430682Y-727448023D03*
X332160682Y-727448023D03*
X330890682Y-727448023D03*
%TD*%
%TO.C,U408*%
X372050682Y-731998023D03*
X373320682Y-731998023D03*
X374590682Y-731998023D03*
X375860682Y-731998023D03*
X377130682Y-731998023D03*
X378400682Y-731998023D03*
X379670682Y-731998023D03*
X379670682Y-727048023D03*
X378400682Y-727048023D03*
X377130682Y-727048023D03*
X375860682Y-727048023D03*
X374590682Y-727048023D03*
X373320682Y-727048023D03*
X372050682Y-727048023D03*
%TD*%
D35*
%TO.C,C406*%
X368450682Y-714998023D03*
X369410682Y-714998023D03*
%TD*%
D10*
%TO.C,U416*%
X266140682Y-712898023D03*
X267410682Y-712898023D03*
X268680682Y-712898023D03*
X269950682Y-712898023D03*
X271220682Y-712898023D03*
X272490682Y-712898023D03*
X273760682Y-712898023D03*
X273760682Y-707948023D03*
X272490682Y-707948023D03*
X271220682Y-707948023D03*
X269950682Y-707948023D03*
X268680682Y-707948023D03*
X267410682Y-707948023D03*
X266140682Y-707948023D03*
%TD*%
D32*
%TO.C,R204*%
X314710682Y-761723023D03*
X311785682Y-761723023D03*
%TD*%
D33*
%TO.C,C305*%
X409230682Y-734698023D03*
X411130682Y-734698023D03*
%TD*%
D38*
%TO.C,C401*%
X329160682Y-764528023D03*
X329160682Y-763568023D03*
%TD*%
D37*
%TO.C,L202*%
X333410682Y-794848023D03*
X333410682Y-792748023D03*
%TD*%
D17*
%TO.C,J101*%
X119620682Y-685648023D03*
D18*
X119620682Y-683108023D03*
X117080682Y-685648023D03*
X117080682Y-683108023D03*
X114540682Y-685648023D03*
X114540682Y-683108023D03*
X112000682Y-685648023D03*
X112000682Y-683108023D03*
X109460682Y-685648023D03*
X109460682Y-683108023D03*
%TD*%
D15*
%TO.C,D106*%
X414720682Y-693198023D03*
X414720682Y-689898023D03*
%TD*%
%TO.C,D111*%
X241120682Y-693198023D03*
X241120682Y-689898023D03*
%TD*%
D20*
%TO.C,J503*%
X183410682Y-669798023D03*
X183410682Y-674798023D03*
D21*
X188410682Y-669798023D03*
X188410682Y-674798023D03*
%TD*%
D20*
%TO.C,J503*%
X303410682Y-669798023D03*
X303410682Y-674798023D03*
D21*
X308410682Y-669798023D03*
X308410682Y-674798023D03*
%TD*%
D20*
%TO.C,J504*%
X168260682Y-669798023D03*
X168260682Y-674798023D03*
D21*
X173260682Y-669798023D03*
X173260682Y-674798023D03*
%TD*%
D12*
%TO.C,H108*%
X558300682Y-755374689D03*
X559003626Y-753677633D03*
X559003626Y-757071745D03*
X560700682Y-752974689D03*
D13*
X560700682Y-755374689D03*
D12*
X560700682Y-757774689D03*
X562397738Y-753677633D03*
X562397738Y-757071745D03*
X563100682Y-755374689D03*
%TD*%
D26*
%TO.C,J201*%
X268735682Y-788598023D03*
X273735682Y-788598023D03*
D27*
X268735682Y-783598023D03*
X273735682Y-783598023D03*
%TD*%
D52*
%TO.C,C308*%
X279735682Y-773798023D03*
X279735682Y-770198023D03*
%TD*%
D53*
%TO.C,D202*%
X314985682Y-783398023D03*
X314985682Y-786698023D03*
%TD*%
D12*
%TO.C,H110*%
X463383626Y-736521800D03*
X464086570Y-734824744D03*
X464086570Y-738218856D03*
X465783626Y-734121800D03*
D13*
X465783626Y-736521800D03*
D12*
X465783626Y-738921800D03*
X467480682Y-734824744D03*
X467480682Y-738218856D03*
X468183626Y-736521800D03*
%TD*%
D42*
%TO.C,C208*%
X335685682Y-784798023D03*
X344385682Y-784798023D03*
%TD*%
D28*
%TO.C,C309*%
X276235682Y-770185523D03*
X276235682Y-773310523D03*
%TD*%
D12*
%TO.C,H102*%
X123717711Y-761375658D03*
X124420655Y-759678602D03*
X124420655Y-763072714D03*
X126117711Y-758975658D03*
D13*
X126117711Y-761375658D03*
D12*
X126117711Y-763775658D03*
X127814767Y-759678602D03*
X127814767Y-763072714D03*
X128517711Y-761375658D03*
%TD*%
D16*
%TO.C,R307*%
X266550000Y-763037500D03*
X266550000Y-765962500D03*
%TD*%
D49*
%TO.C,TP204*%
X341660682Y-775298023D03*
%TD*%
D17*
%TO.C,J108*%
X539700682Y-686148023D03*
D18*
X539700682Y-683608023D03*
X537160682Y-686148023D03*
X537160682Y-683608023D03*
X534620682Y-686148023D03*
X534620682Y-683608023D03*
X532080682Y-686148023D03*
X532080682Y-683608023D03*
X529540682Y-686148023D03*
X529540682Y-683608023D03*
%TD*%
D12*
%TO.C,H408*%
X178670682Y-761298023D03*
X179373626Y-759600967D03*
X179373626Y-762995079D03*
X181070682Y-758898023D03*
D13*
X181070682Y-761298023D03*
D12*
X181070682Y-763698023D03*
X182767738Y-759600967D03*
X182767738Y-762995079D03*
X183470682Y-761298023D03*
%TD*%
D26*
%TO.C,SW301*%
X419680682Y-750368023D03*
X424680682Y-750368023D03*
D27*
X419680682Y-745368023D03*
X424680682Y-745368023D03*
X419680682Y-740368023D03*
X424680682Y-740368023D03*
%TD*%
D12*
%TO.C,H108*%
X88300682Y-755374689D03*
X89003626Y-753677633D03*
X89003626Y-757071745D03*
X90700682Y-752974689D03*
D13*
X90700682Y-755374689D03*
D12*
X90700682Y-757774689D03*
X92397738Y-753677633D03*
X92397738Y-757071745D03*
X93100682Y-755374689D03*
%TD*%
D32*
%TO.C,R305*%
X412725682Y-750038023D03*
X409800682Y-750038023D03*
%TD*%
D10*
%TO.C,U412*%
X341090682Y-712948023D03*
X342360682Y-712948023D03*
X343630682Y-712948023D03*
X344900682Y-712948023D03*
X346170682Y-712948023D03*
X347440682Y-712948023D03*
X348710682Y-712948023D03*
X348710682Y-707998023D03*
X347440682Y-707998023D03*
X346170682Y-707998023D03*
X344900682Y-707998023D03*
X343630682Y-707998023D03*
X342360682Y-707998023D03*
X341090682Y-707998023D03*
%TD*%
D26*
%TO.C,RV301*%
X301235682Y-763010523D03*
X306235682Y-763010523D03*
D27*
X301235682Y-758010523D03*
X306235682Y-758010523D03*
X301235682Y-753010523D03*
X306235682Y-753010523D03*
%TD*%
D40*
%TO.C,R303*%
X294485682Y-763010523D03*
X294485682Y-760085523D03*
%TD*%
D22*
%TO.C,D302*%
X269248182Y-766198023D03*
X272223182Y-766198023D03*
%TD*%
D20*
%TO.C,J504*%
X108260682Y-669798023D03*
X108260682Y-674798023D03*
D21*
X113260682Y-669798023D03*
X113260682Y-674798023D03*
%TD*%
D34*
%TO.C,C417*%
X372300682Y-746214689D03*
X372300682Y-747174689D03*
%TD*%
D54*
%TO.C,U301*%
X289260682Y-764855523D03*
X289260682Y-766125523D03*
X289260682Y-767395523D03*
X289260682Y-768665523D03*
X294210682Y-768665523D03*
X294210682Y-767395523D03*
X294210682Y-766125523D03*
X294210682Y-764855523D03*
%TD*%
D14*
%TO.C,C418*%
X356520682Y-734048023D03*
X355560682Y-734048023D03*
%TD*%
D49*
%TO.C,TP203*%
X331910682Y-782223023D03*
%TD*%
D20*
%TO.C,J504*%
X228260682Y-669798023D03*
X228260682Y-674798023D03*
D21*
X233260682Y-669798023D03*
X233260682Y-674798023D03*
%TD*%
D12*
%TO.C,H108*%
X558300682Y-643708023D03*
X559003626Y-642010967D03*
X559003626Y-645405079D03*
X560700682Y-641308023D03*
D13*
X560700682Y-643708023D03*
D12*
X560700682Y-646108023D03*
X562397738Y-642010967D03*
X562397738Y-645405079D03*
X563100682Y-643708023D03*
%TD*%
D40*
%TO.C,R104*%
X432880682Y-708548023D03*
X432880682Y-705623023D03*
%TD*%
D26*
%TO.C,J119*%
X460730682Y-722398023D03*
X465730682Y-722398023D03*
D27*
X460730682Y-717398023D03*
X465730682Y-717398023D03*
%TD*%
D55*
%TO.C,U201*%
X320310682Y-793648023D03*
X320810682Y-793648023D03*
X321310682Y-793648023D03*
X321810682Y-793648023D03*
X322310682Y-793648023D03*
X322810682Y-793648023D03*
X323310682Y-793648023D03*
X323810682Y-793648023D03*
X323810682Y-789248023D03*
X323310682Y-789248023D03*
X322810682Y-789248023D03*
X322310682Y-789248023D03*
X321810682Y-789248023D03*
X321310682Y-789248023D03*
X320810682Y-789248023D03*
X320310682Y-789248023D03*
D56*
X322110682Y-791448023D03*
%TD*%
D16*
%TO.C,R202*%
X297985682Y-792773023D03*
X297985682Y-795698023D03*
%TD*%
D10*
%TO.C,U415*%
X261270682Y-732348023D03*
X262540682Y-732348023D03*
X263810682Y-732348023D03*
X265080682Y-732348023D03*
X266350682Y-732348023D03*
X267620682Y-732348023D03*
X268890682Y-732348023D03*
X268890682Y-727398023D03*
X267620682Y-727398023D03*
X266350682Y-727398023D03*
X265080682Y-727398023D03*
X263810682Y-727398023D03*
X262540682Y-727398023D03*
X261270682Y-727398023D03*
%TD*%
D38*
%TO.C,C408*%
X363010682Y-749528023D03*
X363010682Y-748568023D03*
%TD*%
D12*
%TO.C,H108*%
X558300682Y-699541356D03*
X559003626Y-697844300D03*
X559003626Y-701238412D03*
X560700682Y-697141356D03*
D13*
X560700682Y-699541356D03*
D12*
X560700682Y-701941356D03*
X562397738Y-697844300D03*
X562397738Y-701238412D03*
X563100682Y-699541356D03*
%TD*%
D15*
%TO.C,D114*%
X420920682Y-693198023D03*
X420920682Y-689898023D03*
%TD*%
D10*
%TO.C,U410*%
X365360682Y-713198023D03*
X366630682Y-713198023D03*
X367900682Y-713198023D03*
X369170682Y-713198023D03*
X370440682Y-713198023D03*
X371710682Y-713198023D03*
X372980682Y-713198023D03*
X372980682Y-708248023D03*
X371710682Y-708248023D03*
X370440682Y-708248023D03*
X369170682Y-708248023D03*
X367900682Y-708248023D03*
X366630682Y-708248023D03*
X365360682Y-708248023D03*
%TD*%
%TO.C,U401*%
X394640682Y-732498023D03*
X395910682Y-732498023D03*
X397180682Y-732498023D03*
X398450682Y-732498023D03*
X399720682Y-732498023D03*
X400990682Y-732498023D03*
X402260682Y-732498023D03*
X402260682Y-727548023D03*
X400990682Y-727548023D03*
X399720682Y-727548023D03*
X398450682Y-727548023D03*
X397180682Y-727548023D03*
X395910682Y-727548023D03*
X394640682Y-727548023D03*
%TD*%
D57*
%TO.C,C310*%
X272985682Y-776698023D03*
X271085682Y-776698023D03*
%TD*%
D20*
%TO.C,J503*%
X243410682Y-669798023D03*
X243410682Y-674798023D03*
D21*
X248410682Y-669798023D03*
X248410682Y-674798023D03*
%TD*%
D20*
%TO.C,J504*%
X348260682Y-669798023D03*
X348260682Y-674798023D03*
D21*
X353260682Y-669798023D03*
X353260682Y-674798023D03*
%TD*%
D15*
%TO.C,D116*%
X541020682Y-693198023D03*
X541020682Y-689898023D03*
%TD*%
D12*
%TO.C,H108*%
X248300682Y-699541356D03*
X249003626Y-697844300D03*
X249003626Y-701238412D03*
X250700682Y-697141356D03*
D13*
X250700682Y-699541356D03*
D12*
X250700682Y-701941356D03*
X252397738Y-697844300D03*
X252397738Y-701238412D03*
X253100682Y-699541356D03*
%TD*%
D58*
%TO.C,D203*%
X319910682Y-786860523D03*
X322710682Y-786860523D03*
%TD*%
D59*
%TO.C,C307*%
X268485682Y-772798023D03*
X268485682Y-774698023D03*
%TD*%
D17*
%TO.C,J106*%
X419820682Y-685988023D03*
D18*
X419820682Y-683448023D03*
X417280682Y-685988023D03*
X417280682Y-683448023D03*
X414740682Y-685988023D03*
X414740682Y-683448023D03*
X412200682Y-685988023D03*
X412200682Y-683448023D03*
X409660682Y-685988023D03*
X409660682Y-683448023D03*
%TD*%
D26*
%TO.C,SW401*%
X405630682Y-763435523D03*
X400630682Y-763435523D03*
D27*
X405630682Y-768435523D03*
X400630682Y-768435523D03*
%TD*%
D40*
%TO.C,R302*%
X294485682Y-758185523D03*
X294485682Y-755260523D03*
%TD*%
D10*
%TO.C,U403*%
X331650682Y-750323023D03*
X332920682Y-750323023D03*
X334190682Y-750323023D03*
X335460682Y-750323023D03*
X336730682Y-750323023D03*
X338000682Y-750323023D03*
X339270682Y-750323023D03*
X339270682Y-745373023D03*
X338000682Y-745373023D03*
X336730682Y-745373023D03*
X335460682Y-745373023D03*
X334190682Y-745373023D03*
X332920682Y-745373023D03*
X331650682Y-745373023D03*
%TD*%
D34*
%TO.C,C411*%
X329260682Y-746068023D03*
X329260682Y-747028023D03*
%TD*%
D15*
%TO.C,D108*%
X534520682Y-693198023D03*
X534520682Y-689898023D03*
%TD*%
D38*
%TO.C,C203*%
X318735682Y-791110523D03*
X318735682Y-790150523D03*
%TD*%
D11*
%TO.C,U302*%
X274235682Y-769248023D03*
X272965682Y-769248023D03*
X271695682Y-769248023D03*
X270425682Y-769248023D03*
X270425682Y-774198023D03*
X271695682Y-774198023D03*
X272965682Y-774198023D03*
X274235682Y-774198023D03*
%TD*%
D45*
%TO.C,R308*%
X274735682Y-776698023D03*
X277660682Y-776698023D03*
%TD*%
D14*
%TO.C,C407*%
X313270682Y-734048023D03*
X312310682Y-734048023D03*
%TD*%
D45*
%TO.C,R301*%
X284023182Y-771510523D03*
X286948182Y-771510523D03*
%TD*%
D17*
%TO.C,JP201*%
X113775682Y-646808023D03*
D18*
X116315682Y-646808023D03*
%TD*%
D60*
%TO.C,U406*%
X336715682Y-764798023D03*
X337985682Y-764798023D03*
X339255682Y-764798023D03*
X340525682Y-764798023D03*
X341795682Y-764798023D03*
X343065682Y-764798023D03*
X344335682Y-764798023D03*
X345605682Y-764798023D03*
X345605682Y-758298023D03*
X344335682Y-758298023D03*
X343065682Y-758298023D03*
X341795682Y-758298023D03*
X340525682Y-758298023D03*
X339255682Y-758298023D03*
X337985682Y-758298023D03*
X336715682Y-758298023D03*
%TD*%
D20*
%TO.C,J504*%
X468260682Y-669798023D03*
X468260682Y-674798023D03*
D21*
X473260682Y-669798023D03*
X473260682Y-674798023D03*
%TD*%
D61*
%TO.C,D201*%
X279735682Y-785613023D03*
X279735682Y-787013023D03*
%TD*%
D62*
%TO.C,C302*%
X299235682Y-769260523D03*
X299235682Y-774660523D03*
%TD*%
D40*
%TO.C,R203*%
X325910682Y-785048023D03*
X325910682Y-782123023D03*
%TD*%
D10*
%TO.C,U411*%
X308630682Y-732274689D03*
X309900682Y-732274689D03*
X311170682Y-732274689D03*
X312440682Y-732274689D03*
X313710682Y-732274689D03*
X314980682Y-732274689D03*
X316250682Y-732274689D03*
X316250682Y-727324689D03*
X314980682Y-727324689D03*
X313710682Y-727324689D03*
X312440682Y-727324689D03*
X311170682Y-727324689D03*
X309900682Y-727324689D03*
X308630682Y-727324689D03*
%TD*%
D16*
%TO.C,R102*%
X432980682Y-699973023D03*
X432980682Y-702898023D03*
%TD*%
M02*
