%TF.GenerationSoftware,KiCad,Pcbnew,7.0.8*%
%TF.CreationDate,2023-11-16T11:59:51+01:00*%
%TF.ProjectId,main-board-rev1,6d61696e-2d62-46f6-9172-642d72657631,rev?*%
%TF.SameCoordinates,Original*%
%TF.FileFunction,Soldermask,Bot*%
%TF.FilePolarity,Negative*%
%FSLAX46Y46*%
G04 Gerber Fmt 4.6, Leading zero omitted, Abs format (unit mm)*
G04 Created by KiCad (PCBNEW 7.0.8) date 2023-11-16 11:59:51*
%MOMM*%
%LPD*%
G01*
G04 APERTURE LIST*
%ADD10C,0.800000*%
%ADD11C,6.400000*%
%ADD12R,1.700000X1.700000*%
%ADD13O,1.700000X1.700000*%
%ADD14R,1.500000X3.000000*%
%ADD15O,1.500000X3.000000*%
%ADD16R,3.000000X1.500000*%
%ADD17O,3.000000X1.500000*%
%ADD18C,2.000000*%
G04 APERTURE END LIST*
D10*
%TO.C,H108*%
X88300682Y-643708023D03*
X89003626Y-642010967D03*
X89003626Y-645405079D03*
X90700682Y-641308023D03*
D11*
X90700682Y-643708023D03*
D10*
X90700682Y-646108023D03*
X92397738Y-642010967D03*
X92397738Y-645405079D03*
X93100682Y-643708023D03*
%TD*%
%TO.C,H108*%
X408300682Y-643708023D03*
X409003626Y-642010967D03*
X409003626Y-645405079D03*
X410700682Y-641308023D03*
D11*
X410700682Y-643708023D03*
D10*
X410700682Y-646108023D03*
X412397738Y-642010967D03*
X412397738Y-645405079D03*
X413100682Y-643708023D03*
%TD*%
D12*
%TO.C,J105*%
X359720682Y-686088023D03*
D13*
X359720682Y-683548023D03*
X357180682Y-686088023D03*
X357180682Y-683548023D03*
X354640682Y-686088023D03*
X354640682Y-683548023D03*
X352100682Y-686088023D03*
X352100682Y-683548023D03*
X349560682Y-686088023D03*
X349560682Y-683548023D03*
%TD*%
D14*
%TO.C,J503*%
X363410682Y-669798023D03*
X363410682Y-674798023D03*
D15*
X368410682Y-669798023D03*
X368410682Y-674798023D03*
%TD*%
D10*
%TO.C,H108*%
X248300682Y-643708023D03*
X249003626Y-642010967D03*
X249003626Y-645405079D03*
X250700682Y-641308023D03*
D11*
X250700682Y-643708023D03*
D10*
X250700682Y-646108023D03*
X252397738Y-642010967D03*
X252397738Y-645405079D03*
X253100682Y-643708023D03*
%TD*%
D16*
%TO.C,J120*%
X460580682Y-752135523D03*
X465580682Y-752135523D03*
D17*
X460580682Y-747135523D03*
X465580682Y-747135523D03*
%TD*%
D12*
%TO.C,J104*%
X299780682Y-685788023D03*
D13*
X299780682Y-683248023D03*
X297240682Y-685788023D03*
X297240682Y-683248023D03*
X294700682Y-685788023D03*
X294700682Y-683248023D03*
X292160682Y-685788023D03*
X292160682Y-683248023D03*
X289620682Y-685788023D03*
X289620682Y-683248023D03*
%TD*%
D16*
%TO.C,J202*%
X101890682Y-659358023D03*
X106890682Y-659358023D03*
D17*
X101890682Y-654358023D03*
X106890682Y-654358023D03*
X101890682Y-649358023D03*
X106890682Y-649358023D03*
%TD*%
D10*
%TO.C,H108*%
X408300682Y-699541356D03*
X409003626Y-697844300D03*
X409003626Y-701238412D03*
X410700682Y-697141356D03*
D11*
X410700682Y-699541356D03*
D10*
X410700682Y-701941356D03*
X412397738Y-697844300D03*
X412397738Y-701238412D03*
X413100682Y-699541356D03*
%TD*%
D12*
%TO.C,J1*%
X311980682Y-800574689D03*
D13*
X309440682Y-800574689D03*
X306900682Y-800574689D03*
X304360682Y-800574689D03*
X301820682Y-800574689D03*
X299280682Y-800574689D03*
%TD*%
D14*
%TO.C,J503*%
X423410682Y-669798023D03*
X423410682Y-674798023D03*
D15*
X428410682Y-669798023D03*
X428410682Y-674798023D03*
%TD*%
D14*
%TO.C,J504*%
X528260682Y-669798023D03*
X528260682Y-674798023D03*
D15*
X533260682Y-669798023D03*
X533260682Y-674798023D03*
%TD*%
D10*
%TO.C,H108*%
X248300682Y-806208023D03*
X249003626Y-804510967D03*
X249003626Y-807905079D03*
X250700682Y-803808023D03*
D11*
X250700682Y-806208023D03*
D10*
X250700682Y-808608023D03*
X252397738Y-804510967D03*
X252397738Y-807905079D03*
X253100682Y-806208023D03*
%TD*%
D14*
%TO.C,J503*%
X543410682Y-669798023D03*
X543410682Y-674798023D03*
D15*
X548410682Y-669798023D03*
X548410682Y-674798023D03*
%TD*%
D10*
%TO.C,H108*%
X408300682Y-755374689D03*
X409003626Y-753677633D03*
X409003626Y-757071745D03*
X410700682Y-752974689D03*
D11*
X410700682Y-755374689D03*
D10*
X410700682Y-757774689D03*
X412397738Y-753677633D03*
X412397738Y-757071745D03*
X413100682Y-755374689D03*
%TD*%
D14*
%TO.C,SW201*%
X286085682Y-784448023D03*
X286085682Y-789448023D03*
D15*
X291085682Y-784448023D03*
X291085682Y-789448023D03*
%TD*%
D12*
%TO.C,J117*%
X521380682Y-703378023D03*
D13*
X523920682Y-703378023D03*
X521380682Y-705918023D03*
X523920682Y-705918023D03*
X521380682Y-708458023D03*
X523920682Y-708458023D03*
X521380682Y-710998023D03*
X523920682Y-710998023D03*
X521380682Y-713538023D03*
X523920682Y-713538023D03*
X521380682Y-716078023D03*
X523920682Y-716078023D03*
X521380682Y-718618023D03*
X523920682Y-718618023D03*
X521380682Y-721158023D03*
X523920682Y-721158023D03*
X521380682Y-723698023D03*
X523920682Y-723698023D03*
X521380682Y-726238023D03*
X523920682Y-726238023D03*
X521380682Y-728778023D03*
X523920682Y-728778023D03*
X521380682Y-731318023D03*
X523920682Y-731318023D03*
X521380682Y-733858023D03*
X523920682Y-733858023D03*
X521380682Y-736398023D03*
X523920682Y-736398023D03*
X521380682Y-738938023D03*
X523920682Y-738938023D03*
X521380682Y-741478023D03*
X523920682Y-741478023D03*
X521380682Y-744018023D03*
X523920682Y-744018023D03*
X521380682Y-746558023D03*
X523920682Y-746558023D03*
X521380682Y-749098023D03*
X523920682Y-749098023D03*
X521380682Y-751638023D03*
X523920682Y-751638023D03*
X521380682Y-754178023D03*
X523920682Y-754178023D03*
X521380682Y-756718023D03*
X523920682Y-756718023D03*
X521380682Y-759258023D03*
X523920682Y-759258023D03*
X521380682Y-761798023D03*
X523920682Y-761798023D03*
X521380682Y-764338023D03*
X523920682Y-764338023D03*
X521380682Y-766878023D03*
X523920682Y-766878023D03*
X521380682Y-769418023D03*
X523920682Y-769418023D03*
X521380682Y-771958023D03*
X523920682Y-771958023D03*
X521380682Y-774498023D03*
X523920682Y-774498023D03*
X521380682Y-777038023D03*
X523920682Y-777038023D03*
X521380682Y-779578023D03*
X523920682Y-779578023D03*
X521380682Y-782118023D03*
X523920682Y-782118023D03*
%TD*%
D14*
%TO.C,SW302*%
X273225682Y-754500523D03*
X273225682Y-759500523D03*
D15*
X278225682Y-754500523D03*
X278225682Y-759500523D03*
%TD*%
D14*
%TO.C,J503*%
X483410682Y-669798023D03*
X483410682Y-674798023D03*
D15*
X488410682Y-669798023D03*
X488410682Y-674798023D03*
%TD*%
D10*
%TO.C,H108*%
X408300682Y-806208023D03*
X409003626Y-804510967D03*
X409003626Y-807905079D03*
X410700682Y-803808023D03*
D11*
X410700682Y-806208023D03*
D10*
X410700682Y-808608023D03*
X412397738Y-804510967D03*
X412397738Y-807905079D03*
X413100682Y-806208023D03*
%TD*%
%TO.C,H108*%
X558300682Y-806208023D03*
X559003626Y-804510967D03*
X559003626Y-807905079D03*
X560700682Y-803808023D03*
D11*
X560700682Y-806208023D03*
D10*
X560700682Y-808608023D03*
X562397738Y-804510967D03*
X562397738Y-807905079D03*
X563100682Y-806208023D03*
%TD*%
D12*
%TO.C,J103*%
X239620682Y-685748023D03*
D13*
X239620682Y-683208023D03*
X237080682Y-685748023D03*
X237080682Y-683208023D03*
X234540682Y-685748023D03*
X234540682Y-683208023D03*
X232000682Y-685748023D03*
X232000682Y-683208023D03*
X229460682Y-685748023D03*
X229460682Y-683208023D03*
%TD*%
D14*
%TO.C,J504*%
X288260682Y-669798023D03*
X288260682Y-674798023D03*
D15*
X293260682Y-669798023D03*
X293260682Y-674798023D03*
%TD*%
D10*
%TO.C,H407*%
X107770682Y-725298023D03*
X108473626Y-723600967D03*
X108473626Y-726995079D03*
X110170682Y-722898023D03*
D11*
X110170682Y-725298023D03*
D10*
X110170682Y-727698023D03*
X111867738Y-723600967D03*
X111867738Y-726995079D03*
X112570682Y-725298023D03*
%TD*%
D12*
%TO.C,J102*%
X180620682Y-685648023D03*
D13*
X180620682Y-683108023D03*
X178080682Y-685648023D03*
X178080682Y-683108023D03*
X175540682Y-685648023D03*
X175540682Y-683108023D03*
X173000682Y-685648023D03*
X173000682Y-683108023D03*
X170460682Y-685648023D03*
X170460682Y-683108023D03*
%TD*%
D10*
%TO.C,H108*%
X88300682Y-699541356D03*
X89003626Y-697844300D03*
X89003626Y-701238412D03*
X90700682Y-697141356D03*
D11*
X90700682Y-699541356D03*
D10*
X90700682Y-701941356D03*
X92397738Y-697844300D03*
X92397738Y-701238412D03*
X93100682Y-699541356D03*
%TD*%
D14*
%TO.C,J503*%
X123410682Y-669798023D03*
X123410682Y-674798023D03*
D15*
X128410682Y-669798023D03*
X128410682Y-674798023D03*
%TD*%
D10*
%TO.C,H108*%
X248300682Y-755374689D03*
X249003626Y-753677633D03*
X249003626Y-757071745D03*
X250700682Y-752974689D03*
D11*
X250700682Y-755374689D03*
D10*
X250700682Y-757774689D03*
X252397738Y-753677633D03*
X252397738Y-757071745D03*
X253100682Y-755374689D03*
%TD*%
%TO.C,H405*%
X200270682Y-795198023D03*
X200973626Y-793500967D03*
X200973626Y-796895079D03*
X202670682Y-792798023D03*
D11*
X202670682Y-795198023D03*
D10*
X202670682Y-797598023D03*
X204367738Y-793500967D03*
X204367738Y-796895079D03*
X205070682Y-795198023D03*
%TD*%
%TO.C,H108*%
X88300682Y-806208023D03*
X89003626Y-804510967D03*
X89003626Y-807905079D03*
X90700682Y-803808023D03*
D11*
X90700682Y-806208023D03*
D10*
X90700682Y-808608023D03*
X92397738Y-804510967D03*
X92397738Y-807905079D03*
X93100682Y-806208023D03*
%TD*%
D12*
%TO.C,J107*%
X479420682Y-686148023D03*
D13*
X479420682Y-683608023D03*
X476880682Y-686148023D03*
X476880682Y-683608023D03*
X474340682Y-686148023D03*
X474340682Y-683608023D03*
X471800682Y-686148023D03*
X471800682Y-683608023D03*
X469260682Y-686148023D03*
X469260682Y-683608023D03*
%TD*%
D18*
%TO.C,TP401*%
X446830682Y-730298023D03*
%TD*%
D14*
%TO.C,J504*%
X408260682Y-669798023D03*
X408260682Y-674798023D03*
D15*
X413260682Y-669798023D03*
X413260682Y-674798023D03*
%TD*%
D12*
%TO.C,J101*%
X119620682Y-685648023D03*
D13*
X119620682Y-683108023D03*
X117080682Y-685648023D03*
X117080682Y-683108023D03*
X114540682Y-685648023D03*
X114540682Y-683108023D03*
X112000682Y-685648023D03*
X112000682Y-683108023D03*
X109460682Y-685648023D03*
X109460682Y-683108023D03*
%TD*%
D14*
%TO.C,J503*%
X183410682Y-669798023D03*
X183410682Y-674798023D03*
D15*
X188410682Y-669798023D03*
X188410682Y-674798023D03*
%TD*%
D14*
%TO.C,J503*%
X303410682Y-669798023D03*
X303410682Y-674798023D03*
D15*
X308410682Y-669798023D03*
X308410682Y-674798023D03*
%TD*%
D14*
%TO.C,J504*%
X168260682Y-669798023D03*
X168260682Y-674798023D03*
D15*
X173260682Y-669798023D03*
X173260682Y-674798023D03*
%TD*%
D10*
%TO.C,H108*%
X558300682Y-755374689D03*
X559003626Y-753677633D03*
X559003626Y-757071745D03*
X560700682Y-752974689D03*
D11*
X560700682Y-755374689D03*
D10*
X560700682Y-757774689D03*
X562397738Y-753677633D03*
X562397738Y-757071745D03*
X563100682Y-755374689D03*
%TD*%
D16*
%TO.C,J201*%
X268735682Y-788598023D03*
X273735682Y-788598023D03*
D17*
X268735682Y-783598023D03*
X273735682Y-783598023D03*
%TD*%
D10*
%TO.C,H110*%
X463383626Y-736521800D03*
X464086570Y-734824744D03*
X464086570Y-738218856D03*
X465783626Y-734121800D03*
D11*
X465783626Y-736521800D03*
D10*
X465783626Y-738921800D03*
X467480682Y-734824744D03*
X467480682Y-738218856D03*
X468183626Y-736521800D03*
%TD*%
%TO.C,H102*%
X123717711Y-761375658D03*
X124420655Y-759678602D03*
X124420655Y-763072714D03*
X126117711Y-758975658D03*
D11*
X126117711Y-761375658D03*
D10*
X126117711Y-763775658D03*
X127814767Y-759678602D03*
X127814767Y-763072714D03*
X128517711Y-761375658D03*
%TD*%
D18*
%TO.C,TP204*%
X341660682Y-775298023D03*
%TD*%
D12*
%TO.C,J108*%
X539700682Y-686148023D03*
D13*
X539700682Y-683608023D03*
X537160682Y-686148023D03*
X537160682Y-683608023D03*
X534620682Y-686148023D03*
X534620682Y-683608023D03*
X532080682Y-686148023D03*
X532080682Y-683608023D03*
X529540682Y-686148023D03*
X529540682Y-683608023D03*
%TD*%
D10*
%TO.C,H408*%
X178670682Y-761298023D03*
X179373626Y-759600967D03*
X179373626Y-762995079D03*
X181070682Y-758898023D03*
D11*
X181070682Y-761298023D03*
D10*
X181070682Y-763698023D03*
X182767738Y-759600967D03*
X182767738Y-762995079D03*
X183470682Y-761298023D03*
%TD*%
D16*
%TO.C,SW301*%
X419680682Y-750368023D03*
X424680682Y-750368023D03*
D17*
X419680682Y-745368023D03*
X424680682Y-745368023D03*
X419680682Y-740368023D03*
X424680682Y-740368023D03*
%TD*%
D10*
%TO.C,H108*%
X88300682Y-755374689D03*
X89003626Y-753677633D03*
X89003626Y-757071745D03*
X90700682Y-752974689D03*
D11*
X90700682Y-755374689D03*
D10*
X90700682Y-757774689D03*
X92397738Y-753677633D03*
X92397738Y-757071745D03*
X93100682Y-755374689D03*
%TD*%
D16*
%TO.C,RV301*%
X301235682Y-763010523D03*
X306235682Y-763010523D03*
D17*
X301235682Y-758010523D03*
X306235682Y-758010523D03*
X301235682Y-753010523D03*
X306235682Y-753010523D03*
%TD*%
D14*
%TO.C,J504*%
X108260682Y-669798023D03*
X108260682Y-674798023D03*
D15*
X113260682Y-669798023D03*
X113260682Y-674798023D03*
%TD*%
D18*
%TO.C,TP203*%
X331910682Y-782223023D03*
%TD*%
D14*
%TO.C,J504*%
X228260682Y-669798023D03*
X228260682Y-674798023D03*
D15*
X233260682Y-669798023D03*
X233260682Y-674798023D03*
%TD*%
D10*
%TO.C,H108*%
X558300682Y-643708023D03*
X559003626Y-642010967D03*
X559003626Y-645405079D03*
X560700682Y-641308023D03*
D11*
X560700682Y-643708023D03*
D10*
X560700682Y-646108023D03*
X562397738Y-642010967D03*
X562397738Y-645405079D03*
X563100682Y-643708023D03*
%TD*%
D16*
%TO.C,J119*%
X460730682Y-722398023D03*
X465730682Y-722398023D03*
D17*
X460730682Y-717398023D03*
X465730682Y-717398023D03*
%TD*%
D10*
%TO.C,H108*%
X558300682Y-699541356D03*
X559003626Y-697844300D03*
X559003626Y-701238412D03*
X560700682Y-697141356D03*
D11*
X560700682Y-699541356D03*
D10*
X560700682Y-701941356D03*
X562397738Y-697844300D03*
X562397738Y-701238412D03*
X563100682Y-699541356D03*
%TD*%
D14*
%TO.C,J503*%
X243410682Y-669798023D03*
X243410682Y-674798023D03*
D15*
X248410682Y-669798023D03*
X248410682Y-674798023D03*
%TD*%
D14*
%TO.C,J504*%
X348260682Y-669798023D03*
X348260682Y-674798023D03*
D15*
X353260682Y-669798023D03*
X353260682Y-674798023D03*
%TD*%
D10*
%TO.C,H108*%
X248300682Y-699541356D03*
X249003626Y-697844300D03*
X249003626Y-701238412D03*
X250700682Y-697141356D03*
D11*
X250700682Y-699541356D03*
D10*
X250700682Y-701941356D03*
X252397738Y-697844300D03*
X252397738Y-701238412D03*
X253100682Y-699541356D03*
%TD*%
D12*
%TO.C,J106*%
X419820682Y-685988023D03*
D13*
X419820682Y-683448023D03*
X417280682Y-685988023D03*
X417280682Y-683448023D03*
X414740682Y-685988023D03*
X414740682Y-683448023D03*
X412200682Y-685988023D03*
X412200682Y-683448023D03*
X409660682Y-685988023D03*
X409660682Y-683448023D03*
%TD*%
D16*
%TO.C,SW401*%
X405630682Y-763435523D03*
X400630682Y-763435523D03*
D17*
X405630682Y-768435523D03*
X400630682Y-768435523D03*
%TD*%
D12*
%TO.C,JP201*%
X113775682Y-646808023D03*
D13*
X116315682Y-646808023D03*
%TD*%
D14*
%TO.C,J504*%
X468260682Y-669798023D03*
X468260682Y-674798023D03*
D15*
X473260682Y-669798023D03*
X473260682Y-674798023D03*
%TD*%
M02*
